<svg xmlns="http://www.w3.org/2000/svg" xmlns:xlink="http://www.w3.org/1999/xlink" width="325.563" height="278.619" viewBox="0 0 325.563 278.619"><defs><clipPath id="a"><rect width="325.563" height="278.619" fill="none"/></clipPath><clipPath id="c"><rect width="17.59" height="11.202" transform="translate(150.494 184.184) rotate(-6.077)" fill="none"/></clipPath><clipPath id="e"><rect width="14.6" height="11.145" transform="translate(156.944 176.581) rotate(-6.073)" fill="none"/></clipPath><clipPath id="g"><rect width="20.564" height="20.482" transform="translate(45.316 223.972)" fill="none"/></clipPath><clipPath id="h"><rect width="8.574" height="9.103" transform="translate(88.875 198.491)" fill="none"/></clipPath><clipPath id="j"><rect width="10.239" height="9.34" transform="translate(49.078 195.27)" fill="none"/></clipPath><clipPath id="k"><rect width="9.023" height="13.708" transform="translate(49.37 199.256)" fill="none"/></clipPath><clipPath id="m"><rect width="3.582" height="3.542" transform="translate(81.329 266.616)" fill="none"/></clipPath><clipPath id="o"><rect width="8.643" height="5.177" transform="translate(37.575 272.855)" fill="none"/></clipPath><clipPath id="p"><rect width="8.218" height="3.761" transform="translate(61.374 269.771)" fill="none"/></clipPath><clipPath id="q"><rect width="15.963" height="22.183" transform="translate(85.088 195.469)" fill="none"/></clipPath><clipPath id="r"><rect width="3.582" height="4.249" transform="translate(94.148 265.665)" fill="none"/></clipPath><clipPath id="t"><rect width="13.39" height="13.057" transform="translate(43.271 212.964)" fill="none"/></clipPath></defs><g clip-path="url(#a)"><g clip-path="url(#a)"><path d="M60.5,58.367A12.667,12.667,0,0,1,47.837,71.033h-35.3A9.969,9.969,0,1,1,14.986,51.4a15.6,15.6,0,0,1,28.938-5.083A12.676,12.676,0,0,1,60.5,58.367" fill="#dad2ff"/><path d="M325.563,30.206a19.192,19.192,0,0,1-19.19,19.19H252.89A15.1,15.1,0,1,1,256.6,19.652a23.635,23.635,0,0,1,43.842-7.7,19.2,19.2,0,0,1,25.117,18.255" fill="#dad2ff"/><path d="M293.661,87c-5.057.11-12.038.256-12.059.227L245.134,50.869,74.412,50.676,38.167,87.232,26.115,87l44.9-45.662H248.084Z" fill="#5535c3"/><path d="M38.167,87.232V248.405H26.094V87.018L26.115,87Z" fill="#dad2ff"/><path d="M293.674,87.019V248.4H281.6V87.233c.021.029,7-.118,12.06-.227Z" fill="#dad2ff"/><path d="M281.6,87.232V248.405H242.165V103.487l0,0L228.658,89.721,91.5,89.59,77.635,103.3l-.033.033V248.405H38.167V87.232L74.413,50.676l170.722.193Z" fill="#0b0754"/><path d="M242.166,103.488V248.4H77.6V103.334l.033-.033L91.5,89.591l137.162.131,13.506,13.764Z" fill="#5535c3"/><path d="M57.976,248.012V94.965L83.02,69.832l153.728.162,25.044,25.163V248.012" fill="none" stroke="#5b31cc" stroke-miterlimit="10" stroke-width="0.771"/><line y1="38.851" x2="16.477" transform="translate(228.658 50.658)" fill="none" stroke="#5b31cc" stroke-miterlimit="10" stroke-width="0.771"/><path d="M37.749,86.681,77.6,103.12l164.561.156,39.662-16.6" fill="none" stroke="#773fff" stroke-miterlimit="10" stroke-width="0.384"/><line y2="157.466" transform="translate(125.841 89.378)" fill="#082f53"/><line y2="157.466" transform="translate(125.841 89.378)" fill="none" stroke="#773fff" stroke-miterlimit="10" stroke-width="0.384"/><line y2="157.466" transform="translate(177.269 89.378)" fill="#082f53"/><line y2="157.466" transform="translate(177.269 89.378)" fill="none" stroke="#773fff" stroke-miterlimit="10" stroke-width="0.384"/><line y2="158.815" transform="translate(228.697 89.378)" fill="#082f53"/><line y2="158.815" transform="translate(228.697 89.378)" fill="none" stroke="#773fff" stroke-miterlimit="10" stroke-width="0.385"/><path d="M74.413,50.465,91.5,89.379V248.193" fill="none" stroke="#773fff" stroke-miterlimit="10" stroke-width="0.193"/><rect width="202.853" height="5.972" transform="translate(58.554 111.725)" fill="#39abd8"/><rect width="166.058" height="13.863" transform="translate(76.277 234.542)" fill="#0b0754"/><path d="M259.18,111.657v2h.664c-.332-.665,1-2.661,1-2.661-.332,1.328,1.376-.275,1.376-.275l-.047,2.6h.664a14.085,14.085,0,0,1,1.13-2.249c2.126-1.252,2.227,1.218,2.227,1.218v20.323c-.956-.332-12.315,0-12.315,0l1.99-10.644h-1.329l1.661-6.652a5.82,5.82,0,0,1,1.661-3.327l2.482-.919Z" fill="#801738"/><path d="M266.186,130.024l.293-16.7s.115-2.789-2.52-2.25l-1.746-.353s-2.649,18.584-2.183,19.308c0,0,5.2.94,6.158,0" fill="#f8a257"/><path d="M260.977,111.518l-.259-2.249,1.622.432-.127,1.015a13.856,13.856,0,0,1-1.234.8" fill="#fff"/><path d="M255.052,132.581l4.657-.095,2.789,17.421h-4.813Z" fill="#801738"/><path d="M266.186,132.612l2.328,17.3H262.5l-2.79-17.421Z" fill="#801738"/><path d="M269.133,152.57a13.574,13.574,0,0,1-.617-1.566l-.4-1.092h-2.126s.241,2.78.2,3.885v2.537H270.9v-.507s-.31-2.487-1.367-2.706Z"/><path d="M262.5,149.909l.682,3.211.313.448v1.493s.86,1.038.265,1.269c0,0-8.475.434-8.353,0s.456-2.1,1.783-2.43c0,0,2.975-.727,3.146-1.527,0,0,.824-1.466,0-2.464Z"/><path d="M266.479,108.331l-.293,3.958s-.128-2.489-2.227-1.218l-1.13,2.249h-.664l.047-2.6.127-1.016-1.622-.432,1.622-.684V106.1s.409,1.311,2.675,2.421Z"/><path d="M258.516,104.007s-1.329,3.5,0,4.578a2.922,2.922,0,0,0,2.2.685,3.406,3.406,0,0,0,1.621-.685V106.1l-.838-1.091Z" fill="#fff"/><path d="M258.436,104.235l-1.41-.228,1.749-.75s1.769-3.683,4.4-2.131c0,0,3.631,1.019,1.972,5.276l1.329,1.928s-1.622.964-3.3-1.015l-1.682-2.308Z" fill="#f8a257"/><path d="M260.335,111.071l-2.409,19.805s-3.052.088-3.572-.851,1.507-8.057,1.507-8.057l1.163-5.6.827-4.377Z" fill="#f8a257"/><path d="M258.876,108.848l.3,2.809v2h.665a4.692,4.692,0,0,1,1-2.661l-.12-1.723Z"/><path d="M262.829,113.32s2.147-5.779,3.65,0c0,0-1.256,8.008-.293,10.639h-4.657Z" fill="#801738"/><path d="M253.835,124.165a5.249,5.249,0,0,0,3.873,1.59l.832.074" fill="#fff"/><path d="M253.835,125.828a5.249,5.249,0,0,0,3.873,1.59l.632.052" fill="#fff"/><path d="M255.862,121.968h-6.63l1.321,11.975,3.318-1.329Z" fill="#fff"/><path d="M260.265,125.748s5.146.676,6-.155l-.026.991a12.206,12.206,0,0,1-6.058-.291Z" fill="#fff"/><path d="M260.118,127.333s5.289.676,6.166-.155l-.027.991a12.88,12.88,0,0,1-6.226-.291Z" fill="#fff"/><path d="M262.338,124.108h2.278s-1.456,5.173-.793,6.839c0,0,.285.664.641,1.661a5.85,5.85,0,0,0,.686,1.662.326.326,0,0,1-.318.332h-.014l-1.074-1.772.078,1.106s.333,1.662-.332,2l-.332-2.662s.332,2.662-.332,2.33l-.332-2.33s.371,2.662.019,2.662l-.683-2.994s.332,1.662-.333,1.328v-1.328a5.247,5.247,0,0,0,0-2.329Z" fill="#fff"/><rect width="51.366" height="9.631" transform="translate(180.374 111.725)" fill="#39abd8"/><rect width="27.653" height="24.273" transform="translate(137.923 209.973)" fill="#f8a257"/><path d="M167.59,216.908H135.419l2.5-6.935h27.653Z" fill="#e37e48"/><path d="M165.576,209.973H137.923l1.734-2.312h23.888Z" fill="#904b37"/><rect width="27.653" height="24.273" transform="translate(81.286 209.78)" fill="#f8a257"/><path d="M110.182,216.715H76.855l4.431-6.935h27.652Z" fill="#e37e48"/><path d="M108.939,209.78H81.286l1.734-2.312h23.888Z" fill="#904b37"/><path d="M165.372,163.654l-1.513,8.658,8.2,4.571,5.2-4.474s-9.584,1.337-11.887-8.758" fill="#39abd8"/><path d="M167.937,177.939l-3.318-1.849,1.559-2.5,3.318,1.849Z" fill="#239cc1"/><path d="M162.579,184.426l-5.664,2.31,6.271,3.495Z" fill="#239cc1"/></g><g clip-path="url(#c)"><path d="M169.049,192.6l-.439.837a.2.2,0,0,1-.257.084L150.7,185.29a.178.178,0,0,1-.085-.243l.439-.837a.2.2,0,0,1,.257-.084l17.65,8.229a.178.178,0,0,1,.086.243" fill="#fff"/></g><g clip-path="url(#a)"><path d="M164.6,191.607l3.989,1.851-9,12.284-1.638-.694Z" fill="#fff"/><path d="M155.031,187.242l-4.4-2.209L146.4,199.355l1.591.786Z" fill="#fff"/><path d="M156.924,176.482l8.015-2.626,4.473,2.57,3.055,7.889Z" fill="#39abd8"/></g><g clip-path="url(#e)"><path d="M156.944,176.581l15.488,7.562-9.5,3.008-3.22-1.655Z" fill="#fff"/></g><g clip-path="url(#a)"><path d="M158.555,202.061a5.587,5.587,0,1,1-5.955-5.192,5.587,5.587,0,0,1,5.955,5.192" fill="#fff"/><path d="M187.548,159.181h0a8.959,8.959,0,0,1,.374-12.663l16.832-15.866,12.289,13.037-16.832,15.866a8.958,8.958,0,0,1-12.663-.374" fill="#239cc1"/><rect width="20.283" height="20.228" transform="translate(196.76 123.476)" fill="#239cc1"/><rect width="27.878" height="15.797" transform="translate(192.963 120.586)" fill="#39abd8"/><path d="M202.635,183.326h0a8.957,8.957,0,0,1-11.02-6.249L185.626,155.4a8.958,8.958,0,1,1,17.269-4.771l5.989,21.672a8.959,8.959,0,0,1-6.249,11.02" fill="#39abd8"/><path d="M199.376,152.373a5.2,5.2,0,1,1-5.2-5.2,5.2,5.2,0,0,1,5.2,5.2" fill="#239cc1"/><path d="M198.251,152.373a4.077,4.077,0,0,1-3.655,4.056v-8.112a4.077,4.077,0,0,1,3.655,4.056" fill="#29129b"/><path d="M193.753,148.317v8.111a4.077,4.077,0,0,1,0-8.111" fill="#29129b"/><path d="M194.6,148.317v8.111a4.238,4.238,0,0,1-.843,0v-8.111a4.241,4.241,0,0,1,.843,0" fill="#fff"/><path d="M208.656,178.231h0a8.957,8.957,0,0,1-11.663,4.946L170.61,172.508a8.958,8.958,0,1,1,6.716-16.609l26.384,10.669a8.958,8.958,0,0,1,4.946,11.663" fill="#239cc1"/><path d="M179,165.278a5.2,5.2,0,1,1-3.784-6.308A5.2,5.2,0,0,1,179,165.278" fill="#39abd8"/><path d="M177.91,165.006a4.077,4.077,0,0,1-4.53,3.048l1.968-7.869a4.077,4.077,0,0,1,2.562,4.821" fill="#29129b"/><path d="M174.53,159.98l-1.968,7.869a4.078,4.078,0,0,1,1.968-7.869" fill="#29129b"/><path d="M175.348,160.184l-1.968,7.869a4.034,4.034,0,0,1-.414-.082,3.931,3.931,0,0,1-.4-.123l1.968-7.869c.138.021.276.048.414.082s.272.076.4.123" fill="#fff"/><path d="M204.874,177.792a5.2,5.2,0,1,1-1.668-7.164,5.2,5.2,0,0,1,1.668,7.164" fill="#39abd8"/><path d="M203.919,177.2a4.077,4.077,0,0,1-5.246,1.513l4.285-6.887a4.075,4.075,0,0,1,.961,5.374" fill="#29129b"/><path d="M202.243,171.378l-4.285,6.887a4.078,4.078,0,0,1,4.285-6.887" fill="#29129b"/><path d="M202.959,171.824l-4.285,6.887a4.165,4.165,0,0,1-.369-.205,3.891,3.891,0,0,1-.347-.241l4.285-6.887c.125.062.249.13.369.2s.236.156.347.241" fill="#fff"/><path d="M41.277,219.95V248.5l-19.325-.192-10.908.073v-48.65Z" fill="#5535c3"/><rect width="28.644" height="28.527" transform="translate(41.276 219.949)" fill="#ba97fa"/><g opacity="0.3"><g clip-path="url(#g)"><rect width="20.124" height="20.042" transform="translate(45.536 224.192)" fill="none" stroke="#fff" stroke-miterlimit="10" stroke-width="0.44"/><line x1="20.124" y1="20.042" transform="translate(45.536 224.192)" fill="none" stroke="#fff" stroke-miterlimit="10" stroke-width="0.44"/></g></g><path d="M69.92,219.95H41.277L11.044,199.84l29.5-.226Z" fill="#9a5bf5"/><rect width="27.653" height="24.273" transform="translate(192.826 209.973)" fill="#f8a257"/><rect width="6.252" height="6.165" transform="translate(203.527 209.972)" fill="#35262b"/><rect width="27.653" height="24.273" transform="translate(222.878 209.973)" fill="#f8a257"/><rect width="6.252" height="6.165" transform="translate(233.579 209.972)" fill="#35262b"/><rect width="34.537" height="91.987" transform="translate(247.355 156.418)" fill="#dad2ff"/></g><g clip-path="url(#h)"><path d="M88.875,206.162l.424-7.672h6.777l1.374,9.1H89.3Z" fill="#fff"/></g><g clip-path="url(#a)"><path d="M89.012,206.155s-8.762,1.476-20.37,7.835l1.562,2.684s20.006-9.65,20.248-7.378" fill="#801738"/></g><g clip-path="url(#j)"><path d="M54.508,200.92l1.41-.572,2.719-1.105a2.423,2.423,0,0,0,.677-1.831.811.811,0,0,0-.887.36l.082-.423a1.456,1.456,0,0,0,.361-2.028c-.012-.017-.024-.034-.037-.05l-1.959.8s-6.489-2.426-7.8,3.944l1.431,4.48a.705.705,0,0,0,.979-.19.7.7,0,0,0,.105-.25l1.777-3.058a.5.5,0,0,1,.65-.28l.019.008.136.335Z" fill="#374561"/></g><g clip-path="url(#k)"><path d="M56.33,199.256l2.042,2.1-.956.93.7.719.007,1.237a2.078,2.078,0,0,1-2.19,1.52s-1.877,1.214.28,2.176l.62.008s1.851.645,1.52,2.19l-.338,2.165s-.322.926-1.868.6l-4.016-.985-2.76-2.207a2.2,2.2,0,0,0,1.876-1.215l-.135-.925.558-7.438Z" fill="#ecdbcc"/></g><g clip-path="url(#a)"><path d="M47.8,206.8l.738,6.163-5.27,3.71,2.475-7.378Z" fill="#801738"/><path d="M87.318,220.728a10.367,10.367,0,0,0,2.676.829l-2.256,16.491s-1.335,3.187-2.859,4.249a73,73,0,0,1,2.558,17.9l.492,6.535H78.036s1.934-27.143,1.948-29.327a58.09,58.09,0,0,1,7.334-16.672"/></g><g clip-path="url(#m)"><path d="M84.91,268.742s-.773,1.061-3.582,1.416a10.427,10.427,0,0,1,1.3-1.416l.029-2.124h2.25a4.458,4.458,0,0,0,0,2.124" fill="#ab917a"/></g><g clip-path="url(#a)"><path d="M89.354,223.458c-1.525,2.837-2.44,18.444-2.44,18.444,1.219,2.127,3.964,23.763,3.964,23.763h9.757L98.2,257.507c-2.133-11.35-5.311-16.533-5.311-16.533,1.4-4.118,2.566-9.36,2.566-9.36a9.882,9.882,0,0,0,1.764-10.288s-5.254,1.365-7.625.152l-.236.914Z"/><path d="M67.124,269.4s-6.555,1.523-6.955,2.593L49.063,243.676l.306-8.74,4.5.4,2.787.247,3.059.193s5.918,25.292,7.405,33.623"/><path d="M56.657,235.581l-2.786-.247.129-.4Z" fill="#5535c1"/></g><g clip-path="url(#o)"><path d="M41.262,273.578a.43.43,0,0,0,.079.447,12.3,12.3,0,0,0,4.238,2.428s1.253.879.249,1.421c0,0-3.553.624-4.868-.61,0,0-3.135.919-3.384-.505a16.142,16.142,0,0,0,.212-2.966l-.125-.711,3.5-.226Z" fill="#5535c3"/></g><g clip-path="url(#p)"><path d="M65.234,269.771s-.732.272-.027.69a7.187,7.187,0,0,1,1.547,1.173s1.989.8,2.363.451c0,0,1,.76.1,1.448l-7.708-.655a1.742,1.742,0,0,1,.055-1.442l.014-.361Z" fill="#5535c3"/></g><g clip-path="url(#q)"><path d="M90.431,198.5s2.514,2.3,3.978,2.495c0,0,1.216.356,0,1.953a3.253,3.253,0,0,0,2.388,3.73s2.949-.3,2.356,3.356a5.2,5.2,0,0,1-1.308,3.915s-1.076,3.1-.778,3.708c0,0,4.344-.1,3.96-3.708,0,0-.384-3.307-3.066-3.915a3.4,3.4,0,0,0,2.438-3.964s-.417-2.93-2.47-3.143c0,0,2.714-3.874-2.351-6.921,0,0-3.614-2.136-6.426,2.135,0,0-1.625,3.045-.58,5.488,0,0-4.02,1.221-3.424,4.575a5.85,5.85,0,0,0,.878,2.438l3.126-4.477s3.445-.4,2.253-1.926c0,0-1.5-.5-1.493-3.755,0,0-.158-1.625.518-1.982"/></g><g clip-path="url(#r)"><path d="M97.73,268.215s-.773,1.273-3.582,1.7a11.94,11.94,0,0,1,1.3-1.7l.029-2.549h2.25a6.391,6.391,0,0,0,0,2.549" fill="#ab917a"/></g><g clip-path="url(#a)"><path d="M97.753,267.636a2.262,2.262,0,0,1,.867,2.588l-6.478,1.806s-.276-.983.22-1.286a9.91,9.91,0,0,1,1.709-.8s3.2-1.4,3.681-2.309" fill="#5535c3"/><path d="M97.845,213.945s1.875-2.408,1.2-3.465" fill="#374561"/><path d="M49.375,239.026c.359,2.4-1.464,11.447-1.464,11.447-1.423,9.341-4.509,22.464-4.509,22.464l-6.575-.112c.635-.447-.088-7.707-.088-7.707l.118-15.815a107.614,107.614,0,0,1,.84-14.889l.935-2.352,11.141.576Z"/><path d="M50.789,206.092s-5.693-.912-5.114,4.665l.277,3.368s.387,3.718-2.457,5.753a16.337,16.337,0,0,0-3.378,5.275S37.5,232.876,36.8,233.1c0,0,4.834,3.112,23.48,3.432,0,0-3.867-9.931-3.9-13.758l-1.024-3.287a10.084,10.084,0,0,0,3.513-4.842l-.1-5.283-.9-1.64s-.111,4-2.369,3.871a6.663,6.663,0,0,1-4.556-5.016Z" fill="#801738"/><path d="M52.81,206.478l30.238-1.748-1.906,28.225-23.7.75Z" fill="#fff"/></g><g clip-path="url(#t)"><path d="M43.271,216.674a29.919,29.919,0,0,0,13.391,9.348l-1.483-6.333s-7.9-4.47-6.639-6.727" fill="#ecdbcc"/></g><g clip-path="url(#a)"><path d="M88.909,206.162s4.937,2.653,8.954.9c0,0,1.606-.183,1.876,2.236,0,0-3.958,8.369-2.312,12.032,0,0-5.492,2-10.109-.6,0,0,2.486-4.214,1.74-6.614,0,0-2.616-.111-.745-3.316,0,0,1.657-2.862.595-4.636" fill="#801738"/><path d="M97.889,207.06s-5.048,5.373-10.36,4.959l-4.493.2-1.7,3.716s9.152.79,11.843-1.868l5.612-3.005s2.111-3.195-.9-4" fill="#801738"/><path d="M81.338,215.932s-3.68-.2-4.613-1.818c0,0-.94-2.365.5-3.633,0,0,4.631,1.245,5.809,1.734Z" fill="#ecdbcc"/><path d="M55.179,219.689l5.1,1.039s3.113,1.969-.96,4.368l-2.656.925Z" fill="#ecdbcc"/><path d="M267.314,275.351a3.268,3.268,0,1,1-3.268-3.268,3.268,3.268,0,0,1,3.268,3.268" fill="#5cc5f9"/><path d="M55.672,17.5a7.1,7.1,0,1,1-7.1-7.1,7.1,7.1,0,0,1,7.1,7.1" fill="#5535c3"/><path d="M12.847,140.116a6.424,6.424,0,1,1-6.424-6.424,6.424,6.424,0,0,1,6.424,6.424" fill="#efebf7"/><rect width="34.125" height="90.888" transform="translate(249.136 157.529)" fill="#d8d2fb"/><path d="M302.387,169.723l-.217,26.221L281.4,183.371V156.356Z" fill="#503abb"/><path d="M281.4,248.417V182.691L321.859,209.7v38.712Z" fill="#0a0a50"/><rect width="12.839" height="32.211" transform="translate(294.068 216.206)" fill="#fff"/><path d="M85.143,271.471s-3.326.161-6.417.008c-.064-.523.013-.93,2.64-1.425a14.039,14.039,0,0,0,3.607-1.352,2.28,2.28,0,0,1,.17,2.769" fill="#5535c3"/></g></g></svg>