<svg xmlns="http://www.w3.org/2000/svg" xmlns:xlink="http://www.w3.org/1999/xlink" width="619.213" height="552" viewBox="0 0 619.213 552"><defs><clipPath id="a"><rect width="619.213" height="551.999" fill="none"/></clipPath><clipPath id="b"><rect width="33.385" height="21.261" transform="matrix(0.994, -0.106, 0.106, 0.994, 0, 3.532)" fill="none"/></clipPath><clipPath id="d"><rect width="27.711" height="21.151" transform="translate(0 2.932) rotate(-6.073)" fill="none"/></clipPath><clipPath id="f"><rect width="60.708" height="60.466" fill="none"/></clipPath><clipPath id="g"><rect width="16.274" height="17.276" fill="none"/></clipPath><clipPath id="i"><rect width="19.434" height="17.727" fill="none"/></clipPath><clipPath id="j"><rect width="17.126" height="26.017" fill="none"/></clipPath><clipPath id="l"><rect width="6.797" height="6.72" fill="none"/></clipPath><clipPath id="n"><rect width="16.403" height="9.825" fill="none"/></clipPath><clipPath id="o"><rect width="15.597" height="7.139" fill="none"/></clipPath><clipPath id="p"><rect width="30.297" height="42.102" fill="none"/></clipPath><clipPath id="q"><rect width="6.798" height="8.064" fill="none"/></clipPath><clipPath id="s"><rect width="12.485" height="4.849" fill="none"/></clipPath><clipPath id="u"><rect width="25.414" height="24.783" fill="none"/></clipPath></defs><g transform="translate(-7626 -1852)"><g transform="translate(7626 1852.001)"><g clip-path="url(#a)"><path d="M144.848,227.58a24.042,24.042,0,0,1-24.04,24.04h-67a18.92,18.92,0,1,1,4.653-37.262,29.609,29.609,0,0,1,54.923-9.647,24.054,24.054,0,0,1,31.466,22.87" transform="translate(-19.962 -108.573)" fill="#dad2ff"/><path d="M1236.137,52.645v47.843a36.348,36.348,0,0,1-27.464,12.5H1107.166a28.666,28.666,0,1,1,7.045-56.454,44.858,44.858,0,0,1,83.212-14.613,36.45,36.45,0,0,1,38.714,10.724" transform="translate(-617.138 -11.007)" fill="#dad2ff"/><path d="M647.154,289.306c-9.6.208-22.848.486-22.888.431l-69.213-69.015-324.021-.366-68.792,69.381-22.874-.45,85.224-86.664H560.65Z" transform="translate(-79.747 -115.946)" fill="#5535c3"/><path d="M162.185,405.663v305.9H139.271v-306.3l.04-.044Z" transform="translate(-79.694 -231.872)" fill="#dad2ff"/><path d="M1295.8,405.281v306.3H1272.89v-305.9c.04.055,13.29-.224,22.888-.432Z" transform="translate(-728.372 -231.896)" fill="#dad2ff"/><path d="M654.862,313.457v305.9H580.015V344.308l0,0-25.634-26.124-260.326-.249-26.307,26.021-.062.062V619.354H192.835v-305.9l68.793-69.381,324.021.366Z" transform="translate(-110.344 -139.665)" fill="#0b0754"/><path d="M680.134,443.1V718.148H367.8V442.81l.062-.062,26.307-26.021,260.326.248L680.13,443.1Z" transform="translate(-210.463 -238.46)" fill="#5535c3"/><path d="M280.725,667.242V376.767l47.531-47.7,291.77.306,47.531,47.76v290.11" transform="translate(-160.636 -188.299)" fill="none" stroke="#5b31cc" stroke-miterlimit="10" stroke-width="3.419"/><line y1="73.738" x2="31.272" transform="translate(444.033 104.374)" fill="none" stroke="#5b31cc" stroke-miterlimit="10" stroke-width="3.419"/><path d="M190.981,403.82l75.642,31.2,312.329.3,75.276-31.5" transform="translate(-109.283 -231.074)" fill="none" stroke="#773fff" stroke-miterlimit="10" stroke-width="1.702"/><line y2="298.863" transform="translate(248.893 177.864)" fill="#082f53"/><line y2="298.863" transform="translate(248.893 177.864)" fill="none" stroke="#773fff" stroke-miterlimit="10" stroke-width="1.702"/><line y2="298.863" transform="translate(346.5 177.864)" fill="#082f53"/><line y2="298.863" transform="translate(346.5 177.864)" fill="none" stroke="#773fff" stroke-miterlimit="10" stroke-width="1.702"/><line y2="301.422" transform="translate(444.107 177.864)" fill="#082f53"/><line y2="301.422" transform="translate(444.107 177.864)" fill="none" stroke="#773fff" stroke-miterlimit="10" stroke-width="1.709"/><path d="M353.651,243.136l32.422,73.856V618.414" transform="translate(-202.366 -139.128)" fill="none" stroke="#773fff" stroke-miterlimit="10" stroke-width="0.855"/><rect width="385.004" height="11.334" transform="translate(121.186 220.277)" fill="#39abd8"/><rect width="315.169" height="26.311" transform="translate(154.823 453.378)" fill="#0b0754"/><path d="M1159.945,512.243v3.788h1.261c-.631-1.261,1.892-5.05,1.892-5.05-.631,2.522,2.612-.521,2.612-.521l-.09,4.941h1.261c0-.63,2.144-4.269,2.144-4.269,4.034-2.375,4.227,2.311,4.227,2.311v38.573c-1.815-.631-23.375,0-23.375,0l3.778-20.2h-2.522l3.153-12.625c0-3.153,3.152-6.314,3.152-6.314l4.711-1.744Z" transform="translate(-657.982 -292.095)" fill="#801738"/><path d="M1188.731,547.106l.556-31.705s.218-5.293-4.783-4.269l-3.313-.669s-5.027,35.27-4.143,36.645c0,0,9.858,1.784,11.686,0" transform="translate(-673.469 -292.098)" fill="#f8a257"/><path d="M1180.727,508.305l-.492-4.268,3.079.82-.241,1.928a26.615,26.615,0,0,1-2.342,1.521" transform="translate(-675.353 -288.42)" fill="#fff"/><path d="M1155.1,607.221l8.838-.18,5.293,33.064h-9.134Z" transform="translate(-660.969 -347.362)" fill="#801738"/><path d="M1188.055,607.286l4.419,32.828h-11.417l-5.294-33.065Z" transform="translate(-672.794 -347.366)" fill="#801738"/><path d="M1209.582,689.4a25.987,25.987,0,0,1-1.171-2.972l-.767-2.072h-4.034s.458,5.275.384,7.373v4.814h8.934v-.963s-.587-4.719-2.594-5.134Z" transform="translate(-688.728 -391.604)"/><path d="M1170.12,684.342l1.294,6.093.594.851v2.834s1.633,1.97.5,2.408c0,0-16.084.824-15.853,0s.865-3.98,3.384-4.611c0,0,5.646-1.38,5.972-2.9,0,0,1.563-2.782,0-4.677Z" transform="translate(-661.86 -391.594)"/><path d="M1191.166,494.211l-.556,7.511s-.243-4.722-4.226-2.311l-2.146,4.27h-1.261l.091-4.941.241-1.928-3.079-.82,3.079-1.3v-4.715s.776,2.487,5.076,4.593Z" transform="translate(-675.35 -280.376)"/><path d="M1168.966,480.688s-2.522,6.645,0,8.688a5.544,5.544,0,0,0,4.18,1.3,6.462,6.462,0,0,0,3.078-1.3v-4.719l-1.591-2.072Z" transform="translate(-668.263 -275.06)" fill="#fff"/><path d="M1166.529,472.84l-2.676-.435,3.319-1.423s3.357-6.988,8.361-4.044c0,0,6.891,1.937,3.743,10.015l2.522,3.66s-3.078,1.829-6.261-1.927l-3.192-4.382Z" transform="translate(-665.979 -266.777)" fill="#f8a257"/><path d="M1163.137,512.029l-4.573,37.589s-5.793.167-6.778-1.616,2.86-15.291,2.86-15.291l2.207-10.631,1.569-8.307Z" transform="translate(-658.981 -292.994)" fill="#f8a257"/><path d="M1172.065,502.169l.574,5.331v3.788h1.261a8.918,8.918,0,0,1,1.892-5.05l-.229-3.269Z" transform="translate(-670.678 -287.352)"/><path d="M1186.3,515.489s4.075-10.969,6.927,0c0,0-2.383,15.2-.556,20.192h-8.84Z" transform="translate(-677.411 -292.184)" fill="#801738"/><path d="M1149.7,570.124a9.958,9.958,0,0,0,7.35,3.018l1.58.141" transform="translate(-657.879 -326.237)" fill="#fff"/><path d="M1149.7,577.5a9.959,9.959,0,0,0,7.35,3.018l1.2.1" transform="translate(-657.879 -330.459)" fill="#fff"/><path d="M1141.858,560.377h-12.584l2.508,22.727,6.3-2.522Z" transform="translate(-646.192 -320.66)" fill="#fff"/><path d="M1178.008,576.756s9.768,1.283,11.386-.293l-.05,1.88s-6.311,1.41-11.5-.552Z" transform="translate(-673.987 -329.863)" fill="#fff"/><path d="M1177.352,583.787s10.038,1.282,11.7-.294l-.051,1.88s-6.486,1.41-11.815-.551Z" transform="translate(-673.609 -333.887)" fill="#fff"/><path d="M1185.289,569.874h4.324s-2.763,9.818-1.505,12.979c0,0,.541,1.261,1.217,3.153a11.067,11.067,0,0,0,1.3,3.152.618.618,0,0,1-.605.631H1190l-2.038-3.361.148,2.1s.631,3.153-.631,3.788l-.63-5.05s.63,5.05-.63,4.42l-.63-4.42s.7,5.05.036,5.05l-1.3-5.682s.631,3.153-.631,2.522v-2.522s.631-3.152,0-4.419Z" transform="translate(-677.332 -326.094)" fill="#fff"/><rect width="97.489" height="18.279" transform="translate(352.394 220.277)" fill="#39abd8"/><rect width="52.484" height="46.069" transform="translate(271.823 406.746)" fill="#f8a257"/><path d="M685.375,963.993h-61.06l4.754-13.162h52.483Z" transform="translate(-357.245 -544.084)" fill="#e37e48"/><path d="M687.91,944.962H635.426l3.29-4.387h45.338Z" transform="translate(-363.603 -538.215)" fill="#904b37"/><rect width="52.484" height="46.069" transform="translate(164.329 406.38)" fill="#f8a257"/><path d="M427.739,963.138H364.485l8.409-13.162h52.484Z" transform="translate(-208.565 -543.595)" fill="#e37e48"/><path d="M436.627,944.107H384.144l3.29-4.387h45.338Z" transform="translate(-219.814 -537.726)" fill="#904b37"/><path d="M753.371,745.32,750.5,761.753l15.555,8.677,9.877-8.492s-18.191,2.537-22.563-16.622" transform="translate(-429.452 -426.484)" fill="#39abd8"/><path d="M760.166,797.661l-6.3-3.51,2.959-4.749,6.3,3.51Z" transform="translate(-431.378 -451.712)" fill="#239cc1"/><path d="M730.44,837.486l-10.75,4.384,11.9,6.633Z" transform="translate(-411.821 -479.226)" fill="#239cc1"/></g></g><g transform="translate(7921.684 2206.267)"><g transform="translate(0 0)" clip-path="url(#b)"><path d="M726.683,852.19l-.833,1.589a.378.378,0,0,1-.488.16l-33.5-15.618a.338.338,0,0,1-.163-.461l.834-1.589a.375.375,0,0,1,.486-.16h0l33.5,15.618a.338.338,0,0,1,.164.461" transform="translate(-691.467 -832.686)" fill="#fff"/></g></g><g transform="translate(7626 1852.001)"><g clip-path="url(#a)"><path d="M736.889,869.346l7.57,3.513-17.086,23.315-3.109-1.317Z" transform="translate(-414.438 -497.457)" fill="#fff"/><path d="M689.409,844.37l-8.35-4.193-8.037,27.183,3.019,1.49Z" transform="translate(-385.116 -480.766)" fill="#fff"/><path d="M719.732,795.576l15.211-4.984,8.49,4.877,5.8,14.973Z" transform="translate(-411.844 -452.393)" fill="#39abd8"/></g></g><g transform="translate(7933.923 2192.44)"><g transform="translate(0 0)" clip-path="url(#d)"><path d="M719.817,802.681l29.395,14.353-18.028,5.709-6.11-3.141Z" transform="translate(-719.817 -799.75)" fill="#fff"/></g></g><g transform="translate(7626 1852.001)"><g clip-path="url(#a)"><path d="M698.634,902.515a10.6,10.6,0,1,1-11.3-9.854,10.6,10.6,0,0,1,11.3,9.854" transform="translate(-387.651 -510.784)" fill="#fff"/><path d="M849.409,653.05h0a17,17,0,0,1,.71-24.034L882.065,598.9l23.324,24.743L873.442,653.76a17,17,0,0,1-24.034-.71" transform="translate(-483.398 -342.705)" fill="#239cc1"/><rect width="38.496" height="38.391" transform="translate(383.494 242.58)" fill="#239cc1"/><rect width="52.911" height="29.981" transform="translate(376.286 237.096)" fill="#39abd8"/><path d="M878.528,732.914h0a17,17,0,0,1-20.916-11.859l-11.366-41.133a17,17,0,1,1,32.775-9.057L890.387,712a17,17,0,0,1-11.859,20.915" transform="translate(-483.885 -376.743)" fill="#39abd8"/><path d="M881.667,682.069a9.872,9.872,0,1,1-9.872-9.872,9.872,9.872,0,0,1,9.872,9.872" transform="translate(-493.209 -384.645)" fill="#239cc1"/><path d="M893.808,684.978a7.737,7.737,0,0,1-6.937,7.7v-15.4a7.737,7.737,0,0,1,6.937,7.7" transform="translate(-507.485 -387.553)" fill="#29129b"/><path d="M873.85,677.28v15.4a7.739,7.739,0,0,1,0-15.4" transform="translate(-496.064 -387.553)" fill="#29129b"/><path d="M884.73,677.226v15.395a8.068,8.068,0,0,1-1.6,0V677.226a7.983,7.983,0,0,1,1.6,0" transform="translate(-505.343 -387.5)" fill="#fff"/><path d="M838.438,751.64h0a17,17,0,0,1-22.136,9.388l-50.074-20.249a17,17,0,0,1,12.747-31.524L829.05,729.5a17,17,0,0,1,9.388,22.135" transform="translate(-432.366 -405.138)" fill="#239cc1"/><path d="M791.661,736.123a9.872,9.872,0,1,1-7.182-11.972,9.873,9.873,0,0,1,7.182,11.972" transform="translate(-441.873 -414.204)" fill="#39abd8"/><path d="M801.34,739.083a7.738,7.738,0,0,1-8.6,5.785l3.735-14.935a7.737,7.737,0,0,1,4.863,9.15" transform="translate(-453.623 -417.682)" fill="#29129b"/><path d="M786.031,728.92,782.3,743.855a7.739,7.739,0,0,1,3.735-14.935" transform="translate(-444.729 -417.058)" fill="#29129b"/><path d="M794.4,729.413l-3.734,14.935q-.394-.058-.786-.155t-.767-.233l3.735-14.935q.394.058.786.155t.767.233" transform="translate(-451.545 -417.163)" fill="#fff"/><path d="M908.053,787.872a9.872,9.872,0,1,1-3.166-13.6,9.872,9.872,0,0,1,3.166,13.6" transform="translate(-509.159 -442.202)" fill="#39abd8"/><path d="M914.918,791.774a7.737,7.737,0,0,1-9.957,2.871l8.133-13.071a7.737,7.737,0,0,1,1.823,10.2" transform="translate(-517.836 -447.232)" fill="#29129b"/><path d="M905.913,778.552l-8.133,13.071a7.739,7.739,0,0,1,8.133-13.071" transform="translate(-512.014 -445.056)" fill="#29129b"/><path d="M911.276,780.443l-8.133,13.071a8.026,8.026,0,0,1-1.359-.846l8.133-13.071a7.911,7.911,0,0,1,.7.389q.343.214.658.457" transform="translate(-516.018 -446.101)" fill="#fff"/><path d="M59.422,872.987v84.288l-57.051-.569-.233.217V834.3Z" transform="translate(-1.223 -477.403)" fill="#5535c3"/><rect width="84.561" height="84.216" transform="translate(58.197 395.581)" fill="#ba97fa"/><g transform="translate(70.123 407.456)" opacity="0.3"><g clip-path="url(#f)"><rect width="59.409" height="59.168" transform="translate(0.649 0.649)" fill="none" stroke="#fff" stroke-miterlimit="10" stroke-width="3.035"/><line x1="59.409" y1="59.168" transform="translate(0.649 0.649)" fill="none" stroke="#fff" stroke-miterlimit="10" stroke-width="3.035"/></g></g><path d="M143.981,844.43H59.422L2.138,805.744V784.4H57.252Z" transform="translate(-1.224 -448.847)" fill="#9a5bf5"/><rect width="52.484" height="46.069" transform="translate(376.027 406.746)" fill="#f8a257"/><rect width="11.867" height="11.7" transform="translate(396.335 406.746)" fill="#35262b"/><rect width="52.484" height="46.069" transform="translate(433.064 406.746)" fill="#f8a257"/><rect width="11.867" height="11.7" transform="translate(453.373 406.746)" fill="#35262b"/><rect width="65.55" height="174.586" transform="translate(479.52 305.102)" fill="#dad2ff"/></g></g><g transform="translate(7804.733 2236.955)"><g clip-path="url(#g)"><path d="M417.814,914.449l.8-14.56h12.863l2.606,17.276H418.619Z" transform="translate(-417.814 -899.889)" fill="#fff"/></g></g><g transform="translate(7626 1852.001)"><g clip-path="url(#a)"><path d="M366.7,933.891s-16.629,2.8-38.662,14.871l2.966,5.094s37.971-18.316,38.43-14" transform="translate(-187.712 -534.391)" fill="#801738"/></g></g><g transform="translate(7729.2 2230.843)"><g clip-path="url(#i)"><path d="M251.555,896.321l2.677-1.086,5.16-2.1a4.6,4.6,0,0,0,1.285-3.476,1.538,1.538,0,0,0-1.683.683l.156-.8a2.764,2.764,0,0,0,.685-3.849c-.023-.033-.046-.065-.07-.1l-3.719,1.511s-12.315-4.605-14.794,7.485l2.715,8.5a1.339,1.339,0,0,0,2.059-.836l3.373-5.8a.949.949,0,0,1,1.232-.531l.037.015.258.635Z" transform="translate(-241.248 -885.599)" fill="#374561"/></g></g><g transform="translate(7729.753 2238.407)"><g clip-path="url(#j)"><path d="M255.754,903.284l3.876,3.981-1.814,1.765,1.328,1.365.014,2.348A3.945,3.945,0,0,1,255,915.629s-3.561,2.3.532,4.129l1.177.015s3.512,1.225,2.885,4.157l-.642,4.11s-.611,1.756-3.545,1.129l-7.622-1.869-5.239-4.188a4.178,4.178,0,0,0,3.562-2.306l-.256-1.755,1.058-14.118Z" transform="translate(-242.542 -903.284)" fill="#ecdbcc"/></g></g><g transform="translate(7626 1852.001)"><g clip-path="url(#a)"><path d="M224.08,936.757l1.4,11.7-10,7.041,4.7-14Z" transform="translate(-123.301 -536.031)" fill="#801738"/><path d="M387.343,998.55s4.371,1.855,5.079,1.573l-4.282,31.3s-2.533,6.049-5.426,8.064a138.55,138.55,0,0,1,4.856,33.967l.933,12.4H369.727s3.67-51.516,3.7-55.662a110.288,110.288,0,0,1,13.919-31.642" transform="translate(-211.565 -571.39)"/></g></g><g transform="translate(7790.411 2366.255)"><g clip-path="url(#l)"><path d="M391.131,1206.18s-1.468,2.013-6.8,2.688a19.737,19.737,0,0,1,2.472-2.688l.055-4.031h4.271s-.608,2.684,0,4.031" transform="translate(-384.333 -1202.147)" fill="#ab917a"/></g></g><g transform="translate(7626 1852.001)"><g clip-path="url(#a)"><path d="M413.744,1005.247c-2.893,5.385-4.63,35.005-4.63,35.005,2.314,4.037,7.524,45.1,7.524,45.1h18.519l-4.63-15.483c-4.05-21.542-10.079-31.38-10.079-31.38,2.652-7.815,4.87-17.765,4.87-17.765a18.758,18.758,0,0,0,3.346-19.526s-9.97,2.591-14.471.288l-.45,1.735Z" transform="translate(-234.103 -572.907)"/><path d="M275.458,1126.99s-12.442,2.89-13.2,4.921l-21.078-53.739.58-16.587,8.547.759,5.289.469,5.807.367s11.232,48,14.054,63.815" transform="translate(-138.008 -607.46)"/><path d="M267.8,1062.8l-5.289-.469.246-.759Z" transform="translate(-150.212 -607.455)" fill="#5535c1"/></g></g><g transform="translate(7707.368 2378.095)"><g clip-path="url(#n)"><path d="M197.21,1231.2a.82.82,0,0,0,.15.849s4.434,3.853,8.043,4.609c0,0,2.378,1.668.474,2.7,0,0-6.743,1.184-9.238-1.158,0,0-5.951,1.744-6.423-.958a30.707,30.707,0,0,0,.4-5.63l-.237-1.349,6.644-.429Z" transform="translate(-190.213 -1229.826)"/></g></g><g transform="translate(7752.537 2372.241)"><g clip-path="url(#o)"><path d="M303.131,1216.139s-1.39.516-.05,1.311c0,0,2.554,1.527,2.936,2.226,0,0,3.773,1.514,4.485.856,0,0,1.9,1.442.184,2.747l-14.629-1.243a3.3,3.3,0,0,1,.1-2.736l.027-.685Z" transform="translate(-295.804 -1216.139)"/></g></g><g transform="translate(7797.546 2231.22)"><g clip-path="url(#p)"><path d="M411.152,892.232s4.771,4.362,7.55,4.734c0,0,2.307.676,0,3.708a6.174,6.174,0,0,0,4.533,7.079s5.6-.576,4.471,6.37c0,0,.69,3.282-2.483,7.432,0,0-2.041,5.877-1.476,7.037,0,0,8.244-.183,7.516-7.037,0,0-.729-6.277-5.819-7.432,0,0,5.3-1.161,4.628-7.524,0,0-.792-5.56-4.69-5.964,0,0,5.152-7.352-4.462-13.136,0,0-6.858-4.054-12.195,4.051,0,0-3.085,5.781-1.1,10.416,0,0-7.631,2.319-6.5,8.684,0,0,.507,3.466,1.668,4.627l5.932-8.5s6.538-.764,4.277-3.656c0,0-2.839-.945-2.833-7.126,0,0-.3-3.083.983-3.762" transform="translate(-401.011 -886.484)"/></g></g><g transform="translate(7814.741 2364.449)"><g clip-path="url(#q)"><path d="M448.008,1202.762s-1.468,2.416-6.8,3.226c0,0,2.168-3.23,2.472-3.226l.055-4.838h4.271s-.608,3.222,0,4.838" transform="translate(-441.21 -1197.924)" fill="#ab917a"/></g></g><g transform="translate(7626 1852.001)"><g clip-path="url(#a)"><path d="M442.763,1206.667a4.291,4.291,0,0,1,1.645,4.911l-12.295,3.429s-.523-1.866.418-2.442a18.844,18.844,0,0,1,3.242-1.516s6.074-2.666,6.986-4.382" transform="translate(-247.18 -690.479)"/></g></g><g transform="translate(7785.469 2370.635)"><g clip-path="url(#s)"><path d="M384.689,1212.383s-.551.55.275,1.009a6.014,6.014,0,0,1,0,3.823l-12.179.015s.11-2.211,1-2.1c0,0,2.86.236,3.945-.394,0,0,5.689-1.043,6.961-2.36" transform="translate(-372.783 -1212.383)"/></g></g><g transform="translate(7626 1852.001)"><g clip-path="url(#a)"><path d="M457.614,959.659s3.558-4.571,2.273-6.576" transform="translate(-261.855 -545.373)" fill="#374561"/><path d="M210.482,1062.05c.681,4.564-2.778,21.725-2.778,21.725-2.7,17.73-8.559,42.635-8.559,42.635l-12.478-.212c1.2-.848-.167-14.628-.167-14.628l.223-30.015c0-17.984,1.6-28.26,1.6-28.26l1.774-4.463,21.144,1.094Z" transform="translate(-106.719 -600.163)"/><path d="M213.313,933.471s-10.806-1.73-9.706,8.853l.526,6.392s.734,7.057-4.662,10.919c0,0-4.982,5.195-6.413,10.012,0,0-4.964,14.658-6.3,15.076,0,0,9.175,5.906,44.565,6.515,0,0-7.34-18.849-7.407-26.112l-1.943-6.239a19.151,19.151,0,0,0,6.668-9.19l-.192-10.027-1.7-3.112s-.21,7.584-4.5,7.346a12.646,12.646,0,0,1-8.648-9.52Z" transform="translate(-106.866 -534.091)" fill="#801738"/><path d="M257.8,930.889l57.391-3.317-3.617,53.568L266.6,982.565Z" transform="translate(-147.52 -530.775)" fill="#fff"/></g></g><g transform="translate(7718.18 2264.424)"><g clip-path="url(#u)"><path d="M215.484,971.139s9.5,12.607,25.415,17.741l-2.815-12.02s-14.989-8.483-12.6-12.767" transform="translate(-215.484 -964.097)" fill="#ecdbcc"/></g></g><g transform="translate(7626 1852.001)"><g clip-path="url(#a)"><path d="M413.927,933.925s9.37,5.035,16.994,1.7c0,0,3.048-.346,3.561,4.244,0,0-7.511,15.885-4.388,22.836,0,0-10.423,3.807-19.186-1.137,0,0,4.719-8,3.3-12.554,0,0-4.966-.211-1.415-6.294,0,0,3.145-5.431,1.13-8.8" transform="translate(-235.129 -534.411)" fill="#801738"/><path d="M415.788,937.907s-9.582,10.2-19.663,9.411l-8.529.373-3.222,7.054s17.37,1.5,22.477-3.545l10.652-5.7s4.007-6.063-1.714-7.589" transform="translate(-219.947 -536.689)" fill="#801738"/><path d="M371.9,963.429s-6.985-.384-8.755-3.45c0,0-1.784-4.489.951-6.9,0,0,8.789,2.364,11.026,3.292Z" transform="translate(-207.47 -545.373)" fill="#ecdbcc"/><path d="M268.315,993.938l9.676,1.972s5.908,3.736-1.822,8.289l-5.041,1.757Z" transform="translate(-153.535 -568.751)" fill="#ecdbcc"/><path d="M1192.906,1232.6a6.2,6.2,0,1,1-6.2-6.2,6.2,6.2,0,0,1,6.2,6.2" transform="translate(-675.505 -701.768)" fill="#5cc5f9"/><path d="M234.45,78.87a13.475,13.475,0,1,1-13.475-13.475A13.475,13.475,0,0,1,234.45,78.87" transform="translate(-118.735 -37.421)" fill="#5535c3"/><path d="M47.884,624.587A12.192,12.192,0,1,1,35.692,612.4a12.192,12.192,0,0,1,12.192,12.192" transform="translate(-13.447 -350.425)" fill="#efebf7"/><path d="M1306.148,733.633,1305.731,784l-39.891-24.15V707.956Z" transform="translate(-724.337 -405.107)" fill="#5535c3"/><path d="M1265.838,951.514V825.261l77.711,51.892v72.87Z" transform="translate(-724.336 -472.231)" fill="#0b0754"/><rect width="24.663" height="61.874" transform="translate(565.831 417.146)" fill="#fff"/></g></g><rect width="619.213" height="552" transform="translate(7626 1852)" fill="none"/></g></svg>