<svg id="Group_17737" data-name="Group 17737" xmlns="http://www.w3.org/2000/svg" xmlns:xlink="http://www.w3.org/1999/xlink" width="494.554" height="512.918" viewBox="0 0 494.554 512.918">
  <defs>
    <clipPath id="clip-path">
      <rect id="Rectangle_10296" data-name="Rectangle 10296" width="494.554" height="512.918" fill="none"/>
    </clipPath>
    <clipPath id="clip-path-2">
      <rect id="Rectangle_10292" data-name="Rectangle 10292" width="51.727" height="70.249" transform="translate(330.376 99.843)" fill="none"/>
    </clipPath>
    <clipPath id="clip-path-3">
      <rect id="Rectangle_10293" data-name="Rectangle 10293" width="11.342" height="11.587" transform="translate(360.242 302.382)" fill="none"/>
    </clipPath>
    <clipPath id="clip-path-4">
      <rect id="Rectangle_10294" data-name="Rectangle 10294" width="11.341" height="9.656" transform="translate(319.649 304.976)" fill="none"/>
    </clipPath>
    <clipPath id="clip-path-5">
      <rect id="Rectangle_10295" data-name="Rectangle 10295" width="32.834" height="24.387" transform="translate(179.525)" fill="none"/>
    </clipPath>
    <clipPath id="clip-path-6">
      <path id="Path_28286" data-name="Path 28286" d="M180.171,35.965l.22-2a6.445,6.445,0,0,0,.036,9.318c6.2,5.88,16.078,19.775,23.286,25.5,11.563,9.186,34.6,17.362,34.6,17.362l4.326-7.316S220.686,68.853,210.559,60.9c-6.546-5.141-16.336-21.973-21.1-26.813a3.95,3.95,0,0,0-2.919-1.179c-2.194,0-4.669,1.415-6.373,3.057" fill="none"/>
    </clipPath>
    <linearGradient id="linear-gradient" x1="-2.026" y1="5.913" x2="-2.014" y2="5.913" gradientUnits="objectBoundingBox">
      <stop offset="0" stop-color="#985bf3"/>
      <stop offset="0.004" stop-color="#985bf3"/>
      <stop offset="1" stop-color="#6621cc"/>
    </linearGradient>
    <clipPath id="clip-path-7">
      <path id="Path_28287" data-name="Path 28287" d="M165.434,23.191c-5.434.419-9.993,4.311-10.8,12.065C153.37,47.32,148.869,52.9,140.585,57.043c-11.883,5.943-26.109,24.669-28.81,30.431,3.422,2.521,31.872,24.128,62.3,29.35-1.44-17.467-1.19-36.506,2.161-45.916,4.682-13.144,7.627-9.57,10.984-14.045,3.107-4.143,5.441-17.093,3.671-21.3-.953,4.406-3.389,7.606-6.6,8.024-4.793.624-9.5-5.17-10.515-12.945a21.6,21.6,0,0,1,.1-6.441,28.678,28.678,0,0,0-7.207-1.059c-.427,0-.839.015-1.231.045" fill="none"/>
    </clipPath>
    <linearGradient id="linear-gradient-2" x1="-1.382" y1="5.228" x2="-1.369" y2="5.228" xlink:href="#linear-gradient"/>
    <clipPath id="clip-path-9">
      <path id="Path_28290" data-name="Path 28290" d="M162.685,32.5a6.446,6.446,0,0,0-3.611,8.59c3.407,7.836,9.464,21.249,14.283,29.093,7.743,12.605,25.569,35.473,25.569,35.473l6.842-5.042S186.862,72.348,181.1,60.1c-3.545-7.533-7.625-17.624-10.114-23.941a6.44,6.44,0,0,0-8.3-3.66" fill="none"/>
    </clipPath>
    <linearGradient id="linear-gradient-3" x1="-1.961" y1="5.617" x2="-1.948" y2="5.617" xlink:href="#linear-gradient"/>
    <clipPath id="clip-path-11">
      <rect id="Rectangle_10309" data-name="Rectangle 10309" width="147.461" height="11.664" transform="translate(249.615 329.283)" fill="none"/>
    </clipPath>
    <clipPath id="clip-path-12">
      <rect id="Rectangle_10310" data-name="Rectangle 10310" width="147.461" height="11.664" transform="translate(249.615 347.808)" fill="none"/>
    </clipPath>
    <clipPath id="clip-path-13">
      <rect id="Rectangle_10311" data-name="Rectangle 10311" width="147.461" height="11.664" transform="translate(249.615 367.02)" fill="none"/>
    </clipPath>
  </defs>
  <g id="Group_17717" data-name="Group 17717">
    <g id="Group_17716" data-name="Group 17716" clip-path="url(#clip-path)">
      <path id="Path_28257" data-name="Path 28257" d="M494.007,133.788a27.752,27.752,0,0,1-27.75,27.75H388.918a21.84,21.84,0,1,1,5.37-43.012,34.177,34.177,0,0,1,63.4-11.136,27.763,27.763,0,0,1,36.321,26.4" fill="#dad2ff"/>
      <path id="Path_28258" data-name="Path 28258" d="M0,168.67a53.745,53.745,0,0,0,53.74,53.74H203.515a42.3,42.3,0,1,0-10.4-83.3A66.187,66.187,0,0,0,70.34,117.547,53.77,53.77,0,0,0,0,168.67" fill="#5c2dcc"/>
      <path id="Path_28259" data-name="Path 28259" d="M259.942,138.124a10.417,10.417,0,1,0,10.417,10.417,10.424,10.424,0,0,0-10.417-10.417m0,0a10.417,10.417,0,1,0,10.417,10.417,10.424,10.424,0,0,0-10.417-10.417m51.705-33.775L234.66,85.6a16.23,16.23,0,0,0-19.621,11.925l-18.91,77.661a16.241,16.241,0,0,0,11.937,19.62l76.987,18.751a16.228,16.228,0,0,0,19.608-11.937l18.922-77.661a16.234,16.234,0,0,0-11.936-19.608m-30.908,65.822a29.717,29.717,0,0,1-20.8,8.395c-.515,0-1.03-.012-1.532-.037a29.833,29.833,0,0,1-20.1-9.191,29.981,29.981,0,0,1-8.395-20.8c0-.515.012-1.017.037-1.52a30.017,30.017,0,0,1,29.988-28.5c.784,0,1.569.024,2.329.1a29.216,29.216,0,0,1,9.5,2.328,29.783,29.783,0,0,1,9.976,6.986,29.92,29.92,0,0,1,8.223,20.613c0,.441-.012.87-.037,1.3a29.763,29.763,0,0,1-9.191,20.331m-20.8-32.047a10.417,10.417,0,1,0,10.417,10.417,10.424,10.424,0,0,0-10.417-10.417m0,0a10.417,10.417,0,1,0,10.417,10.417,10.424,10.424,0,0,0-10.417-10.417m0,0a10.417,10.417,0,1,0,10.417,10.417,10.424,10.424,0,0,0-10.417-10.417" fill="#d8d0fa"/>
      <path id="Path_28260" data-name="Path 28260" d="M272.908,113.393l-1.14,7.549a29.216,29.216,0,0,0-9.5-2.328l1.005-6.667Z" fill="#5535c1"/>
      <path id="Path_28261" data-name="Path 28261" d="M293.668,135.5l-5.392,3.113a29.393,29.393,0,0,0-6.532-10.687l5.661-3.272Z" fill="#5535c1"/>
      <path id="Path_28262" data-name="Path 28262" d="M288.276,138.614a29.389,29.389,0,0,0-6.532-10.686,29.783,29.783,0,0,0-9.976-6.986,29.216,29.216,0,0,0-9.5-2.328c-.76-.074-1.545-.1-2.329-.1a30.034,30.034,0,0,0-29.988,28.5c-.025.5-.037,1.005-.037,1.52a30.01,30.01,0,0,0,28.493,29.988c.5.025,1.017.037,1.532.037a29.717,29.717,0,0,0,20.8-8.395,29.758,29.758,0,0,0,9.191-20.331c.025-.429.037-.858.037-1.3a29.578,29.578,0,0,0-1.691-9.927m-28.334,20.344a10.417,10.417,0,1,1,10.417-10.417,10.424,10.424,0,0,1-10.417,10.417" fill="#5535c1"/>
      <path id="Path_28263" data-name="Path 28263" d="M238.311,169.338l-5.049,2.917L227,161.409l4.694-2.708a29.466,29.466,0,0,0,6.618,10.637" fill="#5535c1"/>
      <path id="Path_28264" data-name="Path 28264" d="M260.366,178.046l-1.4,6.57-13.944-2.995,1.649-7.7a39.723,39.723,0,0,0,13.695,4.122" fill="#5535c1"/>
      <path id="Path_28265" data-name="Path 28265" d="M249.623,120.341a29.675,29.675,0,0,0-9.351,5.539l-3.762-4.8L245,114.434Z" fill="#5535c1"/>
      <path id="Path_28266" data-name="Path 28266" d="M232.441,136.494a29.654,29.654,0,0,0-2.488,10.527l-5.5-.833,1.593-10.65Z" fill="#5535c1"/>
      <path id="Path_28267" data-name="Path 28267" d="M295.69,150.71l-1.605,10.65-6.545-.981a29.628,29.628,0,0,0,2.39-10.539Z" fill="#5535c1"/>
      <path id="Path_28268" data-name="Path 28268" d="M284.44,174.914l-8.493,6.63-4.2-5.38a29.837,29.837,0,0,0,9-5.993Z" fill="#5535c1"/>
      <g id="Group_17706" data-name="Group 17706" style="isolation: isolate">
        <g id="Group_17705" data-name="Group 17705">
          <g id="Group_17704" data-name="Group 17704" clip-path="url(#clip-path-2)">
            <path id="Path_28269" data-name="Path 28269" d="M347.69,109.434s8.141,7.277,12.891,7.9c0,0,3.94,1.129,0,6.186,0,0-1.827,8.91,7.738,11.811,0,0,8.544,1.912,7.635,10.627a115.793,115.793,0,0,1-7.312,10.076s-.413,12.123.553,14.059c0,0,14.074-.313,12.83-11.741,0,0-1.243-10.473-9.934-12.4,0,0,9.045-1.936,7.9-12.553,0,0-1.352-9.276-8.006-9.946,0,0,8.8-12.267-7.62-21.918,0,0-11.709-6.764-20.821,6.759,0,0-5.267,9.651-1.879,17.381,0,0-13.027,3.867-11.1,14.488,0,0,1.075,5.3,2.848,7.72,2.947,4.025,14.728,5.119,19.955-.071,3.979-3.95-.856-18.122-2.526-20.206,0,0-4.847-1.577-4.837-11.89,0,0-.514-5.147,1.679-6.282" fill="#030207"/>
          </g>
        </g>
      </g>
      <path id="Path_28270" data-name="Path 28270" d="M346.809,108.295s-4.492,13.377,4.033,20.392c0,0,7.666,1.9,9.631-3.207V123.2s3.417-3.724,1.155-5.828c0,0-15.1-7.875-14.819-9.076" fill="#f8a257"/>
      <path id="Path_28271" data-name="Path 28271" d="M346.574,132.957s5.239-1.15,5.239-5.774c0,0,6.718,1.424,8.186-2.177,0,0,.617,8.232,8.766,9.828,0,0-19.706,2.741-22.191-1.877" fill="#f8a257"/>
      <path id="Path_28272" data-name="Path 28272" d="M346.327,132.544c-5.285,1.174-12.332,12.332-13.825,17.275,2.08,1.517,5.47,5.36,6.133,13.784l3.082-3.167s1.153,13.534-3.611,19.087c0,0,10.9,6.988,31.29,2.16,0,0-1.942-20.277,3.884-26.07,0,0,9.456-14.848-4.638-20.72-4.7,0-17.617,2.349-22.315-2.349" fill="#985bf3"/>
      <path id="Path_28273" data-name="Path 28273" d="M332.9,149.379s5.681,3.4,6.3,13.829l-9.881,5.6-7.282-2.892s-4.341-6.844-5.574-12.6l2.879-12.751s8.127,11.327,8.868,14.96c0,0,2.716-6.262,4.692-6.142" fill="#f8a257"/>
      <g id="Group_17709" data-name="Group 17709" style="isolation: isolate">
        <g id="Group_17708" data-name="Group 17708">
          <g id="Group_17707" data-name="Group 17707" clip-path="url(#clip-path-3)">
            <path id="Path_28274" data-name="Path 28274" d="M371.584,309.334s-2.455,3.47-11.342,4.635c0,0,3.617-4.641,4.125-4.635l.091-6.952h7.126s-1.015,4.629,0,6.952" fill="#ab917a"/>
          </g>
        </g>
      </g>
      <g id="Group_17712" data-name="Group 17712" style="isolation: isolate">
        <g id="Group_17711" data-name="Group 17711">
          <g id="Group_17710" data-name="Group 17710" clip-path="url(#clip-path-4)">
            <path id="Path_28275" data-name="Path 28275" d="M330.99,310.77s-2.455,2.892-11.342,3.862c0,0,3.617-3.867,4.125-3.862l.091-5.794h7.126s-1.015,3.858,0,5.794" fill="#ab917a"/>
          </g>
        </g>
      </g>
      <path id="Path_28276" data-name="Path 28276" d="M360.582,146.006s7.93,9.136,7.788,15.648c0,0-12.383,12.3-16.883,12.3,0,0-16.089,4.272-42.16-1.244,0,0-9.279,7.3-13.811,2.821,0,0-2.6-.611-2.6-1.577a1.338,1.338,0,0,1,0-1.931,2.159,2.159,0,0,1,.966-2.9.946.946,0,0,1,.966-.966h4.827a.945.945,0,0,0-.965-.965s-1.931-.966-.966-1.931a1.337,1.337,0,0,1,1.931,0,4.232,4.232,0,0,0,2.9.965h3.862a1.891,1.891,0,0,1,1.931,1.931s33.8-5.793,37.659-2.9c0,0,7.879-15.352,14.561-19.263" fill="#f8a257"/>
      <path id="Path_28277" data-name="Path 28277" d="M338.106,179.523s10.563,3.931,11.745,3.523l-9.907,44.02s-4.225,8.691-9.053,11.587a173.92,173.92,0,0,1,8.1,48.8l1.556,17.822H309.223s6.12-74.023,6.17-79.98c0,0,5.332-22.522,22.713-45.776" fill="#5535c1"/>
      <path id="Path_28278" data-name="Path 28278" d="M345.055,187.477c-4.828,7.725-7.725,50.211-7.725,50.211,3.863,5.793,12.553,64.694,12.553,64.694h30.9l-7.725-22.208c-6.759-30.9-16.817-45.007-16.817-45.007a261.263,261.263,0,0,0,8.127-25.481c13.518-13.519,4.863-28.4,4.863-28.4s-15.269,3.523-23.426.806l-.749,2.489Z" fill="#5535c1"/>
      <path id="Path_28279" data-name="Path 28279" d="M371.755,308.481c3.209,3.124,1.561,9.994.411,11.391h-23.49a9.9,9.9,0,0,1,2.349-4.11c1.175-1.175,4.249-2.185,6.281-2.367,0,0,12.071-2.213,14.444-4.914" fill="#5535c3"/>
      <path id="Path_28280" data-name="Path 28280" d="M331.468,319.662s-11.679.566-22.533.029c-.226-1.837.045-3.267,9.272-5,3.385-.637,10.288-3.166,12.663-4.749,3.957,5.54.6,9.723.6,9.723" fill="#5535c3"/>
      <path id="Path_28281" data-name="Path 28281" d="M203.876,14.133c-.228.832-.47,1.579-.629,2.217a16.226,16.226,0,0,0-.507,2.929.981.981,0,0,0-.008.108,20.093,20.093,0,0,0,.329,3.627,1.24,1.24,0,0,1-1.287,1.375l-1.954-.083-2.143,3.62a2.619,2.619,0,0,1-3.588.92L189.628,26.2l-4.83,7.579-7.838-5,1.135-1.782a22.637,22.637,0,0,0,3.4-13.666q-.025-.38-.025-.764a11.7,11.7,0,0,1,22.956-3.157,12.987,12.987,0,0,1-.545,4.714" fill="#f8a257"/>
      <g id="Group_17715" data-name="Group 17715" style="isolation: isolate">
        <g id="Group_17714" data-name="Group 17714">
          <g id="Group_17713" data-name="Group 17713" clip-path="url(#clip-path-5)">
            <path id="Path_28282" data-name="Path 28282" d="M180.463,24.187l.162.088a.922.922,0,0,0,1.14-.207,93.05,93.05,0,0,1,7.257-7.718c1.718-1.375,3.782-1.441,3.748,1.288-.016,1.241,1.834,1.413,2.915-.028,1.453-1.937,10,1.989,13.487-2.046a1.189,1.189,0,0,0-.51-1.9,8.332,8.332,0,0,1-1.273-.557s4.281-1.477,4.957-5.1a.745.745,0,0,0-.931-.859,7.528,7.528,0,0,1-7.087-1.606c-2.7-2.161-9.9-8.463-17.827-3.961-2.544,1.445-5.4,5.041-5.4,11.163a29.564,29.564,0,0,1-1.527,9.448,1.8,1.8,0,0,0,.89,1.991" fill="#030207"/>
          </g>
        </g>
      </g>
      <path id="Path_28283" data-name="Path 28283" d="M240.432,78.836a29.828,29.828,0,0,1,7.9,1.971c3.11,1.368,7.051,5.281,8.447,7.168s2.941,8.458-3.072,5.09c-2.741-1.535-6.057-3.013-8.018-3.849a1.035,1.035,0,0,0-1.431,1.1l.282,1.983a1.053,1.053,0,1,1-2.087.281,11.719,11.719,0,0,0-1.172-4.237c-1.063-1.632-4.024-3.327-4.024-3.327Z" fill="#f8a257"/>
      <path id="Path_28284" data-name="Path 28284" d="M119.158,207.215l-20.707-3.3s6.662-50.894,11.164-77,10.443-43.035,11.7-45.376c6.3,3.781,32.411,17.646,32.411,17.646s-6.3,25.389-13.865,48.977-20.707,59.06-20.707,59.06" fill="#0b0754"/>
      <path id="Path_28285" data-name="Path 28285" d="M136.624,129.428c9.183,19.447,28.99,64.642,36.192,87.33,4.5-1.8,21.788-7.923,21.788-7.923s-12.051-45.375-18.72-64.462S158.592,99,158.592,99H147.143Z" fill="#0b0754"/>
    </g>
  </g>
  <g id="Group_17719" data-name="Group 17719">
    <g id="Group_17718" data-name="Group 17718" clip-path="url(#clip-path-6)">
      <rect id="Rectangle_10297" data-name="Rectangle 10297" width="83.21" height="83.756" transform="matrix(0.683, -0.73, 0.73, 0.683, 151.186, 61.289)" fill="url(#linear-gradient)"/>
    </g>
  </g>
  <g id="Group_17721" data-name="Group 17721">
    <g id="Group_17720" data-name="Group 17720" clip-path="url(#clip-path-7)">
      <rect id="Rectangle_10298" data-name="Rectangle 10298" width="80.888" height="93.678" transform="translate(111.775 23.146)" fill="url(#linear-gradient-2)"/>
    </g>
  </g>
  <g id="Group_17723" data-name="Group 17723">
    <g id="Group_17722" data-name="Group 17722" clip-path="url(#clip-path)">
      <path id="Path_28288" data-name="Path 28288" d="M210.162,117.55a6.835,6.835,0,0,1-1.871-.814c-1.9-1.308-5.944-4.5-7.025-7.206-.416-1.041-1.14-3.118-1.584-4.426-.234-.683-.4-1.156-.4-1.156l4.5-4.141s.641.5,1.555,1.126c1.6,1.1,4.014,2.579,5.289,2.476a8.848,8.848,0,0,1,2.912.256l-.8,3.29a1.168,1.168,0,0,0-.695,1.551,3.442,3.442,0,0,0,.2.493c.774,1.695,2.834,3.891,5.4,6.293,3.405,3.188-3.5,3.434-7.49,2.258" fill="#f8a257"/>
      <path id="Path_28289" data-name="Path 28289" d="M190.893,35.567c-.953,4.406-3.389,7.606-6.6,8.024-4.793.624-9.5-5.17-10.515-12.945a21.564,21.564,0,0,1,.1-6.441c6.376,1.709,13.393,5.442,16.771,10.87a3.533,3.533,0,0,1,.25.492" fill="#f8a257"/>
    </g>
  </g>
  <g id="Group_17725" data-name="Group 17725">
    <g id="Group_17724" data-name="Group 17724" clip-path="url(#clip-path-9)">
      <rect id="Rectangle_10300" data-name="Rectangle 10300" width="73.824" height="86.78" transform="translate(130.372 44.136) rotate(-23.88)" fill="url(#linear-gradient-3)"/>
    </g>
  </g>
  <g id="Group_17736" data-name="Group 17736">
    <g id="Group_17735" data-name="Group 17735" clip-path="url(#clip-path)">
      <path id="Path_28291" data-name="Path 28291" d="M102.773,201.272c.247,2.349-1.118,7.5-2,10.5a2.956,2.956,0,0,0,1.583,3.508c2.18,1.024,5.468,2.188,7.8,1.3a20.984,20.984,0,0,0,12.784,4.682,1.727,1.727,0,0,0,1.45-.965,2.011,2.011,0,0,0-.666-2.5c-2.69-1.893-8.6-6.3-11.138-10.174.27-3.108.631-5.269.631-5.269s-7.563-.9-10.444-1.08" fill="#0b0754"/>
      <path id="Path_28292" data-name="Path 28292" d="M178.038,210.816c.62,1.985.129,5.851-.236,8.064a1.425,1.425,0,0,0,1.406,1.659h22.739a.677.677,0,0,0,.674-.6,2.553,2.553,0,0,0-1.935-2.779c-3.2-.775-9.039-2.387-11.6-4.36a1.522,1.522,0,0,1-.579-1.249,25.476,25.476,0,0,0-.39-5.057Z" fill="#0b0754"/>
      <path id="Path_28293" data-name="Path 28293" d="M226.9,422.994c-16.173-43.668-40.74-120.18-42.588-146.519s14.956-32.367,25.153-28.545,37.54,28.636,50.266,72.753C271.182,360.386,291.8,429.1,291.8,429.1Z" fill="#dad2ff"/>
      <path id="Path_28294" data-name="Path 28294" d="M207.985,268.115q25.7,67.829,47.334,137.23c1.925,6.624,4.021,13.562,5.3,20.367l-4.825.673c-.3-1.631-.565-3.255-.887-4.9-2.485-11.137-6.15-23.865-9.329-34.876-11.533-39.648-24.7-79.719-37.589-118.5" fill="#eae8f7"/>
      <path id="Path_28295" data-name="Path 28295" d="M277.128,499.95c4.66,4.877,8.749,9.149,12.334,12.886H181.434c-26.169-10.814-49.873-23.618-60.519-36.388-21.863-26.225-14.413-47.988,0-61.483,6.755-6.321,17.954-12.778,35.347-10.078a65.565,65.565,0,0,1,9.048,2.1c.183.056.366.116.549.172h0a88.51,88.51,0,0,1,10.552,4.115q3.042,1.4,6.262,3.137,1.165.621,2.345,1.292a158.672,158.672,0,0,1,14.052,9.014q1.036.74,2.087,1.508,1.944,1.43,3.936,2.962,5.636,4.335,11.7,9.6,3.444,3,7.031,6.314,7.729,7.148,16.128,15.859c.627.65,1.255,1.3,1.886,1.968.556.586,1.109,1.165,1.658,1.744l.026.026.832.877q5.417,5.7,10.292,10.811,3.774,3.96,7.236,7.6l.206.217q2.049,2.145,3.988,4.182,5.707,5.982,10.549,11.045c.164.176.332.351.5.523" fill="#c1b0ff"/>
      <path id="Path_28296" data-name="Path 28296" d="M244.055,512.918c-11.785-11.267-24.708-23.377-37.332-33.653l-.006-.4c0-.015.3.644.3.641-17.724-14.114-42.179-32.672-65.019-35.373-3.621-.434-6.982-.032-10.66.1l.123-4.2c1.625.04,3.6-.16,5.323-.131,20.176.379,38.666,13.206,54.426,24.63,5.8,4.361,11.407,8.952,16.886,13.68l.307.264s-.005.381-.005.384l-.3-.645c5.546,4.739,13.041,11.855,18.444,16.884,5.266,5.086,12.422,12.44,17.678,17.649l-.164.163" fill="#dcd7f2"/>
      <path id="Path_28297" data-name="Path 28297" d="M336.366,512.836H269.182q-1.547-2.42-3.1-4.974c-4.425-7.248-8.861-15.231-13.178-23.663q-1.967-3.848-3.9-7.812-2.542-5.214-5-10.59c-.164-.354-.325-.709-.485-1.068-.008-.018-.019-.037-.026-.056q-.84-1.848-1.662-3.711c-3.353-7.569-6.535-15.28-9.459-22.958q-1.6-4.178-3.08-8.334-1.2-3.35-2.323-6.669-1.647-4.884-3.118-9.675-1.735-5.658-3.189-11.117-1.315-4.935-2.371-9.652c-.96-4.284-1.751-8.417-2.352-12.357q-.332-2.162-.587-4.249-.3-2.432-.485-4.746c-.093-1.124-.164-2.229-.213-3.309-.482-10.138.837-18.233,4.462-23.233l0,0a13.057,13.057,0,0,1,4.925-4.186q.416-.2.841-.37l.011,0a13.837,13.837,0,0,1,4.29-.967,16.449,16.449,0,0,1,3.193.1,29,29,0,0,1,11.139,4.265,59.508,59.508,0,0,1,6.848,4.88q3.372,2.745,6.86,6.218,1,.991,2.009,2.046,1.309,1.367,2.632,2.83,3.188,3.518,6.419,7.547,2.375,2.952,4.757,6.161,1.76,2.37,3.525,4.873c.15.209.3.418.445.631,4.75,6.774,9.492,14.238,14.141,22.244,2.916,5.012,5.791,10.239,8.6,15.639q2.745,5.259,5.4,10.732,1.377,2.827,2.726,5.709,1.567,3.35,3.1,6.77,2.442,5.445,4.772,11.034,2.094,5.025,4.089,10.15,2.975,7.633,5.679,15.425,1.356,3.894,2.633,7.812c3.1,9.5,5.862,19.085,8.2,28.637" fill="#d6c9f4"/>
      <path id="Path_28298" data-name="Path 28298" d="M303.887,512.867c-4.232-13.841-8.416-27.871-13.865-41.3-14.07-37.1-32.442-73.239-52.744-107.333l-5.59-9.354,3.4-1.967,5.4,9.48c17.768,31.474,34.232,64.677,46.83,98.538,3.686,9.776,7.775,20.951,10.8,30.9,2.054,6.978,4,13.988,6,20.975l-.223.061" fill="#ece8f9"/>
      <path id="Path_28299" data-name="Path 28299" d="M317.367,512.836H237.674c-3.13-5.116-6.625-10.62-10.389-16.411q-3.858-5.926-8.073-12.226-2.571-3.848-5.254-7.812c-3.409-5.044-6.938-10.2-10.534-15.425q-3.473-5.041-7.02-10.15c-3.767-5.429-7.576-10.888-11.381-16.325q-2.106-3.008-4.2-6-2.213-3.159-4.406-6.285c-3.57-5.089-7.1-10.119-10.553-15.044h0l-.549-.785c-3.092-4.413-6.12-8.745-9.047-12.949-19.5-27.984-34.735-50.6-36.879-57.8-5.776-19.407-6.236-43.152,12.017-38.212,3.663.994,12.647,7.409,24.862,17.745q4.273,3.612,9.047,7.853c5.06,4.492,10.5,9.481,16.214,14.888q1.5,1.422,3.032,2.882,2.678,2.561,5.426,5.232c5.216,5.078,10.6,10.448,16.079,16.053q3.35,3.428,6.736,6.968,1.037,1.08,2.076,2.173,1.551,1.635,3.114,3.29,1.43,1.512,2.864,3.05,6.834,7.327,13.7,15.012,4.5,5.052,8.977,10.227c.105.12.213.243.314.366q2.088,2.415,4.156,4.855,3.719,4.38,7.378,8.823c.4.489.807.982,1.206,1.472q1.389,1.691,2.76,3.386,1.9,2.354,3.779,4.717,1.629,2.049,3.237,4.107,1.9,2.426,3.761,4.854,3.641,4.744,7.135,9.507,2.589,3.518,5.083,7.036.862,1.2,1.706,2.415c5.187,7.4,10.06,14.776,14.515,22.065q.627,1.031,1.247,2.054,1.736,2.891,3.387,5.758,1.709,2.969,3.308,5.911,1,1.827,1.946,3.641c3.412,6.5,6.415,12.883,8.924,19.085" fill="#d1bbf2"/>
      <path id="Path_28300" data-name="Path 28300" d="M278.854,512.894c-34.565-57.419-73.43-112.69-118.745-162.167-6.44-7.058-13.159-13.86-19.806-20.717l6.743-6.436c13.021,14.23,25.559,29.036,37.538,44.154,5.024,6.308,12.583,16.536,17.509,23.041,28.028,38.84,54.582,80.159,76.761,122.125" fill="#eae4f4"/>
      <path id="Path_28301" data-name="Path 28301" d="M282.173,512.836H232.995c-7.132-9.1-14.653-19.022-21.613-28.637q-1.944-2.684-3.824-5.332v0q-.885-1.244-1.751-2.476c-3.817-5.425-7.353-10.638-10.43-15.425-2.479-3.861-4.66-7.439-6.445-10.624a72.929,72.929,0,0,1-3.909-7.868c-.18-.436-.34-.858-.482-1.258a91.781,91.781,0,0,1-3.719-12.722c-1.184-6.008-1.012-11.094,1.856-14.078a8.032,8.032,0,0,1,2.345-1.676c2.614-1.251,6.426-1.565,11.766-.635a38.315,38.315,0,0,1,3.883.889,57.44,57.44,0,0,1,10.994,4.469,87.129,87.129,0,0,1,11.695,7.435c.164.127.332.25.5.377q2.7,2.039,5.441,4.4A135.927,135.927,0,0,1,243.525,444c.056.063.112.127.168.194q2.006,2.336,4,4.854,3.663,4.622,7.259,9.862.7,1.014,1.389,2.054,4.761,7.141,9.3,15.425.555,1.02,1.105,2.054,1.5,2.813,2.961,5.758,3.579,7.215,6.916,15.228c.033.082.067.16.1.243.048.123.1.242.149.362,2,4.828,3.753,9.077,5.3,12.8" fill="#d9caef"/>
      <path id="Path_28302" data-name="Path 28302" d="M200.331,428.883c6.771,5.469,12.118,12.318,17.635,18.928q8.065,10.111,15.313,20.818a390.666,390.666,0,0,1,26.771,44.148l-.2.119c-19-27.854-39.213-57.67-59.521-84.013" fill="#e9e8f9"/>
      <path id="Path_28303" data-name="Path 28303" d="M308.442,489.461v23.376H266.079v-9.186l6.31-2.114,4.489-1.505.25-.082,20.978-7.028,8.391-2.811Z" fill="#5535c3"/>
      <path id="Path_28304" data-name="Path 28304" d="M308.441,478.443v11.019l-42.364,14.189V478.443Z" fill="#0b0754"/>
      <path id="Path_28305" data-name="Path 28305" d="M418.258,356.1V475.749a8.452,8.452,0,0,1-8.452,8.452H164.713a8.452,8.452,0,0,1-8.452-8.452V307.569a8.452,8.452,0,0,1,8.452-8.452h78.813V466.1Z" fill="#5535c3"/>
      <path id="Path_28306" data-name="Path 28306" d="M418.258,307.569V356.1L243.526,466.1V299.117h166.28a8.452,8.452,0,0,1,8.452,8.452" fill="#0b0754"/>
      <path id="Path_28307" data-name="Path 28307" d="M404.335,476.387H170.185a4.875,4.875,0,0,1-4.875-4.875v-159.7a4.875,4.875,0,0,1,4.875-4.875h234.15a4.875,4.875,0,0,1,4.875,4.875v159.7a4.875,4.875,0,0,1-4.875,4.875" fill="#efebf7"/>
      <path id="Path_28308" data-name="Path 28308" d="M233.38,353.983a28.422,28.422,0,1,1-28.422-28.422,28.422,28.422,0,0,1,28.422,28.422" fill="#fff"/>
      <path id="Path_28309" data-name="Path 28309" d="M278.53,460.963H180.218a3.8,3.8,0,0,1-3.8-3.8v-60.8a3.8,3.8,0,0,1,3.8-3.8H278.53a3.8,3.8,0,0,1,3.8,3.8v60.8a3.8,3.8,0,0,1-3.8,3.8" fill="#fff"/>
      <rect id="Rectangle_10301" data-name="Rectangle 10301" width="32.658" height="4.855" transform="translate(240.627 403.149)" fill="#c1b0ff"/>
      <rect id="Rectangle_10302" data-name="Rectangle 10302" width="32.658" height="4.855" transform="translate(240.627 416.83)" fill="#c1b0ff"/>
      <rect id="Rectangle_10303" data-name="Rectangle 10303" width="32.658" height="4.855" transform="translate(240.627 430.511)" fill="#c1b0ff"/>
      <rect id="Rectangle_10304" data-name="Rectangle 10304" width="32.658" height="4.855" transform="translate(240.627 444.192)" fill="#c1b0ff"/>
      <path id="Path_28310" data-name="Path 28310" d="M217.549,450.812h-26.22a6.308,6.308,0,0,1-6.308-6.308V407.692a6.308,6.308,0,0,1,6.308-6.308h26.22a6.308,6.308,0,0,1,6.308,6.308V444.5a6.308,6.308,0,0,1-6.308,6.308" fill="#c1b0ff"/>
      <path id="Path_28311" data-name="Path 28311" d="M211.941,419.478a7.5,7.5,0,1,1-7.5-7.5,7.5,7.5,0,0,1,7.5,7.5" fill="#fff"/>
      <path id="Path_28312" data-name="Path 28312" d="M216.8,439.779H192.082v-2.861a7.731,7.731,0,0,1,7.731-7.731h9.252a7.731,7.731,0,0,1,7.731,7.731Z" fill="#fff"/>
      <path id="Path_28313" data-name="Path 28313" d="M393.273,460.963H294.961a3.8,3.8,0,0,1-3.8-3.8v-60.8a3.8,3.8,0,0,1,3.8-3.8h98.312a3.8,3.8,0,0,1,3.8,3.8v60.8a3.8,3.8,0,0,1-3.8,3.8" fill="#fff"/>
      <rect id="Rectangle_10305" data-name="Rectangle 10305" width="32.658" height="4.855" transform="translate(355.371 403.149)" fill="#c1b0ff"/>
      <rect id="Rectangle_10306" data-name="Rectangle 10306" width="32.658" height="4.855" transform="translate(355.371 416.83)" fill="#c1b0ff"/>
      <rect id="Rectangle_10307" data-name="Rectangle 10307" width="32.658" height="4.855" transform="translate(355.371 430.511)" fill="#c1b0ff"/>
      <rect id="Rectangle_10308" data-name="Rectangle 10308" width="32.658" height="4.855" transform="translate(355.371 444.192)" fill="#c1b0ff"/>
      <path id="Path_28314" data-name="Path 28314" d="M332.293,450.812h-26.22a6.308,6.308,0,0,1-6.308-6.308V407.692a6.308,6.308,0,0,1,6.308-6.308h26.22a6.308,6.308,0,0,1,6.308,6.308V444.5a6.308,6.308,0,0,1-6.308,6.308" fill="#c1b0ff"/>
      <path id="Path_28315" data-name="Path 28315" d="M326.685,419.478a7.5,7.5,0,1,1-7.5-7.5,7.5,7.5,0,0,1,7.5,7.5" fill="#fff"/>
      <path id="Path_28316" data-name="Path 28316" d="M331.54,439.779H306.826v-2.861a7.731,7.731,0,0,1,7.731-7.731h9.252a7.731,7.731,0,0,1,7.731,7.731Z" fill="#fff"/>
      <g id="Group_17728" data-name="Group 17728" style="isolation: isolate">
        <g id="Group_17727" data-name="Group 17727">
          <g id="Group_17726" data-name="Group 17726" clip-path="url(#clip-path-11)">
            <path id="Path_28317" data-name="Path 28317" d="M394.816,340.947H251.875a2.26,2.26,0,0,1-2.26-2.26v-7.144a2.26,2.26,0,0,1,2.26-2.26H394.816a2.26,2.26,0,0,1,2.26,2.26v7.144a2.26,2.26,0,0,1-2.26,2.26" fill="#fff"/>
          </g>
        </g>
      </g>
      <g id="Group_17731" data-name="Group 17731" style="isolation: isolate">
        <g id="Group_17730" data-name="Group 17730">
          <g id="Group_17729" data-name="Group 17729" clip-path="url(#clip-path-12)">
            <path id="Path_28318" data-name="Path 28318" d="M394.816,359.472H251.875a2.26,2.26,0,0,1-2.26-2.26v-7.144a2.26,2.26,0,0,1,2.26-2.26H394.816a2.26,2.26,0,0,1,2.26,2.26v7.144a2.26,2.26,0,0,1-2.26,2.26" fill="#fff"/>
          </g>
        </g>
      </g>
      <g id="Group_17734" data-name="Group 17734" style="isolation: isolate">
        <g id="Group_17733" data-name="Group 17733">
          <g id="Group_17732" data-name="Group 17732" clip-path="url(#clip-path-13)">
            <path id="Path_28319" data-name="Path 28319" d="M394.816,378.684H251.875a2.26,2.26,0,0,1-2.26-2.26V369.28a2.26,2.26,0,0,1,2.26-2.26H394.816a2.26,2.26,0,0,1,2.26,2.26v7.144a2.26,2.26,0,0,1-2.26,2.26" fill="#fff"/>
          </g>
        </g>
      </g>
      <path id="Path_28320" data-name="Path 28320" d="M262.651,335.458a2.745,2.745,0,1,1-2.744-2.744,2.744,2.744,0,0,1,2.744,2.744" fill="#5b31ca"/>
      <line id="Line_1530" data-name="Line 1530" y1="0.343" x2="123.364" transform="translate(267.954 335.115)" fill="none" stroke="#5b31ca" stroke-miterlimit="10" stroke-width="2.056"/>
      <path id="Path_28321" data-name="Path 28321" d="M262.651,353.983a2.745,2.745,0,1,1-2.744-2.744,2.744,2.744,0,0,1,2.744,2.744" fill="#5b31ca"/>
      <line id="Line_1531" data-name="Line 1531" y1="0.343" x2="123.364" transform="translate(267.954 353.64)" fill="none" stroke="#5b31ca" stroke-miterlimit="10" stroke-width="2.056"/>
      <path id="Path_28322" data-name="Path 28322" d="M262.651,373.2a2.745,2.745,0,1,1-2.744-2.744,2.744,2.744,0,0,1,2.744,2.744" fill="#5b31ca"/>
      <line id="Line_1532" data-name="Line 1532" y1="0.343" x2="123.364" transform="translate(267.954 372.852)" fill="none" stroke="#5b31ca" stroke-miterlimit="10" stroke-width="2.056"/>
      <path id="Path_28323" data-name="Path 28323" d="M204.958,378.292a24.309,24.309,0,1,1,24.309-24.309,24.337,24.337,0,0,1-24.309,24.309m0-41.279a16.97,16.97,0,1,0,16.97,16.97,16.99,16.99,0,0,0-16.97-16.97" fill="#dad2ff"/>
      <path id="Path_28324" data-name="Path 28324" d="M204.958,378.292a24.153,24.153,0,0,1-17.189-7.12,3.669,3.669,0,0,1,5.189-5.189,16.971,16.971,0,1,0,15.424-28.625,3.669,3.669,0,1,1,1.471-7.189,24.311,24.311,0,0,1-4.9,48.123" fill="#5535c3"/>
      <path id="Path_28325" data-name="Path 28325" d="M35.486,325.546a6.609,6.609,0,1,1-6.609-6.609,6.609,6.609,0,0,1,6.609,6.609" fill="#5535c3"/>
      <path id="Path_28326" data-name="Path 28326" d="M494.554,259.738a16.128,16.128,0,1,1-16.128-16.128,16.128,16.128,0,0,1,16.128,16.128" fill="#5535c3"/>
      <path id="Path_28327" data-name="Path 28327" d="M466.81,497.057a8.126,8.126,0,1,1-8.126-8.126,8.126,8.126,0,0,1,8.126,8.126" fill="#5cc5f9"/>
    </g>
  </g>
</svg>
