<svg xmlns="http://www.w3.org/2000/svg" xmlns:xlink="http://www.w3.org/1999/xlink" width="342.187" height="354.893" viewBox="0 0 342.187 354.893"><defs><clipPath id="a"><rect width="342.187" height="354.893" fill="none"/></clipPath><clipPath id="b"><rect width="35.791" height="48.605" transform="translate(228.59 69.083)" fill="none"/></clipPath><clipPath id="c"><rect width="7.847" height="8.018" transform="translate(249.255 209.221)" fill="none"/></clipPath><clipPath id="d"><rect width="7.847" height="6.681" transform="translate(221.168 211.017)" fill="none"/></clipPath><clipPath id="e"><rect width="22.718" height="16.874" transform="translate(124.215)" fill="none"/></clipPath><clipPath id="f"><path d="M124.662,24.885l.153-1.385a4.459,4.459,0,0,0,.024,6.447c4.289,4.069,11.125,13.683,16.113,17.645,8,6.355,23.939,12.012,23.939,12.012l2.992-5.062s-15.188-6.9-22.195-12.4c-4.529-3.557-11.3-15.2-14.6-18.553a2.732,2.732,0,0,0-2.019-.816,7.018,7.018,0,0,0-4.409,2.116" fill="none"/></clipPath><linearGradient id="g" x1="-2.026" y1="5.913" x2="-2.009" y2="5.913" gradientUnits="objectBoundingBox"><stop offset="0" stop-color="#985bf3"/><stop offset="0.004" stop-color="#985bf3"/><stop offset="1" stop-color="#6621cc"/></linearGradient><clipPath id="h"><path d="M114.466,16.047c-3.761.289-6.915,2.982-7.476,8.347-.872,8.348-3.987,12.21-9.717,15.075C89.05,43.58,79.207,56.538,77.339,60.525c2.367,1.744,22.052,16.694,43.106,20.306-1-12.084-.823-25.258,1.5-31.769,3.239-9.094,5.278-6.621,7.6-9.717,2.15-2.867,3.764-11.828,2.539-14.735-.658,3.048-2.344,5.262-4.568,5.551-3.317.432-6.574-3.576-7.276-8.957a14.935,14.935,0,0,1,.068-4.455,19.8,19.8,0,0,0-4.986-.734c-.3,0-.581.011-.852.032" fill="none"/></clipPath><linearGradient id="i" x1="-1.382" y1="5.228" x2="-1.364" y2="5.228" xlink:href="#g"/><clipPath id="k"><path d="M112.563,22.491a4.458,4.458,0,0,0-2.5,5.942c2.357,5.423,6.548,14.7,9.883,20.131,5.356,8.721,17.691,24.544,17.691,24.544l4.734-3.489S129.291,50.058,125.3,41.587c-2.452-5.212-5.275-12.193-7-16.565a4.455,4.455,0,0,0-5.744-2.531" fill="none"/></clipPath><linearGradient id="l" x1="-1.961" y1="5.617" x2="-1.941" y2="5.617" xlink:href="#g"/><clipPath id="n"><rect width="102.03" height="8.071" transform="translate(172.711 227.834)" fill="none"/></clipPath><clipPath id="o"><rect width="102.03" height="8.071" transform="translate(172.711 240.652)" fill="none"/></clipPath><clipPath id="p"><rect width="102.03" height="8.07" transform="translate(172.711 253.945)" fill="none"/></clipPath></defs><g clip-path="url(#a)"><path d="M341.808,92.57a19.2,19.2,0,0,1-19.2,19.2H269.1a15.111,15.111,0,1,1,3.716-29.76,23.647,23.647,0,0,1,43.865-7.705A19.211,19.211,0,0,1,341.808,92.57" fill="#dad2ff"/><path d="M0,116.705a37.186,37.186,0,0,0,37.183,37.183H140.814a29.265,29.265,0,1,0-7.2-57.634A45.8,45.8,0,0,0,48.669,81.333,37.2,37.2,0,0,0,0,116.705" fill="#5c2dcc"/><path d="M179.856,95.57a7.208,7.208,0,1,0,7.208,7.208,7.213,7.213,0,0,0-7.208-7.208m0,0a7.208,7.208,0,1,0,7.208,7.208,7.213,7.213,0,0,0-7.208-7.208M215.631,72.2,162.363,59.227a11.23,11.23,0,0,0-13.576,8.25L135.7,121.212a11.238,11.238,0,0,0,8.259,13.576l53.268,12.973A11.229,11.229,0,0,0,210.8,139.5L223.89,85.768A11.232,11.232,0,0,0,215.631,72.2m-21.385,45.543a20.566,20.566,0,0,1-14.39,5.808c-.356,0-.712-.008-1.06-.025a20.648,20.648,0,0,1-13.906-6.36,20.746,20.746,0,0,1-5.809-14.389c0-.357.009-.7.026-1.052A20.767,20.767,0,0,1,179.856,82c.543,0,1.085.017,1.611.068a20.194,20.194,0,0,1,6.572,1.611,20.616,20.616,0,0,1,6.9,4.833,20.7,20.7,0,0,1,5.69,14.263c0,.305-.009.6-.026.9a20.594,20.594,0,0,1-6.359,14.068M179.856,95.57a7.208,7.208,0,1,0,7.208,7.208,7.213,7.213,0,0,0-7.208-7.208m0,0a7.208,7.208,0,1,0,7.208,7.208,7.213,7.213,0,0,0-7.208-7.208m0,0a7.208,7.208,0,1,0,7.208,7.208,7.213,7.213,0,0,0-7.208-7.208" fill="#d8d0fa"/><path d="M188.827,78.458l-.789,5.223a20.213,20.213,0,0,0-6.571-1.611l.7-4.613Z" fill="#5535c1"/><path d="M203.192,93.755l-3.731,2.154a20.323,20.323,0,0,0-4.52-7.394l3.918-2.264Z" fill="#5535c1"/><path d="M199.461,95.909a20.337,20.337,0,0,0-4.52-7.394,20.6,20.6,0,0,0-6.9-4.833,20.194,20.194,0,0,0-6.572-1.611c-.526-.051-1.068-.068-1.611-.068a20.781,20.781,0,0,0-20.749,19.723c-.017.348-.026.695-.026,1.051a20.767,20.767,0,0,0,19.715,20.75c.348.017.7.025,1.06.025a20.566,20.566,0,0,0,14.39-5.808,20.594,20.594,0,0,0,6.359-14.068c.017-.3.026-.593.026-.9a20.463,20.463,0,0,0-1.17-6.868m-19.6,14.076a7.208,7.208,0,1,1,7.208-7.208,7.213,7.213,0,0,1-7.208,7.208" fill="#5535c1"/><path d="M164.89,117.167l-3.494,2.018-4.333-7.5,3.248-1.874a20.381,20.381,0,0,0,4.579,7.36" fill="#5535c1"/><path d="M180.15,123.192l-.968,4.546-9.649-2.073,1.141-5.325a27.472,27.472,0,0,0,9.476,2.852" fill="#5535c1"/><path d="M172.716,83.266a20.514,20.514,0,0,0-6.47,3.833l-2.6-3.324,5.876-4.6Z" fill="#5535c1"/><path d="M160.828,94.442a20.511,20.511,0,0,0-1.721,7.284l-3.808-.577,1.1-7.368Z" fill="#5535c1"/><path d="M204.591,104.278l-1.111,7.369-4.528-.679a20.5,20.5,0,0,0,1.654-7.292Z" fill="#5535c1"/><path d="M196.807,121.025l-5.877,4.587-2.909-3.722a20.641,20.641,0,0,0,6.224-4.147Z" fill="#5535c1"/><g style="isolation:isolate"><g clip-path="url(#b)"><path d="M240.57,75.719s5.633,5.035,8.92,5.465c0,0,2.726.781,0,4.281a7.1,7.1,0,0,0,5.354,8.172s5.911,1.323,5.282,7.352a80.129,80.129,0,0,1-5.059,6.973s-.286,8.387.382,9.727c0,0,9.739-.217,8.878-8.124,0,0-.861-7.246-6.874-8.579,0,0,6.259-1.339,5.468-8.685,0,0-.936-6.419-5.54-6.882,0,0,6.085-8.488-5.272-15.166,0,0-8.1-4.68-14.406,4.677,0,0-3.644,6.678-1.3,12.026,0,0-9.014,2.676-7.678,10.025,0,0,.744,3.667,1.97,5.341,2.04,2.785,10.191,3.542,13.808-.049,2.753-2.733-.593-12.538-1.748-13.981,0,0-3.353-1.091-3.347-8.227,0,0-.355-3.56,1.162-4.346" fill="#030207"/></g></g><path d="M239.96,74.93s-3.108,9.256,2.791,14.109c0,0,5.3,1.313,6.663-2.219V85.242s2.364-2.576.8-4.032c0,0-10.446-5.449-10.254-6.28" fill="#f8a257"/><path d="M239.8,92s3.625-.8,3.625-4c0,0,4.648.985,5.664-1.506,0,0,.427,5.7,6.065,6.8,0,0-13.635,1.9-15.354-1.3" fill="#f8a257"/><path d="M239.627,91.709c-3.657.813-8.533,8.533-9.566,11.953,1.44,1.049,3.785,3.708,4.244,9.537l2.133-2.191s.8,9.364-2.5,13.206c0,0,7.543,4.836,21.65,1.5,0,0-1.344-14.03,2.687-18.039,0,0,6.543-10.273-3.209-14.336-3.251,0-12.189,1.626-15.44-1.625" fill="#985bf3"/><path d="M230.337,103.357s3.931,2.351,4.357,9.568l-6.836,3.874-5.039-2a33.084,33.084,0,0,1-3.857-8.72l1.992-8.822s5.624,7.837,6.137,10.351c0,0,1.879-4.333,3.246-4.25" fill="#f8a257"/><g style="isolation:isolate"><g clip-path="url(#c)"><path d="M257.1,214.032s-1.7,2.4-7.847,3.207c0,0,2.5-3.211,2.853-3.207l.062-4.81H257.1s-.7,3.2,0,4.81" fill="#ab917a"/></g></g><g style="isolation:isolate"><g clip-path="url(#d)"><path d="M229.015,215.025s-1.7,2-7.847,2.672c0,0,2.5-2.675,2.853-2.672l.063-4.009h4.931s-.7,2.67,0,4.009" fill="#ab917a"/></g></g><path d="M249.49,101.023s5.487,6.321,5.389,10.827c0,0-8.568,8.514-11.682,8.514,0,0-11.131,2.955-29.17-.861,0,0-6.42,5.048-9.557,1.952,0,0-1.8-.423-1.8-1.091a.925.925,0,0,1,0-1.336,1.495,1.495,0,0,1,.669-2,.654.654,0,0,1,.668-.668h3.34a.654.654,0,0,0-.668-.668s-1.336-.668-.668-1.336a.925.925,0,0,1,1.336,0,2.927,2.927,0,0,0,2.005.668h2.672a1.308,1.308,0,0,1,1.336,1.336s23.384-4.008,26.056-2c0,0,5.452-10.622,10.075-13.328" fill="#f8a257"/><path d="M233.939,124.214s7.309,2.72,8.126,2.438l-6.854,30.458s-2.924,6.013-6.264,8.017a120.349,120.349,0,0,1,5.6,33.767l1.077,12.332H213.954s4.235-51.218,4.269-55.339a95.836,95.836,0,0,1,15.716-31.673" fill="#5535c1"/><path d="M238.747,129.717c-3.34,5.345-5.345,34.741-5.345,34.741,2.673,4.009,8.685,44.763,8.685,44.763h21.38l-5.345-15.366c-4.677-21.38-11.636-31.141-11.636-31.141a180.617,180.617,0,0,0,5.623-17.631,16.42,16.42,0,0,0,3.365-19.651s-10.565,2.438-16.208.558l-.519,1.723Z" fill="#5535c1"/><path d="M257.221,213.441c2.22,2.163,1.08,6.916.284,7.883H241.252a6.856,6.856,0,0,1,1.626-2.844,8.566,8.566,0,0,1,4.346-1.638s8.352-1.531,9.993-3.4" fill="#5535c3"/><path d="M229.346,221.178s-8.081.392-15.591.02c-.156-1.271.031-2.261,6.415-3.462a34.113,34.113,0,0,0,8.762-3.285c2.738,3.833.414,6.727.414,6.727" fill="#5535c3"/><path d="M141.063,9.779c-.157.576-.325,1.093-.435,1.534a11.323,11.323,0,0,0-.351,2.027c0,.025,0,.05,0,.074a13.872,13.872,0,0,0,.228,2.51.859.859,0,0,1-.891.951l-1.352-.057-1.482,2.5a1.812,1.812,0,0,1-2.483.637L131.2,18.131l-3.341,5.244-5.423-3.456.786-1.233a15.666,15.666,0,0,0,2.348-9.456c-.011-.175-.017-.351-.017-.529a8.092,8.092,0,0,1,15.884-2.184,8.967,8.967,0,0,1-.378,3.262" fill="#f8a257"/><g style="isolation:isolate"><g clip-path="url(#e)"><path d="M124.864,16.735l.112.061a.639.639,0,0,0,.789-.143,64.284,64.284,0,0,1,5.021-5.341c1.189-.951,2.617-1,2.593.892-.011.858,1.269.977,2.017-.02,1.005-1.34,6.922,1.377,9.332-1.415a.824.824,0,0,0-.353-1.314,5.769,5.769,0,0,1-.881-.385s2.963-1.022,3.43-3.528a.516.516,0,0,0-.644-.594,5.207,5.207,0,0,1-4.9-1.111c-1.869-1.495-6.852-5.856-12.334-2.741-1.761,1-3.738,3.489-3.738,7.725a20.427,20.427,0,0,1-1.056,6.536,1.244,1.244,0,0,0,.616,1.378" fill="#030207"/></g></g><path d="M166.357,54.548a20.62,20.62,0,0,1,5.466,1.364,18.94,18.94,0,0,1,5.845,4.959c.966,1.306,2.035,5.852-2.126,3.522-1.9-1.062-4.191-2.084-5.547-2.663a.717.717,0,0,0-.991.761l.2,1.372a.729.729,0,1,1-1.444.195,8.106,8.106,0,0,0-.81-2.932,10.158,10.158,0,0,0-2.785-2.3Z" fill="#f8a257"/><path d="M82.447,143.374,68.12,141.087s4.609-35.213,7.724-53.279,7.226-29.776,8.1-31.4c4.361,2.616,22.426,12.209,22.426,12.209s-4.361,17.567-9.594,33.888-14.327,40.864-14.327,40.864" fill="#0b0754"/><path d="M94.532,89.553c6.354,13.455,20.058,44.727,25.042,60.424,3.115-1.245,15.075-5.481,15.075-5.481s-8.338-31.4-12.953-44.6-11.964-31.4-11.964-31.4H101.81Z" fill="#0b0754"/></g><g clip-path="url(#f)"><rect width="57.574" height="57.952" transform="matrix(0.683, -0.73, 0.73, 0.683, 104.607, 42.407)" fill="url(#g)"/></g><g clip-path="url(#h)"><rect width="55.966" height="64.816" transform="translate(77.339 16.015)" fill="url(#i)"/></g><g clip-path="url(#a)"><path d="M145.413,81.334a4.745,4.745,0,0,1-1.295-.563c-1.315-.905-4.112-3.117-4.861-4.986-.287-.72-.788-2.157-1.1-3.062-.162-.473-.273-.8-.273-.8L141,69.057s.444.345,1.076.78c1.1.757,2.777,1.784,3.659,1.713a6.116,6.116,0,0,1,2.015.177L147.2,74a.809.809,0,0,0-.481,1.073,2.369,2.369,0,0,0,.137.342,17.3,17.3,0,0,0,3.739,4.354c2.357,2.2-2.419,2.376-5.182,1.562" fill="#f8a257"/><path d="M132.081,24.61c-.659,3.049-2.345,5.263-4.569,5.552-3.316.432-6.574-3.577-7.275-8.957a14.91,14.91,0,0,1,.067-4.456c4.411,1.182,9.267,3.765,11.6,7.521a2.4,2.4,0,0,1,.173.34" fill="#f8a257"/></g><g clip-path="url(#k)"><rect width="51.08" height="60.044" transform="matrix(0.914, -0.405, 0.405, 0.914, 90.204, 30.539)" fill="url(#l)"/></g><g clip-path="url(#a)"><path d="M71.109,139.263c.171,1.625-.774,5.189-1.383,7.263a2.045,2.045,0,0,0,1.1,2.427c1.508.709,3.783,1.514,5.4.9a14.526,14.526,0,0,0,8.846,3.239,1.2,1.2,0,0,0,1-.667,1.394,1.394,0,0,0-.461-1.73c-1.861-1.31-5.954-4.362-7.706-7.039.187-2.15.436-3.645.436-3.645s-5.233-.623-7.226-.748" fill="#0b0754"/><path d="M123.187,145.866c.429,1.374.089,4.049-.163,5.579a.986.986,0,0,0,.973,1.149H139.73a.469.469,0,0,0,.466-.416,1.766,1.766,0,0,0-1.339-1.923c-2.215-.536-6.254-1.651-8.023-3.016a1.057,1.057,0,0,1-.4-.864,17.617,17.617,0,0,0-.269-3.5Z" fill="#0b0754"/><path d="M156.993,292.674C145.8,262.459,128.8,209.521,127.526,191.3s10.348-22.4,17.4-19.75,25.974,19.813,34.779,50.338C187.633,249.355,201.9,296.9,201.9,296.9Z" fill="#dad2ff"/><path d="M143.907,185.512c10.245,26.806,19.522,53.966,28.463,81.235,2.436,7.638,5.233,16.409,7.189,24.16.272,1.2.51,2.431.763,3.647l-3.338.466-.614-3.389c-1.719-7.706-4.256-16.512-6.455-24.131-7.98-27.432-17.093-55.159-26.008-81.988" fill="#eae8f7"/><path d="M191.747,345.921c3.224,3.374,6.054,6.33,8.534,8.916H125.535c-18.106-7.482-34.507-16.341-41.873-25.178-15.127-18.145-9.973-33.2,0-42.54,4.674-4.374,12.422-8.841,24.457-6.973a45.309,45.309,0,0,1,6.26,1.455c.127.038.253.08.38.118h0a61.255,61.255,0,0,1,7.3,2.848q2.1.969,4.333,2.17.805.43,1.622.894a110.124,110.124,0,0,1,9.723,6.237q.717.512,1.444,1.044,1.344.987,2.723,2.049,3.9,3,8.1,6.642,2.383,2.073,4.865,4.369,5.348,4.946,11.159,10.973c.434.45.868.9,1.3,1.362l1.148,1.206.018.018.576.607q3.747,3.942,7.12,7.48,2.613,2.74,5.007,5.255l.143.15q1.417,1.485,2.759,2.894,3.949,4.139,7.3,7.642c.113.122.23.243.346.362" fill="#c1b0ff"/><path d="M168.864,354.893c-8.153-7.8-17.1-16.175-25.831-23.284l0-.276c0-.011.207.446.208.444C130.7,321.856,114.4,309.327,98.25,307.3a45.31,45.31,0,0,0-7.375.071l.085-2.9c1.023.023,2.4-.1,3.683-.09,17.547.028,38.1,16.965,49.342,26.509,8.465,7.313,17.125,15.925,24.993,23.894l-.114.112" fill="#dcd7f2"/><path d="M232.735,354.837H186.25c-.713-1.116-1.432-2.266-2.147-3.441-3.062-5.015-6.131-10.539-9.118-16.373q-1.36-2.663-2.7-5.4-1.759-3.609-3.457-7.327c-.114-.246-.225-.491-.336-.739,0-.013-.013-.026-.018-.039q-.581-1.279-1.15-2.568c-2.32-5.237-4.521-10.573-6.544-15.885q-1.1-2.891-2.131-5.766-.83-2.318-1.608-4.615-1.139-3.379-2.157-6.694-1.2-3.915-2.206-7.692-.912-3.414-1.641-6.679c-.664-2.963-1.212-5.823-1.628-8.549-.152-1-.289-1.979-.4-2.94q-.206-1.682-.336-3.284-.1-1.167-.147-2.289c-.334-7.015.578-12.616,3.087-16.076l0,0a9.029,9.029,0,0,1,3.407-2.9c.192-.092.385-.178.582-.255l.008,0a9.564,9.564,0,0,1,2.968-.669,11.348,11.348,0,0,1,2.209.07,20.045,20.045,0,0,1,7.707,2.95,41.178,41.178,0,0,1,4.739,3.377q2.333,1.9,4.746,4.3.69.686,1.39,1.416.908.945,1.821,1.958,2.207,2.434,4.442,5.222,1.643,2.041,3.291,4.263,1.218,1.639,2.439,3.372.156.216.308.436c3.286,4.687,6.567,9.852,9.784,15.391,2.018,3.467,4.007,7.084,5.953,10.82q1.9,3.641,3.736,7.426.953,1.957,1.886,3.95,1.085,2.318,2.147,4.685,1.689,3.767,3.3,7.634,1.449,3.477,2.829,7.023,2.058,5.281,3.93,10.673.938,2.692,1.821,5.4c2.147,6.573,4.057,13.2,5.674,19.814" fill="#d6c9f4"/><path d="M210.262,354.858c-9.716-33.735-24.732-65.979-42.268-96.347-2.482-4.359-5.13-8.643-7.687-12.967l2.35-1.361c19.968,34.686,37.885,72.031,47.6,110.675" fill="#ece8f9"/><path d="M219.589,354.837H164.448c-2.165-3.54-4.583-7.348-7.187-11.355q-2.672-4.1-5.586-8.459-1.779-2.663-3.635-5.4c-2.359-3.491-4.8-7.059-7.289-10.673q-2.4-3.489-4.857-7.023c-2.607-3.756-5.243-7.534-7.875-11.3q-1.458-2.08-2.907-4.149-1.53-2.186-3.049-4.348c-2.47-3.522-4.914-7-7.3-10.41h0l-.379-.542c-2.14-3.054-4.235-6.051-6.261-8.961-13.489-19.362-24.033-35.008-25.516-40-4-13.427-4.315-29.857,8.314-26.438,2.535.687,8.751,5.126,17.2,12.277q2.958,2.5,6.261,5.434c3.5,3.108,7.267,6.56,11.218,10.3q1.038.984,2.1,1.994,1.853,1.771,3.754,3.62c3.609,3.514,7.335,7.229,11.125,11.107q2.317,2.371,4.661,4.821c.478.5.959,1,1.437,1.5q1.072,1.133,2.154,2.276.988,1.047,1.982,2.111,4.728,5.07,9.477,10.386,3.116,3.5,6.211,7.077c.072.083.147.168.217.253q1.446,1.671,2.876,3.359,2.572,3.031,5.105,6.1c.279.339.558.68.834,1.018q.961,1.172,1.91,2.344,1.314,1.628,2.614,3.263,1.128,1.418,2.241,2.842,1.313,1.678,2.6,3.359,2.52,3.282,4.938,6.578,1.79,2.433,3.516,4.867.6.834,1.181,1.672c3.588,5.118,6.96,10.224,10.042,15.267q.435.712.863,1.421,1.2,2,2.344,3.984,1.182,2.053,2.289,4.09.69,1.263,1.346,2.519c2.362,4.5,4.439,8.914,6.175,13.205" fill="#d1bbf2"/><path d="M192.941,354.876c-27.334-45.375-58.49-88.864-95.864-126.539l4.666-4.453a555.187,555.187,0,0,1,43.912,54.625c17.1,24.42,33.535,50.257,47.286,76.367" fill="#eae4f4"/><path d="M195.238,354.837H161.211c-4.935-6.3-10.138-13.161-14.954-19.814q-1.346-1.857-2.646-3.69v0q-.612-.861-1.212-1.713c-2.64-3.754-5.087-7.361-7.216-10.673-1.715-2.672-3.224-5.147-4.459-7.351a50.527,50.527,0,0,1-2.705-5.444c-.124-.3-.235-.594-.334-.87a63.746,63.746,0,0,1-2.573-8.8c-.819-4.157-.7-7.676,1.284-9.74a5.549,5.549,0,0,1,1.623-1.16c1.808-.866,4.446-1.083,8.141-.44a26.836,26.836,0,0,1,2.687.615,39.721,39.721,0,0,1,7.606,3.093,60.176,60.176,0,0,1,8.092,5.144c.114.088.23.173.344.261q1.864,1.41,3.764,3.044a94.022,94.022,0,0,1,9.844,9.913c.039.044.078.088.116.134q1.387,1.617,2.77,3.359,2.535,3.2,5.023,6.824.484.7.961,1.421c2.2,3.294,4.351,6.849,6.436,10.673.255.47.511.943.764,1.421q1.039,1.945,2.049,3.984,2.477,4.992,4.785,10.536c.024.057.047.111.07.168.034.085.07.168.1.251,1.383,3.34,2.6,6.28,3.664,8.859" fill="#d9caef"/><path d="M138.611,296.749c4.686,3.784,8.384,8.523,12.2,13.1q5.582,7,10.6,14.4c6.874,9.706,12.785,20.149,18.523,30.547l-.137.082c-6.987-9.644-13.262-19.707-20.214-29.357-6.724-9.663-13.933-19.669-20.969-28.772" fill="#e9e8f9"/><path d="M213.414,338.663v16.174H184.1v-6.356l4.367-1.462,3.1-1.042.173-.056,14.515-4.863,5.806-1.945Z" fill="#5535c3"/><path d="M213.414,331.04v7.624L184.1,348.482V331.04Z" fill="#0b0754"/><path d="M289.4,246.388v82.787a5.849,5.849,0,0,1-5.848,5.849H113.967a5.849,5.849,0,0,1-5.848-5.849V212.81a5.848,5.848,0,0,1,5.848-5.848H168.5V322.5Z" fill="#5535c3"/><path d="M289.4,212.81v33.578L168.5,322.5V206.962H283.549a5.848,5.848,0,0,1,5.848,5.848" fill="#0b0754"/><path d="M279.763,329.617H117.752a3.373,3.373,0,0,1-3.373-3.373v-110.5a3.373,3.373,0,0,1,3.373-3.373H279.763a3.373,3.373,0,0,1,3.373,3.373v110.5a3.373,3.373,0,0,1-3.373,3.373" fill="#efebf7"/><path d="M161.478,244.925a19.665,19.665,0,1,1-19.665-19.665,19.665,19.665,0,0,1,19.665,19.665" fill="#fff"/><path d="M192.717,318.945H124.694a2.631,2.631,0,0,1-2.631-2.631V274.246a2.631,2.631,0,0,1,2.631-2.631h68.023a2.631,2.631,0,0,1,2.631,2.631v42.068a2.631,2.631,0,0,1-2.631,2.631" fill="#fff"/><rect width="22.596" height="3.359" transform="translate(166.493 278.943)" fill="#c1b0ff"/><rect width="22.596" height="3.359" transform="translate(166.493 288.409)" fill="#c1b0ff"/><rect width="22.596" height="3.359" transform="translate(166.493 297.875)" fill="#c1b0ff"/><rect width="22.596" height="3.359" transform="translate(166.493 307.341)" fill="#c1b0ff"/><path d="M150.524,311.922H132.382a4.365,4.365,0,0,1-4.365-4.365v-25.47a4.365,4.365,0,0,1,4.365-4.365h18.142a4.365,4.365,0,0,1,4.365,4.365v25.47a4.365,4.365,0,0,1-4.365,4.365" fill="#c1b0ff"/><path d="M146.644,290.242a5.191,5.191,0,1,1-5.191-5.191,5.191,5.191,0,0,1,5.191,5.191" fill="#fff"/><path d="M150,304.288H132.9v-1.98a5.349,5.349,0,0,1,5.349-5.349h6.4A5.349,5.349,0,0,1,150,302.308Z" fill="#fff"/><path d="M272.11,318.945H204.087a2.631,2.631,0,0,1-2.631-2.631V274.246a2.631,2.631,0,0,1,2.631-2.631H272.11a2.631,2.631,0,0,1,2.631,2.631v42.068a2.631,2.631,0,0,1-2.631,2.631" fill="#fff"/><rect width="22.596" height="3.359" transform="translate(245.885 278.943)" fill="#c1b0ff"/><rect width="22.596" height="3.359" transform="translate(245.885 288.409)" fill="#c1b0ff"/><rect width="22.596" height="3.359" transform="translate(245.885 297.875)" fill="#c1b0ff"/><rect width="22.596" height="3.359" transform="translate(245.885 307.341)" fill="#c1b0ff"/><path d="M229.917,311.922H211.774a4.365,4.365,0,0,1-4.364-4.365v-25.47a4.365,4.365,0,0,1,4.364-4.365h18.143a4.364,4.364,0,0,1,4.364,4.365v25.47a4.364,4.364,0,0,1-4.364,4.365" fill="#c1b0ff"/><path d="M226.037,290.242a5.191,5.191,0,1,1-5.191-5.191,5.191,5.191,0,0,1,5.191,5.191" fill="#fff"/><path d="M229.4,304.288h-17.1v-1.98a5.349,5.349,0,0,1,5.349-5.349h6.4a5.349,5.349,0,0,1,5.349,5.349Z" fill="#fff"/><g style="isolation:isolate"><g clip-path="url(#n)"><path d="M273.177,235.9h-98.9a1.564,1.564,0,0,1-1.564-1.564V229.4a1.564,1.564,0,0,1,1.564-1.564h98.9a1.564,1.564,0,0,1,1.564,1.564v4.942a1.564,1.564,0,0,1-1.564,1.564" fill="#fff"/></g></g><g style="isolation:isolate"><g clip-path="url(#o)"><path d="M273.177,248.723h-98.9a1.564,1.564,0,0,1-1.564-1.564v-4.942a1.564,1.564,0,0,1,1.564-1.564h98.9a1.564,1.564,0,0,1,1.564,1.564v4.942a1.564,1.564,0,0,1-1.564,1.564" fill="#fff"/></g></g><g style="isolation:isolate"><g clip-path="url(#p)"><path d="M273.177,262.015h-98.9a1.564,1.564,0,0,1-1.564-1.564v-4.942a1.564,1.564,0,0,1,1.564-1.564h98.9a1.564,1.564,0,0,1,1.564,1.564v4.942a1.564,1.564,0,0,1-1.564,1.564" fill="#fff"/></g></g><path d="M181.731,232.107a1.9,1.9,0,1,1-1.9-1.9,1.9,1.9,0,0,1,1.9,1.9" fill="#5b31ca"/><line y1="0.237" x2="85.357" transform="translate(185.4 231.87)" fill="none" stroke="#5b31ca" stroke-miterlimit="10" stroke-width="1.423"/><path d="M181.731,244.925a1.9,1.9,0,1,1-1.9-1.9,1.9,1.9,0,0,1,1.9,1.9" fill="#5b31ca"/><line y1="0.237" x2="85.357" transform="translate(185.4 244.688)" fill="none" stroke="#5b31ca" stroke-miterlimit="10" stroke-width="1.423"/><path d="M181.731,258.217a1.9,1.9,0,1,1-1.9-1.9,1.9,1.9,0,0,1,1.9,1.9" fill="#5b31ca"/><line y1="0.237" x2="85.357" transform="translate(185.4 257.98)" fill="none" stroke="#5b31ca" stroke-miterlimit="10" stroke-width="1.423"/><path d="M141.812,261.744a16.819,16.819,0,1,1,16.819-16.819,16.838,16.838,0,0,1-16.819,16.819m0-28.561a11.742,11.742,0,1,0,11.742,11.742,11.755,11.755,0,0,0-11.742-11.742" fill="#dad2ff"/><path d="M141.812,261.744a16.712,16.712,0,0,1-11.893-4.926,2.539,2.539,0,0,1,3.59-3.591,11.743,11.743,0,1,0,10.672-19.806,2.539,2.539,0,0,1,1.018-4.974,16.821,16.821,0,0,1-3.387,33.3" fill="#5535c3"/><path d="M24.553,225.249a4.572,4.572,0,1,1-4.573-4.573,4.573,4.573,0,0,1,4.573,4.573" fill="#5535c3"/><path d="M342.187,179.716a11.159,11.159,0,1,1-11.159-11.159,11.159,11.159,0,0,1,11.159,11.159" fill="#5535c3"/><path d="M322.99,343.919a5.622,5.622,0,1,1-5.622-5.622,5.622,5.622,0,0,1,5.622,5.622" fill="#5cc5f9"/></g></svg>