<svg xmlns="http://www.w3.org/2000/svg" xmlns:xlink="http://www.w3.org/1999/xlink" width="619" height="552" viewBox="0 0 619 552"><defs><clipPath id="a"><rect width="619" height="552" fill="none"/></clipPath></defs><g clip-path="url(#a)"><path d="M1204.379,91.01v74.173c-.83.056-1.673.086-2.52.086H1070.227a47.229,47.229,0,1,1,14.592-92.157,58.167,58.167,0,0,1,107.9,18.951,36.987,36.987,0,0,1,9.142-1.138c.847,0,1.686.03,2.52.086" transform="translate(-585.379 -25.005)" fill="#dad2ff"/><path d="M135.861,158.072a24.042,24.042,0,0,1-24.04,24.04h-67a18.92,18.92,0,1,1,4.653-37.262,29.609,29.609,0,0,1,54.923-9.647,24.053,24.053,0,0,1,31.466,22.869" transform="translate(-14.82 -68.799)" fill="#dad2ff"/><path d="M629.041,592.709h-486.3a9.241,9.241,0,0,1-9.241-9.241V236.475a9.241,9.241,0,0,1,9.241-9.241h486.3a9.241,9.241,0,0,1,9.241,9.241V583.467a9.241,9.241,0,0,1-9.241,9.241" transform="translate(-76.391 -130.028)" fill="#5535c3"/><path d="M859.616,493.89H614.292a4.173,4.173,0,0,1-4.173-4.173V359.16a4.173,4.173,0,0,1,4.173-4.173H859.616a4.173,4.173,0,0,1,4.173,4.173V489.718a4.173,4.173,0,0,1-4.173,4.173" transform="translate(-349.121 -203.131)" fill="#fff"/><path d="M859.843,835.943H614.065A3.946,3.946,0,0,1,610.119,832V706a3.946,3.946,0,0,1,3.946-3.946H859.843A3.946,3.946,0,0,1,863.788,706V832a3.946,3.946,0,0,1-3.946,3.946" transform="translate(-349.121 -401.727)" fill="#fff"/><path d="M374.011,637.348H226.545a5.777,5.777,0,0,1-5.777-5.777V360.764a5.777,5.777,0,0,1,5.777-5.777H374.011a5.777,5.777,0,0,1,5.777,5.777V631.57a5.777,5.777,0,0,1-5.777,5.777" transform="translate(-126.328 -203.131)" fill="#fff"/><path d="M1125.659,1060.721h-93.1A10.559,10.559,0,0,1,1022,1050.162V994.706a10.559,10.559,0,0,1,10.559-10.558h93.1a10.558,10.558,0,0,1,10.558,10.558v55.456a10.559,10.559,0,0,1-10.558,10.559" transform="translate(-584.807 -563.148)" fill="#efebf7"/><rect width="31.656" height="4.706" transform="translate(505.21 436.4)" fill="#c1b0ff"/><rect width="31.656" height="4.706" transform="translate(505.21 449.661)" fill="#c1b0ff"/><rect width="31.656" height="4.706" transform="translate(505.21 462.922)" fill="#c1b0ff"/><rect width="31.656" height="4.706" transform="translate(505.21 476.183)" fill="#c1b0ff"/><path d="M1086.53,1064.059h-25.416a6.115,6.115,0,0,1-6.115-6.115v-35.682a6.115,6.115,0,0,1,6.115-6.115h25.416a6.115,6.115,0,0,1,6.115,6.115v35.682a6.115,6.115,0,0,1-6.115,6.115" transform="translate(-603.69 -581.459)" fill="#c1b0ff"/><path d="M1096.545,1047.42a7.272,7.272,0,1,1-7.272-7.272,7.272,7.272,0,0,1,7.272,7.272" transform="translate(-619.14 -595.193)" fill="#fff"/><path d="M1094.956,1089.415H1071v-2.773a7.493,7.493,0,0,1,7.493-7.493h8.969a7.493,7.493,0,0,1,7.493,7.493Z" transform="translate(-612.846 -617.509)" fill="#fff"/><rect width="76.573" height="9.411" transform="translate(285.544 324.92)" fill="#5535c3"/><rect width="76.573" height="9.411" transform="translate(285.544 343.742)" fill="#5535c3"/><rect width="76.573" height="9.411" transform="translate(285.544 362.565)" fill="#5535c3"/><rect width="76.573" height="9.411" transform="translate(285.544 381.387)" fill="#5535c3"/><rect width="76.573" height="9.411" transform="translate(285.544 400.209)" fill="#5535c3"/><path d="M978.845,843.338a45.345,45.345,0,1,1,45.345-45.345,45.4,45.4,0,0,1-45.345,45.345m0-77a31.656,31.656,0,1,0,31.656,31.656,31.692,31.692,0,0,0-31.656-31.656" transform="translate(-534.166 -430.68)" fill="#dad2ff"/><path d="M993.929,844.382A45.047,45.047,0,0,1,961.865,831.1a6.844,6.844,0,0,1,9.679-9.679,31.658,31.658,0,1,0,28.771-53.4,6.845,6.845,0,0,1,2.745-13.411,45.349,45.349,0,0,1-9.131,89.769" transform="translate(-549.25 -431.725)" fill="#5535c3"/><path d="M276.9,413H252.975a.855.855,0,0,1-.856-.856V386.5a.856.856,0,0,1,.856-.856H276.9a.856.856,0,0,1,.856.856v25.642a.855.855,0,0,1-.856.856" transform="translate(-144.267 -220.676)" fill="#efebf7"/><path d="M339.539,413H315.618a.855.855,0,0,1-.856-.856V386.5a.856.856,0,0,1,.856-.856h23.921a.856.856,0,0,1,.856.856v25.642a.855.855,0,0,1-.856.856" transform="translate(-180.113 -220.676)" fill="#efebf7"/><path d="M402.182,413H378.261a.855.855,0,0,1-.856-.856V386.5a.856.856,0,0,1,.856-.856h23.921a.856.856,0,0,1,.856.856v25.642a.855.855,0,0,1-.856.856" transform="translate(-215.958 -220.676)" fill="#ba97fa"/><path d="M464.824,413H440.9a.855.855,0,0,1-.856-.856V386.5a.856.856,0,0,1,.856-.856h23.921a.856.856,0,0,1,.856.856v25.642a.855.855,0,0,1-.856.856" transform="translate(-251.803 -220.676)" fill="#efebf7"/><path d="M527.467,413H503.546a.855.855,0,0,1-.856-.856V386.5a.856.856,0,0,1,.856-.856h23.921a.856.856,0,0,1,.856.856v25.642a.855.855,0,0,1-.856.856" transform="translate(-287.648 -220.676)" fill="#5535c3"/><path d="M276.714,479.851H252.793a.855.855,0,0,1-.856-.856V453.353a.856.856,0,0,1,.856-.856h23.921a.856.856,0,0,1,.856.856V479a.855.855,0,0,1-.856.856" transform="translate(-144.163 -258.928)" fill="#c1b0ff"/><path d="M339.356,479.851H315.435a.855.855,0,0,1-.856-.856V453.353a.856.856,0,0,1,.856-.856h23.922a.856.856,0,0,1,.856.856V479a.856.856,0,0,1-.856.856" transform="translate(-180.008 -258.928)" fill="#5cc5f9"/><path d="M402,479.851H378.078a.855.855,0,0,1-.856-.856V453.353a.856.856,0,0,1,.856-.856H402a.856.856,0,0,1,.856.856V479a.855.855,0,0,1-.856.856" transform="translate(-215.853 -258.928)" fill="#5535c3"/><path d="M464.642,479.851H440.721a.855.855,0,0,1-.856-.856V453.353a.856.856,0,0,1,.856-.856h23.921a.856.856,0,0,1,.856.856V479a.855.855,0,0,1-.856.856" transform="translate(-251.699 -258.928)" fill="#c1b0ff"/><path d="M527.285,479.851H503.364a.855.855,0,0,1-.856-.856V453.353a.856.856,0,0,1,.856-.856h23.921a.856.856,0,0,1,.856.856V479a.855.855,0,0,1-.856.856" transform="translate(-287.544 -258.928)" fill="#efebf7"/><path d="M276.531,546.7H252.61a.855.855,0,0,1-.856-.856V520.2a.856.856,0,0,1,.856-.856h23.921a.856.856,0,0,1,.856.856v25.642a.855.855,0,0,1-.856.856" transform="translate(-144.058 -297.18)" fill="#5535c3"/><path d="M339.174,546.7H315.253a.855.855,0,0,1-.856-.856V520.2a.856.856,0,0,1,.856-.856h23.921a.856.856,0,0,1,.856.856v25.642a.855.855,0,0,1-.856.856" transform="translate(-179.904 -297.18)" fill="#efebf7"/><path d="M401.817,546.7H377.9a.855.855,0,0,1-.856-.856V520.2a.856.856,0,0,1,.856-.856h23.921a.856.856,0,0,1,.856.856v25.642a.855.855,0,0,1-.856.856" transform="translate(-215.749 -297.18)" fill="#efebf7"/><path d="M464.459,546.7H440.538a.855.855,0,0,1-.856-.856V520.2a.856.856,0,0,1,.856-.856h23.921a.856.856,0,0,1,.856.856v25.642a.855.855,0,0,1-.856.856" transform="translate(-251.594 -297.18)" fill="#dad2ff"/><path d="M527.1,546.7H503.181a.855.855,0,0,1-.856-.856V520.2a.856.856,0,0,1,.856-.856H527.1a.856.856,0,0,1,.856.856v25.642a.855.855,0,0,1-.856.856" transform="translate(-287.44 -297.18)" fill="#c1b0ff"/><path d="M276.349,613.549H252.428a.855.855,0,0,1-.856-.856V587.051a.856.856,0,0,1,.856-.856h23.921a.856.856,0,0,1,.856.856v25.643a.855.855,0,0,1-.856.856" transform="translate(-143.954 -335.432)" fill="#efebf7"/><path d="M338.991,613.549H315.07a.855.855,0,0,1-.856-.856V587.051a.856.856,0,0,1,.856-.856h23.921a.856.856,0,0,1,.856.856v25.643a.855.855,0,0,1-.856.856" transform="translate(-179.799 -335.432)" fill="#9a5bf5"/><path d="M401.634,613.549H377.713a.855.855,0,0,1-.856-.856V587.051a.856.856,0,0,1,.856-.856h23.921a.856.856,0,0,1,.856.856v25.643a.855.855,0,0,1-.856.856" transform="translate(-215.644 -335.432)" fill="#5535c3"/><path d="M464.277,613.549H440.356a.855.855,0,0,1-.856-.856V587.051a.856.856,0,0,1,.856-.856h23.921a.856.856,0,0,1,.856.856v25.643a.855.855,0,0,1-.856.856" transform="translate(-251.49 -335.432)" fill="#efebf7"/><path d="M526.92,613.549H503a.855.855,0,0,1-.856-.856V587.051A.856.856,0,0,1,503,586.2H526.92a.856.856,0,0,1,.856.856v25.643a.855.855,0,0,1-.856.856" transform="translate(-287.335 -335.432)" fill="#efebf7"/><path d="M276.166,680.4H252.245a.855.855,0,0,1-.856-.856V653.9a.856.856,0,0,1,.856-.856h23.921a.856.856,0,0,1,.856.856v25.643a.855.855,0,0,1-.856.856" transform="translate(-143.849 -373.685)" fill="#c1b0ff"/><path d="M338.809,680.4H314.888a.855.855,0,0,1-.856-.856V653.9a.856.856,0,0,1,.856-.856h23.921a.856.856,0,0,1,.856.856v25.643a.855.855,0,0,1-.856.856" transform="translate(-179.695 -373.685)" fill="#ba97fa"/><path d="M401.452,680.4H377.531a.855.855,0,0,1-.856-.856V653.9a.856.856,0,0,1,.856-.856h23.921a.856.856,0,0,1,.856.856v25.643a.855.855,0,0,1-.856.856" transform="translate(-215.54 -373.685)" fill="#efebf7"/><path d="M464.094,680.4H440.173a.855.855,0,0,1-.856-.856V653.9a.856.856,0,0,1,.856-.856h23.921a.856.856,0,0,1,.856.856v25.643a.855.855,0,0,1-.856.856" transform="translate(-251.385 -373.685)" fill="#5535c3"/><path d="M526.737,680.4H502.816a.855.855,0,0,1-.856-.856V653.9a.856.856,0,0,1,.856-.856h23.921a.856.856,0,0,1,.856.856v25.643a.855.855,0,0,1-.856.856" transform="translate(-287.231 -373.685)" fill="#dad2ff"/><path d="M275.984,747.248H252.063a.855.855,0,0,1-.856-.856V720.75a.856.856,0,0,1,.856-.856h23.921a.856.856,0,0,1,.856.856v25.643a.855.855,0,0,1-.856.856" transform="translate(-143.745 -411.937)" fill="#5cc5f9"/><path d="M338.626,747.248H314.7a.855.855,0,0,1-.856-.856V720.75a.856.856,0,0,1,.856-.856h23.921a.856.856,0,0,1,.856.856v25.643a.855.855,0,0,1-.856.856" transform="translate(-179.59 -411.937)" fill="#dad2ff"/><path d="M401.269,747.248H377.348a.855.855,0,0,1-.856-.856V720.75a.856.856,0,0,1,.856-.856h23.921a.856.856,0,0,1,.856.856v25.643a.855.855,0,0,1-.856.856" transform="translate(-215.436 -411.937)" fill="#9a5bf5"/><path d="M463.912,747.248H439.991a.855.855,0,0,1-.856-.856V720.75a.856.856,0,0,1,.856-.856h23.921a.856.856,0,0,1,.856.856v25.643a.855.855,0,0,1-.856.856" transform="translate(-251.281 -411.937)" fill="#efebf7"/><path d="M526.554,747.248H502.633a.855.855,0,0,1-.856-.856V720.75a.856.856,0,0,1,.856-.856h23.921a.856.856,0,0,1,.856.856v25.643a.855.855,0,0,1-.856.856" transform="translate(-287.126 -411.937)" fill="#efebf7"/><path d="M275.8,814.1H251.88a.855.855,0,0,1-.856-.856V787.6a.856.856,0,0,1,.856-.856H275.8a.856.856,0,0,1,.856.856v25.642a.855.855,0,0,1-.856.856" transform="translate(-143.641 -450.19)" fill="#9a5bf5"/><path d="M338.444,814.1H314.523a.855.855,0,0,1-.856-.856V787.6a.856.856,0,0,1,.856-.856h23.921a.856.856,0,0,1,.856.856v25.642a.855.855,0,0,1-.856.856" transform="translate(-179.486 -450.19)" fill="#ba97fa"/><path d="M401.086,814.1H377.165a.855.855,0,0,1-.856-.856V787.6a.856.856,0,0,1,.856-.856h23.921a.856.856,0,0,1,.856.856v25.642a.855.855,0,0,1-.856.856" transform="translate(-215.331 -450.19)" fill="#efebf7"/><path d="M463.729,814.1H439.808a.855.855,0,0,1-.856-.856V787.6a.856.856,0,0,1,.856-.856h23.921a.856.856,0,0,1,.856.856v25.642a.855.855,0,0,1-.856.856" transform="translate(-251.176 -450.19)" fill="#ba97fa"/><path d="M526.372,814.1H502.451a.855.855,0,0,1-.856-.856V787.6a.856.856,0,0,1,.856-.856h23.921a.856.856,0,0,1,.856.856v25.642a.855.855,0,0,1-.856.856" transform="translate(-287.022 -450.19)" fill="#5cc5f9"/><path d="M275.619,880.946H251.7a.855.855,0,0,1-.856-.856V854.448a.856.856,0,0,1,.856-.856h23.921a.856.856,0,0,1,.856.856V880.09a.855.855,0,0,1-.856.856" transform="translate(-143.536 -488.442)" fill="#efebf7"/><path d="M338.261,880.946H314.34a.855.855,0,0,1-.856-.856V854.448a.856.856,0,0,1,.856-.856h23.921a.856.856,0,0,1,.856.856V880.09a.855.855,0,0,1-.856.856" transform="translate(-179.381 -488.442)" fill="#9a5bf5"/><path d="M400.9,880.946H376.983a.855.855,0,0,1-.856-.856V854.448a.856.856,0,0,1,.856-.856H400.9a.856.856,0,0,1,.856.856V880.09a.855.855,0,0,1-.856.856" transform="translate(-215.227 -488.442)" fill="#9a5bf5"/><path d="M463.547,880.946H439.626a.855.855,0,0,1-.856-.856V854.448a.856.856,0,0,1,.856-.856h23.921a.856.856,0,0,1,.856.856V880.09a.855.855,0,0,1-.856.856" transform="translate(-251.072 -488.442)" fill="#5535c3"/><path d="M526.189,880.946H502.268a.855.855,0,0,1-.856-.856V854.448a.856.856,0,0,1,.856-.856h23.921a.856.856,0,0,1,.856.856V880.09a.855.855,0,0,1-.856.856" transform="translate(-286.917 -488.442)" fill="#dad2ff"/><path d="M275.436,947.795H251.515a.855.855,0,0,1-.856-.856V921.3a.856.856,0,0,1,.856-.856h23.921a.856.856,0,0,1,.856.856v25.642a.855.855,0,0,1-.856.856" transform="translate(-143.432 -526.694)" fill="#5535c3"/><path d="M338.079,947.795H314.158a.855.855,0,0,1-.856-.856V921.3a.856.856,0,0,1,.856-.856h23.921a.856.856,0,0,1,.856.856v25.642a.855.855,0,0,1-.856.856" transform="translate(-179.277 -526.694)" fill="#5cc5f9"/><path d="M400.721,947.795H376.8a.855.855,0,0,1-.856-.856V921.3a.856.856,0,0,1,.856-.856h23.921a.856.856,0,0,1,.856.856v25.642a.855.855,0,0,1-.856.856" transform="translate(-215.122 -526.694)" fill="#efebf7"/><path d="M463.364,947.795H439.443a.855.855,0,0,1-.856-.856V921.3a.856.856,0,0,1,.856-.856h23.921a.856.856,0,0,1,.856.856v25.642a.855.855,0,0,1-.856.856" transform="translate(-250.968 -526.694)" fill="#dad2ff"/><path d="M526.007,947.795H502.086a.855.855,0,0,1-.856-.856V921.3a.856.856,0,0,1,.856-.856h23.921a.856.856,0,0,1,.856.856v25.642a.855.855,0,0,1-.856.856" transform="translate(-286.813 -526.694)" fill="#ba97fa"/><rect width="14.545" height="112.934" transform="translate(279.604 164.841)" fill="#dad2ff"/><rect width="14.545" height="112.934" transform="translate(304.843 164.841)" fill="#dad2ff"/><rect width="14.545" height="112.934" transform="translate(330.082 164.841)" fill="#dad2ff"/><rect width="14.545" height="112.934" transform="translate(355.321 164.841)" fill="#dad2ff"/><rect width="14.545" height="112.934" transform="translate(380.56 164.841)" fill="#dad2ff"/><rect width="14.545" height="112.934" transform="translate(405.799 164.841)" fill="#dad2ff"/><rect width="14.545" height="112.934" transform="translate(431.038 164.841)" fill="#dad2ff"/><rect width="14.545" height="112.934" transform="translate(456.277 164.841)" fill="#dad2ff"/><rect width="14.545" height="112.934" transform="translate(481.517 164.841)" fill="#dad2ff"/><rect width="14.545" height="44.785" transform="translate(279.604 232.99)" fill="#5535c3"/><rect width="14.545" height="91.414" transform="translate(304.843 186.361)" fill="#5535c3"/><rect width="14.545" height="28.102" transform="translate(330.082 249.673)" fill="#5cc5f9"/><rect width="14.545" height="73.447" transform="translate(355.321 204.328)" fill="#5535c3"/><rect width="14.545" height="88.847" transform="translate(380.56 188.928)" fill="#5535c3"/><rect width="14.545" height="52.913" transform="translate(405.799 224.862)" fill="#5535c3"/><rect width="14.545" height="95.264" transform="translate(431.038 182.511)" fill="#5535c3"/><rect width="14.545" height="61.469" transform="translate(456.277 216.306)" fill="#5cc5f9"/><rect width="14.545" height="38.796" transform="translate(481.517 238.979)" fill="#5535c3"/><path d="M827.406,1146.09a6.2,6.2,0,1,1-6.2-6.2,6.2,6.2,0,0,1,6.2,6.2" transform="translate(-466.358 -652.265)" fill="#5cc5f9"/><path d="M640.95,81.362a13.475,13.475,0,1,1-13.475-13.475A13.475,13.475,0,0,1,640.95,81.362" transform="translate(-351.342 -38.847)" fill="#5535c3"/><path d="M108.384,1124.079a12.192,12.192,0,1,1-12.192-12.192,12.192,12.192,0,0,1,12.192,12.192" transform="translate(-48.066 -636.243)" fill="#efebf7"/></g></svg>