<svg xmlns="http://www.w3.org/2000/svg" width="275.767" height="203.342" viewBox="0 0 275.767 203.342"><g transform="translate(-63 -3697.708)"><path d="M47.573,72.174a10.4,10.4,0,0,1-10.4,10.4H8.186A8.186,8.186,0,1,1,10.2,66.454,12.81,12.81,0,0,1,33.96,62.28a10.406,10.406,0,0,1,13.613,9.894" transform="translate(63 3652.233)" fill="#dad2ff"/><path d="M1036.1,28.909a18.369,18.369,0,0,0,18.367,18.367h51.19a14.456,14.456,0,1,0-3.554-28.469,22.622,22.622,0,0,0-41.962-7.371A18.377,18.377,0,0,0,1036.1,28.909" transform="translate(-781.348 3697.711)" fill="#dad2ff"/><path d="M321.987,320.922H111.6a4,4,0,0,1-4-4V166.8a4,4,0,0,1,4-4H321.987a4,4,0,0,1,4,4v150.12a4,4,0,0,1-4,4" transform="translate(-24.688 3565.034)" fill="#5535c3"/><path d="M692.16,350.653H586.025a1.805,1.805,0,0,1-1.805-1.805V292.364a1.805,1.805,0,0,1,1.805-1.805H692.16a1.805,1.805,0,0,1,1.805,1.805v56.484a1.805,1.805,0,0,1-1.805,1.805" transform="translate(-413.098 3460.924)" fill="#fff"/><path d="M692.258,695.549H585.927a1.707,1.707,0,0,1-1.707-1.707V639.329a1.707,1.707,0,0,1,1.707-1.707H692.258a1.707,1.707,0,0,1,1.707,1.707v54.512a1.707,1.707,0,0,1-1.707,1.707" transform="translate(-413.098 3178.093)" fill="#fff"/><path d="M261.167,412.717h-63.8a2.5,2.5,0,0,1-2.5-2.5V293.058a2.5,2.5,0,0,1,2.5-2.5h63.8a2.5,2.5,0,0,1,2.5,2.5V410.218a2.5,2.5,0,0,1-2.5,2.5" transform="translate(-95.805 3460.924)" fill="#fff"/><path d="M1040.947,952.848h-40.278a4.568,4.568,0,0,1-4.568-4.568V924.288a4.568,4.568,0,0,1,4.568-4.568h40.278a4.568,4.568,0,0,1,4.568,4.568V948.28a4.568,4.568,0,0,1-4.568,4.568" transform="translate(-748.751 2948.203)" fill="#efebf7"/><rect width="13.695" height="2.036" transform="translate(276.776 3874.585)" fill="#c1b0ff"/><rect width="13.695" height="2.036" transform="translate(276.776 3880.323)" fill="#c1b0ff"/><rect width="13.695" height="2.036" transform="translate(276.776 3886.06)" fill="#c1b0ff"/><rect width="13.695" height="2.036" transform="translate(276.776 3891.797)" fill="#c1b0ff"/><path d="M1042.742,972.448h-11a2.645,2.645,0,0,1-2.645-2.645V954.365a2.645,2.645,0,0,1,2.645-2.645h11a2.646,2.646,0,0,1,2.645,2.645V969.8a2.645,2.645,0,0,1-2.645,2.645" transform="translate(-775.644 2922.125)" fill="#c1b0ff"/><path d="M1062.393,978.866a3.146,3.146,0,1,1-3.146-3.146,3.146,3.146,0,0,1,3.146,3.146" transform="translate(-797.646 2902.567)" fill="#fff"/><path d="M1055.465,1019.162H1045.1v-1.2a3.242,3.242,0,0,1,3.242-3.242h3.88a3.242,3.242,0,0,1,3.242,3.242Z" transform="translate(-788.683 2870.785)" fill="#fff"/><rect width="33.128" height="4.072" transform="translate(181.742 3826.356)" fill="#5535c3"/><rect width="33.128" height="4.072" transform="translate(181.742 3834.499)" fill="#5535c3"/><rect width="33.128" height="4.072" transform="translate(181.742 3842.642)" fill="#5535c3"/><rect width="33.128" height="4.072" transform="translate(181.742 3850.785)" fill="#5535c3"/><rect width="33.128" height="4.072" transform="translate(181.742 3858.928)" fill="#5535c3"/><path d="M927.219,727.455a19.618,19.618,0,1,1,19.618-19.618,19.64,19.64,0,0,1-19.618,19.618m0-33.313a13.7,13.7,0,1,0,13.7,13.7,13.711,13.711,0,0,0-13.7-13.7" transform="translate(-676.63 3136.859)" fill="#dad2ff"/><path d="M948.7,728.943a19.489,19.489,0,0,1-13.872-5.746,2.961,2.961,0,0,1,4.188-4.188,13.7,13.7,0,1,0,12.447-23.1,2.961,2.961,0,0,1,1.187-5.8,19.619,19.619,0,0,1-3.951,38.837" transform="translate(-698.111 3135.371)" fill="#5535c3"/><path d="M236.939,333.054H226.59a.37.37,0,0,1-.37-.37V321.59a.37.37,0,0,1,.37-.37h10.349a.37.37,0,0,1,.37.37v11.094a.37.37,0,0,1-.37.37" transform="translate(-121.354 3435.938)" fill="#efebf7"/><path d="M299.582,333.054H289.233a.37.37,0,0,1-.37-.37V321.59a.37.37,0,0,1,.37-.37h10.349a.37.37,0,0,1,.37.37v11.094a.37.37,0,0,1-.37.37" transform="translate(-172.402 3435.938)" fill="#efebf7"/><path d="M362.225,333.054H351.876a.37.37,0,0,1-.37-.37V321.59a.37.37,0,0,1,.37-.37h10.349a.37.37,0,0,1,.37.37v11.094a.37.37,0,0,1-.37.37" transform="translate(-223.452 3435.938)" fill="#ba97fa"/><path d="M424.867,333.054H414.518a.37.37,0,0,1-.37-.37V321.59a.37.37,0,0,1,.37-.37h10.349a.37.37,0,0,1,.37.37v11.094a.37.37,0,0,1-.37.37" transform="translate(-274.501 3435.938)" fill="#efebf7"/><path d="M487.51,333.054H477.161a.37.37,0,0,1-.37-.37V321.59a.37.37,0,0,1,.37-.37H487.51a.37.37,0,0,1,.37.37v11.094a.37.37,0,0,1-.37.37" transform="translate(-325.551 3435.938)" fill="#5535c3"/><path d="M236.757,399.9H226.408a.37.37,0,0,1-.37-.37V388.439a.37.37,0,0,1,.37-.37h10.349a.37.37,0,0,1,.37.37v11.094a.37.37,0,0,1-.37.37" transform="translate(-121.205 3381.46)" fill="#c1b0ff"/><path d="M299.4,399.9H289.05a.37.37,0,0,1-.37-.37V388.439a.37.37,0,0,1,.37-.37H299.4a.37.37,0,0,1,.37.37v11.094a.37.37,0,0,1-.37.37" transform="translate(-172.254 3381.46)" fill="#5cc5f9"/><path d="M362.042,399.9H351.693a.37.37,0,0,1-.37-.37V388.439a.37.37,0,0,1,.37-.37h10.349a.37.37,0,0,1,.37.37v11.094a.37.37,0,0,1-.37.37" transform="translate(-223.303 3381.46)" fill="#5535c3"/><path d="M424.685,399.9H414.336a.37.37,0,0,1-.37-.37V388.439a.37.37,0,0,1,.37-.37h10.349a.37.37,0,0,1,.37.37v11.094a.37.37,0,0,1-.37.37" transform="translate(-274.353 3381.46)" fill="#c1b0ff"/><path d="M487.328,399.9H476.979a.37.37,0,0,1-.37-.37V388.439a.37.37,0,0,1,.37-.37h10.349a.37.37,0,0,1,.37.37v11.094a.37.37,0,0,1-.37.37" transform="translate(-325.402 3381.46)" fill="#efebf7"/><path d="M236.574,466.752H226.225a.37.37,0,0,1-.37-.37V455.288a.37.37,0,0,1,.37-.37h10.349a.37.37,0,0,1,.37.37v11.094a.37.37,0,0,1-.37.37" transform="translate(-121.056 3326.983)" fill="#5535c3"/><path d="M299.217,466.752H288.868a.37.37,0,0,1-.37-.37V455.288a.37.37,0,0,1,.37-.37h10.349a.37.37,0,0,1,.37.37v11.094a.37.37,0,0,1-.37.37" transform="translate(-172.105 3326.983)" fill="#efebf7"/><path d="M361.86,466.752H351.511a.37.37,0,0,1-.37-.37V455.288a.37.37,0,0,1,.37-.37H361.86a.37.37,0,0,1,.37.37v11.094a.37.37,0,0,1-.37.37" transform="translate(-223.154 3326.983)" fill="#efebf7"/><path d="M424.5,466.752H414.153a.37.37,0,0,1-.37-.37V455.288a.37.37,0,0,1,.37-.37H424.5a.37.37,0,0,1,.37.37v11.094a.37.37,0,0,1-.37.37" transform="translate(-274.203 3326.983)" fill="#dad2ff"/><path d="M487.145,466.752H476.8a.37.37,0,0,1-.37-.37V455.288a.37.37,0,0,1,.37-.37h10.349a.37.37,0,0,1,.37.37v11.094a.37.37,0,0,1-.37.37" transform="translate(-325.253 3326.983)" fill="#c1b0ff"/><path d="M236.392,533.6H226.043a.37.37,0,0,1-.37-.37V522.137a.37.37,0,0,1,.37-.37h10.349a.37.37,0,0,1,.37.37v11.094a.37.37,0,0,1-.37.37" transform="translate(-120.907 3272.506)" fill="#efebf7"/><path d="M299.034,533.6H288.685a.37.37,0,0,1-.37-.37V522.137a.37.37,0,0,1,.37-.37h10.349a.37.37,0,0,1,.37.37v11.094a.37.37,0,0,1-.37.37" transform="translate(-171.956 3272.506)" fill="#9a5bf5"/><path d="M361.677,533.6H351.328a.37.37,0,0,1-.37-.37V522.137a.37.37,0,0,1,.37-.37h10.349a.37.37,0,0,1,.37.37v11.094a.37.37,0,0,1-.37.37" transform="translate(-223.006 3272.506)" fill="#5535c3"/><path d="M424.32,533.6H413.971a.37.37,0,0,1-.37-.37V522.137a.37.37,0,0,1,.37-.37H424.32a.37.37,0,0,1,.37.37v11.094a.37.37,0,0,1-.37.37" transform="translate(-274.056 3272.506)" fill="#efebf7"/><path d="M486.962,533.6H476.613a.37.37,0,0,1-.37-.37V522.137a.37.37,0,0,1,.37-.37h10.349a.37.37,0,0,1,.37.37v11.094a.37.37,0,0,1-.37.37" transform="translate(-325.104 3272.506)" fill="#efebf7"/><path d="M236.209,600.451H225.86a.37.37,0,0,1-.37-.37V588.987a.37.37,0,0,1,.37-.37h10.349a.37.37,0,0,1,.37.37v11.094a.37.37,0,0,1-.37.37" transform="translate(-120.758 3218.028)" fill="#c1b0ff"/><path d="M298.852,600.451H288.5a.37.37,0,0,1-.37-.37V588.987a.37.37,0,0,1,.37-.37h10.349a.37.37,0,0,1,.37.37v11.094a.37.37,0,0,1-.37.37" transform="translate(-171.808 3218.028)" fill="#ba97fa"/><path d="M361.494,600.451H351.145a.37.37,0,0,1-.37-.37V588.987a.37.37,0,0,1,.37-.37h10.349a.37.37,0,0,1,.37.37v11.094a.37.37,0,0,1-.37.37" transform="translate(-222.856 3218.028)" fill="#efebf7"/><path d="M424.137,600.451H413.788a.37.37,0,0,1-.37-.37V588.987a.37.37,0,0,1,.37-.37h10.349a.37.37,0,0,1,.37.37v11.094a.37.37,0,0,1-.37.37" transform="translate(-273.906 3218.028)" fill="#5535c3"/><path d="M486.78,600.451H476.431a.37.37,0,0,1-.37-.37V588.987a.37.37,0,0,1,.37-.37H486.78a.37.37,0,0,1,.37.37v11.094a.37.37,0,0,1-.37.37" transform="translate(-324.956 3218.028)" fill="#dad2ff"/><path d="M236.026,667.3H225.677a.37.37,0,0,1-.37-.37V655.836a.37.37,0,0,1,.37-.37h10.349a.37.37,0,0,1,.37.37V666.93a.37.37,0,0,1-.37.37" transform="translate(-120.609 3163.551)" fill="#5cc5f9"/><path d="M298.669,667.3H288.32a.37.37,0,0,1-.37-.37V655.836a.37.37,0,0,1,.37-.37h10.349a.37.37,0,0,1,.37.37V666.93a.37.37,0,0,1-.37.37" transform="translate(-171.658 3163.551)" fill="#dad2ff"/><path d="M361.312,667.3H350.963a.37.37,0,0,1-.37-.37V655.836a.37.37,0,0,1,.37-.37h10.349a.37.37,0,0,1,.37.37V666.93a.37.37,0,0,1-.37.37" transform="translate(-222.708 3163.551)" fill="#9a5bf5"/><path d="M423.955,667.3H413.606a.37.37,0,0,1-.37-.37V655.836a.37.37,0,0,1,.37-.37h10.349a.37.37,0,0,1,.37.37V666.93a.37.37,0,0,1-.37.37" transform="translate(-273.758 3163.551)" fill="#efebf7"/><path d="M486.6,667.3H476.248a.37.37,0,0,1-.37-.37V655.836a.37.37,0,0,1,.37-.37H486.6a.37.37,0,0,1,.37.37V666.93a.37.37,0,0,1-.37.37" transform="translate(-324.807 3163.551)" fill="#efebf7"/><path d="M235.844,734.149H225.5a.37.37,0,0,1-.37-.37V722.685a.37.37,0,0,1,.37-.37h10.349a.37.37,0,0,1,.37.37v11.094a.37.37,0,0,1-.37.37" transform="translate(-120.461 3109.074)" fill="#9a5bf5"/><path d="M298.487,734.149H288.138a.37.37,0,0,1-.37-.37V722.685a.37.37,0,0,1,.37-.37h10.349a.37.37,0,0,1,.37.37v11.094a.37.37,0,0,1-.37.37" transform="translate(-171.511 3109.074)" fill="#ba97fa"/><path d="M361.129,734.149H350.78a.37.37,0,0,1-.37-.37V722.685a.37.37,0,0,1,.37-.37h10.349a.37.37,0,0,1,.37.37v11.094a.37.37,0,0,1-.37.37" transform="translate(-222.559 3109.074)" fill="#efebf7"/><path d="M423.772,734.149H413.423a.37.37,0,0,1-.37-.37V722.685a.37.37,0,0,1,.37-.37h10.349a.37.37,0,0,1,.37.37v11.094a.37.37,0,0,1-.37.37" transform="translate(-273.608 3109.074)" fill="#ba97fa"/><path d="M486.415,734.149H476.066a.37.37,0,0,1-.37-.37V722.685a.37.37,0,0,1,.37-.37h10.349a.37.37,0,0,1,.37.37v11.094a.37.37,0,0,1-.37.37" transform="translate(-324.658 3109.074)" fill="#5cc5f9"/><path d="M235.662,801H225.313a.37.37,0,0,1-.37-.37V789.534a.37.37,0,0,1,.37-.37h10.349a.37.37,0,0,1,.37.37v11.094a.37.37,0,0,1-.37.37" transform="translate(-120.313 3054.597)" fill="#efebf7"/><path d="M298.3,801H287.955a.37.37,0,0,1-.37-.37V789.534a.37.37,0,0,1,.37-.37H298.3a.37.37,0,0,1,.37.37v11.094a.37.37,0,0,1-.37.37" transform="translate(-171.361 3054.597)" fill="#9a5bf5"/><path d="M360.947,801H350.6a.37.37,0,0,1-.37-.37V789.534a.37.37,0,0,1,.37-.37h10.349a.37.37,0,0,1,.37.37v11.094a.37.37,0,0,1-.37.37" transform="translate(-222.411 3054.597)" fill="#9a5bf5"/><path d="M423.59,801H413.241a.37.37,0,0,1-.37-.37V789.534a.37.37,0,0,1,.37-.37H423.59a.37.37,0,0,1,.37.37v11.094a.37.37,0,0,1-.37.37" transform="translate(-273.46 3054.597)" fill="#5535c3"/><path d="M486.232,801H475.883a.37.37,0,0,1-.37-.37V789.534a.37.37,0,0,1,.37-.37h10.349a.37.37,0,0,1,.37.37v11.094a.37.37,0,0,1-.37.37" transform="translate(-324.509 3054.597)" fill="#dad2ff"/><path d="M235.479,867.848H225.13a.37.37,0,0,1-.37-.37V856.384a.37.37,0,0,1,.37-.37h10.349a.37.37,0,0,1,.37.37v11.094a.37.37,0,0,1-.37.37" transform="translate(-120.163 3000.119)" fill="#5535c3"/><path d="M298.122,867.848H287.773a.37.37,0,0,1-.37-.37V856.384a.37.37,0,0,1,.37-.37h10.349a.37.37,0,0,1,.37.37v11.094a.37.37,0,0,1-.37.37" transform="translate(-171.213 3000.119)" fill="#5cc5f9"/><path d="M360.764,867.848H350.415a.37.37,0,0,1-.37-.37V856.384a.37.37,0,0,1,.37-.37h10.349a.37.37,0,0,1,.37.37v11.094a.37.37,0,0,1-.37.37" transform="translate(-222.262 3000.119)" fill="#efebf7"/><path d="M423.407,867.848H413.058a.37.37,0,0,1-.37-.37V856.384a.37.37,0,0,1,.37-.37h10.349a.37.37,0,0,1,.37.37v11.094a.37.37,0,0,1-.37.37" transform="translate(-273.312 3000.119)" fill="#dad2ff"/><path d="M486.05,867.848H475.7a.37.37,0,0,1-.37-.37V856.384a.37.37,0,0,1,.37-.37H486.05a.37.37,0,0,1,.37.37v11.094a.37.37,0,0,1-.37.37" transform="translate(-324.36 3000.119)" fill="#ba97fa"/><rect width="6.292" height="48.859" transform="translate(179.172 3757.101)" fill="#dad2ff"/><rect width="6.292" height="48.859" transform="translate(190.091 3757.101)" fill="#dad2ff"/><rect width="6.292" height="48.859" transform="translate(201.011 3757.101)" fill="#dad2ff"/><rect width="6.292" height="48.859" transform="translate(211.93 3757.101)" fill="#dad2ff"/><rect width="6.292" height="48.859" transform="translate(222.849 3757.101)" fill="#dad2ff"/><rect width="6.292" height="48.859" transform="translate(233.769 3757.101)" fill="#dad2ff"/><rect width="6.292" height="48.859" transform="translate(244.688 3757.101)" fill="#dad2ff"/><rect width="6.292" height="48.859" transform="translate(255.606 3757.101)" fill="#dad2ff"/><rect width="6.292" height="48.859" transform="translate(266.525 3757.101)" fill="#dad2ff"/><rect width="6.292" height="19.376" transform="translate(179.172 3786.584)" fill="#5535c3"/><rect width="6.292" height="39.548" transform="translate(190.091 3766.411)" fill="#5535c3"/><rect width="6.292" height="12.158" transform="translate(201.011 3793.802)" fill="#5cc5f9"/><rect width="6.292" height="31.775" transform="translate(211.93 3774.184)" fill="#5535c3"/><rect width="6.292" height="38.438" transform="translate(222.849 3767.521)" fill="#5535c3"/><rect width="6.292" height="22.892" transform="translate(233.769 3783.068)" fill="#5535c3"/><rect width="6.292" height="41.214" transform="translate(244.688 3764.746)" fill="#5535c3"/><rect width="6.292" height="26.593" transform="translate(255.606 3779.366)" fill="#5cc5f9"/><rect width="6.292" height="16.785" transform="translate(266.525 3789.175)" fill="#5535c3"/><path d="M1613.468,609.143a2.684,2.684,0,1,1-2.684-2.684,2.684,2.684,0,0,1,2.684,2.684" transform="translate(-1279.487 3203.488)" fill="#5cc5f9"/><path d="M599.76,9.289a5.83,5.83,0,1,1-5.83-5.83,5.83,5.83,0,0,1,5.83,5.83" transform="translate(-416.26 3694.89)" fill="#5535c3"/></g></svg>