<svg xmlns="http://www.w3.org/2000/svg" xmlns:xlink="http://www.w3.org/1999/xlink" width="299.511" height="272.208" viewBox="0 0 299.511 272.208"><defs><clipPath id="a"><rect width="299.511" height="272.208" fill="none"/></clipPath><clipPath id="b"><rect width="39.059" height="58.359" transform="translate(85.939 98.955)" fill="none"/></clipPath><clipPath id="c"><rect width="58.819" height="7.812" transform="translate(129.134 98.955)" fill="none"/></clipPath><clipPath id="d"><rect width="58.819" height="7.812" transform="translate(129.134 111.362)" fill="none"/></clipPath><clipPath id="e"><rect width="58.819" height="7.812" transform="translate(129.134 124.228)" fill="none"/></clipPath><clipPath id="f"><rect width="58.819" height="7.812" transform="translate(129.134 138.014)" fill="none"/></clipPath><clipPath id="g"><rect width="52.883" height="39.447" transform="translate(30.52 33.903)" fill="none"/></clipPath><clipPath id="h"><rect width="25.13" height="14.799" transform="translate(165.868 25.74)" fill="none"/></clipPath><clipPath id="i"><rect width="3.022" height="4.317" transform="translate(177.473 40.794)" fill="none"/></clipPath><clipPath id="j"><rect width="14.924" height="14.924" transform="translate(181.434 185.316)" fill="none"/></clipPath><clipPath id="k"><rect width="20.668" height="20.802" transform="translate(162.372 187.577)" fill="none"/></clipPath><clipPath id="l"><rect width="4.52" height="4.52" transform="translate(115.517 174.676)" fill="none"/></clipPath><clipPath id="m"><rect width="18.354" height="15.652" transform="translate(179.656 142.831)" fill="none"/></clipPath></defs><g clip-path="url(#a)"><path d="M61.469,229.842c-.025,0-.043-.006-.068-.006v-.019a.374.374,0,0,1,.068.025" fill="#d8d0fa"/><path d="M191,164.666H82.894a2.468,2.468,0,0,1-2.469-2.468V92.8a2.468,2.468,0,0,1,2.469-2.468H191a2.468,2.468,0,0,1,2.468,2.468v69.4A2.468,2.468,0,0,1,191,164.666" fill="#ede9f5"/><g style="isolation:isolate"><g clip-path="url(#b)"><path d="M120.1,157.314H90.836a4.9,4.9,0,0,1-4.9-4.9V103.851a4.9,4.9,0,0,1,4.9-4.9H120.1a4.9,4.9,0,0,1,4.9,4.9v48.567a4.9,4.9,0,0,1-4.9,4.9" fill="#fff"/></g></g><g style="isolation:isolate"><g clip-path="url(#c)"><path d="M186.785,106.767H130.3a1.168,1.168,0,0,1-1.168-1.168v-5.476a1.168,1.168,0,0,1,1.168-1.168h56.482a1.168,1.168,0,0,1,1.168,1.168V105.6a1.168,1.168,0,0,1-1.168,1.168" fill="#fff"/></g></g><g style="isolation:isolate"><g clip-path="url(#d)"><path d="M186.785,119.174H130.3a1.168,1.168,0,0,1-1.168-1.168V112.53a1.168,1.168,0,0,1,1.168-1.168h56.482a1.168,1.168,0,0,1,1.168,1.168v5.476a1.168,1.168,0,0,1-1.168,1.168" fill="#fff"/></g></g><g style="isolation:isolate"><g clip-path="url(#e)"><path d="M186.785,132.04H130.3a1.168,1.168,0,0,1-1.168-1.168V125.4a1.168,1.168,0,0,1,1.168-1.168h56.482a1.168,1.168,0,0,1,1.168,1.168v5.476a1.168,1.168,0,0,1-1.168,1.168" fill="#fff"/></g></g><g style="isolation:isolate"><g clip-path="url(#f)"><path d="M186.785,145.826H130.3a1.168,1.168,0,0,1-1.168-1.168v-5.476a1.168,1.168,0,0,1,1.168-1.168h56.482a1.168,1.168,0,0,1,1.168,1.168v5.476a1.168,1.168,0,0,1-1.168,1.168" fill="#fff"/></g></g><path d="M137.865,103.09a1.838,1.838,0,1,1-1.838-1.838,1.838,1.838,0,0,1,1.838,1.838" fill="#5b31ca"/><line y1="0.23" x2="40.376" transform="translate(141.417 102.86)" fill="none" stroke="#5b31ca" stroke-miterlimit="10" stroke-width="0.931"/><path d="M137.865,115.5a1.838,1.838,0,1,1-1.838-1.838,1.838,1.838,0,0,1,1.838,1.838" fill="#5b31ca"/><line y1="0.23" x2="40.376" transform="translate(141.417 115.268)" fill="none" stroke="#5b31ca" stroke-miterlimit="10" stroke-width="0.931"/><path d="M137.865,128.364a1.838,1.838,0,1,1-1.838-1.838,1.838,1.838,0,0,1,1.838,1.838" fill="#5b31ca"/><line y1="0.23" x2="40.376" transform="translate(141.417 128.134)" fill="none" stroke="#5b31ca" stroke-miterlimit="10" stroke-width="0.931"/><path d="M137.865,142.15a1.838,1.838,0,1,1-1.838-1.838,1.838,1.838,0,0,1,1.838,1.838" fill="#5b31ca"/><line y1="0.23" x2="40.376" transform="translate(141.417 141.92)" fill="none" stroke="#5b31ca" stroke-miterlimit="10" stroke-width="0.931"/><path d="M116.268,139.552H92.831V124.847l10.8-10.544a1.219,1.219,0,0,1,1.677-.024l10.957,10.109Z" fill="#0b0754"/><path d="M111.978,142.552H96.661a1.072,1.072,0,0,1-1.072-1.073v-21.29a1.073,1.073,0,0,1,1.072-1.073h15.317a1.074,1.074,0,0,1,1.073,1.073v21.29a1.073,1.073,0,0,1-1.073,1.073" fill="#b895f7"/><path d="M92.832,125.607v17.921l13.786-10.569Z" fill="#5b31ca"/><path d="M92.832,143.528l23.436-18.381V143.1Z" fill="#985bf3"/><path d="M115.938,138.248l-1.915,1.842,4.7,4.882-2.726,2.621-4.695-4.882-1.916,1.842-2.182-8.83Z" fill="#69e1c5"/><path d="M107.294,14.982V93.324a2.767,2.767,0,0,1-2.62,2.893H6.418A2.767,2.767,0,0,1,3.8,93.324V14.982a2.766,2.766,0,0,1,2.62-2.892h98.256a2.766,2.766,0,0,1,2.62,2.892" fill="#b478f4"/><line x2="103.494" transform="translate(3.798 22.207)" fill="none" stroke="#000" stroke-miterlimit="10" stroke-width="0.389"/><g style="isolation:isolate"><g clip-path="url(#g)"><path d="M80.467,46.876s4.835-3.649,2.1-6.778c0,0,1.173-2.739-5.086-5.086,0,0-5.477-2.738-10.563.391l-9.78,8.607s-3.129,3.129-14.083,5.476c0,0-12.519,3.13-12.519,14.475,0,0-.391,5.477,3.13,9.389L48.015,58.834s6.536-4.98,17.217-5.208l2.075-5.7s-1.565-1.174-1.565-4.695c0,0,1.565-2.347,3.129.391,0,0,.392,2.348,12.128-1.173Z" fill="#030207"/></g></g><path d="M3.819,51.946s2.473,4.1,2.019,5.569c0,0,1.111,3.82,2.675,4.6l-3.129,4.3L3.819,65.184Z" fill="#f8a257"/><path d="M112.84,111.212,111.6,113.4l-4.223,7.442-2.743,4.842S84.283,116.3,78.808,102.219l-2.463-5.95-2.229-5.4-1.662,5.2H33.189L34.6,91.655l-4.711,3.532L3.8,75.447V66.642l.645-.964L7.48,61.135l2.554-3.812L29.892,75.61,32.981,72.5,47.39,57.968s8.1-4.979,17.218-5.207l.143.02.75.117,5.448.828.567.084,4.06.619a2.743,2.743,0,0,1,.645.215c1.649.756,6.087,4.034,8.883,17.844a54.376,54.376,0,0,0,9.821,23.781,41.766,41.766,0,0,0,12.832,11.424Z" fill="#5535c1"/><path d="M63.569,55.858s2.9,2.738,6.216,1.174l1.244-3.521s5.387,3.912,9.117-1.956l1.243-9.78s-11.6,2.738-12.847,1.173c0,0-1.658-2.738-3.315-.391,0,0-.415,3.521,1.657,4.695Z" fill="#f8a257"/><line x1="0.321" y2="3.468" transform="translate(78.498 46.086)" fill="none" stroke="#000" stroke-linecap="round" stroke-linejoin="round" stroke-width="0.782"/><path d="M111.5,113.331l4.89,3.716s4.695,3.13,3.521,4.3c0,0,.391,1.565-5.086-1.565,0,0-1.173-.783-2.738.782,0,0-2.949,2.327-4.8.186Z" fill="#f8a257"/><path d="M7.284,17.245a2.26,2.26,0,1,0,2.26-2.26,2.26,2.26,0,0,0-2.26,2.26" fill="#5535c1"/><path d="M14.927,17.245a2.26,2.26,0,1,0,2.26-2.26,2.26,2.26,0,0,0-2.26,2.26" fill="#5535c1"/><path d="M22.993,17.245a2.26,2.26,0,1,0,2.26-2.26,2.26,2.26,0,0,0-2.26,2.26" fill="#5535c1"/><path d="M81.664,192.548a17.681,17.681,0,0,1-17.676,17.676H14.718c-.293,0-.585-.011-.871-.027-.006-.006-.006-.006-.011,0a.3.3,0,0,0-.061-.023,18.46,18.46,0,0,1,4.684-36.316,18.654,18.654,0,0,1,3.212.276,21.774,21.774,0,0,1,36.851,1.6,17.7,17.7,0,0,1,23.142,16.817" fill="#d8d0fa"/><path d="M205.548,251.87a20.344,20.344,0,0,0,20.338,20.338h56.691c.336,0,.672-.012,1-.031.006-.007.006-.007.013,0a.322.322,0,0,1,.069-.026,21.241,21.241,0,0,0-5.389-41.786,21.52,21.52,0,0,0-3.7.317,25.054,25.054,0,0,0-42.4,1.839,20.359,20.359,0,0,0-26.627,19.349" fill="#d8d0fa"/><path d="M190.952,21.1a13.405,13.405,0,0,1-13.4,13.405h-37.36a10.55,10.55,0,1,1,2.594-20.778,16.51,16.51,0,0,1,30.625-5.379A13.412,13.412,0,0,1,190.952,21.1" fill="#d8d0fa"/><path d="M267.553,96.169H157.75a2.938,2.938,0,0,1-2.938-2.939v-78.2a2.938,2.938,0,0,1,2.938-2.938h109.8a2.938,2.938,0,0,1,2.939,2.938v78.2a2.939,2.939,0,0,1-2.939,2.939" fill="#5535c1"/><line x2="115.68" transform="translate(154.812 23.686)" fill="none" stroke="#000" stroke-miterlimit="10" stroke-width="0.432"/><g style="isolation:isolate"><g clip-path="url(#h)"><path d="M190.854,36.478V33.7l-2.59-4.562s-3.453-4.748-8.633-3.021c0,0-4.316.863-5.611,4.316a9.436,9.436,0,0,1-5.611,3.453c-3.885.863-2.159,4.748-2.159,4.748s1.727,2.59,6.043,1.727c0,0,4.748-.2,13.165-7.223,0,0,1.511,1.611,2.375,1.611,0,0,0-2.158-.864-3.021v-.863l1.3-1.3s1.295-1.3,2.158.863c0,0,1.295,2.158,0,3.453l-.863.863Z" fill="#030207"/></g></g><path d="M174.883,39.931l3.885,6.475s6.043,4.748,9.928-2.159c0,0,.431-.431.431,0l2.59,3.022s4.316,0,5.18-3.885l-5.612-6.474-1.726-2.159a3.171,3.171,0,0,0,.6-4.856,1.2,1.2,0,0,0-1.892-.323l-1.3,1.3a1.222,1.222,0,0,0,.3,1.263,7.735,7.735,0,0,1,.566,2.621,6.288,6.288,0,0,1-2.374-1.611,41.5,41.5,0,0,1-10.575,6.791" fill="#f8a257"/><g style="isolation:isolate"><g clip-path="url(#i)"><line x2="2.158" y2="3.453" transform="translate(177.905 41.226)" fill="#030207"/><line x2="2.158" y2="3.453" transform="translate(177.905 41.226)" fill="none" stroke="#000" stroke-linecap="round" stroke-linejoin="round" stroke-width="0.863"/></g></g><path d="M190.638,30.866a1.942,1.942,0,1,1-1.942-1.942,1.942,1.942,0,0,1,1.942,1.942" fill="#f8a257"/><path d="M173.373,64.341l12.518-14.266,4.748-4.065,13.381-8.884s18.56-8.633,28.92-9.5l4.748,15.323-11.223,6.259s14.676,14.244,19.855,17.265L218.7,91.081,196.25,68.2s-8.2,6.979-9.5,7.374Z" fill="#985bf3"/><path d="M212.652,51.172l5.611-4.551s6.475,5.18,3.022,8.2C221.285,54.823,219.127,58.744,212.652,51.172Z" fill="none" stroke="#000" stroke-miterlimit="10" stroke-width="0.432"/><path d="M232.939,27.629s10.5-2.707,11.508-3.943l-3.819-11.6h8.3l11.062,21.049-22.3,9.813Z" fill="#f8a257"/><path d="M218.7,91.08l27.625-24.6,23.309,10.791.863.33v6.847s-6.145,9.476-9.979,11.725H222.3a17.222,17.222,0,0,0-3.6-5.089" fill="#0b0754"/><path d="M173.373,64.341l-35.417,40.121s-5.157,6.474-4.726,7.769c0,0,.432.864,5.18-3.453,0,0-.432-.432,3.022,0,0,0,3.453,1.727,6.043-2.59l15.539-11.654,23.74-18.956S173.8,65.226,173.373,64.341" fill="#f8a257"/><path d="M157.291,17.435a2.26,2.26,0,1,0,2.26-2.26,2.26,2.26,0,0,0-2.26,2.26" fill="#985bf3"/><path d="M164.934,17.435a2.26,2.26,0,1,0,2.26-2.26,2.26,2.26,0,0,0-2.26,2.26" fill="#985bf3"/><path d="M173,17.435a2.26,2.26,0,1,0,2.26-2.26,2.26,2.26,0,0,0-2.26,2.26" fill="#985bf3"/><path d="M116.345,233.736a6.846,6.846,0,1,1-6.845-6.845,6.845,6.845,0,0,1,6.845,6.845" fill="#985bf3"/><path d="M255.79,138.185a3.151,3.151,0,1,1-3.151-3.151,3.151,3.151,0,0,1,3.151,3.151" fill="#5cc3f7"/><path d="M115.1,256.672H230.136a3.078,3.078,0,0,0,3.078-3.079V171.662a3.078,3.078,0,0,0-3.078-3.078H115.1a3.079,3.079,0,0,0-3.079,3.078v81.931a3.079,3.079,0,0,0,3.079,3.079" fill="#5535c1"/><line x1="121.196" transform="translate(112.018 184.326)" fill="none" stroke="#0b0754" stroke-miterlimit="10" stroke-width="0.766"/><path d="M154.3,207.7l21.91,4.927s11.555,2.761,18.79,15.423c0,0,10.785,21.516,13.08,28.621H162.372L174.2,246.14l-12.662-10.853-8.593,8.14s-.9-10.67,0-17.771l-7.235-3.936s6.783-10.853,8.592-14.019" fill="#985bf3"/><g style="isolation:isolate"><g clip-path="url(#j)"><path d="M181.434,192.778a7.461,7.461,0,1,0,7.462-7.462,7.462,7.462,0,0,0-7.462,7.462" fill="#030207"/></g></g><g style="isolation:isolate"><g clip-path="url(#k)"><path d="M175.782,208.379V206.34s4.07-2.031,3.166-5.2c0,0-.575-.9-2.323,0a2.743,2.743,0,0,1-3.311-.9,67.887,67.887,0,0,1-8.385-7.688l-2.262,4.522s-.9-4.07.453-6.783a2.256,2.256,0,0,1,2.261-1.357s.9-1.356,4.07-1.356a19.332,19.332,0,0,1,11.3,4.522l2.285,5.879s-.023,5.427-7.259,10.4" fill="#030207"/></g></g><path d="M125.811,244.331l18.089,7.688s12.662-11.306,17.637-16.732L174.2,246.14l-11.827,10.532H139.926s-14.567-8.723-14.115-12.341" fill="#f8a257"/><path d="M164.928,192.552l-4.3,8.818s-1.5,4.162,1.74,6.6c0,0,.973,1.989,5.5,1.536l-.452,5.879s2.261,2.714,7.688.453l.678-9.5s4.3-2.71,3.166-5.2c0,0-.335-1.273-2.768.155a4.005,4.005,0,0,1-3.563-1.6Z" fill="#f8a257"/><line x1="2.664" y2="3.947" transform="translate(162.372 197.978)" fill="none" stroke="#000" stroke-linecap="round" stroke-linejoin="round" stroke-width="1.357"/><g style="isolation:isolate"><g clip-path="url(#l)"><path d="M115.517,176.936a2.26,2.26,0,1,0,2.26-2.26,2.26,2.26,0,0,0-2.26,2.26" fill="#fff"/></g></g><path d="M123.16,176.936a2.26,2.26,0,1,0,2.26-2.26,2.26,2.26,0,0,0-2.26,2.26" fill="#985bf3"/><path d="M131.226,176.936a2.26,2.26,0,1,0,2.26-2.26,2.26,2.26,0,0,0-2.26,2.26" fill="#985bf3"/><path d="M110.435,156.6s2.261.452,7.688,4.07c0,0,2.713,7.236,4.974,11.758l7.236,15.828,6.331,14.019L154.3,207.7l-8.593,14.019s-15.375-6.783-17.636-8.592L110.887,167l3.618-3.618s-6.331-6.331-4.07-6.783" fill="#f8a257"/><path d="M204.03,149.754a15.052,15.052,0,1,1-15.05-15.339,15.2,15.2,0,0,1,15.05,15.339" fill="#69e1c5"/><g style="isolation:isolate"><g clip-path="url(#m)"><path d="M198.01,145.841l-12.04,12.642-6.019-6.02-.295-.307,3.3-3.3,2.986,3.01,9.054-9.03Z" fill="#fff"/></g></g></g></svg>