<svg xmlns="http://www.w3.org/2000/svg" xmlns:xlink="http://www.w3.org/1999/xlink" width="619" height="594.158" viewBox="0 0 619 594.158"><defs><clipPath id="a"><rect width="619" height="594.158" fill="none"/></clipPath><clipPath id="b"><rect width="88.025" height="131.52" fill="none"/></clipPath><clipPath id="c"><rect width="132.557" height="17.605" fill="none"/></clipPath><clipPath id="g"><rect width="119.179" height="88.9" fill="none"/></clipPath><clipPath id="h"><rect width="56.633" height="33.349" fill="none"/></clipPath><clipPath id="i"><rect width="6.81" height="9.727" fill="none"/></clipPath><clipPath id="j"><rect width="33.632" height="33.632" fill="none"/></clipPath><clipPath id="k"><rect width="46.58" height="46.881" fill="none"/></clipPath><clipPath id="l"><rect width="10.187" height="10.185" fill="none"/></clipPath><clipPath id="m"><rect width="41.365" height="35.274" fill="none"/></clipPath></defs><g clip-path="url(#a)"><path d="M122.03,456.229c-.056,0-.1-.014-.152-.014v-.042a.687.687,0,0,1,.152.056" transform="translate(16.499 61.753)" fill="#d8d0fa"/><path d="M408.833,346.826H165.2a5.563,5.563,0,0,1-5.562-5.563v-156.4A5.562,5.562,0,0,1,165.2,179.3H408.833a5.563,5.563,0,0,1,5.563,5.562v156.4a5.564,5.564,0,0,1-5.563,5.563" transform="translate(21.611 24.272)" fill="#ede9f5"/><g transform="translate(193.676 223.009)" style="isolation:isolate"><g clip-path="url(#b)"><path d="M247.575,327.939H181.619A11.034,11.034,0,0,1,170.584,316.9V207.454a11.035,11.035,0,0,1,11.035-11.036h65.956a11.035,11.035,0,0,1,11.035,11.036V316.9a11.034,11.034,0,0,1-11.035,11.035" transform="translate(-170.584 -196.419)" fill="#fff"/></g></g><g transform="translate(291.022 223.009)" style="isolation:isolate"><g clip-path="url(#c)"><path d="M386.247,214.024H258.956a2.633,2.633,0,0,1-2.633-2.633V199.052a2.633,2.633,0,0,1,2.633-2.633H386.247a2.633,2.633,0,0,1,2.633,2.633v12.339a2.633,2.633,0,0,1-2.633,2.633" transform="translate(-256.323 -196.419)" fill="#fff"/></g></g><g transform="translate(291.022 250.969)" style="isolation:isolate"><g clip-path="url(#c)"><path d="M386.247,238.651H258.956a2.633,2.633,0,0,1-2.633-2.633V223.679a2.633,2.633,0,0,1,2.633-2.633H386.247a2.633,2.633,0,0,1,2.633,2.633v12.339a2.633,2.633,0,0,1-2.633,2.633" transform="translate(-256.323 -221.046)" fill="#fff"/></g></g><g transform="translate(291.022 279.967)" style="isolation:isolate"><g clip-path="url(#c)"><path d="M386.247,264.191H258.956a2.633,2.633,0,0,1-2.633-2.633V249.219a2.633,2.633,0,0,1,2.633-2.633H386.247a2.633,2.633,0,0,1,2.633,2.633v12.339a2.633,2.633,0,0,1-2.633,2.633" transform="translate(-256.323 -246.586)" fill="#fff"/></g></g><g transform="translate(291.022 311.034)" style="isolation:isolate"><g clip-path="url(#c)"><path d="M386.247,291.554H258.956a2.633,2.633,0,0,1-2.633-2.633V276.582a2.633,2.633,0,0,1,2.633-2.633H386.247a2.633,2.633,0,0,1,2.633,2.633v12.339a2.633,2.633,0,0,1-2.633,2.633" transform="translate(-256.323 -273.949)" fill="#fff"/></g></g><path d="M274.642,205.122a4.142,4.142,0,1,1-4.142-4.142,4.141,4.141,0,0,1,4.142,4.142" transform="translate(36.057 27.207)" fill="#5b31ca"/><line y1="0.518" x2="90.992" transform="translate(318.703 231.811)" fill="none" stroke="#5b31ca" stroke-miterlimit="10" stroke-width="1.848"/><path d="M274.642,229.749a4.142,4.142,0,1,1-4.142-4.142,4.141,4.141,0,0,1,4.142,4.142" transform="translate(36.057 30.541)" fill="#5b31ca"/><line y1="0.518" x2="90.992" transform="translate(318.703 259.772)" fill="none" stroke="#5b31ca" stroke-miterlimit="10" stroke-width="1.848"/><path d="M274.642,255.289a4.142,4.142,0,1,1-4.142-4.142,4.141,4.141,0,0,1,4.142,4.142" transform="translate(36.057 33.998)" fill="#5b31ca"/><line y1="0.518" x2="90.992" transform="translate(318.703 288.769)" fill="none" stroke="#5b31ca" stroke-miterlimit="10" stroke-width="1.848"/><path d="M274.642,282.652a4.142,4.142,0,1,1-4.142-4.142,4.141,4.141,0,0,1,4.142,4.142" transform="translate(36.057 37.702)" fill="#5b31ca"/><line y1="0.518" x2="90.992" transform="translate(318.703 319.837)" fill="none" stroke="#5b31ca" stroke-miterlimit="10" stroke-width="1.848"/><path d="M237.081,283.88H184.266V250.74l24.346-23.763a2.744,2.744,0,0,1,3.776-.052l24.693,22.78Z" transform="translate(24.944 30.621)" fill="#0b0754"/><path d="M226.674,289.254H192.155a2.418,2.418,0,0,1-2.417-2.417V238.856a2.418,2.418,0,0,1,2.417-2.417h34.519a2.417,2.417,0,0,1,2.417,2.417v47.981a2.417,2.417,0,0,1-2.417,2.417" transform="translate(25.685 32.007)" fill="#b895f7"/><path d="M184.266,249.322v40.389l31.068-23.819Z" transform="translate(24.944 33.751)" fill="#5b31ca"/><path d="M184.266,289.834l52.815-41.424v40.459Z" transform="translate(24.944 33.628)" fill="#985bf3"/><path d="M232.477,275.091l-4.317,4.151,10.583,11-6.141,5.906-10.583-11L217.7,289.3l-4.918-19.9Z" transform="translate(28.805 36.469)" fill="#69e1c5"/><path d="M240.782,30.516V207.072c0,3.6-2.643,6.518-5.9,6.518H13.442c-3.261,0-5.9-2.918-5.9-6.518V30.516c0-3.6,2.643-6.518,5.9-6.518H234.878c3.261,0,5.9,2.918,5.9,6.518" transform="translate(1.02 3.249)" fill="#b478f4"/><line x2="233.239" transform="translate(8.559 50.045)" fill="none" stroke="#000" stroke-miterlimit="10" stroke-width="0.772"/><g transform="translate(68.782 76.405)" style="isolation:isolate"><g clip-path="url(#g)"><path d="M173.142,96.532s10.9-8.223,4.725-15.276c0,0,2.644-6.171-11.462-11.46,0,0-12.343-6.172-23.8.881l-22.041,19.4s-7.053,7.054-31.739,12.344c0,0-28.212,7.053-28.212,32.62,0,0-.882,12.343,7.053,21.159l32.344-32.713s14.73-11.222,38.8-11.736l4.674-12.856s-3.526-2.645-3.526-10.581c0,0,3.526-5.29,7.053.882,0,0,.882,5.29,27.331-2.645Z" transform="translate(-60.581 -67.295)" fill="#030207"/></g></g><path d="M7.58,103.11s5.574,9.229,4.551,12.549c0,0,2.5,8.61,6.029,10.373l-7.053,9.7L7.58,132.944Z" transform="translate(1.026 13.958)" fill="#f8a257"/><path d="M253.281,236.454l-2.806,4.934-9.517,16.773-6.183,10.913s-45.853-21.15-58.19-52.888l-5.552-13.41-5.023-12.161-3.744,11.72H73.777l3.187-9.957-10.618,7.96L7.538,155.852V136.01l1.454-2.174L15.836,123.6l5.757-8.591L66.346,156.22l6.961-7.021,32.473-32.737s18.257-11.221,38.8-11.735l.322.044,1.689.265,12.278,1.865,1.278.191,9.15,1.4a6.11,6.11,0,0,1,1.453.485c3.716,1.7,13.719,9.091,20.019,40.213,0,0,3.2,28.288,22.133,53.593a94.161,94.161,0,0,0,28.919,25.747Z" transform="translate(1.02 14.177)" fill="#5535c1"/><path d="M126.181,114.7s6.537,6.172,14.009,2.645l2.8-7.935s12.142,8.816,20.547-4.409l2.8-22.041s-26.151,6.172-28.953,2.645c0,0-3.735-6.172-7.472-.882,0,0-.933,7.935,3.737,10.581Z" transform="translate(17.081 11.18)" fill="#f8a257"/><line x1="0.723" y2="7.815" transform="translate(176.907 103.86)" fill="none" stroke="#000" stroke-linecap="round" stroke-linejoin="round" stroke-width="1.553"/><path d="M222.459,224.954l11.02,8.376s10.581,7.053,7.935,9.7c0,0,.882,3.526-11.462-3.526,0,0-2.644-1.764-6.171,1.763,0,0-6.646,5.244-10.817.418Z" transform="translate(28.829 30.452)" fill="#f8a257"/><path d="M14.459,34.837a5.093,5.093,0,1,0,5.093-5.093,5.093,5.093,0,0,0-5.093,5.093" transform="translate(1.957 4.026)" fill="#5535c1"/><path d="M29.629,34.837a5.093,5.093,0,1,0,5.093-5.093,5.093,5.093,0,0,0-5.093,5.093" transform="translate(4.011 4.026)" fill="#5535c1"/><path d="M45.64,34.837a5.093,5.093,0,1,0,5.093-5.093,5.093,5.093,0,0,0-5.093,5.093" transform="translate(6.178 4.026)" fill="#5535c1"/><path d="M184.04,389.673A39.847,39.847,0,0,1,144.2,429.509H33.166c-.657,0-1.316-.025-1.962-.062-.012-.012-.012-.012-.025,0a.579.579,0,0,0-.136-.05A41.6,41.6,0,0,1,41.6,347.553a42.08,42.08,0,0,1,7.239.621,49.071,49.071,0,0,1,83.049,3.6,39.876,39.876,0,0,1,52.153,37.9" transform="translate(0 44.262)" fill="#d8d0fa"/><path d="M561.533,535.855h-105.5c-.622,0-1.259-.027-1.868-.069-.014-.014-.014-.014-.027,0l-.125-.042c-16.978-4.788-29.5-21.462-29.5-41.278,0-23.565,17.7-42.662,39.534-42.662a37.571,37.571,0,0,1,6.877.637c8.4-13.145,22.459-21.753,38.386-21.753,17.367,0,32.519,10.24,40.517,25.447a35.158,35.158,0,0,1,11.4-1.993Z" transform="translate(57.467 58.303)" fill="#d8d0fa"/><path d="M395.5,47.553a30.212,30.212,0,0,1-30.21,30.21H281.1a23.776,23.776,0,1,1,5.846-46.825,37.207,37.207,0,0,1,69.018-12.123A30.226,30.226,0,0,1,395.5,47.553" transform="translate(34.834)" fill="#d8d0fa"/><path d="M561.371,213.482H313.915a6.623,6.623,0,0,1-6.623-6.623V30.621A6.623,6.623,0,0,1,313.915,24H561.371a6.623,6.623,0,0,1,6.623,6.623V206.86a6.623,6.623,0,0,1-6.623,6.623" transform="translate(41.599 3.249)" fill="#5535c1"/><line x2="260.702" transform="translate(348.891 53.379)" fill="none" stroke="#000" stroke-miterlimit="10" stroke-width="0.857"/><g transform="translate(373.807 58.01)" style="isolation:isolate"><g clip-path="url(#h)"><path d="M385.548,75.291V69.034l-5.837-10.28s-7.782-10.7-19.455-6.81c0,0-9.728,1.946-12.647,9.728a21.261,21.261,0,0,1-12.646,7.782c-8.755,1.946-4.864,10.7-4.864,10.7s3.892,5.837,13.619,3.891c0,0,10.7-.455,29.67-16.278,0,0,3.4,3.632,5.351,3.632,0,0,0-4.864-1.946-6.81V62.645l2.918-2.918s2.919-2.919,4.864,1.945c0,0,2.919,4.864,0,7.782L382.63,71.4Z" transform="translate(-329.238 -51.093)" fill="#030207"/></g></g><path d="M347.133,82.128l8.755,14.592s13.619,10.7,22.374-4.864c0,0,.973-.973.973,0l5.837,6.809s9.727,0,11.673-8.755L384.1,75.319l-3.891-4.864s6.584-4.379,1.347-10.945c0,0-1.347-2.674-4.266-.729L374.371,61.7a2.752,2.752,0,0,0,.669,2.846,17.435,17.435,0,0,1,1.276,5.908s-1.945-.455-5.35-3.632a93.516,93.516,0,0,1-23.833,15.3" transform="translate(46.992 7.861)" fill="#f8a257"/><g transform="translate(399.961 91.936)" style="isolation:isolate"><g clip-path="url(#i)"><line x2="4.864" y2="7.782" transform="translate(0.973 0.972)" fill="#030207"/><line x2="4.864" y2="7.782" transform="translate(0.973 0.972)" fill="none" stroke="#000" stroke-linecap="round" stroke-linejoin="round" stroke-width="1.714"/></g></g><path d="M379.449,61.79a4.377,4.377,0,1,1-4.378-4.378,4.377,4.377,0,0,1,4.378,4.378" transform="translate(50.181 7.772)" fill="#f8a257"/><path d="M344.134,137.577l28.211-32.15,10.7-9.16L413.2,76.243s41.828-19.455,65.175-21.4l10.7,34.533-25.293,14.1s33.074,32.1,44.747,38.91l-62.257,55.448L395.69,146.281s-18.482,15.729-21.4,16.62Z" transform="translate(46.586 7.424)" fill="#985bf3"/><path d="M422.1,102.8,434.747,92.54s14.592,11.674,6.81,18.483C441.557,111.023,436.693,119.86,422.1,102.8Z" transform="translate(57.14 12.527)" fill="none" stroke="#000" stroke-miterlimit="10" stroke-width="0.857"/><path d="M462.37,59.017s23.66-6.1,25.935-8.887L479.7,24h18.7l24.929,47.438L473.071,93.551Z" transform="translate(62.592 3.249)" fill="#f8a257"/><path d="M434.1,187.4l62.257-55.448,52.529,24.32,1.946.741v15.433s-13.849,21.353-22.489,26.422H442.217A38.8,38.8,0,0,0,434.1,187.4" transform="translate(58.764 17.863)" fill="#0b0754"/><path d="M354.927,127.712,275.111,218.13s-11.624,14.592-10.651,17.51c0,0,.973,1.946,11.674-7.782,0,0-.973-.973,6.809,0,0,0,7.782,3.891,13.619-5.837l35.019-26.265,53.5-42.72s-29.182-23.33-30.155-25.324" transform="translate(35.792 17.289)" fill="#f8a257"/><path d="M312.213,35.214a5.093,5.093,0,1,0,5.093-5.093,5.093,5.093,0,0,0-5.093,5.093" transform="translate(42.265 4.078)" fill="#985bf3"/><path d="M327.384,35.214a5.092,5.092,0,1,0,5.093-5.093,5.093,5.093,0,0,0-5.093,5.093" transform="translate(44.318 4.078)" fill="#985bf3"/><path d="M343.394,35.214a5.093,5.093,0,1,0,5.093-5.093,5.093,5.093,0,0,0-5.093,5.093" transform="translate(46.486 4.078)" fill="#985bf3"/><path d="M234.617,465.79a15.427,15.427,0,1,1-15.426-15.426,15.426,15.426,0,0,1,15.426,15.426" transform="translate(27.584 60.966)" fill="#985bf3"/><path d="M509.421,275.136a7.1,7.1,0,1,1-7.1-7.1,7.1,7.1,0,0,1,7.1,7.1" transform="translate(67.039 36.284)" fill="#5cc3f7"/><path d="M229.287,533.148H488.544a6.938,6.938,0,0,0,6.938-6.938V341.566a6.938,6.938,0,0,0-6.938-6.938H229.287a6.938,6.938,0,0,0-6.938,6.938V526.209a6.938,6.938,0,0,0,6.938,6.938" transform="translate(30.1 45.299)" fill="#5535c1"/><line x1="273.133" transform="translate(252.449 415.405)" fill="none" stroke="#0b0754" stroke-miterlimit="10" stroke-width="1.52"/><path d="M308.587,412.274l49.377,11.1S384,429.6,400.31,458.136c0,0,24.3,48.49,29.478,64.5H326.775L353.429,498.9l-28.536-24.459-19.364,18.344s-2.038-24.045,0-40.049l-16.306-8.87s15.287-24.46,19.364-31.594" transform="translate(39.153 55.81)" fill="#985bf3"/><g transform="translate(408.888 417.636)" style="isolation:isolate"><g clip-path="url(#j)"><path d="M360.136,384.657a16.816,16.816,0,1,0,16.816-16.816,16.816,16.816,0,0,0-16.816,16.816" transform="translate(-360.136 -367.841)" fill="#030207"/></g></g><g transform="translate(365.928 422.732)" style="isolation:isolate"><g clip-path="url(#k)"><path d="M352.519,419.21v-4.595s9.173-4.578,7.134-11.711c0,0-1.3-2.038-5.233,0,0,0-3.852,2.038-7.463-2.038a153.176,153.176,0,0,1-18.9-17.326l-5.1,10.191s-2.038-9.173,1.02-15.288c0,0,1.02-3.056,5.1-3.056,0,0,2.039-3.058,9.173-3.058A43.575,43.575,0,0,1,363.73,382.52l5.148,13.249s-.052,12.23-16.358,23.441" transform="translate(-322.298 -372.329)" fill="#030207"/></g></g><path d="M249.73,487.412,290.5,504.738s28.535-25.479,39.746-37.709l28.536,24.46-26.654,23.735H281.539s-32.829-19.659-31.81-27.812" transform="translate(33.803 63.222)" fill="#f8a257"/><path d="M328.619,382.2l-9.682,19.874s-3.369,9.379,3.922,14.881c0,0,2.194,4.482,12.386,3.463l-1.02,13.25s5.1,6.115,17.326,1.018l1.528-21.411s9.682-6.106,7.135-11.711c0,0-.755-2.87-6.238.349a9.027,9.027,0,0,1-8.03-3.617Z" transform="translate(43.07 51.739)" fill="#f8a257"/><line x1="6.003" y2="8.896" transform="translate(365.929 446.172)" fill="none" stroke="#000" stroke-linecap="round" stroke-linejoin="round" stroke-width="2.693"/><g transform="translate(260.334 393.657)" style="isolation:isolate"><g clip-path="url(#l)"><path d="M229.294,351.813a5.093,5.093,0,1,0,5.093-5.093,5.093,5.093,0,0,0-5.093,5.093" transform="translate(-229.294 -346.721)" fill="#fff"/></g></g><path d="M244.465,351.813a5.093,5.093,0,1,0,5.093-5.093,5.093,5.093,0,0,0-5.093,5.093" transform="translate(33.094 46.936)" fill="#985bf3"/><path d="M260.475,351.813a5.093,5.093,0,1,0,5.093-5.093,5.093,5.093,0,0,0-5.093,5.093" transform="translate(35.261 46.936)" fill="#985bf3"/><path d="M219.338,310.841s5.1,1.02,17.326,9.173c0,0,6.115,16.306,11.211,26.5l16.306,35.671,14.268,31.593,39.747,12.23L298.832,457.6s-34.652-15.288-39.747-19.364L220.358,334.282l8.153-8.153s-14.268-14.268-9.173-15.288" transform="translate(29.543 42.079)" fill="#f8a257"/><path d="M413.075,301.375c0,19.091-15.184,34.569-33.916,34.569s-33.917-15.477-33.917-34.569,15.184-34.569,33.917-34.569,33.916,15.477,33.916,34.569" transform="translate(46.736 36.118)" fill="#69e1c5"/><g transform="translate(404.88 321.89)" style="isolation:isolate"><g clip-path="url(#m)"><path d="M397.97,290.294l-27.133,28.49-13.567-13.567-.664-.693,7.448-7.448,6.728,6.784,20.4-20.349Z" transform="translate(-356.606 -283.511)" fill="#fff"/></g></g></g></svg>