<svg xmlns="http://www.w3.org/2000/svg" xmlns:xlink="http://www.w3.org/1999/xlink" width="46.598" height="59.508" viewBox="0 0 46.598 59.508"><defs><clipPath id="a"><rect width="46.598" height="59.509" fill="#a652ff"/></clipPath></defs><g clip-path="url(#a)"><path d="M23.3,0C10.485,0,0,10.1,0,22.522A22.051,22.051,0,0,0,4.66,35.984l17.6,23.04a1.392,1.392,0,0,0,1.812.259l.259-.259,17.6-23.04A22.052,22.052,0,0,0,46.6,22.522C46.6,10.1,36.114,0,23.3,0ZM21.487,31.324A9.037,9.037,0,1,1,32.1,20.71a9.123,9.123,0,0,1-7.119,10.614,7.965,7.965,0,0,1-3.495,0" fill="#a652ff"/></g></svg>