<svg xmlns="http://www.w3.org/2000/svg" xmlns:xlink="http://www.w3.org/1999/xlink" width="450.199" height="707.024" viewBox="0 0 450.199 707.024">
  <defs>
    <clipPath id="clip-path">
      <rect id="Rectangle_10440" data-name="Rectangle 10440" width="450.199" height="707.024" fill="none"/>
    </clipPath>
  </defs>
  <g id="Group_17943" data-name="Group 17943" transform="translate(0 -0.004)">
    <g id="Group_17942" data-name="Group 17942" transform="translate(0 0.004)" clip-path="url(#clip-path)">
      <path id="Path_29077" data-name="Path 29077" d="M282.676,238.433s13.432-2.373,20.679-12.186,5.564-23.349,5.564-23.349-13.432,2.374-20.679,12.186-5.564,23.349-5.564,23.349" transform="translate(-150.805 -108.311)" fill="#9553ff"/>
      <path id="Path_29078" data-name="Path 29078" d="M629.806,1012.205s25.709,5.209,45.587-7.25,26.4-37.869,26.4-37.869-25.709-5.209-45.587,7.25-26.4,37.869-26.4,37.869" transform="translate(-336.196 -515.664)" fill="#c371ff"/>
      <path id="Path_29079" data-name="Path 29079" d="M125.024,410.674s9.68,19.256,27.817,25.778,37.863-2.16,37.863-2.16-9.68-19.256-27.817-25.778-37.863,2.16-37.863,2.16" transform="translate(-66.739 -216.774)" fill="#9553ff"/>
      <path id="Path_29080" data-name="Path 29080" d="M112.632,285.172s5.058,10.061,14.534,13.468,19.783-1.128,19.783-1.128-5.058-10.061-14.534-13.469-19.783,1.129-19.783,1.129" transform="translate(-60.124 -150.95)" fill="#9553ff"/>
      <path id="Path_29081" data-name="Path 29081" d="M451.144,429.579s22.208-13.961,28.007-36.693-7.007-45.625-7.007-45.625-22.208,13.961-28.007,36.693,7.007,45.625,7.007,45.625" transform="translate(-236.279 -185.373)" fill="#9553ff"/>
      <path id="Path_29082" data-name="Path 29082" d="M344.1,345.932s18.47-5.908,26.806-21.116,3.38-33.956,3.38-33.956-18.47,5.908-26.806,21.116-3.381,33.956-3.381,33.956" transform="translate(-182.905 -155.266)" fill="#9553ff"/>
      <path id="Path_29083" data-name="Path 29083" d="M229.928,173.656a4.024,4.024,0,1,1,7.408,3.146c-23.676,55.764-5.684,103.832,55,146.951,40.56,28.817,65.674,66.392,81.238,102.069-3.033-.32-6.1-.591-9.167-.8-15.187-33.329-39.093-67.961-76.734-94.7-29.394-20.885-49.539-43.516-59.877-67.264-12.035-27.648-11.319-57.724,2.128-89.395" transform="translate(-117.053 -91.391)" fill="#9553ff"/>
      <path id="Path_29084" data-name="Path 29084" d="M532.893,650.164a5.092,5.092,0,0,0,5.841-5.641,167.214,167.214,0,0,1,3.723-51.913c8.609-36.915,28.534-63.4,59.218-78.718,32.983-16.466,53.711-37.951,61.608-63.858,9.61-31.53-1.865-61.93-13.183-81.881a5.085,5.085,0,0,0-8.847,5.018c10.334,18.217,20.858,45.824,12.3,73.9-7.051,23.132-26.034,42.553-56.422,57.724-33.147,16.547-55.5,46.23-64.656,85.838a174.252,174.252,0,0,0-3.837,55.129,5.086,5.086,0,0,0,4.254,4.405" transform="translate(-281.813 -195.149)" fill="#c371ff"/>
      <path id="Path_29085" data-name="Path 29085" d="M278.986,627.107s16.973-3,26.13-15.4,7.031-29.5,7.031-29.5-16.973,3-26.13,15.4-7.031,29.5-7.031,29.5" transform="translate(-148.811 -310.788)" fill="#5b2ec7"/>
      <path id="Path_29086" data-name="Path 29086" d="M634.769,390.79s.721,26.147,17.294,42.656,42.723,17.127,42.723,17.127-.721-26.147-17.294-42.656-42.723-17.127-42.723-17.127" transform="translate(-338.845 -208.609)" fill="#c371ff"/>
      <path id="Path_29087" data-name="Path 29087" d="M583.788,537.159s-11.152,14.68-9.34,31.067,15.9,28.276,15.9,28.276,11.152-14.68,9.34-31.067-15.9-28.276-15.9-28.276" transform="translate(-306.539 -286.742)" fill="#c371ff"/>
      <path id="Path_29088" data-name="Path 29088" d="M658.543,775.709s32.121,8.183,57.987-6.3,35.683-46.14,35.683-46.14-32.121-8.183-57.987,6.3-35.683,46.14-35.683,46.14" transform="translate(-351.536 -384.861)" fill="#c371ff"/>
      <path id="Path_29089" data-name="Path 29089" d="M717.894,286.926s2.422-20.805-8.823-35.787-31.9-18.465-31.9-18.465S674.75,253.479,686,268.461s31.9,18.465,31.9,18.465" transform="translate(-361.363 -124.205)" fill="#c371ff"/>
      <path id="Path_29090" data-name="Path 29090" d="M254.044,73.439s21.12-11.212,27.907-31.49S278.622,0,278.622,0s-21.12,11.211-27.907,31.49,3.329,41.945,3.329,41.945" transform="translate(-132.583 -0.004)" fill="#9553ff"/>
      <path id="Path_29091" data-name="Path 29091" d="M836.837,571.3s14.627,3.433,26.225-3.352,15.775-21.217,15.775-21.217-14.627-3.433-26.225,3.352S836.837,571.3,836.837,571.3" transform="translate(-446.711 -291.387)" fill="#c371ff"/>
      <path id="Path_29092" data-name="Path 29092" d="M79.775,844.75s12.231,24.332,35.15,32.573,47.844-2.729,47.844-2.729-12.231-24.332-35.15-32.573-47.844,2.729-47.844,2.729" transform="translate(-42.585 -447.842)" fill="#5b2ec7"/>
      <path id="Path_29093" data-name="Path 29093" d="M64.116,686.167s6.391,12.713,18.365,17.019,25-1.426,25-1.426-6.391-12.713-18.365-17.019-25,1.426-25,1.426" transform="translate(-34.226 -364.667)" fill="#5b2ec7"/>
      <path id="Path_29094" data-name="Path 29094" d="M211.358,1039.5s20.8,25.81,50.182,29.731,56.223-15.528,56.223-15.528-20.8-25.81-50.182-29.732-56.223,15.529-56.223,15.529" transform="translate(-112.825 -546.326)" fill="#5b2ec7"/>
      <path id="Path_29095" data-name="Path 29095" d="M356.6,762.942s23.339-7.466,33.872-26.682,4.272-42.906,4.272-42.906-23.338,7.466-33.872,26.682-4.272,42.906-4.272,42.906" transform="translate(-189.373 -370.12)" fill="#5b2ec7"/>
      <path id="Path_29096" data-name="Path 29096" d="M212.333,545.253a5.085,5.085,0,1,1,9.361,3.975c-29.916,70.464-7.183,131.2,69.5,185.688,51.251,36.413,82.986,83.893,102.652,128.975-3.832-.4-7.7-.747-11.583-1.015C363.075,820.762,332.867,777,285.3,743.209c-37.142-26.391-62.6-54.988-75.661-85-15.208-34.936-14.3-72.941,2.689-112.96" transform="translate(-106.162 -289.408)" fill="#5b2ec7"/>
      <path id="Path_29097" data-name="Path 29097" d="M7.724,1029.041c18.628-5.1,40.355,123.431,146.725,112.421,14.937-1.546-28.468-13.02-43.153-21.526-15.4-8.921-26.1-16.146-22.1-24.585,1.584-3.328,67.444,13.58,98.285,22.115,29.093,8.068,73.724,46.855,80.015,138.792a298.642,298.642,0,0,1-137.017-44.263C62.773,1170.05,19.984,1113.02.357,1041c-.015-.065-.022-.112-.022-.112.867.1-4.066-8.716,7.388-11.849" transform="translate(0 -549.234)" fill="#c371ff"/>
      <path id="Path_29098" data-name="Path 29098" d="M711.225,1029.041c-18.628-5.1-40.355,123.431-146.725,112.421-14.937-1.546,28.468-13.02,43.153-21.526,15.4-8.921,26.105-16.146,22.1-24.585-1.584-3.328-67.444,13.58-98.285,22.115-8.463,2.347-18.241,7.317-28.007,15.415,20.832,18.727,41.082,49.783,51.568,97.031a302.113,302.113,0,0,0,33.441-17.917c67.71-41.945,110.5-98.975,130.126-170.992.015-.065.022-.112.022-.112-.867.1,4.066-8.716-7.388-11.849" transform="translate(-268.75 -549.234)" fill="#5b2ec7"/>
    </g>
  </g>
</svg>
