<svg xmlns="http://www.w3.org/2000/svg" width="107.173" height="107.175" viewBox="0 0 107.173 107.175"><g transform="translate(-1091.504 312.499)"><g transform="translate(1092.504 -311.499)"><path d="M1145.087-311.5A52.586,52.586,0,0,0,1092.5-258.91a52.588,52.588,0,0,0,52.589,52.585,52.587,52.587,0,0,0,52.584-52.587,52.587,52.587,0,0,0-52.588-52.587Z" transform="translate(-1092.504 311.499)" fill="none" stroke="#fff" stroke-miterlimit="8.201" stroke-width="2"/><path d="M1167.049-258.1l-17.869,10.314-17.865,10.315a2.21,2.21,0,0,1-3.019-.809,2.2,2.2,0,0,1-.3-1.1V-280.64a2.213,2.213,0,0,1,2.215-2.21,2.207,2.207,0,0,1,1.1.3l17.865,10.315,17.869,10.315a2.208,2.208,0,0,1,.81,3.017A2.2,2.2,0,0,1,1167.049-258.1Z" transform="translate(-1089.512 313.914)" fill="#fff"/></g></g></svg>