<svg xmlns="http://www.w3.org/2000/svg" xmlns:xlink="http://www.w3.org/1999/xlink" width="619" height="552" viewBox="0 0 619 552">
  <defs>
    <clipPath id="clip-path">
      <rect id="Rectangle_10582" data-name="Rectangle 10582" width="517.518" height="490.692" fill="none"/>
    </clipPath>
  </defs>
  <g id="Group_18127" data-name="Group 18127" transform="translate(-1195 -2938)">
    <rect id="Rectangle_10529" data-name="Rectangle 10529" width="619" height="552" transform="translate(1195 2938)" fill="#fff"/>
    <g id="Group_18106" data-name="Group 18106" transform="translate(1245.742 2972.654)">
      <g id="Group_18105" data-name="Group 18105" clip-path="url(#clip-path)">
        <path id="Path_30369" data-name="Path 30369" d="M517.518,161.207v40.224H0V161.207A13.733,13.733,0,0,1,13.737,147.47H503.782a13.734,13.734,0,0,1,13.737,13.737" transform="translate(0 6.708)" fill="#1c0456"/>
        <path id="Path_30370" data-name="Path 30370" d="M517.518,199.084V467.9a13.734,13.734,0,0,1-13.737,13.737H13.737A13.733,13.733,0,0,1,0,467.9V199.084Z" transform="translate(0 9.055)" fill="#5b2ec7"/>
        <path id="Path_30371" data-name="Path 30371" d="M27.028,173.633a8.188,8.188,0,1,0,8.188-8.188,8.188,8.188,0,0,0-8.188,8.188" transform="translate(1.229 7.525)" fill="#a252fb"/>
        <path id="Path_30372" data-name="Path 30372" d="M53.514,173.633a8.188,8.188,0,1,0,8.188-8.188,8.188,8.188,0,0,0-8.188,8.188" transform="translate(2.434 7.525)" fill="#a252fb"/>
        <path id="Path_30373" data-name="Path 30373" d="M81.468,173.633a8.188,8.188,0,1,0,8.188-8.188,8.188,8.188,0,0,0-8.188,8.188" transform="translate(3.706 7.525)" fill="#a252fb"/>
        <rect id="Rectangle_10562" data-name="Rectangle 10562" width="54.245" height="154.828" transform="translate(390.235 109.388)" fill="#a152fa"/>
        <rect id="Rectangle_10563" data-name="Rectangle 10563" width="54.245" height="109.532" transform="translate(390.235 264.216)" fill="#d8cdff"/>
        <rect id="Rectangle_10564" data-name="Rectangle 10564" width="54.245" height="116.944" transform="translate(390.235 373.749)" fill="#9174d9"/>
        <rect id="Rectangle_10565" data-name="Rectangle 10565" width="54.245" height="154.828" transform="translate(62.409 109.388)" fill="#15c4fa"/>
        <rect id="Rectangle_10566" data-name="Rectangle 10566" width="54.245" height="109.532" transform="translate(62.409 264.216)" fill="#fff"/>
        <rect id="Rectangle_10567" data-name="Rectangle 10567" width="54.245" height="116.944" transform="translate(62.409 373.749)" fill="#1c0456"/>
        <path id="Path_30374" data-name="Path 30374" d="M436.095,83.888h-23.55a2.71,2.71,0,0,0-2.3,1.278L402.29,97.936a1.6,1.6,0,0,1-2.776-.1l-6.544-12.491a2.711,2.711,0,0,0-2.4-1.453H365.245a2.515,2.515,0,0,1-2.514-2.515V35.155a2.515,2.515,0,0,1,2.514-2.514h70.849a2.515,2.515,0,0,1,2.515,2.514V81.372a2.515,2.515,0,0,1-2.515,2.515" transform="translate(16.499 1.485)" fill="#a152fa"/>
        <path id="Path_30375" data-name="Path 30375" d="M420.4,57.929a20.484,20.484,0,1,1-20.484-20.484A20.484,20.484,0,0,1,420.4,57.929" transform="translate(17.258 1.703)" fill="#fff"/>
        <path id="Path_30376" data-name="Path 30376" d="M406.892,56.355a8.377,8.377,0,0,1-15.1.3l1.024-7.679s10.127.922,12.581-.459Z" transform="translate(17.821 2.207)" fill="#ff9945"/>
        <path id="Path_30377" data-name="Path 30377" d="M406.922,56.627v0l-1.492-7.837c-2.455,1.381-12.58.46-12.58.46l-1.024,7.678c-1.637-6.59.256-8.752.256-8.752a8.735,8.735,0,0,1-.232-1.278,3.512,3.512,0,0,1,3.188-4.18c11.1-1.405,11.492,3.9,11.537,3.906h0c.7.358,1.017,1.375,1.118,2.634a30.615,30.615,0,0,1-.771,7.365" transform="translate(17.792 1.932)" fill="#160c66"/>
        <path id="Path_30378" data-name="Path 30378" d="M402.769,62.8l-3.1,6.251-3.283-6.284a43.292,43.292,0,0,1,6.384.033" transform="translate(18.03 2.85)" fill="#ede8f5"/>
        <path id="Path_30379" data-name="Path 30379" d="M402.664,61.839l-3,6.05-3.169-6.065c.79-.079,1.671-.131,2.662-.146a27.644,27.644,0,0,1,3.509.161" transform="translate(18.035 2.805)" fill="#ff9945"/>
        <path id="Path_30380" data-name="Path 30380" d="M416.478,68.555a20.487,20.487,0,0,1-32.368,1.539c1.636-2.773,3.631-5.14,5.991-6.242a20.426,20.426,0,0,1,4.305-1.62l-1.341,1.8a1.1,1.1,0,0,0,.546,1.705l6.616,2.128,6.692-2.07a.925.925,0,0,0,.453-1.456L405.7,62.211a19.852,19.852,0,0,1,5.731,2.1,18.719,18.719,0,0,1,5.052,4.243" transform="translate(17.471 2.83)" fill="#321688"/>
        <path id="Path_30381" data-name="Path 30381" d="M399.846,67.883l-6.616-2.128a1.1,1.1,0,0,1-.546-1.705l1.341-1.8a20.232,20.232,0,0,1,2.651-.431Z" transform="translate(17.852 2.812)" fill="#5e2cbe"/>
        <path id="Path_30382" data-name="Path 30382" d="M406.217,65.812l-6.691,2.07,3-6.05c.889.1,1.712.236,2.467.4l1.676,2.128a.925.925,0,0,1-.454,1.456" transform="translate(18.173 2.812)" fill="#5e2cbe"/>
        <path id="Path_30383" data-name="Path 30383" d="M390.05,73.066c-.038.486-.067,1.029-.091,1.575q-.3-.16-.6-.33l-.764-5.54a6.89,6.89,0,0,1,1.455,4.3" transform="translate(17.675 3.128)" fill="#1c0456"/>
        <path id="Path_30384" data-name="Path 30384" d="M409.784,67.963l-.811,6.242h0q-.241.143-.488.279c-.04-1.61-.08-3.364-.08-3.76a9.079,9.079,0,0,1,1.381-2.761" transform="translate(18.576 3.091)" fill="#1c0456"/>
        <path id="Path_30385" data-name="Path 30385" d="M197.98,51.248H174.43a2.71,2.71,0,0,0-2.3,1.278L164.175,65.3a1.6,1.6,0,0,1-2.776-.1L154.856,52.7a2.711,2.711,0,0,0-2.4-1.453H127.13a2.515,2.515,0,0,1-2.514-2.515V2.515A2.515,2.515,0,0,1,127.13,0H197.98A2.515,2.515,0,0,1,200.5,2.515V48.732a2.515,2.515,0,0,1-2.515,2.515" transform="translate(5.668 0)" fill="#5b2ec7"/>
        <rect id="Rectangle_10568" data-name="Rectangle 10568" width="54.245" height="124.616" transform="translate(304.642 183.792)" fill="#15c4fa"/>
        <rect id="Rectangle_10569" data-name="Rectangle 10569" width="54.245" height="66.572" transform="translate(304.642 270.504)" fill="#fff"/>
        <rect id="Rectangle_10570" data-name="Rectangle 10570" width="54.245" height="94.125" transform="translate(304.642 396.567)" fill="#1c0456"/>
        <rect id="Rectangle_10571" data-name="Rectangle 10571" width="54.245" height="68.618" transform="translate(304.642 336.149)" fill="#c1aaff"/>
        <path id="Path_30386" data-name="Path 30386" d="M354.226,151.31h-23.55a2.71,2.71,0,0,0-2.3,1.278l-7.954,12.771a1.6,1.6,0,0,1-2.776-.1L311.1,152.763a2.711,2.711,0,0,0-2.4-1.453H283.376a2.515,2.515,0,0,1-2.514-2.515V102.577a2.515,2.515,0,0,1,2.514-2.514h70.849a2.515,2.515,0,0,1,2.515,2.514v46.217a2.515,2.515,0,0,1-2.515,2.515" transform="translate(12.775 4.551)" fill="#15c4fa"/>
        <path id="Path_30387" data-name="Path 30387" d="M339.228,125.973a21.157,21.157,0,1,1-21.156-21.156,21.156,21.156,0,0,1,21.156,21.156" transform="translate(13.505 4.768)" fill="#fff"/>
        <path id="Path_30388" data-name="Path 30388" d="M332.178,140.135a21.158,21.158,0,0,1-30.086-1.421c3.5-2.192,11.569-3.293,11.569-3.293a6.569,6.569,0,0,0,6.022,4.261c6.25.006,2.273-3.972,2.273-3.972l1.188.4.518.17,5.682,1.767a8.988,8.988,0,0,1,2.834,2.09" transform="translate(13.741 6.16)" fill="#321688"/>
        <path id="Path_30389" data-name="Path 30389" d="M326.812,121.495a2.841,2.841,0,0,1-2.841,2.841v-2.341a3.261,3.261,0,0,0-.625-1.932,3.363,3.363,0,0,0-2.716-1.408h-4.114a3.219,3.219,0,0,0-1.244.244,3.277,3.277,0,0,0-.983.62,3.34,3.34,0,0,0-1.1,2.131.21.21,0,0,0,0,.063,2.264,2.264,0,0,0-.018.283v3.12c-.255-.364-1.539-2.079-2.556-1.062,0,0-1.927,1.4-.347,2.778a3.125,3.125,0,0,1-1.392-5.443,3.406,3.406,0,0,1-.819-2.239,3.235,3.235,0,0,1,3.125-3.335,2.883,2.883,0,0,1,1.012.182,3.982,3.982,0,0,1-.16-1.108,4.377,4.377,0,0,1,4.546-4.187,4.479,4.479,0,0,1,4.438,3.279A3.408,3.408,0,0,1,325.5,119.1a2.827,2.827,0,0,1,1.312,2.392" transform="translate(13.999 5.035)"/>
        <path id="Path_30390" data-name="Path 30390" d="M323.89,121.648v4.745a3.858,3.858,0,0,1-3.847,3.845h-3.607a3.35,3.35,0,0,1-3.33-3.119l-.013.665a7.513,7.513,0,0,1-2.9-1.3c-1.58-1.375.347-2.779.347-2.779,1.016-1.016,2.3.7,2.556,1.063v-3.12a2.3,2.3,0,0,1,.017-.284.133.133,0,0,0,.028-.033.069.069,0,0,0-.028-.029,3.35,3.35,0,0,1,1.1-2.131,3.279,3.279,0,0,1,.983-.619,3.23,3.23,0,0,1,1.246-.245h4.112a3.364,3.364,0,0,1,3.342,3.341" transform="translate(14.081 5.381)" fill="#df792b"/>
        <path id="Path_30391" data-name="Path 30391" d="M323.467,144.863a21.283,21.283,0,0,1-12.216-.037l1.2-9.214a5.6,5.6,0,0,1,.9-.228c2.2.056,8.635.476,8.635.476l.624.209Z" transform="translate(14.157 6.158)" fill="#b996f9"/>
        <path id="Path_30392" data-name="Path 30392" d="M319.181,139.683a6.569,6.569,0,0,1-6.023-4.261l8.3.29s3.977,3.977-2.273,3.972" transform="translate(14.244 6.16)" fill="#df792b"/>
        <path id="Path_30393" data-name="Path 30393" d="M313.158,135.706l1.477-6.529,4.546.23,3.5,8.67" transform="translate(14.244 5.876)" fill="#df792b"/>
        <path id="Path_30394" data-name="Path 30394" d="M323.862,125.966c0,3.432-2.447,6.215-5.466,6.215s-5.466-2.783-5.466-6.215,2.447-6.215,5.466-6.215,5.466,2.783,5.466,6.215" transform="translate(14.234 5.447)" fill="#df792b"/>
        <path id="Path_30395" data-name="Path 30395" d="M312.48,136.15l-1.18,8.607a20.884,20.884,0,0,1-3.564-1.477Z" transform="translate(13.998 6.193)" fill="#5b2ec9"/>
        <path id="Path_30396" data-name="Path 30396" d="M326.339,143.481a20.918,20.918,0,0,1-3.2,1.279l-.806-8.281Z" transform="translate(14.661 6.208)" fill="#5b2ec9"/>
        <rect id="Rectangle_10572" data-name="Rectangle 10572" width="54.245" height="40.279" transform="translate(221.847 230.224)" fill="#1c0456"/>
        <rect id="Rectangle_10573" data-name="Rectangle 10573" width="54.245" height="89.813" transform="translate(221.847 270.504)" fill="#380f91"/>
        <rect id="Rectangle_10574" data-name="Rectangle 10574" width="54.245" height="17.675" transform="translate(221.847 473.017)" fill="#ece7f4"/>
        <rect id="Rectangle_10575" data-name="Rectangle 10575" width="54.245" height="113.486" transform="translate(221.847 359.531)" fill="#bd8fff"/>
        <rect id="Rectangle_10576" data-name="Rectangle 10576" width="54.245" height="55.384" transform="translate(141.289 74.144)" fill="#5b2ec7"/>
        <rect id="Rectangle_10577" data-name="Rectangle 10577" width="54.245" height="147.905" transform="translate(141.289 129.527)" fill="#d8cdff"/>
        <rect id="Rectangle_10578" data-name="Rectangle 10578" width="54.245" height="130.67" transform="translate(141.289 360.022)" fill="#ece7f4"/>
        <rect id="Rectangle_10579" data-name="Rectangle 10579" width="54.245" height="95.259" transform="translate(141.289 276.146)" fill="#a152fa"/>
        <rect id="Rectangle_10580" data-name="Rectangle 10580" width="54.245" height="54.218" transform="translate(141.289 222.999)" fill="#380f91"/>
        <path id="Path_30397" data-name="Path 30397" d="M181.27,25.689A19.517,19.517,0,1,1,161.753,6.172,19.517,19.517,0,0,1,181.27,25.689" transform="translate(6.47 0.281)" fill="#fff"/>
        <path id="Path_30398" data-name="Path 30398" d="M154.744,17.6s-2.9,8.638,2.6,13.167c0,0,4.949,1.224,6.219-2.071l.054-1.232s2.152-2.645.692-4c0,0-9.748-5.085-9.569-5.861" transform="translate(7.004 0.801)" fill="#ff9945"/>
        <path id="Path_30399" data-name="Path 30399" d="M154.566,33.065s3.382-.742,3.382-3.728c0,0,4.7.808,5.647-1.517,0,0,.038,5.427,5.3,6.457,0,0-12.724,1.77-14.328-1.212" transform="translate(7.031 1.265)" fill="#ff9945"/>
        <path id="Path_30400" data-name="Path 30400" d="M173.973,39.483a19.512,19.512,0,0,1-25.738-.665c1.858-2.895,4.371-5.771,6.459-6.236,3.035,3.033,11.377,1.516,14.41,1.516,3.151,1.312,4.479,3.322,4.869,5.385" transform="translate(6.743 1.482)" fill="#9f52f8"/>
        <path id="Path_30401" data-name="Path 30401" d="M175.818,38.815a19.516,19.516,0,0,1-4.015,3.255c-.2.064-.316.088-.316.088L169.052,35.3a6.623,6.623,0,0,1-5-7.626c2.544-3.265,0-3.994,0-3.994-3.067-.4-8.324-5.1-8.324-5.1-1.415.734-1.084,4.058-1.084,4.058-.006,6.66,3.125,7.677,3.125,7.677,1.077,1.346,4.2,10.5,1.63,13.047a6.658,6.658,0,0,1-1.648,1.179A19.536,19.536,0,0,1,144.8,35.275c1.265-4.493,7.044-6.21,7.044-6.21-2.187-4.991,1.215-11.222,1.215-11.222,5.884-8.731,13.443-4.365,13.443-4.365,10.6,6.231,4.921,14.153,4.921,14.153,4.3.432,5.168,6.422,5.168,6.422a8.035,8.035,0,0,1-.771,4.762" transform="translate(6.586 0.563)" fill="#1c0456"/>
        <rect id="Rectangle_10581" data-name="Rectangle 10581" width="54.245" height="22.824" transform="translate(62.409 86.564)" fill="#5b2ec7"/>
      </g>
    </g>
  </g>
</svg>
