<svg xmlns="http://www.w3.org/2000/svg" xmlns:xlink="http://www.w3.org/1999/xlink" width="619" height="552" viewBox="0 0 619 552">
  <defs>
    <clipPath id="clip-path">
      <rect id="Rectangle_10465" data-name="Rectangle 10465" width="605.165" height="496.977" fill="none"/>
    </clipPath>
  </defs>
  <g id="Group_18122" data-name="Group 18122" transform="translate(-1194 -2937)">
    <rect id="Rectangle_10431" data-name="Rectangle 10431" width="619" height="552" transform="translate(1194 2937)" fill="#fff"/>
    <g id="Group_17936" data-name="Group 17936" transform="translate(1200.917 2992.023)">
      <g id="Group_17935" data-name="Group 17935" clip-path="url(#clip-path)">
        <path id="Path_28922" data-name="Path 28922" d="M336.526,460.542v29.381a6.882,6.882,0,0,0,6.882,6.882h64.1l-4.494-10.665L372.9,470.394a5.041,5.041,0,0,1-2.7-4.162l-.348-5.69Z" fill="#10005c"/>
        <path id="Path_28923" data-name="Path 28923" d="M265.215,460.542,260.7,490.654a7.221,7.221,0,0,1-7.142,6.151H190.239l6.076-8.532,33.838-17.915a8.556,8.556,0,0,0,3.651-3.738l3.037-6.078Z" fill="#10005c"/>
        <path id="Path_28924" data-name="Path 28924" d="M224.641,250.428l-.868,1.657a22.855,22.855,0,0,1-8.484,8.987l-30.76,18.456-3.626,1.813h57.8a3.754,3.754,0,0,0,3.753-3.845l-.673-27.8Z" fill="#e0792b"/>
        <path id="Path_28925" data-name="Path 28925" d="M434,135.609s-4.012,14.954-20.79,45.592c-14.983,27.361-37.472,5.7-43.738.114-2.583-2.3-8.784-11.056-8.784-11.056l-3.908-47.618,7.252,89.5-16.318,1.233L345.9,179.5l-54.395,1.16-5.439,33.29H267.935l19.945-90.658L247.99,252.028l-34.45-1.813S258.869,105.162,266.122,96.1,306.737,82.48,306.737,82.48s4.714,13.6,19.219,13.6C345.9,96.1,333.209,83.4,333.209,83.4L337,84.674l1.65.544,18.132,5.638c9.066,3.808,16.318,16.12,16.318,16.12l18.132,43.515,19.945-36.263Z" fill="#321689"/>
        <path id="Path_28926" data-name="Path 28926" d="M291.506,180.663,304.2,83.088a18.054,18.054,0,0,1,2.874-.73c7.019.183,27.552,1.521,27.552,1.521l1.991.668L345.9,179.5Z" fill="#ba97fa"/>
        <path id="Path_28927" data-name="Path 28927" d="M293.484,182.429l52.885-1.084L373.1,461.971H327.863L309.769,240.585,273.388,461.971H224.419l49.893-247.534h13.744Z" fill="#321689"/>
        <path id="Path_28928" data-name="Path 28928" d="M413.21,116.278s9.118-17.872,10.657-20.181a16.434,16.434,0,0,1,9.065-7.253s12.692-3.626,14.506-3.626-3.627,5.439-3.627,5.439L442,92.47s25.384-3.626,25.384-1.813-9.065,5.44-9.065,5.44,9.065-1.814,9.065,1.813S442,110.6,442,110.6l-10.186,23.183Z" fill="#e0792b"/>
        <path id="Path_28929" data-name="Path 28929" d="M349.527,34.45a9.069,9.069,0,0,1-9.066,9.066v-7.47A10.734,10.734,0,0,0,329.8,25.384H316.673a10.263,10.263,0,0,0-3.971.78,10.436,10.436,0,0,0-3.137,1.976,10.663,10.663,0,0,0-3.5,6.8.744.744,0,0,0,0,.2,7.229,7.229,0,0,0-.055.907V46c-.816-1.161-4.913-6.636-8.159-3.391,0,0-6.147,4.479-1.106,8.867A9.974,9.974,0,0,1,292.3,34.1a10.862,10.862,0,0,1-2.611-7.143c0-5.875,4.46-10.644,9.972-10.644a9.172,9.172,0,0,1,3.228.581,12.7,12.7,0,0,1-.508-3.536C302.385,5.983,308.876,0,316.89,0c6.926,0,12.729,4.478,14.161,10.462a10.875,10.875,0,0,1,14.288,16.355,9.02,9.02,0,0,1,4.188,7.633"/>
        <path id="Path_28930" data-name="Path 28930" d="M340.461,36.045V51.187A12.309,12.309,0,0,1,328.189,63.46H316.672a10.691,10.691,0,0,1-10.625-9.954l-.036,2.121c-4.714-1.269-7.6-2.72-9.265-4.152-5.041-4.388,1.106-8.866,1.106-8.866,3.245-3.246,7.343,2.23,8.159,3.39V36.045a7.44,7.44,0,0,1,.054-.907.459.459,0,0,0,.091-.108.211.211,0,0,0-.091-.091,10.664,10.664,0,0,1,3.5-6.8,10.447,10.447,0,0,1,3.137-1.977,10.276,10.276,0,0,1,3.97-.779H329.8a10.725,10.725,0,0,1,10.661,10.661" fill="#e0792b"/>
        <path id="Path_28931" data-name="Path 28931" d="M325.956,96.079c-14.505,0-19.219-13.6-19.219-13.6l26.472.925S345.9,96.1,325.956,96.079" fill="#e0792b"/>
        <path id="Path_28932" data-name="Path 28932" d="M306.737,82.48l4.714-20.833,14.505.733,11.154,27.665" fill="#e0792b"/>
        <path id="Path_28933" data-name="Path 28933" d="M303.789,84.911l-15.758,23.681,7.756,34.676Z" fill="#5b2eca"/>
        <path id="Path_28934" data-name="Path 28934" d="M337.345,86.005l14.163,24.746-8.03,38.268Z" fill="#5b2eca"/>
        <path id="Path_28935" data-name="Path 28935" d="M274.312,215.765v-1.813h11.754l5.44-33.29L345.9,179.5v1.813l-52.416,1.157-5.428,33.293Z"/>
        <line id="Line_1550" data-name="Line 1550" x2="55.649" transform="translate(291.506 189.918)" fill="none" stroke="#000" stroke-miterlimit="10" stroke-width="1.813"/>
        <line id="Line_1551" data-name="Line 1551" y1="2.976" x2="10.292" transform="translate(350.078 192.288)" fill="none" stroke="#000" stroke-miterlimit="10" stroke-width="1.36"/>
        <line id="Line_1552" data-name="Line 1552" y1="2.37" x2="13.719" transform="translate(274.312 189.918)" fill="none" stroke="#000" stroke-miterlimit="10" stroke-width="1.36"/>
        <path id="Path_28936" data-name="Path 28936" d="M362.147,171.718l-1.541-1.858-3.771-46.544Z"/>
        <path id="Path_28937" data-name="Path 28937" d="M268.231,212.608H260.2l27.675-89.313-19.945,90.658"/>
        <path id="Path_28938" data-name="Path 28938" d="M143.185,451.476l-4.031,16.817,11.785,5.44,12.191-12.692v-9.565" fill="#f8a257"/>
        <path id="Path_28939" data-name="Path 28939" d="M126.921,177.78a37.283,37.283,0,0,1,1.559,5.458,7.64,7.64,0,0,1-1.613-.109c-.834-2.72.272-4.932.054-5.349" fill="#e17269"/>
        <path id="Path_28940" data-name="Path 28940" d="M146.811,145.052v.471a21.1,21.1,0,0,1-6.8,5.694,22.973,22.973,0,0,0,6.8-6.165" fill="#e17269"/>
        <path id="Path_28941" data-name="Path 28941" d="M146.811,298.356s85.415-3.971,98.817,18.039c19.006,31.214,58.021,134.174,58.021,134.174L263.76,474.14,207.552,345.406l-56.208-1.813Z" fill="#5535c3"/>
        <path id="Path_28942" data-name="Path 28942" d="M135.025,451.476l38.076,1.813L201,337.309H153.565Z" fill="#5535c3"/>
        <path id="Path_28943" data-name="Path 28943" d="M143.986,469.838l-4.428-2.044s-7.252,5.44-9.065,21.758V496.8h82.73l-.552-1.05a32.567,32.567,0,0,0-11.959-12.706l-37.177-22.507-6.577,6.847a11.377,11.377,0,0,1-12.972,2.449" fill="#dad2ff"/>
        <path id="Path_28944" data-name="Path 28944" d="M146.811,164.585v5.059a14.547,14.547,0,0,1-14.505,14.505c-.78,0-2.466.109-3.826.109a37.423,37.423,0,0,0-1.559-5.458.854.854,0,0,1-.055-.09l3.627-12.693c-.472.055-.943.091-1.378.127-.381.018-.744.018-1.088.037-12.439.09-5.331-11.967-4.823-12.8a.246.246,0,0,1,.036-.055c5.439-9.065,10.879,1.814,10.879,1.814a34.537,34.537,0,0,0,5.675-2.757,1.446,1.446,0,0,0,.218-.145,21.109,21.109,0,0,0,6.8-5.693v12.33s7.253,2.484,0,5.711" fill="#f8a257"/>
        <path id="Path_28945" data-name="Path 28945" d="M104.2,183.243a46.123,46.123,0,0,0,26.291,5.112s22.664,9.393,38.983,45.656c0,0,14.505,23.571,43.515,23.571l-5.439,23.572s-54.4,9.065-88.845-54.395L162.223,301.1s-61.647-9.066-96.1,3.627l12.692-79.779-15.8,79.779S52.481,302.21,41.544,300.4c0,0,9.421-105.361,46.012-119.417Z" fill="#ba97fa"/>
        <path id="Path_28946" data-name="Path 28946" d="M207.552,281.153l4.776-20.694s30.407,2.562,44.546,20.694Z" fill="#f8a257"/>
        <path id="Path_28947" data-name="Path 28947" d="M146.811,146.544a21.109,21.109,0,0,1-6.8,5.693,1.446,1.446,0,0,1-.218.145,47.532,47.532,0,0,1-5.675,2.756s-5.44-10.879-10.879-1.813a.218.218,0,0,0-.036.055c-.508.834-7.616,12.891,4.823,12.8.344-.018.707-.018,1.088-.036.435-.018.888-.072,1.378-.127l-3.627,12.692a.8.8,0,0,0,.055.091,37.423,37.423,0,0,1,1.559,5.458c.254,1.233.508,2.647.671,4.188.87,8.25-2.624,48.486-51.113,40.452a23.489,23.489,0,0,1-15.854-11.483,8.4,8.4,0,0,1-1.023-3.065l0-.03c-.979-7.561-2.919-40.851,34.8-58.366,0,0,4.078-19.975,20.727-25.525,16.413-5.471,25.167-.729,30.273,4.012,1.924,1.786,4.066,6.265-.141,12.1"/>
        <path id="Path_28948" data-name="Path 28948" d="M279.853,469.318s-8.84,22.047-5.214,27.487h81.573L354.4,493.78a28.9,28.9,0,0,0-9.6-9.744l-37.974-23.494-15.875,12.692-9.065-5.44Z" fill="#dad2ff"/>
        <path id="Path_28949" data-name="Path 28949" d="M279.079,465.088l2.813,5.426,4.005,2.4a8.49,8.49,0,0,0,9.67-.649l11.265-9.007-7.711-10.016Z" fill="#f8a257"/>
        <path id="Path_28950" data-name="Path 28950" d="M357.394,281.275H293.512V276.95h61.724l19.675-66.624s4-7.156,11.971-6.3l-26.09,77.247Z" fill="#5535c3"/>
        <path id="Path_28951" data-name="Path 28951" d="M467.406,281.439l-108.2-.164,16.69-67.345c1.674-6.391,6.265-10.03,11.7-10.021l92.081.139c3.477.006,5.993,3.808,5.036,7.612Z" fill="#5535c3"/>
        <path id="Path_28952" data-name="Path 28952" d="M427.879,247.533c-1.017,4.009-4.856,7.242-8.574,7.221s-5.908-3.287-4.891-7.3,4.856-7.242,8.574-7.221,5.908,3.287,4.891,7.3" fill="#c1b0ff"/>
        <path id="Path_28953" data-name="Path 28953" d="M423.616,464.168l1.813,10.879-7.252,5.439L399.2,474.594l-.964-8.613Z" fill="#f8a257"/>
        <path id="Path_28954" data-name="Path 28954" d="M500.675,167.717l3.372-10.68,1.233,15.43c-4.442-2.52-4.605-4.75-4.605-4.75" fill="#efa47c"/>
        <path id="Path_28955" data-name="Path 28955" d="M527.872,171.343c1.269,6.31,4.279,9.991,7.688,12.112a17.173,17.173,0,0,1-11.623,5.929,15.419,15.419,0,0,1-2.411.018,17.281,17.281,0,0,1-16.137-15.811l-1.342-16.554-.707-8.739a16.711,16.711,0,0,1,.508-5.73,54.378,54.378,0,0,0,11.332,7.017c0,10.879,5.439,14.5,5.439,14.5,1.813,0,3.627-5.439,3.627-5.439,5.439-10.879,12.692-3.626,12.692-3.626,7.252,12.692-9.066,16.318-9.066,16.318" fill="#f8a257"/>
        <path id="Path_28956" data-name="Path 28956" d="M556.883,196.727H524.192l-2.666-7.325a15.432,15.432,0,0,0,2.412-.018,17.168,17.168,0,0,0,11.622-5.929h.037c6.364,3.934,14.033,2.393,14.033,2.393Z" fill="#f8a257"/>
        <path id="Path_28957" data-name="Path 28957" d="M468.038,234.8s12.924-13.038,20.967-24.65,35.183-13.425,35.183-13.425h32.7s30.823-1.813,32.637,23.571l.906,17.224-89.751-1.62-7.253,22.471Z" fill="#efebf7"/>
        <path id="Path_28958" data-name="Path 28958" d="M426.335,466.888H382.221l-2.932-128.173a33.046,33.046,0,0,1,4.647-17.865A29.529,29.529,0,0,1,392.2,311.9a28.317,28.317,0,0,1,14.147-4.982l65.316-5.028L483.773,281.3,470.724,344.6l-50.7-.73Z" fill="#5535c3"/>
        <path id="Path_28959" data-name="Path 28959" d="M442.654,469.607h44.808l-12.5-127.557H433.313Z" fill="#5535c3"/>
        <path id="Path_28960" data-name="Path 28960" d="M487.983,474.14l-7.253,7.253-18.131-5.44v-6.269h24.863Z" fill="#f8a257"/>
        <path id="Path_28961" data-name="Path 28961" d="M399.2,470.967l-31.727,15.839a13.359,13.359,0,0,0-6.992,8.71l-.322,1.288h69.9l-4.629-25.384-.223.168a17.2,17.2,0,0,1-15.421,2.666Z" fill="#efebf7"/>
        <path id="Path_28962" data-name="Path 28962" d="M487.983,470.514l5.5,26.291h-77l46.12-24.478,11.215,3.365a12.088,12.088,0,0,0,12.022-3.031Z" fill="#efebf7"/>
        <path id="Path_28963" data-name="Path 28963" d="M549.63,185.848s-7.67,1.541-14.034-2.393h-.036c-3.409-2.122-6.419-5.8-7.688-12.112,0,0,16.319-3.627,9.066-16.319,0,0-7.253-7.252-12.692,3.627,0,0-1.813,5.439-3.626,5.439,0,0-5.44-3.626-5.44-14.5a54.406,54.406,0,0,1-11.332-7.017s-3.881-6.083,3.35-14.983c4.741-5.836,25.531-11.307,40.485,5.471,0,0,10.578,2.188,14.225,14.954s-2.553,30.638-12.278,37.838"/>
        <path id="Path_28964" data-name="Path 28964" d="M442.654,211.232s-1.813-14.5-5.439-16.318-3.627,10.879-3.627,10.879l-9.066-18.132s-9.683,3.627-6.654,23.571l33.852,59.834s14.505,21.758,34.45,1.813l4.533-17.225L471.79,238.288l-1.939,5.581Z" fill="#f8a257"/>
        <path id="Path_28965" data-name="Path 28965" d="M340.86,50.033c0,10.953-7.809,19.833-17.441,19.833s-17.442-8.88-17.442-19.833S313.786,30.2,323.419,30.2s17.441,8.88,17.441,19.833" fill="#e0792b"/>
        <path id="Path_28966" data-name="Path 28966" d="M253.426,234.493l-.562,1.813H217.919c.182-.587.376-1.193.573-1.813Z"/>
        <path id="Path_28967" data-name="Path 28967" d="M243.938,237.622l1.346-6.331h35.855l1.3,6.331Z" fill="#ba97fa"/>
        <path id="Path_28968" data-name="Path 28968" d="M245.284,237.619l2.962,44.15H278l2.288-44.146Z" fill="#5535c3"/>
        <path id="Path_28969" data-name="Path 28969" d="M246.222,251.611l33.562-4.3-1.4,27.07-30.785-2.3-1.335-19.9" fill="#ba97fa"/>
        <path id="Path_28970" data-name="Path 28970" d="M427.07,153.481l-.729,1.459-25.9-21.155,1.094-2.188Z"/>
        <path id="Path_28971" data-name="Path 28971" d="M605.165,496.977h-9.093l-74.5-210.671,18.126-.365Z" fill="#9283dd"/>
        <path id="Path_28972" data-name="Path 28972" d="M0,496.977H9.093l74.5-210.671-18.125-.365Z" fill="#9283dd"/>
        <rect id="Rectangle_10464" data-name="Rectangle 10464" width="595.22" height="26.599" transform="translate(4.973 281.33)" fill="#9283dd"/>
        <path id="Path_28973" data-name="Path 28973" d="M600.528,224.261,579.285,334.448a13.2,13.2,0,0,1-12.965,10.7H468.5A13.571,13.571,0,0,0,481.833,334.1l21.324-112.582H598.27a2.3,2.3,0,0,1,2.258,2.739" fill="#c1b0ff"/>
        <path id="Path_28974" data-name="Path 28974" d="M503.156,221.522,481.832,334.105A13.57,13.57,0,0,1,468.5,345.15H420.058v-1.3a12.837,12.837,0,0,1,12.432-12.832l29.024-.913a12.809,12.809,0,0,0,12.088-9.963L494.518,228.1a8.445,8.445,0,0,1,8.234-6.573Z" fill="#dad2ff"/>
        <path id="Path_28975" data-name="Path 28975" d="M575.889,356.258A13.779,13.779,0,0,0,562.3,344.433H431.978a13.681,13.681,0,0,0-13.531,11.474L396.132,496.8h7.185l10.942-69.092H463.43L452.487,496.8h7.186l10.942-69.092h51.121l9.057,69.092h7.156L528.9,427.713h49.2l9.056,69.092H594.3ZM464.553,420.619h-49.17l10.067-63.566a6.6,6.6,0,0,1,6.528-5.522h44.341a13.805,13.805,0,0,0-1.517,4.376Zm7.185,0L481.8,357.053a6.6,6.6,0,0,1,6.529-5.522h17.613a6.638,6.638,0,0,1,6.551,5.679l8.308,63.409Zm56.228,0-8.436-64.361a13.465,13.465,0,0,0-1.583-4.727H562.3a6.638,6.638,0,0,1,6.551,5.679l8.309,63.409Z" fill="#c1b0ff"/>
        <path id="Path_28976" data-name="Path 28976" d="M29.729,224.261,50.972,334.448a13.2,13.2,0,0,0,12.965,10.7h97.824A13.57,13.57,0,0,1,148.424,334.1L127.1,221.522H31.987a2.3,2.3,0,0,0-2.258,2.739" fill="#c1b0ff"/>
        <path id="Path_28977" data-name="Path 28977" d="M127.1,221.522l21.324,112.583A13.569,13.569,0,0,0,161.76,345.15H210.2v-1.3a12.837,12.837,0,0,0-12.432-12.832l-29.024-.913a12.809,12.809,0,0,1-12.088-9.963L135.738,228.1a8.445,8.445,0,0,0-8.234-6.573Z" fill="#dad2ff"/>
        <path id="Path_28978" data-name="Path 28978" d="M54.367,356.258a13.779,13.779,0,0,1,13.587-11.825H198.278a13.681,13.681,0,0,1,13.531,11.474l22.315,140.9h-7.185L216,427.713H166.826L177.768,496.8h-7.185l-10.942-69.092H108.52L99.463,496.8H92.307l9.053-69.092h-49.2L43.108,496.8H35.952ZM165.7,420.619h49.17l-10.067-63.566a6.6,6.6,0,0,0-6.528-5.522H153.937a13.805,13.805,0,0,1,1.517,4.376Zm-7.185,0-10.067-63.566a6.6,6.6,0,0,0-6.529-5.522H124.309a6.638,6.638,0,0,0-6.551,5.679l-8.308,63.409Zm-56.228,0,8.436-64.361a13.464,13.464,0,0,1,1.583-4.727H67.954A6.638,6.638,0,0,0,61.4,357.21l-8.309,63.409Z" fill="#c1b0ff"/>
        <path id="Path_28979" data-name="Path 28979" d="M69.15,373.966c4.393-25.8,13.927-69.933,20.425-83.272s16.37-11.552,20.259-6.828,10.228,24.481,4.031,49.527c-5.578,22.54-14.845,61.774-14.845,61.774Z" fill="#d9ceff"/>
        <path id="Path_28980" data-name="Path 28980" d="M103.445,293.275c-4.774,28.743-10.072,57.439-16.926,85.767-.435,1.664-1.144,4.1-1.723,5.716l-2.537-1.027L83.2,381.1c4.2-13.9,7.278-28.12,10.551-42.262,3.484-15.049,6.568-30.68,9.691-45.561" fill="#e8e5f5"/>
        <path id="Path_28981" data-name="Path 28981" d="M71.982,425.528c.9,3.682,1.689,6.91,2.383,9.736L31.58,423.158c-9.7-12.613-27.431-43.738-29.025-52.944-3.275-18.9,6.463-27.4,17.268-29.923,5.064-1.179,12.327-1.176,20.034,5.023a36.863,36.863,0,0,1,3.813,3.564c.074.079.146.16.219.238h0a49.7,49.7,0,0,1,3.98,4.967q1.088,1.536,2.167,3.285c.262.42.521.848.778,1.288a89.055,89.055,0,0,1,4.307,8.333q.3.651.593,1.321.544,1.24,1.083,2.547,1.526,3.691,3,7.958.834,2.426,1.648,5.048,1.755,5.649,3.395,12.248.185.738.365,1.487c.107.442.213.879.318,1.315l0,.02c.053.219.106.441.159.661q1.037,4.293,1.972,8.152.726,2.986,1.389,5.729c.013.053.026.109.039.163q.4,1.62.767,3.155c.731,3.01,1.406,5.783,2.031,8.339.031.132.063.264.1.4" fill="#c2abff"/>
        <path id="Path_28982" data-name="Path 28982" d="M52.243,422.551c-3.929-13.427-7.763-25.783-13.318-37.861a96.7,96.7,0,0,0-5.651-10.68c-3.08-5.091-6.563-10.092-11.383-13.6a36.942,36.942,0,0,0-5.216-2.944,1.18,1.18,0,1,1,1.238-2.008c.711.431,1.732.9,2.628,1.431,13.412,7.765,21.994,32.231,26.127,45.358,1.221,3.9,2.913,9.564,3.892,13.491l1.809,6.78a.065.065,0,0,1-.126.033" fill="#dad3f1"/>
        <path id="Path_28983" data-name="Path 28983" d="M97.193,448.438l-32.7-18.87c-.049-1.074-.087-2.175-.113-3.292-.118-4.77-.035-9.9.232-15.218q.125-2.426.3-4.9c.151-2.168.332-4.358.542-6.557.02-.219.042-.437.064-.656,0-.012,0-.024,0-.035q.111-1.135.234-2.273c.494-4.626,1.111-9.272,1.844-13.83q.4-2.482.842-4.922.357-1.967.743-3.9.57-2.84,1.2-5.584.744-3.242,1.57-6.306.746-2.772,1.557-5.364c.736-2.354,1.512-4.588,2.325-6.675.3-.763.6-1.509.909-2.232q.537-1.268,1.1-2.447.406-.859.826-1.67c2.613-5.069,5.528-8.639,8.7-10.054h0A7.336,7.336,0,0,1,90.941,333c.172.012.343.031.513.056l.006,0a7.761,7.761,0,0,1,2.36.734,9.219,9.219,0,0,1,1.526.946,16.287,16.287,0,0,1,4.223,5.2,33.3,33.3,0,0,1,1.962,4.3,51.947,51.947,0,0,1,1.593,4.952c.138.508.271,1.029.4,1.56q.253,1.034.486,2.117c.375,1.738.711,3.567,1,5.476.218,1.4.413,2.85.585,4.335q.19,1.647.347,3.362c.014.143.028.287.039.432.409,4.63.621,9.6.635,14.8.012,3.258-.057,6.61-.205,10.028q-.141,3.33-.386,6.74-.125,1.762-.277,3.544-.178,2.071-.391,4.167-.342,3.334-.777,6.71-.392,3.035-.861,6.088-.7,4.551-1.568,9.1-.433,2.275-.913,4.541c-1.158,5.495-2.507,10.936-4.052,16.241" fill="#d6c5f4"/>
        <path id="Path_28984" data-name="Path 28984" d="M81.378,439.33c7.841-31.625,10-64.679,9.234-97.171a1.1,1.1,0,0,1,2.206,0c-.012,32.4-2.641,66.281-11.44,97.174" fill="#eae5f8"/>
        <path id="Path_28985" data-name="Path 28985" d="M87.947,443.1,49.161,420.719c-.087-3.369-.242-7.029-.447-10.9-.143-2.646-.309-5.392-.495-8.218q-.171-2.6-.363-5.278c-.243-3.412-.512-6.913-.795-10.466q-.273-3.429-.566-6.911c-.308-3.7-.629-7.428-.954-11.142q-.18-2.057-.36-4.1-.189-2.159-.379-4.3c-.308-3.48-.615-6.92-.911-10.286h0c-.016-.179-.032-.358-.047-.536-.265-3.017-.523-5.975-.767-8.844-1.629-19.1-2.694-34.381-1.713-38.491,2.639-11.067,9.085-22.753,16.581-15.222,1.5,1.512,4.074,7.158,7.116,15.619.71,1.972,1.445,4.1,2.2,6.363,1.2,3.608,2.449,7.565,3.709,11.8q.333,1.115.666,2.254.585,2,1.172,4.071c1.112,3.936,2.226,8.062,3.317,12.328q.667,2.61,1.321,5.284c.134.545.27,1.092.4,1.641q.3,1.231.593,2.475c.18.758.356,1.522.536,2.29.845,3.656,1.666,7.381,2.451,11.152q.772,3.725,1.5,7.5c.019.088.036.178.05.267q.339,1.761.661,3.53.578,3.176,1.112,6.366c.059.352.116.7.173,1.055.135.809.264,1.616.392,2.424q.264,1.677.515,3.356.217,1.457.423,2.909c.16,1.142.318,2.282.465,3.419q.439,3.331.8,6.631.271,2.439.5,4.851.083.828.152,1.655c.447,5.057.747,10.017.867,14.816.011.452.022.9.03,1.35q.035,1.895.033,3.753,0,1.924-.051,3.806c-.018.78-.045,1.552-.075,2.319-.165,4.122-.5,8.072-1.017,11.795" fill="#d3b6f3"/>
        <path id="Path_28986" data-name="Path 28986" d="M69.186,432.313c-.809-43.024-5.068-86.241-16.066-127.923a2.62,2.62,0,1,1,5.089-1.239c9.273,42.165,12.268,86.449,10.977,129.162" fill="#e8e1f2"/>
        <path id="Path_28987" data-name="Path 28987" d="M70.818,433.217,46.883,419.4c-.915-6.432-1.789-13.373-2.476-20.007q-.192-1.853-.363-3.67h0q-.081-.855-.157-1.7c-.333-3.713-.59-7.243-.743-10.437-.123-2.576-.179-4.929-.153-6.981a40.8,40.8,0,0,1,.307-4.927c.035-.263.076-.513.119-.748a51.649,51.649,0,0,1,1.763-7.236c1.111-3.257,2.623-5.684,4.857-6.33a4.509,4.509,0,0,1,1.612-.158c1.624.126,3.567,1.044,5.9,3a21.936,21.936,0,0,1,1.641,1.523,32.3,32.3,0,0,1,4.094,5.263,48.774,48.774,0,0,1,3.6,6.9c.045.107.092.215.136.323q.74,1.749,1.413,3.669a76.522,76.522,0,0,1,2.9,10.969l.027.141q.319,1.7.585,3.487.484,3.279.763,6.839c.037.46.071.922.1,1.39.208,3.208.28,6.584.195,10.12-.011.434-.023.871-.039,1.31q-.06,1.789-.176,3.634c-.19,3.011-.488,6.131-.912,9.353-.006.05-.012.1-.019.147-.011.073-.019.146-.029.218-.384,2.911-.723,5.472-1.019,7.719" fill="#d9c6ef"/>
        <path id="Path_28988" data-name="Path 28988" d="M54.566,369.37c3.152,9.167,4.014,18.993,4.873,28.6a259.921,259.921,0,0,1,.629,29.006l-.13,0C58.282,407.822,57.2,388.2,54.566,369.37" fill="#e6e5f8"/>
        <path id="Path_28989" data-name="Path 28989" d="M17.44,417.734h94.092l-14.85,79.242H31.641Z" fill="#321689"/>
      </g>
    </g>
  </g>
</svg>
