<svg xmlns="http://www.w3.org/2000/svg" xmlns:xlink="http://www.w3.org/1999/xlink" width="619" height="554.219" viewBox="0 0 619 554.219">
  <defs>
    <linearGradient id="linear-gradient" x1="1" y1="-0.051" x2="0.185" y2="1.013" gradientUnits="objectBoundingBox">
      <stop offset="0" stop-color="#15c6fc"/>
      <stop offset="0.507" stop-color="#377de3"/>
      <stop offset="1" stop-color="#5b2ec9"/>
    </linearGradient>
    <clipPath id="clip-path">
      <rect id="Rectangle_10544" data-name="Rectangle 10544" width="617.214" height="554.219" fill="none"/>
    </clipPath>
    <clipPath id="clip-path-3">
      <rect id="Rectangle_10530" data-name="Rectangle 10530" width="497.083" height="497.083" transform="translate(60.075 28.568)" fill="none"/>
    </clipPath>
    <clipPath id="clip-path-4">
      <rect id="Rectangle_10531" data-name="Rectangle 10531" width="501.003" height="501.003" transform="translate(58.115 26.608)" fill="none"/>
    </clipPath>
    <clipPath id="clip-path-5">
      <rect id="Rectangle_10532" data-name="Rectangle 10532" width="20.645" height="39.529" transform="translate(348.348 385.632)" fill="none"/>
    </clipPath>
    <clipPath id="clip-path-6">
      <rect id="Rectangle_10533" data-name="Rectangle 10533" width="10.323" height="19.135" transform="translate(361.188 344.844)" fill="none"/>
    </clipPath>
    <clipPath id="clip-path-7">
      <rect id="Rectangle_10534" data-name="Rectangle 10534" width="9.819" height="17.876" transform="translate(345.578 296.755)" fill="none"/>
    </clipPath>
    <clipPath id="clip-path-8">
      <rect id="Rectangle_10537" data-name="Rectangle 10537" width="14.351" height="39.394" transform="translate(234.167 385.641)" fill="none"/>
    </clipPath>
    <clipPath id="clip-path-9">
      <rect id="Rectangle_10538" data-name="Rectangle 10538" width="7.554" height="18.127" transform="translate(227.369 361.084)" fill="none"/>
    </clipPath>
    <clipPath id="clip-path-10">
      <rect id="Rectangle_10539" data-name="Rectangle 10539" width="7.805" height="18.38" transform="translate(248.518 330.367)" fill="none"/>
    </clipPath>
    <clipPath id="clip-path-11">
      <rect id="Rectangle_10540" data-name="Rectangle 10540" width="9.819" height="19.626" transform="translate(276.214 348.501)" fill="none"/>
    </clipPath>
    <clipPath id="clip-path-12">
      <rect id="Rectangle_10541" data-name="Rectangle 10541" width="7.805" height="16.618" transform="translate(295.726 268.052)" fill="none"/>
    </clipPath>
  </defs>
  <g id="Group_18116" data-name="Group 18116" transform="translate(-1194 -2935)">
    <g id="Group_17992" data-name="Group 17992" transform="translate(0 -1)">
      <rect id="Rectangle_10431" data-name="Rectangle 10431" width="619" height="552" transform="translate(1194 2937)" fill="url(#linear-gradient)"/>
    </g>
    <g id="Group_18059" data-name="Group 18059" transform="translate(1195 2935)">
      <g id="Group_18058" data-name="Group 18058" clip-path="url(#clip-path)">
        <g id="Group_18057" data-name="Group 18057">
          <g id="Group_18056" data-name="Group 18056" clip-path="url(#clip-path)">
            <g id="Group_18025" data-name="Group 18025" opacity="0.2">
              <g id="Group_18024" data-name="Group 18024">
                <g id="Group_18023" data-name="Group 18023" clip-path="url(#clip-path-3)">
                  <path id="Path_29713" data-name="Path 29713" d="M557.158,277.109c0,137.266-111.276,248.541-248.541,248.541S60.075,414.375,60.075,277.109,171.351,28.568,308.617,28.568,557.158,139.843,557.158,277.109" fill="#fff"/>
                </g>
              </g>
            </g>
            <g id="Group_18028" data-name="Group 18028" opacity="0.2">
              <g id="Group_18027" data-name="Group 18027">
                <g id="Group_18026" data-name="Group 18026" clip-path="url(#clip-path-4)">
                  <path id="Path_29714" data-name="Path 29714" d="M559.118,277.109c0,138.348-112.153,250.5-250.5,250.5s-250.5-112.154-250.5-250.5,112.153-250.5,250.5-250.5,250.5,112.154,250.5,250.5" fill="#fff"/>
                </g>
              </g>
            </g>
            <path id="Path_29715" data-name="Path 29715" d="M540.413,277.109c0,128.018-103.779,231.8-231.8,231.8s-231.8-103.778-231.8-231.8,103.779-231.8,231.8-231.8,231.8,103.778,231.8,231.8" fill="#fff"/>
            <path id="Path_29716" data-name="Path 29716" d="M451.118,197.28v16.088h-285V197.28A7.184,7.184,0,0,1,173.3,190.1H443.933a7.185,7.185,0,0,1,7.185,7.185" fill="#5b2ec9"/>
            <path id="Path_29717" data-name="Path 29717" d="M451.118,213.368V418.281a7.184,7.184,0,0,1-7.185,7.185H173.3a7.184,7.184,0,0,1-7.184-7.185V213.368Z" fill="#1c0456"/>
            <path id="Path_29718" data-name="Path 29718" d="M249.829,213.309V163.683A58.787,58.787,0,0,1,308.616,104.9h0A58.787,58.787,0,0,1,367.4,163.683v27.953" fill="none" stroke="#5b2ec9" stroke-miterlimit="10" stroke-width="32.111"/>
            <path id="Path_29719" data-name="Path 29719" d="M378.435,425.286h-41.04V267.674l41.04,2.266Z" fill="#15c7fd"/>
            <path id="Path_29720" data-name="Path 29720" d="M378.435,269.941l-56.272-32.353-40.284-3.525,55.516,33.612Z" fill="#44e8fd"/>
            <path id="Path_29721" data-name="Path 29721" d="M282.382,234.063l54.887,33.486V425.161H282.382Z" fill="#6327d3"/>
            <line id="Line_1580" data-name="Line 1580" y1="20.54" transform="translate(395.174 404.874)" fill="none" stroke="#893fcf" stroke-miterlimit="10" stroke-width="2.518"/>
            <g id="Group_18031" data-name="Group 18031" opacity="0.4" style="mix-blend-mode: multiply;isolation: isolate">
              <g id="Group_18030" data-name="Group 18030">
                <g id="Group_18029" data-name="Group 18029" clip-path="url(#clip-path-5)">
                  <path id="Path_29722" data-name="Path 29722" d="M368.993,425.161H348.347V395.955a10.323,10.323,0,0,1,20.646,0Z" fill="#0a0a21"/>
                </g>
              </g>
            </g>
            <g id="Group_18034" data-name="Group 18034" opacity="0.4" style="mix-blend-mode: multiply;isolation: isolate">
              <g id="Group_18033" data-name="Group 18033">
                <g id="Group_18032" data-name="Group 18032" clip-path="url(#clip-path-6)">
                  <path id="Path_29723" data-name="Path 29723" d="M366.35,363.979h0a5.161,5.161,0,0,1-5.161-5.161v-8.813a5.161,5.161,0,1,1,10.322,0v8.813a5.161,5.161,0,0,1-5.161,5.161" fill="#0a0a21"/>
                </g>
              </g>
            </g>
            <g id="Group_18037" data-name="Group 18037" opacity="0.4" style="mix-blend-mode: multiply;isolation: isolate">
              <g id="Group_18036" data-name="Group 18036">
                <g id="Group_18035" data-name="Group 18035" clip-path="url(#clip-path-7)">
                  <path id="Path_29724" data-name="Path 29724" d="M350.488,314.631h0a4.91,4.91,0,0,1-4.91-4.91v-8.056a4.91,4.91,0,1,1,9.82,0v8.056a4.91,4.91,0,0,1-4.91,4.91" fill="#0a0a21"/>
                </g>
              </g>
            </g>
            <path id="Path_29725" data-name="Path 29725" d="M317.633,298.264v126.9h-35.25V274.216c4.363-.374,8.9,2.647,10.575,8.692a22.323,22.323,0,0,1-.768,15.356Z" fill="#330ea4"/>
            <rect id="Rectangle_10535" data-name="Rectangle 10535" width="33.738" height="103.732" transform="translate(261.988 321.429)" fill="#c071fd"/>
            <rect id="Rectangle_10536" data-name="Rectangle 10536" width="42.802" height="103.732" transform="translate(219.186 321.429)" fill="#5b2eca"/>
            <line id="Line_1581" data-name="Line 1581" y2="22.238" transform="translate(203.963 403.143)" fill="none" stroke="#00c29c" stroke-miterlimit="10" stroke-width="2.518"/>
            <g id="Group_18040" data-name="Group 18040" opacity="0.4" style="mix-blend-mode: multiply;isolation: isolate">
              <g id="Group_18039" data-name="Group 18039">
                <g id="Group_18038" data-name="Group 18038" clip-path="url(#clip-path-8)">
                  <path id="Path_29726" data-name="Path 29726" d="M248.518,425.035H234.167V392.818a7.175,7.175,0,1,1,14.351,0Z" fill="#0a0a21"/>
                </g>
              </g>
            </g>
            <g id="Group_18043" data-name="Group 18043" opacity="0.4" style="mix-blend-mode: multiply;isolation: isolate">
              <g id="Group_18042" data-name="Group 18042">
                <g id="Group_18041" data-name="Group 18041" clip-path="url(#clip-path-9)">
                  <path id="Path_29727" data-name="Path 29727" d="M231.146,379.211h0a3.777,3.777,0,0,1-3.777-3.777V364.86a3.777,3.777,0,0,1,7.554,0v10.574a3.777,3.777,0,0,1-3.777,3.777" fill="#0a0a21"/>
                </g>
              </g>
            </g>
            <g id="Group_18046" data-name="Group 18046" opacity="0.4" style="mix-blend-mode: multiply;isolation: isolate">
              <g id="Group_18045" data-name="Group 18045">
                <g id="Group_18044" data-name="Group 18044" clip-path="url(#clip-path-10)">
                  <path id="Path_29728" data-name="Path 29728" d="M252.421,348.746h0a3.9,3.9,0,0,1-3.9-3.9V334.27a3.9,3.9,0,0,1,7.806,0v10.573a3.9,3.9,0,0,1-3.9,3.9" fill="#0a0a21"/>
                </g>
              </g>
            </g>
            <g id="Group_18049" data-name="Group 18049" opacity="0.4" style="mix-blend-mode: multiply;isolation: isolate">
              <g id="Group_18048" data-name="Group 18048">
                <g id="Group_18047" data-name="Group 18047" clip-path="url(#clip-path-11)">
                  <path id="Path_29729" data-name="Path 29729" d="M281.375,368.12h0a4.909,4.909,0,0,1-5.161-4.9V353.41a4.91,4.91,0,0,1,9.819,0v9.807a4.91,4.91,0,0,1-4.658,4.9" fill="#0a0a21"/>
                </g>
              </g>
            </g>
            <line id="Line_1582" data-name="Line 1582" y1="12.337" transform="translate(276.214 309.092)" fill="none" stroke="#00bfa1" stroke-miterlimit="10" stroke-width="2.518"/>
            <path id="Path_29730" data-name="Path 29730" d="M274.326,310.351c4.5.572,12.336-2.518,13.091-10.071s-3.021-15.107-10.574-15.61-13.344,5.287-13.093,14.1,6.421,11.055,10.576,11.582" fill="#00e1c4"/>
            <g id="Group_18052" data-name="Group 18052" opacity="0.4" style="mix-blend-mode: multiply;isolation: isolate">
              <g id="Group_18051" data-name="Group 18051">
                <g id="Group_18050" data-name="Group 18050" clip-path="url(#clip-path-12)">
                  <path id="Path_29731" data-name="Path 29731" d="M299.629,284.669h0a3.9,3.9,0,0,1-3.9-3.9v-8.813a3.9,3.9,0,0,1,7.806,0v8.813a3.9,3.9,0,0,1-3.9,3.9" fill="#0a0a21"/>
                </g>
              </g>
            </g>
            <path id="Path_29732" data-name="Path 29732" d="M203.451,404.389c6,.721,13.847-3.273,13.343-12.337s-5.539-13.956-13.343-13.524-12.086,3.2-12.338,13.272,7.963,12.064,12.338,12.589" fill="#0be6c5"/>
            <path id="Path_29733" data-name="Path 29733" d="M393.542,405.4c9.606,1.232,14.6-3.021,15.106-10.826s-2.518-11.33-9.063-14.855-12.087-1.763-16.367,5.035.505,19.387,10.324,20.646" fill="#c071fd"/>
            <line id="Line_1583" data-name="Line 1583" y1="15.628" transform="translate(405.627 409.786)" fill="none" stroke="#009fc2" stroke-miterlimit="10" stroke-width="2.518"/>
            <path id="Path_29734" data-name="Path 29734" d="M397.066,390.29c3.177-3.858,10.323-4.28,14.6-2.266s7.05,6.546,6.043,12.841-5.539,11.206-12.086,10.261-10.253-2.51-12.085-7.744c-1.762-5.035,0-8.812,3.525-13.092" fill="#15c7fd"/>
            <g id="Group_18055" data-name="Group 18055" opacity="0.4">
              <g id="Group_18054" data-name="Group 18054">
                <g id="Group_18053" data-name="Group 18053" clip-path="url(#clip-path)">
                  <path id="Path_29735" data-name="Path 29735" d="M82.592,152.473a2.282,2.282,0,1,1-2.282-2.282,2.282,2.282,0,0,1,2.282,2.282" fill="#fff"/>
                  <path id="Path_29736" data-name="Path 29736" d="M66.592,78.369a2.282,2.282,0,1,1-2.282-2.282,2.282,2.282,0,0,1,2.282,2.282" fill="#fff"/>
                  <path id="Path_29737" data-name="Path 29737" d="M89.156,472.4a2.281,2.281,0,1,1-2.282-2.282,2.283,2.283,0,0,1,2.282,2.282" fill="#fff"/>
                  <path id="Path_29738" data-name="Path 29738" d="M19.156,413.4a2.281,2.281,0,1,1-2.282-2.282,2.283,2.283,0,0,1,2.282,2.282" fill="#fff"/>
                  <path id="Path_29739" data-name="Path 29739" d="M100.686,527.248a2.281,2.281,0,1,1-2.282-2.282,2.282,2.282,0,0,1,2.282,2.282" fill="#fff"/>
                  <path id="Path_29740" data-name="Path 29740" d="M36.686,450.248a2.281,2.281,0,1,1-2.282-2.282,2.282,2.282,0,0,1,2.282,2.282" fill="#fff"/>
                  <path id="Path_29741" data-name="Path 29741" d="M23.566,303.221a2.281,2.281,0,1,1-2.282-2.282,2.282,2.282,0,0,1,2.282,2.282" fill="#fff"/>
                  <path id="Path_29742" data-name="Path 29742" d="M63.306,361.472a2.281,2.281,0,1,1-2.282-2.282,2.282,2.282,0,0,1,2.282,2.282" fill="#fff"/>
                  <path id="Path_29743" data-name="Path 29743" d="M535.306,41.472a2.282,2.282,0,1,1-2.282-2.282,2.282,2.282,0,0,1,2.282,2.282" fill="#fff"/>
                  <path id="Path_29744" data-name="Path 29744" d="M137.415,495.2a4.891,4.891,0,1,1-4.892-4.892,4.892,4.892,0,0,1,4.892,4.892" fill="#fff"/>
                  <path id="Path_29745" data-name="Path 29745" d="M161.145,527.562a4.532,4.532,0,1,1-4.532-4.532,4.532,4.532,0,0,1,4.532,4.532" fill="#fff"/>
                  <path id="Path_29746" data-name="Path 29746" d="M161.519,551.937a2.282,2.282,0,1,1-2.282-2.282,2.282,2.282,0,0,1,2.282,2.282" fill="#fff"/>
                  <path id="Path_29747" data-name="Path 29747" d="M202.761,538.778a2.282,2.282,0,1,1-2.282-2.282,2.282,2.282,0,0,1,2.282,2.282" fill="#fff"/>
                  <path id="Path_29748" data-name="Path 29748" d="M482.761,488.778a2.281,2.281,0,1,1-2.282-2.282,2.282,2.282,0,0,1,2.282,2.282" fill="#fff"/>
                  <path id="Path_29749" data-name="Path 29749" d="M124.761,456.778a2.282,2.282,0,1,1-2.282-2.282,2.282,2.282,0,0,1,2.282,2.282" fill="#fff"/>
                  <path id="Path_29750" data-name="Path 29750" d="M496.267,536.254a2.281,2.281,0,1,1-2.282-2.282,2.282,2.282,0,0,1,2.282,2.282" fill="#fff"/>
                  <path id="Path_29751" data-name="Path 29751" d="M534.118,464.644a3.727,3.727,0,1,1-3.728-3.728,3.728,3.728,0,0,1,3.728,3.728" fill="#fff"/>
                  <path id="Path_29752" data-name="Path 29752" d="M59.04,411a2.282,2.282,0,1,1-2.283-2.282A2.283,2.283,0,0,1,59.04,411" fill="#fff"/>
                  <path id="Path_29753" data-name="Path 29753" d="M72.8,509.309a4.429,4.429,0,1,1-4.429-4.429,4.429,4.429,0,0,1,4.429,4.429" fill="#fff"/>
                  <path id="Path_29754" data-name="Path 29754" d="M82.313,112.775a2.282,2.282,0,1,1-2.282-2.282,2.282,2.282,0,0,1,2.282,2.282" fill="#fff"/>
                  <path id="Path_29755" data-name="Path 29755" d="M39.313,382.775a2.281,2.281,0,1,1-2.282-2.282,2.282,2.282,0,0,1,2.282,2.282" fill="#fff"/>
                  <path id="Path_29756" data-name="Path 29756" d="M23.6,152.848a2.281,2.281,0,1,1-2.282-2.282,2.282,2.282,0,0,1,2.282,2.282" fill="#fff"/>
                  <path id="Path_29757" data-name="Path 29757" d="M250.6,536.847a2.282,2.282,0,1,1-2.282-2.282,2.282,2.282,0,0,1,2.282,2.282" fill="#fff"/>
                  <path id="Path_29758" data-name="Path 29758" d="M555.934,135.357a2.282,2.282,0,1,1-2.282-2.281,2.282,2.282,0,0,1,2.282,2.281" fill="#fff"/>
                  <path id="Path_29759" data-name="Path 29759" d="M562.717,104.831a2.281,2.281,0,1,1-2.282-2.282,2.282,2.282,0,0,1,2.282,2.282" fill="#fff"/>
                  <path id="Path_29760" data-name="Path 29760" d="M429.306,12.122a2.281,2.281,0,1,1-2.282-2.282,2.282,2.282,0,0,1,2.282,2.282" fill="#fff"/>
                  <path id="Path_29761" data-name="Path 29761" d="M603.088,116.711a4.52,4.52,0,1,1-4.52-4.519,4.519,4.519,0,0,1,4.52,4.519" fill="#fff"/>
                  <path id="Path_29762" data-name="Path 29762" d="M589.85,80.358a2.281,2.281,0,1,1-2.282-2.282,2.282,2.282,0,0,1,2.282,2.282" fill="#fff"/>
                  <path id="Path_29763" data-name="Path 29763" d="M608.85,14.358a2.281,2.281,0,1,1-2.282-2.282,2.282,2.282,0,0,1,2.282,2.282" fill="#fff"/>
                  <path id="Path_29764" data-name="Path 29764" d="M359.85,20.358a2.282,2.282,0,1,1-2.282-2.282,2.282,2.282,0,0,1,2.282,2.282" fill="#fff"/>
                  <path id="Path_29765" data-name="Path 29765" d="M553.85,14.358a2.281,2.281,0,1,1-2.282-2.282,2.282,2.282,0,0,1,2.282,2.282" fill="#fff"/>
                  <path id="Path_29766" data-name="Path 29766" d="M513.558,67.557a2.281,2.281,0,1,1-2.282-2.282,2.282,2.282,0,0,1,2.282,2.282" fill="#fff"/>
                  <path id="Path_29767" data-name="Path 29767" d="M592.558,269.557a2.281,2.281,0,1,1-2.282-2.282,2.282,2.282,0,0,1,2.282,2.282" fill="#fff"/>
                  <path id="Path_29768" data-name="Path 29768" d="M566.558,379.557a2.281,2.281,0,1,1-2.282-2.282,2.282,2.282,0,0,1,2.282,2.282" fill="#fff"/>
                  <path id="Path_29769" data-name="Path 29769" d="M532.558,404.557a2.281,2.281,0,1,1-2.282-2.282,2.282,2.282,0,0,1,2.282,2.282" fill="#fff"/>
                  <path id="Path_29770" data-name="Path 29770" d="M596.558,317.557a2.281,2.281,0,1,1-2.282-2.282,2.282,2.282,0,0,1,2.282,2.282" fill="#fff"/>
                  <path id="Path_29771" data-name="Path 29771" d="M497.559,18.557a2.282,2.282,0,1,1-2.283-2.282,2.283,2.283,0,0,1,2.283,2.282" fill="#fff"/>
                  <path id="Path_29772" data-name="Path 29772" d="M560.857,72.956a3.385,3.385,0,1,1-3.385-3.384,3.384,3.384,0,0,1,3.385,3.384" fill="#fff"/>
                  <path id="Path_29773" data-name="Path 29773" d="M98.35,90.4a2.282,2.282,0,1,1-2.283-2.282A2.283,2.283,0,0,1,98.35,90.4" fill="#fff"/>
                  <path id="Path_29774" data-name="Path 29774" d="M170.691,49.744a2.281,2.281,0,1,1-2.282-2.282,2.282,2.282,0,0,1,2.282,2.282" fill="#fff"/>
                  <path id="Path_29775" data-name="Path 29775" d="M586.574,466.535a2.281,2.281,0,1,1-2.282-2.282,2.282,2.282,0,0,1,2.282,2.282" fill="#fff"/>
                  <path id="Path_29776" data-name="Path 29776" d="M593.576,541.336a2.281,2.281,0,1,1-2.282-2.282,2.282,2.282,0,0,1,2.282,2.282" fill="#fff"/>
                  <path id="Path_29777" data-name="Path 29777" d="M606.471,355.871a4,4,0,1,1-4-4,4,4,0,0,1,4,4" fill="#fff"/>
                  <path id="Path_29778" data-name="Path 29778" d="M582.907,155.417a2.281,2.281,0,1,1-2.282-2.282,2.282,2.282,0,0,1,2.282,2.282" fill="#fff"/>
                  <path id="Path_29779" data-name="Path 29779" d="M566.907,290.417a2.281,2.281,0,1,1-2.282-2.282,2.282,2.282,0,0,1,2.282,2.282" fill="#fff"/>
                  <path id="Path_29780" data-name="Path 29780" d="M542.615,520.348a2.281,2.281,0,1,1-2.282-2.282,2.282,2.282,0,0,1,2.282,2.282" fill="#fff"/>
                  <path id="Path_29781" data-name="Path 29781" d="M615.615,486.348a2.281,2.281,0,1,1-2.282-2.282,2.282,2.282,0,0,1,2.282,2.282" fill="#fff"/>
                  <path id="Path_29782" data-name="Path 29782" d="M20.955,67.993a3.939,3.939,0,1,1-3.94-3.94,3.94,3.94,0,0,1,3.94,3.94" fill="#fff"/>
                  <path id="Path_29783" data-name="Path 29783" d="M78.725,397.431a2.281,2.281,0,1,1-2.282-2.282,2.282,2.282,0,0,1,2.282,2.282" fill="#fff"/>
                  <path id="Path_29784" data-name="Path 29784" d="M75.667,441.32a3.84,3.84,0,1,1-3.84-3.84,3.84,3.84,0,0,1,3.84,3.84" fill="#fff"/>
                  <path id="Path_29785" data-name="Path 29785" d="M14.207,191.332a.978.978,0,1,1-.978-.978.978.978,0,0,1,.978.978" fill="#fff"/>
                  <path id="Path_29786" data-name="Path 29786" d="M65.044,478.406a.978.978,0,1,1-.978-.978.978.978,0,0,1,.978.978" fill="#fff"/>
                  <path id="Path_29787" data-name="Path 29787" d="M201.044,516.406a.978.978,0,1,1-.978-.978.978.978,0,0,1,.978.978" fill="#fff"/>
                  <path id="Path_29788" data-name="Path 29788" d="M20.044,520.406a.978.978,0,1,1-.978-.978.978.978,0,0,1,.978.978" fill="#fff"/>
                  <path id="Path_29789" data-name="Path 29789" d="M35.044,479.406a.978.978,0,1,1-.978-.978.978.978,0,0,1,.978.978" fill="#fff"/>
                  <path id="Path_29790" data-name="Path 29790" d="M55.833,293.444a.978.978,0,1,1-.978-.978.978.978,0,0,1,.978.978" fill="#fff"/>
                  <path id="Path_29791" data-name="Path 29791" d="M13.833,364.444a.978.978,0,1,1-.978-.978.978.978,0,0,1,.978.978" fill="#fff"/>
                  <path id="Path_29792" data-name="Path 29792" d="M538.984,92.331a.979.979,0,1,1-.979-.978.979.979,0,0,1,.979.978" fill="#fff"/>
                  <path id="Path_29793" data-name="Path 29793" d="M582.662,416.337a.978.978,0,1,1-.978-.978.978.978,0,0,1,.978.978" fill="#fff"/>
                  <path id="Path_29794" data-name="Path 29794" d="M512.662,484.337a.978.978,0,1,1-.978-.978.978.978,0,0,1,.978.978" fill="#fff"/>
                  <path id="Path_29795" data-name="Path 29795" d="M584.916,517.325a.978.978,0,1,1-.978-.978.978.978,0,0,1,.978.978" fill="#fff"/>
                  <path id="Path_29796" data-name="Path 29796" d="M428.916,526.325a.978.978,0,1,1-.978-.978.978.978,0,0,1,.978.978" fill="#fff"/>
                  <path id="Path_29797" data-name="Path 29797" d="M451.916,500.325a.978.978,0,1,1-.978-.978.978.978,0,0,1,.978.978" fill="#fff"/>
                  <path id="Path_29798" data-name="Path 29798" d="M465.714,57.508a.978.978,0,1,1-.978-.978.978.978,0,0,1,.978.978" fill="#fff"/>
                  <path id="Path_29799" data-name="Path 29799" d="M334.564.977A.978.978,0,1,1,333.586,0a.978.978,0,0,1,.978.977" fill="#fff"/>
                  <path id="Path_29800" data-name="Path 29800" d="M31.448,107.265a.978.978,0,1,1-.978-.978.978.978,0,0,1,.978.978" fill="#fff"/>
                  <path id="Path_29801" data-name="Path 29801" d="M.018,131.575c0,.248.12.448.269.448s.268-.2.268-.448-.12-.448-.268-.448-.269.2-.269.448" fill="#fff"/>
                  <path id="Path_29802" data-name="Path 29802" d="M187.436,40.976a.978.978,0,1,1-.978-.978.978.978,0,0,1,.978.978" fill="#fff"/>
                  <path id="Path_29803" data-name="Path 29803" d="M34.3,240.277a.978.978,0,1,1-.978-.978.978.978,0,0,1,.978.978" fill="#fff"/>
                  <path id="Path_29804" data-name="Path 29804" d="M43.3,330.277a.978.978,0,1,1-.978-.978.978.978,0,0,1,.978.978" fill="#fff"/>
                  <path id="Path_29805" data-name="Path 29805" d="M128.842,52.2a.978.978,0,1,1-.978-.978.978.978,0,0,1,.978.978" fill="#fff"/>
                  <path id="Path_29806" data-name="Path 29806" d="M17.842,280.2a.978.978,0,1,1-.978-.978.978.978,0,0,1,.978.978" fill="#fff"/>
                  <path id="Path_29807" data-name="Path 29807" d="M87.009,2.452a.978.978,0,1,1-.978-.978.978.978,0,0,1,.978.978" fill="#fff"/>
                  <path id="Path_29808" data-name="Path 29808" d="M514.174,85.115a.978.978,0,1,1-.978-.978.978.978,0,0,1,.978.978" fill="#fff"/>
                  <path id="Path_29809" data-name="Path 29809" d="M406.174,34.115a.978.978,0,1,1-.978-.978.978.978,0,0,1,.978.978" fill="#fff"/>
                  <path id="Path_29810" data-name="Path 29810" d="M515.174,122.115a.978.978,0,1,1-.978-.978.978.978,0,0,1,.978.978" fill="#fff"/>
                  <path id="Path_29811" data-name="Path 29811" d="M64.178,150.164a.978.978,0,1,1-.978-.978.979.979,0,0,1,.978.978" fill="#fff"/>
                  <path id="Path_29812" data-name="Path 29812" d="M135.633,76.139a.978.978,0,1,1-.978-.978.978.978,0,0,1,.978.978" fill="#fff"/>
                  <path id="Path_29813" data-name="Path 29813" d="M43.633,41.139a.978.978,0,1,1-.978-.978.978.978,0,0,1,.978.978" fill="#fff"/>
                  <path id="Path_29814" data-name="Path 29814" d="M33.055,16.332a.978.978,0,1,1-.978-.978.978.978,0,0,1,.978.978" fill="#fff"/>
                  <path id="Path_29815" data-name="Path 29815" d="M107.864,112.216a.978.978,0,1,1-.978-.978.978.978,0,0,1,.978.978" fill="#fff"/>
                  <path id="Path_29816" data-name="Path 29816" d="M65.9,541.328a.978.978,0,1,1-.978-.978.978.978,0,0,1,.978.978" fill="#fff"/>
                  <path id="Path_29817" data-name="Path 29817" d="M2.9,494.328a.978.978,0,1,1-.978-.978.978.978,0,0,1,.978.978" fill="#fff"/>
                  <path id="Path_29818" data-name="Path 29818" d="M58.515,212.285a.978.978,0,1,1-.978-.978.978.978,0,0,1,.978.978" fill="#fff"/>
                  <path id="Path_29819" data-name="Path 29819" d="M98.4,25.158a2.728,2.728,0,1,1,2.728,2.728A2.728,2.728,0,0,1,98.4,25.158" fill="#fff"/>
                  <path id="Path_29820" data-name="Path 29820" d="M156.956,70.817a.978.978,0,1,1-.978-.978.978.978,0,0,1,.978.978" fill="#fff"/>
                  <path id="Path_29821" data-name="Path 29821" d="M1.956,35.817a.978.978,0,1,1-.978-.978.978.978,0,0,1,.978.978" fill="#fff"/>
                  <path id="Path_29822" data-name="Path 29822" d="M204.441,5.242a.978.978,0,1,1-.978-.978.978.978,0,0,1,.978.978" fill="#fff"/>
                  <path id="Path_29823" data-name="Path 29823" d="M268.885,25.593a.978.978,0,1,1-.978-.978.978.978,0,0,1,.978.978" fill="#fff"/>
                  <path id="Path_29824" data-name="Path 29824" d="M592.441,182.948a.978.978,0,1,1-.978-.978.978.978,0,0,1,.978.978" fill="#fff"/>
                  <path id="Path_29825" data-name="Path 29825" d="M554.441,428.948a.978.978,0,1,1-.978-.978.978.978,0,0,1,.978.978" fill="#fff"/>
                  <path id="Path_29826" data-name="Path 29826" d="M561.441,238.948a.978.978,0,1,1-.978-.978.978.978,0,0,1,.978.978" fill="#fff"/>
                  <path id="Path_29827" data-name="Path 29827" d="M602.013,381.39a.978.978,0,1,1-.978-.978.978.978,0,0,1,.978.978" fill="#fff"/>
                  <path id="Path_29828" data-name="Path 29828" d="M617.214,245.533a.978.978,0,1,1-.978-.978.978.978,0,0,1,.978.978" fill="#fff"/>
                  <path id="Path_29829" data-name="Path 29829" d="M514.21,549.33a.978.978,0,1,1-.978-.978.978.978,0,0,1,.978.978" fill="#fff"/>
                  <path id="Path_29830" data-name="Path 29830" d="M561.21,537.33a.978.978,0,1,1-.978-.978.978.978,0,0,1,.978.978" fill="#fff"/>
                  <path id="Path_29831" data-name="Path 29831" d="M387.21,527.33a.978.978,0,1,1-.978-.978.978.978,0,0,1,.978.978" fill="#fff"/>
                  <path id="Path_29832" data-name="Path 29832" d="M461.1,542.624a.978.978,0,1,1-.978-.978.978.978,0,0,1,.978.978" fill="#fff"/>
                  <path id="Path_29833" data-name="Path 29833" d="M304.1,533.624a.978.978,0,1,1-.978-.978.978.978,0,0,1,.978.978" fill="#fff"/>
                  <path id="Path_29834" data-name="Path 29834" d="M507.991,518.024a.978.978,0,1,1-.978-.978.978.978,0,0,1,.978.978" fill="#fff"/>
                  <path id="Path_29835" data-name="Path 29835" d="M512.992,428.024a.978.978,0,1,1-.978-.978.978.978,0,0,1,.978.978" fill="#fff"/>
                </g>
              </g>
            </g>
          </g>
        </g>
      </g>
    </g>
  </g>
</svg>
