<svg xmlns="http://www.w3.org/2000/svg" xmlns:xlink="http://www.w3.org/1999/xlink" width="150.021" height="33.399" viewBox="0 0 150.021 33.399"><defs><clipPath id="a"><rect width="150.021" height="33.399" fill="none"/></clipPath></defs><g clip-path="url(#a)"><path d="M693.321,37.845h0V11.806a5.412,5.412,0,0,1,5.412-5.412h0V32.433a5.413,5.413,0,0,1-5.413,5.412" transform="translate(-586.874 -5.412)" fill="#fff"/><path d="M491.67,27.343h7.8l4.327,7.594a5.583,5.583,0,0,0,4.85,2.819h2.985L505,26.122a10.536,10.536,0,0,0,5.615-9.262A10.676,10.676,0,0,0,499.941,6.288H486.258V37.756h0a5.412,5.412,0,0,0,5.412-5.412Zm0-15.642h8.323a5.178,5.178,0,0,1,5.21,4.992,5.121,5.121,0,0,1-5.114,5.238H491.67Z" transform="translate(-411.602 -5.323)" fill="#fff"/><path d="M806.875,6.394,797.88,20.583,788.887,6.394h-5.911V37.845a5.412,5.412,0,0,0,5.412-5.412V15.718l6.307,9.95a3.771,3.771,0,0,0,6.37,0l6.307-9.95V32.433a5.412,5.412,0,0,0,5.412,5.412V6.394Z" transform="translate(-662.764 -5.412)" fill="#fff"/><path d="M273.325,16.609H261a5.412,5.412,0,0,0,5.412,5.412h.219a10.512,10.512,0,0,1-9.314,5.94c-5.829,0-10.571-5.052-10.571-11.261s4.742-11.261,10.571-11.261a10.11,10.11,0,0,1,6.434,2.332,3.581,3.581,0,0,0,3.769.488l2.8-1.289a15.809,15.809,0,0,0-13-6.97c-8.828,0-16.009,7.491-16.009,16.7s7.182,16.7,16.009,16.7c8.856,0,16.056-7.54,16.009-16.79h0" transform="translate(-204.259 -0.001)" fill="#fff"/><path d="M74.436,114.409h-7.7a5.148,5.148,0,0,1,5.148-5.148h7.7a5.148,5.148,0,0,1-5.148,5.148" transform="translate(-56.489 -92.486)" fill="#a652ff"/><path d="M0,32.434a6.971,6.971,0,0,0,6.81-5.482L10.3,10.973a6.98,6.98,0,0,1,13.638,0l3.492,15.978a6.971,6.971,0,0,0,6.81,5.482L29.3,9.8a12.463,12.463,0,0,0-24.351,0Z" transform="translate(0 -0.001)" fill="#fff"/></g></svg>