<svg xmlns="http://www.w3.org/2000/svg" width="513.25" height="215.15" viewBox="0 0 513.25 215.15"><path d="M225.83,79.25a24.71,24.71,0,0,1-49.41,0c0-17.7,24.71-37.26,24.71-37.26S225.83,61.34,225.83,79.25Z" transform="translate(0.01)" fill="#a1c854"/><path d="M201.13,105A25.73,25.73,0,0,1,175.4,79.27h0c0-17.91,24.08-37.26,25.11-38.08l.62-.41.61.41c1,.82,25.12,20,25.12,38.08A25.73,25.73,0,0,1,201.13,105Zm0-61.75c-3.92,3.29-23.68,20.58-23.68,36a23.68,23.68,0,0,0,47.35,0c0-15.65-19.79-32.73-23.67-36Z" transform="translate(0.01)"/><path d="M201.33,104.77A25.73,25.73,0,0,1,175.6,79v0h0c0-18.11,24.08-37.25,25.11-38.08l.62-.41.62.41c1,.83,25.11,20,25.11,38.08A26,26,0,0,1,201.33,104.77Zm0-61.54c-3.91,3.29-23.67,20.37-23.67,36a23.67,23.67,0,0,0,47.34,0C224.8,63.6,205,46.52,201.33,43.23Z" transform="translate(0.01)"/><path d="M201.33,105.8A26.76,26.76,0,0,1,174.57,79v0c0-17.91,22.85-36.84,25.53-38.9l1.23-.83,1.24.83c2.67,2.06,25.52,21,25.52,38.9A27,27,0,0,1,201.33,105.8Zm0-61.13c-6.17,5.35-22.64,20.79-22.64,34.58a22.64,22.64,0,1,0,45.28,0C224,72.66,219.86,61.13,201.33,44.67Zm0-2.88h0C198.86,43.84,176.63,62,176.63,79v.21c0-15.44,18.32-31.91,24.08-36.64l.62-.82,1,1C221.71,59.9,225.83,72,226,79.25V79C226,62,203.8,43.84,201.33,41.79Z" transform="translate(0.01)"/><path d="M216,142.44a3.76,3.76,0,0,1-3.71-2.88,4.55,4.55,0,0,1,.41-2.88,4.28,4.28,0,0,1,2.27-1.65A63.52,63.52,0,1,0,137.73,72.5v.37a64.15,64.15,0,0,0,11.52,36.43c10.5,15.44,22,17.7,28,17.7a23,23,0,0,0,6.59-1,18.77,18.77,0,0,0,13.58-18.32v-.41A28.45,28.45,0,0,1,172.72,79c0-19.35,24.91-39.31,26.14-40.14a3.52,3.52,0,0,1,4.53,0c1,.83,26.14,20.79,26.14,40.14a28.43,28.43,0,0,1-24.7,28.2v.41a26.26,26.26,0,0,1-18.94,25.53,31.94,31.94,0,0,1-8.85,1.23c-7.41,0-21.82-2.67-34.17-21a71,71,0,1,1,73.69,28.81C216.56,142.44,216.15,142.44,216,142.44ZM201.33,69.16A3.69,3.69,0,0,1,205,72.83v26.8A21,21,0,0,0,222.12,79c0-12.76-15.44-27.37-20.79-32.31-5.56,4.94-20.79,19.55-20.79,32.31a21,21,0,0,0,17.09,20.59V72.87A3.55,3.55,0,0,1,201,69.16Z" transform="translate(0.01)" fill="#1e3768"/><path d="M201.33,2.68a70.31,70.31,0,0,1,15.44,138.94h-.62a2.91,2.91,0,0,1-2.88-2.27,2.78,2.78,0,0,1,1.92-3.42l.34-.08a64.26,64.26,0,1,0-78.21-62.78,65.88,65.88,0,0,0,11.52,36.85C157.9,123.3,168.6,128,177.45,128a23.37,23.37,0,0,0,6.8-1,19.64,19.64,0,0,0,14.2-19.14v-1a27.64,27.64,0,0,1-24.7-27.38c0-18.93,24.7-38.69,25.73-39.52a3.09,3.09,0,0,1,3.7,0c1,.83,25.73,20.59,25.73,39.52a27.46,27.46,0,0,1-24.7,27.38v1a25.57,25.57,0,0,1-18.52,24.91A29.34,29.34,0,0,1,177,134c-10.5,0-23.26-5.35-33.55-20.79A71.74,71.74,0,0,1,130.9,73.07,70.36,70.36,0,0,1,201.23,2.68h.1m-3.09,98V72.87a3.09,3.09,0,1,1,6.18,0v27.58A21.55,21.55,0,0,0,222.94,79c0-13.38-16.05-28.4-21.61-33.34-5.56,4.94-21.61,20.17-21.61,33.55a21.54,21.54,0,0,0,18.52,21.4M201.33,1a72,72,0,0,0-71.84,71.84,73.75,73.75,0,0,0,13,41.16c12.56,18.53,27.17,21.41,34.79,21.41a33.44,33.44,0,0,0,9.06-1.23,27.32,27.32,0,0,0,19.55-25.94,29.21,29.21,0,0,0,24.7-28.82c0-19.76-25.32-39.93-26.35-40.75a4.55,4.55,0,0,0-5.76,0c-1,.82-26.35,21-26.35,40.75a29.21,29.21,0,0,0,24.7,28.82,18.2,18.2,0,0,1-13.17,17.29,21.58,21.58,0,0,1-6.38,1c-5.77,0-17.09-2.26-27.38-17.29a66.55,66.55,0,0,1-11.32-36.43,62.78,62.78,0,1,1,76.57,61.34,4.26,4.26,0,0,0-2.88,2,5.22,5.22,0,0,0-.62,3.5,4.47,4.47,0,0,0,4.53,3.5,1.92,1.92,0,0,0,1-.2A71.88,71.88,0,0,0,201.33,1ZM196.8,98.8a20,20,0,0,1-15.43-19.55c0-12.15,14.2-25.94,20.17-31.29,5.76,5.15,20.17,19.14,20.17,31.29A20.26,20.26,0,0,1,206.27,98.8V72.87a4.53,4.53,0,0,0-9.06,0V98.8Z" transform="translate(0.01)" fill="#1e3768"/><path d="M216,143.47a5.09,5.09,0,0,1-4.74-3.71,5.93,5.93,0,0,1,.62-3.7,4.65,4.65,0,0,1,3.09-2.06,62.53,62.53,0,1,0-76.37-60.93,63.63,63.63,0,0,0,11.32,35.82c10.09,15,21.41,17.29,27.17,17.29a31.86,31.86,0,0,0,6.38-.83,17.83,17.83,0,0,0,13-16.87,29.61,29.61,0,0,1-24.7-29c0-20,25.32-40.14,26.55-41a4.56,4.56,0,0,1,5.77,0c1,.82,26.55,21,26.55,41a29.43,29.43,0,0,1-24.7,29,27.1,27.1,0,0,1-19.76,25.93,33.39,33.39,0,0,1-9.26,1.44c-7.62,0-22.44-2.88-35-21.4a73.79,73.79,0,0,1-13-41.17,72,72,0,1,1,87.68,70.39C216.77,143.26,216.36,143.47,216,143.47ZM201.33,6.79a66,66,0,0,1,14.41,130.5c-.41,0-.62.21-.82.62a1.48,1.48,0,0,0-.21.82,1.29,1.29,0,0,0,1.24,1h.2a68.52,68.52,0,1,0-83.36-66.89A69.73,69.73,0,0,0,145.14,112c11.73,17.29,25.11,20,32.11,20a25.23,25.23,0,0,0,8-1.23,24,24,0,0,0,17.29-23.06V105l1.64-.21A25.86,25.86,0,0,0,227.27,79c0-18.11-24.09-37.25-25.12-38.08-.2-.2-.41-.2-.82-.2a1.25,1.25,0,0,0-.82.2c-1,.83-25.11,20-25.11,38.08a25.84,25.84,0,0,0,23,25.73l1.65.21v2.67a21.62,21.62,0,0,1-15.44,20.79,27.69,27.69,0,0,1-7.41,1c-6.59,0-19.14-2.47-30.05-18.73A67.44,67.44,0,0,1,135.26,72.8,66.15,66.15,0,0,1,201.33,6.79ZM198,102.3A23.49,23.49,0,0,1,177.87,79c0-13.79,15.64-28.82,22.23-34.58l1.23-1,1,1.24c6.59,5.76,22.23,20.79,22.23,34.58a23.65,23.65,0,0,1-20.17,23.26l-2.06.2V72.87a1.24,1.24,0,1,0-2.47-.22.81.81,0,0,0,0,.22h0v29.64Zm3.29-34.17A4.66,4.66,0,0,1,206,72.7V98.39a19.77,19.77,0,0,0,15-19.14c0-11.94-14.61-26.14-19.76-30.88-5.35,4.74-19.76,18.94-19.76,30.88a19.62,19.62,0,0,0,15,19.14V72.87a4.53,4.53,0,0,1,4.31-4.74h.47Z" transform="translate(0.01)" fill="#1e3768"/><path d="M201.33,1.65a71.24,71.24,0,0,1,15.44,140.79H216a4,4,0,0,1-3.92-3.09,3.89,3.89,0,0,1,2.88-4.69h.21a63.48,63.48,0,1,0-65.45-25.53c8.85,13,19.14,17.5,27.78,17.5a23,23,0,0,0,6.59-1,18.72,18.72,0,0,0,13.59-18.11v-.21a28.61,28.61,0,0,1-24.7-28.4c0-19.56,25.11-39.53,26.14-40.35a4,4,0,0,1,2.47-.82,3.62,3.62,0,0,1,2.47.82c1,.82,26.14,20.79,26.14,40.35a28.63,28.63,0,0,1-24.7,28.4v.21a26.51,26.51,0,0,1-19.14,25.73,30.88,30.88,0,0,1-8.86,1.23c-10.91,0-23.87-5.56-34.37-21.2a72.14,72.14,0,0,1-12.76-40.76c-.41-38.9,31.7-70.8,71-70.8M177.25,132.77a26.71,26.71,0,0,0,8.23-1.24,24.52,24.52,0,0,0,17.7-23.88v-2.06H204A26.4,26.4,0,0,0,227.68,79c0-18.52-24.29-37.87-25.32-38.7a2.09,2.09,0,0,0-2.47,0c-1,.83-25.32,20.18-25.32,38.7a26.89,26.89,0,0,0,23.67,26.55h.83v2.06a20.29,20.29,0,0,1-15,20,26.57,26.57,0,0,1-7.2,1c-9.06,0-20.18-4.74-29.44-18.53A67.16,67.16,0,0,1,135.7,72.62a65.46,65.46,0,1,1,130.91-1.39c0,.53,0,1.07,0,1.6h0a65.87,65.87,0,0,1-51,63.81,2.06,2.06,0,0,0-1.44,2.47,2.19,2.19,0,0,0,1.86,1.64h.41A69.37,69.37,0,1,0,132,72.87a70.85,70.85,0,0,0,12.56,39.72c10.09,15,22.44,20.18,32.73,20.18m24.08-88.1.62.61c6.59,5.77,22,20.59,22,34a22.94,22.94,0,0,1-19.55,22.43l-1.24.21V73.07a2.06,2.06,0,0,0-4.11-.29,1.41,1.41,0,0,0,0,.29v28.82l-1.24-.21a22.81,22.81,0,0,1-19.55-22.43c0-13.59,15.44-28.41,22-34l1-.61m-4.1,54.78V72.87a4.12,4.12,0,1,1,8.24,0V99.42a20.74,20.74,0,0,0,16.67-20.17c0-12.56-15-27-20.58-31.91C196,52.28,181,66.69,181,79.25a20.33,20.33,0,0,0,16.26,20.17M201.33,0a73,73,0,0,0-72.87,72.87,74.65,74.65,0,0,0,13,41.58c12.76,18.93,27.79,21.81,35.61,21.81a29,29,0,0,0,9.47-1.44,27.92,27.92,0,0,0,20.17-26.14A30.36,30.36,0,0,0,231.38,79c0-20.17-25.73-40.75-26.76-41.58a5.57,5.57,0,0,0-7,0c-1,.83-26.76,21.41-26.76,41.58a30.38,30.38,0,0,0,24.7,29.64,16.91,16.91,0,0,1-12.35,15.44,19.57,19.57,0,0,1-6.18.82c-5.56,0-16.67-2.26-26.55-16.88a64.19,64.19,0,0,1-11.12-35.4A61.76,61.76,0,1,1,214.71,133a6.23,6.23,0,0,0-3.5,2.47,5.79,5.79,0,0,0-.82,4.12,5.67,5.67,0,0,0,5.35,4.32,2.6,2.6,0,0,0,1.23-.21,73.45,73.45,0,0,0,57-71A72.64,72.64,0,0,0,201.39,0h-.06ZM177.25,131.32c-6.79,0-20-2.47-31.49-19.55a68.79,68.79,0,0,1-12.15-38.7,67.72,67.72,0,1,1,82.54,66.08h0a.46.46,0,0,1-.41-.42v-.41l.21-.2a66.88,66.88,0,1,0-81.52-65.25,68.9,68.9,0,0,0,11.94,38.28c11.32,16.68,24.09,19.15,30.67,19.15a31.61,31.61,0,0,0,7.62-1,22.11,22.11,0,0,0,16-21.62v-3.29l-1.44-.21h-.82a25.15,25.15,0,0,1-22.23-24.9c0-17.7,23.88-36.85,24.7-37.47h.41c1,.83,24.7,19.77,24.7,37.47a25.15,25.15,0,0,1-22.43,24.9h-.83l-1.44.21v3.5a23.17,23.17,0,0,1-16.67,22.44A26.93,26.93,0,0,1,177.25,131.32Zm24.08-88.71-1,.82-.62.62c-6.79,6-22.43,21-22.43,35.2A24.32,24.32,0,0,0,198,103.12l1.23.21,1.86.21V72.87a.41.41,0,0,1,.4-.42h0a.42.42,0,0,1,.41.42h0v30.67l1.85-.21,1.24-.21A24.14,24.14,0,0,0,225.8,79.25c0-14.21-15.65-29.44-22.44-35.2l-.62-.62Zm-5.56,54.75a19.15,19.15,0,0,1-13.58-18.11c0-11.32,13.58-24.7,19.14-29.85,5.56,5.15,19.14,18.53,19.14,29.85a18.75,18.75,0,0,1-13.58,18.11V72.87a5.56,5.56,0,0,0-11.12,0Z" transform="translate(0.01)" fill="#1e3768"/><path d="M104,14.82a6.67,6.67,0,0,1-1.44,4.53A4.14,4.14,0,0,1,98.62,21a26.29,26.29,0,0,1-7-2.47,62.87,62.87,0,0,0-27.38-6.59c-13.79,0-25.93,6-36.64,17.91s-16,26.76-16,44.25a61.31,61.31,0,0,0,15,41.37A48.78,48.78,0,0,0,65.27,133a50.91,50.91,0,0,0,30.47-9.47,6.74,6.74,0,0,0,1.64-1l1.24-.82a1.72,1.72,0,0,1,1.23-.41,6.51,6.51,0,0,1,2.06-.21,3.85,3.85,0,0,1,2.88,1.65,7,7,0,0,1,1.44,3.7c0,4.12-4.73,8-14,11.94a72.41,72.41,0,0,1-28.41,5.77,61.49,61.49,0,0,1-44.81-19C6.4,112.59,0,95.92,0,75.54c0-22,6.6-39.72,20-53.54S48.6,1.44,65.89,1.44A72.62,72.62,0,0,1,95.94,7.62C101.29,9.88,104,12.35,104,14.82Z" transform="translate(0.01)" fill="#1e3768"/><path d="M309.19,4.53a19.2,19.2,0,0,1,9.26-2.06c9.27-.21,16.88-.41,22.64-.41q7.73,0,14.21.62Q374.13,4.22,384.94,15c7.2,7.2,10.91,16.46,10.91,28.2a41.14,41.14,0,0,1-8.65,26.55,39.78,39.78,0,0,1-22.85,13.79l34.79,48.78a11.25,11.25,0,0,1,2.47,4.74A5.63,5.63,0,0,1,400,141a5.72,5.72,0,0,1-4.11,1.65,6.9,6.9,0,0,1-5.15-2.47L353.24,86.25H317.63V134c0,5.56-1.85,8.23-5.35,8.23-2.68,0-4.32-.61-5.15-1.85a12.36,12.36,0,0,1-1-6.38c.21-6.59.41-39.73.41-99.63V11.12A7.39,7.39,0,0,1,309.19,4.53Zm8,8.23.2,63.19h28.82Q384.54,76,384.53,43c0-10.09-3.5-17.7-10.3-22.85s-16.05-7.82-27.78-7.82c-14.82,0-24.7.21-29.23.41Z" transform="translate(0.01)" fill="#1e3768"/><path d="M432.69,4.32a7.31,7.31,0,0,1,3.91-1.64,59.35,59.35,0,0,1,6.8-.21h10.7c4.73,0,12.76,0,24.29-.21s19.55-.2,24.08-.2a13.61,13.61,0,0,1,7,1.23,4.74,4.74,0,0,1,1.65,4.33,4.52,4.52,0,0,1-3.87,5.1,4.23,4.23,0,0,1-.87,0H480.65c-12.14,0-20.58-.2-25.73-.2H442.37c-.21,7.2-.21,17.29-.21,30.46V68.54H454.1c15.44,0,28.41-.2,38.7-.61A14.53,14.53,0,0,1,499,69a4.37,4.37,0,0,1,1.85,4.11c0,3.5-2.47,5.15-7.41,5.15H442V94.69c0,3.91,0,10.08-.42,18.52s-.2,14.41-.2,18.53c18.73,0,39.31-.21,61.75-.42h2.47c1,0,1.85-.2,2.47-.2,3.5,0,5.14,1.65,5.14,4.94a6.13,6.13,0,0,1-1.85,4.94c-1.23,1-3.7,1.44-7.41,1.44H451.22c-9.47,0-15.44-.62-17.7-1.65s-3.5-4.53-3.5-9.88c0-1.85.2-4.94.41-9v-6.18a42.86,42.86,0,0,1,.2-4.94,57.72,57.72,0,0,0,0-6.17V36.23c0-12.15.21-21.41.21-27.58A6.11,6.11,0,0,1,432.69,4.32Z" transform="translate(0.01)" fill="#1e3768"/><path d="M.43,166.93a2.27,2.27,0,0,1,1.86-.82,2.06,2.06,0,0,1,2.26,1.83h0L9.9,195.53c1-2.89,3.71-10.71,8-23.88.62-1.85,1.44-2.68,2.88-2.68a2.93,2.93,0,0,1,1.44.41,5.45,5.45,0,0,1,1,1.24l8.44,24.29c2.68-12.15,4.53-20.79,5.56-26.14a3.88,3.88,0,0,1,.82-2.06,2.52,2.52,0,0,1,3.3,0,1.61,1.61,0,0,1,.41,1.65l-7.21,31.49a4.81,4.81,0,0,1-.82,2.06,2.55,2.55,0,0,1-1.85.61,2.93,2.93,0,0,1-1.44-.41c-.42-.2-.62-.62-.83-.82L29,200.07,20.61,176c-1.44,4.32-4.12,12.15-8.24,23.26a16.33,16.33,0,0,1-.61,1.65,2.86,2.86,0,0,1-1,1.23,2.34,2.34,0,0,1-1.65.62,2.5,2.5,0,0,1-2.47-1.24A14.7,14.7,0,0,0,6,197a3.5,3.5,0,0,1-.2-1.24L0,168.58A2.26,2.26,0,0,1,.43,166.93Z" transform="translate(0.01)" fill="#1e3768"/><path d="M72.07,193.28c0,2.27,0,4.74.2,7.62,0,1.23-.82,1.85-2.26,1.85a1.85,1.85,0,0,1-1.65-1,23.11,23.11,0,0,1-.62-3.5,9.42,9.42,0,0,1-8.85,4.53,11.33,11.33,0,0,1-8.44-3.5A11,11,0,0,1,47.16,191a13.4,13.4,0,0,1,3.7-9.47,12,12,0,0,1,8.86-3.71A9.87,9.87,0,0,1,68,182a7.81,7.81,0,0,1,.2-2.26,1.89,1.89,0,0,1,1.93-1.86h.13c.83,0,1.44.21,1.65.62a5.68,5.68,0,0,1,.41,2.27v4.11Zm-17.91,3.5A7.46,7.46,0,0,0,59.51,199a8.57,8.57,0,0,0,6-2.26,8.2,8.2,0,0,0,2.26-6.17,8.51,8.51,0,0,0-2.47-6.39A8.24,8.24,0,0,0,59.72,182,7.28,7.28,0,0,0,54,184.68,8.91,8.91,0,0,0,54.16,196.78Z" transform="translate(0.01)" fill="#1e3768"/><path d="M98.41,179.28c1,.42,1.44,1,1.44,1.65,0,1.24-.61,2.06-1.85,2.06a17.25,17.25,0,0,1-2.67-.62,16.3,16.3,0,0,0-4.33-.62,8,8,0,0,0-3.91,1,3.23,3.23,0,0,0-1.65,2.68,1.77,1.77,0,0,0,.42,1.23,1.83,1.83,0,0,0,1.23.83,8.14,8.14,0,0,0,1.44.41,16.32,16.32,0,0,1,2.06.41c.41,0,.62,0,.82.21a17.68,17.68,0,0,1,6.8,2.06,5.41,5.41,0,0,1,2.47,4.94,6.31,6.31,0,0,1-2.88,5.55,13,13,0,0,1-7.21,2.06,23,23,0,0,1-6.59-1c-2-.62-3.08-1.44-3.08-2.26,0-1.44.61-2.27,1.85-2.27a16.59,16.59,0,0,1,3.09.83,15.37,15.37,0,0,0,4.94.82,7.85,7.85,0,0,0,3.91-1,3,3,0,0,0,1.64-2.67,2.31,2.31,0,0,0-1.44-2.47,26.42,26.42,0,0,0-4.53-1.24c-1-.21-2-.21-2.67-.41a21.24,21.24,0,0,0-2.47-.62,5.59,5.59,0,0,1-2.27-1,5.79,5.79,0,0,1-1.44-1.64,4.45,4.45,0,0,1-.61-2.47,6.73,6.73,0,0,1,2.88-5.36,11.51,11.51,0,0,1,6.79-2.05A12.69,12.69,0,0,1,98.41,179.28Z" transform="translate(0.01)" fill="#1e3768"/><path d="M105.62,180.31a1.84,1.84,0,0,1,1.6-2.05h0a1.62,1.62,0,0,1,.44,0h3.49v-4.33c0-2.06.83-3.08,2.47-3.08.83,0,1.24.2,1.45.61a4.14,4.14,0,0,1,.41,1.86,45.24,45.24,0,0,1-.21,4.94h5.56c1.44,0,2.06.61,2.06,1.85s-.62,1.85-2.06,1.85h-5.56v10.5a9.84,9.84,0,0,0,.82,4.73,2.63,2.63,0,0,0,2.68,1.44,3.36,3.36,0,0,0,1.44-.2,2.65,2.65,0,0,1,1.24-.21,1.46,1.46,0,0,1,1.23.62,1.48,1.48,0,0,1,.41,1.23,2.13,2.13,0,0,1-1,1.86,8.07,8.07,0,0,1-3.5.61,6.83,6.83,0,0,1-5.76-2.26,11.2,11.2,0,0,1-1.85-7.2V182h-3.29C106.23,182.17,105.62,181.55,105.62,180.31Z" transform="translate(0.01)" fill="#1e3768"/><path d="M136.08,196.57a7.44,7.44,0,0,0,5.56,2.06,10.3,10.3,0,0,0,6-1.85,9.15,9.15,0,0,1,1.85-.62,2.27,2.27,0,0,1,1.44.62,1.88,1.88,0,0,1,.62,1.44c0,.82-.41,1.44-1.44,2.06a16.08,16.08,0,0,1-8.85,2.26,11.77,11.77,0,0,1-8.44-3.29,11,11,0,0,1-3.5-8,14.15,14.15,0,0,1,3.5-9.47,11.44,11.44,0,0,1,8.85-3.91,10.94,10.94,0,0,1,7.61,2.89,9,9,0,0,1,3.09,6.58,4.26,4.26,0,0,1-.82,3.09,5.82,5.82,0,0,1-3.5,1H133.61A8.2,8.2,0,0,0,136.08,196.57Zm.21-12.76a7.58,7.58,0,0,0-2.47,4.74c8.64-.21,13-.21,13.38-.21a.54.54,0,0,0,.61-.46v0a.33.33,0,0,0,0-.14,5.3,5.3,0,0,0-1.8-4.32,5.73,5.73,0,0,0-4.32-1.65,6.53,6.53,0,0,0-5.4,2.06Z" transform="translate(0.01)" fill="#1e3768"/><path d="M182.39,183.4c-.61,4.32-1,8-1.44,11.32s-.61,5.35-.82,6.18a2,2,0,0,1-2.23,1.85h0a2.08,2.08,0,0,1-1.65-.62,1.59,1.59,0,0,1-.41-1.64c.41-2.89,1.44-9.06,2.67-18.12s1.86-13.79,1.86-14a1.59,1.59,0,0,1,1-1.24,6.26,6.26,0,0,1,2-.41c1,0,2.06.82,2.68,2.47l8.44,23.46c.2.42.2.83.41,1.24a2.81,2.81,0,0,1,.41,1.23c0,.42.21.62.21.83l.41-1.44c1-2.27,2.06-4.74,3.09-7.21s2.26-5.56,3.5-9.05,2.47-6.39,3.29-8.44a4.88,4.88,0,0,1,2.26-2.89h1.24a2.79,2.79,0,0,1,2.06.83,66.55,66.55,0,0,1,1,6.58c.41,3.5,1,8,1.64,14s1.24,10.09,1.44,12.56c.21,1.64-.61,2.47-2.26,2.47a2,2,0,0,1-2.25-1.83h0v-.22c-.42-2.88-.83-7.41-1.45-13.59s-1-10.49-1.44-13.38l-10,25.33a3.2,3.2,0,0,1-3.09,2.47,1.58,1.58,0,0,1-1.44-.62c-.32-.56-.66-1.11-1-1.64-1.23-3.09-2.88-7.82-5.35-14.41s-3.71-10.29-4.12-11.12A61,61,0,0,1,182.39,183.4Z" transform="translate(0.01)" fill="#1e3768"/><path d="M248.67,193.28c0,2.27,0,4.74.21,7.62,0,1.23-.82,1.85-2.26,1.85a1.85,1.85,0,0,1-1.65-1,21.93,21.93,0,0,1-.62-3.5,9.42,9.42,0,0,1-8.85,4.53,11.33,11.33,0,0,1-8.44-3.5,11,11,0,0,1-3.29-8.23,13.4,13.4,0,0,1,3.7-9.47,12,12,0,0,1,8.85-3.71,9.87,9.87,0,0,1,8.24,4.12,7.48,7.48,0,0,1,.2-2.26,1.9,1.9,0,0,1,1.92-1.86h.14c.82,0,1.44.21,1.65.62a5.68,5.68,0,0,1,.41,2.27v4.11Zm-18.11,3.5a7.46,7.46,0,0,0,5.35,2.22,8.57,8.57,0,0,0,6-2.26,8.25,8.25,0,0,0,2.27-6.17,8.61,8.61,0,0,0-2.47-6.39,8.29,8.29,0,0,0-5.56-2.26,7.28,7.28,0,0,0-5.77,2.68A8.93,8.93,0,0,0,230.56,196.78Z" transform="translate(0.01)" fill="#1e3768"/><path d="M258.76,180.93a2.75,2.75,0,0,1,.62-2.06,2.47,2.47,0,0,1,1.85-.61,2,2,0,0,1,1.65.61,9.42,9.42,0,0,1,.61,1.86V183a6.87,6.87,0,0,1,3.5-3.71,12.39,12.39,0,0,1,5.36-1.44,8.74,8.74,0,0,1,7,2.68,10.93,10.93,0,0,1,2.47,7.62v11.73a3.1,3.1,0,0,1-.61,2.06,2.48,2.48,0,0,1-1.86.61c-1.44,0-2.05-.61-2.05-2,0-.83,0-2.68.2-5.15v-6c0-5.15-2.06-7.62-6-7.62a7.9,7.9,0,0,0-3.29.62,6.23,6.23,0,0,0-2.27,1.44,5,5,0,0,0-1.23,2.27,12.94,12.94,0,0,0-.62,2.67,13.93,13.93,0,0,0-.2,3.09v8.85a2.07,2.07,0,0,1-2,2.07h-.22c-1.44,0-2.06-.62-2.06-2.06v-14.2Z" transform="translate(0.01)" fill="#1e3768"/><path d="M314.54,193.28c0,2.27,0,4.74.21,7.62,0,1.23-.83,1.85-2.27,1.85a1.81,1.81,0,0,1-1.64-1,21.93,21.93,0,0,1-.62-3.5,9.42,9.42,0,0,1-8.85,4.53,11.33,11.33,0,0,1-8.44-3.5,11,11,0,0,1-3.29-8.23,13.4,13.4,0,0,1,3.7-9.47,12,12,0,0,1,8.85-3.71,9.87,9.87,0,0,1,8.24,4.12,7.48,7.48,0,0,1,.2-2.26,1.9,1.9,0,0,1,1.92-1.86h.14c.82,0,1.44.21,1.65.62a5.68,5.68,0,0,1,.41,2.27v4.11Zm-17.91,3.5A7.45,7.45,0,0,0,302,199a8.57,8.57,0,0,0,6-2.26,8.24,8.24,0,0,0,2.26-6.17,8.55,8.55,0,0,0-2.47-6.39,8.27,8.27,0,0,0-5.56-2.26,7.26,7.26,0,0,0-5.76,2.68,9.79,9.79,0,0,0-2.27,6.58A8.65,8.65,0,0,0,296.63,196.78Z" transform="translate(0.01)" fill="#1e3768"/><path d="M340.89,208.31a8.41,8.41,0,0,0,2.47-6.18v-3.7a8.23,8.23,0,0,1-3.71,3.29,10.38,10.38,0,0,1-4.94,1.28,11.69,11.69,0,0,1-8.44-3.5,11.38,11.38,0,0,1-3.29-8.24,12.59,12.59,0,0,1,3.71-9.26,12,12,0,0,1,8.85-3.7,9.7,9.7,0,0,1,8,4.11v-2.26c0-1.24.83-1.65,2.06-1.65a2.39,2.39,0,0,1,1.65.62,1.88,1.88,0,0,1,.62,1.44c0,8.23-.21,13.79-.21,17.08v4.94a11.64,11.64,0,0,1-3.5,9.06,13.27,13.27,0,0,1-9.26,3.5,18,18,0,0,1-7.62-1.44c-1.23-.62-1.85-1.24-1.85-2.26a2.06,2.06,0,0,1,2.06-2.06.75.75,0,0,1,.62.2,1.6,1.6,0,0,1,.82.41c.21.21.62.21.82.42a14.65,14.65,0,0,0,5.15,1A12.78,12.78,0,0,0,340.89,208.31Zm-11.12-11.74a7.58,7.58,0,0,0,5.56,2.27,8.07,8.07,0,0,0,5.76-2.27,7.73,7.73,0,0,0,2.47-6.17A8.85,8.85,0,0,0,341.3,184a8,8,0,0,0-11.24.12l-.08.08a9.83,9.83,0,0,0-2.26,6.59,7.17,7.17,0,0,0,2,5.76Z" transform="translate(0.01)" fill="#1e3768"/><path d="M363.12,196.57a7.44,7.44,0,0,0,5.56,2.06,10.3,10.3,0,0,0,6-1.85,9.15,9.15,0,0,1,1.85-.62,2.27,2.27,0,0,1,1.44.62,1.88,1.88,0,0,1,.62,1.44c0,.82-.41,1.44-1.44,2.06a16.08,16.08,0,0,1-8.85,2.26,11.77,11.77,0,0,1-8.44-3.29,11,11,0,0,1-3.5-8,14.15,14.15,0,0,1,3.5-9.47,11.44,11.44,0,0,1,8.85-3.91,10.94,10.94,0,0,1,7.61,2.89,9,9,0,0,1,3.09,6.58,4.32,4.32,0,0,1-.82,3.09c-.41.62-1.65.82-3.5,1H360.65A8.2,8.2,0,0,0,363.12,196.57Zm.41-12.76a7.58,7.58,0,0,0-2.47,4.74c8.65-.21,13-.21,13.38-.21a.55.55,0,0,0,.62-.47h0v-.14a5.33,5.33,0,0,0-1.85-4.32,6.7,6.7,0,0,0-4.33-1.65,6.35,6.35,0,0,0-5.35,2.06Z" transform="translate(0.01)" fill="#1e3768"/><path d="M388,185.67v-5.36c0-1.44.82-2.05,2.26-2.05s1.85.61,2.06,2.05l.2,2.27a8.89,8.89,0,0,1,3.3-3.5,9.47,9.47,0,0,1,4.53-1.24,7.63,7.63,0,0,1,4.73,1.44,6.74,6.74,0,0,1,2.68,3.71,10,10,0,0,1,3.5-3.71,8.92,8.92,0,0,1,5.14-1.44,8.24,8.24,0,0,1,6.79,2.89,12.32,12.32,0,0,1,2.27,7.61v5.15c0,2.26,0,4.73-.21,7.61,0,1.24-.82,1.86-2.26,1.86a4,4,0,0,1-1.65-.42,1.77,1.77,0,0,1-.62-1.23c.21-6.79.21-10.7.21-11.73,0-4.94-1.85-7.21-5.35-7.21a6.55,6.55,0,0,0-4.74,1.85,6.9,6.9,0,0,0-1.85,5.15v11.12a3,3,0,0,1-.62,2,1.86,1.86,0,0,1-1.85.62,2.93,2.93,0,0,1-1.44-.41,1.88,1.88,0,0,1-.62-1.44V188.75A8.47,8.47,0,0,0,403,184a4.51,4.51,0,0,0-3.91-1.85c-4.53,0-7,3.08-7,9v10.29c0,1.24-.82,1.86-2.47,1.86A3.93,3.93,0,0,1,388,203a1.6,1.6,0,0,1-.62-1.45v-2.67l.2-8.65A20.54,20.54,0,0,0,388,185.67Z" transform="translate(0.01)" fill="#1e3768"/><path d="M440.51,196.57a7.44,7.44,0,0,0,5.56,2.06,10.23,10.23,0,0,0,6-1.85,9.15,9.15,0,0,1,1.85-.62,2.27,2.27,0,0,1,1.44.62,1.83,1.83,0,0,1,.62,1.44c0,.82-.41,1.44-1.44,2.06a16.08,16.08,0,0,1-8.85,2.26,11.77,11.77,0,0,1-8.44-3.29,11.09,11.09,0,0,1-3.5-8,14.2,14.2,0,0,1,3.5-9.47,11.51,11.51,0,0,1,8.85-3.91,10.94,10.94,0,0,1,7.62,2.89,9,9,0,0,1,3.09,6.58,4.33,4.33,0,0,1-.83,3.09,5.82,5.82,0,0,1-3.5,1H438A8.21,8.21,0,0,0,440.51,196.57Zm.21-12.76a7.58,7.58,0,0,0-2.47,4.74c8.65-.21,13-.21,13.38-.21a.56.56,0,0,0,.62-.48v-.14a5.29,5.29,0,0,0-1.86-4.32,5.73,5.73,0,0,0-4.32-1.65,6.57,6.57,0,0,0-5.35,2.06Z" transform="translate(0.01)" fill="#1e3768"/><path d="M465.21,180.93a2.75,2.75,0,0,1,.62-2.06,2.55,2.55,0,0,1,1.85-.61,2,2,0,0,1,1.65.61,9.45,9.45,0,0,1,.62,1.86V183a6.84,6.84,0,0,1,3.5-3.71,12.35,12.35,0,0,1,5.35-1.44,8.74,8.74,0,0,1,7,2.68,10.93,10.93,0,0,1,2.47,7.62v11.73a3.05,3.05,0,0,1-.62,2.06,2.55,2.55,0,0,1-1.85.61c-1.44,0-2.06-.61-2.06-2,0-.83,0-2.68.21-5.15v-6c0-5.15-2.06-7.62-6-7.62a7.94,7.94,0,0,0-3.3.62,6.19,6.19,0,0,0-2.26,1.44,5,5,0,0,0-1.24,2.27,12.17,12.17,0,0,0-.61,2.67,13.36,13.36,0,0,0-.21,3.09v8.85a2.06,2.06,0,0,1-2.05,2.07h-.21c-1.44,0-2.06-.62-2.06-2.06v-14.2Z" transform="translate(0.01)" fill="#1e3768"/><path d="M494.24,180.31a1.84,1.84,0,0,1,1.6-2.05h0a1.62,1.62,0,0,1,.44,0h3.5v-4.33c0-2.06.82-3.08,2.47-3.08.82,0,1.23.2,1.44.61a4.14,4.14,0,0,1,.41,1.86,45.24,45.24,0,0,1-.21,4.94h5.56c1.44,0,2.06.61,2.06,1.85s-.62,1.85-2.06,1.85h-5.56v10.5a9.73,9.73,0,0,0,.83,4.73,2.58,2.58,0,0,0,2.67,1.44,5.41,5.41,0,0,0,1.65-.2,2.6,2.6,0,0,1,1.23-.21,1.49,1.49,0,0,1,1.24.62,2.81,2.81,0,0,1,.41,1.23,2.19,2.19,0,0,1-1,1.86,8.22,8.22,0,0,1-3.5.61,6.83,6.83,0,0,1-5.76-2.26,11.14,11.14,0,0,1-1.85-7.2V182h-3.71C494.86,182.17,494.24,181.55,494.24,180.31Z" transform="translate(0.01)" fill="#1e3768"/></svg>