<svg xmlns="http://www.w3.org/2000/svg" xmlns:xlink="http://www.w3.org/1999/xlink" width="202.834" height="45.156" viewBox="0 0 202.834 45.156"><defs><clipPath id="a"><rect width="202.834" height="45.156" fill="none"/></clipPath></defs><g clip-path="url(#a)"><path d="M693.321,48.917h0V13.712a7.318,7.318,0,0,1,7.318-7.318h0V41.6a7.318,7.318,0,0,1-7.318,7.318" transform="translate(-549.401 -5.067)" fill="#fff"/><path d="M493.576,34.755h10.542l5.85,10.268a7.548,7.548,0,0,0,6.558,3.811h4.036L511.6,33.1a14.245,14.245,0,0,0,7.592-12.522A14.435,14.435,0,0,0,504.758,6.288h-18.5V48.833h0a7.318,7.318,0,0,0,7.318-7.318Zm0-21.149h11.253a7,7,0,0,1,7.044,6.749,6.923,6.923,0,0,1-6.914,7.082H493.576Z" transform="translate(-385.32 -4.983)" fill="#fff"/><path d="M815.288,6.394l-12.16,19.183L790.967,6.394h-7.991V48.917a7.318,7.318,0,0,0,7.318-7.318V19l8.527,13.453a5.1,5.1,0,0,0,8.613,0L815.961,19V41.6a7.318,7.318,0,0,0,7.318,7.318V6.394Z" transform="translate(-620.445 -5.067)" fill="#fff"/><path d="M284.6,22.455H267.932a7.318,7.318,0,0,0,7.318,7.318h.3A14.212,14.212,0,0,1,262.953,37.8c-7.881,0-14.292-6.83-14.292-15.225s6.411-15.225,14.292-15.225a13.669,13.669,0,0,1,8.7,3.154,4.842,4.842,0,0,0,5.1.66l3.786-1.743A21.374,21.374,0,0,0,262.953,0c-11.935,0-21.645,10.129-21.645,22.578s9.71,22.578,21.645,22.578c11.974,0,21.709-10.195,21.645-22.7h0" transform="translate(-191.217 -0.001)" fill="#fff"/><path d="M77.147,116.222H66.735a6.961,6.961,0,0,1,6.961-6.961H84.108a6.961,6.961,0,0,1-6.961,6.961" transform="translate(-52.882 -86.58)" fill="#a652ff"/><path d="M0,43.852a9.424,9.424,0,0,0,9.207-7.413l4.721-21.6a9.437,9.437,0,0,1,18.439,0l4.721,21.6A9.424,9.424,0,0,0,46.3,43.852l-6.687-30.6a16.85,16.85,0,0,0-32.923,0Z" transform="translate(0 -0.001)" fill="#fff"/></g></svg>