<svg xmlns="http://www.w3.org/2000/svg" xmlns:xlink="http://www.w3.org/1999/xlink" width="179.432" height="24.859" viewBox="0 0 179.432 24.859"><defs><clipPath id="a"><rect width="179.432" height="24.859" fill="none"/></clipPath></defs><g transform="translate(45 -2)"><g transform="translate(-45 2)" clip-path="url(#a)"><path d="M488.834,17.379v7.556a10.136,10.136,0,0,1-4.376.21c-.265-.58-.357-22.461-.077-23.616a5.7,5.7,0,0,1,.816-.11c3.621,0,7.244-.033,10.864.039a7.986,7.986,0,0,1,6.882,3.568c2.029,3.023,1.78,8.84-2.412,10.99-.645.331-1.339.565-2.112.886a6.1,6.1,0,0,0,.484.743c1.929,2.18,3.871,4.35,5.8,6.531a9.038,9.038,0,0,1,.6.861c-.2.1-.294.191-.388.192-1.551.012-3.1.044-4.653-.009-.286-.01-.612-.327-.833-.577-1.907-2.164-3.807-4.334-5.678-6.529a1.854,1.854,0,0,0-1.613-.744c-1.052.044-2.108.011-3.3.011m.038-4.059a74.761,74.761,0,0,0,7.856-.307c2.625-.367,3.732-3.285,2.352-5.6a3.689,3.689,0,0,0-3.31-1.756c-2.068-.046-4.138-.019-6.207-.014a5.215,5.215,0,0,0-.691.1Z" transform="translate(-325.87 -0.95)" fill="#fff"/><path d="M215.345,16.888a6.64,6.64,0,0,0,.52.8c1.923,2.189,3.86,4.366,5.786,6.552.207.235.375.5.641.866a6,6,0,0,1-.834.141c-1.335.011-2.673.054-4-.025a1.893,1.893,0,0,1-1.14-.631q-2.889-3.224-5.7-6.518a1.949,1.949,0,0,0-1.7-.746c-1.026.041-2.055.01-3.249.01v7.843h-4.441V1.537a5.714,5.714,0,0,1,.845-.123c3.651,0,7.3-.042,10.953.041a7.819,7.819,0,0,1,7.1,4.036c1.945,3.434,1.028,8.65-2.645,10.5-.627.316-1.3.549-2.134.9m-9.624-3.844c.195.086.269.147.343.147,2.394-.007,4.806.159,7.177-.081,2.661-.269,3.925-2.61,3.032-5.107a3.69,3.69,0,0,0-3.505-2.351c-2.1-.038-4.194-.019-6.291-.015a5.49,5.49,0,0,0-.756.112Z" transform="translate(-135.422 -0.945)" fill="#fff"/><path d="M419.277,1.768h17.66c.036.32.1.632.1.945.013.844-.008,1.689.007,2.533.01.587-.251.842-.839.825-.708-.02-1.416,0-2.124,0q-4.657,0-9.315,0c-.965,0-1.079.121-1.085,1.089-.006,1.116-.009,2.233,0,3.35a9.253,9.253,0,0,0,.127.991h12.674v4.14c-.421.027-.792.071-1.163.071q-5.229.008-10.458,0c-1.118,0-1.183.068-1.185,1.217q0,1.43,0,2.86c0,1.185.032,1.216,1.256,1.217q5.434,0,10.867,0c.345,0,.691.045,1.135.076v4.327H419.277Z" transform="translate(-282.171 -1.19)" fill="#fff"/><path d="M347.939,25.294h-4.484V1.6h4.453v9.926h1.146q4.781,0,9.561.009c.781,0,.894-.083.9-.89.011-2.67,0-5.339.007-8.009,0-1.042.06-1.1,1.118-1.109s2.11,0,3.263,0V25.373c-.817,0-1.592,0-2.367,0-2.3-.008-2,.177-2.011-2.013-.012-2.125,0-4.249-.008-6.374,0-.319-.045-.639-.076-1.058h-11.5Z" transform="translate(-231.143 -1.023)" fill="#fff"/><path d="M140.656,25.195a7.885,7.885,0,0,1-.832.1c-1.035.011-2.071-.029-3.1.017a1.189,1.189,0,0,1-1.286-.876c-.4-.982-.859-1.938-1.268-2.916a1.07,1.07,0,0,0-1.122-.739q-5.391.027-10.781,0a1.109,1.109,0,0,0-1.172.788c-.4.981-.879,1.929-1.295,2.9a1.2,1.2,0,0,1-1.307.841c-.977-.054-1.96-.008-2.94-.018-.285,0-.57-.052-1-.095.358-.835.653-1.55.969-2.256q4.219-9.41,8.444-18.818c.3-.67.6-1.338.889-2.014a.925.925,0,0,1,.932-.646c1.225.009,2.451.017,3.675,0a1,1,0,0,1,.985.706q3.1,6.92,6.193,13.841,1.93,4.316,3.852,8.637a5.63,5.63,0,0,1,.17.545M127.47,6.925c-1.343,3.26-2.858,6.305-4.088,9.585h8.588c-1.384-3.2-2.693-6.231-4.017-9.258-.05-.114-.241-.168-.483-.326" transform="translate(-77.089 -0.986)" fill="#fff"/><path d="M287.5,6.506c-.464-.327-.792-.564-1.127-.792a8.518,8.518,0,0,0-10.659.987,8.334,8.334,0,0,0-2.113,6.792,7.563,7.563,0,0,0,2.227,4.95,8.267,8.267,0,0,0,7.67,1.946,8.43,8.43,0,0,0,3.723-1.774.837.837,0,0,1,.777-.085c.915.845,1.777,1.747,2.727,2.7a7.679,7.679,0,0,1-.686.759,13.121,13.121,0,0,1-10.1,2.784,11.348,11.348,0,0,1-8.216-4.14,12.807,12.807,0,0,1-2.539-9.847,11.61,11.61,0,0,1,5.23-8.818A12.967,12.967,0,0,1,282.612.035,11.9,11.9,0,0,1,289.794,3a4.131,4.131,0,0,0,.689.4L287.5,6.506" transform="translate(-181.085 0)" fill="#fff"/><path d="M0,25.555H24l12-12L24.086,1.317Z" transform="translate(0 -0.887)" fill="#fff"/><path d="M1,1.318H25l12,12L25.086,25.556Z" transform="translate(-0.673 -0.887)" fill="#00c8ff"/></g></g></svg>