<svg xmlns="http://www.w3.org/2000/svg" xmlns:xlink="http://www.w3.org/1999/xlink" width="170.164" height="63.46" viewBox="0 0 170.164 63.46"><defs><clipPath id="a"><rect width="170.164" height="63.46" fill="none"/></clipPath></defs><g transform="translate(0 2)"><g transform="translate(0 -2)" clip-path="url(#a)"><path d="M89.119,59.785h9.573c-.341,1.8.388,3.39.908,5,1.373,4.255,2.814,8.488,4.23,12.729.053.159.121.313.243.623.122-.329.2-.505.254-.689,1.359-4.969,2.731-9.935,4.058-14.913a23,23,0,0,0,.39-2.674,106.383,106.383,0,0,1,10.685-.016,7.712,7.712,0,0,0,.5,3.793q1.921,6.888,3.844,13.774c.053.191.137.373.25.677a5.069,5.069,0,0,0,.282-.544q2.518-7.166,5.021-14.336a5.735,5.735,0,0,0,.426-3.3,65.35,65.35,0,0,1,9.514,0c-1.421,1.064-1.87,2.67-2.522,4.139q-3.24,7.31-6.387,14.661a18.876,18.876,0,0,0-.929,2.865,9.867,9.867,0,0,0-.119,1.786c-.493.162-9.558.224-10.642.055a17.409,17.409,0,0,0-.3-2.44c-1.368-5.182-2.781-10.351-4.181-15.524a2.492,2.492,0,0,0-.107-.246,2.432,2.432,0,0,0-.245.447q-2.082,7.488-4.145,14.981a5.15,5.15,0,0,0-.163,2.786H98.675a5.391,5.391,0,0,0-.558-3.514c-1.545-3.784-3.123-7.554-4.686-11.33-.725-1.751-1.444-3.5-2.169-5.256a7.111,7.111,0,0,0-2.224-3.364l.081-.171" transform="translate(-57.365 -38.474)" fill="#fff"/><path d="M31.073,82.476H22.993V80.593c-.317.189-.513.3-.7.419a12.758,12.758,0,0,1-5.331,1.842,18.5,18.5,0,0,1-7.921-.5c-3.913-1.214-5.241-3.931-5.054-7.56.179-3.444,2.218-5.431,5.3-6.492a14.971,14.971,0,0,1,3.026-.66A17,17,0,0,1,22.041,68.9a6.089,6.089,0,0,0,.655.233,4.353,4.353,0,0,0-3.791-5.62,18.892,18.892,0,0,0-12.386,2.9,2.735,2.735,0,0,1-.433.186c-.2-2.143-.39-4.225-.589-6.37.5-.192.92-.394,1.366-.523a35.39,35.39,0,0,1,15.381-1.086,11.768,11.768,0,0,1,2.878.865,7.994,7.994,0,0,1,4.751,6.522,32.6,32.6,0,0,1,.383,4.506c.059,2.9.028,5.807.013,8.711a4.643,4.643,0,0,0,.745,2.956c.046.061.036.164.06.295M16.194,77.9a27.683,27.683,0,0,0,3.151-.316,9.5,9.5,0,0,0,2.727-.969,1.511,1.511,0,0,0,.053-2.694,5.372,5.372,0,0,0-1.419-.7,13.22,13.22,0,0,0-4.9-.593,7.266,7.266,0,0,0-3.261.729,2.245,2.245,0,0,0-1.269,2.338,1.877,1.877,0,0,0,1.653,1.725c1.151.23,2.325.35,3.266.486" transform="translate(-2.556 -37.51)" fill="#fff"/><path d="M432.416,72.776c-.487-.081-.853-.168-1.224-.2-.944-.08-1.89-.187-2.835-.192-4.327-.022-8.655-.014-12.982-.014-.232,0-.465.021-.687.032a4.161,4.161,0,0,0,2.449,4.568,11.183,11.183,0,0,0,3.258.79,19.926,19.926,0,0,0,9.794-1.688c.317-.142.639-.272,1.047-.444.2,1.845.392,3.588.6,5.455a22.034,22.034,0,0,1-2.223.861,30.687,30.687,0,0,1-14.517.484,9.139,9.139,0,0,1-7.537-7.473,17.025,17.025,0,0,1,.3-9.3,10.019,10.019,0,0,1,7.451-6.83,20.485,20.485,0,0,1,9.68-.051,8.554,8.554,0,0,1,6.37,5.626,15.039,15.039,0,0,1,1.058,5.465c0,.939,0,1.878,0,2.911M425.03,67.9a4.092,4.092,0,0,0-3.252-4.317,7.948,7.948,0,0,0-4.3.251,3.635,3.635,0,0,0-2.082,1.71,3.577,3.577,0,0,0-.371,1.346c-.049.621.255.911.889.988a6.719,6.719,0,0,0,.8.022q3.69,0,7.381,0h.934" transform="translate(-262.253 -37.509)" fill="#fff"/><path d="M266.64,19.418l2.168.251v6.513h-1.546V21.193h-23.8v2.479c.376.025.689.064,1,.065,1.689.006,3.379,0,5.068.006.906,0,1.015.118,1.024,1.035q.014,1.423,0,2.845c-.008.957-.133,1.089-1.071,1.094-1.689.009-3.379,0-5.068,0-.264,0-.528.022-.869.037l-.095.823a3.7,3.7,0,0,0,.638.124c1.63.01,3.26.006,4.891.007,1.576,0,1.576,0,1.576,1.575,0,.771.012,1.542-.006,2.312a9.6,9.6,0,0,1-.139,1.025h-6.877c-.029.371-.051.648-.081,1.032.376.025.688.062,1,.064,1.66.006,3.32,0,4.979.005.984.005,1.114.142,1.121,1.145.007.948.012,1.9,0,2.845-.012.832-.154.978-1,.985-1.659.014-3.32,0-4.979,0h-.936a2,2,0,0,0,1.676,2.638,4.913,4.913,0,0,0,.71.025q9.337,0,18.673.007a2.6,2.6,0,0,0,1.751-.5,2.268,2.268,0,0,0,.809-1.884c-.015-3.023-.006-6.047-.006-9.07V30.875h1.536c.026.276.071.53.072.784,0,3.2.011,6.4,0,9.6a3.731,3.731,0,0,1-3.658,3.717q-9.826.026-19.651,0a3.708,3.708,0,0,1-3.7-3.58c-.009-.175-.027-.35-.042-.546-.941-.412-2.023.175-2.958-.426v-4.4c.89-.621,1.968-.074,2.936-.409v-.948c-.52,0-.987.007-1.455,0s-.923-.036-1.528-.061V33.1c0-.8-.007-1.6,0-2.4.009-.826.144-.96,1-.978.644-.014,1.288,0,1.986,0v-.995c-.685,0-1.327.01-1.969,0-.9-.016-1.009-.129-1.015-1.042q-.009-1.467,0-2.934c0-.259.038-.518.069-.915l2.94-.149c.014-.652.031-1.262.038-1.873.006-.5,0-1.007,0-1.511a.69.69,0,0,1,.77-.77c.441-.011.882,0,1.423,0,.028-.393.069-.705.069-1.018.006-2.43-.046-4.862.016-7.291a10.89,10.89,0,0,1,5.785-9.761,11.211,11.211,0,0,1,16.482,7.7,15.058,15.058,0,0,1,.2,2.562c.026,2.312.008,4.623.01,6.935,0,.234.021.468.036.773m-5.269.042v-.977c0-2.431.042-4.862-.009-7.292a5.993,5.993,0,0,0-11.986.162c-.009,2.371,0,4.743,0,7.114,0,.315.037.63.06.993Zm-13.5-.022v-.931c0-2.281-.014-4.562.008-6.843a10.639,10.639,0,0,1,.188-2.026,7.5,7.5,0,0,1,14.807,1.932c0,2.311,0,4.622,0,6.932,0,.311.042.623.066.941H265a4.107,4.107,0,0,0,.083-.567c0-2.636.025-5.273-.047-7.907a9.939,9.939,0,0,0-.481-2.87,9.725,9.725,0,0,0-18.908,2.827c-.077,2.6-.015,5.213-.009,7.82a6.439,6.439,0,0,0,.075.693Zm.716,6.219h-1.429V27.05h1.429Zm-8.076,7.594h1.256v-1.4h-1.256Zm-.053-6.029h1.291V25.846h-1.291ZM247.1,37.678c.03.523.052.921.077,1.357h1.394V37.678Zm.082-4.665h1.4v-1.32h-1.4Zm-6.705,6.3,1.306-.076V37.9h-1.306Z" transform="translate(-153.851 0)" fill="#fff"/><path d="M350.881,60.911c2.526-2.719,5.575-3.025,8.86-2.414A11.355,11.355,0,0,1,363.705,60a4.361,4.361,0,0,1,.364.249.99.99,0,0,1,.135.2c-.459,2.647-1.382,5.252-1.547,8.212-.534-.554-.922-.982-1.338-1.381a11.034,11.034,0,0,0-5.42-3.219c-.058-.012-.115-.027-.174-.037-2.688-.468-4.307.726-4.615,3.441a25.1,25.1,0,0,0-.158,2.656c-.02,2.844-.013,5.689,0,8.533a12.117,12.117,0,0,0,.1,1.947,16.218,16.218,0,0,0,.538,1.877h-8.673c.916-1.536.705-3.178.71-4.786.014-4.978,0-9.955.005-14.933a5.8,5.8,0,0,0-.728-3.372l7.976-.993Z" transform="translate(-220.924 -37.517)" fill="#fff"/><path d="M292.659,74.261c0,2.074.007,4.149-.006,6.223a4.3,4.3,0,0,1-.144,1.227,2.25,2.25,0,0,1-2.081,1.678,17.1,17.1,0,0,1-3.277-.005,2.412,2.412,0,0,1-2.252-2.447c-.023-.235-.014-.473-.014-.71q0-6,0-12a5.8,5.8,0,0,1,.053-.974,2.3,2.3,0,0,1,2.2-2.182,15.034,15.034,0,0,1,3.187-.019,2.376,2.376,0,0,1,2.32,2.632c.026,1.926.007,3.852.008,5.778q0,.4,0,.8m-6.151-.055c0,2.132-.006,4.263,0,6.4,0,.872.3,1.179,1.161,1.206q1.109.035,2.22,0c.879-.026,1.17-.322,1.171-1.19q.008-6.4,0-12.79c0-.892-.328-1.2-1.245-1.221-.651-.013-1.3-.009-1.954,0-1.068.012-1.351.3-1.354,1.384,0,2.072,0,4.145,0,6.217" transform="translate(-183.542 -41.862)" fill="#fff"/><path d="M59.727,15.908H57.375c-.455-.85.226-1.913-.483-2.66-.537.087-.563.426-.564.755-.007,1.747-.014,3.495.007,5.242a3.743,3.743,0,0,0,.289.908c.994-.737.322-1.731.734-2.514h2.235a4.4,4.4,0,0,1-.174,2.556,2.232,2.232,0,0,1-.641.828,3.436,3.436,0,0,1-4.055.029,2.356,2.356,0,0,1-.683-1.1,6.608,6.608,0,0,1-.191-1.668c-.025-1.214-.02-2.429,0-3.642.038-2.42,1.629-3.6,3.962-2.951a2.183,2.183,0,0,1,1.768,1.885c.092.725.1,1.461.149,2.328" transform="translate(-34.682 -7.421)" fill="#ef1d1e"/><path d="M31.138,15.937H28.773c-.425-.872.165-1.878-.431-2.664-.641.074-.592.529-.6.883-.031,1.095-.025,2.191-.026,3.287,0,.592-.015,1.187.035,1.775a4.619,4.619,0,0,0,.332.963c.9-.782.279-1.725.673-2.511h2.322a6.425,6.425,0,0,1-.247,2.588,2.229,2.229,0,0,1-1.512,1.279,3.867,3.867,0,0,1-2.447-.036,1.961,1.961,0,0,1-1.485-1.811q-.1-3.013-.032-6.031a1.989,1.989,0,0,1,1.243-1.723,3.536,3.536,0,0,1,3.33.082A1.826,1.826,0,0,1,30.951,13.4c.11.81.125,1.633.187,2.541" transform="translate(-16.315 -7.448)" fill="#ef1d1e"/><path d="M95.23,25.127c-.907-.023-1.754.249-2.564-.266-.1.059-.2.12-.3.174a1.59,1.59,0,0,1-2.543-1.415c-.047-1.6-.019-3.2-.023-4.8,0-.5,0-.993,0-1.551h2.292c.022.352.056.664.057.976.007,1.571,0,3.142.012,4.713,0,.33-.09.731.364.882.468-.2.354-.6.357-.93.012-1.541,0-3.083.008-4.624,0-.317.032-.632.051-1H95.23Z" transform="translate(-57.851 -11.125)" fill="#ef1d1e"/><path d="M107.616,16.973c1.4-.223,1.906-.161,2.5.311a3.07,3.07,0,0,1,.34-.251,1.565,1.565,0,0,1,2.487,1.3c.06.765.027,1.537.029,2.306q.005,1.686,0,3.372c0,.229-.042.457-.071.75h-2.209c-.026-.349-.067-.661-.068-.974-.007-1.538.006-3.077-.012-4.614a6.066,6.066,0,0,0-.188-1.007c-.589.218-.517.607-.52.939-.011,1.538-.006,3.076-.014,4.614,0,.318-.031.636-.052,1.031H107.7a40.361,40.361,0,0,1-.079-7.775" transform="translate(-69.238 -10.796)" fill="#ef1d1e"/><path d="M72.49,20.976a18.247,18.247,0,0,1,.014-2.041A2.106,2.106,0,0,1,74.67,16.88a4.944,4.944,0,0,1,1.66.182,1.92,1.92,0,0,1,1.477,1.895c.03,1.36.01,2.722-.016,4.083a1.916,1.916,0,0,1-.766,1.45,3.532,3.532,0,0,1-3.772.076,2.093,2.093,0,0,1-.773-1.635c-.039-.649-.009-1.3-.009-1.954h.02m2.9-2.619-.239-.068c-.105.12-.3.239-.3.361q-.028,2.295.006,4.59c0,.122.2.24.415.488a3.2,3.2,0,0,0,.211-.755,38.144,38.144,0,0,0-.091-4.617" transform="translate(-46.683 -10.87)" fill="#ef1d1e"/><path d="M11.467,12.452h3.847v1.8l-1.47.155v1.633l1.387.192v1.674l-1.311.119c-.321.636-.11,1.276-.15,2l1.7.13v1.865c-1.338.057-2.68.045-4,0a53.4,53.4,0,0,1-.006-9.572" transform="translate(-7.252 -8.022)" fill="#ef1d1e"/><path d="M128.47,19.778c-.266-1.337-.266-1.337-.683-1.609a4.346,4.346,0,0,0-.152.762q-.022,1.864,0,3.728c0,.338-.058.745.5.822.612-.465.187-1.226.5-1.852h1.961a14.018,14.018,0,0,1-.114,1.441,2.127,2.127,0,0,1-1.319,1.665,3.286,3.286,0,0,1-2.511.022,1.79,1.79,0,0,1-1.269-1.574c-.075-1.53-.062-3.066-.051-4.6a1.614,1.614,0,0,1,.943-1.412,3.136,3.136,0,0,1,3.294.037c.946.566.988,1.527,1,2.568Z" transform="translate(-80.736 -10.775)" fill="#ef1d1e"/><path d="M153.7,22h-2.185a64.476,64.476,0,0,1-.03-9.526h2.207c.038,3.175.026,6.316.007,9.526" transform="translate(-97.495 -8.036)" fill="#ef1d1e"/><rect width="2.309" height="7.78" transform="translate(50.578 6.191)" fill="#ef1d1e"/><path d="M43.5,27.544V25.968a16.975,16.975,0,0,1,3,0v1.556a12.18,12.18,0,0,1-3,.021" transform="translate(-28.029 -16.687)" fill="#ef1d1e"/><rect width="2.309" height="1.085" transform="translate(50.586 4.438)" fill="#ef1d1e"/><rect width="1.477" height="1.598" transform="translate(113.461 27.733)" fill="#fff"/><rect width="1.641" height="3.85" transform="translate(104.435 26.419)" fill="#fff"/><path d="M295.224,100.784H293.58V97.108a1.493,1.493,0,0,1,1.644-.029Z" transform="translate(-189.146 -62.396)" fill="#fff"/><path d="M295.23,90.239h-1.646V88.594a2.021,2.021,0,0,1,1.646-.072Z" transform="translate(-189.148 -56.943)" fill="#fff"/><path d="M3.349,156.309H2.338L0,147.725H1.118l1.719,7.008h.048l1.933-7.008H5.9l1.934,7.008h.047l1.72-7.008H10.72l-2.338,8.584H7.371L5.389,149.5H5.33Z" transform="translate(0 -95.175)" fill="#fff"/><path d="M38.528,146.671h1.035v3.587h.024a2.114,2.114,0,0,1,2.034-1.1,2.169,2.169,0,0,1,2.261,2.38v4.093H42.847v-3.909a1.438,1.438,0,0,0-1.535-1.642,1.687,1.687,0,0,0-1.749,1.862v3.689H38.528Z" transform="translate(-24.823 -94.496)" fill="#fff"/><path d="M67.658,158.3A2.525,2.525,0,0,1,65,160.194c-1.8,0-2.939-1.255-2.939-3.242s1.142-3.29,2.891-3.29c1.714,0,2.784,1.207,2.784,3.147v.4h-4.6v.059a1.835,1.835,0,0,0,1.892,2.011,1.571,1.571,0,0,0,1.612-.981Zm-4.527-1.916h3.528a1.7,1.7,0,0,0-1.725-1.815,1.8,1.8,0,0,0-1.8,1.815" transform="translate(-39.984 -99)" fill="#fff"/><path d="M86.579,153.721h.976v1.041h.024a2.3,2.3,0,0,1,4.259,1.261v4.11H90.8V156.2c0-1.047-.488-1.618-1.5-1.618a1.642,1.642,0,0,0-1.689,1.827v3.724H86.579Z" transform="translate(-55.78 -99)" fill="#fff"/><path d="M130.119,156.309H124.8v-8.584h5.318v.964h-4.248v2.754H129.9v.952h-4.028v2.951h4.248Z" transform="translate(-80.405 -95.175)" fill="#fff"/><path d="M150.71,160.242h-1.047l-2.368-6.413h1.082l1.8,5.294h.024l1.8-5.294h1.077Z" transform="translate(-94.898 -99.108)" fill="#fff"/><path d="M175.657,158.3A2.525,2.525,0,0,1,173,160.194c-1.8,0-2.939-1.255-2.939-3.242s1.142-3.29,2.891-3.29c1.714,0,2.784,1.207,2.784,3.147v.4h-4.6v.059a1.835,1.835,0,0,0,1.892,2.011,1.571,1.571,0,0,0,1.612-.981Zm-4.527-1.916h3.528a1.7,1.7,0,0,0-1.725-1.815,1.8,1.8,0,0,0-1.8,1.815" transform="translate(-109.564 -99)" fill="#fff"/><path d="M194.578,153.721h.976v1.041h.024a1.547,1.547,0,0,1,1.553-1.1,2.309,2.309,0,0,1,.428.036v1.017a2.171,2.171,0,0,0-.565-.059,1.368,1.368,0,0,0-1.38,1.511v3.968h-1.035Z" transform="translate(-125.361 -99)" fill="#fff"/><path d="M210.031,162.527v-.874a2.406,2.406,0,0,0,.422.036c.6,0,.916-.286,1.178-1.059l.125-.381-2.374-6.419h1.1l1.8,5.36h.023l1.8-5.36h1.089l-2.51,6.806c-.547,1.487-1.059,1.933-2.2,1.933a2.877,2.877,0,0,1-.452-.042" transform="translate(-134.9 -99.108)" fill="#fff"/><path d="M232.214,156.927c0-1.993,1.154-3.266,2.956-3.266s2.957,1.273,2.957,3.266-1.154,3.266-2.957,3.266-2.956-1.279-2.956-3.266m4.86,0c0-1.475-.708-2.344-1.9-2.344s-1.9.875-1.9,2.344.714,2.344,1.9,2.344,1.9-.874,1.9-2.344" transform="translate(-149.609 -99)" fill="#fff"/><path d="M257.4,153.721h.976v1.041h.024a2.3,2.3,0,0,1,4.259,1.261v4.11h-1.035V156.2c0-1.047-.488-1.618-1.5-1.618a1.642,1.642,0,0,0-1.689,1.827v3.724H257.4Z" transform="translate(-165.837 -99)" fill="#fff"/><path d="M286.264,158.3a2.525,2.525,0,0,1-2.659,1.891c-1.8,0-2.939-1.255-2.939-3.242s1.142-3.29,2.891-3.29c1.713,0,2.784,1.207,2.784,3.147v.4h-4.6v.059a1.835,1.835,0,0,0,1.892,2.011,1.571,1.571,0,0,0,1.612-.981Zm-4.527-1.916h3.528a1.7,1.7,0,0,0-1.725-1.815,1.8,1.8,0,0,0-1.8,1.815" transform="translate(-180.825 -99)" fill="#fff"/><path d="M322.5,147.725a2.76,2.76,0,0,1-.012,5.521h-2.16v3.064h-1.071v-8.584Zm-2.171,4.569h1.892a1.812,1.812,0,1,0,0-3.617h-1.892Z" transform="translate(-205.688 -95.175)" fill="#fff"/><path d="M344.677,153.721h.976v1.041h.024a1.547,1.547,0,0,1,1.553-1.1,2.309,2.309,0,0,1,.428.036v1.017a2.172,2.172,0,0,0-.565-.059,1.368,1.368,0,0,0-1.38,1.511v3.968h-1.035Z" transform="translate(-222.066 -99)" fill="#fff"/><path d="M359.316,156.927c0-1.993,1.154-3.266,2.956-3.266s2.957,1.273,2.957,3.266-1.154,3.266-2.957,3.266-2.956-1.279-2.956-3.266m4.86,0c0-1.475-.708-2.344-1.9-2.344s-1.9.875-1.9,2.344.714,2.344,1.9,2.344,1.9-.874,1.9-2.344" transform="translate(-231.498 -99)" fill="#fff"/><path d="M384.876,149.765v1.445h1.249v.857h-1.249v3.849c0,.589.25.857.8.857a4.343,4.343,0,0,0,.446-.03v.874a3.761,3.761,0,0,1-.666.054c-1.16,0-1.612-.482-1.612-1.714v-3.891h-.892v-.857h.892v-1.445Z" transform="translate(-246.724 -96.49)" fill="#fff"/><path d="M404.824,158.3a2.525,2.525,0,0,1-2.659,1.891c-1.8,0-2.939-1.255-2.939-3.242s1.142-3.29,2.891-3.29c1.713,0,2.784,1.207,2.784,3.147v.4h-4.6v.059a1.835,1.835,0,0,0,1.892,2.011,1.571,1.571,0,0,0,1.612-.981Zm-4.527-1.916h3.528a1.7,1.7,0,0,0-1.725-1.815,1.8,1.8,0,0,0-1.8,1.815" transform="translate(-257.21 -99)" fill="#fff"/><path d="M427.457,155.81a1.551,1.551,0,0,0-1.666-1.225c-1.118,0-1.88.928-1.88,2.344,0,1.457.773,2.344,1.892,2.344a1.531,1.531,0,0,0,1.666-1.19h1.017a2.519,2.519,0,0,1-2.689,2.112c-1.761,0-2.939-1.249-2.939-3.266,0-1.97,1.172-3.266,2.927-3.266a2.528,2.528,0,0,1,2.689,2.148Z" transform="translate(-272.436 -99)" fill="#fff"/><path d="M447.348,149.765v1.445H448.6v.857h-1.249v3.849c0,.589.25.857.8.857a4.342,4.342,0,0,0,.446-.03v.874a3.761,3.761,0,0,1-.666.054c-1.16,0-1.612-.482-1.612-1.714v-3.891h-.892v-.857h.892v-1.445Z" transform="translate(-286.973 -96.49)" fill="#fff"/><path d="M464.835,153.678a2.116,2.116,0,0,1,2.332,1.832h-.994c-.065-.6-.589-.976-1.375-.976s-1.32.375-1.32.934c0,.434.345.726,1.082.91l.976.244c1.3.327,1.761.779,1.761,1.714,0,1.095-1.053,1.868-2.534,1.868a2.236,2.236,0,0,1-2.481-1.862h1.041c.107.655.637,1.006,1.511,1.006s1.422-.363,1.422-.94c0-.452-.268-.69-1-.881l-1.124-.291c-1.124-.291-1.672-.857-1.672-1.713,0-1.083.981-1.844,2.374-1.844" transform="translate(-297.836 -99.011)" fill="#fff"/><rect width="2.134" height="1.779" transform="translate(89.424 25.405)" fill="#ef1d1e"/><rect width="2.134" height="1.779" transform="translate(89.424 31.452)" fill="#ef1d1e"/><rect width="2.134" height="1.779" transform="translate(89.424 37.499)" fill="#ef1d1e"/></g></g></svg>