<svg xmlns="http://www.w3.org/2000/svg" xmlns:xlink="http://www.w3.org/1999/xlink" width="172.88" height="53.005" viewBox="0 0 172.88 53.005"><defs><clipPath id="a"><path d="M19.832,46.619a6.689,6.689,0,0,1-1.98-1.273,11.893,11.893,0,0,1-2.1-2.549A20.341,20.341,0,0,1,14,39.236a31.147,31.147,0,0,1-1.443-5.092c-.168-.846-.3-1.7-.416-2.552-.064-.479-.1-.961-.151-1.442-.037-.377-.067-.754-.1-1.131,0-.042-.008-.084-.009-.126-.025-.841-.091-1.68-.076-2.522.006-.358,0-.715.007-1.073.018-.61.038-1.219.073-1.828q.042-.74.121-1.477c.119-1.108.263-2.212.469-3.308.2-1.055.436-2.1.73-3.132a25.751,25.751,0,0,1,1.482-3.988,17.9,17.9,0,0,1,1.367-2.413,11.4,11.4,0,0,1,1.555-1.86,7.382,7.382,0,0,1,2.186-1.473,5.189,5.189,0,0,1,1.18-.336,4.28,4.28,0,0,1,.722-.061,4.854,4.854,0,0,1,1.366.211,6.17,6.17,0,0,1,2.122,1.15A10.036,10.036,0,0,1,26.772,8.4a15.335,15.335,0,0,1,1.563,2.44,24.553,24.553,0,0,1,1.676,4.148,34,34,0,0,1,.96,4.016c.113.631.212,1.265.282,1.9.052.47.114.939.16,1.41.037.377.052.755.083,1.132.059.724.067,1.449.074,2.175,0,.2,0,.4,0,.6h.008c-.009.6,0,1.2-.032,1.8-.023.5-.041,1.008-.1,1.511-.033.3-.047.608-.08.911q-.079.737-.171,1.472c-.07.553-.163,1.1-.261,1.651a32.591,32.591,0,0,1-.731,3.2,27.21,27.21,0,0,1-1.18,3.361,18.526,18.526,0,0,1-1.711,3.157,11.553,11.553,0,0,1-1.533,1.838,7.27,7.27,0,0,1-2.035,1.418,5.427,5.427,0,0,1-1.542.434,4.1,4.1,0,0,1-.526.034,4.946,4.946,0,0,1-1.848-.387M21.65,0a.3.3,0,0,1-.079.05,2.848,2.848,0,0,0-.743.339Q19.05,1.441,17.275,2.5q-1.5.894-3.007,1.791-2.006,1.192-4.013,2.381L5.565,9.454,1.091,12.111c-.09.054-.18.109-.267.167a1.426,1.426,0,0,0-.632.977c-.03.176-.054.353-.076.53A.652.652,0,0,1,0,14.14V17.8a.4.4,0,0,1,.053.242c0,.21,0,.421.008.631.047.872.051,1.744.069,2.616,0,.21.024.42.034.63s.013.42.023.63c.021.451.035.9.071,1.354.029.356.082.71.133,1.063.077.53.154,1.061.243,1.589a35.3,35.3,0,0,0,.983,4.332,38.685,38.685,0,0,0,1.474,4.091,33.484,33.484,0,0,0,2.244,4.338,35.936,35.936,0,0,0,2.646,3.765q.712.885,1.486,1.717a32.927,32.927,0,0,0,6.5,5.371,25.469,25.469,0,0,0,3.2,1.765c.632.285,1.268.562,1.9.846a.949.949,0,0,1,.331.176h.884a.76.76,0,0,1,.122-.094c.075-.037.155-.064.234-.094a29.25,29.25,0,0,0,5.25-2.667,32.835,32.835,0,0,0,9.478-9.218,36.061,36.061,0,0,0,3.115-5.62,35.557,35.557,0,0,0,2.14-6.356q.357-1.52.578-3.066.129-.89.218-1.783c.057-.575.105-1.152.126-1.729.03-.84.079-1.68.075-2.522-.005-1.23,0-2.461-.006-3.691,0-.694,0-1.388,0-2.082a3.029,3.029,0,0,0-.059-.627,1.873,1.873,0,0,0-.464-.917A2.67,2.67,0,0,0,42.478,12l-.68-.4L38.732,9.78,33.005,6.389,29.1,4.072Q27.456,3.1,25.814,2.128,24.323,1.242,22.832.354a2.464,2.464,0,0,0-.663-.287A.778.778,0,0,1,22.029,0Z" transform="translate(0 -0.001)" fill="none"/></clipPath><radialGradient id="b" cx="0.009" cy="0.994" r="0" gradientTransform="translate(-0.103) scale(1.207 1)" gradientUnits="objectBoundingBox"><stop offset="0" stop-color="#2013ad"/><stop offset="0.426" stop-color="#2013ad"/><stop offset="0.55" stop-color="#1251cc"/><stop offset="0.69" stop-color="#0591ed"/><stop offset="0.756" stop-color="#00abfb"/><stop offset="1" stop-color="#00abfb"/></radialGradient><clipPath id="c"><rect width="172.876" height="52.9" fill="none"/></clipPath></defs><g transform="translate(0 0.5)"><g transform="translate(0 -0.451)"><g clip-path="url(#a)"><rect width="44.451" height="53.639" transform="translate(-0.836 0.013) rotate(-0.905)" fill="url(#b)"/></g></g><g transform="translate(0.003 -0.5)"><g transform="translate(0 0)" clip-path="url(#c)"><path d="M3798.641,1973.2c-.158,0-.315-.005-.473-.005H3684.557c-.137,0-.273,0-.41,0a1.108,1.108,0,0,1-.148-.023c-.019-.04-.043-.067-.043-.095,0-.315,0-.631,0-.946a.287.287,0,0,1,.026-.074.725.725,0,0,1,.135-.041,1.432,1.432,0,0,1,.189-.005h113.863c.158,0,.315,0,.473-.005Z" transform="translate(-3625.824 -1940.833)" fill="#fff"/><path d="M3680.5,651.386c.02.073.07.093.112.123.181.127.368.246.541.383a4.985,4.985,0,0,1,1.844,3.066,5.412,5.412,0,0,1-1.666,4.952,4.949,4.949,0,0,1-2.637,1.255,6.025,6.025,0,0,1-.88.07q-2.839,0-5.679,0c-.063,0-.126,0-.189,0a.5.5,0,0,1-.52-.517c0-.052,0-.105,0-.158,0-.158,0-.315-.006-.473q-.03-1.561-.061-3.122c0-.179,0-.358,0-.536q0-4.37,0-8.739c0-.652,0-1.3.025-1.956.029-.788.029-1.577.044-2.365a2.108,2.108,0,0,1,.011-.252.489.489,0,0,1,.463-.439c.063-.006.126,0,.189,0q2.24-.008,4.48-.015a5.416,5.416,0,0,1,1.127.108,4.96,4.96,0,0,1,2.043.943,5.256,5.256,0,0,1,2,3.294,5.1,5.1,0,0,1-1,4.1l-.226.287m-6.429,7.418a.648.648,0,0,0,.318.034q1.7-.007,3.407-.017c.084,0,.168,0,.252-.007a2.135,2.135,0,0,0,1.55-.8,3.028,3.028,0,0,0,.59-1.209,3.876,3.876,0,0,0,.071-1.223,3.007,3.007,0,0,0-.674-1.67,2.051,2.051,0,0,0-1.307-.755,3.73,3.73,0,0,0-.6-.047l-3.092-.012c-.136,0-.273,0-.41,0a.137.137,0,0,0-.129.071,1.051,1.051,0,0,0-.013.315q0,2.477,0,4.953c0,.084,0,.169,0,.252a.6.6,0,0,0,.031.116m.016-8.029c.078.006.15.018.222.017.336-.005.672-.016,1.009-.022.42-.007.841-.009,1.262-.015a3.3,3.3,0,0,0,.751-.077,2.341,2.341,0,0,0,1.23-.724,2.894,2.894,0,0,0,.611-1.092,3.332,3.332,0,0,0,.132-1.091,2.934,2.934,0,0,0-.73-1.871,2.254,2.254,0,0,0-1.073-.69,3.041,3.041,0,0,0-.87-.13c-.747,0-1.493-.013-2.24-.019-.074,0-.147,0-.221,0a.672.672,0,0,0-.122.033,1.139,1.139,0,0,0-.026.35q0,1.325.007,2.65,0,1.167.008,2.334a.615.615,0,0,0,.05.341" transform="translate(-3613.423 -632.464)" fill="#fff"/><path d="M8049.562,646.18a7.114,7.114,0,0,1,2.21.3,6.744,6.744,0,0,1,2.722,1.6,10.577,10.577,0,0,1,1.438,1.712,1.092,1.092,0,0,1,.109.191.492.492,0,0,1-.161.591,1.337,1.337,0,0,1-.134.083c-.419.241-.838.483-1.259.721a1.511,1.511,0,0,1-.261.108.424.424,0,0,1-.479-.15,2.607,2.607,0,0,1-.166-.23,5.336,5.336,0,0,0-1.208-1.235,4.772,4.772,0,0,0-2.3-.88,5.113,5.113,0,0,0-.849-.04,6.233,6.233,0,0,0-2.091.426,3.284,3.284,0,0,0-1.164.793,1.98,1.98,0,0,0-.481.84,1.836,1.836,0,0,0,.21,1.428,2.652,2.652,0,0,0,.538.656,4.982,4.982,0,0,0,1.7,1.011c.565.2,1.145.35,1.727.494s1.185.285,1.774.44c.324.086.644.192.962.3a4.853,4.853,0,0,1,1.728,1.076,3.687,3.687,0,0,1,.839,1.21,5.559,5.559,0,0,1,.47,1.63,4.336,4.336,0,0,1-.219,2.081,4.183,4.183,0,0,1-.875,1.374,5.543,5.543,0,0,1-1.508,1.129,7.66,7.66,0,0,1-1.957.689,8.811,8.811,0,0,1-1.847.2,11.532,11.532,0,0,1-1.417-.069,7.47,7.47,0,0,1-3.584-1.364,7.382,7.382,0,0,1-1.893-2.093.594.594,0,0,1-.1-.325.444.444,0,0,1,.2-.376,1.462,1.462,0,0,1,.164-.094q.658-.342,1.316-.682a1.382,1.382,0,0,1,.2-.088.465.465,0,0,1,.54.147c.067.08.132.164.2.244a5.737,5.737,0,0,0,.98.933,5.127,5.127,0,0,0,2.432.972,7.022,7.022,0,0,0,1.354.037,5.827,5.827,0,0,0,1.4-.237,3.666,3.666,0,0,0,1.019-.49,2.5,2.5,0,0,0,.445-.4,1.505,1.505,0,0,0,.362-.792,1.478,1.478,0,0,0-.2-.94,2.466,2.466,0,0,0-.494-.611,3.99,3.99,0,0,0-1.11-.712,7.781,7.781,0,0,0-1.441-.453,21.392,21.392,0,0,1-2.457-.689,7.5,7.5,0,0,1-3.037-1.976,4.988,4.988,0,0,1-1.118-1.919,4.223,4.223,0,0,1-.207-1.4,4.366,4.366,0,0,1,.54-1.99,5.243,5.243,0,0,1,1.315-1.556,6.859,6.859,0,0,1,2.547-1.279,9.716,9.716,0,0,1,1.454-.274,10.886,10.886,0,0,1,1.132-.066" transform="translate(-7915.135 -635.932)" fill="#fff"/><path d="M7040.779,612.727a.57.57,0,0,0,.036-.293q.006-1.341.008-2.681,0-1.924.009-3.848c0-.137,0-.274.011-.41a.555.555,0,0,1,.189-.387.486.486,0,0,1,.279-.135c.094-.009.188-.02.282-.021q.505,0,1.01,0c.083,0,.167.011.251.016a.563.563,0,0,1,.495.5,1.62,1.62,0,0,1,.01.189q.025,1.009.049,2.018c.007.326.01.652.015.978.02,1.324.047,2.649.057,3.973.01,1.251.007,2.5,0,3.753,0,.578-.021,1.157-.061,1.733a6.061,6.061,0,0,1-.656,2.385,6.54,6.54,0,0,1-3.961,3.345,5.574,5.574,0,0,1-1.266.246c-.22.017-.439.039-.661.038a6.546,6.546,0,0,1-6.388-5.328,4.782,4.782,0,0,1-.093-.814,8.409,8.409,0,0,1,.064-1.478,6.321,6.321,0,0,1,.611-1.881,6.6,6.6,0,0,1,2.665-2.785,6.23,6.23,0,0,1,2.1-.741,6.431,6.431,0,0,1,1.13-.087,4.722,4.722,0,0,1,1.334.214,6.47,6.47,0,0,1,1.135.467,4.007,4.007,0,0,1,1.183.931.864.864,0,0,0,.117.1c.006.005.019,0,.05,0m-7.727,4.829a3.853,3.853,0,1,0,3.854-3.844,3.838,3.838,0,0,0-3.854,3.844" transform="translate(-6919.454 -595.355)" fill="#fff"/><path d="M10031.9,573.563c-.031.013-.056.016-.068.03-.395.45-.768.919-1.152,1.383-.006.1-.014.192-.016.286-.009.421-.012.841-.023,1.262-.012.557-.029,1.114-.045,1.671a1.41,1.41,0,0,1-.008.157.483.483,0,0,1-.408.422,1.168,1.168,0,0,1-.189.011h-1.293a1.219,1.219,0,0,1-.189-.009.473.473,0,0,1-.414-.414c-.009-.115-.021-.231-.021-.346-.012-.726-.02-1.451-.031-2.177,0-.294-.019-.589-.025-.883-.008-.336-.016-.673-.016-1.01q0-2.414,0-4.828c0-.778,0-1.557.018-2.335.039-1.746.023-3.492.04-5.237.007-.652.01-1.3.018-1.956a2.032,2.032,0,0,1,.029-.345.451.451,0,0,1,.4-.355.8.8,0,0,1,.094,0h1.484a.494.494,0,0,1,.244.047.478.478,0,0,1,.265.369,1.97,1.97,0,0,1,.009.252c.006,1.031,0,2.062.02,3.092.04,2,.037,4,.051,5.995,0,.578,0,1.157,0,1.736v.327c.041-.005.078,0,.093-.014.081-.083.157-.169.232-.257q1.844-2.161,3.686-4.322c.034-.04.067-.081.1-.121a.856.856,0,0,1,.6-.312c.074-.007.146-.01.221-.01.494,0,.988,0,1.482,0a1.589,1.589,0,0,1,.283.023.489.489,0,0,1,.32.718,1.886,1.886,0,0,1-.188.253q-1.8,2.216-3.6,4.431c-.061.073-.119.147-.175.224a.185.185,0,0,0-.007.208c.037.063.082.123.125.182l4.324,5.984c.086.119.178.236.256.36a.465.465,0,0,1-.2.67.659.659,0,0,1-.3.065c-.295,0-.59,0-.884,0-.21,0-.421,0-.631,0a1.006,1.006,0,0,1-.868-.429c-.314-.422-.633-.84-.949-1.26q-1.233-1.639-2.467-3.277a1.06,1.06,0,0,0-.219-.255" transform="translate(-9869.766 -550.017)" fill="#fff"/><path d="M5173.961,1000.338c-.058.008-.087.055-.12.094a3.892,3.892,0,0,1-1.23.97,5.84,5.84,0,0,1-1.627.581,4.809,4.809,0,0,1-1.38.065,7.244,7.244,0,0,1-1.241-.216,6.524,6.524,0,0,1-4.651-4.97,5.764,5.764,0,0,1-.1-1.976,6.535,6.535,0,0,1,6.029-5.909,6.627,6.627,0,0,1,1.322.031,6.042,6.042,0,0,1,2.013.6,6.583,6.583,0,0,1,2.857,2.722,6.238,6.238,0,0,1,.765,2.418c.034.314.041.629.06.944q.058.993.055,1.987c0,.526,0,1.052-.011,1.578-.021.63-.042,1.261-.1,1.89-.011.115-.01.231-.02.346a.58.58,0,0,1-.564.57c-.053,0-.105,0-.158,0h-1.1c-.032,0-.063,0-.095,0a.628.628,0,0,1-.618-.6c-.007-.084,0-.168-.006-.252q-.007-.394-.015-.789a.094.094,0,0,0-.062-.1m-3.828-.964a6.031,6.031,0,0,0,.628-.051,3.775,3.775,0,0,0,2.578-1.711,3.848,3.848,0,0,0,.591-1.615,3.848,3.848,0,0,0-4.858-4.2,3.522,3.522,0,0,0-1.429.78,3.742,3.742,0,0,0-1.364,2.871,3.825,3.825,0,0,0,3.854,3.923" transform="translate(-5082.089 -973.304)" fill="#fff"/><path d="M9053.944,996.166h-3.786a3.374,3.374,0,0,0-.346.016.183.183,0,0,0-.165.2.96.96,0,0,0,.034.217,3.591,3.591,0,0,0,.465,1.031,2.984,2.984,0,0,0,.895.876,4.421,4.421,0,0,0,1.734.635,6.217,6.217,0,0,0,.785.061,4.213,4.213,0,0,0,1.629-.32,4.884,4.884,0,0,0,1.432-.845l.145-.123a.551.551,0,0,1,.7.036c.219.227.449.443.676.662.127.125.259.246.387.373a.482.482,0,0,1,.064.632.947.947,0,0,1-.143.167,6.908,6.908,0,0,1-3.168,1.805,6.388,6.388,0,0,1-.994.168,7.385,7.385,0,0,1-.85.04,6.6,6.6,0,0,1-4.67-1.98,6.517,6.517,0,0,1-1.846-4.526c0-.158,0-.316,0-.473a6.088,6.088,0,0,1,3.135-5.249,6.764,6.764,0,0,1,2.344-.8c.355-.053.713-.062,1.068-.091a5.745,5.745,0,0,1,4.156,1.614,6.308,6.308,0,0,1,1.539,2.171,4.721,4.721,0,0,1,.385,1.617,2.83,2.83,0,0,1-.008.315c0,.136-.021.273-.025.409a1.132,1.132,0,0,1-.277.721,1.635,1.635,0,0,1-1.1.617,4.3,4.3,0,0,1-.441.023q-1.876,0-3.753,0m-.509-1.992h3.156a2.375,2.375,0,0,0,.313-.017.21.21,0,0,0,.165-.26.457.457,0,0,0-.019-.06,4.888,4.888,0,0,0-1.144-1.973,2.671,2.671,0,0,0-1.236-.724,4.036,4.036,0,0,0-1.533-.107,3.749,3.749,0,0,0-2.24,1.054,3.6,3.6,0,0,0-1.014,1.644,1.33,1.33,0,0,0-.041.184.207.207,0,0,0,.186.246,2.822,2.822,0,0,0,.314.013h3.092" transform="translate(-8904.163 -973.027)" fill="#fff"/><path d="M6161.628,990.18a.128.128,0,0,0,.126-.067,3.4,3.4,0,0,1,2.319-1.135,6.357,6.357,0,0,1,1.291.015,5.086,5.086,0,0,1,3.757,2.11,5.434,5.434,0,0,1,.9,2.1,5.993,5.993,0,0,1,.133,1.346c-.014.925-.007,1.851-.034,2.776-.039,1.314-.028,2.629-.057,3.943a2.618,2.618,0,0,1-.028.377.488.488,0,0,1-.451.416,1.508,1.508,0,0,1-.158,0h-1.167a1.5,1.5,0,0,1-.189-.007.519.519,0,0,1-.47-.507c-.01-.242-.007-.484-.011-.725q-.033-2.334-.069-4.668c-.01-.61-.028-1.219-.04-1.829a3.056,3.056,0,0,0-.2-1.048,2.8,2.8,0,0,0-1.954-1.729,2.981,2.981,0,0,0-2.854.773,2.589,2.589,0,0,0-.72,1.273,4.334,4.334,0,0,0-.116,1c-.01,1.146-.014,2.293-.026,3.439s-.031,2.271-.047,3.407c0,.052,0,.105,0,.158a.5.5,0,0,1-.415.453.879.879,0,0,1-.157.012h-1.325a.787.787,0,0,1-.126-.008.534.534,0,0,1-.454-.494c-.007-.084,0-.168,0-.252-.006-.789,0-1.578-.019-2.366-.041-1.693-.046-3.386-.049-5.079,0-1.325.008-2.65.013-3.975a1.954,1.954,0,0,1,.006-.221.514.514,0,0,1,.467-.477,1.45,1.45,0,0,1,.189-.007h1.293c.042,0,.084,0,.126,0a.534.534,0,0,1,.511.506c.011.157.006.315.008.486" transform="translate(-6061.829 -973.298)" fill="#fff"/><path d="M4570.621,1000.16a.2.2,0,0,0,.157-.027,4.643,4.643,0,0,1,1.062-.287,4.419,4.419,0,0,1,1.164-.019,4.644,4.644,0,0,1,2.606,1.164,2.762,2.762,0,0,1,.227.219.806.806,0,0,1,.14.207.466.466,0,0,1-.062.5,1,1,0,0,1-.108.115q-.405.375-.812.747c-.023.021-.047.043-.071.063a.5.5,0,0,1-.587.056c-.074-.039-.14-.094-.211-.139a2.8,2.8,0,0,0-1.108-.43,1.989,1.989,0,0,0-1.442.318,2.053,2.053,0,0,0-.94,1.6c-.008.094-.012.189-.013.284-.009.862-.022,1.724-.025,2.586q-.01,2.334-.011,4.669c0,.074,0,.147,0,.221a.571.571,0,0,1-.511.551,1.352,1.352,0,0,1-.188.008c-.357,0-.715,0-1.073,0a1.21,1.21,0,0,1-.281-.03.548.548,0,0,1-.421-.493,1.847,1.847,0,0,1,0-.221c.013-.694.029-1.388.04-2.081.011-.726.015-1.451.023-2.177.006-.547,0-1.094.023-1.64.035-.893.027-1.787.041-2.681,0-.189,0-.379,0-.568a9.712,9.712,0,0,0-.224-1.812c-.025-.124-.053-.247-.073-.371a.81.81,0,0,1-.009-.188.416.416,0,0,1,.328-.377c.154-.034.311-.053.466-.081.4-.071.807-.145,1.211-.214a.524.524,0,0,1,.608.332c.017.038.029.079.046.117s.029.054.041.076" transform="translate(-4495.842 -983.801)" fill="#fff"/><path d="M6336.5,2154.211a.628.628,0,0,1-.04-.125c-.006-.094-.007-.189-.007-.283q0-2.915,0-5.831c0-.1,0-.21.009-.315a.127.127,0,0,1,.124-.12c.052,0,.1-.007.157-.007q1.245,0,2.49,0a3.53,3.53,0,0,1,1.2.221,2.873,2.873,0,0,1,1.536,1.29,3.436,3.436,0,0,1,.425,1.212,3.9,3.9,0,0,1-.08,1.655,3.2,3.2,0,0,1-.6,1.2,2.917,2.917,0,0,1-1.357.934,3.389,3.389,0,0,1-1.082.189q-1.277,0-2.553,0a2.147,2.147,0,0,1-.22-.024m1.26-5.441a.988.988,0,0,0-.036.378q0,1.637,0,3.275c0,.115,0,.231,0,.346,0,.208.034.241.235.243.336,0,.672,0,1.008,0a3.046,3.046,0,0,0,.657-.062,1.748,1.748,0,0,0,1.324-1.011,2.437,2.437,0,0,0-.055-2.216,1.727,1.727,0,0,0-1-.857,2.02,2.02,0,0,0-.647-.124c-.441-.005-.881,0-1.322,0a1.1,1.1,0,0,0-.158.024" transform="translate(-6236.467 -2113.594)" fill="#fff"/><path d="M5868.253,2244.309c.08-.1.15-.192.225-.279s.124-.2.236-.251a.641.641,0,0,1,.267.164,4.927,4.927,0,0,1,.591.479.776.776,0,0,1-.058.115c-.1.134-.208.265-.31.4a.276.276,0,0,0-.086.186l.111.166a1.914,1.914,0,0,1,.33,1.069,2.709,2.709,0,0,1-.057.689,1.785,1.785,0,0,1-.73,1.1.913.913,0,0,0-.1.084.505.505,0,0,0,.064.077c.058.045.122.084.18.128a1.5,1.5,0,0,1,.614,1.062,2.255,2.255,0,0,1-.083.967,1.92,1.92,0,0,1-1.082,1.207,2.84,2.84,0,0,1-1.571.227,2.756,2.756,0,0,1-.818-.221,1.979,1.979,0,0,1-1.155-1.337,2.88,2.88,0,0,1-.062-.436c0-.037.024-.076.036-.108a5,5,0,0,1,1.109,0c.066.061.064.151.086.229a.889.889,0,0,0,.411.539,1.43,1.43,0,0,0,1.446.047.884.884,0,0,0,.461-1.013.751.751,0,0,0-.327-.485,1.191,1.191,0,0,0-.585-.216c-.209-.018-.419-.033-.629-.05a2.273,2.273,0,0,1-.7-.177,1.993,1.993,0,0,1-1.147-1.191,2.733,2.733,0,0,1-.153-1.272,2.692,2.692,0,0,1,.1-.525,2.2,2.2,0,0,1,1.184-1.366,2.63,2.63,0,0,1,1.755-.17,4.192,4.192,0,0,1,.445.159m-1.1,3.45a1.132,1.132,0,0,0,1.142-.812,1.587,1.587,0,0,0,.067-.37,1.4,1.4,0,0,0-.233-.9,1.184,1.184,0,0,0-2,.116,1.529,1.529,0,0,0-.128,1.038,1.151,1.151,0,0,0,1.151.925" transform="translate(-5772.209 -2208.324)" fill="#fff"/><path d="M6890.923,2244.93c.214-.14.29-.4.5-.533a8.6,8.6,0,0,1,.712.527.9.9,0,0,1,.109.115c-.124.246-.33.42-.46.658.025.045.046.093.075.135a2.145,2.145,0,0,1,.355,1.65,2.345,2.345,0,0,1-.132.485,1.716,1.716,0,0,1-.569.74c-.057.043-.134.064-.159.143.013.059.065.08.107.111.091.07.189.134.274.211a1.4,1.4,0,0,1,.472.967,2.569,2.569,0,0,1-.051.846,1.891,1.891,0,0,1-1.027,1.251,2.783,2.783,0,0,1-1.595.265,2.832,2.832,0,0,1-.851-.221,2.023,2.023,0,0,1-1.079-1.1,2.046,2.046,0,0,1-.135-.581.842.842,0,0,1,.014-.162.4.4,0,0,1,.119-.042c.3,0,.609,0,.914,0a.407.407,0,0,1,.075.021.573.573,0,0,1,.061.129,1,1,0,0,0,.77.791,1.517,1.517,0,0,0,1.019-.047.9.9,0,0,0,.587-.725.831.831,0,0,0-.325-.836,1.106,1.106,0,0,0-.548-.225c-.167-.021-.333-.038-.5-.046a2.6,2.6,0,0,1-.561-.08,2.045,2.045,0,0,1-1.559-1.607,2.748,2.748,0,0,1-.014-1.251,2.209,2.209,0,0,1,1.678-1.741,2.5,2.5,0,0,1,1.218-.028,3.1,3.1,0,0,1,.329.105c.059.02.115.047.172.071m-2.273,2.123a3.049,3.049,0,0,0,.021.314,1.149,1.149,0,0,0,.8.962,1.354,1.354,0,0,0,.436.05,1.149,1.149,0,0,0,1.091-.805,1.683,1.683,0,0,0,.064-.623,1.264,1.264,0,0,0-.17-.569,1.2,1.2,0,0,0-2.063-.022,1.36,1.36,0,0,0-.182.694" transform="translate(-6778.781 -2208.932)" fill="#fff"/><path d="M3685.27,2133.576a.269.269,0,0,1-.059.064c-.292.166-.593.316-.876.453a.2.2,0,0,1-.151-.083,1.973,1.973,0,0,0-1.369-.628,2.232,2.232,0,0,0-.719.067,1.249,1.249,0,0,0-.405.171.739.739,0,0,0-.342.507.569.569,0,0,0,.179.543.784.784,0,0,0,.3.177,3.9,3.9,0,0,0,.516.141c.289.052.582.086.873.13a4.981,4.981,0,0,1,1.007.252,2.485,2.485,0,0,1,.559.289,1.623,1.623,0,0,1,.667.963,2.256,2.256,0,0,1-.018,1.214,1.81,1.81,0,0,1-.581.882,2.457,2.457,0,0,1-.826.45,4.03,4.03,0,0,1-1.145.2,4.858,4.858,0,0,1-1.315-.119,3.241,3.241,0,0,1-.537-.181,2.363,2.363,0,0,1-1.217-1.224.176.176,0,0,1,0-.174c.272-.176.589-.316.9-.475a.66.66,0,0,1,.127-.033l.119.191a1.589,1.589,0,0,0,.728.63,2.759,2.759,0,0,0,1.819.1,1.32,1.32,0,0,0,.416-.22.807.807,0,0,0,.272-.852.6.6,0,0,0-.176-.294,1.142,1.142,0,0,0-.4-.251,3.107,3.107,0,0,0-.764-.185,8.014,8.014,0,0,1-1.117-.19,5.566,5.566,0,0,1-.537-.179,2.119,2.119,0,0,1-.337-.17,1.608,1.608,0,0,1-.778-1.132,2.032,2.032,0,0,1,.019-.844,1.643,1.643,0,0,1,.561-.892,2.564,2.564,0,0,1,1.1-.526,3.824,3.824,0,0,1,1.377-.085,4.518,4.518,0,0,1,.741.141,2.592,2.592,0,0,1,.761.373,2.091,2.091,0,0,1,.587.65.505.505,0,0,1,.04.085.391.391,0,0,1,.01.068" transform="translate(-3621.72 -2098.534)" fill="#fff"/><path d="M8256.5,2152.351a.391.391,0,0,0-.053.261c0,.431,0,.862,0,1.292a.955.955,0,0,1-.027.327c-.025.013-.062.046-.1.046-.348,0-.693,0-1.04,0-.018,0-.037-.016-.07-.032a.4.4,0,0,1-.031-.1c-.007-.094-.007-.189-.007-.283q0-2.916,0-5.832a1.128,1.128,0,0,1,.03-.391.9.9,0,0,1,.135-.043.949.949,0,0,1,.158-.006h2.932a2.475,2.475,0,0,1,.773.129,2.213,2.213,0,0,1,1.531,1.692,2.34,2.34,0,0,1-.056,1.306,2.212,2.212,0,0,1-1.714,1.548,2.827,2.827,0,0,1-.656.067c-.494,0-.988,0-1.482,0a.963.963,0,0,0-.322.026m-.021-1.26a.516.516,0,0,0,.287.047q.741,0,1.48,0a2.588,2.588,0,0,0,.314-.017,1.047,1.047,0,0,0,.615-.295,1.209,1.209,0,0,0,.2-1.427,1.063,1.063,0,0,0-.668-.538,1.51,1.51,0,0,0-.435-.063c-.273,0-.547,0-.819,0s-.525,0-.789,0a.23.23,0,0,0-.178.043c-.01.018-.028.036-.028.054q-.007.929-.013,1.859a.924.924,0,0,0,.031.334" transform="translate(-8124.903 -2113.645)" fill="#fff"/><path d="M7608.381,2265.471a.841.841,0,0,1,.042.376q0,1.057,0,2.114,0,.931,0,1.862a.615.615,0,0,1-.037.314c-.024.012-.051.037-.079.038q-.442.005-.883,0a.13.13,0,0,1-.127-.118c-.009-.073-.012-.147-.02-.22a1.079,1.079,0,0,0-.026-.154c0-.013-.032-.019-.058-.032-.027.027-.057.055-.085.085a1.85,1.85,0,0,1-1.291.577,2.681,2.681,0,0,1-1.027-.129,2.09,2.09,0,0,1-1.346-1.362,2.6,2.6,0,0,1-.147-.867,4.05,4.05,0,0,1,.062-.816,2.184,2.184,0,0,1,1.842-1.757,2.548,2.548,0,0,1,.816-.028,1.849,1.849,0,0,1,1.087.524c.029.03.061.056.1.09.024-.03.054-.051.057-.074.012-.083.011-.168.02-.251a1.41,1.41,0,0,1,.027-.141c.03-.02.045-.039.064-.041a6.5,6.5,0,0,1,.819-.017,1.442,1.442,0,0,1,.191.024m-1.158,2.361a1.41,1.41,0,0,0-.139-.672,1.238,1.238,0,0,0-.861-.719,1.46,1.46,0,0,0-.776.015,1.262,1.262,0,0,0-.937,1.035,1.647,1.647,0,0,0,0,.656,1.269,1.269,0,0,0,.907,1.028,1.528,1.528,0,0,0,.778.027,1.2,1.2,0,0,0,.647-.365,1.442,1.442,0,0,0,.379-1" transform="translate(-7483.324 -2229.542)" fill="#fff"/><path d="M4106.254,2266.249a.382.382,0,0,1,.089.048q.315.31.625.624c.013.013.013.038.025.074a.535.535,0,0,1-.064.09,2.036,2.036,0,0,1-.6.4,3.263,3.263,0,0,1-2.28.156,2.177,2.177,0,0,1-1.577-1.612,2.849,2.849,0,0,1-.007-1.528,2.241,2.241,0,0,1,1.69-1.661,2.972,2.972,0,0,1,1.529,0,2.048,2.048,0,0,1,1.569,1.673,3.614,3.614,0,0,1,.064.973.291.291,0,0,1-.022.122.151.151,0,0,1-.086.08,1.64,1.64,0,0,1-.281.023c-.505,0-1.01,0-1.515,0h-1.452a.512.512,0,0,0-.289.046.573.573,0,0,0,.012.147,1.033,1.033,0,0,0,.459.543,1.507,1.507,0,0,0,.658.2,2.066,2.066,0,0,0,1.324-.322c.043-.028.089-.053.132-.079m-.194-1.58c.035-.1.037-.111.027-.144a.9.9,0,0,0-.59-.606,1.668,1.668,0,0,0-1.019-.029,1.107,1.107,0,0,0-.787.7c-.006.017,0,.039,0,.059s.012.021.02.022a1.127,1.127,0,0,0,.153.02,20.755,20.755,0,0,0,2.192-.025" transform="translate(-4037.629 -2226.983)" fill="#fff"/><path d="M10560.22,2266.572a.536.536,0,0,1-.11.028c-.095.006-.189,0-.285,0h-2.809c-.1,0-.21.009-.314.016a.1.1,0,0,0-.071.091.757.757,0,0,0,.04.183,1.088,1.088,0,0,0,.49.517,1.449,1.449,0,0,0,.6.173,2.082,2.082,0,0,0,1.38-.344c.026-.018.055-.03.087-.047.027.011.063.015.083.034q.3.3.6.6a.247.247,0,0,1,.032.054c.01.074-.042.115-.09.156a2.571,2.571,0,0,1-.972.507,3.289,3.289,0,0,1-1.837.01,2.191,2.191,0,0,1-1.6-1.662,2.83,2.83,0,0,1-.032-1.282,2.228,2.228,0,0,1,1.674-1.822,2.924,2.924,0,0,1,1.71.031,1.972,1.972,0,0,1,1.364,1.412,3.391,3.391,0,0,1,.12,1.155.667.667,0,0,1-.021.124.291.291,0,0,1-.04.063m-3.554-.973a13.439,13.439,0,0,0,2.105.031.561.561,0,0,0,.271-.029.135.135,0,0,0,.033-.149.859.859,0,0,0-.384-.517,1.142,1.142,0,0,0-.531-.179c-.146-.009-.293-.009-.438,0a1.2,1.2,0,0,0-.565.173,1.088,1.088,0,0,0-.5.585.253.253,0,0,0,.007.089" transform="translate(-10388.797 -2227.906)" fill="#fff"/><path d="M8898.808,2267.221a5.16,5.16,0,0,1,.709.7.165.165,0,0,1-.073.132,2.5,2.5,0,0,1-.816.467,3.277,3.277,0,0,1-1.895.1,2.218,2.218,0,0,1-1.469-1.054,2.383,2.383,0,0,1-.315-.983,3.154,3.154,0,0,1,.04-1,2.235,2.235,0,0,1,1.751-1.784,2.952,2.952,0,0,1,1.56.035,1.973,1.973,0,0,1,1.4,1.368,3.586,3.586,0,0,1,.15,1.057.668.668,0,0,1-.066.347,1.053,1.053,0,0,1-.146.03c-.1.006-.189,0-.285,0h-2.775c-.094,0-.188,0-.283.007a.458.458,0,0,0-.113.041.388.388,0,0,0,0,.1,1.032,1.032,0,0,0,.572.674,1.574,1.574,0,0,0,.607.159,2.1,2.1,0,0,0,1.32-.332c.035-.023.072-.042.122-.07m-2.559-1.586a17.719,17.719,0,0,0,2.164.03c.071,0,.143-.014.206-.02a.324.324,0,0,0,.032-.069.15.15,0,0,0,0-.062.873.873,0,0,0-.321-.49,1.071,1.071,0,0,0-.577-.228,3.926,3.926,0,0,0-.533,0,1.162,1.162,0,0,0-.531.181,1.117,1.117,0,0,0-.447.513.128.128,0,0,0,.009.146" transform="translate(-8754.57 -2227.941)" fill="#fff"/><path d="M9549.088,2266.606a.738.738,0,0,1-.356.042c-.715,0-1.431,0-2.146,0-.283,0-.568,0-.852,0a1.693,1.693,0,0,0-.187.016.094.094,0,0,0-.066.095.57.57,0,0,0,.015.093,1.052,1.052,0,0,0,.525.6,1.509,1.509,0,0,0,.6.173,2.057,2.057,0,0,0,1.4-.365.3.3,0,0,1,.059-.025.169.169,0,0,1,.058.018,5.413,5.413,0,0,1,.658.673.165.165,0,0,1-.068.135,1.959,1.959,0,0,1-.5.332,3.233,3.233,0,0,1-2.545.128,2.086,2.086,0,0,1-1.018-.768,2.266,2.266,0,0,1-.289-.558,2.85,2.85,0,0,1-.086-1.677,2.246,2.246,0,0,1,1.776-1.726,2.987,2.987,0,0,1,1.529.049,2.021,2.021,0,0,1,.956.585,2.052,2.052,0,0,1,.442.792,2.683,2.683,0,0,1,.135.838c0,.136,0,.273-.009.41a.57.57,0,0,1-.04.135m-1.151-.959a.251.251,0,0,0,.015-.071.844.844,0,0,0-.36-.567,1,1,0,0,0-.521-.2,2.879,2.879,0,0,0-.565,0,1.164,1.164,0,0,0-.984.729.1.1,0,0,0,.019.12.374.374,0,0,0,.083.017c.734,0,1.467,0,2.2,0a.531.531,0,0,0,.113-.025" transform="translate(-9393.607 -2227.95)" fill="#fff"/><path d="M4759.1,2271.3a7.847,7.847,0,0,1,.984-.023.2.2,0,0,1,.158.054.2.2,0,0,1,.033.135c0,.179,0,.357,0,.536q0,.867,0,1.734a1.709,1.709,0,0,0,.078.559,1.016,1.016,0,0,0,.943.71,1.164,1.164,0,0,0,1.237-1.052,3.586,3.586,0,0,0,.02-.441c0-.6,0-1.2,0-1.8,0-.094,0-.189.007-.283a.614.614,0,0,1,.033-.117.409.409,0,0,1,.094-.033,7.246,7.246,0,0,1,1,.017.157.157,0,0,1,.065.137c0,.094,0,.189,0,.283q0,1.939,0,3.877a1.268,1.268,0,0,1-.025.389.293.293,0,0,1-.1.043c-.283,0-.567,0-.851,0a.176.176,0,0,1-.058-.021.183.183,0,0,1-.065-.138c-.015-.093-.028-.187-.046-.28a.392.392,0,0,0-.043-.09c-.041.029-.075.051-.107.075-.11.081-.215.169-.33.243a1.927,1.927,0,0,1-1.139.3,2.316,2.316,0,0,1-.467-.06,1.756,1.756,0,0,1-1.17-.932,2.7,2.7,0,0,1-.291-1.088c-.006-.083,0-.168,0-.252q0-1.072,0-2.144a.882.882,0,0,1,.038-.344" transform="translate(-4683.966 -2235.381)" fill="#fff"/><path d="M5523.359,2272.019a5,5,0,0,1-1.1-.005.511.511,0,0,1-.037-.106,1.349,1.349,0,0,1-.008-.188q0-2.05,0-4.1a.631.631,0,0,1,.033-.286c.021-.011.049-.036.076-.037q.426-.007.851-.006a.133.133,0,0,1,.131.115c.016.1.024.209.037.313a.121.121,0,0,0,.077.105l.244-.182a2.082,2.082,0,0,1,.853-.389,1.927,1.927,0,0,1,2.035.882,2.329,2.329,0,0,1,.287.73,3.214,3.214,0,0,1,.076.656c0,.736,0,1.471,0,2.207a1.647,1.647,0,0,1-.017.219.1.1,0,0,1-.083.084.374.374,0,0,1-.094.013c-.283,0-.566,0-.851,0a.507.507,0,0,1-.105-.02.183.183,0,0,1-.062-.155c0-.126,0-.252,0-.378q0-.914,0-1.829a1.974,1.974,0,0,0-.069-.561,1.043,1.043,0,0,0-1.247-.749,1.154,1.154,0,0,0-.927.922,2.061,2.061,0,0,0-.056.532c0,.63,0,1.261,0,1.892a.744.744,0,0,1-.039.323" transform="translate(-5435.075 -2231.392)" fill="#fff"/><path d="M9909.14,2272.814a.457.457,0,0,1-.041-.112,2.165,2.165,0,0,1-.013-.252v-3.942a2.407,2.407,0,0,1,.011-.252.509.509,0,0,1,.043-.118,3.234,3.234,0,0,1,.7-.028.483.483,0,0,1,.285.041c.1.151.063.34.111.518a.3.3,0,0,0,.093-.025c.11-.08.213-.171.327-.247a1.9,1.9,0,0,1,1.22-.349,1.853,1.853,0,0,1,1.586.987,2.358,2.358,0,0,1,.294,1.022c0,.094.008.189.008.284v2.144a.708.708,0,0,1-.038.321.383.383,0,0,1-.111.036c-.294,0-.588,0-.882,0a.377.377,0,0,1-.1-.033.615.615,0,0,1-.029-.114c-.006-.094-.006-.189-.007-.283q0-.946,0-1.892a2.211,2.211,0,0,0-.055-.532,1.021,1.021,0,0,0-.721-.8,1.119,1.119,0,0,0-1.141.261,1.3,1.3,0,0,0-.4.868c-.01.1-.007.21-.007.315,0,.62,0,1.241,0,1.861a.622.622,0,0,1-.043.323.386.386,0,0,1-.106.031c-.294,0-.589,0-.882,0a.446.446,0,0,1-.1-.026" transform="translate(-9752.727 -2232.204)" fill="#fff"/><path d="M9249.876,2264.75a3.824,3.824,0,0,1-.607.711c-.069,0-.115-.044-.166-.08a1.519,1.519,0,0,0-.918-.284c-.126,0-.252,0-.377.013a.83.83,0,0,0-.358.113.369.369,0,0,0-.045.63.776.776,0,0,0,.223.114,1.639,1.639,0,0,0,.465.081,4.442,4.442,0,0,1,.872.125,2.076,2.076,0,0,1,.472.175,1.21,1.21,0,0,1,.684.927,1.432,1.432,0,0,1-.726,1.549,2.014,2.014,0,0,1-.617.232,3.192,3.192,0,0,1-1.1.05c-.176-.027-.354-.048-.528-.09a2.486,2.486,0,0,1-1.118-.619,1.016,1.016,0,0,1-.1-.127,6,6,0,0,1,.438-.662c.035-.051.064-.111.143-.132a1.144,1.144,0,0,1,.1.064,2.63,2.63,0,0,0,1.08.494,1.859,1.859,0,0,0,.658.031.789.789,0,0,0,.452-.2.438.438,0,0,0,.134-.43.3.3,0,0,0-.113-.184.614.614,0,0,0-.255-.119,3.008,3.008,0,0,0-.5-.072,3.8,3.8,0,0,1-.808-.133,2.01,2.01,0,0,1-.655-.3,1.2,1.2,0,0,1-.526-.99,1.281,1.281,0,0,1,.668-1.2,2.157,2.157,0,0,1,.643-.253,3.222,3.222,0,0,1,1.652.047,2.138,2.138,0,0,1,.747.4.492.492,0,0,1,.077.1c.006.008,0,.02.006.031" transform="translate(-9100.041 -2228.318)" fill="#fff"/><path d="M4455.162,2266.587c.26.22.476.45.7.67a.755.755,0,0,1,.076.108,1.085,1.085,0,0,1-.1.123,2.379,2.379,0,0,1-1.416.625,3.065,3.065,0,0,1-1.063-.079,2.211,2.211,0,0,1-1.711-1.856,3.042,3.042,0,0,1,.056-1.375,2.161,2.161,0,0,1,1.5-1.57,2.822,2.822,0,0,1,1.5-.082,2.119,2.119,0,0,1,1.087.6.187.187,0,0,1,.025.057c0,.02,0,.045-.016.058q-.324.345-.65.687c-.013.013-.038.014-.074.026-.079-.048-.166-.1-.257-.155a1.338,1.338,0,0,0-1.126-.108,1.2,1.2,0,0,0-.757.71,1.5,1.5,0,0,0-.018,1.139,1.156,1.156,0,0,0,1.021.777,2.569,2.569,0,0,0,.378,0,1.226,1.226,0,0,0,.622-.2c.07-.045.138-.093.232-.156" transform="translate(-4381.35 -2227.328)" fill="#fff"/><path d="M10255.494,2264.687a1.887,1.887,0,0,1-.139.175c-.175.18-.354.357-.534.534-.014.013-.038.012-.07.02-.083-.049-.171-.106-.263-.155a1.376,1.376,0,0,0-1.129-.092,1.193,1.193,0,0,0-.742.685,1.529,1.529,0,0,0-.01,1.227,1.16,1.16,0,0,0,.924.725,1.876,1.876,0,0,0,.629,0,1.2,1.2,0,0,0,.492-.2c.06-.041.122-.077.181-.114a.4.4,0,0,1,.094.045c.229.215.461.428.657.651a.128.128,0,0,1-.046.13,2.24,2.24,0,0,1-1.467.646,3.238,3.238,0,0,1-1-.071,2.5,2.5,0,0,1-.854-.394,2.116,2.116,0,0,1-.74-1,2.564,2.564,0,0,1-.164-.895,3.777,3.777,0,0,1,.059-.784,2.154,2.154,0,0,1,1.337-1.637,2.762,2.762,0,0,1,1.884-.1,2.17,2.17,0,0,1,.833.5.517.517,0,0,1,.071.11" transform="translate(-10089.551 -2228.187)" fill="#fff"/><path d="M7353.571,2191.811c-.267-.107-.555.03-.807-.1a.389.389,0,0,1-.028-.1c0-.242-.006-.483,0-.725a.146.146,0,0,1,.158-.159c.115-.006.231,0,.347-.008a.76.76,0,0,0,.327-.04.5.5,0,0,0,.039-.134c.006-.221,0-.441.006-.662a.9.9,0,0,1,.031-.328.3.3,0,0,1,.1-.047c.313-.039.626-.074.939-.107a.2.2,0,0,1,.077.023.247.247,0,0,1,.048.187c0,.252,0,.5,0,.757,0,.094.008.187.011.259a.193.193,0,0,0,.182.089l.662,0c.1,0,.189,0,.284.009a.464.464,0,0,1,.118.044,4.041,4.041,0,0,1,.025.759.847.847,0,0,1-.027.169.318.318,0,0,1-.224.06c-.221,0-.442,0-.663,0a.807.807,0,0,0-.328.036.706.706,0,0,0-.042.133,1.952,1.952,0,0,0-.005.22q0,.741,0,1.482c0,.095,0,.189.009.284a.591.591,0,0,0,.089.267.465.465,0,0,0,.354.237,1.087,1.087,0,0,0,.438-.025l.215-.062c.026.018.067.029.076.052q.139.4.27.807a.126.126,0,0,1-.077.154,1.652,1.652,0,0,1-.454.127,2.483,2.483,0,0,1-1-.023,1.337,1.337,0,0,1-.968-.868,2.229,2.229,0,0,1-.138-.8c0-.547,0-1.093,0-1.64a.774.774,0,0,0-.037-.334" transform="translate(-7236.711 -2154.809)" fill="#fff"/><path d="M5119.891,2263.98a5,5,0,0,1,1.031-.017.17.17,0,0,1,.08.13c.018.092.036.184.054.271.08.018.1-.042.13-.076a1.272,1.272,0,0,1,.633-.395,1.868,1.868,0,0,1,.593-.068,2.056,2.056,0,0,1,.876.232.739.739,0,0,1,.292.233.341.341,0,0,1-.014.094c-.142.281-.285.562-.432.841-.018.034-.057.055-.09.086-.081-.048-.151-.095-.225-.133a1.3,1.3,0,0,0-1.185-.014.9.9,0,0,0-.495.584,1.753,1.753,0,0,0-.071.529c0,.641,0,1.282,0,1.923,0,.095,0,.189,0,.284,0,.052-.011.1-.015.143a.158.158,0,0,1-.144.074c-.294,0-.588,0-.882,0a.667.667,0,0,1-.128-.027.537.537,0,0,1-.038-.119c-.007-.094-.007-.189-.007-.283v-3.909c0-.084,0-.168.005-.252a.772.772,0,0,1,.034-.132" transform="translate(-5039.065 -2228.052)" fill="#fff"/><path d="M8646.721,2265.157a.44.44,0,0,1,.107-.035q.409-.007.818-.007a.342.342,0,0,1,.092.028c.086.122.059.282.135.417a.346.346,0,0,0,.084-.056,1.387,1.387,0,0,1,1.108-.507,1.913,1.913,0,0,1,1,.221,1.64,1.64,0,0,1,.254.183.123.123,0,0,1,.03.145.406.406,0,0,1-.024.058c-.133.251-.265.5-.4.752a.355.355,0,0,1-.043.057.207.207,0,0,1-.193-.053,1.309,1.309,0,0,0-1.094-.118.961.961,0,0,0-.687.715,1.938,1.938,0,0,0-.062.53q0,.976,0,1.953a.965.965,0,0,1-.03.357.28.28,0,0,1-.1.042c-.3,0-.608,0-.913,0a.187.187,0,0,1-.057-.021.169.169,0,0,1-.061-.139c0-.084,0-.168,0-.252v-3.907a1.014,1.014,0,0,1,.035-.36" transform="translate(-8510.246 -2229.205)" fill="#fff"/><path d="M7988.334,2148.087a.359.359,0,0,1,.263-.056,5.1,5.1,0,0,1,.852.028.677.677,0,0,1,.037.123c.007.073.006.147.006.22q0,2.965,0,5.93c0,.084,0,.169-.008.252a.433.433,0,0,1-.04.109,4.6,4.6,0,0,1-1.09,0,.624.624,0,0,1-.043-.137c-.008-.094-.006-.189-.006-.283q0-2.9,0-5.8a1.106,1.106,0,0,1,.029-.383" transform="translate(-7862.253 -2114.083)" fill="#fff"/><path d="M7237.8,2276.164a.282.282,0,0,1-.2.057,3.976,3.976,0,0,1-.919-.034.494.494,0,0,1-.039-.111,2.072,2.072,0,0,1-.007-.22q0-2,0-4.006c0-.073,0-.147.006-.22a.723.723,0,0,1,.037-.126,1.2,1.2,0,0,1,.188-.027,7.2,7.2,0,0,1,.916.021.615.615,0,0,1,.042.123c.007.073.007.147.007.22q0,2,0,4.006a.823.823,0,0,1-.029.318" transform="translate(-7122.441 -2235.58)" fill="#fff"/><path d="M5382.56,2270.707a6.714,6.714,0,0,1,.918-.023,1.666,1.666,0,0,1,.217.025.664.664,0,0,1,.039.127c.007.083.007.168.007.252v3.967c0,.084,0,.168-.007.252a.529.529,0,0,1-.04.119.688.688,0,0,1-.127.026q-.456,0-.913,0a.388.388,0,0,1-.1-.032.605.605,0,0,1-.029-.115c-.005-.094-.005-.189-.005-.283q0-1.952,0-3.9a1.071,1.071,0,0,1,.038-.406" transform="translate(-5297.588 -2234.8)" fill="#fff"/><path d="M6763.457,2271.671a4.937,4.937,0,0,1,1.109,0,.64.64,0,0,1,.043.137c.008.083.006.168.006.252v3.911c0,.084,0,.168-.006.252a.645.645,0,0,1-.029.118.378.378,0,0,1-.092.039,6.075,6.075,0,0,1-1-.02.165.165,0,0,1-.061-.139c0-.084,0-.168,0-.252v-3.911c0-.084,0-.168.005-.252a.816.816,0,0,1,.031-.134" transform="translate(-6656.698 -2235.745)" fill="#fff"/><path d="M5377.134,2145.294a.669.669,0,0,1-.689.7.684.684,0,0,1-.727-.7.674.674,0,0,1,.729-.7.66.66,0,0,1,.688.7" transform="translate(-5290.894 -2110.7)" fill="#fff"/><path d="M7231.153,2146.286a.673.673,0,0,1,.8-.66.688.688,0,0,1,.524.973.64.64,0,0,1-.441.369.769.769,0,0,1-.4,0,.631.631,0,0,1-.483-.679" transform="translate(-7117.05 -2111.71)" fill="#fff"/><path d="M6757.883,2146.382a.644.644,0,0,1-.671.671.735.735,0,0,1-.277-.04.673.673,0,0,1-.44-.689.648.648,0,0,1,.524-.621.768.768,0,0,1,.311-.011.65.65,0,0,1,.554.688" transform="translate(-6649.881 -2111.776)" fill="#fff"/><path d="M878.016,1140a.44.44,0,0,1-.222.108,3.13,3.13,0,0,0-.908.5,3.262,3.262,0,1,0,4.774,4.291c.044-.072.082-.147.127-.218a.827.827,0,0,1,.073-.089c.09.02.1.09.114.146.066.254.139.508.185.766a7.924,7.924,0,0,1,.139,1.505,7.93,7.93,0,0,1-6.353,7.719,7.423,7.423,0,0,1-2.2.129,7.9,7.9,0,0,1-7.073-6.148,8.193,8.193,0,0,1-.188-1.72,7.732,7.732,0,0,1,.634-3.129,7.9,7.9,0,0,1,10.76-3.979c.056.028.116.049.134.121" transform="translate(-852.818 -1121.043)" fill="#fff"/></g></g></g></svg>