<svg xmlns="http://www.w3.org/2000/svg" xmlns:xlink="http://www.w3.org/1999/xlink" width="264.435" height="47.726" viewBox="0 0 264.435 47.726"><defs><clipPath id="a"><rect width="264.435" height="47.726" fill="none"/></clipPath></defs><path d="M113.2,35.127l11.121,17.126h.059V35.127h2.662V56.245h-3.076L112.931,39.3h-.059V56.245H110.21V35.127Z" transform="translate(-57.873 -18.446)" fill="#fff"/><path d="M176.674,35.127v2.366H164.9v6.714h10.973v2.366H164.9v7.306h11.861v2.366H162.092V35.127Z" transform="translate(-85.118 -18.446)" fill="#fff"/><path d="M202.265,37.493V35.127h16.888v2.366h-7.039V56.245H209.3V37.493Z" transform="translate(-106.213 -18.446)" fill="#fff"/><path d="M263.591,56.245,258.77,38.5h-.059L253.83,56.245H250.9l-5.413-21.118h2.869L252.5,52.7h.059l4.732-17.569h3.046L265.011,52.7h.059l4.289-17.569h2.809l-5.649,21.118Z" transform="translate(-128.911 -18.446)" fill="#fff"/><rect width="2.81" height="21.118" transform="translate(149.291 16.681)" fill="#fff"/><path d="M332.375,37.493V35.127h16.888v2.366h-7.039V56.245h-2.81V37.493Z" transform="translate(-174.536 -18.446)" fill="#fff"/><path d="M382.635,35.127l11.121,17.126h.059V35.127h2.662V56.245H393.4L382.369,39.3h-.059V56.245h-2.662V35.127Z" transform="translate(-199.36 -18.446)" fill="#fff"/><path d="M446.111,35.127v2.366H434.339v6.714h10.973v2.366H434.339v7.306H446.2v2.366h-14.67V35.127Z" transform="translate(-226.604 -18.446)" fill="#fff"/><g clip-path="url(#a)"><path d="M485.67,37.454a5.962,5.962,0,0,0-3.593-1.02,8.558,8.558,0,0,0-1.745.178,4.632,4.632,0,0,0-1.523.591,3.1,3.1,0,0,0-1.065,1.109,3.426,3.426,0,0,0-.4,1.73,2.2,2.2,0,0,0,.577,1.582,4.261,4.261,0,0,0,1.538.991,12.914,12.914,0,0,0,2.174.636q1.212.252,2.469.547t2.47.7a8.157,8.157,0,0,1,2.174,1.08,5.147,5.147,0,0,1,1.538,1.715,6.015,6.015,0,0,1-.177,5.487,6.222,6.222,0,0,1-1.938,1.952,8.423,8.423,0,0,1-2.647,1.095,12.879,12.879,0,0,1-2.913.34,12.38,12.38,0,0,1-3.357-.444,8.3,8.3,0,0,1-2.78-1.346,6.372,6.372,0,0,1-1.892-2.307,7.418,7.418,0,0,1-.7-3.327h2.662a4.768,4.768,0,0,0,.518,2.292,4.707,4.707,0,0,0,1.361,1.582,5.732,5.732,0,0,0,1.967.917,9.01,9.01,0,0,0,2.307.3,10.5,10.5,0,0,0,1.908-.178,5.614,5.614,0,0,0,1.73-.606,3.244,3.244,0,0,0,1.716-3.061,2.653,2.653,0,0,0-.577-1.775,4.245,4.245,0,0,0-1.538-1.109,11.277,11.277,0,0,0-2.174-.7q-1.213-.266-2.47-.548t-2.469-.651a8.914,8.914,0,0,1-2.174-.975,4.663,4.663,0,0,1-1.538-1.568,4.615,4.615,0,0,1-.577-2.41,5.6,5.6,0,0,1,.651-2.766,5.694,5.694,0,0,1,1.73-1.922,7.782,7.782,0,0,1,2.455-1.124,10.854,10.854,0,0,1,2.825-.369,11.3,11.3,0,0,1,3.016.385,6.845,6.845,0,0,1,2.44,1.212,5.855,5.855,0,0,1,1.656,2.085,7.456,7.456,0,0,1,.666,3h-2.662a4.4,4.4,0,0,0-1.642-3.3" transform="translate(-248.845 -17.89)" fill="#fff"/><path d="M532.881,37.454a5.962,5.962,0,0,0-3.594-1.02,8.558,8.558,0,0,0-1.745.178,4.632,4.632,0,0,0-1.523.591,3.1,3.1,0,0,0-1.065,1.109,3.426,3.426,0,0,0-.4,1.73,2.2,2.2,0,0,0,.577,1.582,4.261,4.261,0,0,0,1.538.991,12.914,12.914,0,0,0,2.174.636q1.212.252,2.469.547t2.47.7a8.157,8.157,0,0,1,2.174,1.08,5.148,5.148,0,0,1,1.538,1.715,6.015,6.015,0,0,1-.177,5.487,6.221,6.221,0,0,1-1.937,1.952,8.422,8.422,0,0,1-2.648,1.095,12.879,12.879,0,0,1-2.913.34,12.379,12.379,0,0,1-3.357-.444,8.3,8.3,0,0,1-2.78-1.346,6.371,6.371,0,0,1-1.892-2.307,7.418,7.418,0,0,1-.7-3.327h2.662a4.768,4.768,0,0,0,.518,2.292,4.707,4.707,0,0,0,1.361,1.582,5.732,5.732,0,0,0,1.967.917,9.011,9.011,0,0,0,2.307.3,10.505,10.505,0,0,0,1.908-.178,5.614,5.614,0,0,0,1.73-.606,3.244,3.244,0,0,0,1.716-3.061,2.653,2.653,0,0,0-.577-1.775,4.244,4.244,0,0,0-1.538-1.109,11.279,11.279,0,0,0-2.174-.7q-1.213-.266-2.47-.548t-2.469-.651a8.913,8.913,0,0,1-2.174-.975,4.663,4.663,0,0,1-1.538-1.568,4.615,4.615,0,0,1-.577-2.41,5.6,5.6,0,0,1,.651-2.766,5.694,5.694,0,0,1,1.73-1.922,7.781,7.781,0,0,1,2.455-1.124,10.854,10.854,0,0,1,2.825-.369,11.3,11.3,0,0,1,3.016.385,6.845,6.845,0,0,1,2.44,1.212,5.854,5.854,0,0,1,1.656,2.085,7.455,7.455,0,0,1,.666,3h-2.662a4.4,4.4,0,0,0-1.642-3.3" transform="translate(-273.636 -17.89)" fill="#fff"/><path d="M40.127,10.685a3.793,3.793,0,0,0-3.438,5.409L27.108,23.76A6.378,6.378,0,0,0,23.981,22.2V19.975a3.562,3.562,0,1,0-2.374,0V22.2a6.36,6.36,0,0,0-1.933.7L9.819,9.628a5.68,5.68,0,1,0-1.961,1.343l9.988,13.445A6.414,6.414,0,0,0,16.518,29.8L11.4,31.669a5.7,5.7,0,1,0,.714,2.76c0-.163-.011-.324-.025-.484L17.43,32a6.4,6.4,0,0,0,5.1,2.893l.766,4.849a4.277,4.277,0,1,0,2.317-.552l-.732-4.637a6.409,6.409,0,0,0,2.974-2.128l4.238,1.995a3.321,3.321,0,1,0,.56-2.36L28.94,30.31a6.354,6.354,0,0,0-.4-4.654l9.786-7.829a3.8,3.8,0,1,0,1.8-7.143M22.794,32.054a3.562,3.562,0,1,1,3.562-3.562,3.562,3.562,0,0,1-3.562,3.562" fill="#fff"/></g></svg>