<svg xmlns="http://www.w3.org/2000/svg" xmlns:xlink="http://www.w3.org/1999/xlink" width="233.21" height="32.309" viewBox="0 0 233.21 32.309"><defs><clipPath id="a"><rect width="233.21" height="32.309" fill="none"/></clipPath></defs><g transform="translate(0 0)" clip-path="url(#a)"><path d="M490.22,22.164v9.821a13.174,13.174,0,0,1-5.688.272c-.344-.754-.464-29.193-.1-30.694a7.4,7.4,0,0,1,1.061-.143c4.707,0,9.415-.043,14.12.05a10.379,10.379,0,0,1,8.944,4.637c2.637,3.929,2.313,11.489-3.134,14.284-.838.43-1.74.734-2.745,1.151a7.919,7.919,0,0,0,.629.966c2.508,2.834,5.031,5.654,7.539,8.488a11.745,11.745,0,0,1,.779,1.119c-.262.134-.382.249-.5.249-2.016.016-4.034.057-6.048-.012-.372-.013-.8-.425-1.083-.751-2.479-2.812-4.948-5.633-7.379-8.486a2.409,2.409,0,0,0-2.1-.967c-1.368.057-2.74.015-4.294.015m.049-5.276a97.168,97.168,0,0,0,10.211-.4c3.412-.477,4.851-4.27,3.057-7.275a4.794,4.794,0,0,0-4.3-2.282c-2.688-.06-5.379-.025-8.068-.019a6.777,6.777,0,0,0-.9.129Z" transform="translate(-278.413 -0.812)" fill="#fff"/><path d="M219.578,21.529a8.632,8.632,0,0,0,.675,1.045c2.5,2.845,5.016,5.674,7.52,8.516.269.305.487.655.833,1.125a7.8,7.8,0,0,1-1.084.184c-1.735.014-3.474.07-5.2-.032a2.46,2.46,0,0,1-1.482-.821q-3.755-4.19-7.407-8.472a2.533,2.533,0,0,0-2.212-.969c-1.333.054-2.67.014-4.223.014V32.312h-5.772V1.577a7.427,7.427,0,0,1,1.1-.16c4.746,0,9.493-.054,14.236.053,3.969.089,7.207,1.67,9.231,5.245,2.528,4.463,1.337,11.242-3.437,13.646-.815.41-1.684.714-2.774,1.169m-12.508-5c.253.111.349.191.445.191,3.112-.009,6.247.207,9.329-.1,3.459-.35,5.1-3.392,3.94-6.637a4.8,4.8,0,0,0-4.556-3.056c-2.725-.049-5.45-.025-8.176-.019a7.136,7.136,0,0,0-.983.146Z" transform="translate(-115.7 -0.807)" fill="#fff"/><path d="M419.277,1.768H442.23c.047.416.126.821.132,1.228.017,1.1-.01,2.195.009,3.292.013.763-.326,1.095-1.091,1.073-.92-.026-1.841,0-2.761,0q-6.053,0-12.106,0c-1.255,0-1.4.158-1.41,1.415-.008,1.451-.011,2.9.006,4.354a12.033,12.033,0,0,0,.165,1.288h16.472V19.8c-.547.035-1.029.092-1.511.093q-6.8.01-13.593,0c-1.453,0-1.538.088-1.541,1.582q0,1.858,0,3.717c0,1.54.042,1.581,1.633,1.582q7.063,0,14.124.006c.449,0,.9.059,1.475.1V32.5H419.277Z" transform="translate(-241.078 -1.017)" fill="#fff"/><path d="M349.282,32.419h-5.827V1.618h5.787v12.9h1.49q6.213,0,12.427.011c1.015,0,1.162-.108,1.167-1.157.014-3.47,0-6.939.008-10.409,0-1.354.078-1.432,1.453-1.441s2.743,0,4.24,0v31c-1.062,0-2.069,0-3.077,0-2.992-.01-2.6.23-2.613-2.616-.015-2.761,0-5.523-.011-8.284,0-.415-.058-.83-.1-1.375H349.282Z" transform="translate(-197.481 -0.874)" fill="#fff"/><path d="M148.482,32.306a10.248,10.248,0,0,1-1.081.131c-1.345.014-2.691-.038-4.033.023a1.546,1.546,0,0,1-1.672-1.139c-.517-1.276-1.117-2.519-1.648-3.789a1.391,1.391,0,0,0-1.459-.961q-7.006.036-14.013,0a1.441,1.441,0,0,0-1.524,1.024c-.519,1.275-1.143,2.507-1.683,3.774a1.554,1.554,0,0,1-1.7,1.093c-1.27-.071-2.547-.01-3.821-.023-.371,0-.741-.068-1.3-.123.465-1.085.848-2.015,1.259-2.932q5.483-12.231,10.975-24.458c.391-.87.785-1.739,1.156-2.618a1.2,1.2,0,0,1,1.212-.84c1.592.012,3.185.022,4.777,0a1.3,1.3,0,0,1,1.281.918q4.026,8.994,8.049,17.99,2.508,5.61,5.006,11.225a7.314,7.314,0,0,1,.221.708M131.343,8.561c-1.745,4.237-3.715,8.195-5.313,12.457h11.162c-1.8-4.156-3.5-8.1-5.221-12.033-.065-.149-.313-.218-.628-.424" transform="translate(-65.862 -0.843)" fill="#fff"/><path d="M293.025,8.455c-.6-.425-1.03-.733-1.464-1.029-4.228-2.884-10.521-2.333-13.854,1.283a10.832,10.832,0,0,0-2.746,8.828,9.83,9.83,0,0,0,2.895,6.433c2.841,2.7,6.276,3.221,9.968,2.529a10.956,10.956,0,0,0,4.839-2.305,1.087,1.087,0,0,1,1.01-.111c1.189,1.1,2.309,2.27,3.544,3.513a9.985,9.985,0,0,1-.892.986c-3.824,3.195-8.288,4.066-13.125,3.619a14.749,14.749,0,0,1-10.678-5.38c-3.007-3.75-3.822-8.125-3.3-12.8a15.089,15.089,0,0,1,6.8-11.461A16.853,16.853,0,0,1,286.67.046,15.466,15.466,0,0,1,296,3.9a5.37,5.37,0,0,0,.9.518l-3.874,4.036" transform="translate(-154.714 0)" fill="#fff"/><path d="M0,32.82H31.188l15.6-15.6L31.3,1.317Z" transform="translate(0 -0.758)" fill="#fff"/><path d="M1,1.318H32.188l15.6,15.6L32.3,32.82Z" transform="translate(-0.575 -0.758)" fill="#00c8ff"/></g></svg>