<svg xmlns="http://www.w3.org/2000/svg" xmlns:xlink="http://www.w3.org/1999/xlink" width="192" height="71.604" viewBox="0 0 192 71.604"><defs><clipPath id="a"><rect width="192" height="71.604" fill="none"/></clipPath></defs><g clip-path="url(#a)"><path d="M89.13,59.794h10.8c-.385,2.033.438,3.825,1.025,5.641,1.549,4.8,3.175,9.577,4.773,14.362.06.179.137.353.274.7.138-.372.23-.57.287-.778,1.534-5.607,3.081-11.21,4.578-16.826a25.954,25.954,0,0,0,.44-3.018,120.036,120.036,0,0,1,12.057-.018,8.7,8.7,0,0,0,.56,4.28q2.167,7.771,4.337,15.542c.06.215.154.421.282.764a5.718,5.718,0,0,0,.319-.613q2.841-8.085,5.665-16.176a6.471,6.471,0,0,0,.48-3.721,73.735,73.735,0,0,1,10.735,0c-1.6,1.2-2.11,3.013-2.845,4.67q-3.656,8.248-7.206,16.542a21.3,21.3,0,0,0-1.048,3.232,11.134,11.134,0,0,0-.134,2.015c-.557.183-10.785.252-12.008.062a19.643,19.643,0,0,0-.333-2.753c-1.544-5.846-3.138-11.679-4.717-17.516a2.813,2.813,0,0,0-.12-.277,2.743,2.743,0,0,0-.277.5q-2.349,8.449-4.677,16.9a5.811,5.811,0,0,0-.184,3.144H99.912a6.082,6.082,0,0,0-.629-3.965c-1.743-4.269-3.523-8.523-5.288-12.783-.818-1.976-1.629-3.954-2.447-5.93a8.024,8.024,0,0,0-2.509-3.8l.092-.193" transform="translate(-53.3 -35.748)" fill="#fff"/><path d="M34.552,85.589H25.434V83.464c-.357.213-.579.336-.793.473a14.4,14.4,0,0,1-6.015,2.078,20.877,20.877,0,0,1-8.937-.565c-4.415-1.37-5.913-4.436-5.7-8.53.2-3.886,2.5-6.128,5.985-7.325a16.892,16.892,0,0,1,3.415-.744,19.176,19.176,0,0,1,10.975,1.42,6.868,6.868,0,0,0,.739.263,4.911,4.911,0,0,0-4.277-6.341A21.317,21.317,0,0,0,6.846,67.464a3.085,3.085,0,0,1-.488.21c-.224-2.418-.44-4.768-.664-7.188.56-.217,1.038-.445,1.541-.59A39.931,39.931,0,0,1,24.59,58.672a13.278,13.278,0,0,1,3.247.976,9.02,9.02,0,0,1,5.36,7.359,36.778,36.778,0,0,1,.432,5.084c.066,3.275.032,6.552.014,9.829a5.239,5.239,0,0,0,.84,3.336c.051.069.04.185.068.333M17.763,80.43a31.237,31.237,0,0,0,3.555-.356A10.721,10.721,0,0,0,24.4,78.981a1.7,1.7,0,0,0,.06-3.04,6.061,6.061,0,0,0-1.6-.8,14.917,14.917,0,0,0-5.53-.67,8.2,8.2,0,0,0-3.679.822,2.534,2.534,0,0,0-1.431,2.638,2.118,2.118,0,0,0,1.865,1.946c1.3.26,2.624.4,3.685.548" transform="translate(-2.375 -34.852)" fill="#fff"/><path d="M435.671,74.644c-.549-.092-.963-.189-1.382-.225-1.065-.09-2.132-.211-3.2-.216-4.883-.025-9.765-.016-14.648-.016-.262,0-.525.024-.775.036a4.7,4.7,0,0,0,2.763,5.154,12.617,12.617,0,0,0,3.676.892,22.483,22.483,0,0,0,11.051-1.9c.357-.16.721-.307,1.181-.5.228,2.082.442,4.049.673,6.156a24.862,24.862,0,0,1-2.508.971,34.625,34.625,0,0,1-16.38.546,10.312,10.312,0,0,1-8.5-8.433,19.21,19.21,0,0,1,.34-10.5,11.305,11.305,0,0,1,8.407-7.707,23.114,23.114,0,0,1,10.923-.057,9.651,9.651,0,0,1,7.188,6.348,16.968,16.968,0,0,1,1.194,6.167c0,1.059,0,2.118,0,3.284m-8.334-5.5a4.617,4.617,0,0,0-3.67-4.872,8.968,8.968,0,0,0-4.849.283,4.1,4.1,0,0,0-2.35,1.929A4.036,4.036,0,0,0,416.05,68c-.055.7.287,1.028,1,1.114a7.581,7.581,0,0,0,.9.024q4.164,0,8.328,0h1.054" transform="translate(-243.672 -34.851)" fill="#fff"/><path d="M270.213,21.91l2.446.283v7.349h-1.744v-5.63H244.06v2.8c.424.028.777.072,1.13.073,1.906.007,3.813,0,5.719.006,1.022.005,1.145.133,1.156,1.168q.016,1.605,0,3.21c-.009,1.079-.151,1.229-1.208,1.234-1.906.01-3.813,0-5.719.005-.3,0-.6.024-.98.042-.036.311-.068.59-.107.929a4.171,4.171,0,0,0,.72.14c1.839.011,3.679.007,5.518.008,1.778,0,1.778,0,1.778,1.777,0,.87.014,1.74-.007,2.609a10.836,10.836,0,0,1-.157,1.157h-7.759c-.033.419-.057.732-.091,1.165.425.028.777.07,1.129.072,1.873.007,3.746,0,5.618.006,1.111.006,1.257.161,1.265,1.292.008,1.07.014,2.141,0,3.211-.014.939-.174,1.1-1.129,1.111-1.872.015-3.746.005-5.618.006h-1.056a2.252,2.252,0,0,0,1.891,2.976,5.544,5.544,0,0,0,.8.028q10.535,0,21.069.008a2.928,2.928,0,0,0,1.976-.57,2.559,2.559,0,0,0,.913-2.126c-.017-3.411-.007-6.823-.007-10.233V34.837h1.733c.03.311.081.6.081.885,0,3.612.012,7.224,0,10.836a4.21,4.21,0,0,1-4.127,4.194q-11.086.029-22.173,0a4.184,4.184,0,0,1-4.176-4.039c-.01-.2-.03-.395-.048-.617-1.061-.464-2.282.2-3.337-.481V40.646c1-.7,2.22-.084,3.313-.461V39.116c-.586,0-1.114.008-1.641,0s-1.042-.041-1.724-.069v-1.7c0-.9-.008-1.806,0-2.709.01-.932.163-1.083,1.125-1.1.727-.015,1.453,0,2.241,0V32.4c-.773,0-1.5.011-2.222,0-1.017-.018-1.139-.146-1.145-1.176q-.01-1.656,0-3.311c0-.292.043-.584.078-1.032l3.318-.168c.016-.735.035-1.424.043-2.114.007-.568,0-1.136,0-1.7a.779.779,0,0,1,.869-.869c.5-.012,1,0,1.605,0,.032-.444.077-.8.078-1.148.007-2.742-.051-5.486.018-8.227A12.287,12.287,0,0,1,251.34,1.637a12.65,12.65,0,0,1,18.6,8.685,16.99,16.99,0,0,1,.224,2.89c.03,2.608.009,5.217.012,7.825,0,.264.024.528.04.873m-5.945.047v-1.1c0-2.743.048-5.486-.01-8.227a6.762,6.762,0,0,0-13.524.183c-.01,2.676,0,5.351,0,8.027,0,.356.042.711.068,1.12Zm-15.235-.024v-1.05c0-2.574-.016-5.148.009-7.721a12,12,0,0,1,.212-2.286,8.461,8.461,0,0,1,16.708,2.179c0,2.607,0,5.215,0,7.822,0,.351.048.7.074,1.062h2.32a4.639,4.639,0,0,0,.094-.64c-.005-2.975.029-5.95-.053-8.922a11.213,11.213,0,0,0-.543-3.239,10.973,10.973,0,0,0-21.334,3.19c-.087,2.939-.016,5.882-.01,8.824a7.265,7.265,0,0,0,.085.781Zm.808,7.017h-1.613v1.571h1.613Zm-9.113,8.568h1.417V35.933h-1.417Zm-.059-6.8h1.457V29.163h-1.457Zm7.491,11.8c.033.59.059,1.039.086,1.532h1.573V42.513Zm.092-5.264h1.583v-1.49h-1.583Zm-7.566,7.111,1.473-.085v-1.51h-1.473Z" transform="translate(-142.95 0)" fill="#fff"/><path d="M351.9,61.255c2.851-3.068,6.29-3.413,10-2.724a12.812,12.812,0,0,1,4.473,1.7,4.921,4.921,0,0,1,.411.281,1.118,1.118,0,0,1,.153.228c-.518,2.986-1.56,5.926-1.746,9.266-.6-.625-1.04-1.108-1.51-1.558a12.45,12.45,0,0,0-6.115-3.632c-.065-.013-.13-.031-.2-.042-3.033-.528-4.859.819-5.207,3.883a28.333,28.333,0,0,0-.179,3c-.022,3.209-.014,6.419,0,9.628a13.668,13.668,0,0,0,.116,2.2,18.3,18.3,0,0,0,.607,2.118h-9.786c1.033-1.734.8-3.586.8-5.4.015-5.616,0-11.233.006-16.849a6.548,6.548,0,0,0-.821-3.8l9-1.12Z" transform="translate(-205.271 -34.859)" fill="#fff"/><path d="M293.657,75.452c0,2.34.008,4.681-.007,7.022a4.852,4.852,0,0,1-.162,1.385,2.538,2.538,0,0,1-2.348,1.894,19.292,19.292,0,0,1-3.7-.006,2.722,2.722,0,0,1-2.541-2.761c-.026-.265-.016-.534-.016-.8q0-6.771,0-13.542a6.544,6.544,0,0,1,.06-1.1,2.59,2.59,0,0,1,2.487-2.462,16.963,16.963,0,0,1,3.6-.022,2.681,2.681,0,0,1,2.618,2.97c.029,2.173.008,4.347.009,6.52q0,.452,0,.9m-6.94-.062c0,2.405-.007,4.81,0,7.216,0,.983.336,1.33,1.31,1.36q1.252.039,2.505,0c.992-.029,1.32-.363,1.321-1.343q.01-7.216,0-14.431c0-1.007-.37-1.357-1.405-1.378-.734-.015-1.47-.01-2.2,0-1.2.014-1.524.338-1.528,1.561-.005,2.338,0,4.677,0,7.015" transform="translate(-170.537 -38.896)" fill="#fff"/><path d="M60.483,16.472H57.83c-.513-.959.255-2.159-.545-3-.606.1-.635.481-.637.852-.008,1.972-.016,3.943.008,5.914a4.223,4.223,0,0,0,.326,1.024c1.122-.832.363-1.953.828-2.836h2.522a4.965,4.965,0,0,1-.2,2.884,2.519,2.519,0,0,1-.724.934,3.877,3.877,0,0,1-4.575.033,2.658,2.658,0,0,1-.771-1.236,7.456,7.456,0,0,1-.216-1.882c-.028-1.369-.023-2.74,0-4.11.043-2.731,1.838-4.066,4.471-3.33a2.463,2.463,0,0,1,1.994,2.127c.1.818.11,1.649.168,2.627" transform="translate(-32.225 -6.895)" fill="#ef1d1e"/><path d="M31.885,16.5h-2.67c-.479-.983.186-2.118-.487-3.006-.724.083-.667.6-.679,1-.035,1.235-.028,2.472-.03,3.709,0,.668-.017,1.339.039,2a5.211,5.211,0,0,0,.374,1.087c1.011-.883.315-1.946.76-2.833h2.62a7.25,7.25,0,0,1-.279,2.92,2.515,2.515,0,0,1-1.706,1.443,4.364,4.364,0,0,1-2.761-.041,2.213,2.213,0,0,1-1.675-2.044q-.116-3.4-.036-6.8a2.244,2.244,0,0,1,1.4-1.945,3.99,3.99,0,0,1,3.757.092,2.061,2.061,0,0,1,1.158,1.554c.124.914.141,1.842.212,2.867" transform="translate(-15.159 -6.92)" fill="#ef1d1e"/><path d="M95.928,26.136c-1.024-.026-1.979.281-2.894-.3-.114.066-.225.135-.34.2-1.488.793-2.821.077-2.869-1.6-.053-1.8-.022-3.612-.026-5.417,0-.56,0-1.12,0-1.75h2.586c.024.4.063.749.065,1.1.008,1.772,0,3.545.013,5.317,0,.372-.1.825.41,1,.528-.224.4-.676.4-1.049.014-1.739,0-3.478.009-5.217,0-.357.036-.714.058-1.128h2.587Z" transform="translate(-53.752 -10.337)" fill="#ef1d1e"/><path d="M107.636,17c1.578-.251,2.151-.181,2.817.351a3.463,3.463,0,0,1,.384-.283,1.766,1.766,0,0,1,2.806,1.465c.067.863.031,1.734.033,2.6q.006,1.9,0,3.8c0,.258-.047.516-.08.847H111.1c-.029-.393-.075-.746-.077-1.1-.008-1.736.007-3.472-.014-5.207a6.845,6.845,0,0,0-.212-1.137c-.665.246-.584.685-.586,1.059-.013,1.736-.007,3.471-.015,5.207,0,.358-.035.717-.059,1.163h-2.413A45.541,45.541,0,0,1,107.636,17" transform="translate(-64.332 -10.031)" fill="#ef1d1e"/><path d="M72.494,21.5a20.589,20.589,0,0,1,.015-2.3,2.377,2.377,0,0,1,2.444-2.318,5.578,5.578,0,0,1,1.873.205,2.166,2.166,0,0,1,1.667,2.138c.033,1.535.011,3.071-.018,4.607a2.162,2.162,0,0,1-.865,1.636,3.985,3.985,0,0,1-4.257.086,2.361,2.361,0,0,1-.873-1.845c-.045-.733-.01-1.47-.01-2.205h.023m3.27-2.955-.27-.076c-.119.136-.34.27-.341.407q-.031,2.589.007,5.179c0,.137.223.271.468.551a3.607,3.607,0,0,0,.238-.852,43.039,43.039,0,0,0-.1-5.209" transform="translate(-43.375 -10.1)" fill="#ef1d1e"/><path d="M11.494,12.452h4.341v2.031l-1.659.175V16.5l1.565.217v1.888l-1.479.134c-.362.717-.124,1.439-.169,2.261l1.923.147v2.1c-1.509.065-3.024.051-4.515,0a60.255,60.255,0,0,1-.007-10.8" transform="translate(-6.738 -7.454)" fill="#ef1d1e"/><path d="M128.875,20.17c-.3-1.508-.3-1.508-.77-1.816a4.9,4.9,0,0,0-.171.859q-.025,2.1,0,4.206c0,.381-.065.84.559.928.69-.525.211-1.384.56-2.09h2.213a15.812,15.812,0,0,1-.128,1.626,2.4,2.4,0,0,1-1.489,1.878,3.708,3.708,0,0,1-2.833.025,2.02,2.02,0,0,1-1.432-1.776c-.084-1.727-.069-3.459-.057-5.189a1.821,1.821,0,0,1,1.064-1.593,3.539,3.539,0,0,1,3.716.042c1.068.639,1.115,1.723,1.131,2.9Z" transform="translate(-75.015 -10.011)" fill="#ef1d1e"/><path d="M154.007,23.222h-2.465a72.752,72.752,0,0,1-.034-10.749H154c.043,3.582.029,7.126.008,10.749" transform="translate(-90.587 -7.467)" fill="#ef1d1e"/><rect width="2.605" height="8.779" transform="translate(57.069 6.985)" fill="#ef1d1e"/><path d="M43.5,27.755V25.976a19.154,19.154,0,0,1,3.389,0v1.756a13.743,13.743,0,0,1-3.389.023" transform="translate(-26.043 -15.505)" fill="#ef1d1e"/><rect width="2.606" height="1.224" transform="translate(57.077 5.008)" fill="#ef1d1e"/><rect width="1.667" height="1.803" transform="translate(128.021 31.292)" fill="#fff"/><rect width="1.852" height="4.344" transform="translate(117.837 29.809)" fill="#fff"/><path d="M295.435,101.29H293.58V97.141a1.685,1.685,0,0,1,1.855-.033Z" transform="translate(-175.744 -57.975)" fill="#fff"/><path d="M295.441,90.477h-1.857V88.621a2.28,2.28,0,0,1,1.857-.081Z" transform="translate(-175.746 -52.908)" fill="#fff"/><path d="M3.779,157.411H2.638L0,147.725H1.262l1.94,7.907h.054l2.181-7.907H6.658l2.182,7.907h.053l1.94-7.907H12.1l-2.638,9.686H8.316l-2.235-7.686H6.014Z" transform="translate(0 -88.432)" fill="#fff"/><path d="M38.528,146.671H39.7v4.047h.027a2.386,2.386,0,0,1,2.3-1.242,2.448,2.448,0,0,1,2.551,2.685v4.618H43.4v-4.41a1.622,1.622,0,0,0-1.732-1.853,1.9,1.9,0,0,0-1.974,2.1v4.162H38.528Z" transform="translate(-23.064 -87.801)" fill="#fff"/><path d="M68.376,158.9a2.849,2.849,0,0,1-3,2.134c-2.034,0-3.316-1.416-3.316-3.658s1.289-3.712,3.262-3.712c1.933,0,3.142,1.362,3.142,3.551v.457h-5.2v.067a2.071,2.071,0,0,0,2.135,2.269,1.772,1.772,0,0,0,1.819-1.107Zm-5.108-2.162h3.98a1.917,1.917,0,0,0-1.947-2.047,2.026,2.026,0,0,0-2.034,2.047" transform="translate(-37.151 -91.986)" fill="#fff"/><path d="M86.579,153.729h1.1V154.9h.027a2.593,2.593,0,0,1,4.806,1.423v4.638H91.345v-4.437c0-1.182-.551-1.826-1.692-1.826a1.852,1.852,0,0,0-1.906,2.061v4.2H86.579Z" transform="translate(-51.828 -91.986)" fill="#fff"/><path d="M130.8,157.411h-6v-9.686h6v1.087h-4.793v3.108h4.544v1.074h-4.544v3.329H130.8Z" transform="translate(-74.708 -88.432)" fill="#fff"/><path d="M151.148,161.065h-1.181l-2.672-7.236h1.221l2.027,5.974h.027l2.034-5.974h1.215Z" transform="translate(-88.175 -92.086)" fill="#fff"/><path d="M176.375,158.9a2.849,2.849,0,0,1-3,2.134c-2.034,0-3.316-1.416-3.316-3.658s1.289-3.712,3.262-3.712c1.933,0,3.142,1.362,3.142,3.551v.457h-5.2v.067a2.071,2.071,0,0,0,2.135,2.269,1.772,1.772,0,0,0,1.819-1.107Zm-5.108-2.162h3.98a1.917,1.917,0,0,0-1.947-2.047,2.026,2.026,0,0,0-2.034,2.047" transform="translate(-101.801 -91.986)" fill="#fff"/><path d="M194.578,153.729h1.1V154.9h.027a1.746,1.746,0,0,1,1.752-1.242,2.6,2.6,0,0,1,.483.041v1.148a2.45,2.45,0,0,0-.638-.067,1.544,1.544,0,0,0-1.557,1.705v4.477h-1.168Z" transform="translate(-116.479 -91.986)" fill="#fff"/><path d="M210.115,163.643v-.987a2.716,2.716,0,0,0,.476.04c.671,0,1.034-.322,1.329-1.195l.141-.429-2.678-7.243h1.242l2.027,6.048h.026l2.027-6.048h1.228l-2.833,7.679c-.617,1.678-1.195,2.181-2.477,2.181a3.245,3.245,0,0,1-.51-.047" transform="translate(-125.342 -92.086)" fill="#fff"/><path d="M232.214,157.346c0-2.249,1.3-3.685,3.336-3.685s3.336,1.437,3.336,3.685-1.3,3.685-3.336,3.685-3.336-1.443-3.336-3.685m5.484,0c0-1.665-.8-2.645-2.148-2.645s-2.148.987-2.148,2.645.806,2.645,2.148,2.645,2.148-.987,2.148-2.645" transform="translate(-139.009 -91.985)" fill="#fff"/><path d="M257.4,153.729h1.1V154.9h.027a2.593,2.593,0,0,1,4.806,1.423v4.638h-1.168v-4.437c0-1.182-.551-1.826-1.692-1.826a1.852,1.852,0,0,0-1.906,2.061v4.2H257.4Z" transform="translate(-154.087 -91.986)" fill="#fff"/><path d="M286.982,158.9a2.849,2.849,0,0,1-3,2.134c-2.034,0-3.316-1.416-3.316-3.658s1.289-3.712,3.262-3.712c1.933,0,3.141,1.362,3.141,3.551v.457h-5.2v.067a2.071,2.071,0,0,0,2.135,2.269,1.772,1.772,0,0,0,1.819-1.107Zm-5.108-2.162h3.98a1.917,1.917,0,0,0-1.947-2.047,2.026,2.026,0,0,0-2.034,2.047" transform="translate(-168.013 -91.986)" fill="#fff"/><path d="M322.914,147.725a3.115,3.115,0,0,1-.013,6.229h-2.437v3.457h-1.208v-9.686Zm-2.45,5.155H322.6a2.045,2.045,0,1,0,0-4.081h-2.135Z" transform="translate(-191.114 -88.432)" fill="#fff"/><path d="M344.677,153.729h1.1V154.9h.027a1.746,1.746,0,0,1,1.752-1.242,2.6,2.6,0,0,1,.483.041v1.148a2.45,2.45,0,0,0-.638-.067,1.544,1.544,0,0,0-1.557,1.705v4.477h-1.168Z" transform="translate(-206.332 -91.986)" fill="#fff"/><path d="M359.316,157.346c0-2.249,1.3-3.685,3.336-3.685s3.336,1.437,3.336,3.685-1.3,3.685-3.336,3.685-3.336-1.443-3.336-3.685m5.484,0c0-1.665-.8-2.645-2.148-2.645s-2.148.987-2.148,2.645.806,2.645,2.148,2.645,2.148-.987,2.148-2.645" transform="translate(-215.095 -91.985)" fill="#fff"/><path d="M385.124,149.765V151.4h1.41v.967h-1.41v4.343c0,.664.282.967.9.967a4.9,4.9,0,0,0,.5-.033v.987a4.242,4.242,0,0,1-.752.061c-1.309,0-1.819-.544-1.819-1.933v-4.39h-1.007V151.4h1.007v-1.631Z" transform="translate(-229.242 -89.653)" fill="#fff"/><path d="M405.542,158.9a2.849,2.849,0,0,1-3,2.134c-2.034,0-3.316-1.416-3.316-3.658s1.289-3.712,3.262-3.712c1.933,0,3.141,1.362,3.141,3.551v.457h-5.2v.067a2.071,2.071,0,0,0,2.134,2.269,1.772,1.772,0,0,0,1.819-1.107Zm-5.108-2.162h3.98a1.917,1.917,0,0,0-1.947-2.047,2.026,2.026,0,0,0-2.034,2.047" transform="translate(-238.986 -91.986)" fill="#fff"/><path d="M428.048,156.085a1.75,1.75,0,0,0-1.88-1.383c-1.262,0-2.121,1.047-2.121,2.645,0,1.644.873,2.644,2.134,2.644a1.727,1.727,0,0,0,1.879-1.342h1.148a2.842,2.842,0,0,1-3.034,2.383c-1.987,0-3.316-1.41-3.316-3.685,0-2.222,1.322-3.685,3.3-3.685a2.853,2.853,0,0,1,3.034,2.423Z" transform="translate(-253.133 -91.986)" fill="#fff"/><path d="M447.6,149.765V151.4h1.41v.967H447.6v4.343c0,.664.282.967.9.967a4.9,4.9,0,0,0,.5-.033v.987a4.242,4.242,0,0,1-.752.061c-1.309,0-1.819-.544-1.819-1.933v-4.39h-1.007V151.4h1.007v-1.631Z" transform="translate(-266.639 -89.653)" fill="#fff"/><path d="M465.163,153.678a2.388,2.388,0,0,1,2.631,2.067h-1.121c-.074-.678-.665-1.1-1.551-1.1s-1.49.423-1.49,1.054c0,.49.389.819,1.221,1.027l1.1.275c1.463.369,1.987.879,1.987,1.933,0,1.235-1.188,2.108-2.859,2.108-1.557,0-2.685-.846-2.8-2.1h1.175c.121.739.718,1.135,1.705,1.135s1.6-.409,1.6-1.06c0-.511-.3-.779-1.128-.994l-1.269-.329c-1.268-.329-1.886-.967-1.886-1.933,0-1.222,1.107-2.081,2.678-2.081" transform="translate(-276.734 -91.995)" fill="#fff"/><rect width="2.408" height="2.007" transform="translate(100.9 28.665)" fill="#ef1d1e"/><rect width="2.408" height="2.007" transform="translate(100.9 35.488)" fill="#ef1d1e"/><rect width="2.408" height="2.007" transform="translate(100.9 42.311)" fill="#ef1d1e"/></g></svg>