<svg xmlns="http://www.w3.org/2000/svg" width="160.679" height="72.482" viewBox="0 0 160.679 72.482"><g transform="translate(0 0)"><path d="M3.278,42.243H0V12.865c.155-.009.29-.022.425-.023,1.244,0,2.489.007,3.733-.007a.515.515,0,0,1,.558.361q4.495,10.246,9,20.488c.441,1.006.812,2.042,1.228,3.093a.848.848,0,0,0,.122-.182c.92-2.676,2.168-5.213,3.324-7.789,2.319-5.171,4.661-10.332,6.979-15.5a.681.681,0,0,1,.746-.47c1.106.025,2.212.009,3.318.009h.485V42.235H26.464c-.008-.14-.023-.273-.023-.406,0-6.564-.01-13.129.016-19.693.006-1.448.142-2.9.215-4.344a2.369,2.369,0,0,0-.033-.546,10.252,10.252,0,0,1-.292,1.016c-.514,1.293-1.016,2.592-1.579,3.864q-4.359,9.854-8.748,19.7c-.061.138-.126.274-.195.424H14.1q-.752-1.672-1.507-3.351Q8.553,29.871,4.506,20.85A16.258,16.258,0,0,1,3.36,17.58a2.587,2.587,0,0,0-.083-.266Z" transform="translate(0 -10.702)" fill="#fff"/><path d="M211.366,274.561v11.085H207.88V256.289c.129-.009.251-.026.372-.025,2.945.01,5.891-.029,8.834.051a9.646,9.646,0,0,1,5.794,1.943,7.474,7.474,0,0,1,2.811,4.776,10.257,10.257,0,0,1-.34,5.273,8.934,8.934,0,0,1-5.594,5.506,12.177,12.177,0,0,1-4.22.744c-1.368.017-2.736,0-4.172,0m.032-15.12v11.947c1.318,0,2.6.041,3.887-.014a12.593,12.593,0,0,0,2.574-.341,5.282,5.282,0,0,0,4.069-3.781,7.562,7.562,0,0,0,.2-3.076,4.7,4.7,0,0,0-2.8-4,7.707,7.707,0,0,0-1.733-.529,46.739,46.739,0,0,0-6.19-.2" transform="translate(-173.368 -213.719)" fill="#fff"/><path d="M786.688,315.555h-14.8A10.9,10.9,0,0,0,772.2,318a5.952,5.952,0,0,0,5.4,4.687,10.137,10.137,0,0,0,7.148-1.919c.129-.091.26-.179.446-.306v3.186a9.533,9.533,0,0,1-3.667,1.645,13.841,13.841,0,0,1-6.282.1,8.347,8.347,0,0,1-6.129-5.627,14.618,14.618,0,0,1-.759-5.748,11.8,11.8,0,0,1,2.086-6.4,8.813,8.813,0,0,1,6.456-3.9,8.92,8.92,0,0,1,5.391.908,8.085,8.085,0,0,1,3.927,5.253,18.591,18.591,0,0,1,.472,5.012v.672m-3.57-2.946a1.085,1.085,0,0,0,.027-.256,17.432,17.432,0,0,0-.381-2.317,4.327,4.327,0,0,0-2.795-3.111,5.478,5.478,0,0,0-5.843,1.2,7.337,7.337,0,0,0-2.1,3.962c-.035.167-.053.337-.082.519Z" transform="translate(-640.78 -253.225)" fill="#fff"/><path d="M338.2,325.228h-3.412V322.1l-.1-.038c-.085.13-.168.26-.254.388a6.822,6.822,0,0,1-4.656,3.167,7.977,7.977,0,0,1-5.053-.62,5.457,5.457,0,0,1-3.148-4.9,7.473,7.473,0,0,1,.441-3.174,6.035,6.035,0,0,1,3.546-3.4,13.778,13.778,0,0,1,3.408-.828q2.254-.311,4.507-.631c.419-.059.839-.12,1.289-.184a6.756,6.756,0,0,0-.906-3.681,3.49,3.49,0,0,0-2.849-1.53A10.105,10.105,0,0,0,324,308.919c-.106.083-.215.162-.358.269a.959.959,0,0,1-.062-.215c0-.926.029-1.852,0-2.776a.767.767,0,0,1,.464-.785,15.644,15.644,0,0,1,3.453-1.252,12.608,12.608,0,0,1,4.306-.409,6.429,6.429,0,0,1,4.959,2.451,6.842,6.842,0,0,1,1.255,3.247,20.752,20.752,0,0,1,.172,2.6c.017,4.228.008,8.456.008,12.685v.495m-3.439-10.552c-.1.006-.169,0-.233.013-1.692.234-3.387.454-5.076.708a8.831,8.831,0,0,0-2.766.8,2.522,2.522,0,0,0-1.4,1.656,7.689,7.689,0,0,0-.192,1.756,2.856,2.856,0,0,0,1.069,2.238,4.09,4.09,0,0,0,2.505.954,5.561,5.561,0,0,0,5.707-3.776,12.707,12.707,0,0,0,.384-4.353" transform="translate(-268.184 -253.289)" fill="#fff"/><path d="M470.575,71.5a11.678,11.678,0,0,1-.971,4.9,9.394,9.394,0,0,1-7.541,5.769,11.8,11.8,0,0,1-5.53-.379,8.978,8.978,0,0,1-5.948-5.9,13.376,13.376,0,0,1,.369-9.866,9.1,9.1,0,0,1,7.157-5.528,12.485,12.485,0,0,1,5.707.2,8.756,8.756,0,0,1,6.146,6.132,14.4,14.4,0,0,1,.609,4.676m-3.519-.2a11.056,11.056,0,0,0-.518-3.744,5.841,5.841,0,0,0-3.863-4.012,7.868,7.868,0,0,0-2.786-.3,6.223,6.223,0,0,0-5.916,4.393,11.449,11.449,0,0,0-.089,7.168,6.151,6.151,0,0,0,3.862,4.154,7.76,7.76,0,0,0,3.51.382,5.755,5.755,0,0,0,5.15-3.881,10.828,10.828,0,0,0,.649-4.156" transform="translate(-375.141 -50.255)" fill="#fff"/><path d="M702.415,71.2a12.053,12.053,0,0,1-.873,4.98,9.4,9.4,0,0,1-7.641,5.992,11.671,11.671,0,0,1-5.764-.461,8.993,8.993,0,0,1-5.724-5.867,13.439,13.439,0,0,1,.322-9.677,9.116,9.116,0,0,1,7.229-5.673,12.475,12.475,0,0,1,5.707.2,8.76,8.76,0,0,1,6.143,6.136,13.327,13.327,0,0,1,.6,4.369m-3.511.158a11.01,11.01,0,0,0-.673-4.223,5.733,5.733,0,0,0-3.7-3.591,8,8,0,0,0-2.578-.317,6.272,6.272,0,0,0-6.185,4.55,11.624,11.624,0,0,0-.092,6.856,6.217,6.217,0,0,0,3.677,4.226,7.637,7.637,0,0,0,3.74.476,5.773,5.773,0,0,0,5.229-4.066,10.855,10.855,0,0,0,.583-3.911" transform="translate(-568.497 -50.256)" fill="#fff"/><path d="M641.6,304.179h3.381v3.3l.083.022c.091-.131.182-.261.271-.392a7.318,7.318,0,0,1,4.82-3.3,8.228,8.228,0,0,1,4.764.378,6.238,6.238,0,0,1,3.529,4.052,11.054,11.054,0,0,1,.569,3.5c.023,4.38.013,8.76.014,13.14,0,.081-.011.161-.018.268h-3.409v-.487q0-5.782,0-11.565a10.612,10.612,0,0,0-.5-3.467,4.048,4.048,0,0,0-3.216-2.946,5.568,5.568,0,0,0-6.292,3.387,6.637,6.637,0,0,0-.584,2.649Q645,318.642,645,324.57c0,.177,0,.355,0,.567h-3.4Z" transform="translate(-535.087 -253.217)" fill="#fff"/><path d="M824.919,10.528v2.9h-4.892V31.527h-3.412V13.471h-3.545V10.527H816.6c0-.206,0-.354,0-.5.006-1.2-.051-2.408.031-3.6A6.465,6.465,0,0,1,820.481.592a7.3,7.3,0,0,1,4.9-.318c.119.029.233.078.361.122V3.482c-.155-.069-.275-.125-.4-.177a4.632,4.632,0,0,0-2.923-.24,2.8,2.8,0,0,0-2.119,2.115,6.888,6.888,0,0,0-.262,1.626c-.042,1.117-.018,2.237-.019,3.356,0,.107.02.213.035.366Z" transform="translate(-678.086 0)" fill="#fff"/><path d="M590.726,77.517c.441.289.842.583,1.271.829a7.964,7.964,0,0,0,6.066.9,2.427,2.427,0,0,0,2-2.068,2.573,2.573,0,0,0-1.171-2.838c-1.042-.618-2.125-1.172-3.213-1.706a19.077,19.077,0,0,1-2.778-1.554,5.134,5.134,0,0,1-2.181-4.214,5.928,5.928,0,0,1,4.155-5.937,9.472,9.472,0,0,1,3.909-.533,10.55,10.55,0,0,1,3.416.761.643.643,0,0,1,.479.7c-.027.951-.009,1.9-.009,2.92a2.781,2.781,0,0,1-.306-.15,7.871,7.871,0,0,0-5.205-1.272,3.793,3.793,0,0,0-1.669.571,2.863,2.863,0,0,0-.091,4.706c.852.48,1.718.939,2.606,1.348a19.078,19.078,0,0,1,3.411,1.857,5.024,5.024,0,0,1,2.155,3.583,5.582,5.582,0,0,1-2.269,5.453,7.823,7.823,0,0,1-3.744,1.442,11.545,11.545,0,0,1-5.354-.49,9.662,9.662,0,0,1-1.283-.572.523.523,0,0,1-.235-.379c-.029-1.076-.033-2.152-.04-3.229,0-.033.042-.066.081-.123" transform="translate(-492.588 -50.347)" fill="#fff"/><path d="M901.288,50.2v2.866a4.664,4.664,0,0,1-1.92.608,8.338,8.338,0,0,1-3.205-.157,4.474,4.474,0,0,1-3.323-3.7,12.116,12.116,0,0,1-.244-2.381c-.024-3.881-.011-7.763-.011-11.645V35.2h-3.557V32.274h3.543v-5.1l3.447-1.116v6.2h5.267v2.921H896.04c-.009.2-.022.352-.022.5,0,3.757-.012,7.515.01,11.272a8.971,8.971,0,0,0,.231,1.966,2.3,2.3,0,0,0,2.275,1.881,3.929,3.929,0,0,0,2.618-.567.45.45,0,0,1,.137-.03" transform="translate(-741.434 -21.732)" fill="#fff"/><path d="M543.155,278.492h-3.564V275.6h3.548v-5.122l3.442-1.112v6.221h5.265V278.5H546.58v.509c0,3.786-.012,7.572.011,11.358a8.357,8.357,0,0,0,.253,1.961,2.262,2.262,0,0,0,2.186,1.771,4.009,4.009,0,0,0,2.665-.545.557.557,0,0,1,.153-.034c.01.113.026.215.026.316q0,1.036,0,2.073c0,.495,0,.505-.473.7a7.043,7.043,0,0,1-3.089.452,7.956,7.956,0,0,1-1.632-.247,4.407,4.407,0,0,1-3.258-3.559,10.551,10.551,0,0,1-.257-2.254c-.025-3.979-.012-7.959-.012-11.939Z" transform="translate(-450.01 -224.649)" fill="#fff"/><path d="M278.121,61.405v3.506c-.174-.106-.308-.185-.439-.269a8.292,8.292,0,0,0-5.613-1.306,6.657,6.657,0,0,0-5.17,3.587,8.835,8.835,0,0,0-1.074,4.124,9.87,9.87,0,0,0,.59,4.108A6.378,6.378,0,0,0,272,79.39a8.281,8.281,0,0,0,5.611-1.447c.137-.091.272-.184.452-.307v3.258a9.067,9.067,0,0,1-2.638,1.1,11.548,11.548,0,0,1-6.219-.056,8.916,8.916,0,0,1-5.975-5.385,12.609,12.609,0,0,1,.488-10.85,9.472,9.472,0,0,1,7.151-5.16,12.005,12.005,0,0,1,6.472.516c.256.1.5.221.776.344" transform="translate(-218.703 -50.313)" fill="#fff"/><path d="M901.838,304.879h3.387v4.04l.089.014c.089-.21.175-.421.267-.63a6.309,6.309,0,0,1,3.093-3.371,5.671,5.671,0,0,1,3.846-.25,2.216,2.216,0,0,1,.276.108v3.4a16.826,16.826,0,0,0-1.738-.48,4.2,4.2,0,0,0-4.541,2.175,8.052,8.052,0,0,0-1.155,3.42,21.117,21.117,0,0,0-.114,2.272c-.012,3.233-.005,6.465-.005,9.7v.564h-3.407Z" transform="translate(-752.117 -253.918)" fill="#fff"/><path d="M381.834,61.583h3.372v4.1l.065.015c.06-.142.123-.283.179-.426a7.1,7.1,0,0,1,1.956-2.836,5.175,5.175,0,0,1,4.123-1.221c.407.045.808.139,1.226.214v3.557l-.29-.145a4.43,4.43,0,0,0-5.56,1.162,8.241,8.241,0,0,0-1.585,4.161,19.229,19.229,0,0,0-.088,2.067c-.008,3.26,0,6.521,0,9.782v.532h-3.394Z" transform="translate(-318.443 -51.021)" fill="#fff"/><path d="M453.275,304.924a2.144,2.144,0,0,1,.22-.024c1.036,0,2.073,0,3.148,0V309l.074.02c.039-.086.081-.169.115-.257a7.422,7.422,0,0,1,1.864-2.853,5.117,5.117,0,0,1,4.193-1.366c.434.047.864.132,1.312.2v3.562a6.709,6.709,0,0,0-.672-.315,4.377,4.377,0,0,0-5.471,1.756,8.359,8.359,0,0,0-1.292,3.8c-.075.74-.085,1.488-.087,2.233-.009,3.192,0,6.384,0,9.576v.52h-3.4Z" transform="translate(-378.024 -253.958)" fill="#fff"/><path d="M217.2,63.637h3.37V84.6h-3.309c-.123-.3-.184-19.87-.061-20.966" transform="translate(-181.083 -53.072)" fill="#fff"/><path d="M214.656,7.405a2.162,2.162,0,0,1,2.2-2.227,2.276,2.276,0,0,1,2.248,2.167,2.292,2.292,0,0,1-2.244,2.268,2.155,2.155,0,0,1-2.207-2.208" transform="translate(-179.014 -4.318)" fill="#fff"/></g></svg>