<svg id="Group_18086" data-name="Group 18086" xmlns="http://www.w3.org/2000/svg" xmlns:xlink="http://www.w3.org/1999/xlink" width="181.396" height="165.322" viewBox="0 0 181.396 165.322">
  <defs>
    <clipPath id="clip-path">
      <rect id="Rectangle_10584" data-name="Rectangle 10584" width="181.396" height="165.322" fill="none"/>
    </clipPath>
    <clipPath id="clip-path-3">
      <rect id="Rectangle_10577" data-name="Rectangle 10577" width="12.834" height="3.568" fill="none"/>
    </clipPath>
    <clipPath id="clip-path-4">
      <rect id="Rectangle_10578" data-name="Rectangle 10578" width="15.585" height="4.462" fill="none"/>
    </clipPath>
    <clipPath id="clip-path-5">
      <rect id="Rectangle_10580" data-name="Rectangle 10580" width="11.576" height="3.332" fill="none"/>
    </clipPath>
    <clipPath id="clip-path-6">
      <rect id="Rectangle_10581" data-name="Rectangle 10581" width="41.296" height="28.118" fill="none"/>
    </clipPath>
    <clipPath id="clip-path-7">
      <rect id="Rectangle_10582" data-name="Rectangle 10582" width="40.492" height="27.379" fill="none"/>
    </clipPath>
  </defs>
  <g id="Group_18085" data-name="Group 18085" clip-path="url(#clip-path)">
    <g id="Group_18084" data-name="Group 18084">
      <g id="Group_18083" data-name="Group 18083" clip-path="url(#clip-path)">
        <path id="Path_30029" data-name="Path 30029" d="M62.531,224.122c-.018.346-.041.692-.069,1.037q-.1,1.212-.266,2.409-.082.577-.181,1.149A39.682,39.682,0,0,1,59.8,236.6H29.587c-.059-.077-.116-.155-.173-.232a.118.118,0,0,0-.01-.014q-.177-.242-.351-.489c-.105-.148-.209-.3-.312-.445a39.522,39.522,0,0,1-4.421-8.478q-.1-.254-.187-.509-.2-.556-.384-1.121-.22-.668-.416-1.348-.282-.976-.517-1.975-.181-.772-.329-1.544c-.051-.255-.1-.511-.142-.766a39.583,39.583,0,0,1-.387-10.8q.1-1.031.263-2.052c.036-.226.073-.453.111-.678a39.737,39.737,0,0,1,3.861-11.481c.1-.2.21-.406.32-.607a39.849,39.849,0,0,1,7.5-9.871c.095-.092.189-.183.285-.272l.375.117a39.9,39.9,0,0,1,11.112,5.5c.187.131.373.264.556.4a39.716,39.716,0,0,1,8.567,8.564c.135.183.271.37.4.558a39.514,39.514,0,0,1,5.61,11.569c.075.248.147.5.214.748q.211.758.392,1.529a39.79,39.79,0,0,1,1,11.22" transform="translate(-8.438 -71.333)" fill="#d2b5f2"/>
        <path id="Path_30030" data-name="Path 30030" d="M28.048,269.236H25.973L25.3,269l-.01-.013c-.118-.162-.236-.324-.351-.488-.1-.148-.208-.3-.31-.446l1.039.359,1.142.394Z" transform="translate(-9.552 -103.968)" fill="#fff"/>
        <path id="Path_30031" data-name="Path 30031" d="M45.249,227.819l2.062,8.781h-.7l-.23-.979-1.125-4.795-.228-.973-.321-1.366-.121-.515-.083-.028-7.859-2.713-.5-.171-8.907-3.075-.5-.172-3.965-1.369c-.05-.255-.1-.511-.141-.766l4.324,1.492.5.173,8.906,3.074.5.172,7.307,2.523.234.081L41.133,213.25l-18.618-6.428c.036-.226.073-.453.112-.677l18.324,6.325-3.274-13.945-11.189-3.861c.1-.2.21-.406.32-.607l10.687,3.689L34.31,184.186q.141-.138.284-.272l.376.117,3.183,13.561,7.928-8.059q.28.2.556.4l-8.3,8.437,3.273,13.945L55.2,198.5c.137.184.271.37.4.558L41.793,213.1l3.273,13.943,16.149-16.415c.075.248.146.5.214.749Z" transform="translate(-8.733 -71.333)" fill="#fff"/>
        <path id="Path_30032" data-name="Path 30032" d="M80.641,249.6c-.018.346-.041.692-.069,1.037L69.4,262.077h-.95Z" transform="translate(-26.548 -96.81)" fill="#fff"/>
        <path id="Path_30033" data-name="Path 30033" d="M37.747,251.964H5.091a30.728,30.728,0,0,1-3.736-7.924c-.051-.171-.1-.342-.152-.512A30.916,30.916,0,0,1,.01,234.182c0-.178.009-.356.018-.533a31.036,31.036,0,0,1,1.9-9.455c.035-.1.071-.192.107-.286l.3-.046a31.049,31.049,0,0,1,9.644.082c.174.029.35.06.525.092q.506.093,1.01.2a30.9,30.9,0,0,1,7.892,2.886c.157.083.315.168.47.255a30.759,30.759,0,0,1,7.852,6.194q.2.223.4.452.4.458.792.937a30.948,30.948,0,0,1,4.285,6.991c.077.174.152.348.226.523.028.069.058.137.085.206.086.208.169.417.25.626q.106.272.2.543.209.572.394,1.149.139.432.264.866a30.829,30.829,0,0,1,1.016,5.119q.055.489.094.979" transform="translate(0 -86.697)" fill="#c1aaff"/>
        <path id="Path_30034" data-name="Path 30034" d="M30.143,234.24l-2,5.929-.217.642L24.4,251.24l.762.938h-.678l-.493-.607-1.495.179-1.519.181-2.064.247H14.468l6.154-.735.728-.087,2.245-.267-7.022-8.65-.684.081L1.36,244.255c-.051-.171-.1-.342-.151-.513L15.7,242.011l.479-.057-.863-1.064L9.159,233.3.017,234.4c0-.178.009-.356.018-.533l8.732-1.044-6.828-8.412c.035-.1.071-.192.107-.286.1-.016.2-.031.3-.045l6.829,8.412,2.816-8.33c.174.029.35.059.524.092l-2.947,8.722,5.333,6.571,1.688,2.079,1.431-4.23.217-.643,3.181-9.41c.157.083.315.168.47.255l-3.154,9.328-.217.642-1.535,4.542L24,250.756l3.42-10.118.217-.642,2.1-6.208c.136.148.27.3.4.452" transform="translate(-0.007 -86.91)" fill="#fff"/>
        <path id="Path_30035" data-name="Path 30035" d="M55.689,254.36l-3.144,9.281h-.556l3.389-10.01c.078.174.152.349.226.523.028.069.058.137.085.206" transform="translate(-20.165 -98.374)" fill="#fff"/>
        <rect id="Rectangle_10572" data-name="Rectangle 10572" width="110.416" height="155.486" transform="translate(46.411 9.581)" fill="#5b2ec9"/>
        <path id="Path_30036" data-name="Path 30036" d="M186.234,58.7V187.833H75.817v-62.4Z" transform="translate(-29.407 -22.766)" fill="#10005c"/>
        <rect id="Rectangle_10573" data-name="Rectangle 10573" width="93.972" height="137.52" transform="translate(54.633 15.969)" fill="#d9d1ff"/>
        <path id="Path_30037" data-name="Path 30037" d="M158.145,6.844V6.159a6.16,6.16,0,0,0-12.319,0v.684h-3.7a12.274,12.274,0,0,0-12.274,12.273h44.258A12.274,12.274,0,0,0,161.84,6.844Z" transform="translate(-50.366)" fill="#10005c"/>
        <path id="Path_30038" data-name="Path 30038" d="M167.01,7.114a2.737,2.737,0,1,1-2.737-2.737,2.737,2.737,0,0,1,2.737,2.737" transform="translate(-62.654 -1.698)" fill="#fff"/>
        <path id="Path_30039" data-name="Path 30039" d="M168,135.368H103.8a1.128,1.128,0,0,1,0-2.255H168a1.128,1.128,0,0,1,0,2.255" transform="translate(-39.824 -51.629)" fill="#fff"/>
        <path id="Path_30040" data-name="Path 30040" d="M103.615,142.232h9.772a.941.941,0,0,1,0,1.883h-9.745a.959.959,0,0,1-.968-.929.943.943,0,0,1,.941-.954" transform="translate(-39.823 -55.166)" fill="#fff"/>
        <path id="Path_30041" data-name="Path 30041" d="M168.5,143.173a.942.942,0,0,1-.941.941H127.9a.941.941,0,0,1,0-1.883h39.66a.941.941,0,0,1,.941.941" transform="translate(-49.243 -55.166)" fill="#fff"/>
        <path id="Path_30042" data-name="Path 30042" d="M130.813,151.683h0a.942.942,0,0,1-.941.941h-26.23a.959.959,0,0,1-.968-.929.943.943,0,0,1,.941-.954h26.256a.942.942,0,0,1,.941.941" transform="translate(-39.823 -58.467)" fill="#fff"/>
        <path id="Path_30043" data-name="Path 30043" d="M178.947,151.669a.942.942,0,0,1-.941.956H154.83a.941.941,0,0,1,0-1.883h23.151a.958.958,0,0,1,.966.927" transform="translate(-59.688 -58.467)" fill="#fff"/>
        <path id="Path_30044" data-name="Path 30044" d="M147.623,160.193h0a.942.942,0,0,1-.941.941H103.642a.959.959,0,0,1-.968-.929.943.943,0,0,1,.941-.954h43.066a.942.942,0,0,1,.941.941" transform="translate(-39.823 -61.768)" fill="#fff"/>
        <path id="Path_30045" data-name="Path 30045" d="M189.6,160.183a.941.941,0,0,1-.941.952h-6.366a.941.941,0,0,1,0-1.883h6.342a.957.957,0,0,1,.965.931" transform="translate(-70.339 -61.768)" fill="#fff"/>
        <path id="Path_30046" data-name="Path 30046" d="M103.615,167.763h3.944a.942.942,0,0,1,0,1.884h-3.919a.958.958,0,0,1-.967-.927.943.943,0,0,1,.941-.956" transform="translate(-39.823 -65.069)" fill="#fff"/>
        <path id="Path_30047" data-name="Path 30047" d="M118.382,167.763h23.109a.942.942,0,0,1,0,1.884H118.382a.942.942,0,0,1,0-1.884" transform="translate(-45.551 -65.069)" fill="#fff"/>
        <path id="Path_30048" data-name="Path 30048" d="M182.68,168.694a.942.942,0,0,1-.941.952H164.456a.942.942,0,0,1,0-1.884h17.259a.957.957,0,0,1,.965.931" transform="translate(-63.421 -65.069)" fill="#fff"/>
        <path id="Path_30049" data-name="Path 30049" d="M122.878,177.214h0a.941.941,0,0,1-.941.941H103.616a.941.941,0,0,1,0-1.883h18.32a.941.941,0,0,1,.941.941" transform="translate(-39.824 -68.37)" fill="#fff"/>
        <path id="Path_30050" data-name="Path 30050" d="M173.919,177.215h0a.941.941,0,0,1-.941.941H141.866a.942.942,0,0,1,0-1.884h31.11a.942.942,0,0,1,.942.942" transform="translate(-54.659 -68.37)" fill="#fff"/>
        <path id="Path_30051" data-name="Path 30051" d="M123.209,203.94a11.821,11.821,0,1,1-11.821-11.821h.134a11.822,11.822,0,0,1,11.687,11.82" transform="translate(-38.618 -74.516)" fill="#5b2ec9"/>
        <path id="Path_30052" data-name="Path 30052" d="M170.338,203.94a11.824,11.824,0,1,1-11.821-11.821,11.821,11.821,0,0,1,11.821,11.821" transform="translate(-56.897 -74.516)" fill="#5b2ec9"/>
        <path id="Path_30053" data-name="Path 30053" d="M217.467,203.94a11.821,11.821,0,1,1-11.822-11.821,11.821,11.821,0,0,1,11.822,11.821" transform="translate(-75.177 -74.516)" fill="#5b2ec9"/>
        <path id="Path_30054" data-name="Path 30054" d="M111.522,192.119l-.134,11.82-9.364,7.215a11.822,11.822,0,0,1,9.364-19.037h.134" transform="translate(-38.618 -74.515)" fill="#fff"/>
        <path id="Path_30055" data-name="Path 30055" d="M162.025,192.118v11.821l-6.285-10.015a11.773,11.773,0,0,1,6.285-1.806" transform="translate(-60.406 -74.515)" fill="#fff"/>
        <path id="Path_30056" data-name="Path 30056" d="M205.645,211.43v11.821a11.821,11.821,0,0,1-11.821-11.821Z" transform="translate(-75.177 -82.006)" fill="#fff"/>
        <rect id="Rectangle_10574" data-name="Rectangle 10574" width="11.473" height="11.473" transform="translate(109.399 23.713)" fill="#5b2ec9"/>
        <path id="Path_30057" data-name="Path 30057" d="M180.309,46.134l3.487,2.774L190.02,40.7l-6.412,6.224Z" transform="translate(-69.935 -15.785)" fill="#fff"/>
        <rect id="Rectangle_10575" data-name="Rectangle 10575" width="11.473" height="11.473" transform="translate(109.399 39.235)" fill="#5b2ec9"/>
        <path id="Path_30058" data-name="Path 30058" d="M180.309,71.492l3.487,2.774,6.224-8.211-6.412,6.224Z" transform="translate(-69.935 -25.62)" fill="#fff"/>
        <rect id="Rectangle_10576" data-name="Rectangle 10576" width="11.473" height="11.473" transform="translate(109.399 54.758)" fill="#5b2ec9"/>
        <path id="Path_30059" data-name="Path 30059" d="M180.309,96.849l3.487,2.774,6.224-8.211-6.412,6.224Z" transform="translate(-69.935 -35.455)" fill="#fff"/>
        <path id="Path_30060" data-name="Path 30060" d="M223.638,39.938h-18.6a.6.6,0,1,1,0-1.2h18.6a.6.6,0,1,1,0,1.2" transform="translate(-79.295 -15.025)" fill="#fff"/>
        <path id="Path_30061" data-name="Path 30061" d="M223.638,44.041h-18.6a.6.6,0,1,1,0-1.2h18.6a.6.6,0,1,1,0,1.2" transform="translate(-79.295 -16.616)" fill="#fff"/>
        <path id="Path_30062" data-name="Path 30062" d="M223.638,48.145h-18.6a.6.6,0,1,1,0-1.2h18.6a.6.6,0,1,1,0,1.2" transform="translate(-79.295 -18.208)" fill="#fff"/>
        <path id="Path_30063" data-name="Path 30063" d="M223.638,65.295h-18.6a.6.6,0,0,1,0-1.2h18.6a.6.6,0,0,1,0,1.2" transform="translate(-79.295 -24.86)" fill="#fff"/>
        <path id="Path_30064" data-name="Path 30064" d="M223.638,69.4h-18.6a.6.6,0,1,1,0-1.2h18.6a.6.6,0,1,1,0,1.2" transform="translate(-79.295 -26.452)" fill="#fff"/>
        <path id="Path_30065" data-name="Path 30065" d="M223.638,73.5h-18.6a.6.6,0,1,1,0-1.2h18.6a.6.6,0,0,1,0,1.2" transform="translate(-79.295 -28.043)" fill="#fff"/>
        <path id="Path_30066" data-name="Path 30066" d="M223.638,90.652h-18.6a.6.6,0,1,1,0-1.2h18.6a.6.6,0,1,1,0,1.2" transform="translate(-79.295 -34.695)" fill="#fff"/>
        <path id="Path_30067" data-name="Path 30067" d="M223.638,94.756h-18.6a.6.6,0,1,1,0-1.2h18.6a.6.6,0,1,1,0,1.2" transform="translate(-79.295 -36.287)" fill="#fff"/>
        <path id="Path_30068" data-name="Path 30068" d="M223.638,98.86h-18.6a.6.6,0,1,1,0-1.2h18.6a.6.6,0,1,1,0,1.2" transform="translate(-79.295 -37.879)" fill="#fff"/>
        <path id="Path_30069" data-name="Path 30069" d="M248.748,251.265h26.515c.507-1.129,1.7-4.37,2.28-10.9l-4.161-1.092,4.308-.842a120.247,120.247,0,0,0-.213-16.323s-4.364.641-10.811,5.976l1.86,3.244-3.321-1.984a67.143,67.143,0,0,0-9.589,10.91c1.439,1.53,3.641,3.8,3.641,3.8l-5.7-.814c-1.582,2.4-3.193,5.059-4.814,8.023" transform="translate(-96.48 -86.148)" fill="#d8cdff"/>
        <path id="Path_30070" data-name="Path 30070" d="M268.46,253.4l2.228,3.481-1.068,2.236h.695l2.973-6.226,4.56-.378a.313.313,0,0,0-.051-.624l-4.2.346,4.5-9.432a.313.313,0,1,0-.565-.271l-2.112,4.425-1.583-2.995a.313.313,0,0,0-.554.293l1.8,3.406-4.085,8.554-2.018-3.154a.314.314,0,0,0-.528.338" transform="translate(-104.106 -94.001)" fill="#fff"/>
        <path id="Path_30071" data-name="Path 30071" d="M225.787,242.5H247.04a26.307,26.307,0,0,0,1.891-5.48L245,236.543l4.336-1.375a61.547,61.547,0,0,0,.808-15.506l-3.452.182,3.3-2.217a110.278,110.278,0,0,0-3.21-18.111,61.23,61.23,0,0,0-7.512,9.273l1.02,2.007-1.864-.739a85.012,85.012,0,0,0-7.747,14.931l2.329,2.581-3.061-.679a84.584,84.584,0,0,0-4.161,15.614" transform="translate(-87.574 -77.384)" fill="#c1aaff"/>
        <path id="Path_30072" data-name="Path 30072" d="M239.2,242.633l3.215,3.5-1.654,6.437h.648l3.3-12.832,4.707-.762a.313.313,0,1,0-.1-.619l-4.437.719,3.392-13.205a.313.313,0,0,0-.607-.156l-1.779,6.926-2.456-3.072a.313.313,0,1,0-.489.392l2.75,3.438-1.539,5.987v0l-1.546,6.021-2.939-3.2a.313.313,0,1,0-.462.424" transform="translate(-92.743 -87.456)" fill="#fff"/>
        <path id="Path_30073" data-name="Path 30073" d="M35.875,167.262H12.124L9.855,229.024h4.821L23.6,174.915,30,229.024h4.827Z" transform="translate(-3.822 -64.874)"/>
        <path id="Path_30074" data-name="Path 30074" d="M42.7,268.157h4.826s5.217.923,4.549,1.1-9.376,0-9.376,0a1.673,1.673,0,0,1,0-1.1" transform="translate(-16.522 -104.008)"/>
        <path id="Path_30075" data-name="Path 30075" d="M9.7,268.157H14.53s5.293.923,4.626,1.1-9.452,0-9.452,0a1.673,1.673,0,0,1,0-1.1" transform="translate(-3.725 -104.008)"/>
        <path id="Path_30076" data-name="Path 30076" d="M33.676,106.983l-6.627-.35-.771,37.113h7.382Z" transform="translate(-10.193 -41.359)" fill="#fff"/>
        <path id="Path_30077" data-name="Path 30077" d="M32.005,85.541h0a3.393,3.393,0,0,0-3.393,3.393v.24a1.437,1.437,0,1,0,0,2.874v2.435a3.393,3.393,0,1,0,6.786,0V88.934a3.393,3.393,0,0,0-3.393-3.393" transform="translate(-10.54 -33.178)" fill="#ff9945"/>
        <path id="Path_30078" data-name="Path 30078" d="M28.441,95.221l-.9,6.438,3.313,3.064,3.314-2.714V99.634l-3.513-5.822Z" transform="translate(-10.681 -36.386)" fill="#ff9945"/>
        <path id="Path_30079" data-name="Path 30079" d="M36.45,104.269a2.968,2.968,0,0,1-3.021-.518A3.038,3.038,0,0,0,36.45,105.3Z" transform="translate(-12.966 -40.241)" fill="#df792b"/>
        <path id="Path_30080" data-name="Path 30080" d="M26.535,89.081a1.506,1.506,0,0,1,1.359-.969.919.919,0,0,0,1.322.138c.755-.584.6-1.3,1.773-.973s4.1,1.722,5.04-.643-.644-3.814-1.362-3.829a11.219,11.219,0,0,0-2.914.938c-1.123.4-2.126-.366-3.069-.306a1.94,1.94,0,0,0-1.827,1.356c-.345.838-3.069.389-.322,4.289" transform="translate(-9.821 -32.117)" fill="#232323"/>
        <path id="Path_30081" data-name="Path 30081" d="M38.24,107.2l-.046,19.324v.4l-.151,19.353,9.368-.009.147-16.57.009-1.057L46.4,109.177Z" transform="translate(-14.756 -41.58)" fill="#321688"/>
        <path id="Path_30082" data-name="Path 30082" d="M12.406,109.426V146.06h9.383l-.065-19.1,0-.386-.051-19.942Z" transform="translate(-4.812 -41.358)" fill="#321688"/>
        <path id="Path_30083" data-name="Path 30083" d="M31.028,130.889,29.34,129.2a.642.642,0,0,1-.183-.532l1.922-15.707a.408.408,0,0,1,.807,0l1.922,15.707a.642.642,0,0,1-.183.532l-1.688,1.688a.642.642,0,0,1-.908,0" transform="translate(-11.307 -43.678)" fill="#10005c"/>
        <path id="Path_30084" data-name="Path 30084" d="M32.2,113.852l1.229-2.128a.105.105,0,0,0-.091-.158H30.884a.105.105,0,0,0-.091.158l1.229,2.128a.105.105,0,0,0,.182,0" transform="translate(-11.938 -43.272)" fill="#10005c"/>
        <path id="Path_30085" data-name="Path 30085" d="M30.856,109.653l-2.094,2.228-1.224-5.249Z" transform="translate(-10.681 -41.358)" fill="#321688"/>
        <path id="Path_30086" data-name="Path 30086" d="M32.958,109.875l2.094,2.228,1.214-4.9Z" transform="translate(-12.783 -41.581)" fill="#321688"/>
        <path id="Path_30087" data-name="Path 30087" d="M25.618,131.429l-2.75-.64a1.722,1.722,0,0,0-.632.056l-2.529,1.013,5.165,2.526Z" transform="translate(-7.644 -50.725)" fill="#ff9945"/>
        <g id="Group_18070" data-name="Group 18070" transform="translate(7.594 84.554)" opacity="0.1">
          <g id="Group_18069" data-name="Group 18069">
            <g id="Group_18068" data-name="Group 18068" clip-path="url(#clip-path-3)">
              <path id="Path_30088" data-name="Path 30088" d="M12.406,140.381V141.7l9.066-2.52,3.768-1.048-3.771.662Z" transform="translate(-12.406 -138.129)"/>
            </g>
          </g>
        </g>
        <path id="Path_30089" data-name="Path 30089" d="M9.353,111.2l-.745.268a1.447,1.447,0,0,0-.939,1L4.647,124.881a4.15,4.15,0,0,0,1.487,4.2l.028.023a5.328,5.328,0,0,0,4.46,1.039l13.608-2.9-.568-3.3-13.2.457Z" transform="translate(-1.758 -43.129)" fill="#321688"/>
        <path id="Path_30090" data-name="Path 30090" d="M35.821,131.645l2.76-.951a1.4,1.4,0,0,1,.66.023l3.08,1.146-5.989,2.752Z" transform="translate(-13.894 -50.68)" fill="#ff9945"/>
        <g id="Group_18073" data-name="Group 18073" transform="translate(17.228 83.659)" opacity="0.1">
          <g id="Group_18072" data-name="Group 18072">
            <g id="Group_18071" data-name="Group 18071" clip-path="url(#clip-path-4)">
              <path id="Path_30091" data-name="Path 30091" d="M28.144,136.667l5.9,1.689,9.679,2.774.009-1.057-9.689-2.117Z" transform="translate(-28.144 -136.667)"/>
            </g>
          </g>
        </g>
        <path id="Path_30092" data-name="Path 30092" d="M42.276,110.347l.654.152a1.513,1.513,0,0,1,1.132,1.142L47.925,125a4.089,4.089,0,0,1-1.939,4.173,5.205,5.205,0,0,1-3.923.662l-14.11-3.194.7-3.264,12.474.719Z" transform="translate(-10.842 -42.799)" fill="#321688"/>
        <path id="Path_30093" data-name="Path 30093" d="M37.423,101.38H34.954s1.326,2.1,2.469,0" transform="translate(-13.557 -39.321)" fill="#fff"/>
        <path id="Path_30094" data-name="Path 30094" d="M139.515,60.57a20.321,20.321,0,1,1-20.321-20.321A20.32,20.32,0,0,1,139.515,60.57" transform="translate(-38.349 -15.611)" fill="#fff"/>
        <path id="Path_30095" data-name="Path 30095" d="M136.264,94.981a20.322,20.322,0,0,1-28.9-1.364c3.365-2.106,11.113-3.163,11.113-3.163a6.308,6.308,0,0,0,5.784,4.093c6,.006,2.182-3.815,2.182-3.815l1.141.382.5.163,5.457,1.7a8.633,8.633,0,0,1,2.723,2.007" transform="translate(-41.644 -35.084)" fill="#321688"/>
        <path id="Path_30096" data-name="Path 30096" d="M134.976,60.267A2.73,2.73,0,0,1,132.247,63V60.748a3.231,3.231,0,0,0-3.209-3.209h-3.951a3.086,3.086,0,0,0-1.195.235,3.124,3.124,0,0,0-.944.594,3.211,3.211,0,0,0-1.053,2.047.219.219,0,0,0,0,.06,2.2,2.2,0,0,0-.017.273v3c-.245-.35-1.479-2-2.456-1.02,0,0-1.85,1.348-.333,2.669a3,3,0,0,1-1.337-5.228,3.274,3.274,0,0,1-.786-2.15,3.107,3.107,0,0,1,3-3.2,2.767,2.767,0,0,1,.971.174,3.818,3.818,0,0,1-.153-1.065,4.2,4.2,0,0,1,4.366-4.022,4.3,4.3,0,0,1,4.262,3.149,3.273,3.273,0,0,1,4.3,4.923,2.715,2.715,0,0,1,1.26,2.3" transform="translate(-45.261 -19.354)"/>
        <path id="Path_30097" data-name="Path 30097" d="M133.386,65.588v4.558a3.7,3.7,0,0,1-3.694,3.694h-3.467a3.217,3.217,0,0,1-3.2-3l-.011.638a7.205,7.205,0,0,1-2.789-1.25c-1.517-1.321.333-2.669.333-2.669.977-.977,2.21.672,2.456,1.021v-3a2.206,2.206,0,0,1,.017-.273.158.158,0,0,0,.027-.032.069.069,0,0,0-.027-.028,3.208,3.208,0,0,1,1.053-2.046,3.149,3.149,0,0,1,.945-.6,3.086,3.086,0,0,1,1.195-.234h3.951a3.229,3.229,0,0,1,3.209,3.209" transform="translate(-46.4 -24.194)" fill="#df792b"/>
        <path id="Path_30098" data-name="Path 30098" d="M134.124,99.5a20.449,20.449,0,0,1-11.733-.035l1.151-8.85a5.448,5.448,0,0,1,.864-.22c2.113.055,8.293.458,8.293.458l.6.2Z" transform="translate(-47.471 -35.06)" fill="#b996f9"/>
        <path id="Path_30099" data-name="Path 30099" d="M131.3,94.546a6.31,6.31,0,0,1-5.785-4.093l7.968.279s3.82,3.82-2.183,3.815" transform="translate(-48.684 -35.083)" fill="#df792b"/>
        <path id="Path_30100" data-name="Path 30100" d="M125.519,86.48l1.419-6.271,4.366.221,3.358,8.327" transform="translate(-48.684 -31.11)" fill="#df792b"/>
        <path id="Path_30101" data-name="Path 30101" d="M135.645,70.717c0,3.3-2.351,5.97-5.25,5.97s-5.25-2.673-5.25-5.97,2.351-5.97,5.25-5.97,5.25,2.673,5.25,5.97" transform="translate(-48.539 -25.113)" fill="#df792b"/>
        <path id="Path_30102" data-name="Path 30102" d="M121.181,91.648l-1.134,8.268a20.125,20.125,0,0,1-3.423-1.42Z" transform="translate(-45.234 -35.547)" fill="#5b2ec9"/>
        <path id="Path_30103" data-name="Path 30103" d="M144.418,98.913a20.216,20.216,0,0,1-3.075,1.229l-.774-7.955Z" transform="translate(-54.521 -35.756)" fill="#5b2ec9"/>
        <path id="Path_30104" data-name="Path 30104" d="M204.347,126.2a29.638,29.638,0,0,0-2.707-2.565c.185.391.744,1.473.744,1.473s-1.519.631-1.24,1.292,1.653,1.366,1.653,1.366Z" transform="translate(-78.002 -47.94)" fill="#f7cfa9"/>
        <path id="Path_30105" data-name="Path 30105" d="M226.362,117.252l5.682,1.639-.315,23.579h-15.84l-.079-13.57-1.772,2.757a3.149,3.149,0,0,1-2.621,1.6c-.915.024-1.8-1.1-2.417-1.82l-5.248-6.064,1.621-1.8,5.984,3.952,2.426-7.036a1.344,1.344,0,0,1,.885-.9l7.213-2.333Z" transform="translate(-79.028 -45.478)" fill="#ff595a"/>
        <path id="Path_30106" data-name="Path 30106" d="M238.707,158.449,240.52,202h-2.443l-7.368-37.162L224.172,202h-2.428l1.123-43.546Z" transform="translate(-86.006 -61.456)"/>
        <path id="Path_30107" data-name="Path 30107" d="M249.349,229.586h-2.443s-2.728.459-2.364.6h4.807a.985.985,0,0,0,0-.6" transform="translate(-94.835 -89.048)" fill="#10005c"/>
        <path id="Path_30108" data-name="Path 30108" d="M222.668,229.586h-2.443s-2.728.459-2.364.6h4.807a.985.985,0,0,0,0-.6" transform="translate(-84.487 -89.048)" fill="#10005c"/>
        <rect id="Rectangle_10579" data-name="Rectangle 10579" width="10.935" height="23.49" transform="matrix(0.585, -0.811, 0.811, 0.585, 99.917, 65.722)" fill="#10005c"/>
        <path id="Path_30109" data-name="Path 30109" d="M234.258,145.145l-.88,1.221a7.487,7.487,0,0,1-10.45,1.693l-32.4-23.365a7.487,7.487,0,0,1-1.693-10.45l.88-1.219a7.486,7.486,0,0,1,10.45-1.693l32.4,23.365a7.486,7.486,0,0,1,1.693,10.45" transform="translate(-72.694 -42.632)" fill="#5b2eca"/>
        <path id="Path_30110" data-name="Path 30110" d="M132.885,31.852a30.234,30.234,0,1,0,6.837,42.208,30.234,30.234,0,0,0-6.837-42.208m3.186,33.659a22.817,22.817,0,0,1-2.4,4.188q-.23.319-.468.626a22.8,22.8,0,0,1-35.718.384q-.192-.237-.377-.478a22.782,22.782,0,1,1,38.959-4.72" transform="translate(-32.954 -10.138)" fill="#10005c"/>
        <g id="Group_18076" data-name="Group 18076" transform="translate(144.702 86.14)" opacity="0.1">
          <g id="Group_18075" data-name="Group 18075">
            <g id="Group_18074" data-name="Group 18074" clip-path="url(#clip-path-5)">
              <path id="Path_30111" data-name="Path 30111" d="M236.388,141.55l6.793,1.966a10.668,10.668,0,0,0,2.383.4l2.4.132-2.49-1.8-7.939-1.536Z" transform="translate(-236.388 -140.719)"/>
            </g>
          </g>
        </g>
        <path id="Path_30112" data-name="Path 30112" d="M244.575,119.874l.958.279a.7.7,0,0,1,.471.493l2.344,8.458a4.191,4.191,0,0,1-1,4.027,3.6,3.6,0,0,1-2.925,1.1l-8.036-.765v-2.442l8-.632Z" transform="translate(-91.686 -46.495)" fill="#ff595a"/>
        <path id="Path_30113" data-name="Path 30113" d="M234.344,138.18s-1.786-.6-1.668-.379a1.5,1.5,0,0,0,.5.435l-1.592-.092a.46.46,0,0,0-.461.528,2.523,2.523,0,0,0,.552,1.369,1.1,1.1,0,0,0,.941.387l1.729-.157Z" transform="translate(-89.642 -53.428)" fill="#f7cfa9"/>
        <path id="Path_30114" data-name="Path 30114" d="M233.671,100.337h0a2.585,2.585,0,0,1,2.558,2.61v.35a1.1,1.1,0,0,1,0,2.2v1.467a2.584,2.584,0,0,1-2.558,2.61,2.509,2.509,0,0,1-2.467-2.61v-4.021a2.509,2.509,0,0,1,2.467-2.61" transform="translate(-89.675 -38.917)" fill="#ff9945"/>
        <path id="Path_30115" data-name="Path 30115" d="M237.338,106.506l.525,6.316a4.236,4.236,0,0,1-4.459,0l.127-1.373,3.176-5.619Z" transform="translate(-90.528 -41.047)" fill="#ff9945"/>
        <path id="Path_30116" data-name="Path 30116" d="M233.564,115.013a2.609,2.609,0,0,0,2.271-.1,2.32,2.32,0,0,1-2.337.81Z" transform="translate(-90.565 -44.569)" fill="#efaf7b"/>
        <path id="Path_30117" data-name="Path 30117" d="M232.439,112.308h2.411s-1.29,1.862-2.411,0" transform="translate(-90.154 -43.56)" fill="#fff"/>
        <path id="Path_30118" data-name="Path 30118" d="M236.3,102.675a1.15,1.15,0,0,0-.283-.158,1.2,1.2,0,0,0-.545-.094,1.162,1.162,0,0,1-1.172-.757c-.436-.957-1.471,1.1-2.319.623s-1.132.958-1.894.047a2.7,2.7,0,0,1,.18-3.291,3.444,3.444,0,0,1,3.044-.874c.788.288,1.289.911,1.94.809a1.305,1.305,0,0,1,1.44,1.608,16.4,16.4,0,0,1-.391,2.087" transform="translate(-89.056 -38.04)" fill="#232323"/>
        <path id="Path_30119" data-name="Path 30119" d="M239.661,248.243l-.242-1.282-1.344-7.113-.242-1.282-1.511-8h-22.09l-1.511,8-.242,1.282-1.344,7.113-.242,1.282-1.181,6.252h1.109L212,248.243h26.551l1.181,6.252h1.109Zm-24.587-16.266H235.48l1.244,6.589H213.83Zm-2.831,14.985,1.344-7.113h23.379l1.344,7.113Z" transform="translate(-81.339 -89.428)" fill="#5b2eca"/>
        <g id="Group_18079" data-name="Group 18079" transform="translate(59.464 24.67)" opacity="0.4">
          <g id="Group_18078" data-name="Group 18078">
            <g id="Group_18077" data-name="Group 18077" clip-path="url(#clip-path-6)">
              <path id="Path_30120" data-name="Path 30120" d="M138.438,48.586,98.1,68.419a22.812,22.812,0,0,1,.249-13.9L127.277,40.3a22.915,22.915,0,0,1,11.161,8.285" transform="translate(-97.142 -40.301)" fill="#fff"/>
            </g>
          </g>
        </g>
        <g id="Group_18082" data-name="Group 18082" transform="translate(64.535 40.966)" opacity="0.4">
          <g id="Group_18081" data-name="Group 18081">
            <g id="Group_18080" data-name="Group 18080" clip-path="url(#clip-path-7)">
              <path id="Path_30121" data-name="Path 30121" d="M144.008,81.33,117.627,94.3a22.879,22.879,0,0,1-12.2-7.774L145.3,66.923a22.762,22.762,0,0,1-1.29,14.407" transform="translate(-105.426 -66.923)" fill="#fff"/>
            </g>
          </g>
        </g>
      </g>
    </g>
  </g>
</svg>
