<svg id="Group_18033" data-name="Group 18033" xmlns="http://www.w3.org/2000/svg" xmlns:xlink="http://www.w3.org/1999/xlink" width="224.63" height="204.937" viewBox="0 0 224.63 204.937">
  <defs>
    <clipPath id="clip-path">
      <rect id="Rectangle_10506" data-name="Rectangle 10506" width="224.63" height="204.937" fill="none"/>
    </clipPath>
  </defs>
  <g id="Group_18032" data-name="Group 18032" clip-path="url(#clip-path)">
    <circle id="Ellipse_772" data-name="Ellipse 772" cx="1.852" cy="1.852" r="1.852" transform="translate(0.062 163.978)" fill="none" stroke="#00ff42" stroke-miterlimit="10" stroke-width="0.335"/>
    <path id="Path_29294" data-name="Path 29294" d="M79.446,49.707C57.957,71.17,44.424,65.024,34.52,79.731c-15.973,23.717-2.057,64.69,19.06,89.511,25.864,30.4,73.037,46.041,115.671,28.1,45.4-19.109,68.921-69.262,61.756-113.977-6.4-39.93-37.845-79.15-75.5-83.034-4.082-.421-26.147-2.274-45.151,10.952C94.644,22.214,96.481,32.693,79.446,49.707" transform="translate(-17.425 0)" fill="#d6cbf2"/>
    <path id="Path_29295" data-name="Path 29295" d="M59.116,213.519l4.674.341,86.69-.341a6.137,6.137,0,0,0,6.229-7.106l-22.5-177.724a8.32,8.32,0,0,0-8.028-7.106L39.406,20.569c-9.961,0-11.312,4.195-10.815,8.12l22.5,177.724a8.321,8.321,0,0,0,8.028,7.106" transform="translate(-17.994 -12.985)" fill="#10005c"/>
    <path id="Path_29296" data-name="Path 29296" d="M74.079,214.208h91.364a6.15,6.15,0,0,0,6.229-7.129l-22.5-178.29a8.33,8.33,0,0,0-8.028-7.128H49.783a6.15,6.15,0,0,0-6.229,7.128l22.5,178.29a8.33,8.33,0,0,0,8.028,7.129" transform="translate(-27.459 -13.675)" fill="#fff"/>
    <path id="Path_29297" data-name="Path 29297" d="M164.808,213.944H73.444a8.72,8.72,0,0,1-8.4-7.453L42.551,28.2a6.693,6.693,0,0,1,1.559-5.352,6.6,6.6,0,0,1,5.038-2.193h91.364a8.72,8.72,0,0,1,8.4,7.453L171.4,206.4a6.693,6.693,0,0,1-1.559,5.352,6.6,6.6,0,0,1-5.038,2.193M49.148,21.4a5.864,5.864,0,0,0-4.482,1.943,5.961,5.961,0,0,0-1.38,4.77l22.5,178.29a7.959,7.959,0,0,0,7.661,6.8h91.364a5.865,5.865,0,0,0,4.482-1.942,5.962,5.962,0,0,0,1.38-4.77L148.173,28.2a7.959,7.959,0,0,0-7.661-6.8Z" transform="translate(-26.824 -13.04)" fill="#10005c"/>
    <path id="Path_29298" data-name="Path 29298" d="M177.3,230.922,155.822,60.686a1.923,1.923,0,0,0-1.853-1.646H62.113a1.42,1.42,0,0,0-1.438,1.646L82.155,230.922a1.923,1.923,0,0,0,1.853,1.646h91.856a1.42,1.42,0,0,0,1.438-1.646" transform="translate(-38.295 -37.272)" fill="#ad97e4"/>
    <path id="Path_29299" data-name="Path 29299" d="M182.365,37.109a2.3,2.3,0,0,0,2.334-2.671,3.12,3.12,0,0,0-3.007-2.67,2.3,2.3,0,0,0-2.334,2.67,3.121,3.121,0,0,0,3.007,2.671" transform="translate(-113.215 -20.055)" fill="#ad97e4"/>
    <path id="Path_29300" data-name="Path 29300" d="M99.046,139.8c2.617,22.42,22.913,40.6,45.333,40.6s38.474-18.175,35.857-40.6S157.323,99.2,134.9,99.2s-38.474,18.175-35.857,40.6" transform="translate(-62.351 -62.625)" fill="#fff"/>
    <path id="Path_29301" data-name="Path 29301" d="M190.315,187.81l3.124,26.765a2.715,2.715,0,0,1-2.75,3.113H150.764a3.594,3.594,0,0,1-3.476-3.113l-3.124-26.765Z" transform="translate(-91.011 -118.564)" fill="#fff"/>
    <path id="Path_29302" data-name="Path 29302" d="M190.056,217.423H150.13a3.978,3.978,0,0,1-3.844-3.44l-3.124-26.765a.37.37,0,0,1,.368-.413h46.151a.37.37,0,0,1,.368.327l3.124,26.765a3.149,3.149,0,0,1-.753,2.5,3.111,3.111,0,0,1-2.365,1.029m-46.109-29.878,3.075,26.351a3.219,3.219,0,0,0,3.109,2.786h39.925a2.383,2.383,0,0,0,1.812-.78,2.42,2.42,0,0,0,.57-1.919l-3.086-26.437Z" transform="translate(-90.377 -117.93)" fill="#10005c"/>
    <path id="Path_29303" data-name="Path 29303" d="M163.432,220.028h34.716l-1.906-16.33H161.526Z" transform="translate(-101.971 -128.595)" fill="#5b2eca"/>
    <path id="Path_29304" data-name="Path 29304" d="M131.216,159.861h7.908l4.175-14.012h-5.81Z" transform="translate(-82.836 -92.074)" fill="#5b2eca"/>
    <path id="Path_29305" data-name="Path 29305" d="M139.254,184.965l.177,1.518c.2,1.747-1.4,3.163-3.585,3.163s-4.119-1.416-4.323-3.163l-.177-1.518Z" transform="translate(-82.919 -116.768)" fill="#5b2eca"/>
    <path id="Path_29306" data-name="Path 29306" d="M152.665,159.861h7.908l2.077-14.012h-5.81Z" transform="translate(-96.377 -92.074)" fill="#8462d7"/>
    <path id="Path_29307" data-name="Path 29307" d="M160.7,184.965l.177,1.518c.2,1.747-1.4,3.163-3.585,3.163s-4.119-1.416-4.323-3.163l-.177-1.518Z" transform="translate(-96.46 -116.768)" fill="#8462d7"/>
    <path id="Path_29308" data-name="Path 29308" d="M174.115,159.861h7.908L182,145.848h-5.81Z" transform="translate(-109.918 -92.074)" fill="#5b2eca"/>
    <path id="Path_29309" data-name="Path 29309" d="M182.153,184.965l.177,1.518c.2,1.747-1.4,3.163-3.585,3.163s-4.119-1.416-4.323-3.163l-.177-1.518Z" transform="translate(-110.001 -116.768)" fill="#5b2eca"/>
    <path id="Path_29310" data-name="Path 29310" d="M195.527,159.861h7.908l-2.119-14.012h-5.81Z" transform="translate(-123.423 -92.074)" fill="#8462d7"/>
    <path id="Path_29311" data-name="Path 29311" d="M203.6,184.965l.177,1.518c.2,1.747-1.4,3.163-3.585,3.163s-4.119-1.416-4.323-3.163l-.177-1.518Z" transform="translate(-123.541 -116.768)" fill="#8462d7"/>
    <path id="Path_29312" data-name="Path 29312" d="M213.384,159.861h7.908l-4.218-14.012h-5.81Z" transform="translate(-133.371 -92.074)" fill="#5b2eca"/>
    <path id="Path_29313" data-name="Path 29313" d="M225.052,184.965l.177,1.518c.2,1.747-1.4,3.163-3.585,3.163s-4.12-1.416-4.323-3.163l-.177-1.518Z" transform="translate(-137.083 -116.768)" fill="#5b2eca"/>
    <path id="Path_29314" data-name="Path 29314" d="M231.241,159.861h7.908l-6.316-14.012h-5.81Z" transform="translate(-143.32 -92.074)" fill="#8462d7"/>
    <path id="Path_29315" data-name="Path 29315" d="M246.5,184.965l.177,1.518c.2,1.747-1.4,3.163-3.585,3.163s-4.12-1.416-4.323-3.163l-.177-1.518Z" transform="translate(-150.624 -116.768)" fill="#8462d7"/>
    <path id="Path_29316" data-name="Path 29316" d="M249.1,159.861h7.908l-8.414-14.012h-5.81Z" transform="translate(-153.268 -92.074)" fill="#5b2eca"/>
    <path id="Path_29317" data-name="Path 29317" d="M267.95,184.965l.177,1.518c.2,1.747-1.4,3.163-3.585,3.163s-4.12-1.416-4.323-3.163l-.177-1.518Z" transform="translate(-164.164 -116.768)" fill="#5b2eca"/>
    <path id="Path_29318" data-name="Path 29318" d="M185.94,183.589H130.582a.37.37,0,1,1,0-.741H185.94a.37.37,0,0,1,0,.741" transform="translate(-82.202 -115.432)" fill="#fff"/>
    <path id="Path_29319" data-name="Path 29319" d="M474.272,82.235a.369.369,0,0,1-.317-.178,67.059,67.059,0,0,0-20.669-21.445.37.37,0,0,1,.374-.64,67.845,67.845,0,0,1,20.929,21.7.37.37,0,0,1-.316.562" transform="translate(-286.043 -37.829)" fill="#10005c"/>
    <path id="Path_29320" data-name="Path 29320" d="M455.1,59.483a.37.37,0,0,1-.3-.158c-.092-.132-9.419-13.277-24.61-18.087a.371.371,0,0,1,.224-.706c15.436,4.889,24.9,18.235,24.993,18.369a.371.371,0,0,1-.3.583" transform="translate(-271.412 -25.576)" fill="#10005c"/>
    <path id="Path_29321" data-name="Path 29321" d="M48.089,352.659a.37.37,0,0,1-.014-.74l1.322-.05a.37.37,0,1,1,.028.74l-1.322.05h-.014" transform="translate(-30.125 -222.134)" fill="#10005c"/>
    <path id="Path_29322" data-name="Path 29322" d="M56.441,352.343a.37.37,0,0,1-.014-.74l1.322-.05a.37.37,0,1,1,.028.74l-1.322.05h-.014" transform="translate(-35.398 -221.934)" fill="#10005c"/>
    <path id="Path_29323" data-name="Path 29323" d="M53.881,347.872a.37.37,0,0,1-.37-.356l-.05-1.322a.37.37,0,1,1,.74-.028l.05,1.322a.37.37,0,0,1-.356.384h-.014" transform="translate(-33.75 -218.309)" fill="#10005c"/>
    <path id="Path_29324" data-name="Path 29324" d="M54.2,356.224a.37.37,0,0,1-.37-.357l-.05-1.322a.37.37,0,0,1,.74-.028l.05,1.322a.37.37,0,0,1-.356.384H54.2" transform="translate(-33.95 -223.582)" fill="#10005c"/>
    <path id="Path_29325" data-name="Path 29325" d="M512.5,419.774a.372.372,0,0,1-.228-.079l-1.3-1.019a.37.37,0,1,1,.457-.583l1.3,1.019a.37.37,0,0,1-.229.662" transform="translate(-322.489 -263.892)" fill="#10005c"/>
    <path id="Path_29326" data-name="Path 29326" d="M520.722,426.214a.369.369,0,0,1-.228-.079l-1.3-1.019a.37.37,0,1,1,.456-.583l1.3,1.019a.37.37,0,0,1-.229.662" transform="translate(-327.677 -267.957)" fill="#10005c"/>
    <path id="Path_29327" data-name="Path 29327" d="M518.913,418.785a.37.37,0,0,1-.291-.6l1.019-1.3a.37.37,0,1,1,.583.457l-1.019,1.3a.369.369,0,0,1-.292.142" transform="translate(-327.356 -263.09)" fill="#10005c"/>
    <path id="Path_29328" data-name="Path 29328" d="M512.474,427a.37.37,0,0,1-.291-.6l1.019-1.3a.37.37,0,0,1,.583.457l-1.019,1.3a.369.369,0,0,1-.292.142" transform="translate(-323.291 -268.278)" fill="#10005c"/>
    <path id="Path_29329" data-name="Path 29329" d="M393.16,33.461a.37.37,0,0,1-.049-.737l1.671-.225a.37.37,0,0,1,.1.734l-1.671.225a.38.38,0,0,1-.05,0" transform="translate(-247.968 -20.514)" fill="#10005c"/>
    <path id="Path_29330" data-name="Path 29330" d="M409.021,31.324a.37.37,0,0,1-.049-.737l1.671-.225a.37.37,0,0,1,.1.734l-1.671.225a.38.38,0,0,1-.05,0" transform="translate(-257.981 -19.165)" fill="#10005c"/>
    <path id="Path_29331" data-name="Path 29331" d="M402.1,24.091a.37.37,0,0,1-.366-.316l-.246-1.643a.37.37,0,0,1,.733-.11l.246,1.643a.371.371,0,0,1-.312.421.407.407,0,0,1-.055,0" transform="translate(-253.456 -13.704)" fill="#10005c"/>
    <path id="Path_29332" data-name="Path 29332" d="M404.436,39.685a.371.371,0,0,1-.366-.316l-.246-1.643a.37.37,0,0,1,.733-.11l.246,1.643a.37.37,0,0,1-.312.421.4.4,0,0,1-.055,0" transform="translate(-254.931 -23.548)" fill="#10005c"/>
    <path id="Path_29333" data-name="Path 29333" d="M34.579,296.335a2.3,2.3,0,0,1-1.845-.927,2.222,2.222,0,0,1-.418-1.678,2.172,2.172,0,0,1,.886-1.439,2.281,2.281,0,0,1,3.145.511,2.222,2.222,0,0,1,.418,1.678,2.172,2.172,0,0,1-.886,1.439,2.223,2.223,0,0,1-1.3.416m-.075-3.721a1.487,1.487,0,0,0-.87.278,1.436,1.436,0,0,0-.586.952,1.487,1.487,0,0,0,.281,1.123,1.537,1.537,0,0,0,2.118.35,1.435,1.435,0,0,0,.586-.952,1.488,1.488,0,0,0-.281-1.123,1.555,1.555,0,0,0-1.248-.628" transform="translate(-20.384 -184.26)" fill="#10005c"/>
    <path id="Path_29334" data-name="Path 29334" d="M444.2,105.14c5.137,5.306,5.327,3.6,13.772,10.18,7.57,5.9,7.908,9.349,12.875,10.18,3.443.576,6.289-.577,11.268-2.595,5.731-2.322,9.4-3.81,10.136-6.787,1.189-4.828-6.614-8.435-5.305-12.784,1.106-3.676,7.051-2.335,9.95-6.877,3.163-4.957.792-13.932-4.191-17.365-2.948-2.031-4.427-.48-8.8-2.916-5.045-2.808-4.761-5.805-8.39-6.837-4.773-1.357-6.749,3.405-11.377,2.459-6.19-1.265-5.966-10.462-12.445-11.543a21.427,21.427,0,0,0-9.591.97c-2.455.762-3.965,1.254-4.784,2.7-1.022,1.8.068,3.239-.925,6.414a20.3,20.3,0,0,1-1.67,3.366c-1.445,3.07-1.222,6.006-1.026,8.575.99,13.033,10.508,22.863,10.508,22.863" transform="translate(-273.702 -37.91)" fill="#10005c"/>
    <path id="Path_29335" data-name="Path 29335" d="M405.753,408.728s-45.375,6.536-49.327-2.53c0,0,1.643-6.793,11.819-7.63s37.508,10.16,37.508,10.16" transform="translate(-225.011 -251.587)" fill="#10005c"/>
    <path id="Path_29336" data-name="Path 29336" d="M391.429,358.2s3.88,23.82,24.592,48.42a30.346,30.346,0,0,1,4.709,7.729l.711,1.682s4.867-.841,5.645-3.236-18.865-38.644-18.865-38.644Z" transform="translate(-247.109 -226.133)" fill="#fff"/>
    <path id="Path_29337" data-name="Path 29337" d="M420.66,415.707a.457.457,0,0,1-.42-.279l-.712-1.682a29.834,29.834,0,0,0-4.638-7.613c-20.555-24.414-24.654-48.4-24.693-48.641a.457.457,0,0,1,.765-.4l16.793,15.951a.45.45,0,0,1,.087.114c.049.09,4.968,9.173,9.729,18.432,9.713,18.892,9.332,20.068,9.169,20.57-.853,2.628-5.792,3.509-6,3.545a.459.459,0,0,1-.078.007m-29.279-56.961c1.2,5.448,6.657,25.954,24.208,46.8a30.766,30.766,0,0,1,4.781,7.845l.567,1.341c1.468-.315,4.413-1.254,4.934-2.859.371-1.882-11.318-24.415-18.8-38.221Z" transform="translate(-246.327 -225.35)" fill="#10005c"/>
    <path id="Path_29338" data-name="Path 29338" d="M464.244,497.393l-1.1-3.2c-4.9-1.707-4.2,1.987-4.112,3.913s-3.063,9.486-4.805,10.968-.778,3.814-.778,3.814,5.915,2.174,10.316-.953,7.651-16.214,7.651-16.214c-2.42-4.171-7.4-5.245-7.4-5.245a6.375,6.375,0,0,1,.229,6.915" transform="translate(-286.095 -309.638)" fill="#5479f7"/>
    <path id="Path_29339" data-name="Path 29339" d="M457.2,513.309a14.843,14.843,0,0,1-4.7-.772.457.457,0,0,1-.264-.254,3.9,3.9,0,0,1,.9-4.336c1.642-1.4,4.724-8.79,4.645-10.6-.007-.165-.019-.344-.031-.531-.084-1.262-.2-2.992.909-3.836.809-.617,2.066-.616,3.841,0a.457.457,0,0,1,.282.283l.734,2.141a5.843,5.843,0,0,0-.661-5.432.457.457,0,0,1,.458-.725c.212.045,5.209,1.167,7.7,5.463a.458.458,0,0,1,.048.339c-.135.541-3.342,13.288-7.829,16.476a10.3,10.3,0,0,1-6.041,1.782m-4.181-1.564c1.049.33,5.988,1.671,9.694-.963,3.938-2.8,7.016-14.195,7.426-15.771a11.55,11.55,0,0,0-5.959-4.55,6.814,6.814,0,0,1-.329,6.376.45.45,0,0,1-.439.227.457.457,0,0,1-.389-.307L462,493.774c-1.332-.436-2.266-.459-2.779-.069-.718.547-.625,1.935-.552,3.049.013.194.025.379.033.551.09,2.049-3.1,9.749-4.966,11.336a2.912,2.912,0,0,0-.716,3.1" transform="translate(-285.306 -308.856)" fill="#10005c"/>
    <path id="Path_29340" data-name="Path 29340" d="M466.393,510.389A31.066,31.066,0,0,0,469.61,498.6a9.786,9.786,0,0,1,1.811,2.251s-3.25,13.087-7.651,16.214-10.316.953-10.316.953a4.236,4.236,0,0,1-.239-1.893c8.288,1.79,9.884.289,13.178-5.737" transform="translate(-286.099 -314.766)" fill="#10005c"/>
    <path id="Path_29341" data-name="Path 29341" d="M453.257,511a2.888,2.888,0,0,1,1.018-1.922c1.742-1.483,4.89-9.042,4.805-10.968s-.789-5.62,4.112-3.913l1.1,3.2a6.375,6.375,0,0,0-.229-6.915,13.27,13.27,0,0,1,5.592,2.995,31.076,31.076,0,0,1-3.217,11.788c-3.294,6.026-4.89,7.526-13.178,5.737" transform="translate(-286.141 -309.638)" fill="#5b2eca"/>
    <path id="Path_29342" data-name="Path 29342" d="M457.665,511.36a25.75,25.75,0,0,1-5.287-.7.457.457,0,0,1-.357-.5,3.328,3.328,0,0,1,1.176-2.216c1.642-1.4,4.724-8.79,4.645-10.6-.007-.165-.019-.344-.032-.53-.084-1.263-.2-2.992.909-3.837.81-.617,2.066-.616,3.842,0a.456.456,0,0,1,.282.283l.734,2.141a5.843,5.843,0,0,0-.661-5.432.457.457,0,0,1,.459-.725,13.616,13.616,0,0,1,5.806,3.107.456.456,0,0,1,.144.373,31.221,31.221,0,0,1-3.271,11.968c-2.473,4.524-4.1,6.662-8.388,6.662m-4.659-1.5c7.891,1.638,9.172.022,12.246-5.6a30.72,30.72,0,0,0,3.143-11.384,12.8,12.8,0,0,0-4.165-2.416,6.814,6.814,0,0,1-.328,6.379.45.45,0,0,1-.44.227.457.457,0,0,1-.388-.306l-1.024-2.985c-1.332-.436-2.266-.459-2.779-.069-.718.547-.626,1.935-.551,3.049.013.194.025.379.033.551.09,2.049-3.1,9.749-4.966,11.336a2.413,2.413,0,0,0-.782,1.22" transform="translate(-285.358 -308.856)" fill="#10005c"/>
    <path id="Path_29343" data-name="Path 29343" d="M476.576,518.923a.448.448,0,0,1-.136-.021.456.456,0,0,1-.3-.571,66.41,66.41,0,0,0,1.894-8.061.457.457,0,1,1,.9.143,67.388,67.388,0,0,1-1.924,8.189.457.457,0,0,1-.436.321" transform="translate(-300.574 -321.89)" fill="#10005c"/>
    <path id="Path_29344" data-name="Path 29344" d="M432.229,437.032c.345-.152-.4-4.5.243-6.338s8.089-18.543,8.584-35.98-14.633-14.18-14.633-14.18,4.292,40.64-4.681,54.452c0,0,3,5.351,10.487,2.046" transform="translate(-266.245 -240.078)" fill="#fff"/>
    <path id="Path_29345" data-name="Path 29345" d="M426.9,437.764a7.436,7.436,0,0,1-6.339-3.351.456.456,0,0,1,.015-.472c8.782-13.518,4.652-53.751,4.609-54.156a.457.457,0,0,1,.358-.494c.262-.056,6.455-1.337,10.907,2.363,3,2.493,4.44,6.624,4.279,12.276-.295,10.4-3.052,22.192-8.2,35.064-.2.5-.347.868-.412,1.054a14.2,14.2,0,0,0-.173,4.337c.086,1.6.112,2.079-.317,2.269a11.721,11.721,0,0,1-4.73,1.11m-5.4-3.574c.648.938,3.495,4.3,9.58,1.707.018-.29-.016-.931-.045-1.463a14.608,14.608,0,0,1,.222-4.687c.072-.205.213-.558.427-1.092,5.1-12.771,7.84-24.463,8.132-34.751.152-5.357-1.177-9.243-3.95-11.548-3.494-2.9-8.319-2.451-9.729-2.242.456,4.583,3.732,40.682-4.637,54.075m9.945,2.046h0Z" transform="translate(-265.463 -239.283)" fill="#10005c"/>
    <path id="Path_29346" data-name="Path 29346" d="M386.737,529.547a5.493,5.493,0,0,1,1.433-2.056c2.137-1.959,12.658-8.6,12.658-8.6s5.259.763,2.726,4.306c0,0,5.456-1.166,6.78-.821.972.253.885,5.215.77,7.833a1.661,1.661,0,0,1-1.662,1.588H388.292a1.659,1.659,0,0,1-1.555-2.252" transform="translate(-244.075 -327.577)" fill="#5b2eca"/>
    <path id="Path_29347" data-name="Path 29347" d="M408.663,531.474H387.514a2.127,2.127,0,0,1-1.758-.929,2.1,2.1,0,0,1-.223-1.946,5.957,5.957,0,0,1,1.549-2.226c2.142-1.964,12.291-8.376,12.722-8.648a.455.455,0,0,1,.309-.066c.118.017,2.909.441,3.635,2.145a2.421,2.421,0,0,1-.077,1.965c1.687-.328,4.926-.893,6-.615.473.123,1.458.38,1.112,8.3a2.115,2.115,0,0,1-2.118,2.025m-22.28-2.542a1.167,1.167,0,0,0,.127,1.1,1.2,1.2,0,0,0,1,.531h21.149a1.2,1.2,0,0,0,1.206-1.151c.232-5.289-.171-7.117-.453-7.377-.927-.214-4.495.394-6.546.832a.457.457,0,0,1-.467-.712,2.084,2.084,0,0,0,.506-1.99c-.406-.952-2-1.43-2.763-1.572-1.279.811-10.5,6.672-12.446,8.456a5.056,5.056,0,0,0-1.316,1.886" transform="translate(-243.296 -326.794)" fill="#10005c"/>
    <path id="Path_29348" data-name="Path 29348" d="M411.108,549.517v.027a1.661,1.661,0,0,1-1.662,1.588H388.3a1.669,1.669,0,0,1-1.667-1.615Z" transform="translate(-244.078 -346.91)" fill="#10005c"/>
    <path id="Path_29349" data-name="Path 29349" d="M401.768,534.778a.457.457,0,0,1-.186-.874l10.177-4.53a.457.457,0,0,1,.372.834l-10.177,4.531a.458.458,0,0,1-.185.039" transform="translate(-253.347 -334.168)" fill="#10005c"/>
    <path id="Path_29350" data-name="Path 29350" d="M399.148,212.273A610.8,610.8,0,0,1,413.3,294.027s-11.526,4.391-32.793-5.539-24.082-.835-24.082-.835l19.383-76.91Z" transform="translate(-225.011 -133.042)" fill="#fff"/>
    <path id="Path_29351" data-name="Path 29351" d="M405.068,294.694c-5.578,0-14.154-1.261-25.535-6.575-11.721-5.473-17.675-5.076-20.6-3.778a5,5,0,0,0-2.849,2.665.457.457,0,0,1-.879-.247l19.382-76.91a.457.457,0,0,1,.473-.344l23.34,1.53a.457.457,0,0,1,.413.341A616.809,616.809,0,0,1,412.972,293.2a.456.456,0,0,1-.292.473,22.956,22.956,0,0,1-7.613,1.023m-41.677-12.076c3.643,0,8.927,1.124,16.528,4.674,18.859,8.806,30.087,6.224,32.108,5.631a618.214,618.214,0,0,0-14.022-81l-22.629-1.484L356.66,284.706a7.284,7.284,0,0,1,1.9-1.2,11.842,11.842,0,0,1,4.832-.888" transform="translate(-224.229 -132.26)" fill="#10005c"/>
    <path id="Path_29352" data-name="Path 29352" d="M395.222,125.771s-8.427-.179-14.522,4.934-15.8,15.5-17.431,24.106,9.851,7.206,15.411,1.692,16.543-30.733,16.543-30.733" transform="translate(-229.232 -79.398)" fill="#5b2eca"/>
    <path id="Path_29353" data-name="Path 29353" d="M432.845,130.757a36.462,36.462,0,0,0-25.249-3.284L395.613,154.12a3.48,3.48,0,0,0,1.538,4.506c4.069,2.151,12.868,5.108,27.8,2.282a5.692,5.692,0,0,0,4.582-4.851Z" transform="translate(-249.556 -79.867)" fill="#5b2eca"/>
    <path id="Path_29354" data-name="Path 29354" d="M367.118,161.307s-4.389,14.166-3.979,16.9,1.067,6.067,4.722,3.785S370.2,165.11,370.2,165.11Z" transform="translate(-229.232 -101.833)" fill="#fff"/>
    <path id="Path_29355" data-name="Path 29355" d="M364.981,182.432a2.205,2.205,0,0,1-.935-.2c-1.415-.653-1.832-2.7-2.137-4.736-.42-2.807,3.814-16.523,3.995-17.105a.456.456,0,0,1,.791-.152l3.078,3.8a.461.461,0,0,1,.1.246c.137,1.523,1.234,14.95-2.549,17.313a4.578,4.578,0,0,1-2.343.832m1.544-20.952c-1.337,4.4-4.016,13.857-3.713,15.88.257,1.713.614,3.58,1.616,4.042.568.263,1.38.069,2.412-.576,2.771-1.73,2.489-12.231,2.135-16.318Z" transform="translate(-228.455 -101.051)" fill="#10005c"/>
    <path id="Path_29356" data-name="Path 29356" d="M370.5,155.47l.824-.317-6.057-17.362-6.234-1.136-.824.317Z" transform="translate(-226.135 -86.27)" fill="#fff"/>
    <path id="Path_29357" data-name="Path 29357" d="M364.262,154.875l6.234,1.137-6.057-17.361-6.234-1.137Z" transform="translate(-226.135 -86.812)" fill="#10005c"/>
    <path id="Path_29358" data-name="Path 29358" d="M405.137,168.022a.456.456,0,0,1-.425-.623l6.359-16.315a.457.457,0,1,1,.851.332l-6.358,16.316a.457.457,0,0,1-.426.291" transform="translate(-255.474 -95.196)" fill="#10005c"/>
    <path id="Path_29359" data-name="Path 29359" d="M433.612,164.534a17.17,17.17,0,0,0,6.046-.293c11.009-2.6,7.664-20.268,7.664-20.268l7.492-5.947c14.716,16.229,5,36.033-10.539,38.429a23.323,23.323,0,0,1-14.171-2.268c4.385-3.276,4.211-7.224,3.509-9.653" transform="translate(-271.524 -87.136)" fill="#5b2eca"/>
    <path id="Path_29360" data-name="Path 29360" d="M377.1,165.518l.983-2.919,4.267,6.679-1.019-3.084a6.276,6.276,0,0,1,2.023,1.885,18.994,18.994,0,0,1,1.494,4.8c1.882,1.56,8.111,6.3,15.306,7.17.7,2.429,1.274,6.068-3.111,9.344-9.5-4.714-15.19-14.012-15.19-14.012-4.192-3.053-4.752-9.862-4.752-9.862" transform="translate(-238.06 -102.649)" fill="#fff"/>
    <path id="Path_29361" data-name="Path 29361" d="M396.256,189.066a.459.459,0,0,1-.2-.047c-9.047-4.488-14.745-13.188-15.327-14.1-4.246-3.162-4.844-9.856-4.867-10.14a.461.461,0,0,1,.022-.183l.983-2.919a.457.457,0,0,1,.818-.1l2.411,3.773a.457.457,0,0,1,.667-.336,6.711,6.711,0,0,1,2.188,2.035,17.914,17.914,0,0,1,1.532,4.8c1.9,1.551,7.994,6.122,14.944,6.965a.456.456,0,0,1,.384.326c.753,2.609,1.233,6.467-3.277,9.837a.456.456,0,0,1-.273.091m-19.478-24.277c.086.8.841,6.734,4.557,9.44a.453.453,0,0,1,.121.131c.056.091,5.632,9.077,14.751,13.714,3.632-2.839,3.463-5.938,2.8-8.394-7.23-.988-13.478-5.773-15.239-7.233a.456.456,0,0,1-.157-.267,17.552,17.552,0,0,0-1.426-4.631,5.4,5.4,0,0,0-.75-.892l.56,1.695a.457.457,0,0,1-.818.389l-3.754-5.875Z" transform="translate(-237.278 -101.867)" fill="#10005c"/>
    <path id="Path_29362" data-name="Path 29362" d="M450.44,310.731l7.362,2.575-.743-20.22-4.712-21.237-2.144,2.566Z" transform="translate(-284.213 -171.619)" fill="#5b2eca"/>
    <path id="Path_29363" data-name="Path 29363" d="M500.091,294.16l-20.453-39.117-23.621,6.2,5.455,41.456Z" transform="translate(-287.883 -161.009)" fill="#8462d7"/>
    <path id="Path_29364" data-name="Path 29364" d="M464.031,254.527a.457.457,0,0,1-.447-.363l-2.474-11.84a.457.457,0,0,1,.894-.187l2.474,11.84a.457.457,0,0,1-.354.541.481.481,0,0,1-.094.01" transform="translate(-291.093 -152.631)" fill="#10005c"/>
    <path id="Path_29365" data-name="Path 29365" d="M475.932,223.855a.457.457,0,0,1-.425-.289c-.473-1.086-12.586-21.928-15.589-22.258a2.175,2.175,0,0,0-1.933.439,1.877,1.877,0,0,0-.252,1.5.457.457,0,0,1-.884.23,2.778,2.778,0,0,1,.442-2.32,2.983,2.983,0,0,1,2.727-.753c3.878.426,16.257,22.617,16.34,22.836a.457.457,0,0,1-.427.619" transform="translate(-288.355 -126.489)" fill="#10005c"/>
    <path id="Path_29366" data-name="Path 29366" d="M441.3,192.235a16.32,16.32,0,0,1-2.531-.2.457.457,0,1,1,.141-.9c11.484,1.8,18.117-9.905,18.183-10.023a.457.457,0,0,1,.8.442c-.063.115-6.042,10.683-16.592,10.683" transform="translate(-276.75 -114.186)" fill="#10005c"/>
    <path id="Path_29367" data-name="Path 29367" d="M501.774,297.185l9.255.954-6.646-12.68-11-15.233-.556,1.923Z" transform="translate(-311.122 -170.593)" fill="#5b2eca"/>
    <path id="Path_29368" data-name="Path 29368" d="M510.248,297.814l-.046,0-9.255-.954a.457.457,0,0,1-.383-.3l-8.945-25.036a.457.457,0,0,1-.009-.281l.556-1.923a.457.457,0,0,1,.809-.14l11,15.233a.422.422,0,0,1,.034.055l6.646,12.68a.456.456,0,0,1-.4.668m-8.922-1.835,8.123.837-6.236-11.9-10.431-14.447-.255.881Z" transform="translate(-310.341 -169.812)" fill="#10005c"/>
    <path id="Path_29369" data-name="Path 29369" d="M509.121,235.347l-14.783,12.86,17.644,27.913,21.268-22.665s-16.947-9.706-24.13-18.108" transform="translate(-312.075 -148.574)" fill="#8462d7"/>
    <path id="Path_29370" data-name="Path 29370" d="M511.2,275.795l-.044,0a.457.457,0,0,1-.343-.211L493.17,247.669a.457.457,0,0,1,.086-.588l14.783-12.86a.457.457,0,0,1,.647.048c7.048,8.245,23.841,17.912,24.009,18.008a.457.457,0,0,1,.106.709l-21.268,22.665a.456.456,0,0,1-.333.144m-17.049-28.282,17.12,27.083,20.472-21.817c-2.819-1.658-16.854-10.1-23.449-17.569Z" transform="translate(-311.293 -147.793)" fill="#10005c"/>
    <path id="Path_29371" data-name="Path 29371" d="M489.513,251.014a.457.457,0,0,1-.368-.186l-9.063-12.3a.457.457,0,0,1,.736-.542l9.063,12.3a.457.457,0,0,1-.1.638.452.452,0,0,1-.27.089" transform="translate(-303.018 -150.123)" fill="#10005c"/>
    <path id="Path_29372" data-name="Path 29372" d="M486.519,217.072a.453.453,0,0,1-.3-.109c-5.668-4.831-20.739-17.542-22.388-18.33a.771.771,0,0,0-.769-.04c-.681.378-1,1.922-1.054,2.433a.457.457,0,0,1-.908-.1c.027-.249.3-2.455,1.517-3.131a1.679,1.679,0,0,1,1.608.014c2.094,1,21.751,17.747,22.587,18.459a.457.457,0,0,1-.3.8" transform="translate(-291.092 -124.744)" fill="#10005c"/>
    <path id="Path_29373" data-name="Path 29373" d="M450.807,106.3l-.221,5.578-4.683.936s2.819,5.741,15.274,2.522l-4.438-2.93-1.147-7.662Z" transform="translate(-281.498 -66.124)" fill="#fff"/>
    <path id="Path_29374" data-name="Path 29374" d="M453.494,116c-6.836,0-8.687-3.57-8.782-3.763a.457.457,0,0,1,.321-.649l4.33-.865.207-5.219a.457.457,0,0,1,.315-.416l4.786-1.557a.457.457,0,0,1,.593.366l1.117,7.461,4.268,2.818a.457.457,0,0,1-.138.823,28.2,28.2,0,0,1-7.015,1m-7.595-3.655c1.038,1.218,4.51,4.041,13.371,2.016L455.706,112a.456.456,0,0,1-.2-.313l-1.067-7.128-3.971,1.292-.208,5.26a.457.457,0,0,1-.367.43Zm3.9-1.246h0Z" transform="translate(-280.716 -65.343)" fill="#10005c"/>
    <path id="Path_29375" data-name="Path 29375" d="M449.108,82.89c1.255-3.323,3.461-1.473,4.875-.816s2.652-2.287,4.257-1.45-.343,3.044-.667,4,1.528,0,2.188.438c.436.289.51.961-.1,1.762a3.687,3.687,0,0,1-1.423,1.14c-.879,2.9-4,5.316-6.587,4.342-2.6-.981-2.589-9.3-2.546-9.418" transform="translate(-283.515 -50.802)" fill="#fff"/>
    <path id="Path_29376" data-name="Path 29376" d="M452.095,92.2a3.918,3.918,0,0,1-1.389-.251,3.177,3.177,0,0,1-1.63-1.807c-1.227-2.716-1.3-7.875-1.182-8.2a3.223,3.223,0,0,1,1.736-2.087c1.1-.409,2.231.206,3.144.7.22.119.428.232.615.319.391.182.824-.129,1.491-.664.75-.6,1.684-1.35,2.784-.776a1.524,1.524,0,0,1,.808.932c.262.893-.343,1.951-.83,2.8-.138.241-.27.471-.355.654.12-.011.26-.031.369-.046a2.312,2.312,0,0,1,1.57.124,1.217,1.217,0,0,1,.527.82,2.063,2.063,0,0,1-.512,1.6,4.3,4.3,0,0,1-1.414,1.2,7.361,7.361,0,0,1-3.58,4.15,4.87,4.87,0,0,1-2.152.537m-3.324-9.991c-.08,1.215.24,8.124,2.258,8.885a3.543,3.543,0,0,0,2.815-.25,6.5,6.5,0,0,0,3.174-3.8.458.458,0,0,1,.271-.293,3.242,3.242,0,0,0,1.226-.991,1.3,1.3,0,0,0,.339-.893.3.3,0,0,0-.131-.212,2.2,2.2,0,0,0-.937.02c-.539.076-1.048.149-1.34-.2a.767.767,0,0,1-.091-.78,6.219,6.219,0,0,1,.5-.982c.379-.663.9-1.57.746-2.09a.618.618,0,0,0-.354-.38c-.534-.278-1.032.071-1.79.68-.709.569-1.514,1.214-2.448.78-.212-.1-.432-.218-.664-.343-.79-.427-1.685-.911-2.391-.647a2.391,2.391,0,0,0-1.179,1.5m-.449-.105h0Z" transform="translate(-282.729 -50.016)" fill="#10005c"/>
    <path id="Path_29377" data-name="Path 29377" d="M150.233,381.033s-13.455-29.491-5.737-67.723c0,0,20.853,17.474,13.335,67.723Z" transform="translate(-89.712 -197.792)" fill="#5b2eca"/>
    <path id="Path_29378" data-name="Path 29378" d="M159.482,386.324h-.021a.371.371,0,0,1-.35-.39c1.03-18.859-7.472-59.106-7.558-59.511a.37.37,0,1,1,.725-.154c.086.405,8.609,40.749,7.573,59.7a.37.37,0,0,1-.369.35" transform="translate(-95.671 -205.788)" fill="#fff"/>
    <path id="Path_29379" data-name="Path 29379" d="M183.315,366.946s-17.335,31.32-6.907,44.872h5.578s11.147-24.482,1.33-44.872" transform="translate(-109.259 -231.653)" fill="#c1aaff"/>
    <path id="Path_29380" data-name="Path 29380" d="M188.49,412.385a.37.37,0,0,1-.37-.356c-.5-12.926,4.258-45.443,4.306-45.77a.37.37,0,0,1,.733.108c-.048.326-4.8,32.776-4.3,45.634a.37.37,0,0,1-.355.384h-.015" transform="translate(-118.737 -231.019)" fill="#fff"/>
    <path id="Path_29381" data-name="Path 29381" d="M111.093,398.613s14.767,5.038,20.114,34.867H125.4s-12.121-16.382-14.306-34.867" transform="translate(-70.133 -251.644)" fill="#c1aaff"/>
    <path id="Path_29382" data-name="Path 29382" d="M136.073,444.478a.371.371,0,0,1-.365-.31c-2.2-13.289-11.713-26.669-11.809-26.8a.37.37,0,1,1,.6-.431c.1.135,9.711,13.656,11.938,27.114a.37.37,0,0,1-.3.426.341.341,0,0,1-.061.005" transform="translate(-78.173 -263.112)" fill="#fff"/>
    <path id="Path_29383" data-name="Path 29383" d="M126.52,486.758h36.432l.817,17.233a7.409,7.409,0,0,1-7.4,7.76H135.561a9.056,9.056,0,0,1-9.056-9.065Z" transform="translate(-79.862 -307.29)" fill="#321688"/>
    <path id="Path_29384" data-name="Path 29384" d="M155.733,511.486H134.926a9.426,9.426,0,0,1-9.426-9.435l.015-15.928a.37.37,0,0,1,.371-.37h36.432a.371.371,0,0,1,.37.353l.817,17.233a7.78,7.78,0,0,1-7.771,8.148m-29.478-24.993-.014,15.558a8.685,8.685,0,0,0,8.685,8.694h20.807a7.039,7.039,0,0,0,7.031-7.372l-.8-16.88Z" transform="translate(-79.228 -306.655)" fill="#5b2eca"/>
  </g>
</svg>
