<svg id="Group_18035" data-name="Group 18035" xmlns="http://www.w3.org/2000/svg" xmlns:xlink="http://www.w3.org/1999/xlink" width="220.278" height="219.889" viewBox="0 0 220.278 219.889">
  <defs>
    <clipPath id="clip-path">
      <rect id="Rectangle_10507" data-name="Rectangle 10507" width="220.278" height="219.889" fill="none"/>
    </clipPath>
  </defs>
  <g id="Group_18034" data-name="Group 18034" clip-path="url(#clip-path)">
    <path id="Path_29385" data-name="Path 29385" d="M198.509,194.871c12.734-10.633,19.691-28.231,19.854-39.152,1.214-81.4,6.38-120.6-42.126-142.78C165.022,7.811,96.256-12.207,45.464,10.9,22,21.578-12.8,66.788,5.7,154.252c7.325,34.629,28.049,53.769,60.283,61.119,20.269,4.621,27.221,6.063,69.348,2.239,36.462-3.31,47.6-9.732,63.178-22.738" transform="translate(-0.232 0)" fill="#d6cbf2"/>
    <path id="Path_29386" data-name="Path 29386" d="M286.083,166.494l-129.6-18.023a6.517,6.517,0,0,1-5.692-6.464l-1.777-90.395a44.707,44.707,0,0,1,4.629-2.946A5.031,5.031,0,0,1,156.5,48.2L285.7,64.677a6.507,6.507,0,0,1,5.681,6.464v88.785a5.035,5.035,0,0,1-1.837,3.912c-1.034.851-3.457,2.656-3.457,2.656" transform="translate(-72.244 -23.347)" fill="#10005c"/>
    <path id="Path_29387" data-name="Path 29387" d="M280.437,170.279,151.172,153.8a6.565,6.565,0,0,1-5.746-6.465V58.551a5.088,5.088,0,0,1,5.734-5.023L280.435,70.006a6.572,6.572,0,0,1,5.756,6.464v88.785a5.105,5.105,0,0,1-5.754,5.023" transform="translate(-70.503 -25.931)" fill="#fff"/>
    <path id="Path_29388" data-name="Path 29388" d="M282.116,170.075,158.783,154.341a4.7,4.7,0,0,1-4.094-4.7V64a3.352,3.352,0,0,1,3.773-3.355L281.8,76.379a4.709,4.709,0,0,1,4.105,4.7V166.72a3.369,3.369,0,0,1-3.794,3.355" transform="translate(-74.994 -29.387)" fill="#ad97e4"/>
    <path id="Path_29389" data-name="Path 29389" d="M304.064,175.831a5.487,5.487,0,0,1-.7-.044l-110.33-14.063a.4.4,0,0,1,.1-.789L303.466,175a4.813,4.813,0,0,0,3.786-1.174,4.619,4.619,0,0,0,1.587-3.455V81.584a6.19,6.19,0,0,0-5.461-6.069L219.452,64.826a.4.4,0,1,1,.1-.789l83.926,10.688a6.988,6.988,0,0,1,6.156,6.859v88.785a5.416,5.416,0,0,1-1.857,4.053,5.623,5.623,0,0,1-3.713,1.41" transform="translate(-93.416 -31.044)" fill="#5b2eca"/>
    <path id="Path_29390" data-name="Path 29390" d="M162.425,155.3a.427.427,0,0,1-.051,0l-11.568-1.476a6.928,6.928,0,0,1-6.039-6.858V58.178a5.461,5.461,0,0,1,6.152-5.417l13.152,1.677a.4.4,0,0,1-.1.789L150.818,53.55a4.667,4.667,0,0,0-5.257,4.629v88.785a6.131,6.131,0,0,0,5.345,6.069l11.568,1.476a.4.4,0,0,1-.05.792" transform="translate(-70.184 -25.557)" fill="#5b2eca"/>
    <path id="Path_29391" data-name="Path 29391" d="M134.5,319.154,1.614,302.016A1.831,1.831,0,0,1,0,300.141c.009-.6.058-4.83.058-4.83l70.265-40.169a20.1,20.1,0,0,1,12.1-2.273l131.21,16.926a2.248,2.248,0,0,1,1.78,1.347l.211.494s-.113,3.528-.067,4.352a1.8,1.8,0,0,1-.929,1.7l-68.5,39.166a18.653,18.653,0,0,1-11.622,2.3" transform="translate(0 -122.518)" fill="#10005c"/>
    <path id="Path_29392" data-name="Path 29392" d="M18.4,299.223l-15.869-2.05a1.847,1.847,0,0,1-.682-3.435l68.134-38.914a18.653,18.653,0,0,1,11.622-2.3l132.413,17.105a1.846,1.846,0,0,1,.681,3.435L146.57,311.973a18.656,18.656,0,0,1-11.621,2.3Z" transform="translate(-0.447 -122.349)" fill="#fff"/>
    <path id="Path_29393" data-name="Path 29393" d="M136.914,314.453a18.85,18.85,0,0,1-2.391-.151L2.11,297.2a2.244,2.244,0,0,1-.827-4.175l68.133-38.914a19.166,19.166,0,0,1,11.87-2.354L213.7,268.858a2.244,2.244,0,0,1,.827,4.175l-68.134,38.914a19.184,19.184,0,0,1-9.479,2.505m-118.834-16,116.545,15.056A18.364,18.364,0,0,0,146,311.256l68.134-38.914a1.449,1.449,0,0,0-.534-2.7L81.184,252.542A18.361,18.361,0,0,0,69.81,254.8L1.677,293.711a1.449,1.449,0,0,0,.535,2.7Z" transform="translate(-0.072 -121.978)" fill="#5b2eca"/>
    <path id="Path_29394" data-name="Path 29394" d="M201.973,297.18,87.154,282.24a1.668,1.668,0,0,1-.615-3.1l27-15.264a16.848,16.848,0,0,1,10.5-2.082l114.819,14.941a1.668,1.668,0,0,1,.616,3.1l-27,15.264a16.849,16.849,0,0,1-10.5,2.082" transform="translate(-41.546 -126.852)" fill="#ad97e4"/>
    <path id="Path_29395" data-name="Path 29395" d="M282.618,151.255,167.037,136.9V30.9a3.44,3.44,0,0,1,3.85-3.533L282.618,41.226Z" transform="translate(-80.981 -13.256)" fill="#fff"/>
    <path id="Path_29396" data-name="Path 29396" d="M166.255,33.409,282.484,44.925l6.822.177-.426-3.961a4.592,4.592,0,0,0-3.85-3.333L171.8,23.5a5,5,0,0,0-5.63,5.046Z" transform="translate(-80.562 -11.374)" fill="#fff"/>
    <path id="Path_29397" data-name="Path 29397" d="M391.323,60.73c-1.151-9.013,7.707-11.134,7.53,0Z" transform="translate(-189.666 -25.769)" fill="#8462d7"/>
    <path id="Path_29398" data-name="Path 29398" d="M199.371,87.514,191.118,86.5a2.258,2.258,0,0,1-1.883-2.208l-.062-8.742a1.655,1.655,0,0,1,1.855-1.751l8.252,1.009a2.258,2.258,0,0,1,1.883,2.208l.062,8.742a1.655,1.655,0,0,1-1.855,1.751" transform="translate(-91.713 -35.774)" fill="#5b2eca"/>
    <path id="Path_29399" data-name="Path 29399" d="M199.6,131.042l-8.252-1.009a2.258,2.258,0,0,1-1.883-2.208l-.062-8.742a1.654,1.654,0,0,1,1.855-1.751l8.252,1.009a2.258,2.258,0,0,1,1.883,2.208l.062,8.742a1.655,1.655,0,0,1-1.855,1.751" transform="translate(-91.824 -56.877)" fill="#5b2eca"/>
    <path id="Path_29400" data-name="Path 29400" d="M199.9,173.558l-8.252-1.009a2.258,2.258,0,0,1-1.883-2.208L189.7,161.6a1.655,1.655,0,0,1,1.855-1.751l8.252,1.009a2.258,2.258,0,0,1,1.883,2.208l.062,8.742a1.655,1.655,0,0,1-1.855,1.751" transform="translate(-91.97 -77.489)" fill="#5b2eca"/>
    <path id="Path_29401" data-name="Path 29401" d="M200.573,217.559l-8.253-1.009a2.258,2.258,0,0,1-1.883-2.208l-.062-8.742a1.655,1.655,0,0,1,1.855-1.751l8.251,1.009a2.258,2.258,0,0,1,1.883,2.208l.062,8.742a1.655,1.655,0,0,1-1.854,1.751" transform="translate(-92.295 -98.821)" fill="#5b2eca"/>
    <path id="Path_29402" data-name="Path 29402" d="M277.444,58.052l-46.956-5.485a2.185,2.185,0,0,1-1.785-2.147l-.029-1.619a1.581,1.581,0,0,1,1.714-1.738l46.956,5.485a2.186,2.186,0,0,1,1.785,2.147l.029,1.618a1.581,1.581,0,0,1-1.715,1.738" transform="translate(-110.862 -22.812)" fill="#5b2eca"/>
    <path id="Path_29403" data-name="Path 29403" d="M293.784,99.627l-65.931-8.062a2.112,2.112,0,0,1-1.76-2.065,1.547,1.547,0,0,1,1.734-1.637l65.931,8.062a2.112,2.112,0,0,1,1.76,2.065,1.547,1.547,0,0,1-1.734,1.637" transform="translate(-109.611 -42.591)" fill="#8462d7"/>
    <path id="Path_29404" data-name="Path 29404" d="M284.61,117.012,228,110.09a2.111,2.111,0,0,1-1.76-2.064,1.547,1.547,0,0,1,1.734-1.637l56.609,6.922a2.112,2.112,0,0,1,1.76,2.065,1.547,1.547,0,0,1-1.734,1.637" transform="translate(-109.683 -51.572)" fill="#8462d7"/>
    <path id="Path_29405" data-name="Path 29405" d="M289.394,142.911l-61.08-7.469a2.111,2.111,0,0,1-1.76-2.064,1.547,1.547,0,0,1,1.734-1.638l61.08,7.469a2.112,2.112,0,0,1,1.76,2.065,1.547,1.547,0,0,1-1.734,1.637" transform="translate(-109.834 -63.862)" fill="#8462d7"/>
    <path id="Path_29406" data-name="Path 29406" d="M262.94,157.837l-34.36-4.2a2.111,2.111,0,0,1-1.76-2.065,1.547,1.547,0,0,1,1.734-1.637l34.36,4.2a2.112,2.112,0,0,1,1.76,2.065,1.547,1.547,0,0,1-1.734,1.637" transform="translate(-109.964 -72.683)" fill="#8462d7"/>
    <path id="Path_29407" data-name="Path 29407" d="M294.391,185.079l-65.931-8.062a2.112,2.112,0,0,1-1.76-2.065,1.547,1.547,0,0,1,1.734-1.637l65.931,8.062a2.112,2.112,0,0,1,1.76,2.065,1.547,1.547,0,0,1-1.734,1.637" transform="translate(-109.905 -84.018)" fill="#8462d7"/>
    <path id="Path_29408" data-name="Path 29408" d="M285.218,202.464l-56.609-6.922a2.111,2.111,0,0,1-1.76-2.064,1.547,1.547,0,0,1,1.734-1.637l56.609,6.922a2.112,2.112,0,0,1,1.76,2.065,1.547,1.547,0,0,1-1.734,1.637" transform="translate(-109.978 -92.999)" fill="#8462d7"/>
    <path id="Path_29409" data-name="Path 29409" d="M293.242,228.76l-64.591-7.9a2.112,2.112,0,0,1-1.76-2.065,1.547,1.547,0,0,1,1.734-1.637l64.591,7.9a2.112,2.112,0,0,1,1.76,2.065,1.547,1.547,0,0,1-1.734,1.637" transform="translate(-109.998 -105.275)" fill="#8462d7"/>
    <path id="Path_29410" data-name="Path 29410" d="M263.538,242.026l-34.36-4.2a2.111,2.111,0,0,1-1.76-2.065,1.547,1.547,0,0,1,1.734-1.637l34.36,4.2a2.112,2.112,0,0,1,1.76,2.065,1.547,1.547,0,0,1-1.734,1.637" transform="translate(-110.254 -113.498)" fill="#8462d7"/>
    <path id="Path_29411" data-name="Path 29411" d="M146.493,369.4l4.021,11.918,5.616-.3-4.011-13.176Z" transform="translate(-71.021 -178.337)" fill="#fff"/>
    <path id="Path_29412" data-name="Path 29412" d="M150.14,381.346a.4.4,0,0,1-.377-.27l-4.021-11.919a.4.4,0,0,1,.026-.314.4.4,0,0,1,.246-.2l5.625-1.553a.4.4,0,0,1,.486.268l4.012,13.176a.4.4,0,0,1-.36.513l-5.617.3h-.02m-3.51-12.045,3.789,11.234,4.808-.253-3.751-12.319Z" transform="translate(-70.647 -177.962)"/>
    <path id="Path_29413" data-name="Path 29413" d="M150.55,397.523s-.7-5.838,1.256-8.5l4.361,1.454V389.6a.522.522,0,0,1,.487-.527l2.432-.131a5.6,5.6,0,0,1,2.641.509c2.912,1.341,9.617,4.8,9.4,8.11,0,0-5.278,1.227-20.58-.039" transform="translate(-72.929 -188.559)" fill="#fff"/>
    <path id="Path_29414" data-name="Path 29414" d="M162.546,398.124c-3.086,0-7.154-.144-12.406-.578a.4.4,0,0,1-.362-.349c-.029-.245-.693-6.025,1.33-8.786a.4.4,0,0,1,.446-.142l3.837,1.279v-.32a.92.92,0,0,1,.863-.924l2.432-.13a6.02,6.02,0,0,1,2.828.545c3.693,1.7,9.855,5.064,9.635,8.5a.4.4,0,0,1-.307.362,41.783,41.783,0,0,1-8.3.548m-12.01-1.344c12.806,1.038,18.5.3,19.817.079-.249-3.075-7.039-6.437-9.171-7.419a5.2,5.2,0,0,0-2.453-.473l-2.432.13a.124.124,0,0,0-.111.13v.872a.4.4,0,0,1-.523.377l-4.075-1.358c-1.405,2.239-1.156,6.466-1.052,7.661" transform="translate(-72.552 -188.185)"/>
    <path id="Path_29415" data-name="Path 29415" d="M158.592,402.378a60.807,60.807,0,0,1-6.54-.339.4.4,0,1,1,.086-.79,68.827,68.827,0,0,0,17.85-.59.4.4,0,0,1,.148.782,69.526,69.526,0,0,1-11.544.938" transform="translate(-73.543 -194.238)"/>
    <path id="Path_29416" data-name="Path 29416" d="M170.814,394.615a.392.392,0,0,1-.222-.068l-4.2-2.826a.4.4,0,1,1,.444-.659l4.2,2.826a.4.4,0,0,1-.223.727" transform="translate(-80.584 -189.556)"/>
    <path id="Path_29417" data-name="Path 29417" d="M97.022,373.8l-1.4,10.112H92.583l-.169-9.945Z" transform="translate(-44.803 -181.22)" fill="#fff"/>
    <path id="Path_29418" data-name="Path 29418" d="M95.245,383.935H92.209a.4.4,0,0,1-.4-.391l-.169-9.945a.4.4,0,0,1,.383-.4l4.608-.166a.4.4,0,0,1,.309.131.4.4,0,0,1,.1.321l-1.4,10.112a.4.4,0,0,1-.394.343m-2.645-.8h2.3l1.291-9.3-3.745.135Z" transform="translate(-44.429 -180.846)"/>
    <path id="Path_29419" data-name="Path 29419" d="M132.089,243.8s4.656,30.877,4.841,38.25,1.922,26.087,1.922,26.087-4.036,2-6.97,1.982c0,0-13.742-37.456-14.77-49.569s2.407-17.658,2.407-17.658Z" transform="translate(-56.684 -117.756)" fill="#10005c"/>
    <path id="Path_29420" data-name="Path 29420" d="M113.948,239.889s-15.78,49.479-16.039,69.591a23.2,23.2,0,0,1-8.477,0s-3.205-55.22,6.034-70.69Z" transform="translate(-43.096 -115.767)" fill="#10005c"/>
    <path id="Path_29421" data-name="Path 29421" d="M91.443,400.845a23.637,23.637,0,0,1-6.6-.227,1.594,1.594,0,0,1-1.234-2c.695-2.537,2.193-7.344,4.078-9.532l.411,1.235.658-1.127a.549.549,0,0,1,.421-.272l1.368-.131a.554.554,0,0,1,.594.465l.183,1.065.519-1.373.974,10.158a1.58,1.58,0,0,1-1.372,1.739" transform="translate(-40.505 -188.487)" fill="#fff"/>
    <path id="Path_29422" data-name="Path 29422" d="M88.589,401a24.125,24.125,0,0,1-4.19-.366,1.957,1.957,0,0,1-1.309-.883,2.026,2.026,0,0,1-.24-1.615c.729-2.659,2.238-7.455,4.161-9.686a.4.4,0,0,1,.679.134l.133.4.216-.369a.95.95,0,0,1,.727-.467l1.367-.131a.95.95,0,0,1,.927.508l.036-.095a.4.4,0,0,1,.768.1l.974,10.158a1.983,1.983,0,0,1-1.724,2.172,23.074,23.074,0,0,1-2.523.135m2.48-.531h0Zm-3.9-10.926c-1.614,2.3-2.9,6.423-3.553,8.8a1.228,1.228,0,0,0,.145.979,1.146,1.146,0,0,0,.775.525,23.167,23.167,0,0,0,6.488.223,1.185,1.185,0,0,0,1.02-1.306l-.819-8.539a.4.4,0,0,1-.67-.216l-.183-1.065a.156.156,0,0,0-.164-.137l-1.368.131a.154.154,0,0,0-.116.077l-.658,1.127a.4.4,0,0,1-.721-.075Z" transform="translate(-40.132 -188.113)"/>
    <path id="Path_29423" data-name="Path 29423" d="M88.607,408.73a13.5,13.5,0,0,1-3.5-.432.4.4,0,1,1,.207-.768,15.467,15.467,0,0,0,6.9,0,.4.4,0,0,1,.2.77,16.721,16.721,0,0,1-3.808.431" transform="translate(-41.12 -197.566)"/>
    <path id="Path_29424" data-name="Path 29424" d="M92.679,401.448H89.423a.4.4,0,0,1,0-.8h3.256a.4.4,0,0,1,0,.8" transform="translate(-43.16 -194.239)"/>
    <path id="Path_29425" data-name="Path 29425" d="M98.441,128.988A10.519,10.519,0,0,0,88.2,125.7c-4.1.952-6.288,4.385-7.829,6.807-2.723,4.281-1.552,5.915-3.657,8.382-3.729,4.369-12.234,1.05-16.566,4.348-10.409,7.925-4.829,21.737,3.859,28.573,5.794,4.559,14.148,3.956,16.381,3.361,6.777-1.806,17.267-6.861,18.717-16.488.975-6.473-5.458-11.943-1.683-17.224.961-1.345,1.728-1.69,2.47-3.389a10.752,10.752,0,0,0-1.453-11.081" transform="translate(-26.423 -60.815)" fill="#10005c"/>
    <path id="Path_29426" data-name="Path 29426" d="M188.419,175.882c.291.114,1.276-1.075,1.5-1.283.9-.816,2.941-1.738,3.416-3.5.616-2.282-.291-4.79-.88-4.737s-1.5,4.393-3.806,4.463c0,0-.515-.081-.375-2.235a.405.405,0,0,0-.569-.4,2.865,2.865,0,0,0-1.282,1.432,6.459,6.459,0,0,0-.443,3.173c.031.514-.214,2.043.172,2.194Z" transform="translate(-90.144 -80.655)" fill="#fff"/>
    <path id="Path_29427" data-name="Path 29427" d="M188.091,175.915a.517.517,0,0,1-.192-.037l-2.262-.886c-.545-.213-.5-1.062-.443-1.96.014-.235.027-.457.019-.58a6.773,6.773,0,0,1,.483-3.37,3.278,3.278,0,0,1,1.469-1.618.785.785,0,0,1,.784.064.8.8,0,0,1,.352.717,4.137,4.137,0,0,0,.126,1.8c1.2-.178,2.017-1.9,2.563-3.059.41-.87.636-1.35,1.059-1.388a.776.776,0,0,1,.673.337,6.3,6.3,0,0,1,.626,4.9,5.915,5.915,0,0,1-2.666,3.033,9.5,9.5,0,0,0-.867.654c-.047.044-.131.135-.236.248-.719.774-1.131,1.148-1.489,1.148M186,174.28l2.088.818a7.149,7.149,0,0,0,.909-.872c.125-.135.226-.243.283-.295a9.954,9.954,0,0,1,.944-.717,5.324,5.324,0,0,0,2.355-2.59,5.7,5.7,0,0,0-.439-4.157c-.12.191-.289.551-.432.855-.652,1.384-1.638,3.475-3.418,3.529h-.038l-.037-.006c-.4-.062-.844-.574-.709-2.654a2.4,2.4,0,0,0-1.1,1.237,6.176,6.176,0,0,0-.4,2.974,6.4,6.4,0,0,1-.019.674,5.332,5.332,0,0,0,.013,1.2" transform="translate(-89.769 -80.28)"/>
    <path id="Path_29428" data-name="Path 29428" d="M63.388,225.733s-2.761,10.122-3.258,10.84a4.8,4.8,0,0,1-1.785,1.358c-1.268.594-3.346,2.239-3.768,3.926-.31,1.241.343,3.72,1.717,5.49a.735.735,0,0,0,.84.258c.236-.094.455-.326.47-.855.029-.963-.491-1.191-.439-1.876.065-.851,1.467-3.161,2.4-2.559.846.548-.919,1.811-1,2.635a1.059,1.059,0,0,0,1,1.221c.94.051,2.8-3.778,3.038-5.128.191-1.067.48-2.764.626-3.42.129-.575,3.114-10.875,3.114-10.875Z" transform="translate(-26.423 -109.437)" fill="#fff"/>
    <path id="Path_29429" data-name="Path 29429" d="M56.517,247.565a1.165,1.165,0,0,1-.913-.457c-1.353-1.744-2.156-4.36-1.788-5.83.453-1.815,2.6-3.542,3.985-4.19a4.43,4.43,0,0,0,1.626-1.224c.346-.524,2.147-6.853,3.2-10.718l.111-.409,3.719,1.273-.105.364c-1.032,3.558-3.009,10.406-3.108,10.851-.109.487-.3,1.575-.469,2.535l-.154.869c-.2,1.131-2.079,5.54-3.451,5.455a1.444,1.444,0,0,1-1.029-.493,1.539,1.539,0,0,1-.348-1.163,2.975,2.975,0,0,1,.7-1.312c.209-.279.557-.745.529-.909a.127.127,0,0,0-.047-.042c-.036-.023-.117-.076-.315.022a3.868,3.868,0,0,0-1.47,2.234,1.1,1.1,0,0,0,.154.589,2.573,2.573,0,0,1,.286,1.268,1.215,1.215,0,0,1-.72,1.212,1.035,1.035,0,0,1-.388.074m6.767-21.8c-.646,2.356-2.726,9.863-3.2,10.553a5.21,5.21,0,0,1-1.943,1.491c-1.2.564-3.165,2.118-3.551,3.662-.276,1.107.319,3.44,1.646,5.15a.34.34,0,0,0,.377.132c.052-.021.209-.083.221-.5a1.808,1.808,0,0,0-.215-.913,1.849,1.849,0,0,1-.223-.982,4.532,4.532,0,0,1,1.91-2.885,1.08,1.08,0,0,1,1.1.023.848.848,0,0,1,.4.57c.09.5-.281,1-.674,1.525a2.784,2.784,0,0,0-.541.911.751.751,0,0,0,.159.569.647.647,0,0,0,.469.217c.585-.063,2.355-3.294,2.625-4.8l.154-.867c.17-.968.363-2.065.476-2.57.117-.525,2.475-8.671,3.015-10.535Z" transform="translate(-26.047 -108.954)"/>
    <path id="Path_29430" data-name="Path 29430" d="M126.652,172.709a26.819,26.819,0,0,1-6.234,7.54,18.816,18.816,0,0,1-4.207,2.35,1.249,1.249,0,0,1-1.652-.74,48.146,48.146,0,0,0-3.723-8.281,19.534,19.534,0,0,0-6.585-6.545,23.468,23.468,0,0,0-8.134-2.178c.022-.082.017-.128-.017-.132-10.351-1.3-17.716,4.217-22.944,13.407-1.8,3.159-7.217,20.879-8.174,24.572a5.485,5.485,0,0,0-.117,2.127c.4,2.443,2.515,2.773,4.021,2.66,2.383-.179,7.164-15.789,9.265-18.306a39.237,39.237,0,0,1,5.091-4.808c.205,2.208.714,10.105-1.828,15.738-2.27,5.03-.285,6.369-.285,6.369,8.528,9.738,28.585,1.635,27.075-2.457a30.28,30.28,0,0,1-1.434-9.848,7.737,7.737,0,0,0,5.752,2.282,13.009,13.009,0,0,0,3.316-.571c11.826-3.42,15.367-21.3,15.367-21.3Z" transform="translate(-31.421 -79.766)" fill="#5b2eca"/>
    <path id="Path_29431" data-name="Path 29431" d="M92.321,211.107c-4.371,0-8.776-1.23-11.839-4.707-.332-.269-2.01-1.938.2-6.825,2.264-5.017,2.068-11.887,1.856-14.788a36.66,36.66,0,0,0-4.451,4.276c-.812.974-2.107,4.152-3.478,7.518-2.738,6.723-4.513,10.814-6.063,10.93-2.477.187-4.1-.9-4.443-2.992a5.92,5.92,0,0,1,.125-2.292c.953-3.681,6.367-21.425,8.213-24.669,5.828-10.245,13.681-14.822,23.34-13.6a.462.462,0,0,1,.284.162,23.335,23.335,0,0,1,8.008,2.193,19.888,19.888,0,0,1,6.74,6.7,48.7,48.7,0,0,1,3.753,8.347.836.836,0,0,0,.447.489.857.857,0,0,0,.682.013,18.465,18.465,0,0,0,4.118-2.3c1.955-1.45,3.961-3.88,6.131-7.429a.4.4,0,0,1,.491-.16l4.552,1.876a.4.4,0,0,1,.239.445,44.5,44.5,0,0,1-3.281,9.464c-3.14,6.507-7.412,10.7-12.353,12.139a13.333,13.333,0,0,1-3.425.59,8.192,8.192,0,0,1-5.37-1.764,28.709,28.709,0,0,0,1.412,8.795c.471,1.277-.659,2.843-3.1,4.3a26.878,26.878,0,0,1-12.779,3.3m-9.453-27.5a.4.4,0,0,1,.4.361c.214,2.3.711,10.238-1.861,15.939-2.074,4.6-.436,5.869-.419,5.881a.481.481,0,0,1,.071.063c6.24,7.125,18.475,4.349,23.639,1.279,2.021-1.2,3.08-2.48,2.764-3.337a30.31,30.31,0,0,1-1.459-10,.4.4,0,0,1,.688-.259,7.4,7.4,0,0,0,5.432,2.158,12.756,12.756,0,0,0,3.208-.548l.027-.009c10.6-3.066,14.471-18.279,15.018-20.68l-3.932-1.62a26.343,26.343,0,0,1-6.158,7.363,19.271,19.271,0,0,1-4.3,2.4,1.673,1.673,0,0,1-1.307-.027,1.624,1.624,0,0,1-.868-.952,47.939,47.939,0,0,0-3.693-8.215,19.272,19.272,0,0,0-6.43-6.394,22.894,22.894,0,0,0-7.987-2.131.4.4,0,0,1-.28-.164c-9.191-1.06-16.691,3.394-22.292,13.239-1.777,3.123-7.216,20.929-8.134,24.475a5.073,5.073,0,0,0-.11,1.963c.35,2.121,2.149,2.436,3.6,2.328,1.171-.088,3.707-6.316,5.385-10.438,1.455-3.572,2.712-6.658,3.6-7.727a39.809,39.809,0,0,1,5.146-4.862.4.4,0,0,1,.249-.088" transform="translate(-31.047 -79.393)"/>
    <path id="Path_29432" data-name="Path 29432" d="M190.01,164.178h0a1.393,1.393,0,0,0,1.686-1.023l2.824-20.936-2.955-.509-2.824,20.936a1.423,1.423,0,0,0,1.269,1.532" transform="translate(-91.496 -68.701)" fill="#10005c"/>
    <path id="Path_29433" data-name="Path 29433" d="M160.255,89.37A23.221,23.221,0,1,0,170.48,58,23.331,23.331,0,0,0,160.255,89.37M162.99,88a20.16,20.16,0,1,1,27.149,9.134A20.254,20.254,0,0,1,162.99,88" transform="translate(-76.471 -26.929)" fill="#10005c"/>
    <path id="Path_29434" data-name="Path 29434" d="M114.243,143.248a.343.343,0,0,0,.465-.236,6.593,6.593,0,0,1,1.713-3.35c1.076-.928,3.983-1.509,4.406-.3.371,1.059.454,2.978,1.826,4.152.131.112.071.337-.048.462l-.622.728a1.3,1.3,0,0,0-.187.745,6.419,6.419,0,0,1-.006,2.067c-.347.382-2.356.586-2.356.586l-.641,5.451a.576.576,0,0,0,.363.686l1.4.6a.487.487,0,0,1,.194.743c-.589.787-2.076,2.326-5.626,2.09-3.677-.244-5.718-1.692-6.16-2.688a.59.59,0,0,1,.524-.8c1.449-.185,5.663-1.539,5.387-7.149a.443.443,0,0,0-.238-.37c-.531-.277-1.974-1.114-1.925-2.21.051-1.16.858-1.471,1.53-1.212" transform="translate(-52.804 -67.232)" fill="#fff"/>
    <path id="Path_29435" data-name="Path 29435" d="M115.456,157.72c-.239,0-.482-.008-.731-.025-3.681-.244-5.948-1.686-6.5-2.923a.916.916,0,0,1,.04-.828,1.067,1.067,0,0,1,.8-.523c.547-.07,5.329-.853,5.04-6.736a.045.045,0,0,0-.024-.037c-.822-.43-2.193-1.336-2.139-2.58a1.751,1.751,0,0,1,.711-1.452,1.469,1.469,0,0,1,1.308-.131,7.026,7.026,0,0,1,1.826-3.5A5.3,5.3,0,0,1,119.8,138a1.364,1.364,0,0,1,1.024.855,10.085,10.085,0,0,1,.262.974,5.347,5.347,0,0,0,1.447,3.007.616.616,0,0,1,.213.441.83.83,0,0,1-.231.6l-.609.713a1.082,1.082,0,0,0-.092.461c.006.092.014.2.023.316.1,1.315.1,1.795-.132,2.045a4.873,4.873,0,0,1-2.293.679l-.6,5.137c-.021.176-.013.213.13.277l1.4.6a.876.876,0,0,1,.5.582.887.887,0,0,1-.149.765,6.207,6.207,0,0,1-5.24,2.273m-2.031-14.535a.608.608,0,0,0-.336.1.985.985,0,0,0-.352.822c-.038.857,1.3,1.625,1.713,1.84a.843.843,0,0,1,.45.7c.264,5.357-3.48,7.275-5.733,7.563a.276.276,0,0,0-.206.125.117.117,0,0,0-.005.115c.365.823,2.269,2.217,5.823,2.452,2.388.158,4.216-.51,5.281-1.931a.1.1,0,0,0,.017-.083.082.082,0,0,0-.049-.056l-1.4-.6a.967.967,0,0,1-.6-1.1l.641-5.45a.4.4,0,0,1,.355-.349,7.477,7.477,0,0,0,2.071-.436,9.515,9.515,0,0,0-.042-1.471c-.009-.12-.017-.23-.024-.325a1.64,1.64,0,0,1,.3-1.045l.6-.7a6.126,6.126,0,0,1-1.605-3.341c-.078-.333-.151-.648-.238-.893a.627.627,0,0,0-.479-.35,4.491,4.491,0,0,0-3.293.821,6.322,6.322,0,0,0-1.584,3.137.731.731,0,0,1-.369.483.758.758,0,0,1-.628.036.831.831,0,0,0-.3-.059m.588-.683h0" transform="translate(-52.43 -66.857)"/>
    <path id="Path_29436" data-name="Path 29436" d="M337.519,369.708H275.031a5.923,5.923,0,0,1-5.8-7.117l9.48-46.085a8.337,8.337,0,0,1,8.166-6.657h53.6Z" transform="translate(-130.464 -150.217)" fill="#8462d7"/>
    <path id="Path_29437" data-name="Path 29437" d="M337.146,369.732H274.659a6.32,6.32,0,0,1-6.191-7.594l9.48-46.085a8.766,8.766,0,0,1,8.555-6.974h53.6a.4.4,0,0,1,.4.417l-2.956,59.858a.4.4,0,0,1-.4.378M286.5,309.873a7.968,7.968,0,0,0-7.776,6.339l-9.48,46.085a5.525,5.525,0,0,0,5.412,6.639h62.109l2.916-59.063Z" transform="translate(-130.091 -149.843)"/>
    <path id="Path_29438" data-name="Path 29438" d="M400.44,369.708H388.313a5.923,5.923,0,0,1-5.8-7.117l10.442-50.759a2.483,2.483,0,0,1,2.432-1.982H398.5a2.482,2.482,0,0,1,2.474,2.281l4.272,52.36a4.826,4.826,0,0,1-4.809,5.218" transform="translate(-185.384 -150.217)" fill="#5b2eca"/>
    <path id="Path_29439" data-name="Path 29439" d="M400.066,369.732H387.94a6.321,6.321,0,0,1-6.191-7.594l10.441-50.759a2.891,2.891,0,0,1,2.821-2.3h3.119A2.9,2.9,0,0,1,401,311.724l4.271,52.36a5.223,5.223,0,0,1-5.206,5.648m-5.055-59.858a2.093,2.093,0,0,0-2.042,1.665L382.527,362.3a5.526,5.526,0,0,0,5.413,6.639h12.126a4.428,4.428,0,0,0,4.413-4.788l-4.271-52.36a2.1,2.1,0,0,0-2.078-1.915Z" transform="translate(-185.01 -149.843)"/>
    <path id="Path_29440" data-name="Path 29440" d="M397.9,402.223h-8.262a4.519,4.519,0,0,1-4.427-5.43l3.428-16.662a.4.4,0,0,1,.778.16l-3.428,16.662a3.724,3.724,0,0,0,3.648,4.474H397.9a.4.4,0,1,1,0,.8" transform="translate(-186.706 -184.136)"/>
    <path id="Path_29441" data-name="Path 29441" d="M417.052,408.258a.4.4,0,0,1,0-.8,2.626,2.626,0,0,0,2.618-2.84l-.974-11.932a.4.4,0,0,1,.793-.065l.973,11.932a3.421,3.421,0,0,1-3.41,3.7" transform="translate(-201.996 -190.171)"/>
    <path id="Path_29442" data-name="Path 29442" d="M415.563,326.26a.4.4,0,0,1-.4-.365l-.2-2.487a.4.4,0,1,1,.792-.064l.2,2.486a.4.4,0,0,1-.364.429l-.033,0" transform="translate(-201.177 -156.582)"/>
    <path id="Path_29443" data-name="Path 29443" d="M400.389,327.834a.384.384,0,0,1-.08-.008.4.4,0,0,1-.31-.47l2.863-13.919a1.082,1.082,0,0,1,1.056-.861h3.118a1.085,1.085,0,0,1,1.075.991l.133,1.629a.4.4,0,1,1-.793.064l-.132-1.629a.289.289,0,0,0-.283-.26h-3.118a.284.284,0,0,0-.277.226l-2.863,13.919a.4.4,0,0,1-.389.318" transform="translate(-193.918 -151.538)"/>
    <path id="Path_29444" data-name="Path 29444" d="M338.958,337.431H290.031a.4.4,0,0,1,0-.8h48.926a2.721,2.721,0,0,0,2.657-2.1l4.313-18.206a.4.4,0,0,1,.774.183l-4.313,18.206a3.513,3.513,0,0,1-3.431,2.714" transform="translate(-140.416 -153.209)"/>
    <path id="Path_29445" data-name="Path 29445" d="M334.91,356.806l-1.37,5.529a2.074,2.074,0,0,1-2.018,1.6h-9.69a1.6,1.6,0,0,1-1.536-2.022l1.419-5.1Z" transform="translate(-155.252 -172.982)" fill="#5b2eca"/>
    <path id="Path_29446" data-name="Path 29446" d="M331.147,363.954h-9.69a1.992,1.992,0,0,1-1.92-2.527l1.419-5.1a.4.4,0,0,1,.383-.291h13.2a.4.4,0,0,1,.386.494l-1.37,5.528a2.461,2.461,0,0,1-2.4,1.9m-9.505-7.124-1.338,4.81a1.2,1.2,0,0,0,1.153,1.518h9.69a1.67,1.67,0,0,0,1.631-1.29l1.249-5.039Z" transform="translate(-154.878 -172.608)"/>
    <path id="Path_29447" data-name="Path 29447" d="M327.421,417.073H275.444a.4.4,0,0,1,0-.8h51.977a.4.4,0,0,1,0,.8" transform="translate(-133.345 -201.814)"/>
    <path id="Path_29448" data-name="Path 29448" d="M321.877,305.79H317.82a1.985,1.985,0,0,0-1.985,1.984h8.026a1.984,1.984,0,0,0-1.985-1.984" transform="translate(-153.119 -148.249)" fill="#5b2eca"/>
    <path id="Path_29449" data-name="Path 29449" d="M323.486,307.8H315.46a.4.4,0,0,1-.4-.4,2.386,2.386,0,0,1,2.383-2.383H321.5a2.386,2.386,0,0,1,2.383,2.383.4.4,0,0,1-.4.4m-7.578-.8h7.13a1.59,1.59,0,0,0-1.537-1.19h-4.057a1.59,1.59,0,0,0-1.537,1.19" transform="translate(-152.744 -147.875)"/>
    <path id="Path_29450" data-name="Path 29450" d="M384.991,305.79h-4.057a1.985,1.985,0,0,0-1.985,1.984h8.027a1.984,1.984,0,0,0-1.985-1.984" transform="translate(-183.717 -148.249)" fill="#5b2eca"/>
    <path id="Path_29451" data-name="Path 29451" d="M386.6,307.8h-8.027a.4.4,0,0,1-.4-.4,2.386,2.386,0,0,1,2.383-2.383h4.057A2.386,2.386,0,0,1,387,307.4a.4.4,0,0,1-.4.4m-7.578-.8h7.13a1.59,1.59,0,0,0-1.537-1.19H380.56a1.59,1.59,0,0,0-1.537,1.19" transform="translate(-183.343 -147.875)"/>
    <path id="Path_29452" data-name="Path 29452" d="M356.342,297.236l.654-3.884a4.1,4.1,0,0,0-4.147-4.987H328.519a6.145,6.145,0,0,0-5.826,4.987l-.654,3.884H323.9l.509-3.023a4.782,4.782,0,0,1,4.534-3.881h22.816a3.2,3.2,0,0,1,3.228,3.881l-.509,3.023Z" transform="translate(-156.127 -139.802)" fill="#fff"/>
    <path id="Path_29453" data-name="Path 29453" d="M355.967,297.26h-1.862a.4.4,0,0,1-.392-.464l.509-3.023a2.947,2.947,0,0,0-.6-2.44,2.857,2.857,0,0,0-2.233-.977H328.57a4.376,4.376,0,0,0-4.142,3.549l-.509,3.023a.4.4,0,0,1-.392.332h-1.862a.4.4,0,0,1-.392-.464l.653-3.884a6.566,6.566,0,0,1,6.219-5.318h24.329a4.564,4.564,0,0,1,3.563,1.577,4.681,4.681,0,0,1,.976,3.873l-.654,3.884a.4.4,0,0,1-.392.332m-1.392-.8h1.056l.6-3.552a3.9,3.9,0,0,0-.8-3.228,3.782,3.782,0,0,0-2.956-1.295H328.145a5.741,5.741,0,0,0-5.434,4.655l-.576,3.42h1.056l.453-2.691a5.2,5.2,0,0,1,4.927-4.213h22.816a3.642,3.642,0,0,1,2.841,1.259,3.731,3.731,0,0,1,.779,3.086Z" transform="translate(-155.752 -139.427)"/>
    <path id="Path_29454" data-name="Path 29454" d="M357.352,285.245H335.982a1.922,1.922,0,0,0-1.822,1.559l-.314,1.867a1.284,1.284,0,0,0,1.3,1.559h21.371a1.921,1.921,0,0,0,1.822-1.559l.314-1.867a1.283,1.283,0,0,0-1.3-1.559" transform="translate(-161.84 -138.289)" fill="#8462d7"/>
    <path id="Path_29455" data-name="Path 29455" d="M356.14,290.254H334.768a1.7,1.7,0,0,1-1.322-.59,1.732,1.732,0,0,1-.366-1.433l.314-1.867a2.306,2.306,0,0,1,2.214-1.891h21.371a1.7,1.7,0,0,1,1.323.59,1.735,1.735,0,0,1,.366,1.433l-.314,1.867a2.305,2.305,0,0,1-2.214,1.891m-20.532-4.986a1.532,1.532,0,0,0-1.43,1.228l-.314,1.867a.953.953,0,0,0,.189.788.916.916,0,0,0,.716.308H356.14a1.533,1.533,0,0,0,1.43-1.228l.314-1.867a.952.952,0,0,0-.189-.788.914.914,0,0,0-.716-.308Z" transform="translate(-161.465 -137.914)"/>
    <path id="Path_29456" data-name="Path 29456" d="M393.293,368.469a.4.4,0,0,1-.2-.743l8.176-4.658V316.42a.4.4,0,1,1,.795,0V363.3a.4.4,0,0,1-.2.346l-8.377,4.772a.392.392,0,0,1-.2.053" transform="translate(-190.478 -153.21)" fill="#8462d7"/>
    <path id="Path_29457" data-name="Path 29457" d="M45.969,105.27h0a2.889,2.889,0,0,1-3.453-2.137L36.094,83.024l5-1.606,6.433,20.145a2.862,2.862,0,0,1-1.556,3.707" transform="translate(-17.499 -39.472)" fill="#8462d7"/>
    <path id="Path_29458" data-name="Path 29458" d="M44.9,105.4a2.925,2.925,0,0,1-1.342-.334,3.721,3.721,0,0,1-1.794-2.189L35.34,82.771a.4.4,0,0,1,.257-.5l5-1.606a.4.4,0,0,1,.5.258l6.433,20.144a3.264,3.264,0,0,1-1.813,4.207,2.663,2.663,0,0,1-.818.128M36.219,82.907l6.3,19.73a2.92,2.92,0,0,0,1.4,1.723,2.025,2.025,0,0,0,1.552.157,2.475,2.475,0,0,0,1.3-3.208L40.46,81.544Z" transform="translate(-17.124 -39.098)"/>
    <path id="Path_29459" data-name="Path 29459" d="M35.131,38.452,21.364,43.914l-5.727,3.6-2.57,2.723-.018.022c-.487.461-.6,1.773-.25,3.222.345,1.433,1.045,2.539,1.684,2.751l-.022.005,3.35,1.219,6.69.561,14.87-1.513,16.262,7.1.119.033c-4.086-1.838-8.435-8.96-10.624-18.061S43.576,28.2,46.377,24.726l0,0-11.1,13.555Z" transform="translate(-6.107 -11.986)" fill="#fff"/>
    <path id="Path_29460" data-name="Path 29460" d="M91.666,39.907C94.383,51.2,92.744,61.266,88,62.386S77.222,55.259,74.5,43.965s-1.078-21.359,3.661-22.479,10.783,7.128,13.5,18.422" transform="translate(-35.484 -10.367)" fill="#5b2eca"/>
    <path id="Path_29461" data-name="Path 29461" d="M86.738,62.512c-4.821,0-10.364-7.9-12.993-18.83-2.012-8.364-1.708-16.377.775-20.415A5.2,5.2,0,0,1,77.7,20.723c3.877-.916,8.513,3.755,11.809,11.9a.4.4,0,0,1-.737.3C85.68,25.28,81.3,20.688,77.884,21.5A4.435,4.435,0,0,0,75.2,23.684c-2.378,3.867-2.644,11.643-.679,19.812,2.661,11.064,8.5,19.2,13.022,18.128a4.435,4.435,0,0,0,2.687-2.186c2.377-3.867,2.644-11.644.679-19.813a49.033,49.033,0,0,0-1.487-5,.4.4,0,1,1,.749-.268,49.743,49.743,0,0,1,1.512,5.087c2.012,8.364,1.708,16.377-.775,20.415A5.2,5.2,0,0,1,87.723,62.4a4.288,4.288,0,0,1-.985.114" transform="translate(-35.111 -9.991)"/>
    <path id="Path_29462" data-name="Path 29462" d="M87.355,62.371c-4.283,0-9.2-7-11.532-16.677-1.781-7.4-1.51-14.5.69-18.078a4.637,4.637,0,0,1,2.841-2.269c2.982-.7,6.46,2.258,9.307,7.923a.4.4,0,0,1-.711.357c-2.63-5.235-5.855-8.111-8.413-7.506a3.875,3.875,0,0,0-2.346,1.912C75.1,31.439,74.863,38.3,76.6,45.507,78.9,55.1,84.148,62.417,88.05,61.495c3.586-.847,5.065-8.167,3.441-17.026a.4.4,0,0,1,.783-.144C94,53.76,92.3,61.307,88.233,62.269a3.828,3.828,0,0,1-.878.1" transform="translate(-36.193 -12.238)" fill="#8462d7"/>
    <path id="Path_29463" data-name="Path 29463" d="M87.214,57.539c.629,2.615.249,4.945-.848,5.205s-2.5-1.65-3.126-4.266-.249-4.945.848-5.2,2.5,1.65,3.126,4.265" transform="translate(-40.208 -25.816)" fill="#8462d7"/>
    <path id="Path_29464" data-name="Path 29464" d="M85.793,62.791c-1.277,0-2.659-1.884-3.311-4.593-.484-2.012-.4-3.958.216-4.959a1.518,1.518,0,0,1,.927-.726c1.352-.318,2.9,1.64,3.6,4.56.484,2.011.4,3.958-.216,4.958a1.514,1.514,0,0,1-.926.726,1.28,1.28,0,0,1-.293.034m-1.869-9.518a.506.506,0,0,0-.116.013.739.739,0,0,0-.432.369,6.486,6.486,0,0,0-.121,4.356c.6,2.49,1.893,4.149,2.648,3.972a.741.741,0,0,0,.432-.369,6.476,6.476,0,0,0,.12-4.355h0c-.569-2.367-1.766-3.985-2.532-3.985" transform="translate(-39.837 -25.442)"/>
    <path id="Path_29465" data-name="Path 29465" d="M55.376,63.668a.383.383,0,0,1-.107-.015l-.119-.033A.342.342,0,0,1,55.1,63.6L38.931,56.541l-14.766,1.5a.347.347,0,0,1-.073,0l-6.69-.561a.369.369,0,0,1-.1-.023l-3.35-1.219a.394.394,0,0,1-.1-.056,4.5,4.5,0,0,1-1.809-2.98c-.384-1.6-.248-3,.344-3.586l0-.005,2.587-2.743a.4.4,0,0,1,.078-.063l5.727-3.6a.366.366,0,0,1,.065-.033l13.671-5.424L45.69,24.1a.4.4,0,0,1,.62.5c-2.813,3.49-3.285,11.735-1.173,20.516s6.3,15.944,10.4,17.791a.4.4,0,0,1-.163.76M38.994,55.737a.4.4,0,0,1,.159.033L52.278,61.5c-3.259-3.258-6.238-9.236-7.914-16.2-1.665-6.92-1.736-13.552-.337-17.919L35.063,38.33a.4.4,0,0,1-.161.117L21.169,43.9l-5.653,3.558-2.537,2.69a.422.422,0,0,1-.033.035,3.662,3.662,0,0,0-.136,2.84,3.642,3.642,0,0,0,1.422,2.466.394.394,0,0,1,.1.049l3.19,1.161,6.6.554,14.833-1.51.04,0" transform="translate(-5.731 -11.612)"/>
    <path id="Path_29466" data-name="Path 29466" d="M54.971,38.412,66.18,24.724l0,0c-2.8,3.475-3.436,11.768-1.25,20.858s6.538,16.223,10.624,18.061l-.119-.033L59.2,56.521l-.377-.163c-1.885-.834-3.885-4.049-4.865-8.166-1.007-4.227-.425-8.049.87-9.615Z" transform="translate(-25.913 -11.986)" fill="#8462d7"/>
    <path id="Path_29467" data-name="Path 29467" d="M75.184,63.669a.4.4,0,0,1-.107-.015l-.119-.033a.405.405,0,0,1-.053-.019l-16.61-7.253c-2.064-.913-4.11-4.3-5.094-8.439-.96-4.028-.569-8.124.949-9.96l.141-.167L65.5,24.1a.4.4,0,0,1,.548-.065.4.4,0,0,1,.072.569c-2.813,3.49-3.285,11.735-1.173,20.516s6.3,15.944,10.4,17.791a.4.4,0,0,1-.163.76M63.835,27.383,54.9,38.289l0,.005-.14.165c-1.154,1.4-1.8,5.028-.786,9.266.916,3.845,2.824,7.092,4.639,7.9l.374.161,13.1,5.721c-3.258-3.258-6.238-9.236-7.913-16.2-1.665-6.92-1.736-13.552-.337-17.92M54.6,38.037h0Z" transform="translate(-25.539 -11.612)"/>
    <path id="Path_29468" data-name="Path 29468" d="M17.253,78.87a.393.393,0,0,1-.136-.024l-3.169-1.154a.389.389,0,0,1-.1-.056,4.5,4.5,0,0,1-1.809-2.98c-.384-1.6-.249-3,.344-3.585l0-.006,2.587-2.742a.4.4,0,1,1,.579.546L12.979,71.6a.417.417,0,0,1-.033.035,3.658,3.658,0,0,0-.136,2.84,3.639,3.639,0,0,0,1.421,2.466.39.39,0,0,1,.1.049L17.389,78.1a.4.4,0,0,1-.136.771" transform="translate(-5.73 -33.063)"/>
    <path id="Path_29469" data-name="Path 29469" d="M17.845,78.851c-1.04-.336-2.148-2.2-2.71-4.536-.6-2.475-.3-4.811.594-5.448l-2.661,2.776-.018.022c-.487.461-.6,1.774-.249,3.222.344,1.433,1.045,2.539,1.683,2.751l-.022.005Z" transform="translate(-6.107 -33.387)" fill="#5b2eca"/>
    <path id="Path_29470" data-name="Path 29470" d="M17.469,78.875a.406.406,0,0,1-.123-.02l-.084-.03-3.311-1.182a.4.4,0,0,1-.105-.056,4.507,4.507,0,0,1-1.809-2.98c-.384-1.6-.248-3,.344-3.586l0-.005.019-.022,2.324-2.424a1.72,1.72,0,0,1,.393-.4.4.4,0,0,1,.518.6l-.3.312c-.508.77-.7,2.664-.195,4.767.579,2.4,1.627,3.928,2.39,4.231l.067.024a.4.4,0,0,1-.133.772m-3.141-1.941,1.451.518a10.875,10.875,0,0,1-1.408-3.418,10.327,10.327,0,0,1-.259-3.673L12.98,71.545a.421.421,0,0,1-.033.035,3.659,3.659,0,0,0-.137,2.84,3.642,3.642,0,0,0,1.422,2.466.394.394,0,0,1,.1.047" transform="translate(-5.731 -33.013)"/>
    <path id="Path_29471" data-name="Path 29471" d="M26.353,76.06l.286.013c-1.558-.057-3.343-2.868-4.206-6.457-.88-3.661-.4-6.981,1.028-7.643l-.191.121-5.43,3.421c-.907.62-1.208,2.969-.609,5.458.578,2.4,1.764,4.3,2.827,4.557Z" transform="translate(-8.203 -30.044)" fill="#8462d7"/>
    <path id="Path_29472" data-name="Path 29472" d="M26.26,76.1h-.039l-.265-.012H25.94l-6.3-.531a.459.459,0,0,1-.06-.01c-1.22-.295-2.5-2.29-3.12-4.851-.64-2.663-.316-5.136.771-5.879l5.323-3.354a1.754,1.754,0,0,1,.355-.22.4.4,0,0,1,.379.7l-.275.174c-.95.8-1.4,3.637-.578,7.04.909,3.78,2.652,6.09,3.819,6.152h.018a.4.4,0,0,1-.017.795m-6.515-1.335,4.718.4a12.756,12.756,0,0,1-2.8-5.825,12.276,12.276,0,0,1-.078-6.326l-3.917,2.468c-.675.462-1.019,2.6-.434,5.029.6,2.49,1.732,4.041,2.507,4.257" transform="translate(-7.824 -29.671)"/>
    <path id="Path_29473" data-name="Path 29473" d="M80.706,53.3c-1.1.259-1.524,2.6-.847,5.205,1.133,4.366,2.9,4.319,3.114,4.3,0,0,0,0,0,.006l-4.289,2a43.244,43.244,0,0,1-2.724-11.19Z" transform="translate(-36.826 -25.838)"/>
    <path id="Path_29474" data-name="Path 29474" d="M78.058,64.965l-.155-.393a43.631,43.631,0,0,1-2.75-11.3l-.042-.41,5.157-.342.118.784a.777.777,0,0,0-.454.4,6.271,6.271,0,0,0-.1,4.323c.856,3.3,2.139,4.062,2.689,4l.337-.035.178.658-.312.142Zm-2.07-11.359a43,43,0,0,0,2.5,10.281L81.465,62.5c-.753-.47-1.709-1.6-2.4-4.276a7.266,7.266,0,0,1,.132-4.834Z" transform="translate(-36.414 -25.464)"/>
    <path id="Path_29475" data-name="Path 29475" d="M243.5,10.429a.4.4,0,0,1-.208-.059L241.87,9.5a.4.4,0,0,1,.416-.678l1.421.871a.4.4,0,0,1-.208.737" transform="translate(-117.168 -4.248)"/>
    <path id="Path_29476" data-name="Path 29476" d="M253.153,16.349a.4.4,0,0,1-.208-.059l-1.421-.871a.4.4,0,0,1,.416-.678l1.421.871a.4.4,0,0,1-.208.737" transform="translate(-121.849 -7.118)"/>
    <path id="Path_29477" data-name="Path 29477" d="M244.516,18.249a.4.4,0,0,1-.34-.6l.863-1.427a.4.4,0,0,1,.681.412l-.863,1.427a.4.4,0,0,1-.341.192" transform="translate(-118.35 -7.77)"/>
    <path id="Path_29478" data-name="Path 29478" d="M250.377,8.559a.4.4,0,0,1-.34-.6L250.9,6.53a.4.4,0,0,1,.681.412l-.863,1.427a.4.4,0,0,1-.341.192" transform="translate(-121.192 -3.073)"/>
    <path id="Path_29479" data-name="Path 29479" d="M18.415,123.693a.4.4,0,0,1-.313-.152l-1.029-1.311a.4.4,0,1,1,.625-.491l1.029,1.311a.4.4,0,0,1-.312.643" transform="translate(-8.236 -58.946)"/>
    <path id="Path_29480" data-name="Path 29480" d="M25.411,132.6a.4.4,0,0,1-.313-.152l-1.029-1.311a.4.4,0,0,1,.625-.491l1.029,1.311a.4.4,0,0,1-.312.643" transform="translate(-11.627 -63.264)"/>
    <path id="Path_29481" data-name="Path 29481" d="M16.185,131.662a.4.4,0,0,1-.248-.709l1.3-1.038a.4.4,0,1,1,.5.622l-1.3,1.038a.4.4,0,0,1-.247.087" transform="translate(-7.653 -62.942)"/>
    <path id="Path_29482" data-name="Path 29482" d="M25.048,124.613a.4.4,0,0,1-.248-.709l1.3-1.038a.4.4,0,0,1,.495.622l-1.3,1.038a.4.4,0,0,1-.247.087" transform="translate(-11.95 -59.525)"/>
    <path id="Path_29483" data-name="Path 29483" d="M377.7,22.887a.4.4,0,0,1-.262-.1A91.361,91.361,0,0,0,350.521,6.54a.4.4,0,0,1,.292-.74,92.176,92.176,0,0,1,27.151,16.391.4.4,0,0,1-.263.7" transform="translate(-169.813 -2.798)"/>
    <path id="Path_29484" data-name="Path 29484" d="M352.023,20.575a.4.4,0,0,1-.246-.086A88.475,88.475,0,0,0,316.91,4a.4.4,0,0,1,.182-.774,89.273,89.273,0,0,1,35.177,16.638.4.4,0,0,1-.247.71" transform="translate(-153.491 -1.559)"/>
    <path id="Path_29485" data-name="Path 29485" d="M24,210.669a.4.4,0,0,1-.375-.265,85.655,85.655,0,0,1-2.385-49.392,87.158,87.158,0,0,1,3.181-10.138.4.4,0,0,1,.742.284A86.347,86.347,0,0,0,22.009,161.2a84.865,84.865,0,0,0,2.362,48.935.4.4,0,0,1-.242.507.386.386,0,0,1-.133.023" transform="translate(-9.061 -73.021)"/>
    <path id="Path_29486" data-name="Path 29486" d="M13.874,225.075a.4.4,0,0,1-.369-.249,96.626,96.626,0,0,1-6.9-31.395,98.662,98.662,0,0,1,4.063-33.289.4.4,0,0,1,.762.228,97.448,97.448,0,0,0,2.813,64.158.4.4,0,0,1-.369.547" transform="translate(-3.143 -77.501)"/>
    <path id="Path_29487" data-name="Path 29487" d="M249.039,413.107a2.661,2.661,0,1,1,2.31-1.33,2.647,2.647,0,0,1-2.31,1.33m.007-4.528a1.867,1.867,0,1,0,.931.25,1.868,1.868,0,0,0-.931-.25" transform="translate(-119.447 -197.696)"/>
    <path id="Path_29488" data-name="Path 29488" d="M226.4,413.889a1.918,1.918,0,1,1,1.665-.959,1.907,1.907,0,0,1-1.665.959m0-3.043a1.134,1.134,0,0,0-.292.039,1.119,1.119,0,1,0,.292-.039" transform="translate(-108.83 -198.795)"/>
  </g>
</svg>
