<svg id="Group_18039" data-name="Group 18039" xmlns="http://www.w3.org/2000/svg" xmlns:xlink="http://www.w3.org/1999/xlink" width="212.005" height="223.538" viewBox="0 0 212.005 223.538">
  <defs>
    <clipPath id="clip-path">
      <rect id="Rectangle_10553" data-name="Rectangle 10553" width="212.005" height="223.538" fill="none"/>
    </clipPath>
  </defs>
  <g id="Group_18038" data-name="Group 18038" clip-path="url(#clip-path)">
    <path id="Path_29592" data-name="Path 29592" d="M45.859,12.924c43.044-23.736,100.711.924,130.76,28.261,8.584,7.81,29.4,27.292,34.314,58.517,6.105,38.788-13.88,85.8-59.714,105.912C101.329,227.5,45.336,217.4,19.229,183.731-5.188,152.239-.09,104.511,1.656,91.264,3.7,75.722,9.8,32.81,45.859,12.924" transform="translate(0 -2.505)" fill="#d6cbf2"/>
    <path id="Path_29593" data-name="Path 29593" d="M37.45,645.7a78.662,78.662,0,0,0,9.666,16.343c26.107,33.673,82.1,43.772,131.99,21.883A100.823,100.823,0,0,0,223.965,645.7Z" transform="translate(-27.887 -480.818)" fill="#d6cbf2"/>
    <rect id="Rectangle_10509" data-name="Rectangle 10509" width="120.783" height="5.873" transform="translate(14.888 65.55)" fill="#8462d7"/>
    <rect id="Rectangle_10510" data-name="Rectangle 10510" width="120.783" height="3.32" transform="translate(15.143 87.004)" fill="#8462d7"/>
    <rect id="Rectangle_10511" data-name="Rectangle 10511" width="120.783" height="3.32" transform="translate(14.633 107.432)" fill="#8462d7"/>
    <rect id="Rectangle_10512" data-name="Rectangle 10512" width="120.783" height="3.32" transform="translate(13.356 130.927)" fill="#8462d7"/>
    <rect id="Rectangle_10513" data-name="Rectangle 10513" width="120.783" height="6.639" transform="translate(10.292 160.543)" fill="#8462d7"/>
    <path id="Path_29594" data-name="Path 29594" d="M50.283,316.634h-9.32a1.66,1.66,0,0,1-1.66-1.66V200.7h10.98Z" transform="translate(-29.267 -149.452)" fill="#8462d7"/>
    <rect id="Rectangle_10514" data-name="Rectangle 10514" width="6.127" height="115.932" transform="translate(46.041 51.251)" fill="#8462d7"/>
    <rect id="Rectangle_10515" data-name="Rectangle 10515" width="5.362" height="115.932" transform="translate(82.558 50.995)" fill="#8462d7"/>
    <rect id="Rectangle_10516" data-name="Rectangle 10516" width="5.362" height="115.932" transform="translate(115.498 50.485)" fill="#8462d7"/>
    <rect id="Rectangle_10517" data-name="Rectangle 10517" width="3.83" height="21.195" transform="translate(32.252 89.043)" fill="#8462d7"/>
    <rect id="Rectangle_10518" data-name="Rectangle 10518" width="28.519" height="91.296" transform="translate(171.912 73.79)" fill="#fff"/>
    <path id="Path_29595" data-name="Path 29595" d="M700.625,379.533H672.107a.383.383,0,0,1-.383-.383v-91.3a.383.383,0,0,1,.383-.383h28.518a.383.383,0,0,1,.383.383v91.3a.383.383,0,0,1-.383.383m-28.135-.766h27.753v-90.53H672.49Z" transform="translate(-500.195 -214.064)" fill="#5b2eca"/>
    <path id="Path_29596" data-name="Path 29596" d="M636.222,380.267H623.5V297.179l12.718-8.208Z" transform="translate(-464.289 -215.18)" fill="#5b2eca"/>
    <path id="Path_29597" data-name="Path 29597" d="M635.1,379.532H622.387a.383.383,0,0,1-.383-.383V296.062a.383.383,0,0,1,.175-.322l12.718-8.208a.383.383,0,0,1,.591.322v91.3a.383.383,0,0,1-.383.383m-12.335-.766h11.952v-90.21l-11.952,7.714Z" transform="translate(-463.172 -214.063)" fill="#5b2eca"/>
    <rect id="Rectangle_10519" data-name="Rectangle 10519" width="4.946" height="77.67" transform="translate(175.311 80.145)" fill="#8462d7"/>
    <rect id="Rectangle_10520" data-name="Rectangle 10520" width="4.946" height="77.67" transform="translate(183.698 80.145)" fill="#8462d7"/>
    <rect id="Rectangle_10521" data-name="Rectangle 10521" width="4.946" height="77.67" transform="translate(192.084 80.145)" fill="#8462d7"/>
    <rect id="Rectangle_10522" data-name="Rectangle 10522" width="17.827" height="66.92" transform="translate(141.898 46.89)" fill="#fff"/>
    <path id="Path_29598" data-name="Path 29598" d="M572.4,249.811H554.57a.383.383,0,0,1-.383-.383v-66.92a.383.383,0,0,1,.383-.383H572.4a.383.383,0,0,1,.383.383v66.92a.383.383,0,0,1-.383.383m-17.444-.766h17.061V182.891H554.953Z" transform="translate(-412.672 -135.618)" fill="#5b2eca"/>
    <rect id="Rectangle_10523" data-name="Rectangle 10523" width="10.664" height="4.584" transform="translate(145.644 50.289)" fill="#5b2eca"/>
    <path id="Path_29599" data-name="Path 29599" d="M532.558,250.545h-7.95V188.756l7.95-5.131Z" transform="translate(-390.647 -136.735)" fill="#5b2eca"/>
    <path id="Path_29600" data-name="Path 29600" d="M531.441,249.811h-7.95a.383.383,0,0,1-.383-.383V187.639a.383.383,0,0,1,.175-.322l7.95-5.131a.383.383,0,0,1,.591.322v66.92a.383.383,0,0,1-.383.383m-7.567-.766h7.184V183.211l-7.184,4.637Z" transform="translate(-389.529 -135.618)" fill="#5b2eca"/>
    <rect id="Rectangle_10524" data-name="Rectangle 10524" width="28.519" height="107.056" transform="translate(138.932 58.03)" fill="#fff"/>
    <path id="Path_29601" data-name="Path 29601" d="M571.474,333.575H542.956a.383.383,0,0,1-.383-.383V226.136a.383.383,0,0,1,.383-.383h28.518a.383.383,0,0,1,.383.383V333.192a.383.383,0,0,1-.383.383m-28.135-.766h27.753V226.519H543.339Z" transform="translate(-404.024 -168.106)" fill="#5b2eca"/>
    <path id="Path_29602" data-name="Path 29602" d="M507.071,334.309H494.353V235.462l12.718-8.209Z" transform="translate(-368.117 -169.223)" fill="#5b2eca"/>
    <path id="Path_29603" data-name="Path 29603" d="M505.954,333.575H493.236a.383.383,0,0,1-.383-.383V234.345a.383.383,0,0,1,.175-.322l12.718-8.209a.383.383,0,0,1,.591.322V333.192a.383.383,0,0,1-.383.383m-12.335-.766h11.952V226.839l-11.952,7.714Z" transform="translate(-367 -168.106)" fill="#5b2eca"/>
    <rect id="Rectangle_10525" data-name="Rectangle 10525" width="20.344" height="4.66" transform="translate(142.681 63.429)" fill="#5b2eca"/>
    <rect id="Rectangle_10526" data-name="Rectangle 10526" width="20.344" height="4.661" transform="translate(142.681 73.107)" fill="#5b2eca"/>
    <rect id="Rectangle_10527" data-name="Rectangle 10527" width="20.344" height="4.661" transform="translate(142.681 82.785)" fill="#5b2eca"/>
    <rect id="Rectangle_10528" data-name="Rectangle 10528" width="20.344" height="4.661" transform="translate(142.681 92.464)" fill="#5b2eca"/>
    <rect id="Rectangle_10529" data-name="Rectangle 10529" width="20.344" height="4.661" transform="translate(142.681 102.142)" fill="#5b2eca"/>
    <rect id="Rectangle_10530" data-name="Rectangle 10530" width="20.344" height="4.661" transform="translate(142.681 111.82)" fill="#5b2eca"/>
    <rect id="Rectangle_10531" data-name="Rectangle 10531" width="20.344" height="4.661" transform="translate(142.681 121.499)" fill="#5b2eca"/>
    <rect id="Rectangle_10532" data-name="Rectangle 10532" width="20.344" height="4.661" transform="translate(142.681 131.177)" fill="#5b2eca"/>
    <rect id="Rectangle_10533" data-name="Rectangle 10533" width="20.344" height="4.661" transform="translate(142.681 140.855)" fill="#5b2eca"/>
    <rect id="Rectangle_10534" data-name="Rectangle 10534" width="20.344" height="4.661" transform="translate(142.681 150.533)" fill="#5b2eca"/>
    <rect id="Rectangle_10535" data-name="Rectangle 10535" width="28.519" height="76.338" transform="translate(104.284 88.748)" fill="#fff"/>
    <path id="Path_29604" data-name="Path 29604" d="M435.788,423.15H407.269a.383.383,0,0,1-.383-.383V346.429a.383.383,0,0,1,.383-.383h28.519a.383.383,0,0,1,.383.383v76.338a.383.383,0,0,1-.383.383m-28.136-.766H435.4V346.812H407.652Z" transform="translate(-302.985 -257.681)" fill="#5b2eca"/>
    <path id="Path_29605" data-name="Path 29605" d="M371.385,423.884H358.667V355.755l12.718-8.209Z" transform="translate(-267.079 -258.798)" fill="#5b2eca"/>
    <path id="Path_29606" data-name="Path 29606" d="M370.268,423.15H357.55a.383.383,0,0,1-.383-.383V354.638a.383.383,0,0,1,.175-.322l12.718-8.209a.383.383,0,0,1,.591.322v76.338a.383.383,0,0,1-.383.383m-12.335-.766h11.952V347.132l-11.952,7.714Z" transform="translate(-265.962 -257.681)" fill="#5b2eca"/>
    <rect id="Rectangle_10536" data-name="Rectangle 10536" width="4.947" height="9.893" transform="translate(107.683 95.103)" fill="#8462d7"/>
    <rect id="Rectangle_10537" data-name="Rectangle 10537" width="4.947" height="9.893" transform="translate(116.07 95.103)" fill="#5b2eca"/>
    <rect id="Rectangle_10538" data-name="Rectangle 10538" width="4.947" height="9.893" transform="translate(124.456 95.103)" fill="#8462d7"/>
    <rect id="Rectangle_10539" data-name="Rectangle 10539" width="4.947" height="9.893" transform="translate(107.683 111.406)" fill="#8462d7"/>
    <rect id="Rectangle_10540" data-name="Rectangle 10540" width="4.947" height="9.893" transform="translate(116.07 111.406)" fill="#5b2eca"/>
    <rect id="Rectangle_10541" data-name="Rectangle 10541" width="4.947" height="9.893" transform="translate(124.456 111.406)" fill="#8462d7"/>
    <rect id="Rectangle_10542" data-name="Rectangle 10542" width="4.947" height="9.893" transform="translate(107.683 127.709)" fill="#8462d7"/>
    <rect id="Rectangle_10543" data-name="Rectangle 10543" width="4.947" height="9.893" transform="translate(116.07 127.709)" fill="#5b2eca"/>
    <rect id="Rectangle_10544" data-name="Rectangle 10544" width="4.947" height="9.893" transform="translate(124.456 127.709)" fill="#8462d7"/>
    <rect id="Rectangle_10545" data-name="Rectangle 10545" width="4.947" height="9.893" transform="translate(107.683 144.012)" fill="#8462d7"/>
    <rect id="Rectangle_10546" data-name="Rectangle 10546" width="4.947" height="9.893" transform="translate(116.07 144.012)" fill="#5b2eca"/>
    <rect id="Rectangle_10547" data-name="Rectangle 10547" width="4.947" height="9.893" transform="translate(124.456 144.012)" fill="#8462d7"/>
    <rect id="Rectangle_10548" data-name="Rectangle 10548" width="18.283" height="26.618" transform="translate(93.021 31.706)" fill="#8462d7"/>
    <path id="Path_29607" data-name="Path 29607" d="M381.447,150.048H363.164a.383.383,0,0,1-.383-.383V123.047a.383.383,0,0,1,.383-.383h18.283a.383.383,0,0,1,.383.383v26.618a.383.383,0,0,1-.383.383m-17.9-.766h17.517V123.43H363.547Z" transform="translate(-270.143 -91.341)"/>
    <rect id="Rectangle_10549" data-name="Rectangle 10549" width="14.116" height="15.191" transform="translate(93.021 35.605)" fill="#5b2eca"/>
    <path id="Path_29608" data-name="Path 29608" d="M377.28,153.889H363.164a.383.383,0,0,1-.383-.383V138.315a.383.383,0,0,1,.383-.383H377.28a.383.383,0,0,1,.383.383v15.191a.383.383,0,0,1-.383.383m-13.733-.766H376.9V138.7H363.547Z" transform="translate(-270.143 -102.71)"/>
    <path id="Path_29609" data-name="Path 29609" d="M402.829,336.782h-8.6a.383.383,0,0,1-.383-.383V227.286a.383.383,0,0,1,.383-.383h8.6a.383.383,0,0,1,.383.383V336.4a.383.383,0,0,1-.383.383m-8.221-.766h7.838V227.669h-7.838Z" transform="translate(-293.272 -168.962)"/>
    <path id="Path_29610" data-name="Path 29610" d="M402.829,32.089h-8.6a.383.383,0,0,1-.383-.383V23.1a.386.386,0,0,1,.025-.136L402.47.247a.383.383,0,0,1,.741.136V31.706a.383.383,0,0,1-.383.383m-8.221-.766h7.838V2.476l-7.838,20.7Z" transform="translate(-293.272 0)"/>
    <path id="Path_29611" data-name="Path 29611" d="M194.669,99.517h-57.78a.383.383,0,0,1-.264-.66l8.6-8.2a.382.382,0,0,1,.264-.106h49.177a.383.383,0,0,1,.383.383v8.2a.383.383,0,0,1-.383.383m-56.823-.766h56.44V91.316h-48.64Z" transform="translate(-101.648 -67.428)"/>
    <path id="Path_29612" data-name="Path 29612" d="M473.345,103.045H434.762a.383.383,0,0,1-.383-.383V95.671a.383.383,0,0,1,.383-.383h38.583a.383.383,0,0,1,.383.383v6.991a.383.383,0,0,1-.383.383m-38.2-.766h37.817V96.054H435.145Z" transform="translate(-323.458 -70.956)"/>
    <path id="Path_29613" data-name="Path 29613" d="M558.213,92.05v9.41H556.2v4.974h-6.587v-4.3h-4.033V92.05Z" transform="translate(-406.26 -68.545)" fill="#8462d7"/>
    <path id="Path_29614" data-name="Path 29614" d="M555.079,105.7h-6.587a.383.383,0,0,1-.383-.383V101.4h-3.65a.383.383,0,0,1-.383-.383V90.933a.383.383,0,0,1,.383-.383H557.1a.383.383,0,0,1,.383.383v9.41a.383.383,0,0,1-.383.383h-1.633v4.591a.383.383,0,0,1-.383.383m-6.2-.766H554.7v-4.591a.383.383,0,0,1,.383-.383h1.633V91.316H544.842v9.316h3.65a.383.383,0,0,1,.383.383Z" transform="translate(-405.143 -67.428)"/>
    <path id="Path_29615" data-name="Path 29615" d="M211.761,99.239a.382.382,0,0,1-.268-.109l-7.8-7.607-8,7.61a.383.383,0,0,1-.528,0l-7.9-7.513-7.944,7.514a.383.383,0,0,1-.527,0l-8.469-8.025a.383.383,0,0,1,.527-.556l8.206,7.776L187,90.814a.383.383,0,0,1,.527,0l7.9,7.513,8-7.613a.383.383,0,0,1,.531,0l7.8,7.6,7.731-7.537a.383.383,0,1,1,.535.549l-8,7.8a.382.382,0,0,1-.267.109" transform="translate(-126.739 -67.352)"/>
    <path id="Path_29616" data-name="Path 29616" d="M455.779,102.844a.383.383,0,0,1-.264-.105l-6.646-6.318-6.68,6.318a.383.383,0,0,1-.527,0L434.5,95.95a.383.383,0,0,1,.527-.556l6.9,6.539,6.68-6.319a.383.383,0,0,1,.527,0l6.645,6.317,6.73-6.4a.383.383,0,0,1,.528.555l-6.994,6.653a.383.383,0,0,1-.264.105" transform="translate(-323.458 -70.956)"/>
    <path id="Path_29617" data-name="Path 29617" d="M394.029,336.783a.383.383,0,0,1-.286-.637l7.8-8.8-7.8-8.3a.383.383,0,0,1,.012-.538l7.9-7.658-7.666-8.407a.383.383,0,0,1,.048-.561l7.715-6-7.889-8.56a.383.383,0,0,1,.011-.53l8.3-8.3-8.35-8.35a.383.383,0,0,1,0-.542l8.451-8.451-8.518-8.518a.383.383,0,0,1,0-.542l7.9-7.9-7.963-7.963a.383.383,0,0,1,0-.542l8.671-8.671a.383.383,0,1,1,.542.542l-8.4,8.4,7.963,7.963a.383.383,0,0,1,0,.542l-7.9,7.9,8.518,8.518a.383.383,0,0,1,0,.542l-8.451,8.451,8.35,8.35a.383.383,0,0,1,0,.542l-8.31,8.31,7.922,8.6a.383.383,0,0,1-.047.562l-7.717,6,7.637,8.376a.383.383,0,0,1-.017.533l-7.9,7.654,7.785,8.279a.383.383,0,0,1,.008.517l-8.033,9.065a.383.383,0,0,1-.287.129" transform="translate(-293.076 -168.962)"/>
    <path id="Path_29618" data-name="Path 29618" d="M402.627,67.059a.383.383,0,0,1-.271-.112l-8.4-8.4a.383.383,0,0,1,.271-.654H401.9l-5.559-5.559a.383.383,0,0,1,.271-.654H401.9l-3.792-3.792a.383.383,0,0,1,.542-.542L403.1,51.79a.383.383,0,0,1-.271.654h-5.288L403.1,58a.383.383,0,0,1-.271.654H395.15l7.749,7.748a.383.383,0,0,1-.271.654" transform="translate(-293.272 -35.171)"/>
    <path id="Path_29619" data-name="Path 29619" d="M216.915,190.828a4.907,4.907,0,0,0,1.008-9.71v-5.011a1.008,1.008,0,1,0-2.016,0v5.915a1.008,1.008,0,0,0,1.008,1.008,2.89,2.89,0,1,1-2.89,2.89,1.008,1.008,0,1,0-2.016,0,4.912,4.912,0,0,0,4.907,4.907" transform="translate(-157.87 -130.386)"/>
    <rect id="Rectangle_10550" data-name="Rectangle 10550" width="16.804" height="3.899" transform="translate(50.642 29.589)" fill="#5b2eca"/>
    <path id="Path_29620" data-name="Path 29620" d="M214.007,119.038H197.2a.383.383,0,0,1-.383-.383v-3.9a.383.383,0,0,1,.383-.383h16.8a.383.383,0,0,1,.383.383v3.9a.383.383,0,0,1-.383.383m-16.421-.766h16.038v-3.132H197.586Z" transform="translate(-146.561 -85.167)"/>
    <path id="Path_29621" data-name="Path 29621" d="M198.32,149.039h16.8v3.9l-5.915,2.285h-4.974l-5.915-2.285Z" transform="translate(-147.678 -110.981)" fill="#5b2eca"/>
    <path id="Path_29622" data-name="Path 29622" d="M208.092,154.489h-4.974a.385.385,0,0,1-.138-.026l-5.915-2.285a.383.383,0,0,1-.245-.357v-3.9a.383.383,0,0,1,.383-.383h16.8a.383.383,0,0,1,.383.383v3.9a.383.383,0,0,1-.245.357l-5.915,2.285a.385.385,0,0,1-.138.026m-4.9-.766h4.831l5.6-2.165v-3.253H197.586v3.253Z" transform="translate(-146.561 -109.864)"/>
    <path id="Path_29623" data-name="Path 29623" d="M250.389,123.506a.739.739,0,0,1,.739.739v6.386a.739.739,0,1,1-1.478,0v-6.386a.739.739,0,0,1,.739-.739" transform="translate(-185.9 -91.968)" fill="#8462d7"/>
    <path id="Path_29624" data-name="Path 29624" d="M249.272,130.637a1.124,1.124,0,0,1-1.123-1.123v-6.386a1.123,1.123,0,0,1,2.245,0v6.386a1.124,1.124,0,0,1-1.123,1.123m0-7.864a.357.357,0,0,0-.356.356v6.386a.356.356,0,1,0,.713,0v-6.386a.357.357,0,0,0-.356-.356" transform="translate(-184.783 -90.851)"/>
    <path id="Path_29625" data-name="Path 29625" d="M207.746,123.506a.739.739,0,0,1,.739.739v6.386a.739.739,0,1,1-1.479,0v-6.386a.739.739,0,0,1,.739-.739" transform="translate(-154.147 -91.968)" fill="#8462d7"/>
    <path id="Path_29626" data-name="Path 29626" d="M206.629,130.637a1.124,1.124,0,0,1-1.122-1.123v-6.386a1.122,1.122,0,1,1,2.245,0v6.386a1.124,1.124,0,0,1-1.122,1.123m0-7.864a.357.357,0,0,0-.356.356v6.386a.356.356,0,1,0,.712,0v-6.386a.357.357,0,0,0-.356-.356" transform="translate(-153.03 -90.851)"/>
    <path id="Path_29627" data-name="Path 29627" d="M193.26,247.014a.383.383,0,0,1-.377-.32c-.274-.886-7.087-11.933-11.792-19.45l-15.622,19.246a.383.383,0,1,1-.595-.483l15.96-19.662a.383.383,0,0,1,.622.038c3.639,5.809,12.111,19.408,12.186,20.213a.383.383,0,0,1-.346.417l-.036,0m-.381-.347c0,.005,0,.012,0,.019s0-.013,0-.019" transform="translate(-122.709 -168.44)"/>
    <rect id="Rectangle_10551" data-name="Rectangle 10551" width="18.003" height="4.821" transform="translate(96.601 161.817)" fill="#5b2eca"/>
    <path id="Path_29628" data-name="Path 29628" d="M399.9,637.779H384.115a.383.383,0,1,1,0-.766H399.52v-4.055h-16a.383.383,0,0,1,0-.766H399.9a.383.383,0,0,1,.383.383V637.4a.383.383,0,0,1-.383.383" transform="translate(-285.3 -470.758)"/>
    <rect id="Rectangle_10552" data-name="Rectangle 10552" width="24.515" height="4.821" transform="translate(93.409 164.784)" fill="#5b2eca"/>
    <path id="Path_29629" data-name="Path 29629" d="M395.9,649.4h0l-22.215-.125a.383.383,0,1,1,0-.766l21.83.123v-4.053H376.538a.383.383,0,0,1,0-.766H395.9a.383.383,0,0,1,.383.383v4.821a.383.383,0,0,1-.383.383" transform="translate(-277.978 -479.41)"/>
    <path id="Path_29630" data-name="Path 29630" d="M187.975,292.074a17.1,17.1,0,1,1-17.1-17.1,17.1,17.1,0,0,1,17.1,17.1" transform="translate(-114.503 -204.756)"/>
    <path id="Path_29631" data-name="Path 29631" d="M191.812,291.566a16.6,16.6,0,1,1-16.6-16.6,16.6,16.6,0,0,1,16.6,16.6" transform="translate(-118.116 -204.756)" fill="#ad97e4"/>
    <path id="Path_29632" data-name="Path 29632" d="M174.1,307.428a16.978,16.978,0,1,1,16.978-16.978A17,17,0,0,1,174.1,307.428m0-33.191a16.212,16.212,0,1,0,16.212,16.212A16.231,16.231,0,0,0,174.1,274.237" transform="translate(-116.999 -203.639)"/>
    <path id="Path_29633" data-name="Path 29633" d="M196.925,299.348A13.927,13.927,0,1,1,183,285.421a13.927,13.927,0,0,1,13.927,13.927" transform="translate(-125.898 -212.537)" fill="#fff"/>
    <path id="Path_29634" data-name="Path 29634" d="M268.345,358.254a.383.383,0,0,1-.322-.591,13.473,13.473,0,0,0,1.608-3.507.383.383,0,0,1,.735.216,14.247,14.247,0,0,1-1.7,3.706.383.383,0,0,1-.322.175" transform="translate(-199.536 -263.516)"/>
    <path id="Path_29635" data-name="Path 29635" d="M202.256,292.539a.383.383,0,0,1-.345-.216,13.457,13.457,0,0,0-12.191-7.636,13.6,13.6,0,0,0-10.93,5.544.383.383,0,1,1-.618-.453,14.314,14.314,0,0,1,24.428,2.211.383.383,0,0,1-.344.55" transform="translate(-132.62 -211.42)"/>
    <path id="Path_29636" data-name="Path 29636" d="M181.881,333.3A14.314,14.314,0,0,1,169.394,312a.383.383,0,1,1,.668.375,13.548,13.548,0,0,0,11.819,20.163.383.383,0,1,1,0,.766" transform="translate(-124.781 -232.183)"/>
    <path id="Path_29637" data-name="Path 29637" d="M512.944,399.263c-.46-.036-2.717,4.586-9.78,4.392s-12.729-8.1-12.729-8.1-2.439-4.113-4.29-5.6S484,388.275,484,388.275a1.508,1.508,0,0,0,0,1.683,26.432,26.432,0,0,0,2.183,2.612,2.346,2.346,0,0,0-.969,2.988,3.585,3.585,0,0,0,3.5,2.135s5.237,23.185,26.879,12.168Z" transform="translate(-360.218 -289.127)" fill="#fff"/>
    <path id="Path_29638" data-name="Path 29638" d="M503.736,412.1a14.388,14.388,0,0,1-6.188-1.344c-7.245-3.4-9.808-12.051-10.259-13.8a3.879,3.879,0,0,1-3.551-2.375,2.693,2.693,0,0,1,.747-3.19,22.291,22.291,0,0,1-1.927-2.345,1.885,1.885,0,0,1,.017-2.119.383.383,0,0,1,.521-.087c.013.008.325.222,2.167,1.7s4.179,5.367,4.371,5.688c.257.351,5.76,7.742,12.42,7.925a10.589,10.589,0,0,0,8.941-3.773c.394-.44.574-.641.858-.618a.383.383,0,0,1,.342.289l2.647,10.6a.383.383,0,0,1-.2.434,24.337,24.337,0,0,1-10.907,3.012m-16.147-15.9a.384.384,0,0,1,.374.3c.023.1,2.349,10.022,9.914,13.57,4.479,2.1,9.91,1.588,16.146-1.523l-2.42-9.689-.039.043a11.381,11.381,0,0,1-9.1,4.034c-.142,0-.286,0-.432-.006-7.171-.2-12.794-7.928-13.03-8.257l-.018-.028c-.024-.041-2.425-4.071-4.2-5.5-.916-.736-1.447-1.154-1.748-1.386a1.136,1.136,0,0,0,.169.882,26.289,26.289,0,0,0,2.139,2.556.383.383,0,0,1-.094.6,1.963,1.963,0,0,0-.8,2.511,3.173,3.173,0,0,0,3.113,1.893h.026" transform="translate(-359.095 -288.01)"/>
    <path id="Path_29639" data-name="Path 29639" d="M618.256,415.774s-2.119-13.68-9.608-17.046-17.619-2.9-20.412-1.217-10.075,9.281-10.075,9.281L583.333,417s1.859,8.146,3.021,14.53c0,0,5.091,15.645,8.126,14.45s11.812-6.242,15.25-14.006l1.672-17.286Z" transform="translate(-430.524 -295.04)" fill="#5b2eca"/>
    <path id="Path_29640" data-name="Path 29640" d="M593.02,445.288a1.606,1.606,0,0,1-.686-.166c-3.159-1.49-7.287-14.079-7.461-14.614a.369.369,0,0,1-.013-.05c-1.1-6.056-2.856-13.8-3.008-14.467L576.7,405.828a.383.383,0,0,1,.065-.438c.3-.312,7.349-7.656,10.154-9.344,3.045-1.833,13.335-2.145,20.767,1.2,7.591,3.412,9.741,16.77,9.829,17.337a.383.383,0,0,1-.439.437l-6.451-1.026-1.633,16.881a.387.387,0,0,1-.031.118c-3.555,8.027-12.579,13.073-15.46,14.207a1.312,1.312,0,0,1-.484.092M585.609,430.3c1.166,3.577,4.681,13.016,7.051,14.133a.691.691,0,0,0,.563.054c2.8-1.1,11.547-5.988,15.015-13.748l1.666-17.224a.383.383,0,0,1,.442-.341l6.321,1c-.48-2.514-2.9-13.36-9.293-16.234-7.439-3.344-17.459-2.8-20.058-1.238-2.471,1.487-8.649,7.824-9.807,9.022l5.049,9.963a.377.377,0,0,1,.032.088c.019.081,1.869,8.206,3.02,14.521" transform="translate(-429.407 -293.903)"/>
    <path id="Path_29641" data-name="Path 29641" d="M628.6,463.947,627.28,440.5a1.144,1.144,0,0,0-1.144-1.129H612.647a1.144,1.144,0,0,0-1.144,1.132l-.261,23.915Z" transform="translate(-455.158 -327.177)" fill="#10005c"/>
    <path id="Path_29642" data-name="Path 29642" d="M663.031,412.278h.052a1,1,0,0,0,.946-1.048c-.283-5.507.944-7.959,2.023-9.048a9.8,9.8,0,0,1,2.861-1.7c.553.024-1.032-.6-1.583-.629-.187-.008-1.111-.678-2.7.92-1.982,2-2.857,5.55-2.6,10.556a1,1,0,0,0,1,.947" transform="translate(-492.948 -297.641)" fill="#10005c"/>
    <path id="Path_29643" data-name="Path 29643" d="M615.478,409.446l.056,0a1,1,0,0,0,.941-1.052c-.6-11.407,2.976-11.744,2.856-12.282s-1.609.147-2.147.267c-.724.161-2.8.813-2.7,12.126a.981.981,0,0,0,1,.943" transform="translate(-457.567 -294.809)" fill="#10005c"/>
    <path id="Path_29644" data-name="Path 29644" d="M592.171,462.789h14.571l-4.564-16.277H587.607Z" transform="translate(-437.558 -332.493)" fill="#d6cbf2"/>
    <path id="Path_29645" data-name="Path 29645" d="M640.864,463.4l-7.375-3.3s1.039,12.5-13.882,6.725a10.634,10.634,0,0,0,.473-3.481c-.078-1.876-1.2-.061-1.357,1.464s-3.66.905-5.765.3-4.868-.207,0,2.478,5.935,1.487,5.935,1.487,6.217,8.7,13.952,6.851c9.515-2.273,8.019-12.533,8.019-12.533" transform="translate(-454.417 -342.613)" fill="#fff"/>
    <path id="Path_29646" data-name="Path 29646" d="M629.511,475.461c-6.09,0-10.789-5.622-11.84-6.989-.674.275-2.321.381-6.021-1.66-2.27-1.252-3.151-2.129-2.856-2.845.36-.874,2.215-.6,3.146-.337,1.966.561,4.293.895,5.06.376a.453.453,0,0,0,.219-.351c.1-.948.672-2.625,1.451-2.606.622.019.658.882.67,1.166a11.064,11.064,0,0,1-.386,3.266c4.732,1.772,8.254,1.831,10.473.174,2.887-2.157,2.562-6.593,2.558-6.637a.383.383,0,0,1,.538-.381l7.375,3.3a.382.382,0,0,1,.223.294c.015.106,1.434,10.633-8.309,12.96a9.872,9.872,0,0,1-2.3.272m-11.719-7.907a.373.373,0,0,1,.289.188c.061.085,6.159,8.468,13.552,6.7,8.436-2.016,7.913-10.428,7.754-11.9l-6.62-2.96c-.008,1.4-.312,4.761-2.878,6.681-2.495,1.867-6.378,1.8-11.543-.2a.383.383,0,0,1-.224-.481,10.335,10.335,0,0,0,.452-3.342c0-.1-.011-.181-.019-.246a4.29,4.29,0,0,0-.574,1.733,1.219,1.219,0,0,1-.551.907c-1.3.883-4.693.014-5.7-.273a3.65,3.65,0,0,0-2.219-.11c.03.1.29.661,2.509,1.885,4.387,2.419,5.471,1.56,5.481,1.551a.318.318,0,0,1,.289-.139Z" transform="translate(-453.294 -341.496)"/>
    <path id="Path_29647" data-name="Path 29647" d="M645.531,349.228c.637.583,1.882,1.3,2.857.8a2.528,2.528,0,0,0,1.106-2.4,1.455,1.455,0,0,0,1.091-.274c.484-.428.393-1.215.374-1.732-.087-2.387,1.3-2.753.96-4.373a3.85,3.85,0,0,0-1.454-2.174c-.944-.716-1.584-.485-3.171-.9-2.671-.7-5.14,4.227-4.1,5.161,1.821,1.638.446,4.152,2.339,5.884" transform="translate(-478.769 -251.775)"/>
    <path id="Path_29648" data-name="Path 29648" d="M631.778,351.584l.105-.091a3.259,3.259,0,0,0,1.219-1.668c.6-2.906,3.258-3.961,3.381-1.292.031.673,2.49.638,2.2,1.345-.761,1.842-.778,1.347.3,2.026a.926.926,0,0,1,.356.085,1.231,1.231,0,0,1,.435,1.67,1.426,1.426,0,0,1-.874.783v2.911a2.687,2.687,0,0,0,1.67,2.487l.983.4a8.5,8.5,0,0,1-9.235-.293l.621-.279a3.132,3.132,0,0,0,1.849-2.76l.005-.569a2.43,2.43,0,0,1-.9-.075c-1.3-.378-1.734-1.878-1.512-3.741l-.53-.285a.4.4,0,0,1-.072-.655" transform="translate(-470.346 -258.39)" fill="#fff"/>
    <path id="Path_29649" data-name="Path 29649" d="M635.9,360.743a8.386,8.386,0,0,1-4.92-1.6.383.383,0,0,1,.064-.662l.621-.279a2.765,2.765,0,0,0,1.623-2.422v-.165a2.619,2.619,0,0,1-.616-.1c-1.344-.391-2-1.8-1.813-3.894l-.3-.163a.783.783,0,0,1-.141-1.283l.105-.091a2.959,2.959,0,0,0,1.094-1.455c.418-2.035,1.778-3.209,2.8-3.129.293.023,1.249.225,1.338,1.861a3.244,3.244,0,0,0,.868.323c.594.166,1.108.311,1.293.691a.63.63,0,0,1,.01.53c-.111.27-.207.49-.286.671-.09.208-.177.407-.212.518.042.025.1.054.149.082.107.057.247.132.415.235a1.288,1.288,0,0,1,.395.112A1.612,1.612,0,0,1,639,352.7a1.847,1.847,0,0,1-.838.881v2.651a2.3,2.3,0,0,0,1.432,2.132l.983.4a.383.383,0,0,1,.064.675,9.584,9.584,0,0,1-4.745,1.3m-3.9-1.85a8.044,8.044,0,0,0,7.534.276l-.225-.092a3.059,3.059,0,0,1-1.908-2.842v-2.911a.383.383,0,0,1,.278-.368,1.049,1.049,0,0,0,.632-.576.868.868,0,0,0-.25-1.16.546.546,0,0,0-.211-.049.382.382,0,0,1-.188-.059c-.179-.113-.328-.193-.447-.257-.783-.418-.635-.759-.278-1.581.07-.161.153-.352.249-.583a4.193,4.193,0,0,0-.771-.266c-.687-.193-1.4-.392-1.424-.991-.016-.337-.109-1.126-.635-1.167-.593-.045-1.64.824-1.988,2.519a3.58,3.58,0,0,1-1.344,1.881l-.105.091h0a.015.015,0,0,0-.006.015l.539.3a.383.383,0,0,1,.2.383c-.1.863-.187,2.914,1.239,3.329a2.052,2.052,0,0,0,.755.061.383.383,0,0,1,.417.385l-.005.569a3.54,3.54,0,0,1-2.055,3.1m-1.333-8.425h0Z" transform="translate(-469.229 -257.274)"/>
    <path id="Path_29650" data-name="Path 29650" d="M642.85,377.932a.383.383,0,0,1-.058-.762,3.437,3.437,0,0,0,2.343-1.5.383.383,0,0,1,.664.382,4.189,4.189,0,0,1-2.891,1.874.377.377,0,0,1-.058,0" transform="translate(-478.41 -279.599)"/>
    <path id="Path_29651" data-name="Path 29651" d="M634.066,331.206a6.231,6.231,0,1,1,10.945,5.748Z" transform="translate(-472.153 -243.621)" fill="#5b2eca"/>
    <path id="Path_29652" data-name="Path 29652" d="M643.893,336.214a.382.382,0,0,1-.178-.044l-10.945-5.748a.383.383,0,0,1-.18-.474,6.613,6.613,0,1,1,12.046,5.4,6.736,6.736,0,0,1-.428.7.383.383,0,0,1-.315.165m-10.459-6.309,10.33,5.425c.069-.113.133-.225.194-.339a5.848,5.848,0,0,0-10.354-5.438c-.06.114-.116.23-.169.352" transform="translate(-471.036 -242.498)"/>
    <path id="Path_29653" data-name="Path 29653" d="M637.68,349.785l-.1-1.3-10.945-5.748-2.548-.089Z" transform="translate(-464.721 -255.149)" fill="#5b2eca"/>
    <path id="Path_29654" data-name="Path 29654" d="M636.563,349.052a.383.383,0,0,1-.178-.044l-13.595-7.139a.383.383,0,0,1,.192-.722l2.548.089a.382.382,0,0,1,.165.044l10.945,5.748a.383.383,0,0,1,.2.309l.1,1.3a.383.383,0,0,1-.382.413m-11.931-7.081,11.5,6.037-.031-.4L625.416,342Z" transform="translate(-463.605 -254.032)"/>
    <path id="Path_29655" data-name="Path 29655" d="M663.982,366.268a.333.333,0,0,0,.242-.562,3.32,3.32,0,0,1-1.034-2.887.333.333,0,1,0-.645-.162,3.947,3.947,0,0,0,1.2,3.507.333.333,0,0,0,.242.1" transform="translate(-493.316 -269.863)" fill="#fff"/>
    <path id="Path_29656" data-name="Path 29656" d="M637.282,335.182a.383.383,0,0,1-.322-.59c2.625-4.095,7-2.917,8.166-2.511l.528-.717a.383.383,0,0,1,.617.454l-.7.951a.384.384,0,0,1-.463.123c-.2-.086-4.828-2.06-7.5,2.113a.383.383,0,0,1-.323.176" transform="translate(-474.263 -246.632)"/>
    <path id="Path_29657" data-name="Path 29657" d="M639.392,358.923a5.371,5.371,0,0,1-2.742-1.278.383.383,0,0,1,.491-.588c.658.548,1.928,1.317,2.535,1.048.35-.155.444-.71.462-1.148a.383.383,0,0,1,.766.031c-.038.953-.347,1.565-.917,1.818a1.453,1.453,0,0,1-.594.118" transform="translate(-473.975 -265.532)"/>
    <path id="Path_29658" data-name="Path 29658" d="M690.356,771.3l-.528,5.029-3.4.4v-5.963Z" transform="translate(-511.144 -573.943)" fill="#fff"/>
    <path id="Path_29659" data-name="Path 29659" d="M685.31,775.991a.383.383,0,0,1-.383-.383v-5.963a.383.383,0,0,1,.435-.379l3.928.535a.383.383,0,0,1,.329.42l-.528,5.029a.383.383,0,0,1-.336.34l-3.4.4-.045,0m.383-5.908v5.094l2.668-.313.457-4.355Z" transform="translate(-510.027 -572.826)"/>
    <path id="Path_29660" data-name="Path 29660" d="M680.535,794.957a23.757,23.757,0,0,0,6.469,0,1.52,1.52,0,0,0,1.271-1.867c-.6-2.442-1.636-7.073-3.412-9.219l-.442,1.164-.609-1.1a.54.54,0,0,0-.4-.273l-1.335-.169a.54.54,0,0,0-.6.424l-.212,1.01L680.8,783.6l-1.553,9.653a1.516,1.516,0,0,0,1.288,1.7" transform="translate(-505.787 -583.42)" fill="#5b2eca"/>
    <path id="Path_29661" data-name="Path 29661" d="M682.632,794.444a23.613,23.613,0,0,1-3.268-.224,1.905,1.905,0,0,1-1.615-2.132l1.555-9.664a.383.383,0,0,1,.74-.066l.038.107A.929.929,0,0,1,681,782l1.335.169a.926.926,0,0,1,.69.467l.209.376.149-.393a.383.383,0,0,1,.653-.109c1.712,2.069,2.744,6.311,3.36,8.846l.128.526a1.9,1.9,0,0,1-1.591,2.338,24.129,24.129,0,0,1-3.307.227m-2.808-10.428-1.317,8.184a1.134,1.134,0,0,0,.964,1.262,23.311,23.311,0,0,0,6.363,0,1.145,1.145,0,0,0,.789-.49,1.12,1.12,0,0,0,.163-.907l-.129-.528c-.549-2.256-1.435-5.9-2.8-7.988l-.191.5a.383.383,0,0,1-.693.051l-.61-1.1a.158.158,0,0,0-.117-.079l-1.335-.169a.157.157,0,0,0-.173.123l-.212,1.01a.383.383,0,0,1-.7.126" transform="translate(-504.67 -582.304)"/>
    <path id="Path_29662" data-name="Path 29662" d="M686.6,820.652a16.879,16.879,0,0,1-4.237-.542.383.383,0,0,1,.21-.736,15.613,15.613,0,0,0,6.762.224.383.383,0,0,1,.17.747,13.143,13.143,0,0,1-2.905.307" transform="translate(-507.91 -610.131)"/>
    <path id="Path_29663" data-name="Path 29663" d="M692.524,807.241h-.013l-3.187-.105a.383.383,0,0,1-.37-.4.387.387,0,0,1,.4-.37l3.187.105a.383.383,0,0,1-.012.766" transform="translate(-513.025 -600.458)"/>
    <path id="Path_29664" data-name="Path 29664" d="M625.464,762.371l-.51,7.339h-4.092l-.19-7.339Z" transform="translate(-462.179 -567.695)" fill="#fff"/>
    <path id="Path_29665" data-name="Path 29665" d="M623.837,768.976h-4.092a.383.383,0,0,1-.383-.373l-.19-7.339a.383.383,0,0,1,.383-.393h4.792a.383.383,0,0,1,.382.41l-.51,7.339a.383.383,0,0,1-.382.356m-3.719-.766h3.361l.456-6.573h-3.988Z" transform="translate(-461.062 -566.578)"/>
    <path id="Path_29666" data-name="Path 29666" d="M595.238,785.665a1.477,1.477,0,0,1-1.14,1.461c-2.352.548-7.651,1.767-9.163,1.992-1.962.292-4.373-.309-5.409-1.456s2.321-3.888,3.915-4.884c2.367-1.481,4.641-4.408,5.6-4.54s2.734,2.635,2.734,2.635l2.91-1.222a36.031,36.031,0,0,1,.56,6.015" transform="translate(-431.394 -579.507)" fill="#5b2eca"/>
    <path id="Path_29667" data-name="Path 29667" d="M582.8,788.459a6.686,6.686,0,0,1-4.676-1.656,1.166,1.166,0,0,1-.28-.974c.227-1.625,3.238-3.843,4.276-4.491a22.236,22.236,0,0,0,3.26-2.722c1.2-1.143,1.914-1.793,2.486-1.872.99-.137,2.337,1.658,2.931,2.538l2.617-1.1a.383.383,0,0,1,.523.277,36.037,36.037,0,0,1,.567,6.085,1.87,1.87,0,0,1-1.436,1.84c-2.253.525-7.659,1.769-9.194,2a7.332,7.332,0,0,1-1.075.077M588,777.5l-.028,0a8.234,8.234,0,0,0-2.064,1.669,22.777,22.777,0,0,1-3.381,2.815c-1.51.945-3.776,2.894-3.923,3.948a.4.4,0,0,0,.09.355c.917,1.015,3.191,1.614,5.069,1.334,1.507-.224,6.889-1.463,9.133-1.986a1.1,1.1,0,0,0,.844-1.083,38.155,38.155,0,0,0-.469-5.482l-2.468,1.037a.384.384,0,0,1-.471-.146c-.763-1.185-1.891-2.465-2.331-2.465" transform="translate(-430.278 -578.392)"/>
    <path id="Path_29668" data-name="Path 29668" d="M586.1,808.059a5.567,5.567,0,0,1-3.754-1.077.383.383,0,1,1,.514-.569c2.963,2.676,13.214-1.469,13.317-1.511a.383.383,0,1,1,.29.709c-.324.133-6.054,2.447-10.367,2.447" transform="translate(-433.545 -599.345)"/>
    <path id="Path_29669" data-name="Path 29669" d="M607.993,792.256a.382.382,0,0,1-.256-.1l-2.081-1.877a.383.383,0,1,1,.513-.569l2.081,1.877a.383.383,0,0,1-.257.667" transform="translate(-450.903 -587.98)"/>
    <path id="Path_29670" data-name="Path 29670" d="M630.4,534.941s2.434,32.843,3.1,40.764-1.552,20.651-1.552,20.651l-6.316-.332s-.433-15.48-.9-19.778a49.412,49.412,0,0,1-3.459-11.025,108.689,108.689,0,0,0-3.484-13.407s-2.187,40.975-2.4,44.194c0,0-4.953.22-6.728-.9,0,0-3.146-14.941-2.695-23.069s1.061-37.544,1.061-37.544l15.869.234Z" transform="translate(-451.194 -398.011)" fill="#10005c"/>
    <path id="Path_29671" data-name="Path 29671" d="M684.944,697.249h-1.931a.383.383,0,0,1,0-.766h1.931a.383.383,0,1,1,0,.766" transform="translate(-508.316 -518.632)" fill="#fff"/>
    <path id="Path_29672" data-name="Path 29672" d="M616.4,712.519a.383.383,0,0,1-.383-.376c-.067-3.631-4.276-10.5-4.318-10.574a.383.383,0,0,1,.652-.4c.178.289,4.361,7.123,4.431,10.961a.383.383,0,0,1-.376.39H616.4" transform="translate(-455.455 -521.985)" fill="#fff"/>
    <path id="Path_29673" data-name="Path 29673" d="M424.195,805.351q-1.627,0-3.253-.065a.383.383,0,1,1,.031-.765,82.944,82.944,0,0,0,29.057-4.1.383.383,0,1,1,.237.729,84.088,84.088,0,0,1-26.072,4.2" transform="translate(-313.178 -596.018)"/>
    <path id="Path_29674" data-name="Path 29674" d="M552.171,790.7a.383.383,0,0,1-.137-.741c1.249-.479,2.507-.994,3.741-1.531a.383.383,0,0,1,.306.7c-1.244.542-2.513,1.061-3.772,1.544a.383.383,0,0,1-.137.026" transform="translate(-410.886 -587.076)"/>
    <path id="Path_29675" data-name="Path 29675" d="M446.495,768.158a.383.383,0,0,1-.018-.766,78.157,78.157,0,0,0,34.247-9.933.383.383,0,0,1,.371.67,78.916,78.916,0,0,1-34.58,10.028h-.019" transform="translate(-332.195 -564.002)"/>
    <path id="Path_29676" data-name="Path 29676" d="M655.319,73.279a.383.383,0,0,1-.383-.383V70.915a.383.383,0,1,1,.766,0V72.9a.383.383,0,0,1-.383.383" transform="translate(-487.694 -52.521)"/>
    <path id="Path_29677" data-name="Path 29677" d="M655.319,91.35a.383.383,0,0,1-.383-.383V88.986a.383.383,0,1,1,.766,0v1.981a.383.383,0,0,1-.383.383" transform="translate(-487.694 -65.978)"/>
    <path id="Path_29678" data-name="Path 29678" d="M644.385,84.213H642.4a.383.383,0,0,1,0-.766h1.981a.383.383,0,1,1,0,.766" transform="translate(-478.077 -62.138)"/>
    <path id="Path_29679" data-name="Path 29679" d="M662.457,84.213h-1.981a.383.383,0,0,1,0-.766h1.981a.383.383,0,1,1,0,.766" transform="translate(-491.534 -62.138)"/>
    <path id="Path_29680" data-name="Path 29680" d="M688.677,117.249a2.991,2.991,0,0,1-1.084-.2,3.038,3.038,0,0,1-1.7-1.645,3.117,3.117,0,0,1,1.554-4.07,2.97,2.97,0,0,1,2.309-.06,3.039,3.039,0,0,1,1.7,1.645,3.117,3.117,0,0,1-1.554,4.07,2.986,2.986,0,0,1-1.225.265m0-5.418a2.222,2.222,0,0,0-.911.2A2.348,2.348,0,0,0,686.6,115.1a2.278,2.278,0,0,0,1.271,1.234,2.208,2.208,0,0,0,1.718-.045,2.347,2.347,0,0,0,1.165-3.068,2.277,2.277,0,0,0-1.271-1.234,2.223,2.223,0,0,0-.806-.152m-1.068-.152h0Z" transform="translate(-510.558 -82.704)"/>
    <path id="Path_29681" data-name="Path 29681" d="M84.918,509.045l-9.5-4.763a97.227,97.227,0,0,1-21.306-14.493l-.35-2.95s-3.292.036-3.994,0a3.434,3.434,0,0,0-2.543.938A109.59,109.59,0,0,1,22.033,505.5l-6.487,3.311c-1.507.769-2.108,2.125-1.748,4.074l6.79,35.032c3.189,9.8,17.164,22.915,25.055,29.742a7.587,7.587,0,0,0,5.039,1.837c.8-.005,4.125.1,4.125.1a11.5,11.5,0,0,1,1.736-2.348c7.674-7.472,21.194-21.855,24.3-33.181l5.685-31.312a3.173,3.173,0,0,0-1.606-3.713" transform="translate(-10.199 -362.514)" fill="#fff"/>
    <path id="Path_29682" data-name="Path 29682" d="M53.984,579.061a.281.281,0,0,0,.246-.146,11.3,11.3,0,0,1,1.686-2.281c7.766-7.561,21.258-21.941,24.37-33.308,0-.008,0-.016.005-.024L85.975,512a3.438,3.438,0,0,0-1.754-4.025l-9.5-4.763a97.022,97.022,0,0,1-21.166-14.38l-.337-2.845a.281.281,0,0,0-.279-.248h0c-.033,0-3.291.036-3.975,0a3.727,3.727,0,0,0-2.751,1.013,109.238,109.238,0,0,1-25.127,17.683L14.6,507.744c-1.64.837-2.279,2.309-1.9,4.375l6.791,35.034a.3.3,0,0,0,.009.034c3.2,9.832,17.123,22.933,25.138,29.868a7.92,7.92,0,0,0,5.225,1.905c.79-.006,4.081.1,4.114.1h.009m25.758-35.871c-3.084,11.236-16.5,25.524-24.217,33.042a11.38,11.38,0,0,0-1.7,2.263c-.694-.022-3.264-.1-3.966-.1A7.326,7.326,0,0,1,45,576.63c-7.966-6.893-21.8-19.9-24.966-29.6l-6.787-35.015c-.336-1.816.188-3.05,1.6-3.771l6.487-3.311a109.787,109.787,0,0,0,25.256-17.774,3.171,3.171,0,0,1,2.335-.862c.6.034,2.972.015,3.761.007l.32,2.7a.279.279,0,0,0,.091.176,97.573,97.573,0,0,0,21.368,14.535l9.5,4.763.126-.251-.126.251a2.882,2.882,0,0,1,1.461,3.388c0,.008,0,.016-.005.024Z" transform="translate(-9.377 -361.696)"/>
    <path id="Path_29683" data-name="Path 29683" d="M100.732,510.286l-9.426-4.726a96.477,96.477,0,0,1-21.14-14.38l-2.389-2.14a3.291,3.291,0,0,0-4.444.139,108.734,108.734,0,0,1-25,17.59L31.9,510.055a3.407,3.407,0,0,0-1.734,4.043L36.9,548.857c3.164,9.724,17.18,22.859,25.009,29.633a7.9,7.9,0,0,0,10.666-.529c7.614-7.414,21.029-21.685,24.106-32.923l5.64-31.069a3.149,3.149,0,0,0-1.593-3.684" transform="translate(-22.346 -363.568)" fill="#5b2eca"/>
    <path id="Path_29684" data-name="Path 29684" d="M112.353,537.507l-7.8-3.913a79.878,79.878,0,0,1-17.5-11.906l-1.978-1.772a2.725,2.725,0,0,0-3.679.115,90.031,90.031,0,0,1-20.7,14.564l-5.33,2.72a2.821,2.821,0,0,0-1.436,3.347l5.578,28.78c2.62,8.051,14.225,18.927,20.707,24.535a6.544,6.544,0,0,0,8.831-.438c6.3-6.138,17.411-17.954,19.959-27.259l4.67-25.724a2.607,2.607,0,0,0-1.319-3.05" transform="translate(-40.059 -386.661)" fill="#ad97e4"/>
    <path id="Path_29685" data-name="Path 29685" d="M66.045,579.736a8.5,8.5,0,0,0,5.916-2.415c7.705-7.5,21.093-21.771,24.181-33.049,0-.008,0-.016.006-.024l1.458-8.031a.28.28,0,1,0-.552-.1L95.6,544.135c-3.06,11.148-16.367,25.324-24.028,32.784a7.668,7.668,0,0,1-10.287.518c-7.961-6.888-21.781-19.875-24.921-29.491L29.627,513.2c0-.011-.005-.022-.008-.033a3.132,3.132,0,0,1,1.595-3.706l6.437-3.285a108.943,108.943,0,0,0,25.06-17.636,3.029,3.029,0,0,1,4.065-.135l1.652,1.479a.281.281,0,1,0,.375-.418l-1.652-1.479a3.55,3.55,0,0,0-4.823.144A108.384,108.384,0,0,1,37.4,505.679l-6.437,3.285a3.7,3.7,0,0,0-1.879,4.362l6.734,34.743a.3.3,0,0,0,.009.033c3.172,9.747,17.083,22.828,25.093,29.758a7.8,7.8,0,0,0,5.129,1.875" transform="translate(-21.532 -362.727)"/>
    <path id="Path_29686" data-name="Path 29686" d="M235.484,534.21a.281.281,0,0,0,.126-.531l-6.422-3.22a96.746,96.746,0,0,1-13.737-8.387.28.28,0,1,0-.331.453,97.263,97.263,0,0,0,13.816,8.436l6.423,3.22a.279.279,0,0,0,.125.03" transform="translate(-160.102 -388.717)"/>
    <path id="Path_29687" data-name="Path 29687" d="M107.468,838.926l55.461-.942c9.156,1.478,12.159.514,10.44,4.082a2.205,2.205,0,0,1-1.152.739,19.187,19.187,0,0,1-5.559.648c-16.947.41-48.3-.533-57.472-1.6a2.125,2.125,0,0,1-1.718-2.928" transform="translate(-79.902 -624)" fill="#5b2eca"/>
    <path id="Path_29688" data-name="Path 29688" d="M156.463,843.015c3.385,0,6.561-.031,9.382-.1a19.33,19.33,0,0,0,5.635-.661,2.423,2.423,0,0,0,1.322-.885c.52-1.079.619-1.76.331-2.28-.5-.908-2.047-1.082-5.127-1.428-1.562-.175-3.506-.393-5.853-.773a.3.3,0,0,0-.05,0l-55.461.943a.28.28,0,0,0-.254.173,2.406,2.406,0,0,0,1.945,3.314c7.383.858,30.54,1.7,48.129,1.7m5.625-5.568c2.35.379,4.293.6,5.855.772,2.7.3,4.337.487,4.7,1.141.184.332.074.893-.346,1.765a2.01,2.01,0,0,1-.982.593,18.658,18.658,0,0,1-5.483.636c-17.459.422-48.646-.576-57.433-1.6a1.845,1.845,0,0,1-1.553-2.372Z" transform="translate(-79.082 -623.182)"/>
    <path id="Path_29689" data-name="Path 29689" d="M107.831,833.85l55.461-.943c9.156,1.479,11.846,2.69,10.44,4.082a2.074,2.074,0,0,1-.951.521,21.368,21.368,0,0,1-5.76.866c-16.947.41-48.3-.533-57.472-1.6a2.125,2.125,0,0,1-1.718-2.928" transform="translate(-80.173 -620.219)" fill="#fff"/>
    <path id="Path_29690" data-name="Path 29690" d="M156.826,837.938c3.385,0,6.56-.031,9.381-.1a21.007,21.007,0,0,0,5.581-.812l.242-.062a2.357,2.357,0,0,0,1.079-.594,1.1,1.1,0,0,0,.39-1.146c-.288-.9-1.817-1.932-10.983-3.412a.286.286,0,0,0-.05,0l-55.461.942a.28.28,0,0,0-.254.173,2.406,2.406,0,0,0,1.945,3.314c7.382.858,30.54,1.7,48.13,1.7m5.625-5.568c6.679,1.08,10.217,2.1,10.514,3.026.02.061.079.249-.251.576a1.8,1.8,0,0,1-.823.449l-.243.062a20.53,20.53,0,0,1-5.455.795c-17.459.422-48.646-.576-57.433-1.6a1.845,1.845,0,0,1-1.553-2.372Z" transform="translate(-79.353 -619.402)"/>
    <path id="Path_29691" data-name="Path 29691" d="M162.94,744.332a28.127,28.127,0,0,0,.163-3.471c-.262-15.437-13.779-27.161-29.217-26.9s-26.95,12.412-26.688,27.849a28.177,28.177,0,0,0,.281,3.464c23.042,1.306,43.429,1.668,55.461-.943" transform="translate(-79.821 -531.645)" fill="#fff"/>
    <path id="Path_29692" data-name="Path 29692" d="M136.186,745.744c9.993,0,19.286-.5,26-1.956a.28.28,0,0,0,.219-.244,28.662,28.662,0,0,0,.164-3.506,26.763,26.763,0,0,0-9.01-19.54,29.67,29.67,0,0,0-20.492-7.634,27.23,27.23,0,0,0-19.429,8.321A27.744,27.744,0,0,0,106.1,741a28.635,28.635,0,0,0,.283,3.5.281.281,0,0,0,.262.241c9.336.529,19.773,1.007,29.541,1.007m25.678-2.461c-13.182,2.8-36.24,1.964-54.956.907a27.8,27.8,0,0,1-.246-3.2c-.263-15.454,11.092-27.3,26.411-27.564,15.7-.267,28.678,11.677,28.931,26.623a27.905,27.905,0,0,1-.14,3.235" transform="translate(-79.004 -530.827)"/>
    <path id="Path_29693" data-name="Path 29693" d="M122.234,756a.281.281,0,0,0,.279-.253c1.436-14.578,12.77-22.516,23.223-22.823,9.147-.266,20.782,5.41,23.452,22.295a.281.281,0,0,0,.554-.088c-1.177-7.445-4.269-13.5-8.94-17.5a22.1,22.1,0,0,0-15.083-5.264,24.185,24.185,0,0,0-15.55,6.321,25.955,25.955,0,0,0-8.215,17.008.281.281,0,0,0,.252.307h.028" transform="translate(-90.811 -545.346)"/>
    <path id="Path_29694" data-name="Path 29694" d="M66.177,847.075l-.1-2.914a73.178,73.178,0,0,1-44.969,0l.1,2.915c10.49,8.061,43.512,4.467,44.969,0" transform="translate(-15.72 -628.599)" fill="#5b2eca"/>
    <path id="Path_29695" data-name="Path 29695" d="M42.174,851.32c7.451,0,14.752-.978,19.044-2.306,2.611-.808,4.094-1.706,4.408-2.669a.274.274,0,0,0,.014-.1l-.1-2.914a.281.281,0,0,0-.367-.257,72.508,72.508,0,0,1-44.794,0,.28.28,0,0,0-.369.276l.1,2.914a.28.28,0,0,0,.11.213c4.613,3.545,13.383,4.839,21.955,4.839m22.9-5.106c-.175.452-.944,1.31-4.025,2.264-9.1,2.816-31.822,4.066-40.386-2.362l-.079-2.379A70.694,70.694,0,0,0,45.3,847.12a75.05,75.05,0,0,0,19.693-3.4Z" transform="translate(-14.902 -627.782)"/>
    <path id="Path_29696" data-name="Path 29696" d="M21.11,829.9c0,2.414,10.018,5.05,22.436,5.05s22.533-2.636,22.533-5.05-10.067-4.37-22.485-4.37S21.11,827.485,21.11,829.9" transform="translate(-15.719 -614.724)" fill="#5b2eca"/>
    <path id="Path_29697" data-name="Path 29697" d="M42.727,834.41a72.576,72.576,0,0,0,15.987-1.627c2.549-.6,6.826-1.879,6.826-3.7,0-3.021-11.729-4.651-22.765-4.651s-22.765,1.63-22.765,4.651c0,2.84,10.615,5.331,22.716,5.331m.049-9.42c13.085,0,22.2,2.155,22.2,4.09,0,1.9-8.875,4.769-22.252,4.769-13.319,0-22.155-2.87-22.155-4.769,0-1.934,9.119-4.09,22.2-4.09" transform="translate(-14.901 -613.906)"/>
    <path id="Path_29698" data-name="Path 29698" d="M53.589,684.831a40.313,40.313,0,0,0,26.953-.151,2.508,2.508,0,0,0,1.559-3.027L68.128,631.385a.547.547,0,0,0-1.048-.016L51.638,681.029a3.045,3.045,0,0,0,1.951,3.8" transform="translate(-38.349 -469.86)" fill="#5b2eca"/>
    <path id="Path_29699" data-name="Path 29699" d="M59.965,770.35l3.148-10.125c7.273,2.594,13.644,3.159,20.338-.551l2.742,10.565c-8.137,3.686-17.854,3.275-26.228.111" transform="translate(-44.653 -565.687)" fill="#fff"/>
    <path id="Path_29700" data-name="Path 29700" d="M82.954,696.069l3.356-10.795a16.64,16.64,0,0,0,9.05.244l2.8,10.057a22.856,22.856,0,0,1-4.683,1.117,23.691,23.691,0,0,1-10.519-.623" transform="translate(-61.771 -510.285)" fill="#fff"/>
    <path id="Path_29701" data-name="Path 29701" d="M66.3,686.524a39.283,39.283,0,0,0,13.523-2.4,2.8,2.8,0,0,0,1.733-3.366L67.583,630.492a.811.811,0,0,0-.784-.605.82.82,0,0,0-.8.581L50.555,680.127a3.335,3.335,0,0,0,2.132,4.153A43.923,43.923,0,0,0,66.3,686.524m.487-56.076h0a.257.257,0,0,1,.252.195L81.014,680.91A2.237,2.237,0,0,1,79.63,683.6a40.236,40.236,0,0,1-26.77.148,2.771,2.771,0,0,1-1.769-3.452l15.441-49.659a.256.256,0,0,1,.254-.187M52.773,684.013h0Z" transform="translate(-37.533 -469.042)"/>
  </g>
</svg>
