<svg id="Group_18037" data-name="Group 18037" xmlns="http://www.w3.org/2000/svg" xmlns:xlink="http://www.w3.org/1999/xlink" width="217.832" height="217.95" viewBox="0 0 217.832 217.95">
  <defs>
    <clipPath id="clip-path">
      <rect id="Rectangle_10508" data-name="Rectangle 10508" width="217.832" height="217.95" fill="none"/>
    </clipPath>
  </defs>
  <g id="Group_18036" data-name="Group 18036" clip-path="url(#clip-path)">
    <path id="Path_29489" data-name="Path 29489" d="M2.524,178.021c6.426,15.564,21.424,22.933,31.011,27.643C71.321,224.229,128.706,222.09,170,188.3c9.663-7.909,57.287-49.342,46.161-105.494C206.323,33.162,156.976,4.338,115.429.485,81.01-2.707,36.069,9.793,20.2,40.062,10.224,59.1,22.229,65.15,14.085,108.287c-7.049,37.337-19.421,50.7-11.562,69.734" transform="translate(0 0)" fill="#d6cbf2"/>
    <path id="Path_29490" data-name="Path 29490" d="M495.677,329.952,495.555,201.2a3.122,3.122,0,0,1,3.08-3.147l81.405-.368a3.1,3.1,0,0,1,3.086,3.119l.122,128.751a3.122,3.122,0,0,1-3.08,3.147l-81.405.368a3.1,3.1,0,0,1-3.086-3.119" transform="translate(-365.527 -145.816)" fill="#8462d7"/>
    <path id="Path_29491" data-name="Path 29491" d="M470.018,340.832l-.112-118.174a3.122,3.122,0,0,1,3.08-3.147l81.405-.368a3.1,3.1,0,0,1,3.086,3.119l.112,118.174a3.122,3.122,0,0,1-3.08,3.147l-81.405.368a3.1,3.1,0,0,1-3.086-3.119" transform="translate(-346.608 -161.643)" fill="#fff"/>
    <path id="Path_29492" data-name="Path 29492" d="M456.863,338.817l-.112-118.173a3.122,3.122,0,0,1,3.08-3.147l81.405-.368a3.1,3.1,0,0,1,3.086,3.119l.112,118.174a3.121,3.121,0,0,1-3.08,3.146l-81.405.368a3.1,3.1,0,0,1-3.086-3.119" transform="translate(-336.905 -160.157)" fill="#ad97e4"/>
    <path id="Path_29493" data-name="Path 29493" d="M439.664,325.7l-.127-133.729a3.121,3.121,0,0,1,3.08-3.147l81.405-.368a3.1,3.1,0,0,1,3.086,3.119l.127,133.729a3.122,3.122,0,0,1-3.08,3.147l-81.405.368a3.1,3.1,0,0,1-3.086-3.119" transform="translate(-324.207 -139.006)" fill="#5b2eca"/>
    <path id="Path_29494" data-name="Path 29494" d="M57.049,367.04c3.868-2.886,7.892-5.577,11.994-8.143,8.325-5.209,17.011-9.866,25.77-14.377,4.608-2.374,9.358-4.521,14.056-6.73q7.09-3.333,14.2-6.625,6.494-3.016,12.983-6.044c12.636-31.307,26.517-66.8,24.5-66.8L7.8,254.034a5.986,5.986,0,0,0-6.075,6.482L9.26,365.435a7.117,7.117,0,0,0,7.006,6.482H50.359c2.186-1.678,4.482-3.229,6.69-4.876" transform="translate(-1.261 -187.378)" fill="#5b2eca"/>
    <path id="Path_29495" data-name="Path 29495" d="M175.131,255.431H20.729A5.641,5.641,0,0,0,15,261.547L22.53,366.465a6.707,6.707,0,0,0,6.61,6.116h154.4a5.641,5.641,0,0,0,5.732-6.116L181.74,261.547a6.707,6.707,0,0,0-6.61-6.116" transform="translate(-11.051 -188.409)" fill="#fff"/>
    <path id="Path_29496" data-name="Path 29496" d="M188.582,275.026H45.152a5.24,5.24,0,0,0-5.324,5.682l7,97.462a6.23,6.23,0,0,0,6.14,5.681h143.43a5.24,5.24,0,0,0,5.324-5.681l-7-97.462a6.231,6.231,0,0,0-6.14-5.682" transform="translate(-29.366 -202.862)" fill="#5b2eca"/>
    <path id="Path_29497" data-name="Path 29497" d="M116.3,703.686H54.65a4.172,4.172,0,0,0-4.18,4.568,4.96,4.96,0,0,0,4.835,4.567H118.8c2.486,0-2.5-9.135-2.5-9.135" transform="translate(-37.218 -519.047)" fill="#99b9ff"/>
    <path id="Path_29498" data-name="Path 29498" d="M117.689,712.108H54.2a5.36,5.36,0,0,1-5.228-4.933,4.656,4.656,0,0,1,1.218-3.551,4.527,4.527,0,0,1,3.354-1.439h61.884l.112.205c.682,1.25,4.033,7.571,3.046,9.235a.994.994,0,0,1-.894.482m-64.147-9.135a3.747,3.747,0,0,0-2.778,1.188,3.878,3.878,0,0,0-1.009,2.958,4.561,4.561,0,0,0,4.443,4.2h63.491c.16,0,.194-.058.217-.1.545-.918-1.363-5.3-2.949-8.251Z" transform="translate(-36.111 -517.94)"/>
    <path id="Path_29499" data-name="Path 29499" d="M356.366,703.686H210.837a4.167,4.167,0,0,0-4.18,4.568,4.955,4.955,0,0,0,4.836,4.567H357.022a4.167,4.167,0,0,0,4.18-4.567,4.955,4.955,0,0,0-4.836-4.568" transform="translate(-152.424 -519.047)" fill="#8462d7"/>
    <path id="Path_29500" data-name="Path 29500" d="M355.915,712.108H210.386a5.36,5.36,0,0,1-5.228-4.933,4.657,4.657,0,0,1,1.216-3.552,4.528,4.528,0,0,1,3.356-1.438H355.259a5.361,5.361,0,0,1,5.228,4.933,4.656,4.656,0,0,1-1.216,3.551,4.527,4.527,0,0,1-3.356,1.438M209.73,702.973a3.749,3.749,0,0,0-2.78,1.187,3.878,3.878,0,0,0-1.008,2.959,4.561,4.561,0,0,0,4.443,4.2H355.915a3.748,3.748,0,0,0,2.78-1.187,3.876,3.876,0,0,0,1.007-2.959,4.561,4.561,0,0,0-4.443-4.2Z" transform="translate(-151.317 -517.94)"/>
    <path id="Path_29501" data-name="Path 29501" d="M200.248,496.934H45.846a7.115,7.115,0,0,1-7-6.481l-1.211-16.134a.394.394,0,1,1,.785-.059L39.629,490.4a6.316,6.316,0,0,0,6.217,5.752h154.4a5.335,5.335,0,0,0,3.96-1.68,5.265,5.265,0,0,0,1.379-4.014l-4.814-66.544a.394.394,0,1,1,.785-.057l4.814,66.545A6.044,6.044,0,0,1,204.784,495a6.114,6.114,0,0,1-4.536,1.931" transform="translate(-27.758 -312.369)"/>
    <path id="Path_29502" data-name="Path 29502" d="M215.085,202.844H90.416a.924.924,0,0,1-.921-.85L76.262,36.183a.924.924,0,0,1,.921-1H201.852a.924.924,0,0,1,.921.85l13.234,165.81a.924.924,0,0,1-.921,1" transform="translate(-56.249 -25.954)" fill="#d6cbf2"/>
    <path id="Path_29503" data-name="Path 29503" d="M184.337,401.11h-34.82a.761.761,0,0,1-.764-.674l-.385-5.12a.635.635,0,0,1,.663-.674h34.82a.761.761,0,0,1,.764.674l.385,5.12a.635.635,0,0,1-.663.674" transform="translate(-109.436 -291.092)" fill="#5b2eca"/>
    <path id="Path_29504" data-name="Path 29504" d="M188.149,441.355h-34.82a.761.761,0,0,1-.764-.674l-.385-5.12a.635.635,0,0,1,.663-.674h34.82a.761.761,0,0,1,.764.674l.385,5.12a.635.635,0,0,1-.663.674" transform="translate(-112.248 -320.778)" fill="#5b2eca"/>
    <path id="Path_29505" data-name="Path 29505" d="M368.725,315.694H308.113l-.491-6.916h60.612Z" transform="translate(-226.906 -227.758)" fill="#5b2eca"/>
    <path id="Path_29506" data-name="Path 29506" d="M366.725,275.635H306.113l-.491-6.916h60.612Z" transform="translate(-225.431 -198.21)" fill="#5b2eca"/>
    <path id="Path_29507" data-name="Path 29507" d="M372.712,357.785H312.1l-.491-6.916h60.612Z" transform="translate(-229.847 -258.805)" fill="#5b2eca"/>
    <path id="Path_29508" data-name="Path 29508" d="M375.7,399.875H315.09l-.491-6.916h60.612Z" transform="translate(-232.052 -289.851)" fill="#5b2eca"/>
    <path id="Path_29509" data-name="Path 29509" d="M378.688,441.966H318.076l-.491-6.916H378.2Z" transform="translate(-234.255 -320.898)" fill="#5b2eca"/>
    <path id="Path_29510" data-name="Path 29510" d="M260.434,486.928H156.266l-.491-6.916H259.943Z" transform="translate(-114.901 -354.062)" fill="#5b2eca"/>
    <path id="Path_29511" data-name="Path 29511" d="M263.42,529.019H159.252l-.491-6.916H262.929Z" transform="translate(-117.104 -385.109)" fill="#5b2eca"/>
    <path id="Path_29512" data-name="Path 29512" d="M266.925,571.32H162.757l-.491-6.916H266.435Z" transform="translate(-119.69 -416.31)" fill="#5b2eca"/>
    <path id="Path_29513" data-name="Path 29513" d="M269.912,613.411H165.743l-.491-6.916H269.421Z" transform="translate(-121.892 -447.357)" fill="#5b2eca"/>
    <path id="Path_29514" data-name="Path 29514" d="M264.541,148.237h-4.284l-1.334-26.262h4.284Z" transform="translate(-190.985 -89.97)" fill="#5b2eca"/>
    <path id="Path_29515" data-name="Path 29515" d="M261.431,119.7h-4.284l-.618-.819a.111.111,0,0,1,.1-.177h5a.216.216,0,0,1,.217.309Z" transform="translate(-189.201 -87.559)" fill="#10005c"/>
    <path id="Path_29516" data-name="Path 29516" d="M262.67,221.709h4.284l.618.819a.111.111,0,0,1-.1.177h-5a.216.216,0,0,1-.217-.309Z" transform="translate(-193.417 -163.535)" fill="#10005c"/>
    <path id="Path_29517" data-name="Path 29517" d="M291.259,148.237h-4.284l-1.334-26.262h4.284Z" transform="translate(-210.692 -89.97)" fill="#5b2eca"/>
    <path id="Path_29518" data-name="Path 29518" d="M288.149,119.7h-4.284l-.618-.819a.112.112,0,0,1,.1-.177h5a.216.216,0,0,1,.217.309Z" transform="translate(-208.909 -87.559)" fill="#10005c"/>
    <path id="Path_29519" data-name="Path 29519" d="M289.388,221.709h4.284l.618.819a.111.111,0,0,1-.1.177h-5a.216.216,0,0,1-.217-.309Z" transform="translate(-213.124 -163.535)" fill="#10005c"/>
    <path id="Path_29520" data-name="Path 29520" d="M317.976,148.237h-4.284l-1.334-26.262h4.284Z" transform="translate(-230.399 -89.97)" fill="#5b2eca"/>
    <path id="Path_29521" data-name="Path 29521" d="M314.866,119.7h-4.284l-.618-.819a.111.111,0,0,1,.1-.177h5a.216.216,0,0,1,.217.309Z" transform="translate(-228.616 -87.559)" fill="#10005c"/>
    <path id="Path_29522" data-name="Path 29522" d="M316.1,221.709h4.284l.618.819a.112.112,0,0,1-.1.177h-5a.216.216,0,0,1-.217-.309Z" transform="translate(-232.831 -163.535)" fill="#10005c"/>
    <path id="Path_29523" data-name="Path 29523" d="M344.694,148.237H340.41l-1.334-26.262h4.284Z" transform="translate(-250.107 -89.97)" fill="#5b2eca"/>
    <path id="Path_29524" data-name="Path 29524" d="M341.584,119.7H337.3l-.618-.819a.111.111,0,0,1,.1-.177h5a.216.216,0,0,1,.217.309Z" transform="translate(-248.323 -87.559)" fill="#10005c"/>
    <path id="Path_29525" data-name="Path 29525" d="M342.823,221.709h4.284l.618.819a.111.111,0,0,1-.1.177h-5a.216.216,0,0,1-.217-.309Z" transform="translate(-252.539 -163.535)" fill="#10005c"/>
    <path id="Path_29526" data-name="Path 29526" d="M370.076,148.237h-4.284l-1.334-26.262h4.284Z" transform="translate(-268.828 -89.97)" fill="#5b2eca"/>
    <path id="Path_29527" data-name="Path 29527" d="M366.966,119.7h-4.284l-.618-.819a.112.112,0,0,1,.1-.177h5a.216.216,0,0,1,.217.309Z" transform="translate(-267.045 -87.559)" fill="#10005c"/>
    <path id="Path_29528" data-name="Path 29528" d="M368.2,221.709h4.284l.618.819a.111.111,0,0,1-.1.177h-5a.216.216,0,0,1-.217-.309Z" transform="translate(-271.261 -163.535)" fill="#10005c"/>
    <path id="Path_29529" data-name="Path 29529" d="M396.793,148.237h-4.284l-1.334-26.262h4.284Z" transform="translate(-288.536 -89.97)" fill="#5b2eca"/>
    <path id="Path_29530" data-name="Path 29530" d="M393.683,119.7H389.4l-.618-.819a.111.111,0,0,1,.1-.177h5a.216.216,0,0,1,.217.309Z" transform="translate(-286.752 -87.559)" fill="#10005c"/>
    <path id="Path_29531" data-name="Path 29531" d="M394.922,221.709h4.284l.618.819a.112.112,0,0,1-.1.177h-5a.216.216,0,0,1-.217-.309Z" transform="translate(-290.968 -163.535)" fill="#10005c"/>
    <path id="Path_29532" data-name="Path 29532" d="M298.022,228.088H255.294a.405.405,0,0,1-.409-.372l-.014-.27a.359.359,0,0,1,.371-.372H297.97a.406.406,0,0,1,.409.372l.014.27a.359.359,0,0,1-.371.372" transform="translate(-187.996 -167.492)" fill="#5b2eca"/>
    <path id="Path_29533" data-name="Path 29533" d="M294.6,233.008H249.232a.507.507,0,0,1-.511-.465l-.079-1.557a.449.449,0,0,1,.464-.465h45.367a.507.507,0,0,1,.511.465l.079,1.557a.448.448,0,0,1-.464.465" transform="translate(-183.401 -170.035)" fill="#5b2eca"/>
    <path id="Path_29534" data-name="Path 29534" d="M298.468,229.879H256.647a.394.394,0,1,1,0-.787h41.822a.394.394,0,1,1,0,.787" transform="translate(-189.015 -168.981)" fill="#10005c"/>
    <path id="Path_29535" data-name="Path 29535" d="M291.16,83.163H248.05a.477.477,0,0,1-.282-.883L268.75,71a.514.514,0,0,1,.474,0l22.128,11.283a.46.46,0,0,1-.192.883" transform="translate(-182.582 -52.325)" fill="#5b2eca"/>
    <path id="Path_29536" data-name="Path 29536" d="M175.515,297.86H147.608a3.7,3.7,0,0,1-3.726-3.283l-1.931-20.155a3.667,3.667,0,0,1,3.726-3.95h27.907a3.7,3.7,0,0,1,3.726,3.283l1.931,20.155a3.667,3.667,0,0,1-3.726,3.95" transform="translate(-104.693 -199.503)" fill="#fff"/>
    <path id="Path_29537" data-name="Path 29537" d="M192.811,293.76c.422,5.688-4.049,10.3-9.987,10.3a11.534,11.534,0,0,1-11.517-10.3c-.423-5.688,4.049-10.3,9.987-10.3a11.534,11.534,0,0,1,11.517,10.3" transform="translate(-126.338 -209.084)" fill="#5b2eca"/>
    <path id="Path_29538" data-name="Path 29538" d="M205.314,304.128a3.128,3.128,0,0,1-3.239,3.34,3.741,3.741,0,0,1-3.735-3.34,3.127,3.127,0,0,1,3.239-3.34,3.741,3.741,0,0,1,3.735,3.34" transform="translate(-146.291 -221.865)" fill="#fff"/>
    <path id="Path_29539" data-name="Path 29539" d="M186.65,333.571c4.369-5.3,9.931-4.343,14.784-.578a.88.88,0,0,1,.188,1.261,10.359,10.359,0,0,1-14.93.472.853.853,0,0,1-.042-1.156" transform="translate(-137.524 -243.323)" fill="#fff"/>
    <path id="Path_29540" data-name="Path 29540" d="M86.607,174.844a.393.393,0,0,1-.392-.362l-11-137.859a2.721,2.721,0,0,1,2.712-2.937H199.778a2.735,2.735,0,0,1,2.712,2.5l5.225,65.46a.394.394,0,0,1-.785.063l-5.224-65.46a1.944,1.944,0,0,0-1.927-1.78H77.924A1.934,1.934,0,0,0,76,36.561L87,174.42a.393.393,0,0,1-.361.423h-.032" transform="translate(-55.471 -24.847)"/>
    <path id="Path_29541" data-name="Path 29541" d="M146.19,110.07a.392.392,0,0,1-.278-.115L126.794,90.836a.394.394,0,0,1,.557-.557L146.469,109.4a.393.393,0,0,1-.278.672" transform="translate(-93.439 -66.506)" fill="#5b2eca"/>
    <path id="Path_29542" data-name="Path 29542" d="M166.009,159.791a.392.392,0,0,1-.278-.115l-13.789-13.788a.394.394,0,0,1,.557-.557l13.789,13.788a.394.394,0,0,1-.278.672" transform="translate(-111.989 -107.113)" fill="#5b2eca"/>
    <path id="Path_29543" data-name="Path 29543" d="M474.518,101.3a.392.392,0,0,1-.278-.115L461.716,88.66a.394.394,0,1,1,.557-.557L474.8,100.628a.393.393,0,0,1-.278.672" transform="translate(-340.482 -64.901)" fill="#5b2eca"/>
    <path id="Path_29544" data-name="Path 29544" d="M480.961,137.031a.392.392,0,0,1-.278-.115L465.807,122.04a.394.394,0,1,1,.557-.557l14.876,14.876a.394.394,0,0,1-.278.672" transform="translate(-343.499 -89.523)" fill="#5b2eca"/>
    <path id="Path_29545" data-name="Path 29545" d="M344.071,671.7a.394.394,0,0,1,0-.787l55.491-.263a.4.4,0,0,1,.4.392.393.393,0,0,1-.392.4l-55.491.263Z" transform="translate(-253.5 -494.682)"/>
    <path id="Path_29546" data-name="Path 29546" d="M364.8,793.793q-2.484,0-4.968-.157a.394.394,0,0,1,.05-.786,80.308,80.308,0,0,0,36.109-6.215.394.394,0,0,1,.3.727,81.77,81.77,0,0,1-31.492,6.431" transform="translate(-265.145 -580.208)"/>
    <path id="Path_29547" data-name="Path 29547" d="M384.225,769.96a.394.394,0,0,1-.013-.787,80.307,80.307,0,0,0,35.346-9.65.394.394,0,1,1,.37.695,81.089,81.089,0,0,1-35.69,9.742h-.013" transform="translate(-283.119 -560.198)"/>
    <path id="Path_29548" data-name="Path 29548" d="M621.128,74.916a.394.394,0,0,1-.394-.394V72.487a.394.394,0,1,1,.787,0v2.036a.394.394,0,0,1-.394.394" transform="translate(-457.86 -53.177)"/>
    <path id="Path_29549" data-name="Path 29549" d="M621.128,92.987a.394.394,0,0,1-.394-.394V90.558a.394.394,0,0,1,.787,0v2.036a.394.394,0,0,1-.394.394" transform="translate(-457.86 -66.506)"/>
    <path id="Path_29550" data-name="Path 29550" d="M610.249,85.794h-2.036a.394.394,0,1,1,0-.787h2.036a.394.394,0,0,1,0,.787" transform="translate(-448.335 -62.702)"/>
    <path id="Path_29551" data-name="Path 29551" d="M628.32,85.794h-2.036a.394.394,0,1,1,0-.787h2.036a.394.394,0,0,1,0,.787" transform="translate(-461.664 -62.702)"/>
    <path id="Path_29552" data-name="Path 29552" d="M643.322,113a2.161,2.161,0,0,1-.782-.148,2.189,2.189,0,0,1-1.223-1.185,2.243,2.243,0,0,1,1.12-2.929,2.14,2.14,0,0,1,1.666-.043,2.188,2.188,0,0,1,1.223,1.184,2.243,2.243,0,0,1-1.12,2.93,2.153,2.153,0,0,1-.883.191m0-3.665a1.368,1.368,0,0,0-.561.121,1.453,1.453,0,0,0-.72,1.9,1.409,1.409,0,0,0,.785.763,1.362,1.362,0,0,0,1.058-.028,1.453,1.453,0,0,0,.72-1.9,1.407,1.407,0,0,0-.786-.763,1.367,1.367,0,0,0-.5-.094m-.723-.237h0Z" transform="translate(-472.907 -80.063)"/>
    <path id="Path_29553" data-name="Path 29553" d="M85.086,647.94H10.978A4.422,4.422,0,0,1,6.626,644l-3.6-41.733A3.593,3.593,0,0,1,6.7,598.318H80.808a4.422,4.422,0,0,1,4.352,3.945L88.758,644a3.593,3.593,0,0,1-3.672,3.945" transform="translate(-2.223 -441.326)" fill="#5b2eca"/>
    <path id="Path_29554" data-name="Path 29554" d="M43.015,621.435H26.284a1.991,1.991,0,0,1-1.96-1.776l-.081-.935a1.617,1.617,0,0,1,1.653-1.776H42.628a1.991,1.991,0,0,1,1.959,1.776l.081.935a1.617,1.617,0,0,1-1.653,1.776" transform="translate(-17.877 -455.069)" fill="#fff"/>
    <path id="Path_29555" data-name="Path 29555" d="M40.112,664.068h-6.94a1.624,1.624,0,0,1-1.6-1.449l-.588-6.822a1.319,1.319,0,0,1,1.349-1.449h6.94a1.624,1.624,0,0,1,1.6,1.449l.588,6.822a1.319,1.319,0,0,1-1.349,1.449" transform="translate(-22.852 -482.655)" fill="#fff"/>
    <path id="Path_29556" data-name="Path 29556" d="M54.381,753.349h-19.3a1.31,1.31,0,0,1-1.289-1.168l-.1-1.214a1.064,1.064,0,0,1,1.088-1.168h19.3a1.31,1.31,0,0,1,1.289,1.168l.1,1.214a1.064,1.064,0,0,1-1.088,1.168" transform="translate(-24.845 -553.059)" fill="#d6cbf2"/>
    <path id="Path_29557" data-name="Path 29557" d="M44.508,712.746H31.582a1.31,1.31,0,0,1-1.289-1.168l-.1-1.214a1.064,1.064,0,0,1,1.088-1.168H44.2a1.31,1.31,0,0,1,1.289,1.168l.1,1.214a1.064,1.064,0,0,1-1.088,1.168" transform="translate(-22.264 -523.11)" fill="#d6cbf2"/>
    <path id="Path_29558" data-name="Path 29558" d="M116.023,713.1H103.1a1.31,1.31,0,0,1-1.289-1.168l-.1-1.214a1.064,1.064,0,0,1,1.088-1.168h12.926a1.31,1.31,0,0,1,1.289,1.168l.1,1.214a1.064,1.064,0,0,1-1.088,1.168" transform="translate(-75.014 -523.373)" fill="#d6cbf2"/>
    <path id="Path_29559" data-name="Path 29559" d="M184.657,713.1H171.731a1.31,1.31,0,0,1-1.289-1.168l-.1-1.214a1.064,1.064,0,0,1,1.088-1.168h12.926a1.31,1.31,0,0,1,1.289,1.168l.1,1.214a1.064,1.064,0,0,1-1.088,1.168" transform="translate(-125.639 -523.373)" fill="#d6cbf2"/>
    <path id="Path_29560" data-name="Path 29560" d="M256.171,713.458H243.245a1.31,1.31,0,0,1-1.289-1.168l-.1-1.214a1.064,1.064,0,0,1,1.088-1.168h12.926a1.31,1.31,0,0,1,1.289,1.168l.1,1.214a1.064,1.064,0,0,1-1.088,1.168" transform="translate(-178.389 -523.635)" fill="#d6cbf2"/>
    <path id="Path_29561" data-name="Path 29561" d="M83.133,647.227H9.757A4.739,4.739,0,0,1,5.1,643L1.484,601.049a3.849,3.849,0,0,1,.987-2.972,3.941,3.941,0,0,1,2.947-1.26H79.487a5.028,5.028,0,0,1,4.941,4.482l3.5,39.464a.394.394,0,0,1-.784.07l-3.5-39.465a4.226,4.226,0,0,0-4.157-3.764H5.418a3.163,3.163,0,0,0-2.367,1,3.071,3.071,0,0,0-.783,2.372l3.617,41.953a3.937,3.937,0,0,0,3.872,3.5H83.133a4,4,0,0,0,3.337-1.675.394.394,0,1,1,.645.452,4.777,4.777,0,0,1-3.982,2.01" transform="translate(-1.083 -440.22)"/>
    <path id="Path_29562" data-name="Path 29562" d="M618.112,752.381l1.412,10.01H614.9l-3.013-10.874Z" transform="translate(-451.336 -554.328)" fill="#fff"/>
    <path id="Path_29563" data-name="Path 29563" d="M618.417,761.678h-4.623a.394.394,0,0,1-.379-.289L610.4,750.516a.393.393,0,0,1,.433-.495l6.223.864a.394.394,0,0,1,.336.335l1.412,10.01a.394.394,0,0,1-.39.449m-4.323-.787h3.87l-1.307-9.267-5.336-.74Z" transform="translate(-450.229 -553.221)"/>
    <path id="Path_29564" data-name="Path 29564" d="M560.094,788.276h21.1a1.975,1.975,0,0,0,1.782-2.342,83.849,83.849,0,0,0-1.557-9.209c-.826-2.772-3.5,1.645-3.5,1.645l-2.947-2.819s-12.524,5.953-15.717,10.827a1.2,1.2,0,0,0,.832,1.9" transform="translate(-412.362 -572.055)" fill="#8462d7"/>
    <path id="Path_29565" data-name="Path 29565" d="M580.084,787.564h-21.1a1.4,1.4,0,0,1-1.232-.767,1.7,1.7,0,0,1,.07-1.741c3.217-4.91,15.362-10.721,15.878-10.966a.394.394,0,0,1,.441.071l2.6,2.488c.564-.846,1.791-2.47,2.86-2.328.506.065.872.464,1.087,1.187a81.747,81.747,0,0,1,1.571,9.271,2.6,2.6,0,0,1-.6,2.053,2.077,2.077,0,0,1-1.571.734m-6.292-12.646c-1.756.858-12.46,6.213-15.313,10.569a.925.925,0,0,0-.036.936.629.629,0,0,0,.539.354h21.1a1.3,1.3,0,0,0,.98-.466,1.811,1.811,0,0,0,.412-1.432,84.778,84.778,0,0,0-1.544-9.147c-.066-.224-.211-.6-.433-.631-.582-.073-1.745,1.369-2.349,2.367a.4.4,0,0,1-.285.187.4.4,0,0,1-.324-.106Z" transform="translate(-411.25 -570.949)"/>
    <path id="Path_29566" data-name="Path 29566" d="M586.51,816.385H566.8a.394.394,0,0,1,0-.787H586.51a.394.394,0,1,1,0,.787" transform="translate(-417.786 -601.594)"/>
    <path id="Path_29567" data-name="Path 29567" d="M716.715,726.657c.436,1.118,5.363,12.567,5.363,12.567l-3.708,4.644-2.563-2.993-5.059-13.1Z" transform="translate(-524.256 -535.99)" fill="#fff"/>
    <path id="Path_29568" data-name="Path 29568" d="M717.264,743.154a.394.394,0,0,1-.3-.138l-2.563-2.994a.384.384,0,0,1-.068-.114l-5.059-13.1a.394.394,0,0,1,.295-.529l5.967-1.118a.393.393,0,0,1,.439.244c.428,1.1,5.308,12.44,5.358,12.555a.4.4,0,0,1-.054.4l-3.708,4.644a.393.393,0,0,1-.3.148Zm-2.221-3.592,2.21,2.581,3.263-4.087c-.656-1.526-4.348-10.111-5.152-12.06l-5.185.972Z" transform="translate(-523.149 -534.883)"/>
    <path id="Path_29569" data-name="Path 29569" d="M713.7,763.306a2.3,2.3,0,0,1,.556,2.457c-1.08,2.915-4,9.378-9.2,11.279a17.891,17.891,0,0,1-8.559,1.294,1.055,1.055,0,0,1-.738-1.6c1.734-2.8,5.818-9.7,6.191-13.26.474-4.531,5.861.874,5.861.874l2.9-3.94Z" transform="translate(-513.081 -560.886)" fill="#8462d7"/>
    <path id="Path_29570" data-name="Path 29570" d="M696.994,777.73a11.785,11.785,0,0,1-1.66-.111,1.431,1.431,0,0,1-1.1-.815,1.45,1.45,0,0,1,.081-1.383c1.723-2.779,5.77-9.617,6.134-13.093.117-1.121.535-1.816,1.241-2.066,1.586-.559,4.044,1.531,4.961,2.386l2.635-3.578a.394.394,0,0,1,.591-.049l2.992,2.9a2.7,2.7,0,0,1,.65,2.876c-1.039,2.8-4.037,9.54-9.437,11.512a20.8,20.8,0,0,1-7.09,1.425m5.291-16.778a.99.99,0,0,0-.331.052c-.395.14-.637.612-.72,1.406-.381,3.639-4.5,10.6-6.248,13.426a.658.658,0,0,0-.037.635.638.638,0,0,0,.5.369,17.482,17.482,0,0,0,8.369-1.274c5.091-1.859,7.968-8.344,8.969-11.046a1.912,1.912,0,0,0-.461-2.037l-2.668-2.584-2.634,3.577a.4.4,0,0,1-.288.159.4.4,0,0,1-.308-.115c-1.057-1.06-3-2.569-4.14-2.569" transform="translate(-511.975 -559.78)"/>
    <path id="Path_29571" data-name="Path 29571" d="M706.653,788.422a.393.393,0,0,1-.06-.782,16.561,16.561,0,0,0,13.571-11.031.394.394,0,0,1,.76.205,17.351,17.351,0,0,1-14.211,11.6.389.389,0,0,1-.06,0" transform="translate(-520.945 -572.621)"/>
    <path id="Path_29572" data-name="Path 29572" d="M716.479,791.379a.394.394,0,0,1-.177-.042l-3.68-1.858a.393.393,0,1,1,.354-.7l3.681,1.858a.394.394,0,0,1-.178.745" transform="translate(-525.478 -581.779)"/>
    <path id="Path_29573" data-name="Path 29573" d="M603.69,789.287a.393.393,0,0,1-.331-.18l-2.523-3.9a.394.394,0,1,1,.661-.427l2.523,3.9a.393.393,0,0,1-.33.607" transform="translate(-443.137 -578.727)"/>
    <path id="Path_29574" data-name="Path 29574" d="M664.976,440.574s7.589-6.079,3.583-9.368c-3.583-2.941-6.352-2.788-6.352-2.788Z" transform="translate(-488.451 -316.006)" fill="#8462d7"/>
    <path id="Path_29575" data-name="Path 29575" d="M663.869,439.862a.388.388,0,0,1-.13-.022.394.394,0,0,1-.254-.284L660.715,427.4a.394.394,0,0,1,.362-.48c.12,0,2.965-.127,6.624,2.877a3.316,3.316,0,0,1,1.311,2.671c-.02,3.363-4.7,7.148-4.9,7.308a.394.394,0,0,1-.246.086m-2.271-12.13,2.51,11.014c1.18-1.048,4.1-3.887,4.118-6.284A2.532,2.532,0,0,0,667.2,430.4a10.968,10.968,0,0,0-5.6-2.673" transform="translate(-487.344 -314.9)"/>
    <path id="Path_29576" data-name="Path 29576" d="M599.991,417.311s10.132,8.212,12.5,16.686c1.964,7.042,5.646,48.133,5.646,48.133s5.893,16.4,6.187,21.163c0,0-4.675,3.335-8.265,2.823l-8.189-19.845a19.7,19.7,0,0,1-2.689-5.182c-.881-2.785-8.325-28.985-8.325-28.985s-.6,38.746.575,55.233c0,0-5.34.817-8.529.124,0,0-1.221-13.451-2.672-16.742s-1.76-8.448-1.3-13.388-4.415-32.964-3.151-57.69Z" transform="translate(-428.972 -307.813)" fill="#10005c"/>
    <path id="Path_29577" data-name="Path 29577" d="M691.709,687.6l-.039,0a10.357,10.357,0,0,1-6.654-4.221.394.394,0,0,1,.626-.478,9.769,9.769,0,0,0,6.106,3.915.393.393,0,0,1-.039.785" transform="translate(-505.216 -503.599)" fill="#5b2eca"/>
    <path id="Path_29578" data-name="Path 29578" d="M621.263,529.285a.394.394,0,0,1-.376-.277l-5.923-19-4.364-2.276a.394.394,0,0,1,.364-.7l4.509,2.352a.393.393,0,0,1,.194.232l5.972,19.158a.393.393,0,0,1-.259.493.386.386,0,0,1-.117.018" transform="translate(-450.23 -373.961)" fill="#5b2eca"/>
    <path id="Path_29579" data-name="Path 29579" d="M603.424,335.148c.207-1.263-3.4-3.257-4.36-3.556a9.121,9.121,0,0,0-6.906,1c-8.686,4.57-19,2.271-19,2.271s-1.445-20.775,2.868-32.261a6.743,6.743,0,0,1,4.351-4.059c4.044-.885,6.918-2.18,11.317-2.476a61.961,61.961,0,0,1,11.759.8c2.034.442,4.659,2.656,4.125,4l-4.754,6.91c2.138,13.759,2.065,18.366.6,27.377" transform="translate(-422.6 -218.348)" fill="#fff"/>
    <path id="Path_29580" data-name="Path 29580" d="M578.334,334.722a32.734,32.734,0,0,1-6.34-.574.393.393,0,0,1-.307-.357c-.015-.209-1.4-20.993,2.893-32.427a7.125,7.125,0,0,1,4.636-4.305c1.368-.3,2.612-.649,3.815-.987a34.7,34.7,0,0,1,7.56-1.5,62.892,62.892,0,0,1,11.869.8,7.159,7.159,0,0,1,4.228,3.015,1.785,1.785,0,0,1,.178,1.511.408.408,0,0,1-.041.077l-4.665,6.781c2.129,13.739,2.025,18.432.571,27.346a.394.394,0,1,1-.777-.126c.14-.866-2.962-2.767-4.088-3.117a8.851,8.851,0,0,0-6.606.974,28.027,28.027,0,0,1-12.925,2.881m-5.881-1.286c1.719.32,10.785,1.735,18.44-2.292a9.609,9.609,0,0,1,7.205-1.029,12.451,12.451,0,0,1,4.056,2.606c1.248-8.063,1.237-12.908-.8-25.991a.4.4,0,0,1,.065-.284l4.725-6.869a1.131,1.131,0,0,0-.155-.814,6.356,6.356,0,0,0-3.7-2.615,61.632,61.632,0,0,0-11.65-.787,34.059,34.059,0,0,0-7.4,1.469c-1.214.341-2.469.694-3.859,1a6.347,6.347,0,0,0-4.067,3.813c-3.953,10.528-3.016,29.2-2.863,31.8" transform="translate(-421.517 -217.247)"/>
    <path id="Path_29581" data-name="Path 29581" d="M609.307,230.572a4.794,4.794,0,0,0,2.748,1.207c1.216.184,6.419.47,9.921-3.449,3.429-3.837,3.778-10.084,1.821-11.358-1.405-.915-3.638.97-5.756-.451-.938-.629-.716-1.143-1.713-1.81-1.679-1.124-3.837-.689-5.489-.333-3.016.65-2.917,1.483-5.57,2.147-3.778.945-5.928-.257-6.667.96-.59.97.164,2.738,1.184,3.763,2.109,2.122,4.724.329,6.347,2.287,1.008,1.216.864,2.883,2.364,5.9a4.036,4.036,0,0,0,.81,1.141" transform="translate(-441.382 -157.841)" fill="#10005c"/>
    <path id="Path_29582" data-name="Path 29582" d="M613.5,253.19c.113-.388.232-.818.346-1.268a2.859,2.859,0,0,1-2.275.118c-.652-.357-.77-1.062-1.034-1.905a2.373,2.373,0,0,0-.578-1.122,1.9,1.9,0,0,0-.625-.4.555.555,0,0,1-.325-.657l.068-.16a10.493,10.493,0,0,0,.833-3.983l.029-2.7c1.476-.586,2.014-.486,2.215-.252.074.086.183.143.178.559-.024,2.009,1.781,1.8,3.292,1.432s.981,2.432.981,2.432a1.275,1.275,0,0,1,1.981-.159c.748.754-.707,1.989-1.591,2.628l.6,5.807c.157,1.528,1.595,1.514,3.037,2.042l3.89.973s-10.175,4.525-16.445,1.326l3.36-1.149c1.149-.619,1.765-2.528,2.064-3.557" transform="translate(-448.521 -177.523)" fill="#fff"/>
    <path id="Path_29583" data-name="Path 29583" d="M612.455,258.335a12.455,12.455,0,0,1-5.668-1.2.393.393,0,0,1,.051-.723l3.327-1.139c1.058-.6,1.651-2.633,1.847-3.306q.083-.285.16-.564a2.761,2.761,0,0,1-1.9-.131,2.612,2.612,0,0,1-1.117-1.792c-.033-.111-.066-.225-.1-.341l-.03-.1a1.823,1.823,0,0,0-.446-.858,1.5,1.5,0,0,0-.5-.317.949.949,0,0,1-.559-1.122.37.37,0,0,1,.019-.054l.068-.16a10.049,10.049,0,0,0,.8-3.833l.03-2.7a.393.393,0,0,1,.248-.362c1.434-.569,2.254-.613,2.658-.143a1.021,1.021,0,0,1,.273.82,1.22,1.22,0,0,0,.356,1.032c.528.42,1.65.209,2.449.013a1.1,1.1,0,0,1,1.08.237,2.342,2.342,0,0,1,.48,1.722,1.547,1.547,0,0,1,.514-.124,1.615,1.615,0,0,1,1.261.543,1.06,1.06,0,0,1,.317.855c-.053.639-.649,1.39-1.773,2.233l.575,5.583c.091.883.683,1.091,1.81,1.41.308.087.626.177.952.3l3.87.968a.393.393,0,0,1,.064.741,31.234,31.234,0,0,1-11.116,2.513m-4.407-1.5c4.806,1.795,11.467-.309,14.085-1.286l-2.708-.677-.04-.012c-.305-.112-.615-.2-.915-.285-1.1-.31-2.228-.631-2.379-2.087l-.6-5.807a.394.394,0,0,1,.161-.359c.989-.715,1.6-1.386,1.634-1.8a.274.274,0,0,0-.091-.236.861.861,0,0,0-.65-.312,1.2,1.2,0,0,0-.741.437.394.394,0,0,1-.7-.316c.115-.613.147-1.652-.15-1.933-.029-.028-.108-.1-.351-.044-1.041.254-2.336.465-3.126-.162a1.966,1.966,0,0,1-.654-1.658.612.612,0,0,0-.023-.232c-.005-.007-.013-.013-.019-.02l-.041-.045s-.231-.212-1.525.267l-.027,2.437a10.834,10.834,0,0,1-.864,4.132l-.054.126a.16.16,0,0,0,.1.172,2.292,2.292,0,0,1,.753.484,2.559,2.559,0,0,1,.65,1.192l.029.094c.038.121.072.239.106.353.206.7.342,1.106.74,1.324a2.519,2.519,0,0,0,1.937-.137.393.393,0,0,1,.531.461c-.1.411-.221.842-.349,1.281-.382,1.313-1.032,3.134-2.256,3.793a.4.4,0,0,1-.059.026Zm4.342-4.752h0Z" transform="translate(-447.415 -176.415)"/>
    <path id="Path_29584" data-name="Path 29584" d="M627.943,274.69a.394.394,0,0,1-.129-.766c1.42-.491,2.056-2.614,2.062-2.636a.394.394,0,0,1,.755.221c-.03.1-.76,2.536-2.561,3.159a.393.393,0,0,1-.129.021" transform="translate(-462.888 -199.897)"/>
    <path id="Path_29585" data-name="Path 29585" d="M537.072,361.162l-26.7-.041a1.472,1.472,0,0,1-1.427-1.12l-5.357-21.741a1.472,1.472,0,0,1,1.432-1.824l26.7.041a1.472,1.472,0,0,1,1.427,1.12l5.357,21.741a1.472,1.472,0,0,1-1.432,1.824" transform="translate(-371.42 -248.159)" fill="#5b2eca"/>
    <path id="Path_29586" data-name="Path 29586" d="M535.968,360.448h0l-26.7-.041a1.862,1.862,0,0,1-1.809-1.419L502.1,337.247a1.866,1.866,0,0,1,1.812-2.312h0l26.7.041a1.863,1.863,0,0,1,1.809,1.419l5.357,21.741a1.865,1.865,0,0,1-1.811,2.312m-32.057-24.726a1.079,1.079,0,0,0-1.048,1.337L508.22,358.8a1.077,1.077,0,0,0,1.046.82l26.7.041h0a1.079,1.079,0,0,0,1.047-1.337l-5.357-21.741a1.077,1.077,0,0,0-1.046-.82l-26.7-.041Z" transform="translate(-370.313 -247.052)"/>
    <path id="Path_29587" data-name="Path 29587" d="M510.448,375.161l.781,2.175,6.425-3.047s3.526,3.063-5.038,6.966c-3.568,1.627-2.168-6.094-2.168-6.094" transform="translate(-376.312 -276.08)" fill="#fff"/>
    <path id="Path_29588" data-name="Path 29588" d="M510.6,380.771a1.494,1.494,0,0,1-.942-.319c-1.611-1.253-.814-5.937-.718-6.467a.394.394,0,0,1,.758-.063l.634,1.767,6.032-2.861a.4.4,0,0,1,.427.059,2.727,2.727,0,0,1,.826,2.359c-.262,1.809-2.267,3.58-5.959,5.263a2.58,2.58,0,0,1-1.058.262m-1.092-5.047c-.14,1.681-.06,3.568.634,4.107.1.078.409.318,1.19-.039,4.275-1.949,5.354-3.609,5.506-4.659a1.921,1.921,0,0,0-.4-1.469l-6.163,2.923a.394.394,0,0,1-.539-.223Z" transform="translate(-375.194 -274.975)"/>
    <path id="Path_29589" data-name="Path 29589" d="M679.916,352.425c-1.293.279-2,.308-2.616-1.462-.314-.9.987-3.377,1.309-4.278a32.768,32.768,0,0,0,1.769-16.647c-.961-6.03-3.062-12.393-1.4-18.443.559-2.033,2.523-7.2,5.374-4.134a4.9,4.9,0,0,1,1.163,2.26c1.579,6.929,2.91,14.022,2.875,21.177-.031,6.425-2.356,12.52-5.474,18.142-.773,1.391-1.734,3.112-3,3.385" transform="translate(-499.549 -226.087)" fill="#fff"/>
    <path id="Path_29590" data-name="Path 29590" d="M677.822,351.847c-.827,0-1.488-.4-2-1.863-.268-.769.274-2.125.954-3.687.152-.348.283-.65.355-.853a32.207,32.207,0,0,0,1.751-16.453c-.215-1.349-.494-2.745-.763-4.1-.954-4.785-1.941-9.733-.627-14.513.308-1.119,1.472-4.807,3.541-5.315a2.562,2.562,0,0,1,2.5,1.017,5.307,5.307,0,0,1,1.258,2.442c1.52,6.668,2.921,13.859,2.885,21.266-.028,5.684-1.835,11.68-5.524,18.33-.808,1.456-1.814,3.267-3.261,3.579a5.218,5.218,0,0,1-1.072.146M681.5,305.8a1.147,1.147,0,0,0-.275.033c-1.406.345-2.528,3.154-2.97,4.759-1.265,4.6-.3,9.455.64,14.151.271,1.358.551,2.763.768,4.126a32.97,32.97,0,0,1-1.787,16.841c-.082.229-.218.541-.375.9-.392.9-1.12,2.573-.932,3.114.541,1.555,1.049,1.446,2.161,1.206h0c1.1-.236,2.047-1.944,2.739-3.191,3.623-6.532,5.4-12.4,5.425-17.952.036-7.327-1.356-14.465-2.866-21.087a4.519,4.519,0,0,0-1.067-2.08,2.113,2.113,0,0,0-1.462-.822" transform="translate(-498.444 -224.978)"/>
    <path id="Path_29591" data-name="Path 29591" d="M658.877,453.454h0c-9.76-.057-13.426-10.264-13.462-10.367a.394.394,0,0,1,.743-.259c.034.1,3.525,9.786,12.723,9.839a.394.394,0,0,1,0,.787" transform="translate(-476.047 -326.44)" fill="#5b2eca"/>
  </g>
</svg>
