<svg id="Group_18041" data-name="Group 18041" xmlns="http://www.w3.org/2000/svg" xmlns:xlink="http://www.w3.org/1999/xlink" width="210.4" height="222.95" viewBox="0 0 210.4 222.95">
  <defs>
    <clipPath id="clip-path">
      <rect id="Rectangle_10562" data-name="Rectangle 10562" width="210.4" height="222.95" fill="none"/>
    </clipPath>
  </defs>
  <g id="Group_18040" data-name="Group 18040" clip-path="url(#clip-path)">
    <path id="Path_29702" data-name="Path 29702" d="M24.025,136.168c10.983,30.91-1.29,41.1,8.438,57.633,14.967,25.446,62.323,32.438,96.443,23.672,41.789-10.736,79.068-49.053,81.38-98.781C212.747,65.734,175.11,18.907,128.03,4.8,85.989-7.8,32.505,4.645,11.159,39.283,8.845,43.037-3.248,63.53.836,88.157c3.376,20.355,14.482,23.509,23.189,48.011" transform="translate(0 0)" fill="#d6cbf2"/>
    <path id="Path_29703" data-name="Path 29703" d="M473.684,213.012A18.909,18.909,0,1,1,456,192.952a18.909,18.909,0,0,1,17.682,20.06" transform="translate(-319.078 -141.212)" fill="#fff"/>
    <path id="Path_29704" data-name="Path 29704" d="M453.315,229.778q-.615,0-1.236-.039a19.455,19.455,0,1,1,1.236.039m-.025-37.818a18.356,18.356,0,0,0-1.142,36.676c.391.024.78.037,1.166.037A18.356,18.356,0,0,0,454.457,192c-.39-.024-.78-.037-1.166-.037" transform="translate(-317.568 -139.705)"/>
    <path id="Path_29705" data-name="Path 29705" d="M486.859,223.9c-4.255,9.23-9.656,18.824-11.462,22.716a1.087,1.087,0,0,1-1.832.235c-2.822-3.462-7.73-10.158-10.115-13.44a.719.719,0,0,1,.834-1.1l8.726,3.2a.721.721,0,0,0,.764-.174L485.686,223.1a.72.72,0,0,1,1.172.8" transform="translate(-339.138 -163.144)" fill="#5b2eca"/>
    <path id="Path_29706" data-name="Path 29706" d="M182,45.982a.4.4,0,0,1-.178-.763c2.5-1.229,5.093-2.354,7.713-3.346A87,87,0,0,1,214.738,36.4a.4.4,0,1,1,.052.8,86.194,86.194,0,0,0-24.974,5.421c-2.6.982-5.167,2.1-7.643,3.315a.4.4,0,0,1-.177.041" transform="translate(-132.925 -26.646)"/>
    <path id="Path_29707" data-name="Path 29707" d="M145.04,28.636a.4.4,0,0,1-.219-.739A91.85,91.85,0,0,1,195.434,13.18a.4.4,0,0,1,0,.8h0a91.055,91.055,0,0,0-50.169,14.587.4.4,0,0,1-.218.065" transform="translate(-105.873 -9.645)"/>
    <path id="Path_29708" data-name="Path 29708" d="M598.6,136.393a.4.4,0,0,1-.35-.2c-.185-.326-18.747-32.744-42.885-46.638a.4.4,0,0,1,.4-.7c12.722,7.322,23.787,19.7,30.829,28.788a171.572,171.572,0,0,1,12.355,18.151.4.4,0,0,1-.152.548.4.4,0,0,1-.2.052" transform="translate(-406.374 -65.001)"/>
    <path id="Path_29709" data-name="Path 29709" d="M593.458,105.824a.4.4,0,0,1-.329-.171c-.191-.271-19.268-27.262-38.79-36.549a.4.4,0,0,1,.346-.726c19.713,9.379,38.911,36.54,39.1,36.814a.4.4,0,0,1-.329.633" transform="translate(-405.604 -50.023)"/>
    <path id="Path_29710" data-name="Path 29710" d="M518.025,64.175a2.35,2.35,0,1,1,.864-.166,2.342,2.342,0,0,1-.864.166m0-3.892a1.543,1.543,0,1,0,1.437.976,1.537,1.537,0,0,0-1.437-.976" transform="translate(-377.472 -43.538)"/>
    <path id="Path_29711" data-name="Path 29711" d="M39.1,89.381a.4.4,0,0,1-.4-.4V86.9a.4.4,0,0,1,.8,0v2.079a.4.4,0,0,1-.4.4" transform="translate(-28.329 -63.316)"/>
    <path id="Path_29712" data-name="Path 29712" d="M39.1,107.452a.4.4,0,0,1-.4-.4v-2.079a.4.4,0,0,1,.8,0v2.079a.4.4,0,0,1-.4.4" transform="translate(-28.329 -76.544)"/>
    <path id="Path_29713" data-name="Path 29713" d="M28.267,100.216H26.188a.4.4,0,1,1,0-.8h2.079a.4.4,0,0,1,0,.8" transform="translate(-18.875 -72.769)"/>
    <path id="Path_29714" data-name="Path 29714" d="M46.34,100.216H44.261a.4.4,0,1,1,0-.8H46.34a.4.4,0,1,1,0,.8" transform="translate(-32.104 -72.769)"/>
    <path id="Path_29715" data-name="Path 29715" d="M733.54,293.166a.4.4,0,0,1-.4-.4v-2.079a.4.4,0,1,1,.8,0v2.079a.4.4,0,0,1-.4.4" transform="translate(-536.651 -212.485)"/>
    <path id="Path_29716" data-name="Path 29716" d="M733.54,311.238a.4.4,0,0,1-.4-.4v-2.079a.4.4,0,1,1,.8,0v2.079a.4.4,0,0,1-.4.4" transform="translate(-536.651 -225.714)"/>
    <path id="Path_29717" data-name="Path 29717" d="M722.7,304h-2.079a.4.4,0,0,1,0-.8H722.7a.4.4,0,1,1,0,.8" transform="translate(-527.198 -221.939)"/>
    <path id="Path_29718" data-name="Path 29718" d="M740.775,304H738.7a.4.4,0,0,1,0-.8h2.079a.4.4,0,1,1,0,.8" transform="translate(-540.426 -221.939)"/>
    <path id="Path_29719" data-name="Path 29719" d="M84.132,520.865c0,3.4-11.339,6.164-25.327,6.164s-25.327-2.76-25.327-6.164S44.817,514.7,58.8,514.7s25.327,2.76,25.327,6.164" transform="translate(-24.506 -376.757)" fill="#ad97e4"/>
    <path id="Path_29720" data-name="Path 29720" d="M57.708,526.333c-12.647,0-25.729-2.456-25.729-6.566S45.06,513.2,57.708,513.2s25.729,2.456,25.729,6.566-13.082,6.566-25.729,6.566m0-12.328c-14.91,0-24.925,2.979-24.925,5.762s10.015,5.762,24.925,5.762,24.925-2.979,24.925-5.762-10.015-5.762-24.925-5.762" transform="translate(-23.408 -375.659)"/>
    <path id="Path_29721" data-name="Path 29721" d="M44.146,741.146l.438,8.07,5.4.91.48-9.518Z" transform="translate(-32.315 -542.119)" fill="#fff"/>
    <path id="Path_29722" data-name="Path 29722" d="M48.881,749.43a.4.4,0,0,1-.067-.006l-5.4-.91a.4.4,0,0,1-.334-.375l-.438-8.07a.4.4,0,0,1,.367-.422l6.313-.538a.4.4,0,0,1,.436.421l-.48,9.518a.4.4,0,0,1-.4.382m-5.012-1.655,4.633.781.434-8.607-5.466.466Z" transform="translate(-31.216 -541.021)"/>
    <path id="Path_29723" data-name="Path 29723" d="M32.858,778.1a37.965,37.965,0,0,1-10.326-.525,2.429,2.429,0,0,1-1.878-3.083c1.155-3.849,3.18-11.158,6.188-14.44l.611,1.893,1.061-1.7a.863.863,0,0,1,.667-.4l2.144-.162a.863.863,0,0,1,.917.725l.258,1.629.85-2.079,1.7,15.533a2.424,2.424,0,0,1-2.193,2.613" transform="translate(-15.043 -556.08)" fill="#5b2eca"/>
    <path id="Path_29724" data-name="Path 29724" d="M28.539,777.549a38.543,38.543,0,0,1-7.176-.673,2.831,2.831,0,0,1-2.189-3.594l.247-.829c1.183-3.979,3.163-10.639,6.03-13.767a.4.4,0,0,1,.679.148l.345,1.07.6-.966a1.269,1.269,0,0,1,.977-.591l2.144-.163a1.273,1.273,0,0,1,1.345,1.063l.033.208.305-.747a.4.4,0,0,1,.772.108l1.7,15.533a2.836,2.836,0,0,1-2.557,3.057c-.9.081-2,.143-3.26.143m-2.952-17.78c-2.5,3.183-4.3,9.221-5.394,12.913l-.248.831a2,2,0,0,0,.208,1.629,2.04,2.04,0,0,0,1.36.943,37.426,37.426,0,0,0,10.215.519,2.026,2.026,0,0,0,1.828-2.18l-1.528-13.948-.251.613a.4.4,0,0,1-.769-.089l-.258-1.629a.459.459,0,0,0-.49-.387l-2.144.163a.461.461,0,0,0-.356.215l-1.061,1.7a.4.4,0,0,1-.724-.09Z" transform="translate(-13.948 -554.982)"/>
    <path id="Path_29725" data-name="Path 29725" d="M31.364,816.332a21.821,21.821,0,0,1-5.858-.75.4.4,0,0,1,.218-.774A25.161,25.161,0,0,0,36.639,815a.4.4,0,1,1,.181.783,26.3,26.3,0,0,1-5.456.552" transform="translate(-18.456 -596.422)"/>
    <path id="Path_29726" data-name="Path 29726" d="M43.718,795.793h-.007l-5.1-.088a.4.4,0,1,1,.014-.8l5.1.088a.4.4,0,0,1-.007.8" transform="translate(-27.977 -581.862)"/>
    <path id="Path_29727" data-name="Path 29727" d="M139.809,731.452l.223,11.756,6.531.329.895-11.7Z" transform="translate(-102.339 -535.417)" fill="#fff"/>
    <path id="Path_29728" data-name="Path 29728" d="M145.465,742.841h-.021l-6.531-.329a.4.4,0,0,1-.382-.394l-.223-11.756a.4.4,0,0,1,.122-.3.408.408,0,0,1,.3-.113l7.648.386a.4.4,0,0,1,.381.432l-.894,11.7a.4.4,0,0,1-.4.371m-6.137-1.114,5.765.291.833-10.9-6.806-.344Z" transform="translate(-101.241 -534.319)"/>
    <path id="Path_29729" data-name="Path 29729" d="M133.015,768.615a2.361,2.361,0,0,0,1.7,2.424c3.711,1.063,12.071,3.435,14.465,3.916,3.108.624,7-.141,8.752-1.889s-3.392-6.391-5.855-8.111c-3.659-2.554-7.054-7.409-8.565-7.7s-4.575,3.986-4.575,3.986l-4.546-2.185a57.547,57.547,0,0,0-1.377,9.555" transform="translate(-97.362 -554.298)" fill="#5b2eca"/>
    <path id="Path_29730" data-name="Path 29730" d="M150.336,774.478a11.886,11.886,0,0,1-2.33-.223c-2.425-.487-10.946-2.907-14.5-3.924a2.777,2.777,0,0,1-1.993-2.837,58.543,58.543,0,0,1,1.389-9.629.4.4,0,0,1,.564-.262l4.245,2.04c.831-1.118,3.249-4.164,4.778-3.873.885.168,2.068,1.409,3.7,3.128a35.655,35.655,0,0,0,5.016,4.634c1.99,1.389,6.167,5.016,6.374,7.359a1.66,1.66,0,0,1-.464,1.366c-1.382,1.383-4.091,2.222-6.785,2.222m-16.765-15.934a60.422,60.422,0,0,0-1.252,9,1.968,1.968,0,0,0,1.412,2.011c3.542,1.015,12.038,3.428,14.434,3.909,3.035.609,6.8-.189,8.388-1.779a.848.848,0,0,0,.232-.726c-.158-1.78-3.6-5.076-6.033-6.771a36.273,36.273,0,0,1-5.137-4.738c-1.359-1.426-2.642-2.773-3.273-2.892-.866-.158-2.964,2.137-4.174,3.825a.4.4,0,0,1-.5.128Zm-1.654,8.976h0Z" transform="translate(-96.265 -553.204)"/>
    <path id="Path_29731" data-name="Path 29731" d="M155.341,802.543c-6.9,0-16.614-4.506-17.141-4.752a.4.4,0,1,1,.341-.728c.162.076,16.311,7.568,21.356,3.456a.4.4,0,1,1,.508.623,7.95,7.95,0,0,1-5.065,1.4" transform="translate(-100.992 -583.416)"/>
    <path id="Path_29732" data-name="Path 29732" d="M172.833,779.779a.4.4,0,0,1-.254-.714l3.473-2.829a.4.4,0,1,1,.508.623l-3.473,2.829a.4.4,0,0,1-.254.09" transform="translate(-126.218 -568.133)"/>
    <path id="Path_29733" data-name="Path 29733" d="M35.6,441.372s-3.871,36.519-5.567,49.107.814,33.088.814,33.088l10.108-.021s1.937-24.673,3.032-31.5c0,0,4.727-9.087,6.408-17.319a145.494,145.494,0,0,1,5.843-18.985s.991,63.444,1.069,68.6c0,0,7.887.75,10.812-.89,0,0,6.225-23.594,6.158-36.605s.06-45.223.06-45.223Z" transform="translate(-21.551 -323.081)" fill="#10005c"/>
    <path id="Path_29734" data-name="Path 29734" d="M60.209,523.822c-2.129,0-3.877-.161-4.029-.176a.4.4,0,0,1-.364-.394c-.068-4.559-.862-55.353-1.036-66.464a134.442,134.442,0,0,0-5.08,16.925c-1.6,7.848-6.006,16.565-6.415,17.365-1.082,6.819-3,31.155-3.018,31.4a.4.4,0,0,1-.4.371l-10.108.021h0a.4.4,0,0,1-.4-.353c-.025-.206-2.5-20.7-.814-33.19,1.677-12.439,5.527-48.731,5.566-49.1a.4.4,0,0,1,.4-.36h0l38.735.255a.4.4,0,0,1,.4.4c0,.322-.126,32.359-.06,45.219.066,12.915-6.108,36.473-6.171,36.71a.4.4,0,0,1-.192.248c-1.606.9-4.565,1.115-7.018,1.115m-3.594-.947c1.529.117,7.54.482,10.071-.791.559-2.155,6.163-24.1,6.1-36.331-.062-12.08.044-41.068.058-44.825l-37.971-.25c-.409,3.843-3.942,36.977-5.53,48.756-1.549,11.491.454,29.858.773,32.631l9.379-.02c.247-3.11,1.995-24.854,3.006-31.159a.4.4,0,0,1,.04-.122c.047-.09,4.721-9.133,6.371-17.213a146.876,146.876,0,0,1,5.861-19.05.4.4,0,0,1,.777.139c.01.622.954,61.07,1.063,68.235" transform="translate(-20.467 -321.983)"/>
    <path id="Path_29735" data-name="Path 29735" d="M67.263,628.984h-.021l-3.082-.155a.4.4,0,1,1,.041-.8l3.082.155a.4.4,0,0,1-.02.8" transform="translate(-46.686 -459.709)" fill="#fff"/>
    <path id="Path_29736" data-name="Path 29736" d="M154.006,658.532h-.028a.4.4,0,0,1-.373-.428c.417-6.064,7.613-16.589,7.919-17.034a.4.4,0,1,1,.663.455c-.074.108-7.378,10.789-7.78,16.634a.4.4,0,0,1-.4.374" transform="translate(-112.436 -469.13)" fill="#fff"/>
    <path id="Path_29737" data-name="Path 29737" d="M221.98,357.573c-2.793.315.233-6.975.233-6.975l11.092-.567,8.4-2.316a1.641,1.641,0,0,1,.877,3.163l-3.749,1.045a.731.731,0,0,0-.348,1.19,6.862,6.862,0,0,0,1.964,1.528,47.551,47.551,0,0,0,6.2,2.7c1.163.4,1.379,1.868.218,2.271l-7.975-.341a9.7,9.7,0,0,1-5.9-3.089s-6.2.853-11.005,1.395" transform="translate(-161.621 -254.481)" fill="#fff"/>
    <path id="Path_29738" data-name="Path 29738" d="M245.767,358.915h-.017l-7.975-.341a10.1,10.1,0,0,1-6.033-3.064c-1.121.153-6.544.887-10.807,1.368h0a1.293,1.293,0,0,1-1.264-.485c-1.13-1.5.7-6.131,1.081-7.044a.4.4,0,0,1,.351-.247l11.048-.565,8.354-2.3a2.052,2.052,0,0,1,2.5,1.4,2.043,2.043,0,0,1-1.41,2.543l-3.749,1.045a.328.328,0,0,0-.156.535,6.445,6.445,0,0,0,1.849,1.439,47.488,47.488,0,0,0,6.141,2.672,1.785,1.785,0,0,1,1.26,1.639,1.462,1.462,0,0,1-1.04,1.392.4.4,0,0,1-.132.022m-13.872-4.234a.4.4,0,0,1,.3.134,9.373,9.373,0,0,0,5.615,2.955l7.892.338a.637.637,0,0,0,.434-.605.979.979,0,0,0-.716-.88,47.457,47.457,0,0,1-6.251-2.719,7.245,7.245,0,0,1-2.079-1.618,1.133,1.133,0,0,1,.54-1.845l3.75-1.045a1.238,1.238,0,0,0,.854-1.542,1.244,1.244,0,0,0-1.516-.846l-8.4,2.316a.411.411,0,0,1-.086.014l-10.837.555c-.791,1.978-1.723,5.171-1.085,6.018.074.1.2.2.532.169,4.745-.536,10.934-1.386,11-1.394a.424.424,0,0,1,.055,0m-11.005,1.8h0Z" transform="translate(-160.53 -253.386)"/>
    <path id="Path_29739" data-name="Path 29739" d="M94.039,200.682c-3.387-3.012-3.019-4.062-7.473-4.9-3.919-.737-14.873-1.555-19.9-.4-6.288,1.442-9.12,4-9.12,4s-9.618,6.133-9.39,17.837c.177,9.081,6.18,18.993,6.127,19.767-.594,8.667-4.8,22.959-3.9,26.047,2.176,7.5,37.978,6.716,38.526,3.28.5-3.117,1.975-45.157,1.975-45.157q.205.354.413.7c3.139-4.568,5.571-9.561,8.369-14.334a78.476,78.476,0,0,0-5.628-6.837" transform="translate(-35.248 -142.596)" fill="#8462d7"/>
    <path id="Path_29740" data-name="Path 29740" d="M72.416,268.117a84.042,84.042,0,0,1-12.4-.862c-6.666-1.03-10.4-2.788-11.112-5.224-.507-1.745.467-6.578,1.594-12.175a122.108,122.108,0,0,0,2.288-13.988,17.875,17.875,0,0,0-.817-1.848c-1.679-3.549-5.173-10.936-5.309-17.907-.224-11.473,8.958-17.774,9.546-18.165.311-.272,3.191-2.676,9.275-4.071,5.017-1.151,15.841-.4,20.064.4,3.367.634,4.107,1.41,5.583,2.956.549.576,1.172,1.229,2.083,2.038a44.928,44.928,0,0,1,4.055,4.822c.516.66,1.058,1.355,1.621,2.066a.4.4,0,0,1,.032.453c-.951,1.623-1.877,3.3-2.772,4.924-1.737,3.15-3.533,6.407-5.612,9.434a.4.4,0,0,1-.344.174l-.037,0c-.24,6.751-1.486,41.261-1.942,44.122-.287,1.8-6.52,2.456-10.21,2.686-1.817.113-3.7.169-5.583.169m.291-74.017a34.5,34.5,0,0,0-7.049.561c-6.093,1.4-8.913,3.882-8.941,3.906a.424.424,0,0,1-.053.04c-.094.06-9.426,6.158-9.2,17.49.133,6.8,3.577,14.08,5.232,17.579.709,1.5.913,1.944.894,2.223a122.255,122.255,0,0,1-2.3,14.115c-1.06,5.264-2.062,10.236-1.61,11.792.6,2.05,4.311,3.7,10.462,4.654a88.245,88.245,0,0,0,17.814.686c6.729-.419,9.378-1.456,9.466-2.01.487-3.057,1.956-44.688,1.971-45.108a.4.4,0,0,1,.75-.187l.088.152c1.91-2.847,3.589-5.893,5.217-8.845.854-1.549,1.736-3.148,2.643-4.705-.5-.638-.99-1.26-1.454-1.855a45.8,45.8,0,0,0-3.956-4.716c-.936-.832-1.6-1.527-2.131-2.084-1.4-1.466-2.037-2.135-5.15-2.721a81.63,81.63,0,0,0-12.686-.966" transform="translate(-34.15 -141.485)"/>
    <path id="Path_29741" data-name="Path 29741" d="M226.438,222.869A55.574,55.574,0,0,0,205,220.513c-4.27.458-8.546-6.656-12.865-12.108-.025.043-6.568-7.409-10.574-9.731a47.553,47.553,0,0,0-5.417-1.727c-2.077,7.169-4.7,18.677-2.709,27.513,2.357,10.475,1.678,48.27,1.369,61.148,12.82-.28,16.166-.571,16.166-.571,1.3-7.118-2.975-41.922-4.72-55.437a.4.4,0,0,1,.681-.344c4.18,4.1,9.869,6.141,19.282,4.813,13.551-1.912,21.287-3.633,21.287-3.633Z" transform="translate(-126.438 -144.164)" fill="#fff"/>
    <path id="Path_29742" data-name="Path 29742" d="M173.738,284.913a.4.4,0,0,1-.4-.412c.28-11.661,1.009-50.526-1.359-61.049-1.52-6.754-.581-16.337,2.715-27.713a.4.4,0,0,1,.5-.274c.315.093.7.2,1.114.321a31,31,0,0,1,4.391,1.444c3.43,1.988,8.533,7.507,10.209,9.321.192.207.359.388.413.443a.4.4,0,0,1,.065.065c.8,1.014,1.616,2.1,2.4,3.15,3.369,4.5,6.85,9.151,10.1,8.807a56.48,56.48,0,0,1,21.607,2.376.4.4,0,0,1,.267.324l1.066,7.567a.4.4,0,0,1-.311.448c-.077.017-7.906,1.747-21.318,3.639-8.7,1.227-14.939-.337-19.619-4.924,1.849,14.34,6.011,48.449,4.715,55.566a.4.4,0,0,1-.361.328c-.034,0-3.506.3-16.192.573Zm1.615-88.564c-3.168,11.076-4.064,20.38-2.591,26.926,2.3,10.227,1.748,45.606,1.388,60.824,10.294-.229,14.338-.465,15.408-.538,1.112-7.635-2.953-40.908-4.772-55.008a.806.806,0,0,1,1.361-.683c4.549,4.459,10.391,5.909,18.944,4.7,11.759-1.659,19.21-3.191,20.893-3.549L225,222.076a55.64,55.64,0,0,0-21.027-2.261,4.251,4.251,0,0,1-.447.024c-3.539,0-6.869-4.449-10.387-9.148-.781-1.044-1.589-2.123-2.384-3.127-.1-.092-.232-.239-.443-.468-4.444-4.807-7.816-7.892-10.022-9.171a33.366,33.366,0,0,0-4.209-1.366l-.732-.209" transform="translate(-125.368 -143.067)"/>
    <path id="Path_29743" data-name="Path 29743" d="M66.673,229.911c-.9-11.3-8.825-24.565-12.513-31.713-3.068.571-4.858.685-8.02,2.038-13.125,5.62-8.217,26.058-8.217,26.058a30.617,30.617,0,0,0,3.127,8.219l2.591.268c-1.429,10.72-4.214,18.24-5.717,28.766l-4.109,26.086c1.2-3.908,23.577-2.6,32.161-1.787-1.458-21.215,1.714-45.233.7-57.935" transform="translate(-24.752 -145.079)" fill="#fff"/>
    <path id="Path_29744" data-name="Path 29744" d="M32.716,288.937a.424.424,0,0,1-.091-.01.4.4,0,0,1-.307-.454l4.109-26.086c.732-5.121,1.783-9.6,2.8-13.941,1.047-4.467,2.129-9.081,2.862-14.405l-2.178-.225a.4.4,0,0,1-.3-.195,31.117,31.117,0,0,1-3.171-8.328,41,41,0,0,1-.824-11.046c.553-7.764,3.759-13.116,9.273-15.477a24.963,24.963,0,0,1,6.472-1.776c.51-.088,1.048-.18,1.633-.288a.4.4,0,0,1,.431.211c.511.992,1.114,2.118,1.751,3.311,3.99,7.463,10.019,18.741,10.8,28.555.457,5.712.078,13.558-.361,22.643-.534,11.062-1.14,23.6-.337,35.3a.4.4,0,0,1-.439.427c-4.869-.459-12.364-.933-18.809-.874-11.042.1-12.721,1.7-12.93,2.378a.4.4,0,0,1-.384.284m7.48-55.9,2.388.247a.4.4,0,0,1,.357.453,149.146,149.146,0,0,1-2.931,14.893c-1.013,4.319-2.059,8.786-2.787,13.877l-3.9,24.73c1.341-.814,4.583-1.695,12.7-1.765,6.265-.055,13.528.387,18.421.834-.759-11.607-.161-23.983.367-34.919.437-9.058.816-16.88.363-22.54h0c-.772-9.647-6.754-20.836-10.712-28.24-.583-1.091-1.137-2.126-1.62-3.056-.477.087-.924.163-1.351.236a24.017,24.017,0,0,0-6.291,1.722c-12.667,5.424-8.032,25.393-7.984,25.594a30.765,30.765,0,0,0,2.98,7.934" transform="translate(-23.653 -143.981)"/>
    <path id="Path_29745" data-name="Path 29745" d="M206.318,446.051H206.3a2.163,2.163,0,0,1-1.539-.792c-2.084-2.38-1.546-9.689-1.522-10a.4.4,0,0,1,.47-.365,14.754,14.754,0,0,0,5.593-.288.4.4,0,1,1,.207.777,15.392,15.392,0,0,1-5.494.365c-.082,1.588-.247,7.156,1.351,8.981a1.369,1.369,0,0,0,.979.519.4.4,0,0,1-.022.8" transform="translate(-148.708 -318.119)" fill="#d6cbf2"/>
    <path id="Path_29746" data-name="Path 29746" d="M88.021,446.614h-.033a.4.4,0,0,1,0-.8.161.161,0,0,1,.032,0,3.8,3.8,0,0,0,2.965-1.3c2.5-2.752,2.282-9.007,2.166-10.776a25.253,25.253,0,0,1-12.766-.471.4.4,0,0,1,.252-.763,24.727,24.727,0,0,0,12.767.334.4.4,0,0,1,.509.346c.035.341.818,8.4-2.333,11.87a4.628,4.628,0,0,1-3.562,1.561" transform="translate(-58.641 -316.574)" fill="#d6cbf2"/>
    <path id="Path_29747" data-name="Path 29747" d="M68.029,215.04s-6.626,2.226-10.071,14.113c-1.787,6.164-4.572,15.133,5.271,27.516,1.969,2.476,7.281,6.284,10.4,6.64l29.914-1.409-.133-9.662s-23.2-1.339-26.685-2.662c-3.088-1.171-7.561-16.428-8.026-23.914Z" transform="translate(-41.124 -157.408)" fill="#fff"/>
    <path id="Path_29748" data-name="Path 29748" d="M66.7,307.07l-.046,0c-3.092-.352-10.219-4.75-13.913-10.576-2.322-3.662-5.651-13.722-6.025-15.754a.4.4,0,1,1,.791-.146c.357,1.939,3.686,11.956,5.914,15.469,3.558,5.61,10.337,9.842,13.294,10.2L96.2,304.876l-.122-8.9c-3.107-.184-23.13-1.413-26.431-2.665-2.821-1.07-6.132-11.705-7.482-18.556a.4.4,0,1,1,.789-.155c1.542,7.827,4.788,17.128,6.978,17.959,3.389,1.286,26.334,2.623,26.566,2.636a.4.4,0,0,1,.379.4l.133,9.662a.4.4,0,0,1-.383.407l-29.914,1.409H66.7" transform="translate(-34.189 -200.768)"/>
    <path id="Path_29749" data-name="Path 29749" d="M122.335,145.852l3.348-4.195a7.521,7.521,0,0,0,.954-1.617,7.432,7.432,0,0,0,.233-5.073l-.481-1.6a3.855,3.855,0,0,1,.722-3.641c3.261-3.72,12.506.694,12.506.694.573.033.617,2.971.822,3.513l1.053,2.786a.537.537,0,0,1-.3.686l-1.343.556-.012.013-1.018,3.767a1.29,1.29,0,0,1-1.233.959l-2.7.019a1.093,1.093,0,0,0-1.03.763l-.955,3.106a2.479,2.479,0,0,0,1.942,1.2,1.084,1.084,0,0,1,.721,1.6l-.905,1.594a5.177,5.177,0,0,1-7.286,1.809l-6.7-4.841a.785.785,0,0,1,.237-1.388,4.617,4.617,0,0,0,1.425-.708" transform="translate(-88.093 -93.864)" fill="#fff"/>
    <path id="Path_29750" data-name="Path 29750" d="M129.044,152.906a5.53,5.53,0,0,1-2.985-.879l-6.721-4.854a1.187,1.187,0,0,1,.356-2.1,4.234,4.234,0,0,0,1.262-.616l3.314-4.152a7.117,7.117,0,0,0,.9-1.526,7.033,7.033,0,0,0,.217-4.8l-.481-1.6a4.272,4.272,0,0,1,.8-4.022c3.323-3.79,12.066.167,12.926.57.6.126.749,1.126.927,2.708a8.015,8.015,0,0,0,.154,1.052l1.053,2.786a.935.935,0,0,1-.519,1.2l-1.17.484-.969,3.586A1.7,1.7,0,0,1,136.5,142l-2.7.019a.689.689,0,0,0-.65.484l-.907,2.952a2.376,2.376,0,0,0,1.589.838,1.455,1.455,0,0,1,1.051.831,1.5,1.5,0,0,1-.058,1.363l-.905,1.594a5.528,5.528,0,0,1-3.507,2.661,5.64,5.64,0,0,1-1.359.168m1.041-25.379a4.828,4.828,0,0,0-3.77,1.359,3.462,3.462,0,0,0-.639,3.261l.481,1.6a7.835,7.835,0,0,1-.249,5.348,7.922,7.922,0,0,1-1.005,1.7l-3.352,4.2a.4.4,0,0,1-.075.073,5.013,5.013,0,0,1-1.547.769.381.381,0,0,0-.272.307.369.369,0,0,0,.153.37l6.7,4.841a4.775,4.775,0,0,0,6.7-1.681l.905-1.594a.684.684,0,0,0,.027-.63.659.659,0,0,0-.475-.378,2.742,2.742,0,0,1-2.238-1.446.4.4,0,0,1-.011-.267l.955-3.106a1.493,1.493,0,0,1,1.411-1.047l2.7-.019a.891.891,0,0,0,.847-.662l1.018-3.767a.4.4,0,0,1,.084-.157.478.478,0,0,1,.162-.122l1.343-.556a.135.135,0,0,0,.075-.173l-1.053-2.786a6.439,6.439,0,0,1-.2-1.247,8.58,8.58,0,0,0-.374-2.028.353.353,0,0,1-.045-.018c-.064-.031-4.568-2.15-8.261-2.15m-8.849,17.224h0Z" transform="translate(-86.995 -92.763)"/>
    <path id="Path_29751" data-name="Path 29751" d="M138.506,115.787c-.36-1.29-1.081-1.837-.861-2.524a1.5,1.5,0,0,1,.749-.771c1.109-.642,2.412-.036,5.071.773,3.3,1.005,3.675,1.147,4.339.962,1.686-.47,2.822-2.379,3.071-4.022a4.72,4.72,0,0,0-1.556-4.408,4.907,4.907,0,0,0-5.127-.383,2.372,2.372,0,0,0-.917-1.6c-1.438-.949-3.9.567-4.76,1.1a10.033,10.033,0,0,0-3.4,3.529,3.452,3.452,0,0,0-2.612-.649c-1.887.392-2.578,2.592-2.64,2.8-.724,2.435,1.066,4.822,2.417,6.624a9.391,9.391,0,0,0,1.609,1.772.94.94,0,0,0,.974.145l.018-.008a.825.825,0,0,0,.42-1.112l-.064-.135a3.814,3.814,0,0,1-.383-1.622,1.327,1.327,0,0,1,.392-1.119,1.544,1.544,0,0,1,1.353.05,2.059,2.059,0,0,1,1.035,1.14c.188.459,1.032.028.872-.544" transform="translate(-94.937 -75.77)" fill="#10005c"/>
    <path id="Path_29752" data-name="Path 29752" d="M411.275,480.676l9.458-6.025a1.951,1.951,0,0,0,.588-2.709L416.158,464l-12.749,8.121,5.182,7.972a1.951,1.951,0,0,0,2.684.582" transform="translate(-295.292 -339.645)" fill="#5b2eca"/>
    <path id="Path_29753" data-name="Path 29753" d="M409.135,480.285a2.357,2.357,0,0,1-1.979-1.069l-5.182-7.972a.4.4,0,0,1,.121-.558l12.749-8.121a.4.4,0,0,1,.553.12l5.162,7.942a2.353,2.353,0,0,1-.709,3.267l-9.458,6.025a2.336,2.336,0,0,1-1.258.366m1.042-.705h0Zm-7.307-8.434,4.961,7.632a1.553,1.553,0,0,0,2.131.462l9.458-6.025a1.549,1.549,0,0,0,.467-2.15l-4.945-7.608Z" transform="translate(-294.194 -338.549)"/>
    <rect id="Rectangle_10554" data-name="Rectangle 10554" width="13.012" height="40.742" transform="matrix(0.843, -0.537, 0.537, 0.843, 59.462, 53.752)" fill="#5b2eca"/>
    <path id="Path_29754" data-name="Path 29754" d="M242.658,215.137a.421.421,0,0,1-.087-.009.4.4,0,0,1-.252-.177L220.43,180.588a.4.4,0,0,1,.124-.555l10.975-6.991a.409.409,0,0,1,.3-.053.4.4,0,0,1,.252.177l21.888,34.363a.4.4,0,0,1-.123.555l-10.975,6.991a.4.4,0,0,1-.216.063m-21.333-34.642,21.456,33.685,10.3-6.558-21.456-33.685Z" transform="translate(-161.307 -126.62)"/>
    <path id="Path_29755" data-name="Path 29755" d="M268.726,724.07h27.5v-24.9H284.412Z" transform="translate(-196.706 -511.786)" fill="#5b2eca"/>
    <path id="Path_29756" data-name="Path 29756" d="M295.13,723.374h-27.5a.4.4,0,0,1-.34-.616l15.685-24.9a.4.4,0,0,1,.34-.188H295.13a.4.4,0,0,1,.4.4v24.9a.4.4,0,0,1-.4.4m-26.774-.8h26.372v-24.1H283.535Z" transform="translate(-195.608 -510.688)"/>
    <path id="Path_29757" data-name="Path 29757" d="M239.391,724.07h27.5v-24.9H255.076Z" transform="translate(-175.232 -511.786)" fill="#8462d7"/>
    <path id="Path_29758" data-name="Path 29758" d="M265.794,723.374h-27.5a.4.4,0,0,1-.34-.616l15.685-24.9a.4.4,0,0,1,.34-.188h11.817a.4.4,0,0,1,.4.4v24.9a.4.4,0,0,1-.4.4m-26.774-.8h26.372v-24.1H254.2Z" transform="translate(-174.134 -510.688)"/>
    <path id="Path_29759" data-name="Path 29759" d="M227.239,380.351l9.857,15.476a34.618,34.618,0,1,0-4.45,68.958,35.234,35.234,0,0,0,25.841-11.47h18.636a50.093,50.093,0,1,1-49.884-72.964" transform="translate(-133.676 -278.414)" fill="#5b2eca"/>
    <path id="Path_29760" data-name="Path 29760" d="M231.549,479.571a50.511,50.511,0,0,1-5.45-100.718.4.4,0,0,1,.382.184l9.858,15.476a.4.4,0,0,1-.391.615,34.6,34.6,0,0,0-4.4-.281,34.219,34.219,0,0,0,0,68.438,34.874,34.874,0,0,0,25.545-11.34.4.4,0,0,1,.3-.13h18.636a.4.4,0,0,1,.356.588,50.537,50.537,0,0,1-44.833,27.168m-5.612-99.891a49.7,49.7,0,1,0,49.421,72.939H257.566a35.674,35.674,0,0,1-26.017,11.47,35.023,35.023,0,0,1,0-70.046,35.423,35.423,0,0,1,3.657.19Z" transform="translate(-132.578 -277.316)"/>
    <path id="Path_29761" data-name="Path 29761" d="M206.014,380.351l9.858,15.476a34.618,34.618,0,1,0-4.45,68.958,35.234,35.234,0,0,0,25.841-11.47H255.9a50.093,50.093,0,1,1-49.884-72.964" transform="translate(-118.139 -278.414)" fill="#ad97e4"/>
    <path id="Path_29762" data-name="Path 29762" d="M210.324,479.571a50.511,50.511,0,0,1-5.45-100.718.4.4,0,0,1,.382.184l9.858,15.476a.4.4,0,0,1-.39.615,34.6,34.6,0,0,0-4.4-.281,34.219,34.219,0,0,0,0,68.438,34.874,34.874,0,0,0,25.545-11.34.4.4,0,0,1,.3-.13H254.8a.4.4,0,0,1,.356.588,50.537,50.537,0,0,1-44.833,27.168m-5.612-99.891a49.7,49.7,0,1,0,49.421,72.939H236.341a35.673,35.673,0,0,1-26.017,11.47,35.023,35.023,0,0,1,0-70.046,35.423,35.423,0,0,1,3.657.19Z" transform="translate(-117.041 -277.316)"/>
    <path id="Path_29763" data-name="Path 29763" d="M300.393,378.805l10.414-6.8L288.43,336.88l-10.414,6.8Z" transform="translate(-203.506 -246.594)" fill="#8462d7"/>
    <path id="Path_29764" data-name="Path 29764" d="M299.295,378.109a.4.4,0,0,1-.085-.009.4.4,0,0,1-.254-.177l-22.376-35.13a.4.4,0,0,1,.119-.552l10.415-6.8a.4.4,0,0,1,.559.121l22.377,35.13a.4.4,0,0,1-.12.552l-10.415,6.8a.4.4,0,0,1-.219.065M277.47,342.7l21.945,34.452,9.741-6.356-21.944-34.452Z" transform="translate(-202.407 -245.495)"/>
    <path id="Path_29765" data-name="Path 29765" d="M303.019,321.519l14.494-9.232a2.311,2.311,0,0,0,.708-3.191l-34.359-53.941a2.014,2.014,0,0,0-2.781-.617l-15,9.552a2.013,2.013,0,0,0-.617,2.78l34.359,53.941a2.311,2.311,0,0,0,3.191.708" transform="translate(-194.09 -186.089)" fill="#5b2eca"/>
    <path id="Path_29766" data-name="Path 29766" d="M300.453,321.082a2.533,2.533,0,0,1-.551-.061,2.5,2.5,0,0,1-1.58-1.106l-34.553-54.246a2.25,2.25,0,0,1,.688-3.1l15.28-9.733a2.248,2.248,0,0,1,3.1.688l3.078,4.833a.4.4,0,1,1-.678.432l-3.078-4.833a1.444,1.444,0,0,0-1.993-.442l-15.28,9.732a1.446,1.446,0,0,0-.442,1.993L299,319.483a1.716,1.716,0,0,0,2.369.526l14.82-9.44a1.7,1.7,0,0,0,.753-1.076.4.4,0,1,1,.785.174,2.5,2.5,0,0,1-1.107,1.58l-14.82,9.44a2.5,2.5,0,0,1-1.349.4" transform="translate(-192.82 -184.814)"/>
    <path id="Path_29767" data-name="Path 29767" d="M206.907,168.376l-1.474-2.314a1.111,1.111,0,0,1,.34-1.534l13.26-8.447a1.111,1.111,0,0,1,1.534.34l1.474,2.314a1.112,1.112,0,0,1-.34,1.535l-13.26,8.447a1.112,1.112,0,0,1-1.535-.34" transform="translate(-150.248 -114.123)" fill="#fff"/>
    <path id="Path_29768" data-name="Path 29768" d="M206.747,168.2a1.513,1.513,0,0,1-1.279-.7l-1.474-2.314a1.513,1.513,0,0,1,.463-2.09l13.26-8.447a1.516,1.516,0,0,1,2.09.464l1.474,2.314a1.513,1.513,0,0,1-.463,2.089l-13.26,8.447a1.505,1.505,0,0,1-.811.236m-.6-1.132a.711.711,0,0,0,.98.217l13.26-8.447a.71.71,0,0,0,.217-.979l-1.474-2.314a.711.711,0,0,0-.979-.217l-13.26,8.447a.709.709,0,0,0-.217.979Z" transform="translate(-149.148 -113.026)"/>
    <rect id="Rectangle_10555" data-name="Rectangle 10555" width="47.385" height="5.428" transform="translate(104.842 169.41)" fill="#fff"/>
    <path id="Path_29769" data-name="Path 29769" d="M437.478,636.841H390.093a.4.4,0,0,1-.4-.4v-5.428a.4.4,0,0,1,.4-.4h47.385a.4.4,0,0,1,.4.4v5.428a.4.4,0,0,1-.4.4m-46.983-.8h46.581v-4.624H390.5Z" transform="translate(-285.251 -461.601)"/>
    <rect id="Rectangle_10556" data-name="Rectangle 10556" width="83.916" height="9.737" transform="translate(56.771 212.221)" fill="#8462d7"/>
    <path id="Path_29770" data-name="Path 29770" d="M294.643,800.89H210.727a.4.4,0,0,1-.4-.4v-9.737a.4.4,0,0,1,.4-.4h83.916a.4.4,0,0,1,.4.4v9.737a.4.4,0,0,1-.4.4m-83.514-.8h83.112v-8.933H211.129Z" transform="translate(-153.956 -578.529)"/>
    <rect id="Rectangle_10557" data-name="Rectangle 10557" width="86.672" height="9.737" transform="translate(44.264 212.221)" fill="#ad97e4"/>
    <path id="Path_29771" data-name="Path 29771" d="M250.732,800.89H164.06a.4.4,0,0,1-.4-.4v-9.737a.4.4,0,0,1,.4-.4h86.672a.4.4,0,0,1,.4.4v9.737a.4.4,0,0,1-.4.4m-86.27-.8H250.33v-8.933H164.462Z" transform="translate(-119.796 -578.529)"/>
    <path id="Path_29772" data-name="Path 29772" d="M246.862,388.6A12.737,12.737,0,1,0,259.6,375.863,12.737,12.737,0,0,0,246.862,388.6" transform="translate(-180.701 -275.129)" fill="#5b2eca"/>
    <path id="Path_29773" data-name="Path 29773" d="M258.5,400.641A13.139,13.139,0,1,1,271.64,387.5,13.154,13.154,0,0,1,258.5,400.641m0-25.474A12.335,12.335,0,1,0,270.836,387.5,12.349,12.349,0,0,0,258.5,375.167" transform="translate(-179.603 -274.031)"/>
    <path id="Path_29774" data-name="Path 29774" d="M269.29,405.018a6.726,6.726,0,1,0,6.726-6.726,6.726,6.726,0,0,0-6.726,6.726" transform="translate(-197.118 -291.547)" fill="#ad97e4"/>
    <path id="Path_29775" data-name="Path 29775" d="M274.918,411.047a7.128,7.128,0,1,1,7.128-7.128,7.136,7.136,0,0,1-7.128,7.128m0-13.452a6.324,6.324,0,1,0,6.324,6.324,6.331,6.331,0,0,0-6.324-6.324" transform="translate(-196.02 -290.448)"/>
    <path id="Path_29776" data-name="Path 29776" d="M467.251,614.079a.743.743,0,0,0,.7-.967c-.809-2.654-4.883-4.673-9.787-4.673s-8.971,2.015-9.784,4.666a.743.743,0,0,0,.7.969c3.257,0,14.907,0,18.163.005" transform="translate(-328.189 -445.373)" fill="#5b2eca"/>
    <path id="Path_29777" data-name="Path 29777" d="M466.152,613.384c-3.255,0-14.906,0-18.163-.005a1.127,1.127,0,0,1-.914-.461,1.146,1.146,0,0,1-.173-1.027c.88-2.868,5.156-4.95,10.169-4.95s9.3,2.085,10.171,4.957a1.148,1.148,0,0,1-.175,1.027,1.127,1.127,0,0,1-.914.46m-9.082-5.64c-4.593,0-8.634,1.884-9.4,4.382a.349.349,0,0,0,.052.313.326.326,0,0,0,.268.135c3.257,0,14.907,0,18.162.005a.326.326,0,0,0,.267-.135.35.35,0,0,0,.053-.314c-.763-2.5-4.8-4.388-9.4-4.388" transform="translate(-327.09 -444.275)"/>
    <path id="Path_29778" data-name="Path 29778" d="M464.222,616.649a.4.4,0,0,1-.252-.716,8.864,8.864,0,0,1,5.207-1.633.394.394,0,0,1,.412.391.4.4,0,0,1-.391.412,8.176,8.176,0,0,0-4.726,1.457.4.4,0,0,1-.251.088" transform="translate(-339.513 -449.662)" fill="#fff"/>
    <path id="Path_29779" data-name="Path 29779" d="M256.646,350.229l2.35-.121,2.761-.579,6.362-1.755a1.641,1.641,0,0,1,.877,3.163l-3.75,1.045a.731.731,0,0,0-.348,1.19,6.862,6.862,0,0,0,1.964,1.528,47.5,47.5,0,0,0,6.2,2.7c1.163.4,1.379,1.868.218,2.271l-7.975-.341a7.546,7.546,0,0,1-4.31-1.591c-2.924-2.275-4.346-7.506-4.346-7.506" transform="translate(-187.863 -254.524)" fill="#fff"/>
    <path id="Path_29780" data-name="Path 29780" d="M255.915,358.975H255.9l-7.975-.341a7.928,7.928,0,0,1-5-2.061l-1.027-1.006-7.1.9a.4.4,0,1,1-.1-.8l7.3-.925a.4.4,0,0,1,.332.112l1.156,1.132a7.112,7.112,0,0,0,4.478,1.842l7.892.338a.637.637,0,0,0,.433-.6.979.979,0,0,0-.716-.881,47.406,47.406,0,0,1-6.251-2.719,7.244,7.244,0,0,1-2.079-1.618,1.133,1.133,0,0,1,.54-1.845l3.75-1.045a1.238,1.238,0,0,0,.854-1.542,1.243,1.243,0,0,0-1.516-.846l-7.667,2.115a.426.426,0,0,1-.048.01c-.033.005-3.355.487-9.806.725a.4.4,0,0,1-.03-.8c6.115-.225,9.388-.671,9.694-.714l7.642-2.108a2.052,2.052,0,0,1,2.5,1.4,2.043,2.043,0,0,1-1.41,2.543l-3.749,1.045a.328.328,0,0,0-.156.535,6.443,6.443,0,0,0,1.849,1.439,47.482,47.482,0,0,0,6.141,2.672,1.784,1.784,0,0,1,1.26,1.64,1.461,1.461,0,0,1-1.04,1.392.4.4,0,0,1-.132.022" transform="translate(-170.501 -253.43)"/>
    <path id="Path_29781" data-name="Path 29781" d="M353.149,290.4l.024-.02a12.352,12.352,0,0,0-6.554.08c-.386.752,1.169,1.106,3.922,1.746a33.862,33.862,0,0,0-3.093,6.127,1.511,1.511,0,0,0,1.613,2.012,21.48,21.48,0,0,0,4.352-1.173l1.332-.639c.236-4.244.018-7.581-1.6-8.132" transform="translate(-253.679 -212.264)" fill="#fff"/>
    <path id="Path_29782" data-name="Path 29782" d="M347.771,299.656a1.909,1.909,0,0,1-1.5-.729,1.886,1.886,0,0,1-.3-1.836,33.6,33.6,0,0,1,2.833-5.724c-2.234-.522-3.373-.824-3.672-1.468a.8.8,0,0,1,.03-.726.4.4,0,0,1,.239-.2,12.644,12.644,0,0,1,6.765-.087.4.4,0,0,1,.184.1c1.481.67,1.99,3.23,1.7,8.468a.4.4,0,0,1-.227.34l-1.332.639-.038.016a21.971,21.971,0,0,1-4.439,1.194,1.933,1.933,0,0,1-.241.015m-1.84-10a15.574,15.574,0,0,0,3.528,1.039l.075.018a.4.4,0,0,1,.249.606,33.524,33.524,0,0,0-3.056,6.052,1.074,1.074,0,0,0,.171,1.059,1.113,1.113,0,0,0,1.016.416,21.179,21.179,0,0,0,4.245-1.146l1.1-.528c.107-1.966.313-6.929-1.337-7.492a.408.408,0,0,1-.091-.044,11.915,11.915,0,0,0-5.9.022m7.716,7.775h0Z" transform="translate(-252.581 -211.158)"/>
    <path id="Path_29783" data-name="Path 29783" d="M658.917,481.685H631.77l-8.289-110.247,41.653.207Z" transform="translate(-456.383 -271.89)" fill="#5b2eca"/>
    <path id="Path_29784" data-name="Path 29784" d="M679.123,791.762H654.5a1.563,1.563,0,0,1-1.564-1.563v-6.613a1.564,1.564,0,0,1,1.564-1.564h24.622a1.564,1.564,0,0,1,1.564,1.564V790.2a1.563,1.563,0,0,1-1.564,1.563" transform="translate(-477.945 -572.434)" fill="#5479f7"/>
    <path id="Path_29785" data-name="Path 29785" d="M678.025,791.066H653.4a1.968,1.968,0,0,1-1.966-1.966v-6.613a1.968,1.968,0,0,1,1.966-1.966h24.622a1.968,1.968,0,0,1,1.966,1.966V789.1a1.968,1.968,0,0,1-1.966,1.966m-24.622-9.74a1.163,1.163,0,0,0-1.162,1.162V789.1a1.163,1.163,0,0,0,1.162,1.161h24.622a1.163,1.163,0,0,0,1.161-1.161v-6.613a1.163,1.163,0,0,0-1.161-1.162Z" transform="translate(-476.847 -571.336)"/>
    <path id="Path_29786" data-name="Path 29786" d="M667.956,384.5H633.383a.4.4,0,0,1,0-.8h34.573a.4.4,0,1,1,0,.8" transform="translate(-463.337 -280.864)" fill="#8462d7"/>
    <path id="Path_29787" data-name="Path 29787" d="M548.238,495s-1.594,13.425-11.483,17.743l-.037,3.965s18.426-5.646,19.443-20.146Z" transform="translate(-392.874 -362.334)" fill="#5b2eca"/>
    <rect id="Rectangle_10558" data-name="Rectangle 10558" width="11.444" height="24.301" transform="translate(161.593 136.513)" fill="#8462d7"/>
    <path id="Path_29788" data-name="Path 29788" d="M584.754,571.64h21.192v-5.331a1.61,1.61,0,0,0-1.61-1.61H585.611a.857.857,0,0,0-.857.857Z" transform="translate(-428.035 -413.355)" fill="#8462d7"/>
    <path id="Path_29789" data-name="Path 29789" d="M561.752,653.062h32a1.041,1.041,0,0,0,1.041-1.041V591.636a1.04,1.04,0,0,0-1.041-1.04h-32a1.041,1.041,0,0,0-1.041,1.04v60.385a1.041,1.041,0,0,0,1.041,1.041" transform="translate(-410.436 -432.312)" fill="#8462d7"/>
    <path id="Path_29790" data-name="Path 29790" d="M584.405,670.961a.4.4,0,0,1-.4-.4V626.7a.4.4,0,0,1,.8,0v43.855a.4.4,0,0,1-.4.4" transform="translate(-427.486 -458.448)" fill="#fff"/>
    <rect id="Rectangle_10559" data-name="Rectangle 10559" width="7.692" height="13.09" transform="translate(148.728 131.602) rotate(-77.464)" fill="#5b2eca"/>
    <path id="Path_29791" data-name="Path 29791" d="M578.609,476.771l18.334,4.077a1.9,1.9,0,0,0,2.271-1.445l2.125-9.555a1.9,1.9,0,0,0-1.445-2.271L581.56,463.5a1.9,1.9,0,0,0-2.271,1.445l-2.125,9.555a1.9,1.9,0,0,0,1.445,2.271" transform="translate(-422.446 -339.245)" fill="#ad97e4"/>
    <path id="Path_29792" data-name="Path 29792" d="M596.258,480.2a2.28,2.28,0,0,1-.5-.055l-18.334-4.077a2.3,2.3,0,0,1-1.75-2.75l2.125-9.555a2.306,2.306,0,0,1,2.751-1.75l18.334,4.077a2.308,2.308,0,0,1,1.75,2.751l-2.125,9.555a2.309,2.309,0,0,1-2.25,1.805m-16.213-17.439a1.5,1.5,0,0,0-1.463,1.176l-2.125,9.555a1.5,1.5,0,0,0,1.14,1.792l18.334,4.077a1.5,1.5,0,0,0,1.792-1.14l2.125-9.555a1.5,1.5,0,0,0-1.14-1.792l-18.334-4.077a1.514,1.514,0,0,0-.329-.036" transform="translate(-421.347 -338.147)" fill="#5b2eca"/>
    <path id="Path_29793" data-name="Path 29793" d="M575.1,558.855H543.05a1.317,1.317,0,0,1-1.316-1.316V496.976a1.372,1.372,0,0,1,1.37-1.37h5.062v-5.137a1.565,1.565,0,0,1,1.563-1.563h3.261v-8.948c-5.318,8.876-17.109,12.59-17.233,12.629a.4.4,0,0,1-.358-.062.4.4,0,0,1-.162-.326l.032-3.965a.4.4,0,0,1,.241-.365c6.642-2.9,9.464-10.079,10.562-14.152a2.284,2.284,0,0,1,.043-.718l.4-1.819-6.089-1.354a.4.4,0,0,1-.305-.479l1.67-7.508a.4.4,0,0,1,.479-.305l6.161,1.37a2.29,2.29,0,0,1,2.558-1.208l18.337,4.077a2.308,2.308,0,0,1,1.755,2.75l-2.113,9.555a2.294,2.294,0,0,1-2.728,1.75l-.925-.212v9.293h3.216a1.61,1.61,0,0,1,1.608,1.608v5.092h4.883a1.551,1.551,0,0,1,1.549,1.549v60.229a1.474,1.474,0,0,1-1.472,1.472m-32-62.446a.567.567,0,0,0-.566.566V557.54a.512.512,0,0,0,.512.512H575.1a.669.669,0,0,0,.668-.668V497.155a.746.746,0,0,0-.745-.745h-5.285a.4.4,0,0,1-.4-.4v-5.494a.8.8,0,0,0-.8-.8h-3.618a.4.4,0,0,1-.4-.4v-10.2a.4.4,0,0,1,.492-.392l1.415.325a1.47,1.47,0,0,0,1.766-1.14l2.113-9.555a1.5,1.5,0,0,0-1.145-1.792l-18.337-4.077a1.512,1.512,0,0,0-1.757,1.011.4.4,0,0,1-.47.271l-6.1-1.356-1.5,6.724,6.089,1.354a.4.4,0,0,1,.305.48l-.492,2.212a1.5,1.5,0,0,0-.021.521.4.4,0,0,1-.01.156c-1.109,4.152-3.979,11.531-10.8,14.648l-.025,3.142c2.455-.871,12.843-4.982,16.986-13.439a.4.4,0,0,1,.763.177v10.93a.4.4,0,0,1-.4.4H549.73a.76.76,0,0,0-.759.759v5.539a.4.4,0,0,1-.4.4Z" transform="translate(-391.789 -337.83)"/>
    <path id="Path_29794" data-name="Path 29794" d="M614.554,564.758h0l-7.5-.089a.4.4,0,0,1,0-.8h0l7.5.089a.4.4,0,0,1,0,.8" transform="translate(-444.062 -412.745)" fill="#5b2eca"/>
    <path id="Path_29795" data-name="Path 29795" d="M591.716,590.547a.4.4,0,0,1,0-.8l16.8-.045h0a.4.4,0,0,1,0,.8l-16.8.045Z" transform="translate(-432.837 -431.654)" fill="#5b2eca"/>
    <path id="Path_29796" data-name="Path 29796" d="M664.022,659.2h19.427a1.4,1.4,0,0,0,1.4-1.4v-9.244a1.4,1.4,0,0,0-1.4-1.4H664.022a1.4,1.4,0,0,0-1.4,1.4v9.244a1.4,1.4,0,0,0,1.4,1.4" transform="translate(-485.031 -473.704)" fill="#5b2eca"/>
    <path id="Path_29797" data-name="Path 29797" d="M682.351,658.5H662.924a1.809,1.809,0,0,1-1.807-1.807v-9.244a1.809,1.809,0,0,1,1.807-1.807h19.427a1.809,1.809,0,0,1,1.807,1.807v9.244a1.809,1.809,0,0,1-1.807,1.807m-19.427-12.054a1,1,0,0,0-1,1v9.244a1,1,0,0,0,1,1h19.427a1,1,0,0,0,1-1v-9.244a1,1,0,0,0-1-1Z" transform="translate(-483.933 -472.606)"/>
    <path id="Path_29798" data-name="Path 29798" d="M628.263,724.686h39.221a.977.977,0,0,0,.977-.976V690.558a4.57,4.57,0,0,0-4.57-4.57H631.855a4.569,4.569,0,0,0-4.569,4.57V723.71a.976.976,0,0,0,.977.976" transform="translate(-459.169 -502.138)" fill="#fff"/>
    <path id="Path_29799" data-name="Path 29799" d="M668.461,722.448v25.459a3.467,3.467,0,0,1-3.467,3.467H630.753a3.467,3.467,0,0,1-3.467-3.467V722.448Z" transform="translate(-459.169 -528.826)" fill="#8462d7"/>
    <path id="Path_29800" data-name="Path 29800" d="M665.777,723.99h-38A1.99,1.99,0,0,1,625.787,722V688.483a4,4,0,0,1,3.995-3.995H663.77a4,4,0,0,1,4,3.995V722a1.99,1.99,0,0,1-1.988,1.988m-36-38.7a3.2,3.2,0,0,0-3.191,3.191V722a1.185,1.185,0,0,0,1.184,1.184h38A1.185,1.185,0,0,0,666.962,722V688.483a3.2,3.2,0,0,0-3.191-3.191Z" transform="translate(-458.071 -501.04)"/>
    <rect id="Rectangle_10560" data-name="Rectangle 10560" width="30.684" height="10.697" transform="translate(169.139 201.306)" fill="#fff"/>
    <path id="Path_29801" data-name="Path 29801" d="M519.931,686.192v-4.536H503.448v4.463a5.243,5.243,0,0,1-2.037,4.148,5.243,5.243,0,0,0-2.037,4.149v23.255a3.8,3.8,0,0,0,3.8,3.8h16.842a3.8,3.8,0,0,0,3.8-3.8V694.343a5.243,5.243,0,0,0-1.944-4.075,5.246,5.246,0,0,1-1.945-4.076" transform="translate(-365.538 -498.967)" fill="#fff"/>
    <path id="Path_29802" data-name="Path 29802" d="M501.412,713.788a5.243,5.243,0,0,0-2.037,4.149v23.255a3.8,3.8,0,0,0,3.8,3.8h16.842a3.8,3.8,0,0,0,3.8-3.8V717.863a5.244,5.244,0,0,0-1.944-4.075Z" transform="translate(-365.539 -522.487)" fill="#5b2eca"/>
    <rect id="Rectangle_10561" data-name="Rectangle 10561" width="24.384" height="11.184" transform="translate(133.705 198.582)" fill="#ad97e4"/>
    <path id="Path_29803" data-name="Path 29803" d="M518.921,720.777H502.079a4.208,4.208,0,0,1-4.2-4.2V693.318a5.681,5.681,0,0,1,2.193-4.467,4.871,4.871,0,0,0,1.881-3.83v-4.463a.4.4,0,0,1,.4-.4h16.482a.4.4,0,0,1,.4.4v4.536a4.82,4.82,0,0,0,1.8,3.763,5.621,5.621,0,0,1,2.094,4.388v23.328a4.208,4.208,0,0,1-4.2,4.2M502.753,680.96v4.061a5.681,5.681,0,0,1-2.193,4.467,4.873,4.873,0,0,0-1.881,3.831v23.255a3.4,3.4,0,0,0,3.4,3.4h16.842a3.4,3.4,0,0,0,3.4-3.4V693.245a4.82,4.82,0,0,0-1.8-3.762,5.623,5.623,0,0,1-2.094-4.388V680.96Z" transform="translate(-364.441 -497.869)"/>
    <path id="Path_29804" data-name="Path 29804" d="M524.251,675.729h-18.51a1.723,1.723,0,0,1-1.723-1.723V670.9a1.723,1.723,0,0,1,1.723-1.723h18.51a1.723,1.723,0,0,1,1.723,1.723v3.11a1.723,1.723,0,0,1-1.723,1.723" transform="translate(-368.937 -489.829)" fill="#5b2eca"/>
    <path id="Path_29805" data-name="Path 29805" d="M523.154,675.034h-18.51a2.128,2.128,0,0,1-2.125-2.125V669.8a2.128,2.128,0,0,1,2.125-2.125h18.51a2.128,2.128,0,0,1,2.125,2.125v3.11a2.128,2.128,0,0,1-2.125,2.125m-18.51-6.556a1.323,1.323,0,0,0-1.321,1.321v3.11a1.323,1.323,0,0,0,1.321,1.321h18.51a1.323,1.323,0,0,0,1.321-1.321V669.8a1.323,1.323,0,0,0-1.321-1.321Z" transform="translate(-367.839 -488.732)"/>
  </g>
</svg>
