<svg id="Group_18064" data-name="Group 18064" xmlns="http://www.w3.org/2000/svg" xmlns:xlink="http://www.w3.org/1999/xlink" width="146.278" height="156.542" viewBox="0 0 146.278 156.542">
  <defs>
    <clipPath id="clip-path">
      <rect id="Rectangle_10567" data-name="Rectangle 10567" width="146.278" height="156.542" fill="none"/>
    </clipPath>
    <clipPath id="clip-path-3">
      <rect id="Rectangle_10565" data-name="Rectangle 10565" width="39.071" height="39.53" fill="none"/>
    </clipPath>
  </defs>
  <g id="Group_18063" data-name="Group 18063" clip-path="url(#clip-path)">
    <g id="Group_18062" data-name="Group 18062">
      <g id="Group_18061" data-name="Group 18061" clip-path="url(#clip-path)">
        <path id="Path_29813" data-name="Path 29813" d="M179.478,156.542h-77.1a5.707,5.707,0,0,1-5.69-5.69V5.69A5.707,5.707,0,0,1,102.376,0h77.1a5.707,5.707,0,0,1,5.69,5.69V150.852a5.706,5.706,0,0,1-5.69,5.69" transform="translate(-53.975)" fill="#10005c"/>
        <path id="Path_29814" data-name="Path 29814" d="M185.059,157.491H104.311a.837.837,0,0,1-.837-.837V16.514a.838.838,0,0,1,.837-.838h80.748a.838.838,0,0,1,.837.838v140.14a.837.837,0,0,1-.837.837" transform="translate(-57.764 -8.751)" fill="#5535c2"/>
        <path id="Path_29815" data-name="Path 29815" d="M201.327,66.134H117.393a6.568,6.568,0,0,1-6.568-6.568V31.895a6.568,6.568,0,0,1,6.568-6.568h83.934a6.568,6.568,0,0,1,6.568,6.568V59.566a6.567,6.567,0,0,1-6.568,6.568" transform="translate(-61.868 -14.139)" fill="#d9d1ff"/>
        <path id="Path_29816" data-name="Path 29816" d="M201.327,172H117.393a6.568,6.568,0,0,1-6.568-6.568V137.759a6.568,6.568,0,0,1,6.568-6.568h83.934a6.568,6.568,0,0,1,6.568,6.568V165.43A6.567,6.567,0,0,1,201.327,172" transform="translate(-61.868 -73.237)" fill="#d9d1ff"/>
        <path id="Path_29817" data-name="Path 29817" d="M201.327,280.7H117.393a6.568,6.568,0,0,1-6.568-6.568V246.465a6.568,6.568,0,0,1,6.568-6.568h83.934a6.568,6.568,0,0,1,6.568,6.568v27.671a6.567,6.567,0,0,1-6.568,6.568" transform="translate(-61.868 -133.922)" fill="#d9d1ff"/>
        <path id="Path_29818" data-name="Path 29818" d="M221.59,140.239l.768,1.556a.479.479,0,0,0,.362.263l1.718.25a.48.48,0,0,1,.266.819l-1.243,1.211a.482.482,0,0,0-.138.425l.293,1.71a.48.48,0,0,1-.7.507l-1.536-.808a.482.482,0,0,0-.447,0l-1.536.808a.481.481,0,0,1-.7-.507l.293-1.71a.48.48,0,0,0-.138-.425l-1.243-1.211a.481.481,0,0,1,.266-.819l1.718-.25a.481.481,0,0,0,.362-.263l.768-1.556a.481.481,0,0,1,.862,0" transform="translate(-121.402 -78.138)" fill="#ed0c68"/>
        <path id="Path_29819" data-name="Path 29819" d="M241.547,140.239l.768,1.556a.479.479,0,0,0,.362.263l1.718.25a.48.48,0,0,1,.265.819l-1.243,1.211a.483.483,0,0,0-.138.425l.293,1.71a.48.48,0,0,1-.7.507l-1.536-.808a.482.482,0,0,0-.447,0l-1.536.808a.481.481,0,0,1-.7-.507l.294-1.71a.481.481,0,0,0-.138-.425l-1.243-1.211a.481.481,0,0,1,.266-.819l1.718-.25a.481.481,0,0,0,.362-.263l.768-1.556a.481.481,0,0,1,.862,0" transform="translate(-132.542 -78.138)" fill="#ed0c68"/>
        <path id="Path_29820" data-name="Path 29820" d="M261.5,140.239l.768,1.556a.479.479,0,0,0,.362.263l1.718.25a.48.48,0,0,1,.266.819l-1.243,1.211a.482.482,0,0,0-.138.425l.293,1.71a.48.48,0,0,1-.7.507l-1.536-.808a.482.482,0,0,0-.447,0l-1.536.808a.481.481,0,0,1-.7-.507l.293-1.71a.48.48,0,0,0-.138-.425l-1.243-1.211a.481.481,0,0,1,.266-.819l1.718-.25a.481.481,0,0,0,.362-.263l.768-1.556a.481.481,0,0,1,.862,0" transform="translate(-143.683 -78.138)" fill="#ed0c68"/>
        <path id="Path_29821" data-name="Path 29821" d="M281.461,140.239l.768,1.556a.479.479,0,0,0,.362.263l1.718.25a.48.48,0,0,1,.266.819l-1.243,1.211a.482.482,0,0,0-.138.425l.293,1.71a.48.48,0,0,1-.7.507l-1.536-.808a.482.482,0,0,0-.447,0l-1.536.808a.481.481,0,0,1-.7-.507l.293-1.71a.48.48,0,0,0-.138-.425l-1.243-1.211a.481.481,0,0,1,.266-.819l1.718-.25a.481.481,0,0,0,.362-.263l.768-1.556a.481.481,0,0,1,.862,0" transform="translate(-154.824 -78.138)" fill="#ed0c68"/>
        <path id="Path_29822" data-name="Path 29822" d="M301.418,140.239l.768,1.556a.479.479,0,0,0,.362.263l1.718.25a.48.48,0,0,1,.266.819l-1.243,1.211a.482.482,0,0,0-.138.425l.293,1.71a.481.481,0,0,1-.7.507l-1.536-.808a.482.482,0,0,0-.447,0l-1.536.808a.481.481,0,0,1-.7-.507l.293-1.71a.48.48,0,0,0-.138-.425l-1.243-1.211a.481.481,0,0,1,.266-.819l1.718-.25a.481.481,0,0,0,.362-.263l.768-1.556a.481.481,0,0,1,.862,0" transform="translate(-165.965 -78.138)" fill="#ed0c68"/>
        <path id="Path_29823" data-name="Path 29823" d="M221.59,42.282l.768,1.556a.479.479,0,0,0,.362.263l1.718.25a.48.48,0,0,1,.266.819l-1.243,1.211a.482.482,0,0,0-.138.425l.293,1.71a.48.48,0,0,1-.7.507l-1.536-.808a.482.482,0,0,0-.447,0l-1.536.808a.481.481,0,0,1-.7-.507l.293-1.71a.48.48,0,0,0-.138-.425l-1.243-1.211a.481.481,0,0,1,.266-.819l1.718-.25a.481.481,0,0,0,.362-.263l.768-1.556a.481.481,0,0,1,.862,0" transform="translate(-121.402 -23.454)" fill="#ed0c68"/>
        <path id="Path_29824" data-name="Path 29824" d="M241.547,42.282l.768,1.556a.479.479,0,0,0,.362.263l1.718.25a.48.48,0,0,1,.265.819l-1.243,1.211a.483.483,0,0,0-.138.425l.293,1.71a.48.48,0,0,1-.7.507l-1.536-.808a.482.482,0,0,0-.447,0l-1.536.808a.481.481,0,0,1-.7-.507l.294-1.71a.481.481,0,0,0-.138-.425l-1.243-1.211a.481.481,0,0,1,.266-.819l1.718-.25a.481.481,0,0,0,.362-.263l.768-1.556a.481.481,0,0,1,.862,0" transform="translate(-132.542 -23.454)" fill="#ed0c68"/>
        <path id="Path_29825" data-name="Path 29825" d="M261.5,42.282l.768,1.556a.48.48,0,0,0,.362.263l1.718.25a.48.48,0,0,1,.266.819l-1.243,1.211a.482.482,0,0,0-.138.425l.293,1.71a.48.48,0,0,1-.7.507l-1.536-.808a.482.482,0,0,0-.447,0l-1.536.808a.481.481,0,0,1-.7-.507l.293-1.71a.48.48,0,0,0-.138-.425l-1.243-1.211a.481.481,0,0,1,.266-.819l1.718-.25a.482.482,0,0,0,.362-.263l.768-1.556a.481.481,0,0,1,.862,0" transform="translate(-143.683 -23.454)" fill="#fff"/>
        <path id="Path_29826" data-name="Path 29826" d="M281.461,42.282l.768,1.556a.479.479,0,0,0,.362.263l1.718.25a.48.48,0,0,1,.266.819l-1.243,1.211a.482.482,0,0,0-.138.425l.293,1.71a.48.48,0,0,1-.7.507l-1.536-.808a.482.482,0,0,0-.447,0l-1.536.808a.481.481,0,0,1-.7-.507l.293-1.71a.48.48,0,0,0-.138-.425l-1.243-1.211a.481.481,0,0,1,.266-.819l1.718-.25a.481.481,0,0,0,.362-.263l.768-1.556a.481.481,0,0,1,.862,0" transform="translate(-154.824 -23.454)" fill="#fff"/>
        <path id="Path_29827" data-name="Path 29827" d="M301.418,42.282l.768,1.556a.479.479,0,0,0,.362.263l1.718.25a.48.48,0,0,1,.266.819l-1.243,1.211a.482.482,0,0,0-.138.425l.293,1.71a.48.48,0,0,1-.7.507l-1.536-.808a.482.482,0,0,0-.447,0l-1.536.808a.481.481,0,0,1-.7-.507l.293-1.71a.48.48,0,0,0-.138-.425l-1.243-1.211a.481.481,0,0,1,.266-.819l1.718-.25a.481.481,0,0,0,.362-.263l.768-1.556a.481.481,0,0,1,.862,0" transform="translate(-165.965 -23.454)" fill="#fff"/>
        <path id="Path_29828" data-name="Path 29828" d="M221.59,252.044l.768,1.556a.479.479,0,0,0,.362.263l1.718.25a.48.48,0,0,1,.266.819l-1.243,1.211a.482.482,0,0,0-.138.425l.293,1.71a.48.48,0,0,1-.7.507l-1.536-.808a.482.482,0,0,0-.447,0l-1.536.808a.481.481,0,0,1-.7-.507l.293-1.71a.48.48,0,0,0-.138-.425l-1.243-1.211a.481.481,0,0,1,.266-.819l1.718-.25a.481.481,0,0,0,.362-.263l.768-1.556a.481.481,0,0,1,.862,0" transform="translate(-121.402 -140.553)" fill="#ed0c68"/>
        <path id="Path_29829" data-name="Path 29829" d="M241.547,252.044l.768,1.556a.479.479,0,0,0,.362.263l1.718.25a.48.48,0,0,1,.266.819l-1.243,1.211a.482.482,0,0,0-.138.425l.293,1.71a.48.48,0,0,1-.7.507l-1.536-.808a.482.482,0,0,0-.447,0l-1.536.808a.481.481,0,0,1-.7-.507l.293-1.71a.48.48,0,0,0-.138-.425l-1.243-1.211a.481.481,0,0,1,.266-.819l1.718-.25a.481.481,0,0,0,.362-.263l.768-1.556a.481.481,0,0,1,.862,0" transform="translate(-132.542 -140.553)" fill="#ed0c68"/>
        <path id="Path_29830" data-name="Path 29830" d="M261.5,252.044l.768,1.556a.479.479,0,0,0,.362.263l1.717.25a.48.48,0,0,1,.266.819l-1.243,1.211a.482.482,0,0,0-.138.425l.293,1.71a.481.481,0,0,1-.7.507l-1.536-.808a.482.482,0,0,0-.447,0l-1.536.808a.481.481,0,0,1-.7-.507l.293-1.71a.48.48,0,0,0-.138-.425l-1.243-1.211a.481.481,0,0,1,.266-.819l1.718-.25a.481.481,0,0,0,.362-.263l.768-1.556a.481.481,0,0,1,.862,0" transform="translate(-143.683 -140.553)" fill="#ed0c68"/>
        <path id="Path_29831" data-name="Path 29831" d="M281.461,252.044l.768,1.556a.479.479,0,0,0,.362.263l1.718.25a.48.48,0,0,1,.266.819l-1.243,1.211a.482.482,0,0,0-.138.425l.293,1.71a.48.48,0,0,1-.7.507l-1.536-.808a.482.482,0,0,0-.447,0l-1.536.808a.481.481,0,0,1-.7-.507l.293-1.71a.48.48,0,0,0-.138-.425l-1.243-1.211a.481.481,0,0,1,.266-.819l1.718-.25a.481.481,0,0,0,.362-.263l.768-1.556a.481.481,0,0,1,.862,0" transform="translate(-154.824 -140.553)" fill="#fff"/>
        <path id="Path_29832" data-name="Path 29832" d="M301.417,252.044l.768,1.556a.479.479,0,0,0,.362.263l1.718.25a.48.48,0,0,1,.266.819l-1.243,1.211a.482.482,0,0,0-.138.425l.293,1.71a.481.481,0,0,1-.7.507l-1.536-.808a.482.482,0,0,0-.447,0l-1.536.808a.481.481,0,0,1-.7-.507l.293-1.71a.479.479,0,0,0-.138-.425l-1.243-1.211a.481.481,0,0,1,.266-.819l1.718-.25a.481.481,0,0,0,.362-.263l.768-1.556a.481.481,0,0,1,.862,0" transform="translate(-165.964 -140.553)" fill="#fff"/>
        <path id="Path_29833" data-name="Path 29833" d="M261.384,177.489H222.307a.6.6,0,0,1-.595-.595v-.973a.6.6,0,0,1,.595-.595h39.077a.6.6,0,0,1,.595.595v.973a.6.6,0,0,1-.595.595" transform="translate(-123.77 -97.876)" fill="#fff"/>
        <path id="Path_29834" data-name="Path 29834" d="M249.863,197.789H222.308a.6.6,0,0,1-.595-.595v-.973a.6.6,0,0,1,.595-.595h27.555a.6.6,0,0,1,.595.595v.973a.6.6,0,0,1-.595.595" transform="translate(-123.771 -109.208)" fill="#fff"/>
        <path id="Path_29835" data-name="Path 29835" d="M261.384,79.158H222.307a.6.6,0,0,1-.595-.595v-.973a.6.6,0,0,1,.595-.595h39.077a.6.6,0,0,1,.595.595v.973a.6.6,0,0,1-.595.595" transform="translate(-123.77 -42.983)" fill="#fff"/>
        <path id="Path_29836" data-name="Path 29836" d="M249.863,99.458H222.308a.6.6,0,0,1-.595-.595v-.973a.6.6,0,0,1,.595-.595h27.555a.6.6,0,0,1,.595.595v.973a.6.6,0,0,1-.595.595" transform="translate(-123.771 -54.315)" fill="#fff"/>
        <path id="Path_29837" data-name="Path 29837" d="M261.384,286.265H222.307a.6.6,0,0,1-.595-.595V284.7a.6.6,0,0,1,.595-.595h39.077a.6.6,0,0,1,.595.595v.973a.6.6,0,0,1-.595.595" transform="translate(-123.77 -158.6)" fill="#fff"/>
        <path id="Path_29838" data-name="Path 29838" d="M249.863,306.565H222.308a.6.6,0,0,1-.595-.595V305a.6.6,0,0,1,.595-.595h27.555a.6.6,0,0,1,.595.595v.973a.6.6,0,0,1-.595.595" transform="translate(-123.771 -169.932)" fill="#fff"/>
        <path id="Path_29839" data-name="Path 29839" d="M133.52,216.732H214s5.247.231,6.568-5.677" transform="translate(-74.537 -117.821)" fill="none" stroke="#10005c" stroke-linecap="round" stroke-linejoin="round" stroke-width="1.136"/>
        <line id="Line_1121" data-name="Line 1121" y2="10.702" transform="translate(48.957 79.962)" fill="none" stroke="#10005c" stroke-linecap="round" stroke-linejoin="round" stroke-width="1.136"/>
        <path id="Path_29840" data-name="Path 29840" d="M157.419,52.9a15.3,15.3,0,1,1-15.3-15.3,15.3,15.3,0,0,1,15.3,15.3" transform="translate(-70.796 -20.99)" fill="#fff"/>
        <path id="Path_29841" data-name="Path 29841" d="M159.959,63.028a6.257,6.257,0,0,1-11.275.224l.765-5.734s7.563.688,9.4-.344Z" transform="translate(-83.002 -31.917)" fill="#ff9945"/>
        <path id="Path_29842" data-name="Path 29842" d="M159.331,57.071v0l-1.114-5.854c-1.834,1.031-9.4.344-9.4.344l-.764,5.734c-1.223-4.922.191-6.537.191-6.537a6.458,6.458,0,0,1-.173-.955,2.623,2.623,0,0,1,2.381-3.121c8.294-1.05,8.584,2.912,8.617,2.917h0c.523.267.76,1.027.834,1.967a22.846,22.846,0,0,1-.575,5.5" transform="translate(-82.373 -25.963)" fill="#160c66"/>
        <path id="Path_29843" data-name="Path 29843" d="M161.564,82.276l-2.316,4.668L156.8,82.251a32.332,32.332,0,0,1,4.768.025" transform="translate(-87.531 -45.874)" fill="#ede8f5"/>
        <path id="Path_29844" data-name="Path 29844" d="M161.6,80.552l-2.242,4.519-2.367-4.53c.591-.059,1.248-.1,1.988-.11a20.647,20.647,0,0,1,2.621.121" transform="translate(-87.639 -44.899)" fill="#ff9945"/>
        <path id="Path_29845" data-name="Path 29845" d="M159.274,86.116A15.3,15.3,0,0,1,135.1,87.266a11.3,11.3,0,0,1,4.475-4.662,15.3,15.3,0,0,1,3.216-1.21l-1,1.345a.822.822,0,0,0,.408,1.274l4.941,1.589,5-1.547a.691.691,0,0,0,.339-1.088l-1.252-1.589a14.794,14.794,0,0,1,4.281,1.57,13.977,13.977,0,0,1,3.773,3.169" transform="translate(-75.417 -45.429)" fill="#321688"/>
        <path id="Path_29846" data-name="Path 29846" d="M155.381,85.213l-4.941-1.589a.822.822,0,0,1-.408-1.274l1-1.345a15.127,15.127,0,0,1,1.98-.322Z" transform="translate(-83.664 -45.041)" fill="#5e2cbe"/>
        <path id="Path_29847" data-name="Path 29847" d="M167.345,83.681l-5,1.547,2.242-4.52c.664.074,1.279.176,1.843.3l1.252,1.589a.691.691,0,0,1-.339,1.088" transform="translate(-90.63 -45.055)" fill="#5e2cbe"/>
        <path id="Path_29848" data-name="Path 29848" d="M144.112,96.181c-.028.363-.05.769-.068,1.176q-.227-.119-.448-.246l-.571-4.138a5.146,5.146,0,0,1,1.087,3.208" transform="translate(-79.843 -51.902)" fill="#1c0456"/>
        <path id="Path_29849" data-name="Path 29849" d="M179.074,91.546l-.606,4.662h0q-.181.107-.365.208c-.03-1.2-.06-2.513-.06-2.808a6.776,6.776,0,0,1,1.031-2.063" transform="translate(-99.391 -51.105)" fill="#1c0456"/>
        <path id="Path_29850" data-name="Path 29850" d="M158.9,264.972a14.684,14.684,0,1,1-14.684-14.684A14.684,14.684,0,0,1,158.9,264.972" transform="translate(-72.309 -139.722)" fill="#fff"/>
        <path id="Path_29851" data-name="Path 29851" d="M158.914,303.831a14.684,14.684,0,0,1-20.881-.986c2.431-1.521,8.029-2.286,8.029-2.286a4.559,4.559,0,0,0,4.18,2.958c4.338,0,1.577-2.757,1.577-2.757l.824.276.36.118,3.944,1.226a6.234,6.234,0,0,1,1.967,1.45" transform="translate(-77.056 -167.786)" fill="#321688"/>
        <path id="Path_29852" data-name="Path 29852" d="M160.582,267.444a1.973,1.973,0,0,1-1.972,1.972v-1.625a2.335,2.335,0,0,0-2.319-2.319h-2.855a2.233,2.233,0,0,0-.864.17,2.275,2.275,0,0,0-.682.43,2.321,2.321,0,0,0-.761,1.479.158.158,0,0,0,0,.043,1.6,1.6,0,0,0-.012.2v2.165c-.178-.253-1.069-1.444-1.775-.738,0,0-1.337.974-.241,1.929a2.169,2.169,0,0,1-.966-3.778,2.364,2.364,0,0,1-.568-1.554,2.245,2.245,0,0,1,2.169-2.315,1.991,1.991,0,0,1,.7.126,2.764,2.764,0,0,1-.11-.769,3.038,3.038,0,0,1,3.155-2.906,3.109,3.109,0,0,1,3.08,2.275,2.365,2.365,0,0,1,3.108,3.557,1.961,1.961,0,0,1,.911,1.66" transform="translate(-82.269 -145.117)"/>
        <path id="Path_29853" data-name="Path 29853" d="M160.252,274.767v3.293a2.677,2.677,0,0,1-2.669,2.669h-2.5a2.326,2.326,0,0,1-2.311-2.165l-.008.461a5.207,5.207,0,0,1-2.015-.9c-1.1-.954.24-1.928.24-1.928.706-.706,1.6.485,1.775.737v-2.165a1.669,1.669,0,0,1,.011-.2.107.107,0,0,0,.02-.024.048.048,0,0,0-.02-.02,2.319,2.319,0,0,1,.761-1.479,2.268,2.268,0,0,1,.682-.43,2.232,2.232,0,0,1,.864-.17h2.855a2.333,2.333,0,0,1,2.319,2.319" transform="translate(-83.911 -152.093)" fill="#df792b"/>
        <path id="Path_29854" data-name="Path 29854" d="M161.555,307.078a14.784,14.784,0,0,1-8.479-.025l.832-6.395a3.891,3.891,0,0,1,.624-.159c1.527.039,5.992.331,5.992.331l.433.145Z" transform="translate(-85.454 -167.752)" fill="#b996f9"/>
        <path id="Path_29855" data-name="Path 29855" d="M160.389,303.518a4.559,4.559,0,0,1-4.18-2.958l5.758.2s2.761,2.761-1.578,2.757" transform="translate(-87.203 -167.787)" fill="#df792b"/>
        <path id="Path_29856" data-name="Path 29856" d="M156.209,294.833l1.025-4.531,3.155.159,2.426,6.017" transform="translate(-87.203 -162.06)" fill="#df792b"/>
        <path id="Path_29857" data-name="Path 29857" d="M163.423,279.133a3.825,3.825,0,1,1-3.793-4.314,4.079,4.079,0,0,1,3.793,4.314" transform="translate(-86.995 -153.417)" fill="#df792b"/>
        <path id="Path_29858" data-name="Path 29858" d="M150.6,301.756l-.819,5.974A14.581,14.581,0,0,1,147.3,306.7Z" transform="translate(-82.231 -168.454)" fill="#5b2ec9"/>
        <path id="Path_29859" data-name="Path 29859" d="M174.059,307.155a14.567,14.567,0,0,1-2.222.887l-.559-5.748Z" transform="translate(-95.615 -168.755)" fill="#5b2ec9"/>
        <path id="Path_29860" data-name="Path 29860" d="M158.886,158.155a14.72,14.72,0,1,1-14.72-14.72,14.719,14.719,0,0,1,14.72,14.72" transform="translate(-72.263 -80.072)" fill="#fff"/>
        <path id="Path_29861" data-name="Path 29861" d="M150.985,163.842s-2.188,6.515,1.964,9.931c0,0,3.733.924,4.69-1.562l.042-.929s1.623-1.995.521-3.019c0,0-7.352-3.835-7.217-4.42" transform="translate(-83.965 -91.464)" fill="#ff9945"/>
        <path id="Path_29862" data-name="Path 29862" d="M151.455,186.031s2.551-.56,2.551-2.812c0,0,3.544.61,4.259-1.145,0,0,.029,4.093,4,4.87,0,0-9.6,1.335-10.807-.914" transform="translate(-84.549 -101.643)" fill="#ff9945"/>
        <path id="Path_29863" data-name="Path 29863" d="M159.565,195.781a14.718,14.718,0,0,1-19.412-.5c1.4-2.183,3.3-4.353,4.872-4.7,2.289,2.288,8.58,1.143,10.868,1.143a5.472,5.472,0,0,1,3.672,4.061" transform="translate(-78.24 -106.388)" fill="#9f52f8"/>
        <path id="Path_29864" data-name="Path 29864" d="M157.413,174.459a14.735,14.735,0,0,1-3.028,2.455c-.15.048-.239.066-.239.066l-1.836-5.172a5,5,0,0,1-3.769-5.752c1.919-2.462,0-3.012,0-3.012-2.313-.3-6.278-3.848-6.278-3.848-1.067.553-.818,3.06-.818,3.06,0,5.023,2.356,5.79,2.356,5.79.813,1.016,3.167,7.917,1.23,9.841a5.007,5.007,0,0,1-1.243.889,14.733,14.733,0,0,1-9.772-6.986c.954-3.389,5.313-4.683,5.313-4.683-1.65-3.764.916-8.464.916-8.464,4.438-6.585,10.139-3.292,10.139-3.292,7.994,4.7,3.711,10.674,3.711,10.674,3.241.326,3.9,4.843,3.9,4.843a6.065,6.065,0,0,1-.581,3.592" transform="translate(-74.814 -86.264)" fill="#1c0456"/>
        <path id="Path_29865" data-name="Path 29865" d="M107.1,183.807s4.469,3.109,2.264,4.81-4.808-1.234-4.638-2.61,2.374-2.2,2.374-2.2" transform="translate(-58.457 -102.61)" fill="#df792b" fill-rule="evenodd"/>
        <path id="Path_29866" data-name="Path 29866" d="M33.736,190.392l15.859.627c4.662,7.993,4.344,17.683,4.344,17.683s.61,21.8.417,22.613l-4.145,27.674-2.887.089c-.781-8.265-3.732-16.587.17-28.252l-5.308-21.275c-5.4-.1-11.63,4.072-12.614-4.766-1.126-10.1,4.163-14.393,4.163-14.393" transform="translate(-16.421 -106.286)" fill="#df792b" fill-rule="evenodd"/>
        <path id="Path_29867" data-name="Path 29867" d="M72.356,345.409l2.684,1.809a3.094,3.094,0,0,0,1.83.711l.683.033a.707.707,0,0,1,.087,1.4l-7.537-.144s-1.778-.36-.626-3.73Z" transform="translate(-38.568 -192.823)" fill="#10005c" fill-rule="evenodd"/>
        <path id="Path_29868" data-name="Path 29868" d="M4.48,335.512l.1,3.235a3.1,3.1,0,0,0,.492,1.9l.373.574a.708.708,0,0,1-1.089.891l-4.285-6.2s-.747-1.654,2.662-2.688Z" transform="translate(0 -186.019)" fill="#10005c" fill-rule="evenodd"/>
        <path id="Path_29869" data-name="Path 29869" d="M21.813,266.348,7.932,287.105l-1.749-2.29c1.45-10.251,3.172-12.7,10.006-22.651l2.78-15.654,10.14,4.748Z" transform="translate(-3.452 -137.613)" fill="#df792b" fill-rule="evenodd"/>
        <path id="Path_29870" data-name="Path 29870" d="M45.622,201.668,46.553,210,48.2,233.814s-4.139,5.063-18.264,4.5a56.4,56.4,0,0,1-13.867-2.035c3.572-13.858,1-4.319,2.536-15.234,1.8-12.8,5.152-16.905,6.713-20.906,6.079,3.874,11.43,2.327,20.307,1.532" transform="translate(-8.969 -111.725)" fill="#9e1600"/>
        <path id="Path_29871" data-name="Path 29871" d="M29.934,238.31c-8.658,1.042-13.867-2.035-13.867-2.035,1.362-7.713,1-4.319,2.536-15.234,1.8-12.8,5.152-16.905,6.713-20.906-.669,3.937,2.909,3.115,2.506,6.5C25.661,224.817,23.8,231.5,29.934,238.31" transform="translate(-8.969 -111.725)" fill="#701006"/>
        <path id="Path_29872" data-name="Path 29872" d="M52.193,226.361c-4.944,1.145-13.563,2.152-25.113-.29" transform="translate(-15.117 -126.203)" fill="none" stroke="#fff" stroke-linecap="round" stroke-linejoin="round" stroke-width="1.197"/>
        <path id="Path_29873" data-name="Path 29873" d="M50.876,248.39c-3.908,1.3-12.545,2.921-27.762-.579" transform="translate(-12.903 -138.34)" fill="none" stroke="#fff" stroke-linecap="round" stroke-linejoin="round" stroke-width="1.197"/>
        <path id="Path_29874" data-name="Path 29874" d="M49.324,271.074c-3.276,1.225-11.947,4.5-31.025-1.069" transform="translate(-10.215 -150.729)" fill="none" stroke="#fff" stroke-linecap="round" stroke-linejoin="round" stroke-width="1.197"/>
        <path id="Path_29875" data-name="Path 29875" d="M24.1,113.368a20.447,20.447,0,0,1-6.88,6.305c-3.191,1.788-3.94,4.052-4.279,7.774C12.393,133.4,5.49,132.3,7.317,140.48c1.12,5.018,7.219,8.029,14.807,1.795s23.721,3.319,20.1-13.742c-.626-2.949-6.857-7.776-7.463-10.485a16.215,16.215,0,0,0-3.129-5.853Z" transform="translate(-3.913 -62.632)" fill="#10005c" fill-rule="evenodd"/>
        <path id="Path_29876" data-name="Path 29876" d="M65.032,142.6l6.4,12.376,10.282,5.856s-1.145,3.721-1.662,3.363L69.024,159.32c-2.973-1.653-.3-2.682-2.617-4.539l-8.27-7.816a1.2,1.2,0,0,1,.349-2.068l2.808-4.621c1.964.217,2.66,1.228,3.737,2.322" transform="translate(-32.204 -78.309)" fill="#df792b" fill-rule="evenodd"/>
        <path id="Path_29877" data-name="Path 29877" d="M59.2,110.946a5.457,5.457,0,0,1,2.984,6.952c-1.663,5.03-3.054,1.567-3.054,1.567s-2.138-6.429.07-8.52" transform="translate(-32.491 -61.935)" fill="#191729" fill-rule="evenodd"/>
        <path id="Path_29878" data-name="Path 29878" d="M44.117,137.03l-6.3-1.6-1.849.074-5.711,3.373c-2.377,1.179-3.872,5.8-2.993,8.3l2.481,7.072c-1.888,6.1-5.372,11.409-5.119,17.688,9.922,3.716,24.4,2.689,27.594-1.909-.4-12.567-3.334-24.917-8.1-33" transform="translate(-13.74 -75.604)" fill="#a152fa" fill-rule="evenodd"/>
        <path id="Path_29879" data-name="Path 29879" d="M55.211,122.232l-.966,5.559c-.117.671,1.16,4.163.519,4.391s-3.1-2.844-3.616-3.292l-.486-.425a2.412,2.412,0,0,1-.736-2.476l1.842-6.5Z" transform="translate(-27.82 -66.706)" fill="#df792b" fill-rule="evenodd"/>
        <path id="Path_29880" data-name="Path 29880" d="M48.748,115.35a1.637,1.637,0,0,1,1.042-2.068l2.99-.986a1.744,1.744,0,0,1,2.068,1.042,17.487,17.487,0,0,1,1.215,4.671,1.984,1.984,0,0,1-1.157,2.177c-.917.3-3.952.336-4.758-1.216a23.546,23.546,0,0,1-1.4-3.62" transform="translate(-27.167 -62.645)" fill="#df792b" fill-rule="evenodd"/>
        <path id="Path_29881" data-name="Path 29881" d="M44.9,116.649s-1.028-3.339.107-4.842c1.524-2.019,3.8-3.358,6.8-1.573,0,0,1.267,5.224-6.912,6.415" transform="translate(-24.83 -61.072)" fill="#191729" fill-rule="evenodd"/>
        <path id="Path_29882" data-name="Path 29882" d="M48.819,125.278a1.134,1.134,0,1,0,.042-1.746,1.246,1.246,0,0,0-.042,1.746" transform="translate(-27.067 -68.847)" fill="#df792b" fill-rule="evenodd"/>
        <path id="Path_29883" data-name="Path 29883" d="M58.612,131.037l-.253,1.456-1.632-1.842Z" transform="translate(-31.667 -72.935)" fill="#cc631d" fill-rule="evenodd"/>
        <path id="Path_29884" data-name="Path 29884" d="M32.333,171.669l-3.967-1.806c1.72,3.178.695,5.753-.674,9.1-1.634,3.992-3.242,7.865-3.066,12.2a37.583,37.583,0,0,0,9.95,2.114c1.489-15.282.282-15.57-2.243-21.607" transform="translate(-13.74 -94.825)" fill="#8a43ef" fill-rule="evenodd"/>
        <path id="Path_29885" data-name="Path 29885" d="M60.2,125.234l1.566-.391s.237,1.077-.539,1.176-1.028-.785-1.028-.785" transform="translate(-33.604 -69.693)" fill="#fff" fill-rule="evenodd"/>
        <path id="Path_29886" data-name="Path 29886" d="M74.145,145.329s-2.025-5.709-5.38-6.279L71.3,148s3.076-.709,2.848-2.671" transform="translate(-38.388 -77.624)" fill="#a152fa" fill-rule="evenodd"/>
        <line id="Line_1122" data-name="Line 1122" x2="4.241" y2="4.256" transform="translate(20.964 67.628)" fill="none" stroke="#bc8dff" stroke-linecap="round" stroke-linejoin="round" stroke-width="1.421"/>
        <path id="Path_29887" data-name="Path 29887" d="M73.9,152.152s-1.6-3.643-2.712-4.554" transform="translate(-39.738 -82.396)" fill="none" stroke="#bc8dff" stroke-linecap="round" stroke-linejoin="round" stroke-width="1.421"/>
        <path id="Path_29888" data-name="Path 29888" d="M108.6,141.082l-3.885-1.428,7.523-20.387,3.885,1.428Z" transform="translate(-58.457 -66.58)" fill="#10005c"/>
        <path id="Path_29889" data-name="Path 29889" d="M80.288,191.9h0a4.519,4.519,0,0,1-2.665-5.788L87.1,160.46a4.506,4.506,0,1,1,8.453,3.123l-9.476,25.65a4.519,4.519,0,0,1-5.788,2.665" transform="translate(-43.178 -87.933)" fill="#10005c"/>
        <path id="Path_29890" data-name="Path 29890" d="M122.92,17.141a24,24,0,1,0,14.194,30.827A24,24,0,0,0,122.92,17.141M107.763,58.169a19.741,19.741,0,1,1,25.359-11.676,19.741,19.741,0,0,1-25.359,11.676" transform="translate(-50.577 -8.735)" fill="#10005c"/>
        <g id="Group_18060" data-name="Group 18060" transform="translate(44.887 11.256)" opacity="0.38">
          <g id="Group_18059" data-name="Group 18059">
            <g id="Group_18058" data-name="Group 18058" clip-path="url(#clip-path-3)">
              <path id="Path_29891" data-name="Path 29891" d="M128.915,63.469a19.813,19.813,0,1,1,10.152-25.862,19.646,19.646,0,0,1-10.152,25.862" transform="translate(-101.611 -25.481)" fill="#fff"/>
            </g>
          </g>
        </g>
        <path id="Path_29892" data-name="Path 29892" d="M101.071,19.831a24.9,24.9,0,0,0-8.977,11.5A23.982,23.982,0,1,0,111.929,15.8,21.746,21.746,0,0,0,101.071,19.831Zm6.692,38.338a19.741,19.741,0,1,1,25.359-11.676A19.741,19.741,0,0,1,107.763,58.169Z" transform="translate(-50.577 -8.735)" fill="none" stroke="#10005c" stroke-linecap="round" stroke-linejoin="round" stroke-width="1.421"/>
        <path id="Path_29893" data-name="Path 29893" d="M95.953,201.693s4.469,3.11,2.264,4.81-4.808-1.234-4.638-2.61,2.374-2.2,2.374-2.2" transform="translate(-52.236 -112.594)" fill="#df792b" fill-rule="evenodd"/>
        <path id="Path_29894" data-name="Path 29894" d="M49.288,165.318l1.532,1.586,6.338,5.951,10.788,8.532L66.4,184.569l-11.168-6.9c-3.352-2.347-2.1-1.622-4.516-3.354L43.4,168.563c3.985-.065,5.385-1.506,5.885-3.245" transform="translate(-24.23 -92.288)" fill="#df792b" fill-rule="evenodd"/>
      </g>
    </g>
  </g>
</svg>
