<svg xmlns="http://www.w3.org/2000/svg" xmlns:xlink="http://www.w3.org/1999/xlink" width="619" height="548" viewBox="0 0 619 548">
  <defs>
    <clipPath id="clip-path">
      <rect id="Rectangle_10588" data-name="Rectangle 10588" width="619" height="548" transform="translate(1183 3181)" fill="#fff"/>
    </clipPath>
    <clipPath id="clip-path-2">
      <rect id="Rectangle_10587" data-name="Rectangle 10587" width="709.783" height="474.028" transform="translate(0 0)" fill="none"/>
    </clipPath>
  </defs>
  <g id="Group_18089" data-name="Group 18089" transform="translate(-1183 -3181)">
    <rect id="Rectangle_10489" data-name="Rectangle 10489" width="619" height="548" transform="translate(1183 3181)" fill="#fff"/>
    <g id="Mask_Group_24" data-name="Mask Group 24" clip-path="url(#clip-path)">
      <g id="Group_18088" data-name="Group 18088" transform="translate(1138 3254.971)">
        <g id="Group_18087" data-name="Group 18087" transform="translate(0 0.001)" clip-path="url(#clip-path-2)">
          <path id="Path_30122" data-name="Path 30122" d="M694.757,470.528v0l-.181.364c-.431.872-.876,1.758-1.332,2.647L61.211,473.3s-.678-.855-1.892-2.494c-.069-.092-.138-.187-.211-.286A296.577,296.577,0,0,1,42.4,444.873s0-.007-.006-.014C22.933,411.583-4.032,352.656.506,287.253a198.644,198.644,0,0,1,12.245-56.5c21.767-57.817,89.587-118.081,145.211-97.575C290.63,182.083,298.732,37,400.2,9.148c1.616-.443,3.212-1,4.83-1.471a189.776,189.776,0,0,1,24-5.28q2.205-.337,4.426-.627c36.238-4.756,75.05.164,110.65,13.756q7.033,2.683,13.888,5.822C624.982,52.02,677.1,114.654,672.521,202.108q-.271,5.187-.814,10.492-1.026,10.1-3.073,20.62-1.211,6.2-2.787,12.536c-27.612,110.864,82.773,115.869,28.911,224.771" transform="translate(0 -0.001)" fill="#e5dff2"/>
          <path id="Path_30123" data-name="Path 30123" d="M958.26,765.834v0l-542.4.064,4.677-183.272v-49.8h20.287v-38.89h40.472v33.01h12.36V465.9h2.688v-4.268h.482V465.9h9.763v-4.268h.485V465.9h13.818v-4.268h.485V465.9h8.7v-4.268h.479V465.9h3.574v56.989h13.661v-9.218l16.111.082V498.818h3.239v-2.953h.431v2.953h12.441v.007H582.5v-2.96h.428v2.96h3v29.7h19.178v10.932h10.663v-6.346h9.889v-25.2h4.932V496.154h.745V507.91h11.817V485.876h1.16V507.91h7.819V507.6h-.012v-2.8h.012V502.16h-.012v-4.4h.012v-2.81h-.012v-4.4h.012v-2.81h-.012v-4.4h.012v-3.039h-.012v-4.4h.012v-3.87h-.012v-4.4h.012v-2.92h2.329V461.4h.373v3.294h17.259V461.4h.371v3.294h3.151V487.73l2.215.014v-.014h-.018v-4.4h.018v-3.039h-.018v-4.4h.018v-3.028h-.018v-4.4h.018v-.014h20.929v.014h3.6c.184.116.374.235.561.351v29.375h3.851v-4.234h44.175v33.01h13.49V465.9h2.932v-4.268h.53V465.9h10.651v-4.268h.527V465.9H794.16v-4.268h.527V465.9h9.494v-4.268h.525V465.9h3.9v56.989h14.909v-9.218l17.582.082V498.822h3.541v-2.957h.47v2.957h13.574v0H861.4v-2.96h.467v2.96h3.275v29.7h20.932v10.929h11.639v-6.346h10.793v-25.2h5.382V496.154h.814v11.752h12.9v-22.03h1.265v22.03h6.342q-1.026,10.1-3.073,20.62-1.211,6.2-2.787,12.537c-27.612,110.864,82.773,115.869,28.911,224.771" transform="translate(-263.503 -292.361)" fill="#eeeaf6"/>
          <path id="Path_30124" data-name="Path 30124" d="M1499.03,48.2V500.307h-13.888V42.378q7.037,2.682,13.888,5.822" transform="translate(-941.042 -26.853)" fill="#321688"/>
          <path id="Path_30125" data-name="Path 30125" d="M240.11,361.1V696.687H64.153c-.069-.092,3.242-.187,3.169-.286-3.112-4.224-12.941-13.115-20.275-25.652,0,0-3.633-.014-.006-.014C27.583,637.46.619,578.533,5.156,513.13a198.669,198.669,0,0,1,12.245-56.5c21.767-57.817,62.816-102.208,121.282-104.687,25.923-1.1,60.6,24.18,101.426,9.159" transform="translate(-2.947 -222.981)" fill="#eeeaf6"/>
          <path id="Path_30126" data-name="Path 30126" d="M1175.466,4.828V60.144c0,4.313-.932,7.832-2.067,7.832h-.3c-1.136,0-2.064-3.519-2.064-7.832V5.455q2.205-.337,4.426-.627" transform="translate(-742.015 -3.06)" fill="#5535c2"/>
          <path id="Path_30127" data-name="Path 30127" d="M1123.436,140.868c-16.125,0-29.2,15.627-29.2,34.9h58.393c0-19.277-13.071-34.9-29.2-34.9" transform="translate(-693.351 -89.26)" fill="#5535c2"/>
          <path id="Path_30128" data-name="Path 30128" d="M1142.945,141.483a10.693,10.693,0,0,0-2.564-.316c-10.506,0-19.022,15.578-19.022,34.795h5.128c0-17.625,7.165-32.188,16.458-34.479" transform="translate(-710.536 -89.449)" fill="#715bdd"/>
          <path id="Path_30129" data-name="Path 30129" d="M1664.387,1070.725s-10.694-12.476-.659-20.4c0,0,7.329-4.437,13.306-4.077,0,0-8.469,14.2-5.729,15.613s8.3-16.5,8.3-16.5,16.679-1.617,22.045.962c0,0-14.259,11.668-11.255,12.363s18.4-10.758,18.4-10.758,15.524,2.642,14.7,12.111-6.177,12.395-8.527,12.143-16.1-5.5-16.4-3.575,7.979,8.221,13.776,8.516c0,0-10.944,12.07-18.219,8.587s-7.894-9.005-12.428-11.076-8.405-2.066-6.533.046,10.078,4.165,12.671,8.752,4.919,7.68-2.606,6.548-19.758-6.639-20.295-12.945Z" transform="translate(-1051.479 -662.061)" fill="#5535c2"/>
          <path id="Path_30130" data-name="Path 30130" d="M1708.2,1086.86s-42.164-1.625-51.475,10.434a30.5,30.5,0,0,1-8.4,11.784l-.988,2.692s7.306-7.7,9.921-8.17c0,0-4.089-14.939,50.938-16.739" transform="translate(-1043.818 -688.63)" fill="#784ce5"/>
          <path id="Path_30131" data-name="Path 30131" d="M1633.3,1145.794s-9.05,6.693-9.679,18.652l1.642.147s2.891-12.365,8.115-17.2-.078-1.6-.078-1.6" transform="translate(-1028.786 -725.346)" fill="#784ce5"/>
          <path id="Path_30132" data-name="Path 30132" d="M1462.984,996.453S1480,986.926,1472.057,974c0,0-6.351-7.938-13.156-9.98,0,0,3.63,19.279,0,19.733s-2.495-21.774-2.495-21.774-17.918-8.619-24.95-7.938c0,0,11.114,18.825,7.485,18.372s-16.1-19.506-16.1-19.506-18.372-3.4-21.32,7.485,1.815,16.331,4.536,17.011,20.187.453,19.733,2.722-12.248,5.9-18.826,3.856c0,0,7.258,17.918,16.784,17.011s12.475-6.8,18.372-7.258,10.206,1.134,7.258,2.722-12.928.52-17.692,4.57-8.619,6.544.227,8.359,24.722.681,27.9-6.124Z" transform="translate(-887.466 -603.478)" fill="#8b6aef"/>
          <path id="Path_30133" data-name="Path 30133" d="M1426.034,983.491s47.63,15.423,53.074,32.661a36.187,36.187,0,0,0,4.536,16.557v3.4s-4.99-11.567-7.712-13.155c0,0,10.661-14.97-49.9-39.465" transform="translate(-903.589 -623.177)" fill="#784ce5"/>
          <path id="Path_30134" data-name="Path 30134" d="M1579.346,1114.172s7.345,11.154,3.158,24.732l-1.89-.508s1.834-14.955-2.009-22.477.74-1.748.74-1.748" transform="translate(-999.292 -704.64)" fill="#784ce5"/>
          <path id="Path_30135" data-name="Path 30135" d="M1619.274,936.35s-22.424-12.557-11.96-29.6c0,0,8.372-10.464,17.341-13.155,0,0-4.783,25.413,0,26.011s3.289-28.7,3.289-28.7,23.619-11.361,32.888-10.464c0,0-14.65,24.815-9.866,24.217s21.227-25.712,21.227-25.712,24.218-4.485,28.1,9.866-2.392,21.526-5.98,22.423-26.609.6-26.011,3.588,16.145,7.774,24.815,5.083c0,0-9.567,23.62-22.124,22.423s-16.444-8.969-24.218-9.567-13.454,1.495-9.567,3.588,17.041.686,23.32,6.023,11.361,8.626-.3,11.019-32.589.9-36.775-8.073Z" transform="translate(-1016.692 -556.514)" fill="#c1aaff"/>
          <path id="Path_30136" data-name="Path 30136" d="M1704.389,919.265s-62.786,20.331-69.961,43.053c0,0,.3,10.165-5.98,21.825v4.485s6.578-15.247,10.165-17.341c0,0-14.052-19.733,65.776-52.023" transform="translate(-1031.846 -582.481)" fill="#d1c5fc"/>
          <path id="Path_30137" data-name="Path 30137" d="M1618.307,1091.527s-9.683,14.7-4.162,32.6l2.491-.669s-2.418-19.713,2.648-29.629-.976-2.3-.976-2.3" transform="translate(-1021.705 -689.865)" fill="#d1c5fc"/>
          <path id="Path_30138" data-name="Path 30138" d="M1566.739,1215.315a43.924,43.924,0,0,0,43.924-43.924h-87.849a43.924,43.924,0,0,0,43.924,43.924" transform="translate(-964.913 -742.238)" fill="#c1aaff"/>
          <path id="Path_30139" data-name="Path 30139" d="M1586.807,1214.978a43.95,43.95,0,0,1-49.379-43.588h10.912a43.931,43.931,0,0,0,38.467,43.588" transform="translate(-974.173 -742.237)" fill="#d1c5fc"/>
          <rect id="Rectangle_10585" data-name="Rectangle 10585" width="90.291" height="1.347" transform="translate(556.458 429.153)" fill="#784ce5"/>
          <path id="Path_30140" data-name="Path 30140" d="M1438.908,969.359l-43.162-179.143,3.016-7.052,42.76,186.175a.762.762,0,0,1-.743.932h-.713a1.19,1.19,0,0,1-1.157-.912" transform="translate(-884.397 -496.242)" fill="#0d0358"/>
          <path id="Path_30141" data-name="Path 30141" d="M979.382,1157.723h0a1.437,1.437,0,0,1-1.418-1.671L990.676,1079h5.447l-15.16,77.422a1.611,1.611,0,0,1-1.582,1.3" transform="translate(-619.663 -683.694)" fill="#0d0358"/>
          <path id="Path_30142" data-name="Path 30142" d="M1312.244,1157.723h0a1.437,1.437,0,0,1-1.418-1.671L1323.538,1079h5.447l-15.16,77.422a1.611,1.611,0,0,1-1.582,1.3" transform="translate(-830.577 -683.694)" fill="#0d0358"/>
          <path id="Path_30143" data-name="Path 30143" d="M1132.856,738.383H981.034l31.454-197.2h151.823Z" transform="translate(-621.62 -342.917)" fill="#fff"/>
          <rect id="Rectangle_10586" data-name="Rectangle 10586" width="174.365" height="5.801" transform="translate(348.23 393.961)" fill="#0d0358"/>
          <path id="Path_30144" data-name="Path 30144" d="M1132.6,602.95a31.8,31.8,0,0,1-.68,4.589c-3.165,14.092-15.714,24.891-29.894,24.915-15.69.027-27.437-13.138-26.239-29.408s14.887-29.477,30.577-29.5a26.344,26.344,0,0,1,9.264,1.633,25.4,25.4,0,0,1,10.406,7.211,26.45,26.45,0,0,1,2.844,3.966,26.131,26.131,0,0,1,1.318,2.548,27.97,27.97,0,0,1,2.233,7.885,29.962,29.962,0,0,1,.251,4.311q-.012.918-.081,1.855" transform="translate(-681.605 -363.419)" fill="#5535c2"/>
          <path id="Path_30145" data-name="Path 30145" d="M1179.472,594.691l-26,14.1S1164.2,589.9,1168.6,582.684a25.634,25.634,0,0,1,6.707,5.494,26.474,26.474,0,0,1,2.844,3.966,26.085,26.085,0,0,1,1.319,2.548" transform="translate(-730.882 -369.211)" fill="#fff"/>
          <path id="Path_30146" data-name="Path 30146" d="M1190.739,586.757l-23.75,12.878s9.8-17.258,13.822-23.846a23.388,23.388,0,0,1,6.126,5.019,24.1,24.1,0,0,1,2.6,3.622,23.833,23.833,0,0,1,1.2,2.327" transform="translate(-739.448 -364.842)" fill="#ff912b"/>
          <path id="Path_30147" data-name="Path 30147" d="M1146.313,913.809,1021.35,913.8,1034,841.7l124.963.008Zm-123.953-.735,123.2.008,12.4-70.649-123.2-.009Z" transform="translate(-647.166 -533.333)" fill="#5535c2"/>
          <path id="Path_30148" data-name="Path 30148" d="M1150.421,978.456l-110.828-.008s19.659-10.542,25.053-9.99,13.143,4.821,18.127,4.987,10.381-14.8,15.929-14.092,7.636,13.941,10.509,12.648,11.5-1.853,16.466,0,12.207-5.891,16.575-5.648,8.168,12.1,8.168,12.1" transform="translate(-658.725 -607.868)" fill="#ff912b"/>
          <path id="Path_30149" data-name="Path 30149" d="M1075.723,951.752h-21.168l.2-1.123,21.168,0Z" transform="translate(-668.206 -602.354)" fill="#ff912b"/>
          <path id="Path_30150" data-name="Path 30150" d="M1074.574,958.3h-21.168l.2-1.122h21.168Z" transform="translate(-667.478 -606.502)" fill="#ff912b"/>
          <path id="Path_30151" data-name="Path 30151" d="M1056.9,879.8l110.828.008s-15.959-10.545-21.547-9.993-14.835,4.818-19.877,4.984-5.188-14.8-10.983-14.094-12.527,13.94-14.947,12.646-10.848-1.854-16.466,0-10.14-5.892-14.593-5.65-12.415,12.1-12.415,12.1" transform="translate(-669.693 -545.359)" fill="#5535c2"/>
          <path id="Path_30152" data-name="Path 30152" d="M1092.045,858.729h-21.168l.2-1.122h21.167Z" transform="translate(-678.548 -543.411)" fill="#5535c2"/>
          <path id="Path_30153" data-name="Path 30153" d="M1090.9,865.274h-21.168l.2-1.122,21.167,0Z" transform="translate(-677.821 -547.558)" fill="#5535c2"/>
          <path id="Path_30154" data-name="Path 30154" d="M1068.107,774.855h-4.861l4.224-22.779h4.86Z" transform="translate(-673.713 -476.544)" fill="#5535c2"/>
          <path id="Path_30155" data-name="Path 30155" d="M1086.181,783.733h-4.861l3.272-17.645h4.861Z" transform="translate(-685.165 -485.423)" fill="#5535c2"/>
          <path id="Path_30156" data-name="Path 30156" d="M1104.256,782.425H1099.4l3.412-18.4h4.861Z" transform="translate(-696.618 -484.115)" fill="#5535c2"/>
          <path id="Path_30157" data-name="Path 30157" d="M1122.33,790.042h-4.861l2.6-14h4.861Z" transform="translate(-708.071 -491.732)" fill="#5535c2"/>
          <path id="Path_30158" data-name="Path 30158" d="M1140.4,788.28h-4.861l2.785-15.016h4.861Z" transform="translate(-719.523 -489.97)" fill="#5535c2"/>
          <path id="Path_30159" data-name="Path 30159" d="M1158.48,794.11h-4.86l2.159-11.645h4.861Z" transform="translate(-730.977 -495.8)" fill="#5535c2"/>
          <path id="Path_30160" data-name="Path 30160" d="M1245.6,774.855h-4.861l4.224-22.779h4.86Z" transform="translate(-786.178 -476.544)" fill="#ff912b"/>
          <path id="Path_30161" data-name="Path 30161" d="M1263.673,783.733h-4.861l3.272-17.645h4.861Z" transform="translate(-797.631 -485.423)" fill="#ff912b"/>
          <path id="Path_30162" data-name="Path 30162" d="M1281.748,782.425h-4.861l3.412-18.4h4.86Z" transform="translate(-809.084 -484.115)" fill="#ff912b"/>
          <path id="Path_30163" data-name="Path 30163" d="M1299.823,790.042h-4.861l2.6-14h4.861Z" transform="translate(-820.537 -491.732)" fill="#ff912b"/>
          <path id="Path_30164" data-name="Path 30164" d="M1317.9,788.28h-4.861l2.785-15.016h4.861Z" transform="translate(-831.989 -489.97)" fill="#ff912b"/>
          <path id="Path_30165" data-name="Path 30165" d="M1335.972,794.11h-4.861l2.16-11.645h4.861Z" transform="translate(-843.442 -495.8)" fill="#ff912b"/>
          <path id="Path_30166" data-name="Path 30166" d="M1290.52,607.542H1274.7l.407-2.167h15.824Z" transform="translate(-807.696 -383.588)" fill="#c0afff"/>
          <path id="Path_30167" data-name="Path 30167" d="M1340.654,607.542h-17.472l.407-2.167h17.472Z" transform="translate(-838.418 -383.588)" fill="#c0afff"/>
          <path id="Path_30168" data-name="Path 30168" d="M1385.6,607.542H1374.46l.407-2.167h11.139Z" transform="translate(-870.91 -383.588)" fill="#c0afff"/>
          <path id="Path_30169" data-name="Path 30169" d="M1418.383,607.542h-8.6l.407-2.167h8.6Z" transform="translate(-893.294 -383.588)" fill="#c0afff"/>
          <path id="Path_30170" data-name="Path 30170" d="M1285.78,632.786h-15.824l.407-2.168h15.824Z" transform="translate(-804.692 -399.584)" fill="#c0afff"/>
          <path id="Path_30171" data-name="Path 30171" d="M1335.914,632.786h-17.472l.406-2.168h17.472Z" transform="translate(-835.415 -399.584)" fill="#c0afff"/>
          <path id="Path_30172" data-name="Path 30172" d="M1380.858,632.786H1369.72l.407-2.168h11.139Z" transform="translate(-867.906 -399.584)" fill="#c0afff"/>
          <path id="Path_30173" data-name="Path 30173" d="M1413.643,632.786h-8.6l.407-2.168h8.6Z" transform="translate(-890.291 -399.584)" fill="#c0afff"/>
          <path id="Path_30174" data-name="Path 30174" d="M1301.566,593.736h-24.278l.407-2.168h24.277Z" transform="translate(-809.338 -374.841)" fill="#c0afff"/>
          <path id="Path_30175" data-name="Path 30175" d="M1363.862,593.736h-13.994l.407-2.168h13.994Z" transform="translate(-855.327 -374.841)" fill="#c0afff"/>
          <path id="Path_30176" data-name="Path 30176" d="M1408.994,593.736h-15.541l.407-2.168H1409.4Z" transform="translate(-882.945 -374.841)" fill="#c0afff"/>
          <path id="Path_30177" data-name="Path 30177" d="M1296.526,620.578h-24.278l.407-2.168h24.277Z" transform="translate(-806.145 -391.849)" fill="#c0afff"/>
          <path id="Path_30178" data-name="Path 30178" d="M1358.821,620.578h-13.994l.407-2.168h13.994Z" transform="translate(-852.134 -391.849)" fill="#c0afff"/>
          <path id="Path_30179" data-name="Path 30179" d="M1403.954,620.578h-15.541l.406-2.168h15.541Z" transform="translate(-879.751 -391.849)" fill="#c0afff"/>
          <path id="Path_30180" data-name="Path 30180" d="M1281.04,658.03h-15.823l.407-2.168h15.823Z" transform="translate(-801.689 -415.58)" fill="#c0afff"/>
          <path id="Path_30181" data-name="Path 30181" d="M1331.172,658.03H1313.7l.407-2.168h17.472Z" transform="translate(-832.411 -415.58)" fill="#c0afff"/>
          <path id="Path_30182" data-name="Path 30182" d="M1376.118,658.03h-11.139l.407-2.168h11.139Z" transform="translate(-864.902 -415.58)" fill="#c0afff"/>
          <path id="Path_30183" data-name="Path 30183" d="M1408.9,658.03h-8.6l.407-2.168h8.6Z" transform="translate(-887.287 -415.58)" fill="#c0afff"/>
          <path id="Path_30184" data-name="Path 30184" d="M1291.785,645.823h-24.278l.407-2.167h24.277Z" transform="translate(-803.141 -407.845)" fill="#c0afff"/>
          <path id="Path_30185" data-name="Path 30185" d="M1354.08,645.823h-13.994l.407-2.167h13.994Z" transform="translate(-849.129 -407.845)" fill="#c0afff"/>
          <path id="Path_30186" data-name="Path 30186" d="M1399.213,645.823h-15.541l.407-2.167h15.541Z" transform="translate(-876.747 -407.845)" fill="#c0afff"/>
          <path id="Path_30187" data-name="Path 30187" d="M1276.6,681.7h-15.823l.407-2.168H1277Z" transform="translate(-798.873 -430.576)" fill="#c0afff"/>
          <path id="Path_30188" data-name="Path 30188" d="M1326.729,681.7h-17.472l.407-2.168h17.472Z" transform="translate(-829.595 -430.576)" fill="#c0afff"/>
          <path id="Path_30189" data-name="Path 30189" d="M1371.673,681.7h-11.139l.407-2.168h11.139Z" transform="translate(-862.086 -430.576)" fill="#c0afff"/>
          <path id="Path_30190" data-name="Path 30190" d="M1404.458,681.7h-8.6l.407-2.168h8.6Z" transform="translate(-884.471 -430.576)" fill="#c0afff"/>
          <path id="Path_30191" data-name="Path 30191" d="M1287.341,669.489h-24.278l.407-2.168h24.277Z" transform="translate(-800.325 -422.84)" fill="#c0afff"/>
          <path id="Path_30192" data-name="Path 30192" d="M1349.636,669.489h-13.994l.407-2.168h13.994Z" transform="translate(-846.313 -422.84)" fill="#c0afff"/>
          <path id="Path_30193" data-name="Path 30193" d="M1394.768,669.489h-15.541l.407-2.168h15.541Z" transform="translate(-873.931 -422.84)" fill="#c0afff"/>
          <path id="Path_30194" data-name="Path 30194" d="M1192.276,759.488h-7.745l.2-1.061h7.745Z" transform="translate(-750.564 -480.568)" fill="#c0afff"/>
          <path id="Path_30195" data-name="Path 30195" d="M1216.814,759.488h-8.552l.2-1.061h8.552Z" transform="translate(-765.601 -480.568)" fill="#c0afff"/>
          <path id="Path_30196" data-name="Path 30196" d="M1189.956,771.845h-7.745l.2-1.061h7.746Z" transform="translate(-749.093 -488.398)" fill="#c0afff"/>
          <path id="Path_30197" data-name="Path 30197" d="M1214.494,771.845h-8.552l.2-1.061h8.552Z" transform="translate(-764.13 -488.398)" fill="#c0afff"/>
          <path id="Path_30198" data-name="Path 30198" d="M1197.683,752.731H1185.8l.2-1.061h11.883Z" transform="translate(-751.367 -476.287)" fill="#c0afff"/>
          <path id="Path_30199" data-name="Path 30199" d="M1228.174,752.731h-6.85l.2-1.061h6.85Z" transform="translate(-773.877 -476.287)" fill="#c0afff"/>
          <path id="Path_30200" data-name="Path 30200" d="M1195.216,765.869h-11.883l.2-1.061h11.883Z" transform="translate(-749.804 -484.612)" fill="#c0afff"/>
          <path id="Path_30201" data-name="Path 30201" d="M1225.707,765.869h-6.849l.2-1.061h6.849Z" transform="translate(-772.314 -484.612)" fill="#c0afff"/>
          <path id="Path_30202" data-name="Path 30202" d="M1361.624,759.488h-7.746l.2-1.061h7.746Z" transform="translate(-857.869 -480.568)" fill="#c0afff"/>
          <path id="Path_30203" data-name="Path 30203" d="M1386.163,759.488h-8.552l.2-1.061h8.552Z" transform="translate(-872.907 -480.568)" fill="#c0afff"/>
          <path id="Path_30204" data-name="Path 30204" d="M1359.3,771.845h-7.745l.2-1.061h7.746Z" transform="translate(-856.399 -488.398)" fill="#c0afff"/>
          <path id="Path_30205" data-name="Path 30205" d="M1383.843,771.845h-8.552l.2-1.061h8.552Z" transform="translate(-871.436 -488.398)" fill="#c0afff"/>
          <path id="Path_30206" data-name="Path 30206" d="M1367.031,752.731h-11.883l.2-1.061h11.884Z" transform="translate(-858.673 -476.287)" fill="#c0afff"/>
          <path id="Path_30207" data-name="Path 30207" d="M1397.523,752.731h-6.849l.2-1.061h6.85Z" transform="translate(-881.183 -476.287)" fill="#c0afff"/>
          <path id="Path_30208" data-name="Path 30208" d="M1364.563,765.869H1352.68l.2-1.061h11.884Z" transform="translate(-857.109 -484.612)" fill="#c0afff"/>
          <path id="Path_30209" data-name="Path 30209" d="M1395.056,765.869h-6.849l.2-1.061h6.85Z" transform="translate(-879.62 -484.612)" fill="#c0afff"/>
          <path id="Path_30210" data-name="Path 30210" d="M1240.748,1234.75c-.272,3.707-5.5,3.746-11.436,3.058s-4.357.813-12.666.929-11.173-2.631-11.576-3.818c-.359-1.053,3.644-1.94,7.925-2.983.539-.129,1.079-.265,1.619-.4,4.828-1.227,8.024-4.84,12.155-8,3.912-2.989,8.957-13.8,8.957-13.8l11.351-.512s-4.781,9.695-6.576,13.875c-1.056,2.459-.606,5.479-.147,7.8a14.514,14.514,0,0,1,.393,3.856" transform="translate(-763.564 -766.209)" fill="#ffae73"/>
          <path id="Path_30211" data-name="Path 30211" d="M1229.312,1275.29c-5.935-.689-4.357.813-12.666.929s-11.173-2.631-11.576-3.818c-.359-1.053,3.643-1.94,7.925-2.982l.051.078a23.283,23.283,0,0,0,12.193,2.184c5.577-.559,11.268-2.887,15.116-3.3a14.544,14.544,0,0,1,.393,3.855c-.272,3.707-5.5,3.747-11.436,3.058" transform="translate(-763.564 -803.691)" fill="#0d0358"/>
          <path id="Path_30212" data-name="Path 30212" d="M1454.733,1223.716c-.269,3.707-5.5,3.752-11.434,3.069s-4.356.818-12.665.942-11.176-2.619-11.579-3.806c-.36-1.053,3.641-1.944,7.921-2.991.539-.13,1.079-.266,1.619-.4,4.826-1.233,8.019-4.849,12.146-8.008,3.909-2.992,0-20.708,0-20.708l12.485-1.215s-.6,14.916-.591,21.7c0,2.676,1.233,5.249,1.7,7.567a14.531,14.531,0,0,1,.4,3.855" transform="translate(-899.153 -754.407)" fill="#ffae73"/>
          <path id="Path_30213" data-name="Path 30213" d="M1443.3,1277.4c-5.935-.682-4.356.818-12.665.942s-11.176-2.619-11.579-3.806c-.36-1.053,3.641-1.944,7.921-2.99l.051.078a23.282,23.282,0,0,0,12.2,2.172c5.577-.565,11.265-2.9,15.112-3.319a14.51,14.51,0,0,1,.4,3.855c-.268,3.707-5.5,3.752-11.433,3.069" transform="translate(-899.153 -805.022)" fill="#0d0358"/>
          <path id="Path_30214" data-name="Path 30214" d="M1415.779,403.372c-2.149-8.84.967-12.957,3.778-15.149,1.333-3.253,2.855-5.6,4.411-6.483a15.916,15.916,0,0,1,8.616-1.648,4.027,4.027,0,0,0-1.817-.862c1.475-.22,4.767,1.243,4.767,1.243,20.515-7.9,23.739,22.3,23.308,29.32s-.371,15.282,10.3,20.811c20.365,10.55-6.768,50.307-6.768,50.307.518-5.671-25.649-35.6-39.3-44.561-3.323-4.892-4.5-13.535-4.593-14.216.573,6.853,1.746,10.7,2.794,12.861-6.222-5.726-7.144-19.478-5.5-31.623" transform="translate(-896.636 -240.253)" fill="#b53c37"/>
          <path id="Path_30215" data-name="Path 30215" d="M1439.144,501.515c-.069.031,6.591,3.489,11.6,2.119,4.712-1.285,7.791-7.394,7.726-7.408-2-.4-2.571-3.138-2.528-14.922l-.9.177-15.168,3s.345,4.773.355,9.27c.011,3.776-.218,7.357-1.083,7.76" transform="translate(-911.896 -304.972)" fill="#ffae73"/>
          <path id="Path_30216" data-name="Path 30216" d="M1441.132,484.791s.345,4.774.355,9.271c8.488-.239,12.974-7.982,14.812-12.274Z" transform="translate(-913.156 -305.28)" fill="#f9924f"/>
          <path id="Path_30217" data-name="Path 30217" d="M1272.373,934.568a3.722,3.722,0,0,0,3.372,4.848l5.925.277,6.27.192a5.034,5.034,0,0,0,4.058-1.852,176.284,176.284,0,0,0,29.753-56.334q.395-1.25.834-2.532c6.171-17.994,18.964-40.581,25.706-61.025,1.073-3.257,2.036-6.322,2.9-9.222.276-.93.547-1.842.8-2.74a216.837,216.837,0,0,0,7.732-40.707l-48.682.389s-10.249,79.659-38.674,168.706" transform="translate(-806.11 -485.033)" fill="#321688"/>
          <path id="Path_30218" data-name="Path 30218" d="M1384.641,581.064c.123,23.166-3.4,33.1-3.4,33.1a65.416,65.416,0,0,0,45.617,2.795c.292-.092,17.724-5.028,17.724-5.028-.415-.938-3.859-16.438-4.263-17.3-5.23-11.232-6.656-15.948-7.276-19.4a73.446,73.446,0,0,1-.6-19.409,155.76,155.76,0,0,1,6.007-30.479c-6.75-1.536-13.071-4.234-20.1-6.869-1.616,2.012-6.556,4.117-10.841,4.021-4.935-.108-6.535-2.221-6.279-4.528-5.258,2.926-9.455,5.69-9.455,5.69-4.469,7.764-13.534,15.3-14.19,27.212-.162,2.928,7.05,29.539,7.054,30.189" transform="translate(-872.89 -328.208)" fill="#fff"/>
          <path id="Path_30219" data-name="Path 30219" d="M1498.475,627.6c2.128,3.012,6.208,21.319,16.358,23.62-5.23-13.047-9.2-18.768-9.822-22.779a98.976,98.976,0,0,1-.6-22.544c-3.4-5.956-5.933-10.039-5.933-10.039-.267-.963-5.4-16.835-7.045-2.648s4.668,31.022,7.045,34.39" transform="translate(-944.856 -372.162)" fill="#4b9ba9"/>
          <path id="Path_30220" data-name="Path 30220" d="M1421.826,443s20.082.331,20.1-12.178,2.615-20.891-10.206-21.632-15.318,4.03-16.338,8.2,1.225,25.2,6.449,25.605" transform="translate(-896.684 -259.23)" fill="#ffae73"/>
          <path id="Path_30221" data-name="Path 30221" d="M1435.423,404.09s5.5,14.676,13.937,16.846,12.1-.091,12.1-.091a23.9,23.9,0,0,1-7.816-14.117s-14.072-9.622-18.219-2.637" transform="translate(-909.538 -254.436)" fill="#b53c37"/>
          <path id="Path_30222" data-name="Path 30222" d="M1421.557,407.6s-4.106,3.276-5.107,6.462-1.452,9.743-3.363,9.52c0,0-4.143-9.975.512-15.618,4.937-5.983,7.958-.364,7.958-.364" transform="translate(-894.309 -256.754)" fill="#b53c37"/>
          <path id="Path_30223" data-name="Path 30223" d="M1330.739,734.07l-9.485,28.918,5.41,2.169,15.683-25.549Z" transform="translate(-837.196 -465.135)" fill="#ffae73"/>
          <path id="Path_30224" data-name="Path 30224" d="M1368.64,528.857s-11.184,4.438-14.42,11.357-8.138,53.332-10.09,58.1-3.419,8.54-3.419,8.54,5.639,4.751,11.31,5.1,16.62-83.1,16.62-83.1" transform="translate(-849.525 -335.104)" fill="#ff912b"/>
          <path id="Path_30225" data-name="Path 30225" d="M1389.532,517.974s-11.619,28.7-11.96,34.512-1.367,94.993-1.367,94.993.683,4.1-7.176,2.392-9.909-3.417-9.909-3.417,7.517-55.014,5.467-74.15,15.718-50.344,15.718-50.344Z" transform="translate(-861.19 -328.208)" fill="#ff912b"/>
          <path id="Path_30226" data-name="Path 30226" d="M1298.06,1000.689l6.807.208a3.934,3.934,0,0,0,3.157-1.425,175.678,175.678,0,0,0,30.117-56.777q.395-1.251.834-2.532c6.171-17.994,18.964-40.581,25.706-61.025,1.073-3.257,2.036-6.322,2.9-9.222.277-.93.547-1.842.8-2.741l-7.169-5.44s-21.524,34.853-28.187,67.653c-5.788,28.491-28.969,62.774-34.969,71.3" transform="translate(-822.5 -546.029)" fill="#0d0358"/>
          <path id="Path_30227" data-name="Path 30227" d="M1460.132,916.446c-.116,15.09.6,48.723,2.435,65.164a2.971,2.971,0,0,0,2.955,2.64h5.079c2.141,0,3.743-.016,4.807-.031a1.954,1.954,0,0,0,1.885-1.578c5.051-25.7,8.667-47.06,11.313-65.512,2.214-15.445,4.182-28.686,5.7-40.085,1.524-11.471,2.583-21.076,2.962-29.192.058-1.278.1-2.521.126-3.728s.031-2.392.02-3.537l-42.063-4.1c.53,27.948,4.853,70.688,4.784,79.959" transform="translate(-922.164 -530.03)" fill="#321688"/>
          <path id="Path_30228" data-name="Path 30228" d="M1496.983,1003.906c1.923,0,3.411-.012,4.465-.026a2.37,2.37,0,0,0,2.291-1.914c5.018-25.557,8.613-46.808,11.248-65.18,2.214-15.445,4.182-28.686,5.7-40.085,1.524-11.471,2.583-21.076,2.963-29.192l-15.435,9.079s9.851,3.475,6.093,29.786-12.09,93.807-17.321,97.532" transform="translate(-948.545 -549.687)" fill="#0d0358"/>
          <path id="Path_30229" data-name="Path 30229" d="M1466.7,646.783s2.962,10.705,13.213,9.339,24.828-7.517,24.828-7.517-4.38-13.843-9.828-32.028c-6.594-22.016-14.758-50.4-18.605-68.3a110.757,110.757,0,0,1-2.091-12.205l-8.505-16.5s-12.681,28.46-13.364,35.636,14.352,91.576,14.352,91.576" transform="translate(-920.249 -329.22)" fill="#ff912b"/>
          <path id="Path_30230" data-name="Path 30230" d="M1450.973,554.137l-11.225-34.567c.031.014,14.177,4.209,21.293,7.8,0,0,4.448,5.734,7.2,18.964,0,0,2.908,31.762-3.584,43.38,0,0-20.5,4.1-53.306-7.176v-7.517s35.879,1.879,43.225,2.734Z" transform="translate(-894.285 -329.22)" fill="#ffae73"/>
          <path id="Path_30231" data-name="Path 30231" d="M1492.786,619.891c.458,11.618,3.192,34.17,27.565,46.242.065.031.13.065.195.092-6.594-22.016-14.758-50.4-18.605-68.3-4.476,6.69-9.4,15.568-9.154,21.965" transform="translate(-945.88 -378.869)" fill="#fc7600"/>
          <path id="Path_30232" data-name="Path 30232" d="M1486.783,519.57s20.807,1.466,25.819,12.628,6.606,48.294.228,59.229c0,0-8.782,2.5-24.314-.4l-.573-.109s-4.955-12.13-.513-14.522c0,0,13.1.684,11.732-3.645s-12.379-53.177-12.379-53.177" transform="translate(-941.32 -329.22)" fill="#ff912b"/>
          <path id="Path_30233" data-name="Path 30233" d="M1346.466,665.245l.613,1.97,34.143-10.621a1.313,1.313,0,0,0,.231-1.208.966.966,0,0,0-.844-.762Z" transform="translate(-853.172 -414.795)" fill="#b53c37"/>
          <path id="Path_30234" data-name="Path 30234" d="M1339.726,685.476l2.469-1.862.613,1.97Z" transform="translate(-848.901 -433.164)" fill="#b53c37"/>
          <path id="Path_30235" data-name="Path 30235" d="M1307.033,810.846s-8.661,4.787-9.8,8.433-.356,11.282,1.018,11.169,3.426-8.205,4.566-8.775,2.735-2.278,2.735-1.025-1.139,3.532-.57,3.874,2.393-3.189,3.647-3.874,1.78-6.319,3-7.833-4.594-1.969-4.594-1.969" transform="translate(-821.628 -513.783)" fill="#ffae73"/>
          <path id="Path_30236" data-name="Path 30236" d="M1377.446,663.823s-7.746-4.77-11-4.036-11.53,6.732-7.547,8.03,7.208-.063,8.741.88,2.663,2.668,9.8,2.644,0-7.518,0-7.518" transform="translate(-860.38 -418.018)" fill="#ffae73"/>
          <path id="Path_30237" data-name="Path 30237" d="M890.864,1133.812h-.128a1.341,1.341,0,0,1-1.341-1.373l2.034-88.148,5.991-.7-5.109,88.854a1.45,1.45,0,0,1-1.447,1.366" transform="translate(-563.554 -661.26)" fill="#10005c"/>
          <path id="Path_30238" data-name="Path 30238" d="M795.574,1133.812h-.128a1.341,1.341,0,0,1-1.341-1.373l2.034-88.148,5.991-.7-5.109,88.854a1.45,1.45,0,0,1-1.447,1.366" transform="translate(-503.175 -661.26)" fill="#10005c"/>
          <path id="Path_30239" data-name="Path 30239" d="M1049.723,1133.812h.128a1.341,1.341,0,0,0,1.34-1.373l-2.034-88.148-5.99-.7,5.108,88.854a1.45,1.45,0,0,0,1.447,1.366" transform="translate(-660.99 -661.26)" fill="#10005c"/>
          <path id="Path_30240" data-name="Path 30240" d="M787.28,892.823v-60.4a19.245,19.245,0,0,1,19.245-19.245h43.519a19.245,19.245,0,0,1,19.245,19.245v62.712Z" transform="translate(-498.85 -515.259)" fill="#10005c"/>
          <path id="Path_30241" data-name="Path 30241" d="M877.086,1040.114H793.059a5.778,5.778,0,0,1-5.779-5.778v-3.758h89.806Z" transform="translate(-498.85 -653.014)" fill="#10005c"/>
          <path id="Path_30242" data-name="Path 30242" d="M942.556,1040.114h-63.57a4.273,4.273,0,0,1-4.273-4.272v-.991a4.272,4.272,0,0,1,4.273-4.273h63.57a4.273,4.273,0,0,1,4.273,4.273v.991a4.273,4.273,0,0,1-4.273,4.272" transform="translate(-554.251 -653.014)" fill="#10005c"/>
          <path id="Path_30243" data-name="Path 30243" d="M1176.106,1157.249c.607,3.036,4.935,2.529,9.77,1.348s3.686.223,10.567-.539,8.965-3.327,9.176-4.35c.188-.908-3.212-1.228-6.859-1.648-.459-.052-.919-.108-1.38-.165-4.118-.517-7.133-3.174-10.873-5.356-3.543-2.067-8.83-10.488-8.83-10.488l-9.437.748s4.952,7.521,6.867,10.792c1.127,1.924,1.067,4.467.926,6.431a12.108,12.108,0,0,0,.073,3.228" transform="translate(-740.24 -719.845)" fill="#ffae73"/>
          <path id="Path_30244" data-name="Path 30244" d="M1199.231,1186.285c4.835-1.182,3.686.223,10.567-.539s8.966-3.328,9.176-4.351c.188-.908-3.212-1.228-6.859-1.648l-.034.07a19.4,19.4,0,0,1-9.855,3.063c-4.668.114-9.613-1.224-12.837-1.172a12.107,12.107,0,0,0,.073,3.228c.607,3.036,4.935,2.53,9.77,1.348" transform="translate(-753.596 -747.533)" fill="#0d0358"/>
          <path id="Path_30245" data-name="Path 30245" d="M967.4,1197.38c-1.875,2.464,1.367,5.374,5.452,8.219s2.271,2.911,7.394,7.568,8.427,4.523,9.333,4c.805-.46-1.2-3.221-3.3-6.234-.264-.378-.527-.761-.789-1.144-2.337-3.43-2.339-7.449-3.177-11.7-.794-4.024,5.779-18.813,5.779-18.813l-10.557-1.329s-1.379,8.931-2.565,12.531c-.7,2.117-3.63,3.513-5.2,4.707a12.123,12.123,0,0,0-2.373,2.19" transform="translate(-612.639 -746.395)" fill="#ffae73"/>
          <path id="Path_30246" data-name="Path 30246" d="M972.856,1235.411c4.085,2.844,2.271,2.911,7.394,7.568s8.427,4.523,9.333,4c.8-.46-1.2-3.221-3.3-6.234l-.075.021a19.4,19.4,0,0,1-8.816-5.364c-3.173-3.426-5.442-8.019-7.613-10.4a12.1,12.1,0,0,0-2.373,2.19c-1.875,2.464,1.367,5.374,5.452,8.219" transform="translate(-612.638 -776.209)" fill="#0d0358"/>
          <path id="Path_30247" data-name="Path 30247" d="M1024.828,996.012l-9.642,25.945-12.588,33.877a20.383,20.383,0,0,1-6.687-.611,29.005,29.005,0,0,1-6.468-3.148s3.5-36.374,10.016-57.254c1.671-5.36,3.544-9.7,5.61-12.135,10.108-11.946,19.759,13.326,19.759,13.326" transform="translate(-626.949 -620.635)" fill="#0d0358"/>
          <path id="Path_30248" data-name="Path 30248" d="M897.969,903.177c-6.317-2.037-25.352-.822-43.45,2.721l-2.771-4.85-39.091-3.053s-12.9,28.607-5.838,46.833a6.611,6.611,0,0,0,6.616,4.454s.57,0,.571,0,23.267-.014,30.821-.014c19.441,0,41.143-13.364,43.951-13.925,4.595-.919,6.433,8.271,11.029,17.921S943,996,943,996s5.932.059,8.384-.86a8.256,8.256,0,0,0,3.6-2.273s-42.771-85.1-57.016-89.692" transform="translate(-509.892 -569.004)" fill="#5e2cbe"/>
          <path id="Path_30249" data-name="Path 30249" d="M811.8,582.446c-5.5-1.31-12.973.228-14.214.373-14.846,1.732-18.164,24.793-17.06,31.242,2.035,11.887-3.674,15.236-10.487,24.743-13.661,19.064-4.225,34.761,6.9,38.651,6.672,2.334,15.763-4.021,15.763-4.021.167.063,23.6-22.313,35.2-33.181,19.488-8.032-2.075-54.469-16.1-57.808" transform="translate(-483.631 -368.728)"/>
          <path id="Path_30250" data-name="Path 30250" d="M868.768,700.73c.069.023-6.044,4.017-11.027,3.176-4.687-.787-9.645-6.9-9.584-6.922,1.894-.577,3.569-2.789,2.386-14.194l.891.085,14.978,1.437s.128,4.655.555,9.01c.356,3.657.925,7.1,1.8,7.409" transform="translate(-537.424 -432.642)" fill="#ffae73"/>
          <path id="Path_30251" data-name="Path 30251" d="M872.079,684.458s.129,4.655.555,9.01c-8.241.592-13.336-6.47-15.532-10.447Z" transform="translate(-543.092 -432.788)" fill="#f9924f"/>
          <path id="Path_30252" data-name="Path 30252" d="M868.58,641.651s-19.412,2.268-20.639-9.842-4.558-19.974,7.784-21.934,15.222,2.416,16.615,6.359,1.258,24.515-3.76,25.417" transform="translate(-536.435 -386.134)" fill="#ffae73"/>
          <path id="Path_30253" data-name="Path 30253" d="M860.291,606.878s-9.374,13.42-17.334,16.339-11.723,1.086-11.723,1.086a32.935,32.935,0,0,0,5.05-12.423,5.931,5.931,0,0,1,3.873-4.6c5.707-1.992,16.711-5.044,20.134-.405" transform="translate(-526.701 -382.997)"/>
          <path id="Path_30254" data-name="Path 30254" d="M889.4,607.767s5.011,2.861,7.012,5.421c1.932,2.47,3.995,9.03,3.7,11.92,0,0,3.157-13.775-1.9-18.787-5.36-5.315-8.809,1.446-8.809,1.446" transform="translate(-563.557 -382.897)"/>
          <path id="Path_30255" data-name="Path 30255" d="M855.256,754.494c-.586,39.21-.161,31.017-4.45,34.737-1.033.9-3.939,1.43-7.763,1.682-12.023.8-33.158-1.183-33.962-3.4-2.773-7.688-.815-10.077-3.129-21.847-.241-1.252-.54-2.607-.89-4.082-1.929-8.084-3.807-10.834,3.037-23.822,6.207-11.765,12.909-21.163,13.489-20.818,16.375,9.721,17.441,1.4,17.441,1.4s16.514,17.03,16.226,36.156" transform="translate(-508.986 -454.274)" fill="#fff"/>
          <path id="Path_30256" data-name="Path 30256" d="M1014.429,1048.494l-12.875,35.288s-4.625,1.507-7.993,1.017a10.015,10.015,0,0,1-5.313-2.372s3.933-40.19,10.454-61.07Z" transform="translate(-626.191 -647.171)" fill="#5e2cbe"/>
          <path id="Path_30257" data-name="Path 30257" d="M900.869,720.769s16.85,2.857,18.828,10.112,16.448,47.232,16.448,47.232-11.392,4.211-15.349.253-13.77-36.713-13.77-36.713Z" transform="translate(-570.825 -456.707)" fill="#fff"/>
          <path id="Path_30258" data-name="Path 30258" d="M847.671,852.99c-12.023.8-33.158-1.183-33.962-3.4-2.773-7.688-.815-10.077-3.129-21.847l5.64-12.84s-.8,14.694,4.563,19.477,21.956,9.233,24.563,13.229a14.624,14.624,0,0,1,2.325,5.385" transform="translate(-513.614 -516.351)" fill="#dceaff"/>
          <path id="Path_30259" data-name="Path 30259" d="M914.494,896.032s3.58,3.089,4.6,3.338a2.832,2.832,0,0,0,1.6.018l-2.61-3.057Z" transform="translate(-579.458 -567.76)" fill="#ffae73"/>
          <path id="Path_30260" data-name="Path 30260" d="M910.621,886.1l9.067,2.34a1.5,1.5,0,0,1-1.261.8,20.127,20.127,0,0,1-3.78-.26Z" transform="translate(-577.004 -561.466)" fill="#ffae73"/>
          <path id="Path_30261" data-name="Path 30261" d="M868.661,890.976s12.942-5.758,15.372-5,8.66,4.06,9.638,5.449-5.1-.172-7-.292c-1.229-.077-4.084,1.611-5.5,2.425-5.965,3.425-10.106,3.121-10.106,3.121Z" transform="translate(-550.417 -561.346)" fill="#ffae73"/>
          <path id="Path_30262" data-name="Path 30262" d="M786.412,716.954s-18.312,3.436-21.7,8.512c-7.4,11.074-23.158,56.958-14.334,63.111,9.937,6.929,45.226,1.812,45.226,1.812s1.174-5.489-.46-8.144-28.185-6.944-29.411-8.17,12.106-18.946,10.686-22.337c-4.549-10.865,10-34.785,10-34.785" transform="translate(-473.81 -454.29)" fill="#fff"/>
          <path id="Path_30263" data-name="Path 30263" d="M1048.033,894.4s12.814,3.461,14.132,5.45,3.9,8.07,3.788,9.657-3.608-3.141-4.919-4.349c-.849-.783-3.922-1.242-5.434-1.488-3.808-.62-5.646-2.362-7.074-3.229a3.881,3.881,0,0,0-2.12-.474Z" transform="translate(-663.043 -566.726)" fill="#ffae73"/>
          <path id="Path_30264" data-name="Path 30264" d="M1086.365,918.789s.778,4.362,1.372,5.145a2.656,2.656,0,0,0,1.152.958l-.091-3.766Z" transform="translate(-688.362 -582.18)" fill="#ffae73"/>
          <path id="Path_30265" data-name="Path 30265" d="M1089.42,909.277l5.21,7.06a1.406,1.406,0,0,1-1.393-.16,18.825,18.825,0,0,1-2.595-2.423Z" transform="translate(-690.298 -576.153)" fill="#ffae73"/>
          <path id="Path_30266" data-name="Path 30266" d="M1052.193,910.89a8.075,8.075,0,0,0,3.56,3.917c2.372,1.034,4.113,2.587,4.494,2.028s-1.8-3.5-1.8-3.5Z" transform="translate(-666.709 -577.175)" fill="#ffae73"/>
          <path id="Path_30267" data-name="Path 30267" d="M967.209,851.487l26.951,17.039s-2.832,3.787-3.776,4.133c-4.991,1.83-27.435.077-35.122-11.465Z" transform="translate(-605.29 -539.535)" fill="#fff"/>
          <path id="Path_30268" data-name="Path 30268" d="M957.587,900.137c1.59,0,17.409-1.1,17.409-1.1s-.457,2.8.521,4.3L960.1,906.293l-3.169-.929Z" transform="translate(-606.349 -569.666)" fill="#fddbba"/>
          <path id="Path_30269" data-name="Path 30269" d="M884.664,904.576l26.385-2.543s-.928,4.881,2.515,6.157l-29.089,2.128s-2.342-3.3.188-5.742" transform="translate(-559.811 -571.563)" fill="#ff912b"/>
          <path id="Path_30270" data-name="Path 30270" d="M975.275,899.088l-17.832,1.372s.134-.616.467-.624,17.714-1.271,17.714-1.271l-.061.487Z" transform="translate(-606.672 -569.365)" fill="#ff912b"/>
          <path id="Path_30271" data-name="Path 30271" d="M963.545,912.974l15.7-2.984-.143-.406-16.737,3.2Z" transform="translate(-609.792 -576.347)" fill="#ff912b"/>
          <path id="Path_30272" data-name="Path 30272" d="M604.946,1117.237H604.8a1.494,1.494,0,0,1-1.489-1.532l2.258-98.426,6.651-.781-5.671,99.214a1.612,1.612,0,0,1-1.606,1.525" transform="translate(-382.283 -644.092)" fill="#10005c"/>
          <path id="Path_30273" data-name="Path 30273" d="M499.165,1117.237h-.142a1.493,1.493,0,0,1-1.488-1.532l2.257-98.426,6.651-.781-5.671,99.214a1.613,1.613,0,0,1-1.606,1.525" transform="translate(-315.256 -644.092)" fill="#10005c"/>
          <path id="Path_30274" data-name="Path 30274" d="M781.3,1117.237h.142a1.494,1.494,0,0,0,1.489-1.532l-2.258-98.426-6.65-.781,5.671,99.214a1.612,1.612,0,0,0,1.606,1.525" transform="translate(-490.447 -644.092)" fill="#10005c"/>
          <path id="Path_30275" data-name="Path 30275" d="M489.958,848.151V780.7a21.426,21.426,0,0,1,21.364-21.488h48.31A21.426,21.426,0,0,1,581,780.7v70.024Z" transform="translate(-310.456 -481.068)" fill="#10005c"/>
          <path id="Path_30276" data-name="Path 30276" d="M589.651,1012.615h-93.26a6.433,6.433,0,0,1-6.433-6.433v-4.214h99.693Z" transform="translate(-310.456 -634.885)" fill="#10005c"/>
          <path id="Path_30277" data-name="Path 30277" d="M662.315,1012.615H591.774a4.757,4.757,0,0,1-4.757-4.757v-1.134a4.757,4.757,0,0,1,4.757-4.757h70.541a4.757,4.757,0,0,1,4.757,4.757v1.134a4.757,4.757,0,0,1-4.757,4.757" transform="translate(-371.956 -634.885)" fill="#10005c"/>
          <path id="Path_30278" data-name="Path 30278" d="M680.386,691.219s-4.044,3.44-4.922,12.361c-.667,6.774,4.032,59.362,7.568,63.541,9.948,11.759,22.417,6.791,27.3,8.575l4.607-4.139s-16.2-11.957-17.433-15.858c-4.746-15.017-1.8-58.808-17.122-64.48" transform="translate(-427.959 -437.983)" fill="#5535c2"/>
          <path id="Path_30279" data-name="Path 30279" d="M617.629,553.166s.274-9.645-12.446-11.537-16.234,1.081-18.4,4.325-6.218,16.49-5.812,21.762,14.913,11.789,14.677,14.866,21.979-29.416,21.979-29.416" transform="translate(-368.109 -342.822)"/>
          <path id="Path_30280" data-name="Path 30280" d="M840.462,1228.571c-.412,3.259,4.032,4.219,9.2,4.672s3.567,1.475,10.62,3.045,9.968-.3,10.516-1.26c.488-.849-2.764-2.325-6.227-3.985-.436-.208-.872-.421-1.309-.634-3.9-1.917-5.989-5.613-8.956-9.076-2.811-3.281-5.226-13.543-5.226-13.543l-9.573-2.451s2.384,9.244,3.186,13.183c.472,2.316-.436,4.854-1.229,6.781a13.028,13.028,0,0,0-1,3.271" transform="translate(-531.945 -763.748)" fill="#ffae73"/>
          <path id="Path_30281" data-name="Path 30281" d="M851.265,1267.771c5.171.453,3.567,1.475,10.62,3.045s9.968-.3,10.516-1.261c.488-.849-2.764-2.325-6.227-3.985l-.057.059a19.9,19.9,0,0,1-10.758-.265c-4.65-1.47-9.09-4.494-12.293-5.536a13.038,13.038,0,0,0-1,3.271c-.412,3.259,4.032,4.219,9.2,4.672" transform="translate(-533.545 -798.276)" fill="#10005c"/>
          <path id="Path_30282" data-name="Path 30282" d="M622.209,890.471s64,6.639,74.546,16.436,8.67,101.067,8.67,101.067c-1.642,1.7-2.854,1.664-5.449,1.46-2.49-.2-7.567-2.337-7.567-2.337S678.7,962.281,678.532,951.9s-2.339-27.986-6.692-29.024S615.677,927.651,610,911.286s3.751-29.829,3.751-29.829Z" transform="translate(-385.364 -558.525)" fill="#fc7600"/>
          <path id="Path_30283" data-name="Path 30283" d="M560.623,784.078a29.124,29.124,0,0,0,15.983,4.995c14.825.539,33.324-1.229,36.966-4.667a6.266,6.266,0,0,0,1.537-4.226c.4-5.689-2.315-15.048-4.14-22.793-1.184-5.032-1.991-9.379-1.33-11.6,2.011-6.763,8.26-20.547,8.8-25.076s-4.866-28.8-12.339-31.8-36.321,0-36.321,0c-11.269,2.287-11.743,26.313-8,46.762.1.528.2,1.05.3,1.569,4.055,20.766-9.155,41.678-1.45,46.841" transform="translate(-353.672 -435.67)" fill="#5535c2"/>
          <path id="Path_30284" data-name="Path 30284" d="M632.361,667.816c-.2,1.318-3.81,3.455-11.52,1.422-7.388-1.948-8.275-4.354-8.273-5.942,0-1.881,3.211-4.415,3.17-15.986l.885.174,14.9,2.95s-.339,4.688-.349,9.1c-.01,3.708,1.529,6.085,1.191,8.278" transform="translate(-388.146 -410.16)" fill="#f7a157"/>
          <path id="Path_30285" data-name="Path 30285" d="M638.533,650.736s-.339,4.688-.349,9.1c-8.335-.235-12.741-7.839-14.546-12.054Z" transform="translate(-395.16 -410.462)" fill="#f9924f"/>
          <path id="Path_30286" data-name="Path 30286" d="M637.378,609.7s-19.721.326-19.734-11.959-2.568-20.516,10.023-21.243,15.042,3.958,16.044,8.057-1.2,24.744-6.333,25.145" transform="translate(-391.222 -365.242)" fill="#f7a157"/>
          <path id="Path_30287" data-name="Path 30287" d="M625.681,571.486S620.281,585.9,612,588.028s-11.881-.089-11.881-.089a23.467,23.467,0,0,0,7.675-13.864s13.819-9.449,17.892-2.59" transform="translate(-380.255 -360.533)"/>
          <path id="Path_30288" data-name="Path 30288" d="M666.248,574.933s4.032,3.217,5.015,6.345,1.426,9.568,3.3,9.349c0,0,4.068-9.8-.5-15.337-4.848-5.876-7.814-.358-7.814-.358" transform="translate(-422.16 -362.811)"/>
          <path id="Path_30289" data-name="Path 30289" d="M710.913,1223.4c-.047,3.286,4.476,3.727,9.664,3.581s3.708,1.055,10.89,1.8,9.87-1.449,10.309-2.464c.391-.9-3-1.992-6.63-3.242-.457-.156-.914-.318-1.371-.479-4.084-1.456-6.574-4.886-9.908-7.986-3.158-2.936,3.812-17.139,3.812-17.139l-9.137-4.522s-1.733,10.14-3.964,19.01c-.576,2.292-2.455,6.067-3.029,8.073a13.072,13.072,0,0,0-.635,3.366" transform="translate(-450.461 -755.902)" fill="#ffae73"/>
          <path id="Path_30290" data-name="Path 30290" d="M561.6,846.046c2.762,1.849,7.305,7.14,15.59,7.436,13.673-3.11,29.241-6.731,38.5-8.893.4-5.689-2.315-15.048-4.14-22.793-10.8,3.3-26.869-7.936-32.27-12.376-5.677-4.663-5.5-20.2-5.5-20.2l-11.423,10.859c.1.528.194,1.05.3,1.569,4.055,20.766-8.761,39.238-1.057,44.4" transform="translate(-354.256 -500.079)" fill="#4523af"/>
          <path id="Path_30291" data-name="Path 30291" d="M720.577,1273.828c5.188-.146,3.708,1.055,10.89,1.8s9.87-1.449,10.309-2.464c.391-.9-3-1.991-6.63-3.242l-.05.065a19.907,19.907,0,0,1-10.718.976c-4.784-.925-9.531-3.417-12.829-4.083a13.068,13.068,0,0,0-.635,3.365c-.047,3.285,4.476,3.727,9.664,3.581" transform="translate(-450.461 -802.744)" fill="#10005c"/>
          <path id="Path_30292" data-name="Path 30292" d="M574.259,909.786c16.249-.463,64.778,3.411,74.1,10.44,11.475,8.652-21.307,102.216-21.307,102.216a42.346,42.346,0,0,1-5.012.232c-5.206-.589-7.327-2.176-7.327-2.176s.127-55.07,3.957-65.6c3.539-9.733,5.708-13.177,1.274-13.758s-59.776,6.479-64.4-10.229c-3.608-13.05,1.723-25.128,1.723-25.128s2,4.433,16.986,4.006" transform="translate(-351.223 -573.937)" fill="#ff912b"/>
          <path id="Path_30293" data-name="Path 30293" d="M563.107,691.156s-11.286.958-12.165,9.879c-.667,6.774-5.576,54.821-2.041,59,9.948,11.76,43.121,14.251,48.006,16.036l1.343-5.561s-35.414-17.842-34.873-21.9,10.555-59.063-.27-57.458" transform="translate(-347.001 -437.921)" fill="#5535c2"/>
          <path id="Path_30294" data-name="Path 30294" d="M588.52,544.548s.81-5.146-6.327-6.474-7.27,13.831-8.035,17.486,1.142,5.844,3.863,6.066,10.5-17.078,10.5-17.078" transform="translate(-363.7 -340.892)"/>
          <path id="Path_30295" data-name="Path 30295" d="M681.632,903.194s10.085-2.854,12.488-2.187,10.633,6.118,9.476,7.6-8.408-.886-11.745-.438-5.917,2.094-8.319,1.738a27.86,27.86,0,0,1-4.914-1.3Z" transform="translate(-429.997 -570.849)" fill="#ffae73"/>
          <path id="Path_30296" data-name="Path 30296" d="M686.845,900.07s4.935-2.535,6.338-3.978a.393.393,0,0,1,.613.071c.376.593.728,1.739-1,2.877-2.491,1.639-5.948,1.03-5.948,1.03" transform="translate(-435.211 -567.724)" fill="#ffae73"/>
          <path id="Path_30297" data-name="Path 30297" d="M775.359,910.5s10.466.573,12.522,1.984,8.073,9.237,6.5,10.261-7.666-3.567-10.967-4.226-6.276.061-8.433-1.055a27.888,27.888,0,0,1-4.226-2.825Z" transform="translate(-488.378 -576.929)" fill="#ffae73"/>
          <path id="Path_30298" data-name="Path 30298" d="M625.043,1253.153H582.458c-2.048-2.5-1.294-11.723-.983-14.734.064-.606.108-.96.108-.96s14.542-11.631,16.539-2.725c.061.28.135.552.215.822,2.516,8.33,13.8,12.116,20.322,13.171,4.237.687,5.8,2.89,6.383,4.427" transform="translate(-368.194 -780.247)"/>
          <path id="Path_30299" data-name="Path 30299" d="M337.643,913.124c1.538,0,72.944,13.407,84.756,28.028,5.9,7.3,6.778,91.658,6.778,91.658s-7.3,9.051-23.066,3.8c0,0-11.559-57.713-10.705-75.219.236-4.84-48.79-.7-57.762-3.023s-30.9-21.842-26.067-31.351,26.067-13.889,26.067-13.889" transform="translate(-196.991 -578.59)" fill="#10005c"/>
          <path id="Path_30300" data-name="Path 30300" d="M521.719,902.308s4.57,3.943,9.256,5.058a41.939,41.939,0,0,1,6.8,2.067c4.241,1.947,12.284,10.634,11.536,11.5-2.4,2.769-12.059-4.443-13.907-3.933s3.032,4.7,1.1,5.839c-1.011.6-2.916-3.026-4.7-3.536-2.411-.69-4.011-4.33-4.733-4.579-1.405-.484-7.273-5.746-7.273-5.746Z" transform="translate(-329.364 -571.737)" fill="#f7a157"/>
          <path id="Path_30301" data-name="Path 30301" d="M676.414,1253.153H633.829c-2.048-2.5-1.294-11.723-.983-14.734.064-.606.108-.96.108-.96s14.542-11.631,16.539-2.725c.061.28.135.552.216.822,2.516,8.33,13.8,12.116,20.322,13.171,4.238.687,5.8,2.89,6.383,4.427" transform="translate(-400.745 -780.247)"/>
          <path id="Path_30302" data-name="Path 30302" d="M395.079,913.124c1.537,0,72.945,13.407,84.756,28.028,5.9,7.3,6.778,91.658,6.778,91.658s-7.3,9.051-23.066,3.8c0,0-11.56-57.713-10.706-75.219.236-4.84-48.789-.7-57.762-3.023s-30.9-21.842-26.066-31.351,26.066-13.889,26.066-13.889" transform="translate(-233.386 -578.59)" fill="#321688"/>
          <path id="Path_30303" data-name="Path 30303" d="M388.318,610.211a69.311,69.311,0,0,1-15.178-3.3c-5.819-1.888-10.509-4.648-7.487-9.966,2.785-4.9,7.294-15.852,6.989-24.923l10.828,8.726,7.355,5.927a88.077,88.077,0,0,1-.834,9.617q-.221,1.674-.522,3.609a2.624,2.624,0,0,0,1.209,2.634l.166.1a4.107,4.107,0,0,1-2.527,7.576" transform="translate(-231.093 -362.453)" fill="#f7a157"/>
          <path id="Path_30304" data-name="Path 30304" d="M413.586,600.2s.376,1.269-.27,5.953c-6.557-1.07-12.687-6.3-12.687-6.3,3.338-.917,4.553-4.524,7.04-4.187Z" transform="translate(-253.854 -377.421)" fill="#df792b"/>
          <path id="Path_30305" data-name="Path 30305" d="M400.372,538.821s-25.223,4.19-27.591-11.557-7.218-25.813,8.786-29.154,20.044,2.2,22.113,7.261,3.192,31.955-3.308,33.451" transform="translate(-234.574 -314.977)" fill="#f7a157"/>
          <path id="Path_30306" data-name="Path 30306" d="M397.725,492.607c1.083,3.792-1.816,8.411-6.681,9.932-7.223,2.258-5.628,11.117-8.878,11s-4.561-5.093-7.465-1.12c-2.476,3.388,2.061,7.406,1.749,9.265-.536,3.19-5.533,9.717-10.036,9.39s-12.93-21.729-11.245-28.351,8.427-13.6,14.808-14.567,15.241,1.792,17.287,1.792,9.876.614,10.461,2.662" transform="translate(-224.909 -309.183)"/>
          <path id="Path_30307" data-name="Path 30307" d="M363.993,727.835c-.422,3.635-1.187,6.107-2.39,6.911-3.76,2.518-8.746,5.65-14.31,8.75-19.73,11-46.742,21.62-52.236,3.026-6.454-21.838-2.214-62.845,4.116-88.315,3.643-14.674,13.721-30.07,20.534-30.054,11.609.02,28.3,3.085,35.036,19.707,2.608,6.439,6.443,28.753,8.4,49.194,1.167,12.179,1.667,23.69.851,30.78" transform="translate(-184.921 -398.023)" fill="#fff"/>
          <path id="Path_30308" data-name="Path 30308" d="M364.707,618.293l2.629-5.921s23.3,2.372,27.259,15.763c0,0-18.014-9.555-29.887-9.842" transform="translate(-231.092 -388.022)" fill="#eeeaf6"/>
          <path id="Path_30309" data-name="Path 30309" d="M421.029,839.418c-.422,3.635-1.187,6.107-2.39,6.911-3.76,2.518-8.746,5.65-14.31,8.75-5.806-3.53-17.727-11.952-20.515-21.878-3.643-12.979-1.089-28.948-1.089-28.948Z" transform="translate(-241.957 -509.606)" fill="#eeeaf6"/>
          <path id="Path_30310" data-name="Path 30310" d="M377.611,675.949s2.022,55.78,5.193,66.808c5.409,18.807,54.742,25.5,54.742,25.5a10.1,10.1,0,0,0,1.609-8.766s-29.493-23.246-30.355-27.671,6.426-34.416-1.9-45.321-23.688-20.355-29.284-10.555" transform="translate(-239.269 -425.706)" fill="#fff"/>
          <path id="Path_30311" data-name="Path 30311" d="M204.64,1132.2l-.163,0a2.205,2.205,0,0,1-2.229-2.359l8.862-88.51,7.734.69L206.118,1131a1.44,1.44,0,0,1-1.478,1.2" transform="translate(-128.145 -659.825)" fill="#10005c"/>
          <path id="Path_30312" data-name="Path 30312" d="M329.153,1132.2l-.162,0a2.206,2.206,0,0,1-2.229-2.359l8.862-88.51,7.734.69L330.631,1131a1.44,1.44,0,0,1-1.478,1.2" transform="translate(-207.042 -659.825)" fill="#10005c"/>
          <path id="Path_30313" data-name="Path 30313" d="M542.493,1132.2l.163,0a2.206,2.206,0,0,0,2.229-2.359l-8.863-88.51-7.734.69L541.015,1131a1.44,1.44,0,0,0,1.478,1.2" transform="translate(-334.744 -659.825)" fill="#10005c"/>
          <path id="Path_30314" data-name="Path 30314" d="M200.762,838.5l-8.412-73.925c-1.1-10.653,2.462-21.085,17.835-21.892l27.045-1.648c16.03-.662,23.267,12.679,25.3,22.95l16.056,81.262Z" transform="translate(-121.763 -469.531)" fill="#10005c"/>
          <path id="Path_30315" data-name="Path 30315" d="M220.383,1020.355H340.418a4.4,4.4,0,0,0,4.385-4.385v-5.4a4.4,4.4,0,0,0-4.385-4.385H216v9.784a4.4,4.4,0,0,0,4.385,4.385" transform="translate(-136.865 -637.558)" fill="#10005c"/>
          <path id="Path_30316" data-name="Path 30316" d="M219.4,1020.355h70.875a3.415,3.415,0,0,0,3.405-3.405v-7.358a3.415,3.415,0,0,0-3.405-3.405H216v10.764a3.415,3.415,0,0,0,3.405,3.405" transform="translate(-136.865 -637.558)" fill="#10005c"/>
        </g>
      </g>
    </g>
  </g>
</svg>
