<svg xmlns="http://www.w3.org/2000/svg" xmlns:xlink="http://www.w3.org/1999/xlink" width="619" height="548" viewBox="0 0 619 548">
  <defs>
    <clipPath id="clip-path">
      <rect id="Rectangle_10594" data-name="Rectangle 10594" width="619" height="548" transform="translate(1183 3181)" fill="#fff"/>
    </clipPath>
    <clipPath id="clip-path-2">
      <rect id="Rectangle_10593" data-name="Rectangle 10593" width="702.297" height="509.646" fill="none"/>
    </clipPath>
    <clipPath id="clip-path-3">
      <path id="Path_30317" data-name="Path 30317" d="M458.995,0A243.174,243.174,0,0,0,250.062,118.565H212.013q-2.5-.064-5.016-.065t-5.015.065h-2.569s-.006.031-.018.085C97.732,122.641,16.538,206.317,16.538,308.959c0,102.6,102.7,173.8,182.733,190.3C295.009,519,418.7,509.874,523.143,478.057,626.39,449.909,702.3,355.472,702.3,243.3,702.3,108.93,593.366,0,458.995,0Z" fill="none"/>
    </clipPath>
    <linearGradient id="linear-gradient" x1="0.13" y1="0.852" x2="0.777" y2="0.043" gradientUnits="objectBoundingBox">
      <stop offset="0" stop-color="#5b2ec9"/>
      <stop offset="1" stop-color="#00c4ff"/>
    </linearGradient>
    <clipPath id="clip-path-5">
      <rect id="Rectangle_10590" data-name="Rectangle 10590" width="383.271" height="383.27" transform="translate(266.976 53.148)" fill="none"/>
    </clipPath>
  </defs>
  <g id="Group_18099" data-name="Group 18099" transform="translate(-1183 -3181)">
    <rect id="Rectangle_10489" data-name="Rectangle 10489" width="619" height="548" transform="translate(1183 3181)" fill="#fff"/>
    <g id="Mask_Group_25" data-name="Mask Group 25" clip-path="url(#clip-path)">
      <g id="Group_18098" data-name="Group 18098" transform="translate(1138 3242.177)">
        <g id="Group_18097" data-name="Group 18097" clip-path="url(#clip-path-2)">
          <g id="Group_18091" data-name="Group 18091">
            <g id="Group_18090" data-name="Group 18090" clip-path="url(#clip-path-3)">
              <rect id="Rectangle_10589" data-name="Rectangle 10589" width="685.759" height="518.999" transform="translate(16.538 0)" fill="url(#linear-gradient)"/>
            </g>
          </g>
          <g id="Group_18096" data-name="Group 18096">
            <g id="Group_18095" data-name="Group 18095" clip-path="url(#clip-path-2)">
              <g id="Group_18094" data-name="Group 18094" opacity="0.2">
                <g id="Group_18093" data-name="Group 18093">
                  <g id="Group_18092" data-name="Group 18092" clip-path="url(#clip-path-5)">
                    <path id="Path_30318" data-name="Path 30318" d="M650.247,244.783c0,105.837-85.8,191.635-191.635,191.635s-191.636-85.8-191.636-191.635,85.8-191.635,191.636-191.635,191.635,85.8,191.635,191.635" fill="#fff"/>
                  </g>
                </g>
              </g>
              <path id="Path_30319" data-name="Path 30319" d="M458.612,125.492l-94.649,34.583v106.99c0,62.287,70.987,81.1,94.649,99.3,24.269-17.6,94.649-37.617,94.649-99.3V160.075Z" fill="#5b2ec9"/>
              <path id="Path_30320" data-name="Path 30320" d="M458.612,125.492l-94.649,34.583v106.99c0,62.287,70.987,81.1,94.649,99.3,24.269-17.6,94.649-37.617,94.649-99.3V160.075Z" fill="none" stroke="#fff" stroke-miterlimit="10" stroke-width="1.169"/>
              <path id="Path_30321" data-name="Path 30321" d="M458.824,352.8c-4.7-2.733-9.874-5.473-15.441-8.421C427.734,336.091,410,326.7,396.555,313.931c-14.05-13.342-20.594-27.689-20.594-45.151V166.87l82.651-30.2,82.651,30.2V268.78c0,17.61-6.739,32.163-21.209,45.8-13.805,13.01-31.82,22.528-47.716,30.925-4.841,2.558-9.36,4.945-13.514,7.3" fill="#5b2ec9"/>
              <path id="Path_30322" data-name="Path 30322" d="M493.928,223.01V210.486a35.316,35.316,0,1,0-70.633,0V223.01a79.032,79.032,0,0,0-10.84,6.554V284.42a79.021,79.021,0,0,0,92.312,0V229.564a79.02,79.02,0,0,0-10.839-6.554m-56.646-12.524a21.329,21.329,0,1,1,42.659,0V217.6a79.31,79.31,0,0,0-42.659,0Zm30.071,68.185H449.87l3.671-21.5a11.19,11.19,0,1,1,10.141,0Z" fill="#fff"/>
              <path id="Path_30323" data-name="Path 30323" d="M458.527,75.934a12.388,12.388,0,1,1-12.388,12.388,12.388,12.388,0,0,1,12.388-12.388" fill="#fff"/>
              <path id="Path_30324" data-name="Path 30324" d="M314.538,244.868A12.387,12.387,0,1,1,302.15,232.48a12.388,12.388,0,0,1,12.388,12.388" fill="#fff"/>
              <path id="Path_30325" data-name="Path 30325" d="M623.546,244.868a12.388,12.388,0,1,1-12.388-12.388,12.388,12.388,0,0,1,12.388,12.388" fill="#fff"/>
              <path id="Path_30326" data-name="Path 30326" d="M458.7,388.857a12.387,12.387,0,1,1-12.388,12.388A12.388,12.388,0,0,1,458.7,388.857" fill="#fff"/>
              <path id="Path_30327" data-name="Path 30327" d="M307.792,203A156.769,156.769,0,0,1,416.653,94.011" fill="none" stroke="#fff" stroke-miterlimit="10" stroke-width="3.506"/>
              <path id="Path_30328" data-name="Path 30328" d="M416.651,395.554A156.761,156.761,0,0,1,307.714,286.286" fill="none" stroke="#fff" stroke-miterlimit="10" stroke-width="3.506"/>
              <path id="Path_30329" data-name="Path 30329" d="M609.431,286.572A156.769,156.769,0,0,1,500.569,395.556" fill="none" stroke="#fff" stroke-miterlimit="10" stroke-width="3.506"/>
              <path id="Path_30330" data-name="Path 30330" d="M497.645,93.229a156.752,156.752,0,0,1,111.739,109.6" fill="none" stroke="#fff" stroke-miterlimit="10" stroke-width="3.506"/>
              <path id="Path_30331" data-name="Path 30331" d="M623.4,319.747l-9.882,148.242a34.435,34.435,0,0,1-3.048,12.032h-213.6a32.045,32.045,0,0,1-1.444-12.032l9.882-148.242c1.1-16.48,13.934-29.989,29.179-31.248q1.154-.1,2.324-.1H596.073c16.245,0,28.478,14.033,27.324,31.344" fill="#10005c"/>
              <path id="Path_30332" data-name="Path 30332" d="M587.727,465.288c-.12,1.8-.986,3.255-1.935,3.255s-1.621-1.457-1.5-3.255l10.191-152.881c.12-1.8.986-3.255,1.935-3.255s1.621,1.458,1.5,3.255Z" fill="#fff"/>
              <path id="Path_30333" data-name="Path 30333" d="M418.816,168.866c.315,15.586,13,51.087,16.05,64.239,1.278,5.51,10.745,17.861,13.939,20.276,5.6,4.23-23.7,27.457-32.685,34.842-4.366,3.59-10.883,8.343-16.622,9.57-3.871-12.128-17.579-17.047-22.42-28.815-3.037-7.382-4.422-14.091-8.568-21.028,13.184-2.859,12.071-10.575,15.711-21.241,4.126-12.091-8-32.1-4.645-44.267Z" fill="#f7a157"/>
              <path id="Path_30334" data-name="Path 30334" d="M469.719,267.288V490.754H317.382l.71-13.883,9.766-190.424,36.47-41.81,5.456-.315,72.255-4.154,1.768-.1Z" fill="#f2ebff"/>
              <path id="Path_30335" data-name="Path 30335" d="M381.235,225.959s-12.006,16.379-13.065,16.379,11.19,36.587,11.19,36.587L398.9,247.418,416.3,278.925l29.233-36.587-11.973-16.379s-20,18.215-36.421,16.1-11.312-10.532-15.9-16.1" fill="#fff"/>
              <path id="Path_30336" data-name="Path 30336" d="M372.688,237.255c-.034.081-1.173,2.713-2.9,7.068-4.612,11.62-13.416,35.512-16.583,55.948-2.742,17.685-10.943,71.411-17.462,114.544l-.007.009c-3.886,25.7-7.177,47.624-8.362,55.93-.262,1.838-.514,3.894-.756,6.118-.447,4.146-.859,8.877-1.234,13.883H306.746c.326-4.663.645-9.32.951-13.883.518-7.749.995-15.228,1.393-22.015,2.385-40.534-5.563-152.6-7.549-165.712,0,0,10.729-20.665,25.433-29.01,7.168-4.069,18.215-9.617,27.658-14.219l.143-.072c8.647-4.219,15.911-7.644,17.565-8.424Z" fill="#321688"/>
              <path id="Path_30337" data-name="Path 30337" d="M518.689,297.792c-.931,30.576-13.878,87.751-15.933,100.1-.93,5.548-1.565,18.216-2.036,32.976-.007.35-.015.691-.03,1.041-.452,14.686-.748,31.3-1,44.96-.1,5.129-.185,9.842-.275,13.883h-54.54q-.487-2.474-.97-5c-.562-2.925-1.116-5.893-1.663-8.886-2.247-12.329-4.322-25.082-5.9-37-1.192-9.012-2.089-17.54-2.55-25.051q-.156-2.443-.24-4.737c-1.271-33.381-3.392-84.247,2.44-108.623.279-1.164.545-2.358.8-3.574,4.367-20.786,5.484-48.567,5.246-57.722a16.626,16.626,0,0,0-.227-2.915l.128.041c1.087.341,8.852,2.781,16.99,6.015,4.858,1.931,11.567,4.664,15.687,6.254,11.832,4.565,27.9,11.485,41.85,20.493,1.825,1.179,1.716,14.5,2.064,18.714a80.825,80.825,0,0,1,.158,9.022" fill="#321688"/>
              <path id="Path_30338" data-name="Path 30338" d="M305.993,281.739s-.233.423-.66,1.212c-3.93,7.271-24.362,45.587-32.007,70.44-8.479,27.552.021,58.612.021,58.612l19.5,15.664s22.333-14.4,27.1-36.127-.365-93.5-13.959-109.8" fill="#321688"/>
              <path id="Path_30339" data-name="Path 30339" d="M391.576,277.928l-4.861-10.939L398.9,247.419l11.622,21.052-7.456,10.43Z" fill="#db6875"/>
              <path id="Path_30340" data-name="Path 30340" d="M395,476.872c.042,1.913.118,3.419.227,4.469-1.558,2.946-3.12,6.13-4.649,9.414H364.426l-2.849-12.039.215-1.844c1.64-14,12.207-103.814,16.893-132.288,5.089-30.915,12.952-66.717,12.952-66.717l11.431,1.034S394.232,442.686,395,476.872" fill="#db6875"/>
              <path id="Path_30341" data-name="Path 30341" d="M426.5,438.2c-13.859,2.029-24.384-1.144-37.008-7.785-17.379-9.143-36.707-1.579-52.994,7.9-5.214,3.036-20.477,11.272-19.833,20.546.566,8.153,12.5,6.067,16.807,5.407,9.011-1.379,17.8-4.7,26.927-5.033,7.862-.287,15.2,2.2,22.726,4.54,17.64,5.48,36.174,3.035,54.222,4.092,3.033.177,6.065.379,9.1.581-3.406,1.045-2.3-25.406-2.3-29.581Z" fill="#f7a157"/>
              <path id="Path_30342" data-name="Path 30342" d="M516.467,270.056c8.572,5.11,20.366,23.557,26.724,47.4s34.97,143.591,30.732,153.658S525.8,479.5,496.13,478.436s-86.1-4.238-86.1-4.238-1.589-13.777,0-25.433,1.59-14.837,1.59-14.837,61.993-1.589,87.426-9.007c-2.119-20.135-12.4-66.29-15.584-84.3s24.435-75.67,33.007-70.56" fill="#321688"/>
              <path id="Path_30343" data-name="Path 30343" d="M447.292,291.56l15.9,8.481L433.793,414.824q-.158-2.445-.24-4.737c-1.271-33.381-3.393-84.247,2.441-108.623s2.655-66.927,1.868-69.613l7.666,4.254,13.4,7.2,7.961,41.893Z" fill="#5535c2"/>
              <path id="Path_30344" data-name="Path 30344" d="M372.689,237.253s-15.117,34.8-19.488,63.018c-2.742,17.685-10.944,71.411-17.462,114.545l-.008.007-2.274-119.176,17.882-7.352-18.924-6.557,22.217-35.822.143-.072,17.565-8.424Z" fill="#5375b5"/>
              <path id="Path_30345" data-name="Path 30345" d="M435.467,432.87l70.251-2.093-22.259-90.16s16.032,81.637,16.032,82.7-64.024,9.557-64.024,9.557" fill="#10005c"/>
              <path id="Path_30346" data-name="Path 30346" d="M413.051,134.644c-.544,22.082,4.8,45.268,1.688,67.128-2.693,18.893-20.837,45.176-43.687,36.571-19.127-7.205-22.038-35.722-26.55-52.478-5.2-19.288-12.517-41.444,2.682-58.66,17.421-19.734,45.873-19.126,62.784-.811Z" fill="#f7a157"/>
              <path id="Path_30347" data-name="Path 30347" d="M421.026,183.622a135.5,135.5,0,0,0,5.459-21.161c2-11.684-6.573-39.791-16.6-49.041s-28.462-9.241-36.951-9.446-30.424,3.617-39.043,10.974c-8.284,7.072-20.27,29.3-20.27,29.3s22.2,9.335,36.523,4.711,43.029-16.607,43.029-16.607-4.5,8.214.8,19.345,13.952,24.9,13.763,27.878,13.292,4.047,13.292,4.047"/>
              <path id="Path_30348" data-name="Path 30348" d="M406.169,175.6c1.734-3.387.712-8.057,2.081-11.873,1.337-3.727,2.331-5.645,7.522-5.062s5.441,12.785,4.119,17.567c-1.532,5.546-8.129,14.716-12.159,6.014-1.259-2.716-1.228-5.574-1.564-8.49Z" fill="#f7a157"/>
              <path id="Path_30349" data-name="Path 30349" d="M349.065,208.44c-.249-1.762-.6-4.6-.907-6.35-.265-1.513-.538-3.113-.91-4.636a30.959,30.959,0,0,1,3.4,4.539c1.074,1.605,3.21,5.06,5.4,3.473,1.29-.932,2.182-2.535,3.336-3.64a33.14,33.14,0,0,1,3.791-3,26.087,26.087,0,0,1,8.079-3.875c6.1-1.727,12.649-.533,18.383,1.885,13.751,5.8,16.179-11.72,15.89-23.135a4.864,4.864,0,0,0,1.4-.538c2.437,4.655,3.546,16.813,3.235,21.932-.386,6.3,2.111,14.588,1.575,22.382s-10.339,23.849-19.765,27.879c-24.834,10.614-35.081,4.629-38.531-10.136-1.178-5.045-3.907-23.414-4.382-26.781"/>
              <path id="Path_30350" data-name="Path 30350" d="M387.81,204.26c-7.149-3.5-19.313-2.254-25.211,4.307-3.031,3.371-1.312,4.882,3.219,5.166,4.943.309,9.73-.9,14.461-2.587,3.222-1.148,8.141-2.578,8.713-5.843Z" fill="#ff9e82"/>
              <path id="Path_30351" data-name="Path 30351" d="M401.42,235.585c3.741-3.716-9.362-16.592-18.864-18.39-12.257-2.319-28.254,6.161-31.583,13.559s-11.4,25.137-11.761,35.535c-.106,3.055-3.045,6.566-10.164,17.955-1.686,2.7-10.371,18.018-10.371,18.018s25.308,9.658,29.665,10.946c3.77-6.079,5.948-22.294,11.488-27.2,5.022-4.45,10.3-7.217,12.034-13.976,1.468-5.718,1.347-18.044,2.683-23.843,1.808-7.85,25.4-11.14,26.873-12.6" fill="#f7a157"/>
              <path id="Path_30352" data-name="Path 30352" d="M365.3,292.572,325.828,277.7s-26.348,42.609-38.506,59.858-48.928,76.506-51.845,91.839,5.047,30.942,11.856,37.65,34.936,2.118,41.448-1.235,44.443-84.6,48.334-97.2S365.3,292.572,365.3,292.572" fill="#321688"/>
              <path id="Path_30353" data-name="Path 30353" d="M318.04,467.694c.3,1.527-.248,2.917-1.215,3.105s-1.991-.9-2.286-2.427l-23.574-121.7c-.3-1.527.248-2.918,1.215-3.105s1.99.9,2.286,2.427Z" fill="#fff"/>
              <path id="Path_30354" data-name="Path 30354" d="M87.287,378.38c-7.019-12.353-14.118-22.522-33.621-25.352-7.56-1.1-21.506-2.591-21.506-2.591s8.4,21.551,19.953,28.361c6.695,3.947,29.628,10.171,36.314,17.922,1.793,2.078,7.907,19.019,10.027,20.23,2.441,1.4.26-3.854.2-6.3-.091-4.114-5.864-14.977-7-18.9-1.38-4.74-1.863-8.964-4.367-13.372" fill="#d2b5f2"/>
              <path id="Path_30355" data-name="Path 30355" d="M95.521,447.081c-1.92-9.062-6.757-10.381-12.513-17.013-2.7-3.111-13.355-15.188-17.125-18.577-6.152-5.534-12.944-9.909-21.515-11.372-7.2-1.229-42.678,3.859-42.678,3.859s21.9,18.942,38.6,25.3c17.543,6.675,34.046,3.089,40.523,5.185,6.24,2.019,13.213,14.722,14.308,21.021Z" fill="#d2b5f2"/>
              <path id="Path_30356" data-name="Path 30356" d="M94.454,467.212c-11.167-9.973-20.434-23.026-35.635-26.876-6.05-1.532-14-4.253-20.248-2.954-6.3,1.31-10.25,5.914-16.244,8.648C17.165,448.384,0,452.3,0,452.3s27.589,11.59,42.162,9.855c5.894-.7,12.377-5.035,19.3-5.62,6.078-.514,8.085.068,13.974,2.59,3.682,1.576,8.507,3.175,11.732,5.51,3.19,2.309,3.949,4.337,7.377,6.577Z" fill="#d2b5f2"/>
              <path id="Path_30357" data-name="Path 30357" d="M104.053,396.019c5.147-13.457,15.01-24.985,19.488-38.517,4.641-14.024-3.8-32.01-9.1-44.841-1.313-3.182-9.173-14.975-9.173-14.975s-4.779,19.868-5.706,24.2c-2.621,12.264-4.023,24.874-2.057,37.332,1.994,12.639,3.329,26.871,2.679,39.825-.076,1.512,3.041.527,2.933,2.037Z" fill="#d2b5f2"/>
              <path id="Path_30358" data-name="Path 30358" d="M118.145,392.553c5.806-11.853,16.051-15.039,28-18.671,2.4-.73,14.424-3.569,14.424-3.569s-7.2,14.376-8.679,16.74c-3.2,5.1-6.96,10.221-12.7,12.576-4.776,1.961-12.024,6.541-16.858,8.333-10.01,3.711-14.625,12.84-21.744,20.254-.449.468-.455-3.817-.4-4.2.228-1.543,2.516-2.292,3.307-3.2a28.59,28.59,0,0,0,5.211-7.4c3.183-6.938,6.08-14,9.44-20.863" fill="#d2b5f2"/>
              <path id="Path_30359" data-name="Path 30359" d="M117.128,426.279c5.208-3.994,10.255-7.98,16.828-9.4,6.46-1.4,13.112-.273,19.333,1.671a90.123,90.123,0,0,1,10.417,3.865c12.829,5.836,17.367,6.3,24.1,7.963-.655,1.087-16.814,11.7-36.3,8.371-11.785-2.015-25.611-9.992-37.451-4.227-6.084,2.961-11.113,6.164-15.553,11.292.945-1.093.315-4.386,1.613-5.993.982-1.215,2.962-2.218,4.173-3.248,4.2-3.576,8.464-6.931,12.847-10.294" fill="#d2b5f2"/>
              <path id="Path_30360" data-name="Path 30360" d="M107.042,446.533c4.786-4.346,9.844-8.841,16.528-9.566,7.09-.769,13.6,1.841,19.212,5.962,6.018,4.42,11.408,9.51,18.205,13.521,6.19,3.653,17.673,9.478,17.673,9.478s-33.863-.066-41.119-1.55c-9.86-2.017-15.474-6.2-19.965-9.808-2.215-1.778-7.434-3.8-11.841-1.445-4.834,2.579-4.757,10.18-6.3,14.743.056-.166-.728-2.009-.765-2.454a11.61,11.61,0,0,1,.316-2.482,33.72,33.72,0,0,1,1.025-6.148,23.671,23.671,0,0,1,7.03-10.251" fill="#d2b5f2"/>
              <path id="Path_30361" data-name="Path 30361" d="M99.985,473.863a130.72,130.72,0,0,0,1.375,13.883H93.6c.067-5.239.2-10.587.254-12.6.012-.446.016-.872.016-1.281,0-3.556-.393-5.807-.31-8.318.094-2.8,2.754-22.865,3.023-32.063s1.207-20,1.938-24.931,2.066-11.6,2.066-11.6l2.908,2.1s-1.913,18.436-2.278,25.435-1.457,20.838-1.844,29.643c-.195,4.429.138,12.55.612,19.737" fill="#d2b5f2"/>
              <rect id="Rectangle_10591" data-name="Rectangle 10591" width="643.954" height="13.883" transform="translate(37.441 478.553)" fill="#321688"/>
              <path id="Path_30362" data-name="Path 30362" d="M390.123,472.794c0,3.181-2.007,5.76-4.483,5.76h-215.3c-2.476,0-4.483-2.579-4.483-5.76s2.007-5.758,4.483-5.758h215.3c2.476,0,4.483,2.578,4.483,5.758" fill="#b09df5"/>
              <path id="Path_30363" data-name="Path 30363" d="M321.27,473.041c.589,3.044-1.323,5.512-4.269,5.512H128.221a6.9,6.9,0,0,1-6.4-5.512L97.283,346.084c-.589-3.043,1.322-5.511,4.268-5.511h188.78a6.9,6.9,0,0,1,6.4,5.511Z" fill="#c0afff"/>
              <path id="Path_30364" data-name="Path 30364" d="M199.672,409.563a9.6,9.6,0,1,1,9.6,9.605,9.605,9.605,0,0,1-9.6-9.605" fill="#fff"/>
            </g>
          </g>
        </g>
      </g>
    </g>
  </g>
</svg>
