<svg xmlns="http://www.w3.org/2000/svg" xmlns:xlink="http://www.w3.org/1999/xlink" width="59.932" height="57.924" viewBox="0 0 59.932 57.924">
  <defs>
    <clipPath id="clip-path">
      <rect id="Rectangle_1527" data-name="Rectangle 1527" width="59.932" height="57.924" fill="none"/>
    </clipPath>
  </defs>
  <g id="Group_18044" data-name="Group 18044" transform="translate(0 0)">
    <g id="Group_60" data-name="Group 60" transform="translate(0 0)" clip-path="url(#clip-path)">
      <path id="Path_722" data-name="Path 722" d="M59.9,10.753a3.708,3.708,0,0,0,.032-.44C59.932,4.617,46.515,0,29.967,0S0,4.617,0,10.313a3.555,3.555,0,0,0,.032.439V21.428a3.566,3.566,0,0,0-.032.44C0,27.563,13.419,32.18,29.967,32.18s29.965-4.617,29.965-10.312a3.7,3.7,0,0,0-.032-.44Z" transform="translate(-0.001 0)" fill="#a652ff"/>
      <path id="Path_723" data-name="Path 723" d="M59.9,44.583a3.13,3.13,0,0,1,.035.447c0,5.693-13.418,10.31-29.966,10.31S0,50.723,0,45.03a2.956,2.956,0,0,1,.035-.44V36.306c.719,5.476,13.845,9.842,29.931,9.842S59.178,41.782,59.9,36.306Z" transform="translate(0 -10.946)" fill="#fff"/>
      <path id="Path_724" data-name="Path 724" d="M59.9,63.952a3.13,3.13,0,0,1,.035.447c0,5.693-13.418,10.31-29.966,10.31S0,70.092,0,64.4a2.956,2.956,0,0,1,.035-.44V55.675c.719,5.476,13.845,9.842,29.931,9.842S59.178,61.151,59.9,55.675Z" transform="translate(0 -16.786)" fill="#19c8ff"/>
    </g>
  </g>
</svg>
