<svg xmlns="http://www.w3.org/2000/svg" xmlns:xlink="http://www.w3.org/1999/xlink" width="74.097" height="71.549" viewBox="0 0 74.097 71.549">
  <defs>
    <clipPath id="clip-path">
      <rect id="Rectangle_1565" data-name="Rectangle 1565" width="71.965" height="62.795" fill="none"/>
    </clipPath>
    <clipPath id="clip-path-2">
      <rect id="Rectangle_10564" data-name="Rectangle 10564" width="44.048" height="39.913" fill="none"/>
    </clipPath>
  </defs>
  <g id="Group_18048" data-name="Group 18048" transform="translate(-1226.229 -2451.677)">
    <g id="Group_18045" data-name="Group 18045" transform="translate(1228.362 2460.432)">
      <g id="Group_88" data-name="Group 88" clip-path="url(#clip-path)">
        <path id="Path_769" data-name="Path 769" d="M151.422,41.2H138.444a15.818,15.818,0,0,0-12.528-13.048V15.12A28.709,28.709,0,0,1,151.422,41.2" transform="translate(-79.52 -9.549)" fill="#a652ff"/>
        <path id="Path_770" data-name="Path 770" d="M151.484,97.06a28.7,28.7,0,0,1-25.568,26.957V110.985A15.82,15.82,0,0,0,138.555,97.06Z" transform="translate(-79.52 -61.296)" fill="#fff"/>
        <path id="Path_771" data-name="Path 771" d="M64.735,111.057v12.908a28.7,28.7,0,0,1-27.716-27.1h12.93a15.812,15.812,0,0,0,14.787,14.2" transform="translate(-23.379 -61.17)" fill="#19c8ff"/>
      </g>
    </g>
    <g id="Group_18047" data-name="Group 18047" transform="translate(1226.229 2451.677)">
      <g id="Group_18046" data-name="Group 18046" clip-path="url(#clip-path-2)">
        <path id="Path_29806" data-name="Path 29806" d="M205.71,378.537h-8.386a.624.624,0,1,0,0,1.249h8.391a.625.625,0,0,0,.624-.624.632.632,0,0,0-.63-.624Z" transform="translate(-178.55 -343.608)" fill="#a652ff"/>
        <path id="Path_29807" data-name="Path 29807" d="M197.327,243.8h4.031a.624.624,0,1,0,0-1.249h-4.031a.624.624,0,1,0,0,1.249" transform="translate(-178.553 -220.175)" fill="#a652ff"/>
        <path id="Path_29808" data-name="Path 29808" d="M197.327,333.645H199.2a.624.624,0,1,0,0-1.249h-1.868a.624.624,0,1,0,0,1.249" transform="translate(-178.553 -301.725)" fill="#a652ff"/>
        <path id="Path_29809" data-name="Path 29809" d="M43.739,16.1A9.916,9.916,0,0,0,31.7,8.935c-.161.043-.318.086-.479.134A9.912,9.912,0,0,0,21.471,0h-.134a9.924,9.924,0,0,0-9.888,9.323A9.908,9.908,0,0,0,5.857,28.152a.619.619,0,0,0,.366.043.811.811,0,0,0,.113.011l7.853-.038V39.288a.625.625,0,0,0,.624.624h15.68a.625.625,0,0,0,.625-.625l-.005-11.2,5.5-.027a.4.4,0,0,0,.081-.005.626.626,0,0,0,.264-.022A9.895,9.895,0,0,0,43.74,16.1Zm-28.3,22.564V19.781H25.767v3.558a.625.625,0,0,0,.624.624h3.472l.005,3.51v.005l.005,11.2H15.438ZM27.01,22.709V20.68L29,22.709Zm9.662,4.112c-.022,0-.048-.005-.07-.005l-5.5.027-.005-3.5v-.038a.634.634,0,0,0-.178-.436l-4.08-4.15a.636.636,0,0,0-.447-.189H14.813a.625.625,0,0,0-.624.624v7.762l-7.859.038a.28.28,0,0,0-.07.005A8.665,8.665,0,0,1,9.9,10.442a8.592,8.592,0,0,1,2.008.237.612.612,0,0,0,.468-.075.628.628,0,0,0,.3-.544V9.791A8.661,8.661,0,0,1,30,9.84a.569.569,0,0,0,.038.339.619.619,0,0,0,.221.275.6.6,0,0,0,.361.119h.005a.63.63,0,0,0,.328-.092A9.19,9.19,0,0,1,32,10.141a8.663,8.663,0,0,1,4.667,16.68Z" transform="translate(0)" fill="#a652ff"/>
        <path id="Path_29810" data-name="Path 29810" d="M250.611,332.387h-3.822a.624.624,0,1,0,0,1.249h3.822a.624.624,0,1,0,0-1.249" transform="translate(-223.451 -301.717)" fill="#a652ff"/>
        <path id="Path_29811" data-name="Path 29811" d="M205.71,288.287h-8.386a.624.624,0,1,0,0,1.249h8.391a.625.625,0,0,0,.624-.624.633.633,0,0,0-.63-.624Z" transform="translate(-178.55 -261.686)" fill="#a652ff"/>
        <path id="Path_29812" data-name="Path 29812" d="M49.028,39.047c-.022,0-.048-.005-.07-.005l-5.5.027-.005-3.5v-.038a.634.634,0,0,0-.178-.436l-4.08-4.15a.636.636,0,0,0-.447-.189H27.169a.625.625,0,0,0-.624.624v7.762l-7.859.038a.28.28,0,0,0-.07.005A8.665,8.665,0,0,1,22.26,22.668a8.592,8.592,0,0,1,2.008.237.612.612,0,0,0,.468-.075.628.628,0,0,0,.3-.544v-.269a8.661,8.661,0,0,1,17.321.049.569.569,0,0,0,.038.339.619.619,0,0,0,.221.275.6.6,0,0,0,.361.119h.005a.63.63,0,0,0,.328-.092,9.189,9.189,0,0,1,1.05-.339,8.663,8.663,0,0,1,4.667,16.68Z" transform="translate(-12.356 -12.226)" fill="#a652ff"/>
      </g>
    </g>
  </g>
</svg>
