<svg id="Group_18043" data-name="Group 18043" xmlns="http://www.w3.org/2000/svg" xmlns:xlink="http://www.w3.org/1999/xlink" width="70.461" height="66.871" viewBox="0 0 70.461 66.871">
  <defs>
    <clipPath id="clip-path">
      <rect id="Rectangle_1619" data-name="Rectangle 1619" width="70.461" height="66.871" fill="none"/>
    </clipPath>
  </defs>
  <g id="Group_225" data-name="Group 225" transform="translate(0 0)" clip-path="url(#clip-path)">
    <path id="Path_1083" data-name="Path 1083" d="M11.278,29.92A29.92,29.92,0,1,0,41.2,0a29.92,29.92,0,0,0-29.92,29.92" transform="translate(-0.733 0)" fill="#a652ff"/>
    <path id="Path_1084" data-name="Path 1084" d="M11.446,4.807a19.839,19.839,0,0,0-9.118,8.579" transform="translate(-0.151 -0.312)" fill="none" stroke="#a652ff" stroke-miterlimit="10" stroke-width="1.5"/>
    <path id="Path_1085" data-name="Path 1085" d="M1.379,15.873c-.252.6-.466,1.22-.665,1.843" transform="translate(-0.046 -1.032)" fill="none" stroke="#a652ff" stroke-miterlimit="10" stroke-width="1.5"/>
    <path id="Path_1086" data-name="Path 1086" d="M46.543,36.163H20.364a13.09,13.09,0,0,1,0-26.18h26.18a13.09,13.09,0,0,1,0,26.18" transform="translate(-0.473 -0.649)" fill="#19c8ff"/>
    <line id="Line_1101" data-name="Line 1101" x1="2.587" y1="4.438" transform="translate(26.481 14.394)" fill="#fff"/>
    <line id="Line_1102" data-name="Line 1102" x1="2.587" y1="4.438" transform="translate(26.481 14.394)" fill="none" stroke="#fff" stroke-miterlimit="10" stroke-width="1.5"/>
    <line id="Line_1103" data-name="Line 1103" y1="4.969" x2="1.309" transform="translate(33.82 13.218)" fill="#fff"/>
    <line id="Line_1104" data-name="Line 1104" y1="4.969" x2="1.309" transform="translate(33.82 13.218)" fill="none" stroke="#fff" stroke-miterlimit="10" stroke-width="1.5"/>
    <line id="Line_1105" data-name="Line 1105" y1="2.587" x2="4.438" transform="translate(38.367 18.085)" fill="#fff"/>
    <line id="Line_1106" data-name="Line 1106" y1="2.587" x2="4.438" transform="translate(38.367 18.085)" fill="none" stroke="#fff" stroke-miterlimit="10" stroke-width="1.5"/>
    <line id="Line_1107" data-name="Line 1107" x1="4.969" y1="1.309" transform="translate(21.195 21.341)" fill="#fff"/>
    <line id="Line_1108" data-name="Line 1108" x1="4.969" y1="1.309" transform="translate(21.195 21.341)" fill="none" stroke="#fff" stroke-miterlimit="10" stroke-width="1.5"/>
    <line id="Line_1109" data-name="Line 1109" x1="4.438" y2="2.587" transform="translate(21.642 27.82)" fill="#fff"/>
    <line id="Line_1110" data-name="Line 1110" x1="4.438" y2="2.587" transform="translate(21.642 27.82)" fill="none" stroke="#fff" stroke-miterlimit="10" stroke-width="1.5"/>
    <path id="Path_1087" data-name="Path 1087" d="M55.912,60.5a4.051,4.051,0,0,1-3.557.242c-6.538-2.689-10.01-5.222-11.965-7.38a32.943,32.943,0,0,0-6.44-4.834,2.922,2.922,0,0,1-.974-4.221,3.008,3.008,0,0,1,3.934-.821l6.308,3.524L32.052,27.669a3.007,3.007,0,0,1,.765-3.946,2.923,2.923,0,0,1,4.234.914L42.9,34.761a2.923,2.923,0,0,1,1.325-4.124,3.008,3.008,0,0,1,3.8,1.311l1.033,1.789a2.923,2.923,0,0,1,1.325-4.123,3.009,3.009,0,0,1,3.8,1.31l1.033,1.79a2.923,2.923,0,0,1,1.325-4.124,3.008,3.008,0,0,1,3.8,1.311l4.837,8.377a16.269,16.269,0,0,1,2.15,7.154l.376,6.2a3.224,3.224,0,0,1-1.605,2.986Z" transform="translate(-2.056 -1.507)" fill="#fff"/>
    <line id="Line_1111" data-name="Line 1111" x2="2.405" y2="4.164" transform="translate(40.839 33.254)" fill="#fff"/>
    <line id="Line_1112" data-name="Line 1112" x2="1.491" y2="2.582" transform="translate(46.997 32.23)" fill="#fff"/>
    <line id="Line_1113" data-name="Line 1113" x2="1.4" y2="2.424" transform="translate(53.155 31.206)" fill="#fff"/>
    <rect id="Rectangle_1618" data-name="Rectangle 1618" width="19.134" height="7.337" transform="translate(50.221 60.517) rotate(-29.999)" fill="#a652ff"/>
  </g>
</svg>
