<svg xmlns="http://www.w3.org/2000/svg" xmlns:xlink="http://www.w3.org/1999/xlink" width="102.611" height="102.611" viewBox="0 0 102.611 102.611">
  <defs>
    <clipPath id="clip-path">
      <rect id="Rectangle_1559" data-name="Rectangle 1559" width="50.886" height="94.228" fill="#a652ff"/>
    </clipPath>
  </defs>
  <g id="Group_18042" data-name="Group 18042" transform="translate(0 35.982) rotate(-45)">
    <rect id="Rectangle_1558" data-name="Rectangle 1558" width="15.569" height="33.894" transform="translate(17.701 60.334)" fill="#a652ff"/>
    <path id="Path_744" data-name="Path 744" d="M52.68,52.68l.005.029.014.048.01-.053.01-.019V52.68Z" transform="translate(-27.235 -27.234)" fill="#48ed0a"/>
    <g id="Group_79" data-name="Group 79">
      <g id="Group_78" data-name="Group 78" clip-path="url(#clip-path)">
        <path id="Path_745" data-name="Path 745" d="M50.886,76.824v15.94a33.373,33.373,0,0,1-25.4-11.81A33.377,33.377,0,0,1,0,92.764V76.824A17.533,17.533,0,0,0,17.514,59.31h15.94A17.538,17.538,0,0,0,50.886,76.824" transform="translate(0 -30.662)" fill="#fff"/>
        <path id="Path_746" data-name="Path 746" d="M52.628,0V16.7c-.2-.014-.4-.019-.6-.019s-.406,0-.6.019V0Z" transform="translate(-26.583)" fill="#19c8ff"/>
        <path id="Path_747" data-name="Path 747" d="M52.68,52.68h.039v0l-.01.019-.01,0Z" transform="translate(-27.235 -27.235)" fill="#a652ff"/>
        <path id="Path_748" data-name="Path 748" d="M69.466,23.294l-5.69,7.294a7.924,7.924,0,0,0-.956-.744l5.695-7.294Z" transform="translate(-32.477 -11.658)" fill="#19c8ff"/>
        <path id="Path_749" data-name="Path 749" d="M52.68,52.68h.039v0l-.01.019-.01.053-.014-.048Z" transform="translate(-27.235 -27.235)" fill="#a652ff"/>
        <path id="Path_750" data-name="Path 750" d="M86.3,39.169l-16.152,4.27a7.3,7.3,0,0,0-.309-1.169L85.992,38Z" transform="translate(-36.106 -19.645)" fill="#19c8ff"/>
        <path id="Path_751" data-name="Path 751" d="M29.812,22.55l5.675,7.274a8.227,8.227,0,0,0-.952.739L28.86,23.294Z" transform="translate(-14.92 -11.658)" fill="#19c8ff"/>
        <path id="Path_752" data-name="Path 752" d="M52.719,52.68v0L52.7,52.7l-.014.01,0-.029Z" transform="translate(-27.235 -27.235)" fill="#a652ff"/>
        <path id="Path_753" data-name="Path 753" d="M1.829,38l16.109,4.26a7.845,7.845,0,0,0-.309,1.169L1.52,39.169Z" transform="translate(-0.786 -19.645)" fill="#19c8ff"/>
        <path id="Path_754" data-name="Path 754" d="M52.719,52.68v0l-.01.019-.01.053-.014-.048,0-.029Z" transform="translate(-27.235 -27.235)" fill="#a652ff"/>
      </g>
    </g>
  </g>
</svg>
