<svg id="Group_18281" data-name="Group 18281" xmlns="http://www.w3.org/2000/svg" xmlns:xlink="http://www.w3.org/1999/xlink" width="300.849" height="285.254" viewBox="0 0 300.849 285.254">
  <defs>
    <clipPath id="clip-path">
      <rect id="Rectangle_10582" data-name="Rectangle 10582" width="300.849" height="285.254" fill="none"/>
    </clipPath>
  </defs>
  <g id="Group_18105" data-name="Group 18105" clip-path="url(#clip-path)">
    <path id="Path_30369" data-name="Path 30369" d="M300.849,155.456v23.383H0V155.456a7.984,7.984,0,0,1,7.986-7.986H292.863a7.984,7.984,0,0,1,7.986,7.986" transform="translate(0 -57.842)" fill="#1c0456"/>
    <path id="Path_30370" data-name="Path 30370" d="M300.849,199.084V355.355a7.984,7.984,0,0,1-7.986,7.986H7.986A7.984,7.984,0,0,1,0,355.355V199.084Z" transform="translate(0 -78.086)" fill="#5b2ec7"/>
    <path id="Path_30371" data-name="Path 30371" d="M27.028,170.205a4.76,4.76,0,1,0,4.76-4.76,4.76,4.76,0,0,0-4.76,4.76" transform="translate(-10.601 -64.892)" fill="#a252fb"/>
    <path id="Path_30372" data-name="Path 30372" d="M53.514,170.205a4.76,4.76,0,1,0,4.76-4.76,4.76,4.76,0,0,0-4.76,4.76" transform="translate(-20.99 -64.892)" fill="#a252fb"/>
    <path id="Path_30373" data-name="Path 30373" d="M81.468,170.205a4.76,4.76,0,1,0,4.76-4.76,4.76,4.76,0,0,0-4.76,4.76" transform="translate(-31.954 -64.892)" fill="#a252fb"/>
    <rect id="Rectangle_10562" data-name="Rectangle 10562" width="31.534" height="90.006" transform="translate(226.855 63.591)" fill="#a152fa"/>
    <rect id="Rectangle_10563" data-name="Rectangle 10563" width="31.534" height="63.674" transform="translate(226.855 153.597)" fill="#d8cdff"/>
    <rect id="Rectangle_10564" data-name="Rectangle 10564" width="31.534" height="67.983" transform="translate(226.855 217.271)" fill="#9174d9"/>
    <rect id="Rectangle_10565" data-name="Rectangle 10565" width="31.534" height="90.006" transform="translate(36.28 63.591)" fill="#15c4fa"/>
    <rect id="Rectangle_10566" data-name="Rectangle 10566" width="31.534" height="63.674" transform="translate(36.28 153.597)" fill="#fff"/>
    <rect id="Rectangle_10567" data-name="Rectangle 10567" width="31.534" height="67.983" transform="translate(36.28 217.271)" fill="#1c0456"/>
    <path id="Path_30374" data-name="Path 30374" d="M405.38,62.432h-13.69a1.575,1.575,0,0,0-1.338.743L385.728,70.6a.93.93,0,0,1-1.614-.06l-3.8-7.262a1.576,1.576,0,0,0-1.4-.845H364.193a1.462,1.462,0,0,1-1.462-1.462V34.1a1.462,1.462,0,0,1,1.462-1.462H405.38a1.462,1.462,0,0,1,1.462,1.462V60.97a1.462,1.462,0,0,1-1.462,1.462" transform="translate(-142.273 -12.803)" fill="#a152fa"/>
    <path id="Path_30375" data-name="Path 30375" d="M403.243,49.353a11.908,11.908,0,1,1-11.908-11.908,11.908,11.908,0,0,1,11.908,11.908" transform="translate(-148.822 -14.687)" fill="#fff"/>
    <path id="Path_30376" data-name="Path 30376" d="M400.572,53.074a4.87,4.87,0,0,1-8.776.176l.6-4.464s5.887.536,7.314-.267Z" transform="translate(-153.674 -19.031)" fill="#ff9945"/>
    <path id="Path_30377" data-name="Path 30377" d="M400.322,50.706v0l-.867-4.556c-1.427.8-7.313.267-7.313.267l-.6,4.463c-.952-3.831.149-5.088.149-5.088a5.073,5.073,0,0,1-.135-.743,2.042,2.042,0,0,1,1.853-2.43c6.455-.817,6.681,2.266,6.707,2.271h0c.408.208.591.8.65,1.531a17.8,17.8,0,0,1-.448,4.282" transform="translate(-153.423 -16.664)" fill="#160c66"/>
    <path id="Path_30378" data-name="Path 30378" d="M400.1,62.74l-1.8,3.634-1.908-3.653a25.167,25.167,0,0,1,3.711.019" transform="translate(-155.474 -24.578)" fill="#ede8f5"/>
    <path id="Path_30379" data-name="Path 30379" d="M400.081,61.77l-1.745,3.517-1.842-3.526c.46-.046.971-.076,1.547-.085a16.07,16.07,0,0,1,2.04.094" transform="translate(-155.516 -24.19)" fill="#ff9945"/>
    <path id="Path_30380" data-name="Path 30380" d="M402.927,65.9a11.909,11.909,0,0,1-18.817.895,8.791,8.791,0,0,1,3.483-3.628,11.874,11.874,0,0,1,2.5-.942l-.78,1.047a.64.64,0,0,0,.317.991l3.846,1.237,3.89-1.2a.538.538,0,0,0,.263-.847l-.974-1.237a11.541,11.541,0,0,1,3.332,1.222,10.882,10.882,0,0,1,2.937,2.466" transform="translate(-150.659 -24.401)" fill="#321688"/>
    <path id="Path_30381" data-name="Path 30381" d="M396.756,65.344l-3.846-1.237a.64.64,0,0,1-.317-.991l.78-1.047a11.76,11.76,0,0,1,1.541-.25Z" transform="translate(-153.936 -24.247)" fill="#5e2cbe"/>
    <path id="Path_30382" data-name="Path 30382" d="M403.416,64.146l-3.89,1.2,1.745-3.517c.517.057,1,.137,1.434.23l.974,1.237a.538.538,0,0,1-.264.847" transform="translate(-156.706 -24.252)" fill="#5e2cbe"/>
    <path id="Path_30383" data-name="Path 30383" d="M389.441,71.267c-.022.283-.039.6-.053.915q-.176-.093-.349-.192l-.444-3.221a4.005,4.005,0,0,1,.846,2.5" transform="translate(-152.418 -26.974)" fill="#1c0456"/>
    <path id="Path_30384" data-name="Path 30384" d="M409.206,67.963l-.472,3.628h0q-.14.083-.284.162c-.023-.936-.047-1.956-.047-2.186a5.278,5.278,0,0,1,.8-1.605" transform="translate(-160.187 -26.657)" fill="#1c0456"/>
    <path id="Path_30385" data-name="Path 30385" d="M167.265,29.792h-13.69a1.575,1.575,0,0,0-1.338.743l-4.624,7.424A.93.93,0,0,1,146,37.9l-3.8-7.262a1.576,1.576,0,0,0-1.4-.845H126.078a1.462,1.462,0,0,1-1.462-1.462V1.463A1.462,1.462,0,0,1,126.078,0h41.187a1.462,1.462,0,0,1,1.462,1.462V28.33a1.462,1.462,0,0,1-1.462,1.462" transform="translate(-48.878 0)" fill="#5b2ec7"/>
    <rect id="Rectangle_10568" data-name="Rectangle 10568" width="31.534" height="72.443" transform="translate(177.097 106.844)" fill="#15c4fa"/>
    <rect id="Rectangle_10569" data-name="Rectangle 10569" width="31.534" height="38.7" transform="translate(177.097 157.252)" fill="#fff"/>
    <rect id="Rectangle_10570" data-name="Rectangle 10570" width="31.534" height="54.718" transform="translate(177.097 230.536)" fill="#1c0456"/>
    <rect id="Rectangle_10571" data-name="Rectangle 10571" width="31.534" height="39.89" transform="translate(177.097 195.413)" fill="#c1aaff"/>
    <path id="Path_30386" data-name="Path 30386" d="M323.511,129.854H309.82a1.575,1.575,0,0,0-1.338.743l-4.624,7.424a.93.93,0,0,1-1.614-.06l-3.8-7.262a1.576,1.576,0,0,0-1.4-.845H282.324a1.462,1.462,0,0,1-1.462-1.462V101.525a1.462,1.462,0,0,1,1.462-1.462h41.187a1.462,1.462,0,0,1,1.462,1.462v26.867a1.462,1.462,0,0,1-1.462,1.462" transform="translate(-110.162 -39.248)" fill="#15c4fa"/>
    <path id="Path_30387" data-name="Path 30387" d="M321.512,117.116a12.3,12.3,0,1,1-12.3-12.3,12.3,12.3,0,0,1,12.3,12.3" transform="translate(-116.458 -41.112)" fill="#fff"/>
    <path id="Path_30388" data-name="Path 30388" d="M319.582,138.161a12.3,12.3,0,0,1-17.49-.826c2.037-1.274,6.726-1.914,6.726-1.914a3.819,3.819,0,0,0,3.5,2.477c3.633,0,1.321-2.309,1.321-2.309l.69.231.3.1,3.3,1.027a5.225,5.225,0,0,1,1.648,1.215" transform="translate(-118.489 -53.116)" fill="#321688"/>
    <path id="Path_30389" data-name="Path 30389" d="M318.843,116.975a1.652,1.652,0,0,1-1.651,1.651v-1.361a1.9,1.9,0,0,0-.363-1.123,1.955,1.955,0,0,0-1.579-.819h-2.392a1.872,1.872,0,0,0-.723.142,1.9,1.9,0,0,0-.571.36,1.941,1.941,0,0,0-.638,1.239.122.122,0,0,0,0,.036,1.317,1.317,0,0,0-.01.165v1.814c-.148-.212-.895-1.209-1.486-.617,0,0-1.12.816-.2,1.615a1.816,1.816,0,0,1-.809-3.164,1.98,1.98,0,0,1-.476-1.3,1.881,1.881,0,0,1,1.817-1.939,1.676,1.676,0,0,1,.588.106,2.315,2.315,0,0,1-.093-.644A2.545,2.545,0,0,1,312.9,110.7a2.6,2.6,0,0,1,2.58,1.906,1.981,1.981,0,0,1,2.6,2.979,1.644,1.644,0,0,1,.763,1.391" transform="translate(-120.719 -43.419)"/>
    <path id="Path_30390" data-name="Path 30390" d="M317.894,120.249v2.759a2.243,2.243,0,0,1-2.237,2.235h-2.1a1.947,1.947,0,0,1-1.936-1.813l-.007.387a4.368,4.368,0,0,1-1.688-.757c-.918-.8.2-1.615.2-1.615.591-.591,1.337.407,1.486.618v-1.814a1.342,1.342,0,0,1,.01-.165.076.076,0,0,0,.016-.019.04.04,0,0,0-.016-.017,1.947,1.947,0,0,1,.638-1.239,1.906,1.906,0,0,1,.571-.36,1.878,1.878,0,0,1,.724-.142h2.39a1.956,1.956,0,0,1,1.943,1.942" transform="translate(-121.421 -46.403)" fill="#df792b"/>
    <path id="Path_30391" data-name="Path 30391" d="M318.352,140.9a12.372,12.372,0,0,1-7.1-.021l.7-5.356a3.254,3.254,0,0,1,.523-.133c1.279.033,5.02.277,5.02.277l.363.122Z" transform="translate(-122.081 -53.102)" fill="#b996f9"/>
    <path id="Path_30392" data-name="Path 30392" d="M316.659,137.9a3.819,3.819,0,0,1-3.5-2.477l4.823.168s2.312,2.312-1.321,2.309" transform="translate(-122.829 -53.116)" fill="#df792b"/>
    <path id="Path_30393" data-name="Path 30393" d="M313.158,132.972l.859-3.8,2.643.134,2.032,5.04" transform="translate(-122.829 -50.667)" fill="#df792b"/>
    <path id="Path_30394" data-name="Path 30394" d="M319.285,123.364a3.2,3.2,0,1,1-3.177-3.613,3.417,3.417,0,0,1,3.177,3.613" transform="translate(-122.74 -46.97)" fill="#df792b"/>
    <path id="Path_30395" data-name="Path 30395" d="M310.494,136.15l-.686,5a12.143,12.143,0,0,1-2.072-.859Z" transform="translate(-120.703 -53.402)" fill="#5b2ec9"/>
    <path id="Path_30396" data-name="Path 30396" d="M324.662,140.549a12.16,12.16,0,0,1-1.861.743l-.469-4.814Z" transform="translate(-126.428 -53.531)" fill="#5b2ec9"/>
    <rect id="Rectangle_10572" data-name="Rectangle 10572" width="31.534" height="23.416" transform="translate(128.966 133.836)" fill="#1c0456"/>
    <rect id="Rectangle_10573" data-name="Rectangle 10573" width="31.534" height="52.211" transform="translate(128.966 157.252)" fill="#380f91"/>
    <rect id="Rectangle_10574" data-name="Rectangle 10574" width="31.534" height="10.275" transform="translate(128.966 274.979)" fill="#ece7f4"/>
    <rect id="Rectangle_10575" data-name="Rectangle 10575" width="31.534" height="65.973" transform="translate(128.966 209.006)" fill="#bd8fff"/>
    <rect id="Rectangle_10576" data-name="Rectangle 10576" width="31.534" height="32.196" transform="translate(82.135 43.102)" fill="#5b2ec7"/>
    <rect id="Rectangle_10577" data-name="Rectangle 10577" width="31.534" height="85.981" transform="translate(82.135 75.298)" fill="#d8cdff"/>
    <rect id="Rectangle_10578" data-name="Rectangle 10578" width="31.534" height="75.962" transform="translate(82.135 209.292)" fill="#ece7f4"/>
    <rect id="Rectangle_10579" data-name="Rectangle 10579" width="31.534" height="55.377" transform="translate(82.135 160.532)" fill="#a152fa"/>
    <rect id="Rectangle_10580" data-name="Rectangle 10580" width="31.534" height="31.518" transform="translate(82.135 129.636)" fill="#380f91"/>
    <path id="Path_30397" data-name="Path 30397" d="M164.928,17.518A11.346,11.346,0,1,1,153.582,6.172a11.346,11.346,0,0,1,11.346,11.346" transform="translate(-55.789 -2.421)" fill="#fff"/>
    <path id="Path_30398" data-name="Path 30398" d="M154.425,17.6s-1.686,5.021,1.514,7.654c0,0,2.877.712,3.615-1.2l.032-.716s1.251-1.538.4-2.327c0,0-5.667-2.956-5.563-3.407" transform="translate(-60.396 -6.905)" fill="#ff9945"/>
    <path id="Path_30399" data-name="Path 30399" d="M154.566,30.869s1.966-.432,1.966-2.167c0,0,2.731.47,3.283-.882a3.893,3.893,0,0,0,3.081,3.754s-7.4,1.029-8.329-.7" transform="translate(-60.625 -10.912)" fill="#ff9945"/>
    <path id="Path_30400" data-name="Path 30400" d="M163.2,36.594a11.343,11.343,0,0,1-14.962-.387c1.08-1.683,2.541-3.355,3.755-3.625,1.764,1.763,6.614.881,8.377.881a4.218,4.218,0,0,1,2.83,3.131" transform="translate(-58.142 -12.78)" fill="#9f52f8"/>
    <path id="Path_30401" data-name="Path 30401" d="M162.83,27.75a11.345,11.345,0,0,1-2.334,1.892c-.115.037-.184.051-.184.051L158.9,25.706a3.85,3.85,0,0,1-2.905-4.433c1.479-1.9,0-2.322,0-2.322-1.783-.234-4.839-2.966-4.839-2.966-.822.427-.63,2.359-.63,2.359,0,3.872,1.817,4.463,1.817,4.463.626.782,2.441,6.1.948,7.584a3.871,3.871,0,0,1-.958.686,11.357,11.357,0,0,1-7.532-5.385c.735-2.612,4.1-3.61,4.1-3.61-1.271-2.9.706-6.524.706-6.524,3.421-5.075,7.815-2.537,7.815-2.537,6.162,3.622,2.861,8.227,2.861,8.227,2.5.251,3,3.734,3,3.734a4.671,4.671,0,0,1-.448,2.768" transform="translate(-56.794 -4.858)" fill="#1c0456"/>
    <rect id="Rectangle_10581" data-name="Rectangle 10581" width="31.534" height="13.268" transform="translate(36.28 50.322)" fill="#5b2ec7"/>
  </g>
</svg>
