<svg xmlns="http://www.w3.org/2000/svg" xmlns:xlink="http://www.w3.org/1999/xlink" width="362.898" height="305.652" viewBox="0 0 362.898 305.652">
  <defs>
    <linearGradient id="linear-gradient" x1="0.468" x2="0.484" y2="0.932" gradientUnits="objectBoundingBox">
      <stop offset="0" stop-color="#15c6fc" stop-opacity="0"/>
      <stop offset="0.463" stop-color="#00c3ff" stop-opacity="0.149"/>
      <stop offset="1" stop-color="#96e7ff"/>
    </linearGradient>
    <clipPath id="clip-path">
      <rect id="Rectangle_10488" data-name="Rectangle 10488" width="343.763" height="305.652" fill="none"/>
    </clipPath>
    <clipPath id="clip-path-2">
      <rect id="Rectangle_10487" data-name="Rectangle 10487" width="342.778" height="133.318" fill="none"/>
    </clipPath>
    <clipPath id="clip-path-3">
      <rect id="Rectangle_10489" data-name="Rectangle 10489" width="78.894" height="45.385" fill="none"/>
    </clipPath>
    <clipPath id="clip-path-4">
      <rect id="Rectangle_10490" data-name="Rectangle 10490" width="78.541" height="45.385" fill="none"/>
    </clipPath>
    <clipPath id="clip-path-5">
      <rect id="Rectangle_10491" data-name="Rectangle 10491" width="90.693" height="51.404" fill="none"/>
    </clipPath>
    <clipPath id="clip-path-6">
      <rect id="Rectangle_10492" data-name="Rectangle 10492" width="65.319" height="33.56" fill="none"/>
    </clipPath>
    <clipPath id="clip-path-7">
      <rect id="Rectangle_10712" data-name="Rectangle 10712" width="120.949" height="132.506" fill="none"/>
    </clipPath>
  </defs>
  <g id="Group_18332" data-name="Group 18332" transform="translate(-42 -5702.031)">
    <g id="Group_18282" data-name="Group 18282" transform="translate(-1152 2764.031)">
      <path id="Path_31522" data-name="Path 31522" d="M0,0H107.943V224.586H0Z" transform="translate(1311.068 2993.336)" fill="url(#linear-gradient)"/>
      <g id="Group_18021" data-name="Group 18021" transform="translate(1194 2938)">
        <g id="Group_18329" data-name="Group 18329">
          <g id="Group_17997" data-name="Group 17997">
            <g id="Group_17996" data-name="Group 17996" clip-path="url(#clip-path)">
              <g id="Group_17995" data-name="Group 17995" transform="translate(0 172.334)" opacity="0.3">
                <g id="Group_17994" data-name="Group 17994">
                  <g id="Group_17993" data-name="Group 17993" clip-path="url(#clip-path-2)">
                    <path id="Path_29539" data-name="Path 29539" d="M342.778,317.234,176.493,414.084l52.4,30.522H218.688l-47.3-27.549-47.3,27.549H113.882l52.4-30.522L0,317.234v-5.945l171.389,99.824,171.389-99.824Z" transform="translate(0 -311.288)" fill="#1c0456"/>
                    <path id="Path_29540" data-name="Path 29540" d="M524.937,427.86v2L408.076,366.736v-2Z" transform="translate(-182.158 -335.145)" fill="#1c0456"/>
                    <path id="Path_29541" data-name="Path 29541" d="M596.507,522.8v2.033l-24.573,14.189h-3.523Z" transform="translate(-253.729 -405.703)" fill="#1c0456"/>
                    <path id="Path_29542" data-name="Path 29542" d="M28.656,538.795h-3.53L0,524.326v-2.034Z" transform="translate(0 -405.477)" fill="#1c0456"/>
                    <path id="Path_29543" data-name="Path 29543" d="M117,364.383v2L0,429.409v-2Z" transform="translate(0 -334.989)" fill="#1c0456"/>
                  </g>
                </g>
              </g>
            </g>
          </g>
          <path id="Path_29544" data-name="Path 29544" d="M131.992,478.968,158.93,494.48H302.013l26.611-15.365-98.316-56.1Z" transform="translate(-58.919 -188.828)" fill="#321688"/>
          <g id="Group_18019" data-name="Group 18019">
            <g id="Group_18328" data-name="Group 18328">
              <g id="Group_18000" data-name="Group 18000" transform="translate(73.073 260.268)" opacity="0.2">
                <g id="Group_17999" data-name="Group 17999">
                  <g id="Group_17998" data-name="Group 17998" clip-path="url(#clip-path-3)">
                    <path id="Path_29545" data-name="Path 29545" d="M210.886,515.507H159.194l-27.2-15.585v-29.8Z" transform="translate(-131.992 -470.123)" fill="#15c4fa"/>
                  </g>
                </g>
              </g>
              <g id="Group_18003" data-name="Group 18003" transform="translate(191.091 260.268)" opacity="0.2">
                <g id="Group_18002" data-name="Group 18002">
                  <g id="Group_18001" data-name="Group 18001" clip-path="url(#clip-path-4)">
                    <path id="Path_29546" data-name="Path 29546" d="M423.709,470.123v29.8l-27,15.585h-51.54Z" transform="translate(-345.168 -470.123)" fill="#15c4fa"/>
                  </g>
                </g>
              </g>
              <path id="Path_29547" data-name="Path 29547" d="M423.737,469.99v16.2l-50.718,29.259h-9.961l28.292-16.321a3.048,3.048,0,0,0,1.524-2.638v-.4a1.4,1.4,0,0,0-2.095-1.21l-32.9,19.01a2.535,2.535,0,0,0-1.184,1.555H345.065Z" transform="translate(-154.031 -209.796)" fill="#321688"/>
              <path id="Path_29548" data-name="Path 29548" d="M328.625,424.758l-78.732,45.458H211.187l-79.194-45.6,98.316-55.951Z" transform="translate(-58.919 -164.564)" fill="#5b2eca"/>
              <path id="Path_29549" data-name="Path 29549" d="M211.187,515.33h-28.05l-51.145-29.406v-16.2Z" transform="translate(-58.919 -209.677)" fill="#1c0456"/>
              <path id="Path_29550" data-name="Path 29550" d="M402.251,516.012v.4a3.048,3.048,0,0,1-1.524,2.638l-28.292,16.321h-6.36a2.533,2.533,0,0,1,1.185-1.555l32.9-19.01a1.4,1.4,0,0,1,2.095,1.21" transform="translate(-163.41 -229.715)" fill="#15c4fa"/>
              <path id="Path_29551" data-name="Path 29551" d="M320.109,406.474v29.958q0,.658-.048,1.31c-1.193,16.662-25.049,29.958-54.3,29.958s-53.11-13.3-54.3-29.958q-.047-.651-.047-1.31V406.474c0,5.427,2.4,10.531,6.632,14.979,9.225,9.706,27.134,16.289,47.719,16.289s38.494-6.583,47.719-16.289c4.228-4.448,6.632-9.552,6.632-14.979" transform="translate(-94.369 -181.443)" fill="#1c0456"/>
              <path id="Path_29552" data-name="Path 29552" d="M362.657,476.387v7.864a3.645,3.645,0,0,1-2.047,3.276,1.883,1.883,0,0,1-2.708-1.692V478.32Z" transform="translate(-159.761 -212.651)" fill="#a252fb"/>
              <path id="Path_29553" data-name="Path 29553" d="M362.657,463.531v6.255L357.9,471.72v-6.758a3.522,3.522,0,0,1,1.978-3.165,1.929,1.929,0,0,1,2.778,1.735" transform="translate(-159.761 -206.05)" fill="#fff"/>
              <path id="Path_29554" data-name="Path 29554" d="M381.643,460.907v11.912a3.574,3.574,0,0,1-1.762,3.08,1.448,1.448,0,0,1-2.182-1.248V463.313Z" transform="translate(-168.599 -205.741)" fill="#a252fb"/>
              <path id="Path_29555" data-name="Path 29555" d="M381.643,454.662v2.826l-3.943,2.405v-3.282a3.674,3.674,0,0,1,1.811-3.168,1.4,1.4,0,0,1,.715-.2,1.416,1.416,0,0,1,1.417,1.416" transform="translate(-168.599 -202.321)" fill="#fff"/>
              <path id="Path_29556" data-name="Path 29556" d="M395.962,465.977v3.547a3.614,3.614,0,0,1-1.439,2.888,1.02,1.02,0,0,1-1.634-.814v-3.073Z" transform="translate(-175.379 -208.004)" fill="#a252fb"/>
              <path id="Path_29557" data-name="Path 29557" d="M395.962,442.733V455.3l-3.074,2.548V446.238a5.053,5.053,0,0,1,2.01-4.035.653.653,0,0,1,.4-.135.664.664,0,0,1,.667.665" transform="translate(-175.379 -197.332)" fill="#fff"/>
              <path id="Path_29558" data-name="Path 29558" d="M255.811,483.2v4.9a1.886,1.886,0,0,1-2.573,1.757,3.427,3.427,0,0,1-2.183-3.194v-5.51Z" transform="translate(-112.067 -214.777)" fill="#a252fb"/>
              <path id="Path_29559" data-name="Path 29559" d="M255.811,465.433v8.951l-4.756-2.046v-9.4a1.525,1.525,0,0,1,2.08-1.421h0a4.2,4.2,0,0,1,2.675,3.916" transform="translate(-112.067 -205.966)" fill="#fff"/>
              <path id="Path_29560" data-name="Path 29560" d="M236.411,459.816v13.219a1.419,1.419,0,0,1-2.131,1.227,3.755,3.755,0,0,1-1.871-3.246V456.872Z" transform="translate(-103.743 -203.94)" fill="#a252fb"/>
              <path id="Path_29561" data-name="Path 29561" d="M236.411,456.6v1.418l-4-2.944v-.942a1.29,1.29,0,0,1,1.937-1.116,4.143,4.143,0,0,1,2.064,3.582" transform="translate(-103.743 -202.139)" fill="#fff"/>
              <path id="Path_29562" data-name="Path 29562" d="M221.749,452.826v11.742a.956.956,0,0,1-1.626.683,4.443,4.443,0,0,1-1.331-3.171v-11.6Z" transform="translate(-97.665 -201.088)" fill="#a252fb"/>
              <path id="Path_29563" data-name="Path 29563" d="M221.749,445.509v3.457l-2.957-2.344v-3.889a.9.9,0,0,1,1.522-.641,4.788,4.788,0,0,1,1.435,3.416" transform="translate(-97.665 -197.228)" fill="#fff"/>
              <path id="Path_29564" data-name="Path 29564" d="M320.109,381.262c0,5.427-2.4,10.531-6.632,14.979-9.225,9.706-27.134,16.289-47.719,16.289s-38.494-6.583-47.719-16.289c-4.229-4.448-6.632-9.552-6.632-14.979,0-17.27,24.333-31.268,54.351-31.268s54.351,14,54.351,31.268" transform="translate(-94.369 -156.231)" fill="#5e2cbe"/>
              <g id="Group_18006" data-name="Group 18006" transform="translate(126.043 198.674)" opacity="0.15">
                <g id="Group_18005" data-name="Group 18005">
                  <g id="Group_18004" data-name="Group 18004" clip-path="url(#clip-path-5)">
                    <path id="Path_29565" data-name="Path 29565" d="M318.364,384.567c0,14.195-20.3,25.7-45.347,25.7s-45.347-11.508-45.347-25.7,20.3-25.7,45.347-25.7,45.347,11.508,45.347,25.7" transform="translate(-227.671 -358.865)" fill="#fff"/>
                  </g>
                </g>
              </g>
              <g id="Group_18009" data-name="Group 18009" transform="translate(138.73 207.596)" opacity="0.25">
                <g id="Group_18008" data-name="Group 18008">
                  <g id="Group_18007" data-name="Group 18007" clip-path="url(#clip-path-6)">
                    <path id="Path_29566" data-name="Path 29566" d="M315.907,391.761c0,9.268-14.622,16.78-32.66,16.78s-32.659-7.513-32.659-16.78,14.622-16.78,32.659-16.78,32.66,7.513,32.66,16.78" transform="translate(-250.588 -374.981)" fill="#fff"/>
                  </g>
                </g>
              </g>
              <path id="Path_29567" data-name="Path 29567" d="M318.375,238.226a16.4,16.4,0,0,1-2.078,7.881,26.849,26.849,0,0,1-8.577,9.03c-8.328,5.723-20.8,9.358-34.741,9.358s-26.414-3.635-34.741-9.358a26.844,26.844,0,0,1-8.577-9.03,16.389,16.389,0,0,1-2.078-7.881c0-.164,0-.328.008-.493.453-14.282,20.6-25.776,45.388-25.776s44.935,11.494,45.388,25.776c0,.164.008.328.008.493" transform="translate(-101.589 -94.614)" fill="#efeaf7"/>
              <path id="Path_29568" data-name="Path 29568" d="M318.375,274.921c0,14.509-20.324,26.269-45.4,26.269s-45.4-11.76-45.4-26.269a15.372,15.372,0,0,1,.1-1.724c1.535,13.706,21.228,24.545,45.3,24.545s43.765-10.839,45.3-24.545a15.38,15.38,0,0,1,.1,1.724" transform="translate(-101.589 -121.951)" fill="#1c0456"/>
              <path id="Path_29569" data-name="Path 29569" d="M318.375,259.407v9.358a15.381,15.381,0,0,0-.1-1.724c-1.535,13.706-21.229,24.545-45.3,24.545s-43.764-10.839-45.3-24.545a15.374,15.374,0,0,0-.1,1.724v-9.358a15.589,15.589,0,0,0,.284,2.955,16.1,16.1,0,0,0,.433,1.726,17.748,17.748,0,0,0,1.361,3.2,26.843,26.843,0,0,0,8.577,9.03c8.327,5.723,20.8,9.358,34.741,9.358s26.414-3.635,34.741-9.358a26.849,26.849,0,0,0,8.577-9.03,17.741,17.741,0,0,0,1.361-3.2,16.339,16.339,0,0,0,.434-1.726,15.587,15.587,0,0,0,.284-2.955" transform="translate(-101.589 -115.795)" fill="#5e2cbe"/>
              <path id="Path_29570" data-name="Path 29570" d="M318.375,276.311v6.4c0,.386-.015.768-.043,1.149-1.041,13.975-20.948,25.12-45.354,25.12s-44.313-11.145-45.353-25.12q-.042-.571-.043-1.149v-6.4c0,14.509,20.324,26.269,45.4,26.269s45.4-11.76,45.4-26.269" transform="translate(-101.589 -123.341)" fill="#5e2cbe"/>
              <path id="Path_29571" data-name="Path 29571" d="M316.052,245.772c0,9.339-14.959,16.911-33.411,16.911s-33.411-7.571-33.411-16.911,14.959-16.911,33.411-16.911,33.411,7.571,33.411,16.911" transform="translate(-111.252 -102.16)" fill="#15c4fa"/>
              <line id="Line_1558" data-name="Line 1558" y1="7.74" transform="translate(190.649 224.627)" fill="none" stroke="#fff" stroke-linecap="round" stroke-miterlimit="10" stroke-width="1.026"/>
              <line id="Line_1559" data-name="Line 1559" y1="16.1" transform="translate(190.649 181.317)" fill="none" stroke="#fff" stroke-linecap="round" stroke-miterlimit="10" stroke-width="1.026"/>
              <line id="Line_1560" data-name="Line 1560" y1="20.807" transform="translate(162.464 217.697)" fill="none" stroke="#fff" stroke-linecap="round" stroke-miterlimit="10" stroke-width="1.026"/>
              <line id="Line_1561" data-name="Line 1561" y1="27.795" transform="translate(147.804 199.23)" fill="none" stroke="#fff" stroke-linecap="round" stroke-miterlimit="10" stroke-width="1.026"/>
              <line id="Line_1562" data-name="Line 1562" y1="12.969" transform="translate(155.532 177.348)" fill="none" stroke="#fff" stroke-linecap="round" stroke-miterlimit="10" stroke-width="1.026"/>
              <line id="Line_1563" data-name="Line 1563" y1="10.664" transform="translate(139.167 211.815)" fill="none" stroke="#fff" stroke-linecap="round" stroke-miterlimit="10" stroke-width="1.026"/>
              <line id="Line_1564" data-name="Line 1564" y1="67.052" transform="translate(126.893 154.86)" fill="none" stroke="#fff" stroke-linecap="round" stroke-miterlimit="10" stroke-width="1.026"/>
              <line id="Line_1565" data-name="Line 1565" y1="44.55" transform="translate(139.053 99.626)" fill="none" stroke="#fff" stroke-linecap="round" stroke-miterlimit="10" stroke-width="1.026"/>
              <line id="Line_1566" data-name="Line 1566" y1="7.805" transform="translate(148.713 95.984)" fill="none" stroke="#fff" stroke-linecap="round" stroke-miterlimit="10" stroke-width="1.026"/>
              <line id="Line_1567" data-name="Line 1567" y1="7.805" transform="translate(177.703 58.51)" fill="none" stroke="#fff" stroke-linecap="round" stroke-miterlimit="10" stroke-width="1.026"/>
              <line id="Line_1569" data-name="Line 1569" y1="22.021" transform="translate(155.873 76.23)" fill="none" stroke="#fff" stroke-linecap="round" stroke-miterlimit="10" stroke-width="1.026"/>
              <line id="Line_1571" data-name="Line 1571" y1="8.904" transform="translate(196.786 83.634)" fill="none" stroke="#fff" stroke-linecap="round" stroke-miterlimit="10" stroke-width="1.026"/>
              <line id="Line_1572" data-name="Line 1572" y2="40.294" transform="translate(203.946 105.082)" fill="none" stroke="#fff" stroke-linecap="round" stroke-miterlimit="10" stroke-width="1.026"/>
              <line id="Line_1573" data-name="Line 1573" y2="11.251" transform="translate(169.624 148.95)" fill="none" stroke="#fff" stroke-linecap="round" stroke-miterlimit="10" stroke-width="1.026"/>
              <line id="Line_1574" data-name="Line 1574" y2="16.995" transform="translate(203.264 176.452)" fill="none" stroke="#fff" stroke-linecap="round" stroke-miterlimit="10" stroke-width="1.026"/>
              <line id="Line_1576" data-name="Line 1576" y2="19.394" transform="translate(203.264 203.085)" fill="none" stroke="#fff" stroke-linecap="round" stroke-miterlimit="10" stroke-width="1.026"/>
              <line id="Line_1577" data-name="Line 1577" y1="41.048" transform="translate(215.905 180.863)" fill="none" stroke="#fff" stroke-linecap="round" stroke-miterlimit="10" stroke-width="1.026"/>
              <path id="Path_29572" data-name="Path 29572" d="M128.578,319.584l-19.01-11.377c-1.473-.874-5.284-5.87-5.284-7.78l.147-49.764c0-1.91,4.5-3.545,6.752-2.177,5.285,3.2,21.014,12.3,21.014,12.3a6.4,6.4,0,0,1,2.667,5.041v49.863c0,3.23-4.231,5.064-6.286,3.89" transform="translate(-46.551 -110.694)" fill="#7c6fc1"/>
              <path id="Path_29573" data-name="Path 29573" d="M128.86,320.6l-21.819-12.937a6.4,6.4,0,0,1-2.668-5.041V252.265c0-1.91,1.195-2.75,2.668-1.877l21.819,12.937a6.4,6.4,0,0,1,2.668,5.041v50.362c0,1.91-1.195,2.75-2.668,1.877" transform="translate(-46.59 -111.615)" fill="#a295ef"/>
              <path id="Path_29574" data-name="Path 29574" d="M99.411,336.289,80.4,324.912c-1.473-.874-5.284-5.87-5.284-7.78l.147-49.763c0-1.91,4.5-3.545,6.752-2.177,5.285,3.2,21.014,12.3,21.014,12.3a6.4,6.4,0,0,1,2.667,5.041V332.4c0,3.23-4.231,5.065-6.286,3.89" transform="translate(-33.531 -118.151)" fill="#5d4ca5"/>
              <path id="Path_29575" data-name="Path 29575" d="M99.693,337.31,77.874,324.373a6.4,6.4,0,0,1-2.668-5.041V268.97c0-1.91,1.195-2.75,2.668-1.877L99.693,280.03a6.4,6.4,0,0,1,2.668,5.041v50.362c0,1.91-1.195,2.75-2.668,1.877" transform="translate(-33.571 -119.072)" fill="#8470e5"/>
              <path id="Path_29576" data-name="Path 29576" d="M71.039,354.584l-19.01-11.377c-1.473-.874-5.284-5.87-5.284-7.78l.147-49.764c0-1.91,4.5-3.545,6.752-2.177,5.285,3.2,21.014,12.3,21.014,12.3a6.4,6.4,0,0,1,2.667,5.041v49.863c0,3.23-4.231,5.064-6.286,3.89" transform="translate(-20.866 -126.318)" fill="#3b2c84"/>
              <path id="Path_29577" data-name="Path 29577" d="M71.321,355.6,49.5,342.668a6.4,6.4,0,0,1-2.668-5.041V287.265c0-1.91,1.195-2.75,2.668-1.877l21.819,12.937a6.4,6.4,0,0,1,2.668,5.041v50.362c0,1.91-1.195,2.75-2.668,1.877" transform="translate(-20.906 -127.238)" fill="#6c45d8"/>
              <path id="Path_29578" data-name="Path 29578" d="M43.2,371.024l-19.01-11.377c-1.473-.874-5.284-5.87-5.284-7.78L19.05,302.1c0-1.91,4.5-3.545,6.752-2.177,5.285,3.2,21.014,12.3,21.014,12.3a6.4,6.4,0,0,1,2.667,5.041v49.863c0,3.23-4.231,5.064-6.286,3.89" transform="translate(-8.438 -133.656)" fill="#1c0456"/>
              <path id="Path_29579" data-name="Path 29579" d="M43.479,372.045,21.66,359.108a6.4,6.4,0,0,1-2.668-5.041V303.705c0-1.91,1.195-2.75,2.668-1.877l21.819,12.937a6.4,6.4,0,0,1,2.668,5.041v50.362c0,1.91-1.195,2.75-2.668,1.877" transform="translate(-8.478 -134.577)" fill="#5b2eca"/>
              <path id="Path_29580" data-name="Path 29580" d="M44.384,390.308c0,3.265-2,4.725-4.474,3.26s-4.475-5.3-4.475-8.566,2-4.725,4.475-3.26,4.474,5.3,4.474,8.566" transform="translate(-15.818 -170.149)" fill="#fff"/>
              <path id="Path_29581" data-name="Path 29581" d="M43.875,391.916l-2.851,2.191L39.6,391.414l-.07-.136.783-.551.707,1.344,2.144-1.5Z" transform="translate(-17.645 -174.344)" fill="#5b2eca"/>
              <path id="Path_29582" data-name="Path 29582" d="M45.2,369.426,27.837,359.132V357.79L45.2,368.083Z" transform="translate(-12.426 -159.711)" fill="#8464d8"/>
              <path id="Path_29583" data-name="Path 29583" d="M45.2,360.434,27.837,350.14V348.8L45.2,359.092Z" transform="translate(-12.426 -155.698)" fill="#8464d8"/>
              <path id="Path_29584" data-name="Path 29584" d="M45.2,351.443,27.837,341.149v-1.342L45.2,350.1Z" transform="translate(-12.426 -151.684)" fill="#8464d8"/>
              <path id="Path_29585" data-name="Path 29585" d="M45.2,342.452,27.837,332.158v-1.342L45.2,341.11Z" transform="translate(-12.426 -147.671)" fill="#8464d8"/>
              <path id="Path_29586" data-name="Path 29586" d="M45.2,333.461,27.837,323.167v-1.342L45.2,332.119Z" transform="translate(-12.426 -143.657)" fill="#8464d8"/>
              <path id="Path_29587" data-name="Path 29587" d="M323.924,379.633,306.2,377.681l-7.644,17.891,17.4,2.44Z" transform="translate(-133.268 -168.59)" fill="#fff"/>
              <path id="Path_29588" data-name="Path 29588" d="M289.288,358l-7.482,18.054,9.271,10.735,7.644-17.891Z" transform="translate(-125.793 -159.804)" fill="#ea0091"/>
              <path id="Path_29589" data-name="Path 29589" d="M312.56,359.786l9.921,11.06-17.729-1.952L295.32,358Z" transform="translate(-131.826 -159.804)" fill="#15c4fa"/>
              <path id="Path_29590" data-name="Path 29590" d="M313.078,222.156H264.6a1.486,1.486,0,0,1-1.486-1.486V167.674a1.486,1.486,0,0,1,1.486-1.486h48.479a1.486,1.486,0,0,1,1.486,1.486v52.995a1.486,1.486,0,0,1-1.486,1.486" transform="translate(-117.449 -74.184)" fill="#5b2ec7"/>
              <path id="Path_29591" data-name="Path 29591" d="M328.35,185.466H301.47a.594.594,0,0,1-.594-.595V170.691a.594.594,0,0,1,.594-.594h26.88a.6.6,0,0,1,.595.594v14.181a.6.6,0,0,1-.595.595" transform="translate(-134.306 -75.928)" fill="#fff"/>
              <path id="Path_29592" data-name="Path 29592" d="M328.381,214.586H301.437a.562.562,0,0,1-.562-.562V200.333a.562.562,0,0,1,.562-.562h26.944a.562.562,0,0,1,.562.562v13.692a.562.562,0,0,1-.562.562" transform="translate(-134.306 -89.174)" fill="#fff"/>
              <path id="Path_29593" data-name="Path 29593" d="M284.359,201.34h-15.95a.823.823,0,0,1-.823-.823v-29.6a.823.823,0,0,1,.823-.823h15.95a.824.824,0,0,1,.823.823v29.6a.824.824,0,0,1-.823.823" transform="translate(-119.446 -75.928)" fill="#fff"/>
              <rect id="Rectangle_10494" data-name="Rectangle 10494" width="8.473" height="1.041" transform="translate(169.286 113.318)" fill="#5b2ec7"/>
              <rect id="Rectangle_10495" data-name="Rectangle 10495" width="8.473" height="1.041" transform="translate(169.286 115.401)" fill="#5b2ec7"/>
              <rect id="Rectangle_10496" data-name="Rectangle 10496" width="8.473" height="1.041" transform="translate(169.286 117.484)" fill="#5b2ec7"/>
              <rect id="Rectangle_10497" data-name="Rectangle 10497" width="8.473" height="1.041" transform="translate(169.286 119.566)" fill="#5b2ec7"/>
              <rect id="Rectangle_10498" data-name="Rectangle 10498" width="8.473" height="1.041" transform="translate(169.286 121.649)" fill="#5b2ec7"/>
              <path id="Path_29594" data-name="Path 29594" d="M333.541,214.132a5.017,5.017,0,1,1,5.017-5.017,5.023,5.023,0,0,1-5.017,5.017m0-8.52a3.5,3.5,0,1,0,3.5,3.5,3.507,3.507,0,0,0-3.5-3.5" transform="translate(-146.648 -91.105)" fill="#d8cdff"/>
              <path id="Path_29595" data-name="Path 29595" d="M334.547,214.2A4.985,4.985,0,0,1,331,212.732a.757.757,0,0,1,1.071-1.071,3.5,3.5,0,1,0,3.183-5.908.758.758,0,0,1,.3-1.484,5.018,5.018,0,0,1-1.01,9.933" transform="translate(-147.654 -91.175)" fill="#5b2ec7"/>
              <path id="Path_29596" data-name="Path 29596" d="M272.981,175.746h-2.593a.122.122,0,0,1-.122-.122v-2.783a.122.122,0,0,1,.122-.122h2.593a.122.122,0,0,1,.122.122v2.783a.122.122,0,0,1-.122.122" transform="translate(-120.643 -77.099)" fill="#ece7f4"/>
              <path id="Path_29597" data-name="Path 29597" d="M278.337,175.746h-2.593a.122.122,0,0,1-.122-.122v-2.783a.122.122,0,0,1,.122-.122h2.593a.122.122,0,0,1,.121.122v2.783a.122.122,0,0,1-.121.122" transform="translate(-123.033 -77.099)" fill="#ece7f4"/>
              <path id="Path_29598" data-name="Path 29598" d="M283.692,175.746H281.1a.122.122,0,0,1-.122-.122v-2.783a.122.122,0,0,1,.122-.122h2.593a.122.122,0,0,1,.122.122v2.783a.122.122,0,0,1-.122.122" transform="translate(-125.424 -77.099)" fill="#bd8fff"/>
              <path id="Path_29599" data-name="Path 29599" d="M289.048,175.746h-2.593a.122.122,0,0,1-.122-.122v-2.783a.122.122,0,0,1,.122-.122h2.593a.122.122,0,0,1,.122.122v2.783a.122.122,0,0,1-.122.122" transform="translate(-127.815 -77.099)" fill="#ece7f4"/>
              <path id="Path_29600" data-name="Path 29600" d="M294.4,175.746h-2.593a.122.122,0,0,1-.122-.122v-2.783a.122.122,0,0,1,.122-.122H294.4a.122.122,0,0,1,.122.122v2.783a.122.122,0,0,1-.122.122" transform="translate(-130.205 -77.099)" fill="#5b2ec7"/>
              <path id="Path_29601" data-name="Path 29601" d="M272.965,181.461h-2.593a.122.122,0,0,1-.122-.122v-2.783a.122.122,0,0,1,.122-.122h2.593a.122.122,0,0,1,.122.122v2.783a.122.122,0,0,1-.122.122" transform="translate(-120.636 -79.65)" fill="#c1aaff"/>
              <path id="Path_29602" data-name="Path 29602" d="M278.321,181.461h-2.593a.122.122,0,0,1-.122-.122v-2.783a.122.122,0,0,1,.122-.122h2.593a.122.122,0,0,1,.122.122v2.783a.122.122,0,0,1-.122.122" transform="translate(-123.026 -79.65)" fill="#15c4fa"/>
              <path id="Path_29603" data-name="Path 29603" d="M283.677,181.461h-2.593a.122.122,0,0,1-.122-.122v-2.783a.122.122,0,0,1,.122-.122h2.593a.122.122,0,0,1,.122.122v2.783a.122.122,0,0,1-.122.122" transform="translate(-125.417 -79.65)" fill="#5b2ec7"/>
              <path id="Path_29604" data-name="Path 29604" d="M289.033,181.461h-2.593a.122.122,0,0,1-.122-.122v-2.783a.122.122,0,0,1,.122-.122h2.593a.122.122,0,0,1,.122.122v2.783a.122.122,0,0,1-.122.122" transform="translate(-127.808 -79.65)" fill="#c1aaff"/>
              <path id="Path_29605" data-name="Path 29605" d="M294.389,181.461H291.8a.122.122,0,0,1-.122-.122v-2.783a.122.122,0,0,1,.122-.122h2.593a.122.122,0,0,1,.122.122v2.783a.122.122,0,0,1-.122.122" transform="translate(-130.199 -79.65)" fill="#ece7f4"/>
              <path id="Path_29606" data-name="Path 29606" d="M272.949,187.177h-2.593a.122.122,0,0,1-.122-.122v-2.783a.122.122,0,0,1,.122-.122h2.593a.122.122,0,0,1,.122.122v2.783a.122.122,0,0,1-.122.122" transform="translate(-120.628 -82.201)" fill="#5b2ec7"/>
              <path id="Path_29607" data-name="Path 29607" d="M278.305,187.177h-2.593a.122.122,0,0,1-.122-.122v-2.783a.122.122,0,0,1,.122-.122h2.593a.122.122,0,0,1,.122.122v2.783a.122.122,0,0,1-.122.122" transform="translate(-123.019 -82.201)" fill="#ece7f4"/>
              <path id="Path_29608" data-name="Path 29608" d="M283.661,187.177h-2.593a.122.122,0,0,1-.122-.122v-2.783a.122.122,0,0,1,.122-.122h2.593a.122.122,0,0,1,.122.122v2.783a.122.122,0,0,1-.122.122" transform="translate(-125.41 -82.201)" fill="#ece7f4"/>
              <path id="Path_29609" data-name="Path 29609" d="M289.017,187.177h-2.593a.122.122,0,0,1-.122-.122v-2.783a.122.122,0,0,1,.122-.122h2.593a.122.122,0,0,1,.122.122v2.783a.122.122,0,0,1-.122.122" transform="translate(-127.801 -82.201)" fill="#d8cdff"/>
              <path id="Path_29610" data-name="Path 29610" d="M294.373,187.177h-2.593a.122.122,0,0,1-.122-.122v-2.783a.122.122,0,0,1,.122-.122h2.593a.122.122,0,0,1,.122.122v2.783a.122.122,0,0,1-.122.122" transform="translate(-130.192 -82.201)" fill="#c1aaff"/>
              <path id="Path_29611" data-name="Path 29611" d="M272.934,192.892h-2.593a.122.122,0,0,1-.122-.122v-2.783a.122.122,0,0,1,.122-.122h2.593a.122.122,0,0,1,.122.122v2.783a.122.122,0,0,1-.122.122" transform="translate(-120.622 -84.753)" fill="#ece7f4"/>
              <path id="Path_29612" data-name="Path 29612" d="M278.29,192.892H275.7a.122.122,0,0,1-.122-.122v-2.783a.122.122,0,0,1,.122-.122h2.593a.122.122,0,0,1,.122.122v2.783a.122.122,0,0,1-.122.122" transform="translate(-123.012 -84.753)" fill="#a152fa"/>
              <path id="Path_29613" data-name="Path 29613" d="M283.646,192.892h-2.593a.122.122,0,0,1-.122-.122v-2.783a.122.122,0,0,1,.122-.122h2.593a.122.122,0,0,1,.122.122v2.783a.122.122,0,0,1-.122.122" transform="translate(-125.403 -84.753)" fill="#5b2ec7"/>
              <path id="Path_29614" data-name="Path 29614" d="M289,192.892H286.41a.122.122,0,0,1-.122-.122v-2.783a.122.122,0,0,1,.122-.122H289a.122.122,0,0,1,.122.122v2.783a.122.122,0,0,1-.122.122" transform="translate(-127.794 -84.753)" fill="#ece7f4"/>
              <path id="Path_29615" data-name="Path 29615" d="M294.358,192.892h-2.593a.122.122,0,0,1-.122-.122v-2.783a.122.122,0,0,1,.122-.122h2.593a.122.122,0,0,1,.121.122v2.783a.122.122,0,0,1-.121.122" transform="translate(-130.185 -84.753)" fill="#ece7f4"/>
              <path id="Path_29616" data-name="Path 29616" d="M272.918,198.608h-2.593a.122.122,0,0,1-.122-.122V195.7a.122.122,0,0,1,.122-.122h2.593a.122.122,0,0,1,.122.122v2.783a.122.122,0,0,1-.122.122" transform="translate(-120.615 -87.304)" fill="#c1aaff"/>
              <path id="Path_29617" data-name="Path 29617" d="M278.274,198.608h-2.593a.122.122,0,0,1-.122-.122V195.7a.122.122,0,0,1,.122-.122h2.593a.122.122,0,0,1,.122.122v2.783a.122.122,0,0,1-.122.122" transform="translate(-123.005 -87.304)" fill="#bd8fff"/>
              <path id="Path_29618" data-name="Path 29618" d="M283.63,198.608h-2.593a.122.122,0,0,1-.122-.122V195.7a.122.122,0,0,1,.122-.122h2.593a.122.122,0,0,1,.122.122v2.783a.122.122,0,0,1-.122.122" transform="translate(-125.396 -87.304)" fill="#ece7f4"/>
              <path id="Path_29619" data-name="Path 29619" d="M288.986,198.608h-2.593a.122.122,0,0,1-.122-.122V195.7a.122.122,0,0,1,.122-.122h2.593a.122.122,0,0,1,.122.122v2.783a.122.122,0,0,1-.122.122" transform="translate(-127.787 -87.304)" fill="#5b2ec7"/>
              <path id="Path_29620" data-name="Path 29620" d="M294.342,198.608H291.75a.122.122,0,0,1-.122-.122V195.7a.122.122,0,0,1,.122-.122h2.593a.122.122,0,0,1,.122.122v2.783a.122.122,0,0,1-.122.122" transform="translate(-130.178 -87.304)" fill="#d8cdff"/>
              <path id="Path_29621" data-name="Path 29621" d="M272.9,204.324h-2.593a.122.122,0,0,1-.122-.122v-2.783a.122.122,0,0,1,.122-.122H272.9a.122.122,0,0,1,.122.122V204.2a.122.122,0,0,1-.122.122" transform="translate(-120.608 -89.856)" fill="#15c4fa"/>
              <path id="Path_29622" data-name="Path 29622" d="M278.259,204.324h-2.593a.122.122,0,0,1-.122-.122v-2.783a.122.122,0,0,1,.122-.122h2.593a.122.122,0,0,1,.121.122V204.2a.122.122,0,0,1-.121.122" transform="translate(-122.998 -89.856)" fill="#d8cdff"/>
              <path id="Path_29623" data-name="Path 29623" d="M283.614,204.324h-2.593a.122.122,0,0,1-.122-.122v-2.783a.122.122,0,0,1,.122-.122h2.593a.122.122,0,0,1,.122.122V204.2a.122.122,0,0,1-.122.122" transform="translate(-125.389 -89.856)" fill="#a152fa"/>
              <path id="Path_29624" data-name="Path 29624" d="M288.97,204.324h-2.593a.122.122,0,0,1-.122-.122v-2.783a.122.122,0,0,1,.122-.122h2.593a.122.122,0,0,1,.122.122V204.2a.122.122,0,0,1-.122.122" transform="translate(-127.78 -89.856)" fill="#ece7f4"/>
              <path id="Path_29625" data-name="Path 29625" d="M294.326,204.324h-2.593a.122.122,0,0,1-.122-.122v-2.783a.122.122,0,0,1,.122-.122h2.593a.122.122,0,0,1,.122.122V204.2a.122.122,0,0,1-.122.122" transform="translate(-130.171 -89.856)" fill="#ece7f4"/>
              <path id="Path_29626" data-name="Path 29626" d="M272.887,210.039h-2.593a.122.122,0,0,1-.122-.122v-2.783a.122.122,0,0,1,.122-.122h2.593a.122.122,0,0,1,.122.122v2.783a.122.122,0,0,1-.122.122" transform="translate(-120.601 -92.407)" fill="#a152fa"/>
              <path id="Path_29627" data-name="Path 29627" d="M278.243,210.039h-2.593a.122.122,0,0,1-.122-.122v-2.783a.122.122,0,0,1,.122-.122h2.593a.122.122,0,0,1,.122.122v2.783a.122.122,0,0,1-.122.122" transform="translate(-122.992 -92.407)" fill="#bd8fff"/>
              <path id="Path_29628" data-name="Path 29628" d="M283.6,210.039h-2.593a.122.122,0,0,1-.122-.122v-2.783a.122.122,0,0,1,.122-.122H283.6a.122.122,0,0,1,.122.122v2.783a.122.122,0,0,1-.122.122" transform="translate(-125.382 -92.407)" fill="#ece7f4"/>
              <path id="Path_29629" data-name="Path 29629" d="M288.955,210.039h-2.593a.122.122,0,0,1-.122-.122v-2.783a.122.122,0,0,1,.122-.122h2.593a.122.122,0,0,1,.122.122v2.783a.122.122,0,0,1-.122.122" transform="translate(-127.773 -92.407)" fill="#bd8fff"/>
              <path id="Path_29630" data-name="Path 29630" d="M294.311,210.039h-2.593a.122.122,0,0,1-.122-.122v-2.783a.122.122,0,0,1,.122-.122h2.593a.122.122,0,0,1,.122.122v2.783a.122.122,0,0,1-.122.122" transform="translate(-130.164 -92.407)" fill="#15c4fa"/>
              <path id="Path_29631" data-name="Path 29631" d="M272.871,215.755h-2.593a.122.122,0,0,1-.122-.122V212.85a.122.122,0,0,1,.122-.122h2.593a.122.122,0,0,1,.122.122v2.783a.122.122,0,0,1-.122.122" transform="translate(-120.594 -94.958)" fill="#ece7f4"/>
              <path id="Path_29632" data-name="Path 29632" d="M278.227,215.755h-2.593a.122.122,0,0,1-.122-.122V212.85a.122.122,0,0,1,.122-.122h2.593a.122.122,0,0,1,.122.122v2.783a.122.122,0,0,1-.122.122" transform="translate(-122.984 -94.958)" fill="#a152fa"/>
              <path id="Path_29633" data-name="Path 29633" d="M283.583,215.755h-2.593a.122.122,0,0,1-.122-.122V212.85a.122.122,0,0,1,.122-.122h2.593a.122.122,0,0,1,.122.122v2.783a.122.122,0,0,1-.122.122" transform="translate(-125.375 -94.958)" fill="#a152fa"/>
              <path id="Path_29634" data-name="Path 29634" d="M288.939,215.755h-2.593a.122.122,0,0,1-.122-.122V212.85a.122.122,0,0,1,.122-.122h2.593a.122.122,0,0,1,.122.122v2.783a.122.122,0,0,1-.122.122" transform="translate(-127.766 -94.958)" fill="#5b2ec7"/>
              <path id="Path_29635" data-name="Path 29635" d="M294.3,215.755H291.7a.122.122,0,0,1-.122-.122V212.85a.122.122,0,0,1,.122-.122H294.3a.122.122,0,0,1,.122.122v2.783a.122.122,0,0,1-.122.122" transform="translate(-130.157 -94.958)" fill="#d8cdff"/>
              <path id="Path_29636" data-name="Path 29636" d="M272.856,221.47h-2.593a.122.122,0,0,1-.122-.122v-2.783a.122.122,0,0,1,.122-.122h2.593a.122.122,0,0,1,.122.122v2.783a.122.122,0,0,1-.122.122" transform="translate(-120.587 -97.509)" fill="#5b2ec7"/>
              <path id="Path_29637" data-name="Path 29637" d="M278.212,221.47H275.62a.122.122,0,0,1-.122-.122v-2.783a.122.122,0,0,1,.122-.122h2.593a.122.122,0,0,1,.122.122v2.783a.122.122,0,0,1-.122.122" transform="translate(-122.978 -97.509)" fill="#15c4fa"/>
              <path id="Path_29638" data-name="Path 29638" d="M283.568,221.47h-2.593a.122.122,0,0,1-.122-.122v-2.783a.122.122,0,0,1,.122-.122h2.593a.122.122,0,0,1,.122.122v2.783a.122.122,0,0,1-.122.122" transform="translate(-125.369 -97.509)" fill="#ece7f4"/>
              <path id="Path_29639" data-name="Path 29639" d="M288.923,221.47h-2.593a.122.122,0,0,1-.122-.122v-2.783a.122.122,0,0,1,.122-.122h2.593a.122.122,0,0,1,.122.122v2.783a.122.122,0,0,1-.122.122" transform="translate(-127.759 -97.509)" fill="#d8cdff"/>
              <path id="Path_29640" data-name="Path 29640" d="M294.279,221.47h-2.593a.122.122,0,0,1-.122-.122v-2.783a.122.122,0,0,1,.122-.122h2.593a.122.122,0,0,1,.122.122v2.783a.122.122,0,0,1-.122.122" transform="translate(-130.15 -97.509)" fill="#bd8fff"/>
              <rect id="Rectangle_10499" data-name="Rectangle 10499" width="1.609" height="12.496" transform="translate(168.628 95.605)" fill="#d8cdff"/>
              <rect id="Rectangle_10500" data-name="Rectangle 10500" width="1.609" height="12.496" transform="translate(171.421 95.605)" fill="#d8cdff"/>
              <rect id="Rectangle_10501" data-name="Rectangle 10501" width="1.609" height="12.496" transform="translate(174.214 95.605)" fill="#d8cdff"/>
              <rect id="Rectangle_10502" data-name="Rectangle 10502" width="1.609" height="12.496" transform="translate(177.007 95.605)" fill="#d8cdff"/>
              <rect id="Rectangle_10503" data-name="Rectangle 10503" width="1.609" height="12.496" transform="translate(179.799 95.605)" fill="#d8cdff"/>
              <rect id="Rectangle_10504" data-name="Rectangle 10504" width="1.609" height="12.496" transform="translate(182.592 95.605)" fill="#d8cdff"/>
              <rect id="Rectangle_10505" data-name="Rectangle 10505" width="1.609" height="12.496" transform="translate(185.385 95.605)" fill="#d8cdff"/>
              <rect id="Rectangle_10506" data-name="Rectangle 10506" width="1.609" height="12.496" transform="translate(188.177 95.605)" fill="#d8cdff"/>
              <rect id="Rectangle_10507" data-name="Rectangle 10507" width="1.609" height="12.496" transform="translate(190.97 95.605)" fill="#d8cdff"/>
              <rect id="Rectangle_10508" data-name="Rectangle 10508" width="1.609" height="4.955" transform="translate(168.628 103.146)" fill="#5b2ec7"/>
              <rect id="Rectangle_10509" data-name="Rectangle 10509" width="1.609" height="10.115" transform="translate(171.421 97.986)" fill="#5b2ec7"/>
              <rect id="Rectangle_10510" data-name="Rectangle 10510" width="1.609" height="3.11" transform="translate(174.214 104.992)" fill="#15c4fa"/>
              <rect id="Rectangle_10511" data-name="Rectangle 10511" width="1.609" height="8.127" transform="translate(177.007 99.974)" fill="#5b2ec7"/>
              <rect id="Rectangle_10512" data-name="Rectangle 10512" width="1.609" height="9.831" transform="translate(179.799 98.27)" fill="#5b2ec7"/>
              <rect id="Rectangle_10513" data-name="Rectangle 10513" width="1.609" height="5.855" transform="translate(182.592 102.246)" fill="#5b2ec7"/>
              <rect id="Rectangle_10514" data-name="Rectangle 10514" width="1.609" height="10.541" transform="translate(185.385 97.561)" fill="#5b2ec7"/>
              <rect id="Rectangle_10515" data-name="Rectangle 10515" width="1.609" height="6.802" transform="translate(188.177 101.3)" fill="#15c4fa"/>
              <rect id="Rectangle_10516" data-name="Rectangle 10516" width="1.609" height="4.293" transform="translate(190.97 103.809)" fill="#5b2ec7"/>
              <path id="Path_29641" data-name="Path 29641" d="M295.162,247.729H268.484a.9.9,0,0,1-.9-.9V229.538a.9.9,0,0,1,.9-.9h26.677a.9.9,0,0,1,.9.9V246.83a.9.9,0,0,1-.9.9" transform="translate(-119.446 -102.061)" fill="#ece7f4"/>
              <rect id="Rectangle_10517" data-name="Rectangle 10517" width="7.892" height="1.173" transform="translate(165.097 130.418)" fill="#c1aaff"/>
              <rect id="Rectangle_10518" data-name="Rectangle 10518" width="7.892" height="1.173" transform="translate(165.097 133.724)" fill="#c1aaff"/>
              <rect id="Rectangle_10519" data-name="Rectangle 10519" width="7.892" height="1.173" transform="translate(165.097 137.03)" fill="#c1aaff"/>
              <rect id="Rectangle_10520" data-name="Rectangle 10520" width="7.892" height="1.173" transform="translate(165.097 140.336)" fill="#c1aaff"/>
              <path id="Path_29642" data-name="Path 29642" d="M282.438,246.748h-7.6a.891.891,0,0,1-.891-.891V235.695a.891.891,0,0,1,.891-.891h7.6a.891.891,0,0,1,.891.891v10.163a.891.891,0,0,1-.891.891" transform="translate(-122.284 -104.813)" fill="#c1aaff"/>
              <path id="Path_29643" data-name="Path 29643" d="M282.77,241.24a1.813,1.813,0,1,1-1.813-1.813,1.813,1.813,0,0,1,1.813,1.813" transform="translate(-124.605 -106.876)" fill="#fff"/>
              <path id="Path_29644" data-name="Path 29644" d="M283,249.5h-5.972v-.154a2.4,2.4,0,0,1,2.405-2.4h1.162a2.4,2.4,0,0,1,2.405,2.4Z" transform="translate(-123.659 -110.23)" fill="#fff"/>
              <path id="Path_29645" data-name="Path 29645" d="M337.227,247.729H321.677a.693.693,0,0,1-.693-.693v-17.7a.693.693,0,0,1,.693-.693h15.549a.693.693,0,0,1,.693.693v17.7a.693.693,0,0,1-.693.693" transform="translate(-143.282 -102.061)" fill="#ece7f4"/>
              <path id="Path_29646" data-name="Path 29646" d="M336.824,251.889a2.81,2.81,0,1,1-2.809-2.863,2.837,2.837,0,0,1,2.809,2.863" transform="translate(-147.845 -111.161)" fill="#5b2ec7"/>
              <path id="Path_29647" data-name="Path 29647" d="M336.5,252.786l-1.79,1.88-.9-.9-.044-.045.491-.492.444.448,1.346-1.343Z" transform="translate(-148.992 -112.64)" fill="#fff"/>
              <rect id="Rectangle_10521" data-name="Rectangle 10521" width="14.236" height="0.65" transform="translate(179.052 135.866)" fill="#8464d8"/>
              <rect id="Rectangle_10522" data-name="Rectangle 10522" width="14.236" height="0.65" transform="translate(179.052 133.456)" fill="#8464d8"/>
              <rect id="Rectangle_10523" data-name="Rectangle 10523" width="14.236" height="0.65" transform="translate(179.052 131.046)" fill="#8464d8"/>
              <rect id="Rectangle_10524" data-name="Rectangle 10524" width="14.236" height="0.65" transform="translate(179.052 128.635)" fill="#8464d8"/>
              <line id="Line_1578" data-name="Line 1578" y1="34.62" transform="translate(162.464 96.004)" fill="none" stroke="#fff" stroke-linecap="round" stroke-miterlimit="10" stroke-width="1.026"/>
              <line id="Line_1579" data-name="Line 1579" y2="22.275" transform="translate(178.489 82.812)" fill="none" stroke="#fff" stroke-linecap="round" stroke-miterlimit="10" stroke-width="1.026"/>
              <path id="Path_29649" data-name="Path 29649" d="M360.425,457.078v29.4c0,2.4,3.844,4.6,6.04,3.313l25.752-14.933a8.8,8.8,0,0,0,4.449-7.242V438.206c.183-2.414-4.515-4.023-6.04-3.146l-26.285,15.246a7.812,7.812,0,0,0-3.916,6.771" transform="translate(-160.888 -194.096)" fill="#1c0456"/>
              <path id="Path_29650" data-name="Path 29650" d="M364.557,459.244v29.4a2.4,2.4,0,0,0,3.6,2.084l26.358-15.167a8.146,8.146,0,0,0,4.083-7.06V439.091a2.287,2.287,0,0,0-3.428-1.982l-26.7,15.364a7.812,7.812,0,0,0-3.916,6.771" transform="translate(-162.732 -194.98)" fill="#15c4fa"/>
              <path id="Path_29651" data-name="Path 29651" d="M374.958,481.673c0,6.625,5.043,9.285,11.264,5.941s11.264-11.426,11.264-18.051-5.043-9.285-11.264-5.941-11.264,11.426-11.264,18.051" transform="translate(-167.375 -206.308)" fill="#15c4fa"/>
              <path id="Path_29652" data-name="Path 29652" d="M390.818,472.3l5.563-.826v6.7c0,3.9-4.173,7.319-5.563,9.207-1.427-.335-5.563.636-5.563-3.225v-6.7Z" transform="translate(-171.971 -210.458)" fill="#fff"/>
              <path id="Path_29653" data-name="Path 29653" d="M391.041,482.481V481.7a4.212,4.212,0,0,1,2.076-3.327c1.145-.616,2.076-.124,2.076,1.1v.784a2.793,2.793,0,0,1,.637.068v3.434a8.735,8.735,0,0,1-2.713,2.39,3.944,3.944,0,0,1-2.713.526v-3.433q.3-.394.637-.753m3.329-2.574c0-.736-.562-1.033-1.254-.662a2.544,2.544,0,0,0-1.253,2.01v.445a7.478,7.478,0,0,1,1.253-.856,5.227,5.227,0,0,1,1.254-.491Zm-1.768,5.218,1.027-.553-.216-1.23a1.288,1.288,0,0,0,.36-.817c0-.387-.295-.542-.658-.347a1.334,1.334,0,0,0-.658,1.054c0,.272.147.43.36.431Z" transform="translate(-174.27 -213.418)" fill="#15c4fa"/>
              <path id="Path_29654" data-name="Path 29654" d="M394.726,467.283A1.475,1.475,0,0,0,394,468.45c0,.428.326.6.728.384a1.475,1.475,0,0,0,.728-1.166c0-.428-.326-.6-.728-.384" transform="translate(-175.874 -208.546)" fill="#fff"/>
              <path id="Path_29655" data-name="Path 29655" d="M410.6,477.226c0,.428.326.6.728.384a1.475,1.475,0,0,0,.728-1.167c0-.428-.326-.6-.728-.384a1.476,1.476,0,0,0-.728,1.167" transform="translate(-183.285 -212.463)" fill="#fff"/>
              <path id="Path_29656" data-name="Path 29656" d="M377.793,494.862c0,.429.326.6.728.384a1.475,1.475,0,0,0,.728-1.167c0-.428-.326-.6-.728-.384a1.476,1.476,0,0,0-.728,1.167" transform="translate(-168.64 -220.335)" fill="#fff"/>
              <path id="Path_29657" data-name="Path 29657" d="M394.708,502.675a1.475,1.475,0,0,0-.728,1.167c0,.428.326.6.728.384a1.475,1.475,0,0,0,.728-1.166c0-.428-.326-.6-.728-.384" transform="translate(-175.866 -224.344)" fill="#fff"/>
              <path id="Path_29658" data-name="Path 29658" d="M406.158,470.225c-.858-2.842-3.3-4.132-6.4-3.383" transform="translate(-178.446 -208.297)" fill="none" stroke="#fff" stroke-miterlimit="10" stroke-width="0.384"/>
              <path id="Path_29659" data-name="Path 29659" d="M399.759,492.817a19.752,19.752,0,0,0,6.4-10.282" transform="translate(-178.446 -215.396)" fill="none" stroke="#fff" stroke-miterlimit="10" stroke-width="0.384"/>
              <path id="Path_29660" data-name="Path 29660" d="M379.291,499.788c.858,2.842,3.3,4.132,6.4,3.383" transform="translate(-169.309 -223.097)" fill="none" stroke="#fff" stroke-miterlimit="10" stroke-width="0.384"/>
              <path id="Path_29661" data-name="Path 29661" d="M385.865,471.546a19.745,19.745,0,0,0-6.568,10.391" transform="translate(-169.312 -210.49)" fill="none" stroke="#fff" stroke-miterlimit="10" stroke-width="0.384"/>
            </g>
          </g>
        </g>
      </g>
    </g>
    <g id="Group_18331" data-name="Group 18331" transform="translate(283.949 5822.732)">
      <g id="Group_18330" data-name="Group 18330" clip-path="url(#clip-path-7)">
        <path id="Path_32128" data-name="Path 32128" d="M338.64,45.5,259.617.169c-1.224-.7-5.571.929-5.571,2.152,0,15.36-.1,46.788,0,61.441a6.463,6.463,0,0,0,2.483,4.213L335.553,113.3c1.224.7,5.3-1.107,5.3-3.283V48.984A4.572,4.572,0,0,0,338.64,45.5" transform="translate(-219.906 0)" fill="#5d4ca5"/>
        <path id="Path_32129" data-name="Path 32129" d="M335.583,55.4,256.561,10.074c-1.224-.7-2.215-.279-2.215.944V72.459a5.125,5.125,0,0,0,2.215,4.079l79.022,45.329c1.224.7,2.215.014,2.215-1.538V58.889a4.571,4.571,0,0,0-2.215-3.486" transform="translate(-220.206 -8.428)" fill="#8470e5"/>
        <path id="Path_32130" data-name="Path 32130" d="M200.64,114.5,121.617,69.169c-1.224-.7-5.571.929-5.571,2.152,0,15.36-.1,46.788,0,61.441a6.463,6.463,0,0,0,2.483,4.213L197.553,182.3c1.224.7,5.3-1.107,5.3-3.283V117.984a4.571,4.571,0,0,0-2.215-3.486" transform="translate(-100.43 -59.738)" fill="#3b2c84"/>
        <path id="Path_32131" data-name="Path 32131" d="M197.583,124.4,118.561,79.074c-1.224-.7-2.215-.279-2.215.944v61.441a5.125,5.125,0,0,0,2.215,4.079l79.022,45.329c1.224.7,2.215.014,2.215-1.538V127.889a4.571,4.571,0,0,0-2.215-3.486" transform="translate(-100.729 -68.166)" fill="#6c45d8"/>
        <path id="Path_32132" data-name="Path 32132" d="M84.64,185.5,5.617,140.169c-1.224-.7-5.571.929-5.571,2.152,0,15.36-.1,46.788,0,61.441a6.463,6.463,0,0,0,2.483,4.213L81.553,253.3c1.224.7,5.3-1.107,5.3-3.283V188.984A4.571,4.571,0,0,0,84.64,185.5" transform="translate(0 -121.208)" fill="#1c0456"/>
        <path id="Path_32133" data-name="Path 32133" d="M83.8,198.888v6.486L.346,157.5v-6.486c0-1.224.991-1.646,2.215-.944L81.584,195.4a4.571,4.571,0,0,1,2.215,3.486" transform="translate(-0.3 -129.636)" fill="#5b2eca"/>
        <path id="Path_32134" data-name="Path 32134" d="M83.8,255.491v54.954c0,1.551-.991,2.24-2.215,1.538L2.561,266.654a5.125,5.125,0,0,1-2.215-4.079V207.621Z" transform="translate(-0.3 -179.752)" fill="#efeaf7"/>
        <path id="Path_32135" data-name="Path 32135" d="M34.293,189.747a2.725,2.725,0,0,0,1.32,2.078c.729.418,1.32.166,1.32-.563a2.726,2.726,0,0,0-1.32-2.078c-.729-.418-1.32-.166-1.32.563" transform="translate(-29.69 -163.615)" fill="#a252fb"/>
        <path id="Path_32136" data-name="Path 32136" d="M67.559,208.829a2.725,2.725,0,0,0,1.32,2.078c.729.418,1.32.166,1.32-.563a2.726,2.726,0,0,0-1.32-2.078c-.729-.418-1.32-.166-1.32.563" transform="translate(-58.491 -180.136)" fill="#a252fb"/>
        <path id="Path_32137" data-name="Path 32137" d="M102.669,228.969a2.725,2.725,0,0,0,1.32,2.078c.729.418,1.32.166,1.32-.563a2.726,2.726,0,0,0-1.32-2.078c-.729-.418-1.32-.166-1.32.563" transform="translate(-88.888 -197.572)" fill="#a252fb"/>
        <path id="Path_32138" data-name="Path 32138" d="M55.857,281.211,28.931,265.765v-8.1l26.927,15.446Z" transform="translate(-25.047 -223.082)" fill="#fff"/>
        <path id="Path_32139" data-name="Path 32139" d="M78.654,313.2,60.093,302.553V301.4l18.561,10.647Z" transform="translate(-52.027 -260.94)" fill="#5b2eca"/>
        <path id="Path_32140" data-name="Path 32140" d="M55.857,378.877,28.931,363.431v-8.1L55.857,370.78Z" transform="translate(-25.047 -307.638)" fill="#fff"/>
        <path id="Path_32141" data-name="Path 32141" d="M78.654,410.866,60.093,400.219v-1.157l18.561,10.647Z" transform="translate(-52.027 -345.497)" fill="#5b2eca"/>
        <path id="Path_32142" data-name="Path 32142" d="M55.857,476.544,28.931,461.1V453l26.927,15.446Z" transform="translate(-25.047 -392.195)" fill="#fff"/>
        <path id="Path_32143" data-name="Path 32143" d="M78.654,508.533,60.093,497.886v-1.157l18.561,10.647Z" transform="translate(-52.027 -430.054)" fill="#5b2eca"/>
        <path id="Path_32144" data-name="Path 32144" d="M55.857,574.21,28.931,558.764v-8.1l26.927,15.446Z" transform="translate(-25.047 -476.752)" fill="#fff"/>
        <path id="Path_32145" data-name="Path 32145" d="M78.654,606.2,60.093,595.552V594.4l18.561,10.647Z" transform="translate(-52.027 -514.611)" fill="#5b2eca"/>
        <path id="Path_32146" data-name="Path 32146" d="M261.1,438.27l-2.467-1.415V389.429l2.467,1.415Z" transform="translate(-223.915 -337.157)" fill="#5b2eca"/>
        <path id="Path_32147" data-name="Path 32147" d="M320.2,426.134l-21.24-12.184v-1.39l21.24,12.184Z" transform="translate(-258.828 -357.183)" fill="#c4adff"/>
        <path id="Path_32148" data-name="Path 32148" d="M530.058,546.516l-11.1-6.367v-1.39l11.1,6.367Z" transform="translate(-449.299 -466.442)" fill="#fff"/>
        <path id="Path_32149" data-name="Path 32149" d="M471.559,512.96l-5.687-3.262v-1.39l5.687,3.262Z" transform="translate(-403.339 -440.079)" fill="#5b2eca"/>
        <path id="Path_32150" data-name="Path 32150" d="M317.832,479.783l-18.876-10.828v-1.39l18.876,10.828Z" transform="translate(-258.828 -404.805)" fill="#d9cefc"/>
        <path id="Path_32151" data-name="Path 32151" d="M504.336,586.766l-9.864-5.658v-1.39l9.864,5.658Z" transform="translate(-428.1 -501.903)" fill="#c4adff"/>
        <path id="Path_32152" data-name="Path 32152" d="M452.348,556.944l-5.054-2.9v-1.39l5.054,2.9Z" transform="translate(-387.254 -478.473)" fill="#5b2eca"/>
        <path id="Path_32153" data-name="Path 32153" d="M319.8,632.984l-20.846-11.958v-1.39L319.8,631.594Z" transform="translate(-258.828 -536.464)" fill="#d9cefc"/>
        <path id="Path_32154" data-name="Path 32154" d="M525.771,751.133l-10.894-6.249v-1.39l10.894,6.249Z" transform="translate(-445.766 -643.696)" fill="#c4adff"/>
        <path id="Path_32155" data-name="Path 32155" d="M468.357,718.2l-5.581-3.2v-1.39l5.581,3.2Z" transform="translate(-400.658 -617.82)" fill="#5b2eca"/>
        <path id="Path_32156" data-name="Path 32156" d="M307.927,494.808l-8.97-5.146v-1.39l8.97,5.146Z" transform="translate(-258.828 -422.733)" fill="#d9cefc"/>
        <path id="Path_32157" data-name="Path 32157" d="M472.177,589.026l-14.85-8.519v-1.39l14.85,8.518Z" transform="translate(-395.941 -501.384)" fill="#5b2eca"/>
        <path id="Path_32158" data-name="Path 32158" d="M384.982,539.009l-9.649-5.535v-1.39l9.649,5.535Z" transform="translate(-324.953 -460.664)" fill="#fff"/>
        <path id="Path_32159" data-name="Path 32159" d="M361.075,482.586l-23.368-13.4v-1.39l23.368,13.4Z" transform="translate(-292.376 -405)" fill="#fff"/>
        <path id="Path_32160" data-name="Path 32160" d="M394.721,606.718l-21.24-12.184v-1.39l21.24,12.184Z" transform="translate(-323.349 -513.528)" fill="#c4adff"/>
        <path id="Path_32161" data-name="Path 32161" d="M546.982,694.058l-7.605-4.363v-1.39l7.605,4.363Z" transform="translate(-466.977 -595.916)" fill="#5b2eca"/>
        <path id="Path_32162" data-name="Path 32162" d="M494.833,708.8l-15.69-9v-1.39l15.69,9Z" transform="translate(-414.829 -604.66)" fill="#fff"/>
        <path id="Path_32163" data-name="Path 32163" d="M322.25,609.8l-23.368-13.4V595l23.368,13.4Z" transform="translate(-258.763 -515.137)" fill="#5b2eca"/>
        <path id="Path_32164" data-name="Path 32164" d="M527.605,578.112l-6.257-3.589v-1.39l6.257,3.589Z" transform="translate(-451.369 -496.202)" fill="#5b2eca"/>
        <path id="Path_32165" data-name="Path 32165" d="M317.832,729.568,298.956,718.74v-1.39l18.876,10.828Z" transform="translate(-258.828 -621.062)" fill="#fff"/>
        <path id="Path_32166" data-name="Path 32166" d="M504.336,836.551l-9.864-5.658V829.5l9.864,5.658Z" transform="translate(-428.1 -718.16)" fill="#c4adff"/>
        <path id="Path_32167" data-name="Path 32167" d="M452.348,806.729l-5.054-2.9v-1.39l5.054,2.9Z" transform="translate(-387.254 -694.73)" fill="#5b2eca"/>
        <path id="Path_32168" data-name="Path 32168" d="M307.927,762.065l-8.97-5.146v-1.39l8.97,5.146Z" transform="translate(-258.828 -654.116)" fill="#d9cefc"/>
        <path id="Path_32169" data-name="Path 32169" d="M472.177,856.283l-14.85-8.519v-1.39l14.85,8.518Z" transform="translate(-395.941 -732.767)" fill="#5b2eca"/>
        <path id="Path_32170" data-name="Path 32170" d="M384.982,806.266l-9.649-5.535v-1.39l9.649,5.535Z" transform="translate(-324.953 -692.048)" fill="#fff"/>
        <path id="Path_32171" data-name="Path 32171" d="M361.075,722.017l-23.368-13.4v-1.39l23.368,13.4Z" transform="translate(-292.376 -612.293)" fill="#dbd0ff"/>
        <path id="Path_32172" data-name="Path 32172" d="M527.605,817.543l-6.257-3.589v-1.39l6.257,3.589Z" transform="translate(-451.369 -703.495)" fill="#5b2eca"/>
        <path id="Path_32173" data-name="Path 32173" d="M579.418,605.089a1.66,1.66,0,0,1-.718-1.482v-1.2a1.415,1.415,0,0,0-.8-1.445l-.16-.091v-.855l.319.183a2.647,2.647,0,0,1,1.5,2.524v.988c0,.721.159,1.056.624,1.323v1.1c-.468-.268-.624-.119-.624.6v1.14c0,1.186-.457,1.447-1.5.849l-.319-.183v-.859l.16.091c.591.339.8.2.8-.513v-1.337c0-.689.243-.927.718-.71Z" transform="translate(-500.188 -519.477)" fill="#5b2eca"/>
        <path id="Path_32174" data-name="Path 32174" d="M303.945,552.574v.037l1.985,2.38v.943l-2.723-3.385v-.727l2.723-.35v.939Z" transform="translate(-262.508 -477.449)" fill="#5b2eca"/>
        <path id="Path_32175" data-name="Path 32175" d="M327.524,557.727l1.247-5.809.667.383-1.259,5.8Z" transform="translate(-283.561 -477.834)" fill="#5b2eca"/>
        <path id="Path_32176" data-name="Path 32176" d="M345.818,564.248l2.723,3.475v.727l-2.723.261v-.939l1.985-.107v-.037l-1.985-2.44Z" transform="translate(-299.4 -488.51)" fill="#5b2eca"/>
        <path id="Path_32177" data-name="Path 32177" d="M303.945,688.727v.037l1.985,2.38v.943l-2.723-3.385v-.727l2.723-.35v.939Z" transform="translate(-262.508 -595.326)" fill="#5b2eca"/>
        <path id="Path_32178" data-name="Path 32178" d="M575.648,902.8l2.723,3.475V907l-2.723.261v-.939l1.985-.106v-.037l-1.985-2.44Z" transform="translate(-498.38 -781.619)" fill="#5b2eca"/>
      </g>
    </g>
  </g>
</svg>
