<svg id="Group_18159" data-name="Group 18159" xmlns="http://www.w3.org/2000/svg" xmlns:xlink="http://www.w3.org/1999/xlink" width="318.334" height="261.424" viewBox="0 0 318.334 261.424">
  <defs>
    <clipPath id="clip-path">
      <rect id="Rectangle_10465" data-name="Rectangle 10465" width="318.334" height="261.424" fill="none"/>
    </clipPath>
  </defs>
  <g id="Group_17935" data-name="Group 17935" clip-path="url(#clip-path)">
    <path id="Path_28922" data-name="Path 28922" d="M336.526,460.542V476a3.62,3.62,0,0,0,3.62,3.62h33.719l-2.364-5.61-15.841-8.283a2.652,2.652,0,0,1-1.418-2.189l-.183-2.993Z" transform="translate(-159.504 -218.284)" fill="#10005c"/>
    <path id="Path_28923" data-name="Path 28923" d="M229.679,460.542l-2.376,15.84a3.8,3.8,0,0,1-3.757,3.236H190.239l3.2-4.488,17.8-9.424a4.5,4.5,0,0,0,1.921-1.966l1.6-3.2Z" transform="translate(-90.168 -218.284)" fill="#10005c"/>
    <path id="Path_28924" data-name="Path 28924" d="M203.91,250.082l-.457.872a12.022,12.022,0,0,1-4.463,4.727L182.81,265.39l-1.907.954h30.4a1.975,1.975,0,0,0,1.974-2.023l-.354-14.622Z" transform="translate(-85.743 -118.35)" fill="#e0792b"/>
    <path id="Path_28925" data-name="Path 28925" d="M329.508,110.427s-2.11,7.866-10.936,23.983c-7.881,14.393-19.711,3-23.007.06a57.341,57.341,0,0,1-4.621-5.816l-2.056-25.048,3.815,47.079-8.584.649-.954-17.817-28.613.61-2.861,17.512h-9.538l10.492-47.689-20.983,67.718-18.122-.954s23.844-76.3,27.66-81.07,21.365-7.163,21.365-7.163,2.48,7.153,10.11,7.153c10.492.01,3.815-6.667,3.815-6.667l1.993.668.868.286,9.538,2.966c4.769,2,8.584,8.48,8.584,8.48l9.538,22.89L317.5,99.18Z" transform="translate(-101.212 -39.093)" fill="#321689"/>
    <path id="Path_28926" data-name="Path 28926" d="M291.506,134.069l6.676-51.327a9.5,9.5,0,0,1,1.512-.384c3.692.1,14.493.8,14.493.8l1.047.351,4.885,49.95Z" transform="translate(-138.165 -39.035)" fill="#ba97fa"/>
    <path id="Path_28927" data-name="Path 28927" d="M260.75,181.915l27.819-.57,14.06,147.617H278.834l-9.518-116.455L250.178,328.963H224.419l26.245-130.21h7.23Z" transform="translate(-106.368 -85.952)" fill="#321689"/>
    <path id="Path_28928" data-name="Path 28928" d="M413.21,101.556s4.8-9.4,5.606-10.616a8.644,8.644,0,0,1,4.768-3.815s6.676-1.907,7.631-1.907-1.908,2.861-1.908,2.861l-.954.954s13.353-1.907,13.353-.954-4.768,2.862-4.768,2.862,4.768-.954,4.768.954-13.353,6.676-13.353,6.676L423,110.766Z" transform="translate(-195.85 -40.391)" fill="#e0792b"/>
    <path id="Path_28929" data-name="Path 28929" d="M320.738,18.122a4.771,4.771,0,0,1-4.769,4.769V18.961a5.646,5.646,0,0,0-5.608-5.609h-6.905a5.4,5.4,0,0,0-2.089.41,5.49,5.49,0,0,0-1.65,1.039,5.609,5.609,0,0,0-1.841,3.576.392.392,0,0,0,0,.105,3.8,3.8,0,0,0-.029.477V24.2c-.429-.611-2.584-3.491-4.292-1.784,0,0-3.234,2.356-.582,4.664a5.247,5.247,0,0,1-2.337-9.138,5.714,5.714,0,0,1-1.373-3.757,5.431,5.431,0,0,1,5.246-5.6,4.824,4.824,0,0,1,1.7.306,6.683,6.683,0,0,1-.267-1.86c0-3.882,3.414-7.029,7.63-7.029a7.519,7.519,0,0,1,7.449,5.5,5.721,5.721,0,0,1,7.516,8.6,4.745,4.745,0,0,1,2.2,4.015" transform="translate(-136.876)"/>
    <path id="Path_28930" data-name="Path 28930" d="M318.8,30.992v7.965a6.475,6.475,0,0,1-6.455,6.456h-6.058a5.624,5.624,0,0,1-5.589-5.236l-.019,1.116a12.59,12.59,0,0,1-4.874-2.184c-2.652-2.308.582-4.664.582-4.664,1.707-1.707,3.863,1.173,4.292,1.783V30.992a3.918,3.918,0,0,1,.028-.477.242.242,0,0,0,.048-.057.111.111,0,0,0-.048-.048,5.61,5.61,0,0,1,1.841-3.576,5.5,5.5,0,0,1,1.65-1.04,5.405,5.405,0,0,1,2.088-.41h6.906a5.642,5.642,0,0,1,5.608,5.608" transform="translate(-139.708 -12.031)" fill="#e0792b"/>
    <path id="Path_28931" data-name="Path 28931" d="M316.847,89.633c-7.63,0-10.11-7.153-10.11-7.153l13.925.487s6.676,6.676-3.815,6.667" transform="translate(-145.384 -39.093)" fill="#e0792b"/>
    <path id="Path_28932" data-name="Path 28932" d="M306.737,72.606l2.48-10.959,7.63.386,5.867,14.553" transform="translate(-145.384 -29.219)" fill="#e0792b"/>
    <path id="Path_28933" data-name="Path 28933" d="M296.32,84.911l-8.289,12.457,4.08,18.241Z" transform="translate(-136.518 -40.245)" fill="#5b2eca"/>
    <path id="Path_28934" data-name="Path 28934" d="M337.345,86.005l7.45,13.017-4.224,20.13Z" transform="translate(-159.892 -40.764)" fill="#5b2eca"/>
    <path id="Path_28935" data-name="Path 28935" d="M274.312,198.578v-.954H280.5l2.862-17.512,28.613-.61v.954l-27.572.609-2.855,17.513Z" transform="translate(-130.016 -85.079)"/>
    <line id="Line_1550" data-name="Line 1550" x2="29.273" transform="translate(153.341 99.903)" fill="none" stroke="#000" stroke-miterlimit="10" stroke-width="1.813"/>
    <line id="Line_1551" data-name="Line 1551" y1="1.565" x2="5.414" transform="translate(184.151 101.149)" fill="none" stroke="#000" stroke-miterlimit="10" stroke-width="1.36"/>
    <line id="Line_1552" data-name="Line 1552" y1="1.247" x2="7.217" transform="translate(144.296 99.902)" fill="none" stroke="#000" stroke-miterlimit="10" stroke-width="1.36"/>
    <path id="Path_28936" data-name="Path 28936" d="M359.629,148.777l-.811-.977-1.984-24.483Z" transform="translate(-169.129 -58.448)"/>
    <path id="Path_28937" data-name="Path 28937" d="M264.427,170.276H260.2l14.558-46.981-10.492,47.689" transform="translate(-123.329 -58.438)"/>
    <path id="Path_28938" data-name="Path 28938" d="M141.274,451.476l-2.12,8.846,6.2,2.862,6.413-6.676v-5.031" transform="translate(-65.955 -213.987)" fill="#f8a257"/>
    <path id="Path_28939" data-name="Path 28939" d="M126.746,177.78a19.613,19.613,0,0,1,.82,2.871,4.018,4.018,0,0,1-.848-.057,7.113,7.113,0,0,1,.028-2.814" transform="translate(-59.982 -84.263)" fill="#e17269"/>
    <path id="Path_28940" data-name="Path 28940" d="M143.588,145.052v.248a11.1,11.1,0,0,1-3.576,3,12.084,12.084,0,0,0,3.576-3.243" transform="translate(-66.362 -68.75)" fill="#e17269"/>
    <path id="Path_28941" data-name="Path 28941" d="M146.811,298.224s44.931-2.089,51.981,9.489c10,16.419,30.521,70.579,30.521,70.579l-20.983,12.4-29.567-67.718L149.2,322.02Z" transform="translate(-69.584 -141.28)" fill="#5535c3"/>
    <path id="Path_28942" data-name="Path 28942" d="M135.025,397.364l20.029.954,14.674-61.009H144.778Z" transform="translate(-63.998 -159.875)" fill="#5535c3"/>
    <path id="Path_28943" data-name="Path 28943" d="M137.591,465.432l-2.329-1.075s-3.815,2.862-4.768,11.445v3.815h43.518l-.29-.552a17.131,17.131,0,0,0-6.291-6.684l-19.556-11.839-3.46,3.6a5.985,5.985,0,0,1-6.824,1.288" transform="translate(-61.85 -218.284)" fill="#dad2ff"/>
    <path id="Path_28944" data-name="Path 28944" d="M134.447,156.034V158.7a7.652,7.652,0,0,1-7.63,7.63c-.41,0-1.3.057-2.013.057a19.686,19.686,0,0,0-.82-2.871.449.449,0,0,1-.029-.047l1.908-6.677c-.248.029-.5.048-.725.067-.2.009-.391.009-.572.019-6.543.047-2.8-6.295-2.537-6.734a.129.129,0,0,1,.019-.029c2.861-4.768,5.723.954,5.723.954a18.167,18.167,0,0,0,2.985-1.45.759.759,0,0,0,.115-.076,11.1,11.1,0,0,0,3.576-2.995v6.486s3.815,1.307,0,3" transform="translate(-57.22 -69.458)" fill="#f8a257"/>
    <path id="Path_28945" data-name="Path 28945" d="M74.5,182.17a24.262,24.262,0,0,0,13.83,2.689s11.922,4.941,20.506,24.016c0,0,7.63,12.4,22.89,12.4l-2.861,12.4s-28.613,4.768-46.735-28.613l22.891,39.1S72.6,239.4,54.475,246.073l6.676-41.966-8.31,41.966s-5.544-1.323-11.3-2.277c0,0,4.956-55.423,24.2-62.817Z" transform="translate(-19.691 -85.779)" fill="#ba97fa"/>
    <path id="Path_28946" data-name="Path 28946" d="M207.552,271.345l2.512-10.886s15.995,1.348,23.432,10.886Z" transform="translate(-98.374 -123.45)" fill="#f8a257"/>
    <path id="Path_28947" data-name="Path 28947" d="M106.031,137.745a11.1,11.1,0,0,1-3.576,2.995.762.762,0,0,1-.115.076,25.005,25.005,0,0,1-2.985,1.45s-2.862-5.723-5.723-.954a.114.114,0,0,0-.019.029c-.267.439-4.006,6.781,2.537,6.733.181-.009.372-.009.572-.019.229-.009.467-.038.725-.067l-1.908,6.676a.418.418,0,0,0,.029.048,19.687,19.687,0,0,1,.82,2.871c.134.649.267,1.392.353,2.2.458,4.34-1.38,25.505-26.887,21.279a12.356,12.356,0,0,1-8.34-6.04,4.42,4.42,0,0,1-.538-1.612l0-.016c-.515-3.977-1.535-21.489,18.3-30.7,0,0,2.145-10.507,10.9-13.427,8.634-2.878,13.239-.383,15.924,2.11,1.012.939,2.139,3.3-.074,6.367" transform="translate(-28.804 -60.659)"/>
    <path id="Path_28948" data-name="Path 28948" d="M276.968,465.158s-4.65,11.6-2.743,14.459h42.91l-.951-1.591a15.2,15.2,0,0,0-5.049-5.126L291.16,460.542l-8.351,6.676-4.768-2.862Z" transform="translate(-129.757 -218.284)" fill="#dad2ff"/>
    <path id="Path_28949" data-name="Path 28949" d="M279.079,459.475l1.48,2.854,2.107,1.264a4.466,4.466,0,0,0,5.087-.341l5.926-4.738-4.056-5.269Z" transform="translate(-132.275 -214.825)" fill="#f8a257"/>
    <path id="Path_28950" data-name="Path 28950" d="M327.116,244.628h-33.6v-2.275h32.469l10.35-35.046s2.1-3.764,6.3-3.313L328.9,244.628Z" transform="translate(-139.116 -96.67)" fill="#5535c3"/>
    <path id="Path_28951" data-name="Path 28951" d="M416.121,244.692l-56.918-.086,8.779-35.425c.881-3.362,3.3-5.276,6.154-5.271l48.437.073c1.829,0,3.152,2,2.649,4Z" transform="translate(-170.252 -96.647)" fill="#5535c3"/>
    <path id="Path_28952" data-name="Path 28952" d="M421.379,244.075a5.04,5.04,0,0,1-4.51,3.8c-1.956-.011-3.108-1.729-2.573-3.838a5.04,5.04,0,0,1,4.51-3.8c1.956.011,3.108,1.729,2.573,3.838" transform="translate(-196.302 -113.865)" fill="#c1b0ff"/>
    <path id="Path_28953" data-name="Path 28953" d="M411.584,464.168l.954,5.723-3.815,2.861-9.985-3.1-.507-4.531Z" transform="translate(-188.75 -220.002)" fill="#f8a257"/>
    <path id="Path_28954" data-name="Path 28954" d="M500.675,162.655l1.774-5.618.649,8.117c-2.337-1.326-2.422-2.5-2.422-2.5" transform="translate(-237.305 -74.431)" fill="#efa47c"/>
    <path id="Path_28955" data-name="Path 28955" d="M516.217,157.7a9.179,9.179,0,0,0,4.044,6.371,9.034,9.034,0,0,1-6.114,3.119,8.11,8.11,0,0,1-1.268.009,9.09,9.09,0,0,1-8.488-8.317l-.706-8.708-.372-4.6a8.791,8.791,0,0,1,.267-3.014,28.6,28.6,0,0,0,5.961,3.691c0,5.723,2.861,7.63,2.861,7.63.954,0,1.908-2.861,1.908-2.861,2.861-5.723,6.676-1.907,6.676-1.907,3.815,6.676-4.769,8.584-4.769,8.584" transform="translate(-238.541 -67.573)" fill="#f8a257"/>
    <path id="Path_28956" data-name="Path 28956" d="M540.125,190.436h-17.2l-1.4-3.853a8.117,8.117,0,0,0,1.269-.009,9.031,9.031,0,0,0,6.114-3.119h.019a11.324,11.324,0,0,0,7.382,1.259Z" transform="translate(-247.188 -86.952)" fill="#f8a257"/>
    <path id="Path_28957" data-name="Path 28957" d="M468.038,216.743a117.662,117.662,0,0,0,11.029-12.967c4.231-6.109,18.507-7.062,18.507-7.062h17.2s16.214-.954,17.168,12.4l.477,9.06-47.212-.852-3.815,11.82Z" transform="translate(-221.837 -93.23)" fill="#efebf7"/>
    <path id="Path_28958" data-name="Path 28958" d="M404.032,378.924H380.827L379.285,311.5a17.383,17.383,0,0,1,2.444-9.4,15.533,15.533,0,0,1,4.348-4.707,14.9,14.9,0,0,1,7.442-2.621l34.358-2.645,6.37-10.832-6.864,33.3-26.669-.384Z" transform="translate(-179.768 -133.327)" fill="#5535c3"/>
    <path id="Path_28959" data-name="Path 28959" d="M438.227,409.149H461.8l-6.577-67.1H433.313Z" transform="translate(-205.378 -162.122)" fill="#5535c3"/>
    <path id="Path_28960" data-name="Path 28960" d="M475.952,472.028l-3.815,3.815-9.537-2.862v-3.3h13.079Z" transform="translate(-219.258 -222.617)" fill="#f8a257"/>
    <path id="Path_28961" data-name="Path 28961" d="M380.692,470.967,364,479.3a7.027,7.027,0,0,0-3.678,4.582l-.169.678h36.771l-2.435-13.353-.117.088a9.048,9.048,0,0,1-8.112,1.4Z" transform="translate(-170.703 -223.225)" fill="#efebf7"/>
    <path id="Path_28962" data-name="Path 28962" d="M454.092,470.514l2.892,13.83h-40.5l24.26-12.876,5.9,1.77a6.359,6.359,0,0,0,6.324-1.594Z" transform="translate(-197.399 -223.01)" fill="#efebf7"/>
    <path id="Path_28963" data-name="Path 28963" d="M527.438,155.51a11.326,11.326,0,0,1-7.382-1.259h-.019a9.18,9.18,0,0,1-4.044-6.371s8.584-1.908,4.769-8.584c0,0-3.815-3.815-6.676,1.908,0,0-.954,2.861-1.907,2.861,0,0-2.862-1.907-2.862-7.63a28.619,28.619,0,0,1-5.961-3.691s-2.042-3.2,1.762-7.881c2.494-3.07,13.43-5.948,21.3,2.878,0,0,5.564,1.151,7.483,7.866s-1.343,16.116-6.459,19.9" transform="translate(-238.316 -57.749)"/>
    <path id="Path_28964" data-name="Path 28964" d="M430.628,200.06s-.954-7.63-2.861-8.584-1.908,5.723-1.908,5.723l-4.769-9.538s-5.094,1.908-3.5,12.4L435.4,231.534s7.63,11.445,18.122.954l2.385-9.061-9.949-9.135-1.02,2.936Z" transform="translate(-197.779 -88.946)" fill="#f8a257"/>
    <path id="Path_28965" data-name="Path 28965" d="M324.326,40.633c0,5.762-4.108,10.433-9.174,10.433s-9.175-4.671-9.175-10.433S310.085,30.2,315.152,30.2s9.174,4.671,9.174,10.433" transform="translate(-145.024 -14.314)" fill="#e0792b"/>
    <path id="Path_28966" data-name="Path 28966" d="M236.6,234.493l-.3.954H217.919c.1-.309.2-.628.3-.954Z" transform="translate(-103.287 -111.143)"/>
    <path id="Path_28967" data-name="Path 28967" d="M243.938,234.622l.708-3.33h18.861l.685,3.33Z" transform="translate(-115.619 -109.625)" fill="#ba97fa"/>
    <path id="Path_28968" data-name="Path 28968" d="M245.284,237.619l1.558,23.224h15.65l1.2-23.222Z" transform="translate(-116.257 -112.624)" fill="#5535c3"/>
    <path id="Path_28969" data-name="Path 28969" d="M246.222,249.571l17.655-2.264-.739,14.24-16.194-1.212-.7-10.467" transform="translate(-116.702 -117.216)" fill="#ba97fa"/>
    <path id="Path_28970" data-name="Path 28970" d="M414.45,143.109l-.384.768-13.623-11.128.576-1.151Z" transform="translate(-189.799 -62.373)"/>
    <path id="Path_28971" data-name="Path 28971" d="M565.545,396.952h-4.783L521.572,286.133l9.535-.192Z" transform="translate(-247.21 -135.528)" fill="#9283dd"/>
    <path id="Path_28972" data-name="Path 28972" d="M0,396.952H4.783L43.972,286.133l-9.534-.192Z" transform="translate(0 -135.528)" fill="#9283dd"/>
    <rect id="Rectangle_10464" data-name="Rectangle 10464" width="313.103" height="13.992" transform="translate(2.616 147.988)" fill="#9283dd"/>
    <path id="Path_28973" data-name="Path 28973" d="M537.949,222.963l-11.174,57.962a6.946,6.946,0,0,1-6.82,5.63H468.5a7.138,7.138,0,0,0,7.016-5.811l11.217-59.221h50.032a1.21,1.21,0,0,1,1.188,1.441" transform="translate(-222.054 -104.995)" fill="#c1b0ff"/>
    <path id="Path_28974" data-name="Path 28974" d="M463.77,221.522l-11.217,59.222a7.138,7.138,0,0,1-7.015,5.81h-25.48v-.682a6.753,6.753,0,0,1,6.54-6.75l15.267-.48a6.738,6.738,0,0,0,6.359-5.241l11-48.421a4.442,4.442,0,0,1,4.331-3.458Z" transform="translate(-199.095 -104.995)" fill="#dad2ff"/>
    <path id="Path_28975" data-name="Path 28975" d="M490.689,350.653a7.248,7.248,0,0,0-7.147-6.22H414.988a7.2,7.2,0,0,0-7.118,6.036l-11.738,74.116h3.78l5.756-36.344h25.865l-5.756,36.344h3.78l5.756-36.344H462.2l4.764,36.344h3.764l-4.762-36.344h25.879l4.764,36.344h3.764Zm-58.566,33.856H406.259l5.3-33.438a3.469,3.469,0,0,1,3.434-2.9h23.325a7.263,7.263,0,0,0-.8,2.3Zm3.78,0,5.3-33.438a3.47,3.47,0,0,1,3.434-2.9H453.9a3.492,3.492,0,0,1,3.446,2.987l4.37,33.355Zm29.578,0-4.438-33.856a7.082,7.082,0,0,0-.833-2.487h23.332a3.492,3.492,0,0,1,3.446,2.987l4.371,33.355Z" transform="translate(-187.755 -163.251)" fill="#c1b0ff"/>
    <path id="Path_28976" data-name="Path 28976" d="M29.709,222.963l11.174,57.962a6.946,6.946,0,0,0,6.82,5.63H99.161a7.138,7.138,0,0,1-7.016-5.811L80.929,221.522H30.9a1.21,1.21,0,0,0-1.188,1.441" transform="translate(-14.07 -104.995)" fill="#c1b0ff"/>
    <path id="Path_28977" data-name="Path 28977" d="M127.1,221.522l11.217,59.222a7.138,7.138,0,0,0,7.015,5.81h25.48v-.682a6.753,6.753,0,0,0-6.54-6.75L149,278.642a6.738,6.738,0,0,1-6.359-5.241l-11-48.421a4.442,4.442,0,0,0-4.331-3.458Z" transform="translate(-60.242 -104.995)" fill="#dad2ff"/>
    <path id="Path_28978" data-name="Path 28978" d="M45.639,350.653a7.248,7.248,0,0,1,7.147-6.22H121.34a7.2,7.2,0,0,1,7.118,6.036L140.2,424.585h-3.78l-5.756-36.344H104.8l5.756,36.344h-3.78l-5.756-36.344H74.125l-4.764,36.344H65.6l4.762-36.344H44.48l-4.764,36.344H35.952ZM104.2,384.509H130.07l-5.3-33.438a3.469,3.469,0,0,0-3.434-2.9H98.016a7.262,7.262,0,0,1,.8,2.3Zm-3.78,0-5.3-33.438a3.47,3.47,0,0,0-3.434-2.9H82.43a3.492,3.492,0,0,0-3.446,2.987l-4.37,33.355Zm-29.578,0,4.438-33.856a7.082,7.082,0,0,1,.833-2.487H52.786a3.492,3.492,0,0,0-3.446,2.987l-4.371,33.355Z" transform="translate(-17.04 -163.251)" fill="#c1b0ff"/>
    <path id="Path_28979" data-name="Path 28979" d="M69.15,329.6c2.311-13.569,7.326-36.787,10.744-43.8s8.611-6.077,10.657-3.592,5.38,12.878,2.12,26.053c-2.934,11.857-7.809,32.495-7.809,32.495Z" transform="translate(-32.775 -132.887)" fill="#d9ceff"/>
    <path id="Path_28980" data-name="Path 28980" d="M93.4,293.275c-2.511,15.12-5.3,30.215-8.9,45.116-.229.875-.6,2.157-.906,3.007l-1.335-.54.5-1.385c2.208-7.311,3.828-14.792,5.55-22.231,1.833-7.916,3.455-16.139,5.1-23.966" transform="translate(-38.988 -139.004)" fill="#e8e5f5"/>
    <path id="Path_28981" data-name="Path 28981" d="M38.77,384.841c.472,1.937.888,3.635,1.254,5.121l-22.506-6.368c-5.1-6.635-14.429-23.007-15.268-27.85C.527,345.8,5.649,341.329,11.333,340a11.87,11.87,0,0,1,10.538,2.642,19.392,19.392,0,0,1,2.006,1.875l.115.125h0a26.147,26.147,0,0,1,2.094,2.613q.572.808,1.14,1.728c.138.221.274.446.409.678a46.846,46.846,0,0,1,2.266,4.383q.156.342.312.695.286.653.57,1.34.8,1.942,1.577,4.186.439,1.276.867,2.655.923,2.972,1.786,6.443.1.388.192.782l.167.692,0,.01.084.348q.545,2.258,1.037,4.288.382,1.571.731,3.014l.021.086q.208.852.4,1.66c.385,1.583.74,3.042,1.068,4.387.016.069.033.139.051.208" transform="translate(-0.906 -161.001)" fill="#c2abff"/>
    <path id="Path_28982" data-name="Path 28982" d="M35.1,390.656a142.71,142.71,0,0,0-7.006-19.916,50.867,50.867,0,0,0-2.973-5.618,23.7,23.7,0,0,0-5.988-7.154,19.434,19.434,0,0,0-2.744-1.549.621.621,0,1,1,.651-1.056c.374.227.911.475,1.382.753,7.055,4.085,11.569,16.954,13.744,23.86.642,2.054,1.532,5.031,2.047,7.1l.952,3.566a.034.034,0,0,1-.066.017" transform="translate(-7.617 -168.382)" fill="#dad3f1"/>
    <path id="Path_28983" data-name="Path 28983" d="M81.617,393.716l-17.2-9.926c-.026-.565-.046-1.144-.059-1.732-.062-2.509-.018-5.209.122-8.005q.065-1.276.157-2.575c.079-1.14.175-2.292.285-3.449.011-.115.022-.23.034-.345,0-.006,0-.013,0-.018q.058-.6.123-1.2c.26-2.433.584-4.877.97-7.275q.209-1.306.443-2.589.188-1.034.391-2.05.3-1.494.631-2.937.391-1.705.826-3.317.392-1.458.819-2.822c.387-1.238.8-2.413,1.223-3.511.157-.4.316-.794.478-1.174q.282-.667.577-1.287.214-.452.435-.878c1.375-2.666,2.908-4.544,4.575-5.289h0a3.859,3.859,0,0,1,1.88-.344c.09.006.18.016.27.029h0a4.082,4.082,0,0,1,1.241.386,4.848,4.848,0,0,1,.8.5,8.568,8.568,0,0,1,2.221,2.737,17.519,17.519,0,0,1,1.032,2.261,27.328,27.328,0,0,1,.838,2.6c.073.267.143.541.212.821q.133.544.256,1.114c.2.914.374,1.876.528,2.881.115.737.217,1.5.308,2.28q.1.866.183,1.769c.007.075.015.151.021.227.215,2.436.327,5.047.334,7.784.006,1.714-.03,3.477-.108,5.275q-.074,1.752-.2,3.545-.065.927-.146,1.864-.094,1.09-.206,2.192-.18,1.754-.409,3.53-.206,1.6-.453,3.2-.366,2.394-.825,4.788-.228,1.2-.48,2.389c-.609,2.891-1.319,5.753-2.131,8.543" transform="translate(-30.49 -157.825)" fill="#d6c5f4"/>
    <path id="Path_28984" data-name="Path 28984" d="M81.378,392.753c4.125-16.636,5.262-34.023,4.857-51.115a.58.58,0,0,1,1.16,0c-.006,17.044-1.389,34.866-6.018,51.116" transform="translate(-38.571 -161.653)" fill="#eae5f8"/>
    <path id="Path_28985" data-name="Path 28985" d="M65.689,367.518l-20.4-11.774c-.046-1.772-.127-3.7-.235-5.736-.075-1.392-.163-2.836-.26-4.323q-.09-1.365-.191-2.776c-.128-1.795-.269-3.636-.418-5.505q-.144-1.8-.3-3.635c-.162-1.947-.331-3.907-.5-5.861q-.095-1.082-.189-2.156-.1-1.135-.2-2.26c-.162-1.831-.324-3.64-.479-5.411h0c-.008-.094-.017-.188-.025-.282-.139-1.587-.275-3.143-.4-4.652-.857-10.045-1.417-18.085-.9-20.247,1.388-5.822,4.779-11.969,8.722-8.007.791.8,2.143,3.765,3.743,8.216.373,1.037.76,2.157,1.156,3.347.632,1.9,1.288,3.979,1.951,6.207q.175.586.35,1.186.308,1.051.617,2.141c.585,2.07,1.171,4.241,1.745,6.485q.351,1.373.695,2.78c.07.287.142.574.21.863q.155.648.312,1.3c.095.4.187.8.282,1.2.444,1.923.876,3.883,1.289,5.866q.406,1.959.786,3.945c.01.046.019.094.026.14q.178.926.348,1.857.3,1.67.585,3.349c.031.185.061.371.091.555.071.426.139.85.206,1.275q.139.882.271,1.765.114.766.222,1.53c.084.6.167,1.2.245,1.8q.231,1.752.422,3.488.143,1.283.261,2.552.043.436.08.871c.235,2.66.393,5.269.456,7.794.006.238.012.474.016.71q.018,1,.017,1.974,0,1.012-.027,2c-.009.41-.024.816-.039,1.22-.087,2.168-.261,4.246-.535,6.2" transform="translate(-19.426 -134.434)" fill="#d3b6f3"/>
    <path id="Path_28986" data-name="Path 28986" d="M61.526,370.107c-.426-22.632-2.666-45.365-8.451-67.291a1.378,1.378,0,1,1,2.677-.652c4.878,22.18,6.453,45.475,5.774,67.943" transform="translate(-25.132 -142.698)" fill="#e8e1f2"/>
    <path id="Path_28987" data-name="Path 28987" d="M57.626,397.186,45.036,389.92c-.481-3.383-.941-7.035-1.3-10.524q-.1-.974-.191-1.931h0q-.043-.45-.083-.893c-.175-1.953-.31-3.81-.391-5.49-.065-1.355-.094-2.593-.08-3.672a21.463,21.463,0,0,1,.161-2.592c.018-.138.04-.27.063-.393a27.17,27.17,0,0,1,.927-3.806c.584-1.713,1.38-2.99,2.555-3.33a2.372,2.372,0,0,1,.848-.083,5.864,5.864,0,0,1,3.106,1.576,11.542,11.542,0,0,1,.863.8,16.994,16.994,0,0,1,2.154,2.768,25.659,25.659,0,0,1,1.9,3.632c.024.056.048.113.072.17q.389.92.743,1.93a40.254,40.254,0,0,1,1.525,5.77l.014.074q.168.895.308,1.834.255,1.725.4,3.6c.019.242.037.485.052.731.109,1.687.147,3.463.1,5.323-.006.228-.012.458-.021.689q-.032.941-.093,1.912c-.1,1.584-.257,3.225-.48,4.92,0,.026-.006.051-.01.077s-.01.077-.015.115c-.2,1.531-.38,2.878-.536,4.06" transform="translate(-20.374 -169.301)" fill="#d9c6ef"/>
    <path id="Path_28988" data-name="Path 28988" d="M54.566,369.37c1.658,4.822,2.111,9.991,2.563,15.043a136.727,136.727,0,0,1,.331,15.258h-.068c-.871-10.076-1.441-20.4-2.826-30.3" transform="translate(-25.863 -175.071)" fill="#e6e5f8"/>
    <path id="Path_28989" data-name="Path 28989" d="M17.44,417.734h49.5l-7.812,41.684H24.91Z" transform="translate(-8.266 -197.994)" fill="#321689"/>
  </g>
</svg>
