<svg xmlns="http://www.w3.org/2000/svg" xmlns:xlink="http://www.w3.org/1999/xlink" width="373.811" height="347.719" viewBox="0 0 373.811 347.719">
  <defs>
    <linearGradient id="linear-gradient" x1="0.865" y1="0.129" x2="0.114" y2="0.819" gradientUnits="objectBoundingBox">
      <stop offset="0" stop-color="#15c6fc"/>
      <stop offset="0.507" stop-color="#377de3"/>
      <stop offset="1" stop-color="#5b2ec9"/>
    </linearGradient>
    <clipPath id="clip-path">
      <path id="Path_30866" data-name="Path 30866" d="M61.6,181.673A127.875,127.875,0,1,0,189.478,53.8,127.876,127.876,0,0,0,61.6,181.673" fill="url(#linear-gradient)"/>
    </clipPath>
    <clipPath id="clip-path-2">
      <rect id="Rectangle_10667" data-name="Rectangle 10667" width="10.539" height="20.178" transform="translate(209.76 237.071)" fill="none"/>
    </clipPath>
    <clipPath id="clip-path-3">
      <rect id="Rectangle_10668" data-name="Rectangle 10668" width="5.27" height="9.768" transform="translate(216.314 216.25)" fill="none"/>
    </clipPath>
    <clipPath id="clip-path-4">
      <rect id="Rectangle_10669" data-name="Rectangle 10669" width="5.012" height="9.126" transform="translate(208.346 191.701)" fill="none"/>
    </clipPath>
    <clipPath id="clip-path-5">
      <rect id="Rectangle_10672" data-name="Rectangle 10672" width="7.326" height="20.109" transform="translate(151.473 237.076)" fill="none"/>
    </clipPath>
    <clipPath id="clip-path-6">
      <rect id="Rectangle_10673" data-name="Rectangle 10673" width="3.856" height="9.254" transform="translate(148.003 224.54)" fill="none"/>
    </clipPath>
    <clipPath id="clip-path-7">
      <rect id="Rectangle_10674" data-name="Rectangle 10674" width="3.985" height="9.382" transform="translate(158.799 208.86)" fill="none"/>
    </clipPath>
    <clipPath id="clip-path-8">
      <rect id="Rectangle_10675" data-name="Rectangle 10675" width="5.013" height="10.018" transform="translate(172.937 218.117)" fill="none"/>
    </clipPath>
    <clipPath id="clip-path-9">
      <rect id="Rectangle_10676" data-name="Rectangle 10676" width="3.984" height="8.482" transform="translate(182.898 177.05)" fill="none"/>
    </clipPath>
  </defs>
  <g id="Group_18237" data-name="Group 18237" transform="translate(-28 -7852)">
    <path id="Path_30887" data-name="Path 30887" d="M74.1,118.049a1.165,1.165,0,1,1-1.165-1.165,1.165,1.165,0,0,1,1.165,1.165" transform="translate(28 7852)" fill="#fff" opacity="0.3"/>
    <path id="Path_30888" data-name="Path 30888" d="M65.93,80.221a1.165,1.165,0,1,1-1.165-1.165,1.165,1.165,0,0,1,1.165,1.165" transform="translate(28 7852)" fill="#fff" opacity="0.3"/>
    <path id="Path_30889" data-name="Path 30889" d="M77.449,281.365a1.165,1.165,0,1,1-1.165-1.165,1.165,1.165,0,0,1,1.165,1.165" transform="translate(28 7852)" fill="#fff" opacity="0.3"/>
    <path id="Path_30890" data-name="Path 30890" d="M41.715,251.247a1.165,1.165,0,1,1-1.165-1.165,1.165,1.165,0,0,1,1.165,1.165" transform="translate(28 7852)" fill="#fff" opacity="0.3"/>
    <path id="Path_30891" data-name="Path 30891" d="M83.335,309.362A1.165,1.165,0,1,1,82.17,308.2a1.165,1.165,0,0,1,1.165,1.165" transform="translate(28 7852)" fill="#fff" opacity="0.3"/>
    <path id="Path_30892" data-name="Path 30892" d="M39.664,272.056a1.165,1.165,0,1,1-1.165-1.165,1.165,1.165,0,0,1,1.165,1.165" transform="translate(28 7852)" fill="#fff" opacity="0.3"/>
    <path id="Path_30893" data-name="Path 30893" d="M43.967,195a1.165,1.165,0,1,1-1.165-1.165A1.165,1.165,0,0,1,43.967,195" transform="translate(28 7852)" fill="#fff" opacity="0.3"/>
    <path id="Path_30894" data-name="Path 30894" d="M64.253,224.738a1.165,1.165,0,1,1-1.165-1.165,1.165,1.165,0,0,1,1.165,1.165" transform="translate(28 7852)" fill="#fff" opacity="0.3"/>
    <path id="Path_30895" data-name="Path 30895" d="M322.2,30.386a1.165,1.165,0,1,1-1.165-1.165,1.165,1.165,0,0,1,1.165,1.165" transform="translate(28 7852)" fill="#fff" opacity="0.3"/>
    <path id="Path_30896" data-name="Path 30896" d="M102.084,293.006a2.5,2.5,0,1,1-2.5-2.5,2.5,2.5,0,0,1,2.5,2.5" transform="translate(28 7852)" fill="#fff" opacity="0.3"/>
    <path id="Path_30897" data-name="Path 30897" d="M114.2,309.523a2.313,2.313,0,1,1-2.313-2.313,2.313,2.313,0,0,1,2.313,2.313" transform="translate(28 7852)" fill="#fff" opacity="0.3"/>
    <path id="Path_30898" data-name="Path 30898" d="M114.388,321.966a1.165,1.165,0,1,1-1.165-1.165,1.165,1.165,0,0,1,1.165,1.165" transform="translate(28 7852)" fill="#fff" opacity="0.3"/>
    <path id="Path_30899" data-name="Path 30899" d="M135.441,315.249a1.165,1.165,0,1,1-1.165-1.165,1.165,1.165,0,0,1,1.165,1.165" transform="translate(28 7852)" fill="#fff" opacity="0.3"/>
    <path id="Path_30900" data-name="Path 30900" d="M278.374,289.725a1.165,1.165,0,1,1-1.165-1.165,1.165,1.165,0,0,1,1.165,1.165" transform="translate(28 7852)" fill="#fff" opacity="0.3"/>
    <path id="Path_30901" data-name="Path 30901" d="M95.624,273.39a1.165,1.165,0,1,1-1.165-1.165,1.165,1.165,0,0,1,1.165,1.165" transform="translate(28 7852)" fill="#fff" opacity="0.3"/>
    <path id="Path_30902" data-name="Path 30902" d="M285.269,313.96A1.165,1.165,0,1,1,284.1,312.8a1.165,1.165,0,0,1,1.165,1.165" transform="translate(28 7852)" fill="#fff" opacity="0.3"/>
    <path id="Path_30903" data-name="Path 30903" d="M304.591,277.4a1.9,1.9,0,1,1-1.9-1.9,1.9,1.9,0,0,1,1.9,1.9" transform="translate(28 7852)" fill="#fff" opacity="0.3"/>
    <path id="Path_30904" data-name="Path 30904" d="M62.075,250.021a1.165,1.165,0,1,1-1.165-1.165,1.165,1.165,0,0,1,1.165,1.165" transform="translate(28 7852)" fill="#fff" opacity="0.3"/>
    <path id="Path_30905" data-name="Path 30905" d="M185.1,336.2a2.26,2.26,0,1,1-2.261-2.261A2.261,2.261,0,0,1,185.1,336.2" transform="translate(28 7852)" fill="#fff" opacity="0.3"/>
    <path id="Path_30906" data-name="Path 30906" d="M73.955,97.785A1.165,1.165,0,1,1,72.79,96.62a1.165,1.165,0,0,1,1.165,1.165" transform="translate(28 7852)" fill="#fff" opacity="0.3"/>
    <path id="Path_30907" data-name="Path 30907" d="M52.005,235.613a1.165,1.165,0,1,1-1.165-1.165,1.165,1.165,0,0,1,1.165,1.165" transform="translate(28 7852)" fill="#fff" opacity="0.3"/>
    <path id="Path_30908" data-name="Path 30908" d="M43.986,118.24a1.165,1.165,0,1,1-1.165-1.165,1.165,1.165,0,0,1,1.165,1.165" transform="translate(28 7852)" fill="#fff" opacity="0.3"/>
    <path id="Path_30909" data-name="Path 30909" d="M159.864,314.263A1.165,1.165,0,1,1,158.7,313.1a1.165,1.165,0,0,1,1.165,1.165" transform="translate(28 7852)" fill="#fff" opacity="0.3"/>
    <path id="Path_30910" data-name="Path 30910" d="M339.727,99.312a1.165,1.165,0,1,1-1.165-1.165,1.165,1.165,0,0,1,1.165,1.165" transform="translate(28 7852)" fill="#fff" opacity="0.3"/>
    <path id="Path_30911" data-name="Path 30911" d="M310.19,111.729a1.165,1.165,0,1,1-1.165-1.165,1.165,1.165,0,0,1,1.165,1.165" transform="translate(28 7852)" fill="#fff" opacity="0.3"/>
    <path id="Path_30912" data-name="Path 30912" d="M251.087,46.4a1.165,1.165,0,1,1-1.165-1.165,1.165,1.165,0,0,1,1.165,1.165" transform="translate(28 7852)" fill="#fff" opacity="0.3"/>
    <path id="Path_30913" data-name="Path 30913" d="M320.8,132.794a2.307,2.307,0,1,1-2.307-2.307,2.307,2.307,0,0,1,2.307,2.307" transform="translate(28 7852)" fill="#fff" opacity="0.3"/>
    <path id="Path_30914" data-name="Path 30914" d="M186.041,37.237a1.165,1.165,0,1,1-1.165-1.165,1.165,1.165,0,0,1,1.165,1.165" transform="translate(28 7852)" fill="#fff" opacity="0.3"/>
    <path id="Path_30915" data-name="Path 30915" d="M156.74,21.545a1.165,1.165,0,1,1-1.165-1.165,1.165,1.165,0,0,1,1.165,1.165" transform="translate(28 7852)" fill="#fff" opacity="0.3"/>
    <path id="Path_30916" data-name="Path 30916" d="M215.632,50.608a1.166,1.166,0,1,1-1.166-1.165,1.166,1.166,0,0,1,1.166,1.165" transform="translate(28 7852)" fill="#fff" opacity="0.3"/>
    <path id="Path_30917" data-name="Path 30917" d="M233.664,22.545A1.165,1.165,0,1,1,232.5,21.38a1.165,1.165,0,0,1,1.165,1.165" transform="translate(28 7852)" fill="#fff" opacity="0.3"/>
    <path id="Path_30918" data-name="Path 30918" d="M294.1,74.7a1.165,1.165,0,1,1-1.165-1.165A1.165,1.165,0,0,1,294.1,74.7" transform="translate(28 7852)" fill="#fff" opacity="0.3"/>
    <path id="Path_30919" data-name="Path 30919" d="M334.423,177.818a1.165,1.165,0,1,1-1.165-1.165,1.165,1.165,0,0,1,1.165,1.165" transform="translate(28 7852)" fill="#fff" opacity="0.3"/>
    <path id="Path_30920" data-name="Path 30920" d="M321.151,233.97a1.165,1.165,0,1,1-1.165-1.165,1.165,1.165,0,0,1,1.165,1.165" transform="translate(28 7852)" fill="#fff" opacity="0.3"/>
    <path id="Path_30921" data-name="Path 30921" d="M303.8,246.732a1.165,1.165,0,1,1-1.165-1.165,1.165,1.165,0,0,1,1.165,1.165" transform="translate(28 7852)" fill="#fff" opacity="0.3"/>
    <path id="Path_30922" data-name="Path 30922" d="M336.465,202.321a1.165,1.165,0,1,1-1.165-1.165,1.165,1.165,0,0,1,1.165,1.165" transform="translate(28 7852)" fill="#fff" opacity="0.3"/>
    <path id="Path_30923" data-name="Path 30923" d="M285.928,49.689a1.165,1.165,0,1,1-1.165-1.165,1.165,1.165,0,0,1,1.165,1.165" transform="translate(28 7852)" fill="#fff" opacity="0.3"/>
    <path id="Path_30924" data-name="Path 30924" d="M335.24,64.458a1.728,1.728,0,1,1-1.728-1.728,1.728,1.728,0,0,1,1.728,1.728" transform="translate(28 7852)" fill="#fff" opacity="0.3"/>
    <path id="Path_30925" data-name="Path 30925" d="M82.142,86.361A1.165,1.165,0,1,1,80.977,85.2a1.165,1.165,0,0,1,1.165,1.165" transform="translate(28 7852)" fill="#fff" opacity="0.3"/>
    <path id="Path_30926" data-name="Path 30926" d="M214.07,18.609a1.165,1.165,0,1,1-1.165-1.165,1.165,1.165,0,0,1,1.165,1.165" transform="translate(28 7852)" fill="#fff" opacity="0.3"/>
    <path id="Path_30927" data-name="Path 30927" d="M331.368,278.37A1.165,1.165,0,1,1,330.2,277.2a1.165,1.165,0,0,1,1.165,1.165" transform="translate(28 7852)" fill="#fff" opacity="0.3"/>
    <path id="Path_30928" data-name="Path 30928" d="M267.942,346.554a1.165,1.165,0,1,1-1.165-1.165,1.165,1.165,0,0,1,1.165,1.165" transform="translate(28 7852)" fill="#fff" opacity="0.3"/>
    <path id="Path_30929" data-name="Path 30929" d="M341.525,221.879a2.04,2.04,0,1,1-2.04-2.04,2.04,2.04,0,0,1,2.04,2.04" transform="translate(28 7852)" fill="#fff" opacity="0.3"/>
    <path id="Path_30930" data-name="Path 30930" d="M329.5,119.552a1.165,1.165,0,1,1-1.165-1.165,1.165,1.165,0,0,1,1.165,1.165" transform="translate(28 7852)" fill="#fff" opacity="0.3"/>
    <path id="Path_30931" data-name="Path 30931" d="M203.5,3.552a1.165,1.165,0,1,1-1.165-1.165A1.165,1.165,0,0,1,203.5,3.552" transform="translate(28 7852)" fill="#fff" opacity="0.3"/>
    <path id="Path_30932" data-name="Path 30932" d="M321.329,188.466a1.165,1.165,0,1,1-1.165-1.165,1.165,1.165,0,0,1,1.165,1.165" transform="translate(28 7852)" fill="#fff" opacity="0.3"/>
    <path id="Path_30933" data-name="Path 30933" d="M308.928,305.84a1.165,1.165,0,1,1-1.165-1.165,1.165,1.165,0,0,1,1.165,1.165" transform="translate(28 7852)" fill="#fff" opacity="0.3"/>
    <path id="Path_30934" data-name="Path 30934" d="M226.193,338.484a1.165,1.165,0,1,1-1.165-1.165,1.165,1.165,0,0,1,1.165,1.165" transform="translate(28 7852)" fill="#fff" opacity="0.3"/>
    <path id="Path_30935" data-name="Path 30935" d="M103.634,47.924a2.011,2.011,0,1,1-2.011-2.011,2.011,2.011,0,0,1,2.011,2.011" transform="translate(28 7852)" fill="#fff" opacity="0.3"/>
    <path id="Path_30936" data-name="Path 30936" d="M72.124,243.094a1.165,1.165,0,1,1-1.165-1.165,1.165,1.165,0,0,1,1.165,1.165" transform="translate(28 7852)" fill="#fff" opacity="0.3"/>
    <path id="Path_30937" data-name="Path 30937" d="M70.563,265.5a1.961,1.961,0,1,1-1.96-1.96,1.96,1.96,0,0,1,1.96,1.96" transform="translate(28 7852)" fill="#fff" opacity="0.3"/>
    <path id="Path_30938" data-name="Path 30938" d="M24.189,143.886a.5.5,0,1,1-.5-.5.5.5,0,0,1,.5.5" transform="translate(28 7852)" fill="#fff" opacity="0.3"/>
    <path id="Path_30939" data-name="Path 30939" d="M65.14,284.43a.5.5,0,1,1-.5-.5.5.5,0,0,1,.5.5" transform="translate(28 7852)" fill="#fff" opacity="0.3"/>
    <path id="Path_30940" data-name="Path 30940" d="M134.565,303.828a.5.5,0,1,1-.5-.5.5.5,0,0,1,.5.5" transform="translate(28 7852)" fill="#fff" opacity="0.3"/>
    <path id="Path_30941" data-name="Path 30941" d="M267.169,25.87a.5.5,0,1,1-.5-.5.5.5,0,0,1,.5.5" transform="translate(28 7852)" fill="#fff" opacity="0.3"/>
    <path id="Path_30942" data-name="Path 30942" d="M363.826,236.94a.5.5,0,1,1-.5-.5.5.5,0,0,1,.5.5" transform="translate(28 7852)" fill="#fff" opacity="0.3"/>
    <path id="Path_30943" data-name="Path 30943" d="M60.438,190.012a.5.5,0,1,1-.5-.5.5.5,0,0,1,.5.5" transform="translate(28 7852)" fill="#fff" opacity="0.3"/>
    <path id="Path_30944" data-name="Path 30944" d="M1,231.255a.5.5,0,1,1-.5-.5.5.5,0,0,1,.5.5" transform="translate(28 7852)" fill="#fff" opacity="0.3"/>
    <path id="Path_30945" data-name="Path 30945" d="M315.074,93.348a.5.5,0,1,1-.5-.5.5.5,0,0,1,.5.5" transform="translate(28 7852)" fill="#fff" opacity="0.3"/>
    <path id="Path_30946" data-name="Path 30946" d="M329.371,252.745a.5.5,0,1,1-.5-.5.5.5,0,0,1,.5.5" transform="translate(28 7852)" fill="#fff" opacity="0.3"/>
    <path id="Path_30947" data-name="Path 30947" d="M293.638,287.458a.5.5,0,1,1-.5-.5.5.5,0,0,1,.5.5" transform="translate(28 7852)" fill="#fff" opacity="0.3"/>
    <path id="Path_30948" data-name="Path 30948" d="M330.522,304.3a.5.5,0,1,1-.5-.5.5.5,0,0,1,.5.5" transform="translate(28 7852)" fill="#fff" opacity="0.3"/>
    <path id="Path_30949" data-name="Path 30949" d="M250.888,308.891a.5.5,0,1,1-.5-.5.5.5,0,0,1,.5.5" transform="translate(28 7852)" fill="#fff" opacity="0.3"/>
    <path id="Path_30950" data-name="Path 30950" d="M262.629,295.619a.5.5,0,1,1-.5-.5.5.5,0,0,1,.5.5" transform="translate(28 7852)" fill="#fff" opacity="0.3"/>
    <path id="Path_30951" data-name="Path 30951" d="M269.672,69.572a.5.5,0,1,1-.5-.5.5.5,0,0,1,.5.5" transform="translate(28 7852)" fill="#fff" opacity="0.3"/>
    <path id="Path_30952" data-name="Path 30952" d="M202.723,40.715a.5.5,0,1,1-.5-.5.5.5,0,0,1,.5.5" transform="translate(28 7852)" fill="#fff" opacity="0.3"/>
    <path id="Path_30953" data-name="Path 30953" d="M47.99,94.972a.5.5,0,1,1-.5-.5.5.5,0,0,1,.5.5" transform="translate(28 7852)" fill="#fff" opacity="0.3"/>
    <path id="Path_30954" data-name="Path 30954" d="M158.946,40.382c0,.126.061.229.137.229s.137-.1.137-.229-.061-.229-.137-.229-.137.1-.137.229" transform="translate(28 7852)" fill="#fff" opacity="0.3"/>
    <path id="Path_30955" data-name="Path 30955" d="M127.618,61.133a.5.5,0,1,1-.5-.5.5.5,0,0,1,.5.5" transform="translate(28 7852)" fill="#fff" opacity="0.3"/>
    <path id="Path_30956" data-name="Path 30956" d="M49.447,162.871a.5.5,0,1,1-.5-.5.5.5,0,0,1,.5.5" transform="translate(28 7852)" fill="#fff" opacity="0.3"/>
    <path id="Path_30957" data-name="Path 30957" d="M54.041,208.814a.5.5,0,1,1-.5-.5.5.5,0,0,1,.5.5" transform="translate(28 7852)" fill="#fff" opacity="0.3"/>
    <path id="Path_30958" data-name="Path 30958" d="M97.707,66.861a.5.5,0,1,1-.5-.5.5.5,0,0,1,.5.5" transform="translate(28 7852)" fill="#fff" opacity="0.3"/>
    <path id="Path_30959" data-name="Path 30959" d="M41.044,183.25a.5.5,0,1,1-.5-.5.5.5,0,0,1,.5.5" transform="translate(28 7852)" fill="#fff" opacity="0.3"/>
    <path id="Path_30960" data-name="Path 30960" d="M76.353,41.467a.5.5,0,1,1-.5-.5.5.5,0,0,1,.5.5" transform="translate(28 7852)" fill="#fff" opacity="0.3"/>
    <path id="Path_30961" data-name="Path 30961" d="M294.41,83.665a.5.5,0,1,1-.5-.5.5.5,0,0,1,.5.5" transform="translate(28 7852)" fill="#fff" opacity="0.3"/>
    <path id="Path_30962" data-name="Path 30962" d="M239.278,57.631a.5.5,0,1,1-.5-.5.5.5,0,0,1,.5.5" transform="translate(28 7852)" fill="#fff" opacity="0.3"/>
    <path id="Path_30963" data-name="Path 30963" d="M294.92,102.553a.5.5,0,1,1-.5-.5.5.5,0,0,1,.5.5" transform="translate(28 7852)" fill="#fff" opacity="0.3"/>
    <path id="Path_30964" data-name="Path 30964" d="M64.7,116.871a.5.5,0,1,1-.5-.5.5.5,0,0,1,.5.5" transform="translate(28 7852)" fill="#fff" opacity="0.3"/>
    <path id="Path_30965" data-name="Path 30965" d="M101.174,79.083a.5.5,0,1,1-.5-.5.5.5,0,0,1,.5.5" transform="translate(28 7852)" fill="#fff" opacity="0.3"/>
    <path id="Path_30966" data-name="Path 30966" d="M1.21,121.216a.5.5,0,1,1-.5-.5.5.5,0,0,1,.5.5" transform="translate(28 7852)" fill="#fff" opacity="0.3"/>
    <path id="Path_30967" data-name="Path 30967" d="M373.811,181.553a.5.5,0,1,1-.5-.5.5.5,0,0,1,.5.5" transform="translate(28 7852)" fill="#fff" opacity="0.3"/>
    <path id="Path_30968" data-name="Path 30968" d="M87,97.5a.5.5,0,1,1-.5-.5.5.5,0,0,1,.5.5" transform="translate(28 7852)" fill="#fff" opacity="0.3"/>
    <path id="Path_30969" data-name="Path 30969" d="M353.576,196.55a.5.5,0,1,1-.5-.5.5.5,0,0,1,.5.5" transform="translate(28 7852)" fill="#fff" opacity="0.3"/>
    <path id="Path_30970" data-name="Path 30970" d="M357.415,137.558a.5.5,0,1,1-.5-.5.5.5,0,0,1,.5.5" transform="translate(28 7852)" fill="#fff" opacity="0.3"/>
    <path id="Path_30971" data-name="Path 30971" d="M61.807,148.582a.5.5,0,1,1-.5-.5.5.5,0,0,1,.5.5" transform="translate(28 7852)" fill="#fff" opacity="0.3"/>
    <path id="Path_30972" data-name="Path 30972" d="M101.167,20.058a1.393,1.393,0,1,1,1.393,1.393,1.393,1.393,0,0,1-1.393-1.393" transform="translate(28 7852)" fill="#fff" opacity="0.3"/>
    <path id="Path_30973" data-name="Path 30973" d="M112.059,76.366a.5.5,0,1,1-.5-.5.5.5,0,0,1,.5.5" transform="translate(28 7852)" fill="#fff" opacity="0.3"/>
    <path id="Path_30974" data-name="Path 30974" d="M134.935.5a.5.5,0,1,1-.5-.5.5.5,0,0,1,.5.5" transform="translate(28 7852)" fill="#fff" opacity="0.3"/>
    <path id="Path_30975" data-name="Path 30975" d="M136.3,42.892a.5.5,0,1,1-.5-.5.5.5,0,0,1,.5.5" transform="translate(28 7852)" fill="#fff" opacity="0.3"/>
    <path id="Path_30976" data-name="Path 30976" d="M169.2,53.28a.5.5,0,1,1-.5-.5.5.5,0,0,1,.5.5" transform="translate(28 7852)" fill="#fff" opacity="0.3"/>
    <path id="Path_30977" data-name="Path 30977" d="M334.363,133.606a.5.5,0,1,1-.5-.5.5.5,0,0,1,.5.5" transform="translate(28 7852)" fill="#fff" opacity="0.3"/>
    <path id="Path_30979" data-name="Path 30979" d="M318.539,162.193a.5.5,0,1,1-.5-.5.5.5,0,0,1,.5.5" transform="translate(28 7852)" fill="#fff" opacity="0.3"/>
    <path id="Path_30980" data-name="Path 30980" d="M339.249,234.906a.5.5,0,1,1-.5-.5.5.5,0,0,1,.5.5" transform="translate(28 7852)" fill="#fff" opacity="0.3"/>
    <path id="Path_30981" data-name="Path 30981" d="M347.009,165.554a.5.5,0,1,1-.5-.5.5.5,0,0,1,.5.5" transform="translate(28 7852)" fill="#fff" opacity="0.3"/>
    <path id="Path_30982" data-name="Path 30982" d="M294.428,320.635a.5.5,0,1,1-.5-.5.5.5,0,0,1,.5.5" transform="translate(28 7852)" fill="#fff" opacity="0.3"/>
    <path id="Path_30983" data-name="Path 30983" d="M211.421,325.509a.5.5,0,1,1-.5-.5.5.5,0,0,1,.5.5" transform="translate(28 7852)" fill="#fff" opacity="0.3"/>
    <path id="Path_30984" data-name="Path 30984" d="M229.6,309.4a.5.5,0,1,1-.5-.5.5.5,0,0,1,.5.5" transform="translate(28 7852)" fill="#fff" opacity="0.3"/>
    <path id="Path_30985" data-name="Path 30985" d="M267.315,317.212a.5.5,0,1,1-.5-.5.5.5,0,0,1,.5.5" transform="translate(28 7852)" fill="#fff" opacity="0.3"/>
    <path id="Path_30986" data-name="Path 30986" d="M187.17,312.617a.5.5,0,1,1-.5-.5.5.5,0,0,1,.5.5" transform="translate(28 7852)" fill="#fff" opacity="0.3"/>
    <path id="Path_30987" data-name="Path 30987" d="M291.254,304.654a.5.5,0,1,1-.5-.5.5.5,0,0,1,.5.5" transform="translate(28 7852)" fill="#fff" opacity="0.3"/>
    <path id="Path_30988" data-name="Path 30988" d="M293.806,258.711a.5.5,0,1,1-.5-.5.5.5,0,0,1,.5.5" transform="translate(28 7852)" fill="#fff" opacity="0.3"/>
    <g id="Group_18205" data-name="Group 18205">
      <g id="Group_18211" data-name="Group 18211" transform="translate(28 7852)">
        <g id="Group_18210" data-name="Group 18210" clip-path="url(#clip-path)">
          <rect id="Rectangle_10666" data-name="Rectangle 10666" width="255.75" height="255.75" transform="translate(61.603 53.798)" fill="url(#linear-gradient)"/>
        </g>
      </g>
      <path id="Path_30867" data-name="Path 30867" d="M307.8,181.673A118.326,118.326,0,1,1,189.478,63.347,118.326,118.326,0,0,1,307.8,181.673" transform="translate(28 7852)" fill="#fff"/>
      <g id="Group_18236" data-name="Group 18236">
        <path id="Path_30868" data-name="Path 30868" d="M262.221,140.922v8.212H116.734v-8.212a3.668,3.668,0,0,1,3.668-3.668H258.553a3.668,3.668,0,0,1,3.668,3.668" transform="translate(28 7852)" fill="#5b2ec9"/>
        <path id="Path_30869" data-name="Path 30869" d="M262.221,149.135v104.6a3.668,3.668,0,0,1-3.668,3.668H120.4a3.668,3.668,0,0,1-3.668-3.668v-104.6Z" transform="translate(28 7852)" fill="#1c0456"/>
        <path id="Path_30870" data-name="Path 30870" d="M159.468,149.1V123.772a30.009,30.009,0,0,1,30.009-30.009h0a30.009,30.009,0,0,1,30.009,30.009v14.269" transform="translate(28 7852)" fill="none" stroke="#5b2ec9" stroke-miterlimit="10" stroke-width="16.392"/>
        <path id="Path_30871" data-name="Path 30871" d="M225.118,257.314h-20.95V176.857l20.95,1.157Z" transform="translate(28 7852)" fill="#15c7fd"/>
        <path id="Path_30872" data-name="Path 30872" d="M225.118,178.014,196.393,161.5l-20.565-1.8,28.34,17.158Z" transform="translate(28 7852)" fill="#44e8fd"/>
        <path id="Path_30873" data-name="Path 30873" d="M176.086,159.7,204.1,176.793V257.25H176.086Z" transform="translate(28 7852)" fill="#6327d3"/>
        <line id="Line_1637" data-name="Line 1637" y1="10.485" transform="translate(261.663 8098.894)" fill="none" stroke="#893fcf" stroke-miterlimit="10" stroke-width="1.285"/>
        <g id="Group_18214" data-name="Group 18214" transform="translate(28 7852)" opacity="0.4" style="mix-blend-mode: multiply;isolation: isolate">
          <g id="Group_18213" data-name="Group 18213">
            <g id="Group_18212" data-name="Group 18212" clip-path="url(#clip-path-2)">
              <path id="Path_30874" data-name="Path 30874" d="M220.3,257.25H209.76V242.341a5.27,5.27,0,0,1,10.539,0Z" fill="#0a0a21"/>
            </g>
          </g>
        </g>
        <g id="Group_18217" data-name="Group 18217" transform="translate(28 7852)" opacity="0.4" style="mix-blend-mode: multiply;isolation: isolate">
          <g id="Group_18216" data-name="Group 18216">
            <g id="Group_18215" data-name="Group 18215" clip-path="url(#clip-path-3)">
              <path id="Path_30875" data-name="Path 30875" d="M218.949,226.018h0a2.635,2.635,0,0,1-2.635-2.635v-4.5a2.635,2.635,0,0,1,5.27,0v4.5a2.635,2.635,0,0,1-2.635,2.635" fill="#0a0a21"/>
            </g>
          </g>
        </g>
        <g id="Group_18220" data-name="Group 18220" transform="translate(28 7852)" opacity="0.4" style="mix-blend-mode: multiply;isolation: isolate">
          <g id="Group_18219" data-name="Group 18219">
            <g id="Group_18218" data-name="Group 18218" clip-path="url(#clip-path-4)">
              <path id="Path_30876" data-name="Path 30876" d="M210.852,200.827h0a2.506,2.506,0,0,1-2.506-2.506v-4.113a2.506,2.506,0,0,1,5.012,0v4.113a2.506,2.506,0,0,1-2.506,2.506" fill="#0a0a21"/>
            </g>
          </g>
        </g>
        <path id="Path_30877" data-name="Path 30877" d="M194.08,192.472V257.25H176.086V180.2c2.227-.191,4.541,1.351,5.4,4.436a11.4,11.4,0,0,1-.392,7.84Z" transform="translate(28 7852)" fill="#330ea4"/>
        <rect id="Rectangle_10670" data-name="Rectangle 10670" width="17.222" height="52.952" transform="translate(193.676 8056.297)" fill="#c071fd"/>
        <rect id="Rectangle_10671" data-name="Rectangle 10671" width="21.849" height="52.952" transform="translate(171.826 8056.297)" fill="#5b2eca"/>
        <line id="Line_1638" data-name="Line 1638" y2="11.352" transform="translate(164.055 8098.01)" fill="none" stroke="#00c29c" stroke-miterlimit="10" stroke-width="1.285"/>
        <g id="Group_18223" data-name="Group 18223" transform="translate(28 7852)" opacity="0.4" style="mix-blend-mode: multiply;isolation: isolate">
          <g id="Group_18222" data-name="Group 18222">
            <g id="Group_18221" data-name="Group 18221" clip-path="url(#clip-path-5)">
              <path id="Path_30878" data-name="Path 30878" d="M158.8,257.185h-7.326V240.739a3.663,3.663,0,1,1,7.326,0Z" fill="#0a0a21"/>
            </g>
          </g>
        </g>
        <g id="Group_18226" data-name="Group 18226" transform="translate(28 7852)" opacity="0.4" style="mix-blend-mode: multiply;isolation: isolate">
          <g id="Group_18225" data-name="Group 18225">
            <g id="Group_18224" data-name="Group 18224" clip-path="url(#clip-path-6)">
              <path id="Path_30879" data-name="Path 30879" d="M149.931,233.794h0A1.928,1.928,0,0,1,148,231.866v-5.4a1.928,1.928,0,1,1,3.856,0v5.4a1.928,1.928,0,0,1-1.928,1.928" fill="#0a0a21"/>
            </g>
          </g>
        </g>
        <g id="Group_18229" data-name="Group 18229" transform="translate(28 7852)" opacity="0.4" style="mix-blend-mode: multiply;isolation: isolate">
          <g id="Group_18228" data-name="Group 18228">
            <g id="Group_18227" data-name="Group 18227" clip-path="url(#clip-path-7)">
              <path id="Path_30880" data-name="Path 30880" d="M160.791,218.242h0a1.992,1.992,0,0,1-1.992-1.992v-5.4a1.992,1.992,0,1,1,3.984,0v5.4a1.992,1.992,0,0,1-1.992,1.992" fill="#0a0a21"/>
            </g>
          </g>
        </g>
        <g id="Group_18232" data-name="Group 18232" transform="translate(28 7852)" opacity="0.4" style="mix-blend-mode: multiply;isolation: isolate">
          <g id="Group_18231" data-name="Group 18231">
            <g id="Group_18230" data-name="Group 18230" clip-path="url(#clip-path-8)">
              <path id="Path_30881" data-name="Path 30881" d="M175.572,228.132h0a2.506,2.506,0,0,1-2.635-2.5v-5.006a2.507,2.507,0,0,1,5.013,0v5.006a2.506,2.506,0,0,1-2.378,2.5" fill="#0a0a21"/>
            </g>
          </g>
        </g>
        <line id="Line_1639" data-name="Line 1639" y1="6.298" transform="translate(200.938 8049.999)" fill="none" stroke="#00bfa1" stroke-miterlimit="10" stroke-width="1.285"/>
        <path id="Path_30882" data-name="Path 30882" d="M171.973,198.642c2.3.292,6.3-1.285,6.683-5.141s-1.542-7.712-5.4-7.969-6.812,2.7-6.683,7.2,3.277,5.643,5.4,5.912" transform="translate(28 7852)" fill="#00e1c4"/>
        <g id="Group_18235" data-name="Group 18235" transform="translate(28 7852)" opacity="0.4" style="mix-blend-mode: multiply;isolation: isolate">
          <g id="Group_18234" data-name="Group 18234">
            <g id="Group_18233" data-name="Group 18233" clip-path="url(#clip-path-9)">
              <path id="Path_30883" data-name="Path 30883" d="M184.89,185.532h0a1.992,1.992,0,0,1-1.992-1.992v-4.5a1.992,1.992,0,1,1,3.984,0v4.5a1.992,1.992,0,0,1-1.992,1.992" fill="#0a0a21"/>
            </g>
          </g>
        </g>
        <path id="Path_30884" data-name="Path 30884" d="M135.793,246.646a5.936,5.936,0,0,0,6.812-6.3c-.257-4.627-2.828-7.124-6.812-6.9s-6.169,1.634-6.3,6.775,4.065,6.158,6.3,6.426" transform="translate(28 7852)" fill="#0be6c5"/>
        <path id="Path_30885" data-name="Path 30885" d="M232.83,247.16c4.9.629,7.454-1.542,7.712-5.527s-1.286-5.783-4.627-7.583-6.17-.9-8.355,2.571.258,9.9,5.27,10.539" transform="translate(28 7852)" fill="#c071fd"/>
        <line id="Line_1640" data-name="Line 1640" y1="7.978" transform="translate(266.999 8101.4)" fill="none" stroke="#009fc2" stroke-miterlimit="10" stroke-width="1.285"/>
        <path id="Path_30886" data-name="Path 30886" d="M234.629,239.449c1.622-1.969,5.27-2.185,7.454-1.157s3.6,3.342,3.085,6.555-2.827,5.721-6.169,5.238-5.234-1.281-6.169-3.953c-.9-2.57,0-4.5,1.8-6.683" transform="translate(28 7852)" fill="#15c7fd"/>
      </g>
    </g>
  </g>
</svg>
