<svg xmlns="http://www.w3.org/2000/svg" xmlns:xlink="http://www.w3.org/1999/xlink" width="960" height="1005.579" viewBox="0 0 960 1005.579">
  <defs>
    <linearGradient id="linear-gradient" y1="0.5" x2="1" y2="0.5" gradientUnits="objectBoundingBox">
      <stop offset="0" stop-color="#5c2dcc"/>
      <stop offset="0.576" stop-color="#397de6"/>
      <stop offset="1" stop-color="#19c8ff"/>
    </linearGradient>
    <clipPath id="clip-path">
      <rect id="Rectangle_10472" data-name="Rectangle 10472" width="923.003" height="691.535" fill="none"/>
    </clipPath>
    <clipPath id="clip-path-2">
      <rect id="Rectangle_10471" data-name="Rectangle 10471" width="229.896" height="98.87" fill="none"/>
    </clipPath>
    <clipPath id="clip-path-3">
      <rect id="Rectangle_9185" data-name="Rectangle 9185" width="264.782" height="98.747" fill="none"/>
    </clipPath>
  </defs>
  <g id="Group_18101" data-name="Group 18101" transform="translate(-960 -5871.421)">
    <rect id="Rectangle_10610" data-name="Rectangle 10610" width="960" height="1005" transform="translate(960 5872)" fill="url(#linear-gradient)"/>
    <g id="Group_18100" data-name="Group 18100" transform="translate(0 -132)">
      <g id="Group_18096" data-name="Group 18096" transform="translate(978.498 6118.421)">
        <g id="Group_18097" data-name="Group 18097">
          <path id="Path_29256" data-name="Path 29256" d="M525.637,650.8h-144.2l4.706-81,134.717,6.136Z" transform="translate(1.799 2.687)" fill="#8462d7"/>
          <g id="Group_17994" data-name="Group 17994">
            <g id="Group_18098" data-name="Group 18098">
              <path id="Path_29257" data-name="Path 29257" d="M697.53,221.083H460.764a22.673,22.673,0,0,1-15.217,5.829,25.566,25.566,0,0,1-16.291-5.829H209.075a17.218,17.218,0,0,0-17.169,17.169V511.633H714.7V238.252a17.218,17.218,0,0,0-17.169-17.169" transform="translate(0.905 1.043)" fill="#fff"/>
              <path id="Path_29258" data-name="Path 29258" d="M317.716,326.859,437.37,171l157.7,120.881L469.277,397.425Z" transform="translate(1.498 0.806)" fill="#1e2760"/>
              <path id="Path_29259" data-name="Path 29259" d="M543.689,239l-205.209,82.9-3.325-8.779a6.325,6.325,0,0,1,3.486-8.213l193.517-78.164a6.326,6.326,0,0,1,8.213,3.486Z" transform="translate(1.578 1.067)" fill="#be90ff"/>
              <path id="Path_29260" data-name="Path 29260" d="M584.892,357.8,391.374,435.957a6.326,6.326,0,0,1-8.212-3.486L338.468,321.822l205.216-82.883,44.694,110.648a6.332,6.332,0,0,1-3.486,8.213" transform="translate(1.596 1.127)" fill="#f7f7f7"/>
              <path id="Path_29261" data-name="Path 29261" d="M317.716,326.292l20.863,157.7,276.737-38.658L595.067,291.317,469.277,396.857Z" transform="translate(1.498 1.374)" fill="#5b2ec8"/>
              <path id="Path_29262" data-name="Path 29262" d="M191.907,510.268v48.788a17.218,17.218,0,0,0,17.169,17.169H697.531A17.218,17.218,0,0,0,714.7,559.056V510.268Zm262.01,46.321c-7.118,0-12.885-6.044-12.885-13.5s5.767-13.5,12.885-13.5,12.885,6.044,12.885,13.5-5.767,13.5-12.885,13.5" transform="translate(0.905 2.406)" fill="#ad97e4"/>
              <path id="Path_29263" data-name="Path 29263" d="M439.943,196.083v-42.89a14.723,14.723,0,0,0,0-29.035V-115h-4.909V124.158a14.722,14.722,0,0,0,.042,29.041h-.042v43.625a19.4,19.4,0,0,0,3.911,11.879c3.375,4.373,9.588,8.514,20.939,7.594V211s-8.75,2.053-15.149-3.752a15.032,15.032,0,0,1-4.793-11.166M427.754,140.3a10.127,10.127,0,1,1,8.724,8.725,10.132,10.132,0,0,1-8.724-8.725" transform="translate(1.994)" fill="#fff"/>
              <circle id="Ellipse_719" data-name="Ellipse 719" cx="7.41" cy="7.41" r="7.41" transform="translate(194.356 94.223)" fill="none" stroke="#000" stroke-miterlimit="10" stroke-width="0.447"/>
              <circle id="Ellipse_720" data-name="Ellipse 720" cx="7.41" cy="7.41" r="7.41" transform="translate(194.356 94.223)" fill="none" stroke="#fff" stroke-miterlimit="10" stroke-width="0.447"/>
              <path id="Path_29264" data-name="Path 29264" d="M469.51,195.862l4.909,3.681V169.47l-11.045,16.574h6.136Z" transform="translate(2.185 0.799)" fill="#fff"/>
              <path id="Path_29265" data-name="Path 29265" d="M393.516,426.015c-3-13.193-17.082-21.237-31.46-17.966s-23.593,16.61-20.593,29.8a23.1,23.1,0,0,0,8.493,13.168l.006.006L364.7,464.518l19.4-4.412,7.449-18.543v-.006a23.072,23.072,0,0,0,1.963-15.543M369.1,436.882a3.138,3.138,0,1,1,.688,6.2,3.137,3.137,0,0,1-.688-6.2m-20.739-2.694c-.792-3.467,1.1-6.854,4.234-7.566s6.308,1.521,7.093,4.988-1.1,6.854-4.234,7.566-6.308-1.521-7.093-4.988" transform="translate(1.608 1.921)" fill="#a252fb"/>
              <path id="Path_29266" data-name="Path 29266" d="M359.654,431.521c.792,3.467-1.1,6.854-4.234,7.565s-6.308-1.521-7.093-4.988,1.1-6.854,4.234-7.566,6.308,1.521,7.093,4.988" transform="translate(1.642 2.011)" fill="#a252fb"/>
              <path id="Path_29267" data-name="Path 29267" d="M372.674,440.731a3.14,3.14,0,0,1-5.3,1.2,3.082,3.082,0,0,1-.84-2.117,3.14,3.14,0,1,1,6.142.913" transform="translate(1.728 2.059)" fill="#a252fb"/>
              <path id="Path_29268" data-name="Path 29268" d="M383.9,459.946l7.448-18.543a19.539,19.539,0,0,1-7.448,18.543" transform="translate(1.81 2.082)" fill="#a252fb"/>
              <path id="Path_29269" data-name="Path 29269" d="M364.658,464.313a19.521,19.521,0,0,1-14.739-13.493Z" transform="translate(1.65 2.126)" fill="#a252fb"/>
              <path id="Path_29270" data-name="Path 29270" d="M355.42,439.087c-3.13.711-6.308-1.522-7.093-4.988s1.1-6.854,4.234-7.566,6.308,1.521,7.093,4.988-1.1,6.854-4.234,7.565" transform="translate(1.642 2.011)" fill="#5b2ec8"/>
              <path id="Path_29271" data-name="Path 29271" d="M385.864,425.561c.789,3.467-1.108,6.854-4.237,7.565s-6.3-1.522-7.092-4.988,1.108-6.854,4.237-7.566,6.3,1.521,7.092,4.988" transform="translate(1.765 1.983)" fill="#5b2ec8"/>
              <path id="Path_29272" data-name="Path 29272" d="M372.674,440.731a3.14,3.14,0,0,1-5.3,1.2,3.082,3.082,0,0,1-.84-2.117,3.14,3.14,0,1,1,6.142.913" transform="translate(1.728 2.059)" fill="#5b2ec8"/>
              <path id="Path_29273" data-name="Path 29273" d="M465.751,543.922c-.476,7.62-6.757,13.429-14.032,12.974s-12.783-7-12.308-14.619,6.757-13.429,14.032-12.975,12.784,7,12.308,14.62" transform="translate(2.072 2.496)" fill="#5b2eca"/>
              <path id="Path_29274" data-name="Path 29274" d="M562.427,669.446a19.087,19.087,0,0,1-19.021,19.022H361.777a19.022,19.022,0,0,1,0-38.044H543.406a19.078,19.078,0,0,1,19.021,19.022" transform="translate(1.616 3.067)" fill="#ad97e4"/>
              <path id="Path_29275" data-name="Path 29275" d="M693.656,248.6v58.293a7.385,7.385,0,0,1-7.364,7.364H675.861V298.168c-.006-.019-.006-.031-.012-.049a19.5,19.5,0,0,0-38.019,0c-.006.036-.018.067-.024.1v16.034H628a7.385,7.385,0,0,1-7.364-7.364V248.6A7.385,7.385,0,0,1,628,241.237h58.293a7.385,7.385,0,0,1,7.364,7.364" transform="translate(2.927 1.138)" fill="#d9ceff"/>
              <path id="Path_29276" data-name="Path 29276" d="M669.613,267.252a12.579,12.579,0,1,1-12.579-12.579,12.579,12.579,0,0,1,12.579,12.579" transform="translate(3.039 1.201)" fill="#fff"/>
              <path id="Path_29277" data-name="Path 29277" d="M675.781,297.971V314.06H637.725V298.027c.006-.037.018-.067.024-.1a19.5,19.5,0,0,1,38.019,0c.006.018.006.031.012.049" transform="translate(3.007 1.333)" fill="#fff"/>
              <path id="Path_29278" data-name="Path 29278" d="M258.346,213.078a51.236,51.236,0,1,1-51.236-51.236,51.237,51.237,0,0,1,51.236,51.236" transform="translate(0.735 0.763)" fill="#ff5172"/>
              <rect id="Rectangle_10468" data-name="Rectangle 10468" width="11.033" height="42.01" transform="translate(202.205 179.46)" fill="#fff"/>
              <rect id="Rectangle_10469" data-name="Rectangle 10469" width="10.485" height="10.484" transform="translate(202.657 231.672)" fill="#fff"/>
              <path id="Path_29279" data-name="Path 29279" d="M182.282,429.719a15.647,15.647,0,1,1-15.647-15.648,15.648,15.648,0,0,1,15.647,15.648" transform="translate(0.712 1.953)" fill="#d9ceff"/>
              <path id="Path_29280" data-name="Path 29280" d="M165.264,471.387a8.474,8.474,0,1,1,0-11.984,8.474,8.474,0,0,1,0,11.984" transform="translate(0.711 2.155)" fill="#d9ceff"/>
              <path id="Path_29281" data-name="Path 29281" d="M170.277,487.7a5.22,5.22,0,1,1,0-7.383,5.221,5.221,0,0,1,0,7.383" transform="translate(0.761 2.258)" fill="#d9ceff"/>
              <path id="Path_29282" data-name="Path 29282" d="M145.995,446.621a4.57,4.57,0,1,1,0-6.462,4.57,4.57,0,0,1,0,6.462" transform="translate(0.652 2.069)" fill="#d9ceff"/>
              <path id="Path_29283" data-name="Path 29283" d="M840.413,267.088a7.172,7.172,0,1,1,0-10.143,7.171,7.171,0,0,1,0,10.143" transform="translate(3.905 1.202)" fill="#d9ceff"/>
              <path id="Path_29284" data-name="Path 29284" d="M862.91,424.251a13.9,13.9,0,1,1,0-19.654,13.9,13.9,0,0,1,0,19.654" transform="translate(3.957 1.889)" fill="#d9ceff"/>
              <path id="Path_29285" data-name="Path 29285" d="M822.07,312.872a4.569,4.569,0,1,1,0-6.462,4.57,4.57,0,0,1,0,6.462" transform="translate(3.84 1.439)" fill="#d9ceff"/>
              <path id="Path_29286" data-name="Path 29286" d="M859.8,361.291a6.956,6.956,0,1,1,0-9.837,6.955,6.955,0,0,1,0,9.837" transform="translate(3.999 1.648)" fill="#d9ceff"/>
              <path id="Path_29287" data-name="Path 29287" d="M137.7,296.581a15.647,15.647,0,1,1-15.647-15.647A15.648,15.648,0,0,1,137.7,296.581" transform="translate(0.502 1.325)" fill="#d9ceff"/>
              <path id="Path_29288" data-name="Path 29288" d="M158.981,331.66a5.654,5.654,0,1,1,0-8,5.654,5.654,0,0,1,0,8" transform="translate(0.704 1.519)" fill="#d9ceff"/>
              <path id="Path_29289" data-name="Path 29289" d="M115.757,601.347C100.072,559,76.248,484.8,74.456,459.258s14.5-31.387,24.394-27.681,36.4,27.769,48.746,70.553c11.106,38.5,31.1,105.14,31.1,105.14Z" transform="translate(0.35 2.03)" fill="#d9ceff"/>
              <path id="Path_29290" data-name="Path 29290" d="M97.307,451.054q24.918,65.778,45.9,133.08c1.867,6.423,3.9,13.152,5.136,19.751l-4.679.653c-.291-1.581-.548-3.156-.86-4.75-2.409-10.8-5.965-23.143-9.047-33.821-11.184-38.448-23.955-77.31-36.452-114.912" transform="translate(0.459 2.127)" fill="#e8e5f5"/>
              <path id="Path_29291" data-name="Path 29291" d="M164.818,675.259c4.519,4.729,8.485,8.872,11.961,12.5H72.017c-25.377-10.487-48.364-22.9-58.688-35.289-21.2-25.431-13.978-46.535,0-59.623,6.551-6.131,17.411-12.391,34.278-9.774a63.518,63.518,0,0,1,8.774,2.04c.178.054.356.112.533.166h0a86,86,0,0,1,10.233,3.991q2.949,1.358,6.073,3.042,1.13.6,2.275,1.253A154.078,154.078,0,0,1,89.123,602.3q1.005.717,2.025,1.463,1.885,1.385,3.817,2.872,5.465,4.2,11.345,9.311,3.341,2.906,6.819,6.124,7.5,6.931,15.639,15.379c.609.63,1.217,1.263,1.829,1.908.54.569,1.076,1.13,1.609,1.691.007.007.014.015.025.025l.808.851q5.252,5.525,9.98,10.484,3.661,3.84,7.018,7.365l.2.211q1.988,2.08,3.867,4.055,5.535,5.8,10.23,10.711c.16.171.322.341.485.507" transform="translate(0 2.747)" fill="#c2abff"/>
              <path id="Path_29292" data-name="Path 29292" d="M132.635,687.672c-11.429-10.925-23.961-22.671-36.2-32.635l-.006-.386c0-.015.29.624.291.621-17.209-13.7-40.878-31.673-63.053-34.3-3.51-.422-6.771-.032-10.337.1l.119-4.07c1.576.038,3.488-.156,5.162-.128,19.6.381,37.471,12.794,52.781,23.885,5.622,4.23,11.062,8.682,16.375,13.266l.3.256-.005.373-.292-.626c5.378,4.6,12.647,11.5,17.886,16.374,5.107,4.932,12.048,12.063,17.144,17.115l-.16.158" transform="translate(0.11 2.909)" fill="#dad3f1"/>
              <path id="Path_29293" data-name="Path 29293" d="M221.775,688.052H156.623q-1.5-2.346-3.009-4.824c-4.291-7.029-8.593-14.77-12.779-22.948q-1.906-3.731-3.777-7.576-2.466-5.056-4.846-10.269c-.159-.344-.314-.688-.47-1.036-.007-.018-.018-.036-.025-.054q-.815-1.792-1.612-3.6c-3.252-7.34-6.338-14.819-9.173-22.263q-1.548-4.052-2.987-8.083-1.162-3.248-2.253-6.467-1.6-4.737-3.023-9.382-1.685-5.487-3.092-10.781-1.277-4.785-2.3-9.361c-.93-4.153-1.7-8.162-2.282-11.982-.213-1.4-.4-2.774-.569-4.121q-.288-2.357-.47-4.6c-.09-1.089-.16-2.161-.207-3.208-.466-9.831.812-17.682,4.327-22.531l0,0a12.655,12.655,0,0,1,4.776-4.059q.4-.2.815-.359a.013.013,0,0,1,.011,0,13.451,13.451,0,0,1,4.161-.937,16.02,16.02,0,0,1,3.1.1,28.118,28.118,0,0,1,10.8,4.136,57.731,57.731,0,0,1,6.641,4.733q3.27,2.662,6.652,6.029.966.961,1.948,1.984,1.27,1.326,2.553,2.745,3.091,3.412,6.225,7.319,2.3,2.863,4.613,5.975,1.706,2.3,3.419,4.726c.145.2.289.4.431.612,4.606,6.569,9.2,13.807,13.713,21.571,2.827,4.86,5.616,9.93,8.343,15.165q2.661,5.1,5.236,10.408,1.337,2.743,2.643,5.536,1.522,3.249,3.01,6.566,2.368,5.279,4.628,10.7,2.031,4.872,3.965,9.843,2.885,7.4,5.508,14.958,1.314,3.775,2.553,7.576c3.009,9.212,5.686,18.508,7.952,27.771" transform="translate(0.489 2.45)" fill="#d6c5f4"/>
              <path id="Path_29294" data-name="Path 29294" d="M190.2,688.019c-4.1-13.422-8.161-27.029-13.446-40.054-13.645-35.98-31.461-71.023-51.149-104.086l-5.42-9.073,3.294-1.907,5.233,9.194c17.231,30.522,33.2,62.72,45.413,95.558,3.576,9.479,7.54,20.316,10.473,29.966,1.991,6.769,3.876,13.566,5.818,20.341Z" transform="translate(0.567 2.513)" fill="#eae5f8"/>
              <path id="Path_29295" data-name="Path 29295" d="M203.8,688.245H126.517c-3.034-4.961-6.424-10.3-10.074-15.915q-3.742-5.748-7.829-11.857-2.493-3.732-5.095-7.576c-3.307-4.892-6.729-9.893-10.215-14.958q-3.368-4.889-6.808-9.843c-3.654-5.265-7.347-10.559-11.038-15.831q-2.042-2.918-4.074-5.816-2.145-3.062-4.273-6.094c-3.461-4.936-6.887-9.814-10.233-14.59h0q-.265-.38-.531-.761c-3-4.28-5.936-8.481-8.774-12.558-18.907-27.137-33.685-49.067-35.763-56.056-5.6-18.819-6.047-41.846,11.653-37.056,3.553.964,12.265,7.185,24.11,17.208q4.144,3.5,8.774,7.616c4.906,4.357,10.186,9.194,15.723,14.438q1.456,1.381,2.941,2.8,2.6,2.483,5.261,5.074c5.06,4.925,10.281,10.132,15.593,15.567q3.248,3.325,6.533,6.758,1.005,1.047,2.013,2.107,1.5,1.587,3.02,3.191,1.385,1.466,2.777,2.958,6.627,7.106,13.283,14.557,4.366,4.9,8.7,9.919c.1.116.206.235.3.355q2.026,2.342,4.03,4.708,3.606,4.247,7.156,8.557c.391.474.783.952,1.169,1.427q1.347,1.64,2.677,3.285,1.842,2.28,3.664,4.573,1.581,1.988,3.14,3.983,1.842,2.353,3.647,4.708,3.53,4.6,6.919,9.219,2.509,3.411,4.928,6.822.836,1.168,1.656,2.343c5.03,7.174,9.755,14.329,14.075,21.4.406.667.808,1.329,1.21,1.992q1.683,2.8,3.284,5.583,1.656,2.88,3.208,5.733c.645,1.181,1.271,2.357,1.887,3.531,3.309,6.3,6.221,12.493,8.655,18.508" transform="translate(0.039 2.257)" fill="#d3b6f3"/>
              <path id="Path_29296" data-name="Path 29296" d="M166.341,688.179C132.82,632.5,95.131,578.9,51.186,530.916c-6.245-6.844-12.761-13.441-19.206-20.09l6.539-6.241A788.046,788.046,0,0,1,91.9,569.747c27.183,37.665,52.93,77.736,74.44,118.432" transform="translate(0.151 2.38)" fill="#e8e1f2"/>
              <path id="Path_29297" data-name="Path 29297" d="M169.377,687.722H121.687c-6.916-8.824-14.21-18.446-20.959-27.771q-1.885-2.6-3.708-5.17v0q-.859-1.206-1.7-2.4c-3.7-5.261-7.13-10.316-10.114-14.958-2.4-3.745-4.519-7.214-6.25-10.3a70.916,70.916,0,0,1-3.791-7.63c-.174-.424-.33-.833-.467-1.221a89.185,89.185,0,0,1-3.607-12.338c-1.148-5.826-.982-10.759,1.8-13.651a7.782,7.782,0,0,1,2.275-1.627c2.535-1.213,6.231-1.517,11.41-.615a37.52,37.52,0,0,1,3.767.861A55.764,55.764,0,0,1,101,595.23a84.259,84.259,0,0,1,11.341,7.21c.16.122.323.242.481.366q2.613,1.977,5.277,4.265a132,132,0,0,1,13.8,13.9c.054.061.109.123.163.188q1.944,2.265,3.881,4.707,3.554,4.482,7.04,9.564c.453.656.9,1.318,1.347,1.992,3.077,4.617,6.1,9.6,9.02,14.958q.538.989,1.072,1.992,1.456,2.726,2.871,5.583,3.471,7,6.706,14.767c.032.08.065.156.1.236.047.12.1.235.145.351,1.938,4.682,3.639,8.8,5.135,12.417" transform="translate(0.332 2.78)" fill="#d9c6ef"/>
              <path id="Path_29298" data-name="Path 29298" d="M89.92,606.228c6.567,5.3,11.751,11.946,17.1,18.356q7.822,9.806,14.851,20.189a378.924,378.924,0,0,1,25.961,42.813l-.193.114c-18.427-27.012-38.027-55.927-57.72-81.472" transform="translate(0.424 2.859)" fill="#e6e5f8"/>
              <path id="Path_29299" data-name="Path 29299" d="M803.4,600.736c15.685-42.348,39.508-116.545,41.3-142.089s-14.5-31.387-24.393-27.681-36.4,27.769-48.746,70.553c-11.106,38.5-31.1,105.14-31.1,105.14Z" transform="translate(3.492 2.028)" fill="#d9ceff"/>
              <path id="Path_29300" data-name="Path 29300" d="M821.813,450.524C807.476,491.6,794.5,533.221,782.376,575c-2.092,7.474-4.612,16.65-6.272,24.178-.311,1.593-.569,3.168-.86,4.75l-4.678-.653c1.844-9.579,5.253-20.018,8.092-29.383,9.095-28.744,18.957-57.323,29.032-85.721,4.671-12.405,8.823-25.94,14.122-37.646" transform="translate(3.634 2.125)" fill="#e8e5f5"/>
              <path id="Path_29301" data-name="Path 29301" d="M754.683,674.649c-4.519,4.729-8.485,8.872-11.961,12.5H847.484c25.377-10.487,48.364-22.9,58.688-35.289,21.2-25.432,13.978-46.535,0-59.623-6.551-6.131-17.411-12.391-34.278-9.774a63.372,63.372,0,0,0-8.774,2.04c-.178.054-.355.112-.532.166h0a85.823,85.823,0,0,0-10.233,3.991q-2.949,1.356-6.072,3.042-1.131.6-2.275,1.252a154.061,154.061,0,0,0-13.626,8.742q-1.005.717-2.025,1.463-1.885,1.385-3.817,2.87-5.465,4.2-11.345,9.312-3.341,2.906-6.819,6.124-7.495,6.931-15.639,15.379-.913.943-1.829,1.908c-.539.568-1.076,1.13-1.609,1.691l-.025.025-.808.851q-5.252,5.525-9.98,10.484-3.661,3.84-7.018,7.365l-.2.211q-1.988,2.08-3.867,4.055-5.536,5.8-10.23,10.711c-.16.171-.323.341-.485.507" transform="translate(3.502 2.744)" fill="#c2abff"/>
              <path id="Path_29302" data-name="Path 29302" d="M786.391,686.9c7.965-8.015,17.625-17.8,26.007-25.382,2.922-2.794,5.994-5.426,9.022-8.106,0,0-.3.638-.292.622l-.005-.369.3-.256c5.313-4.585,10.753-9.037,16.376-13.266,15.315-11.1,33.172-23.5,52.78-23.885,1.676-.031,3.593.162,5.163.127l.118,4.07c-3.562-.133-6.825-.52-10.338-.1-22.177,2.632-45.831,20.595-63.053,34.3,0,0,.294-.638.291-.622l-.005.387-.287.239c-5.483,4.421-12.942,11.094-18.3,15.8-5.238,4.777-12.384,11.7-17.618,16.6l-.159-.158" transform="translate(3.708 2.906)" fill="#dad3f1"/>
              <path id="Path_29303" data-name="Path 29303" d="M697.45,687.442H762.6q1.5-2.346,3.009-4.824c4.291-7.029,8.593-14.77,12.779-22.948q1.906-3.732,3.777-7.576,2.466-5.056,4.846-10.269c.159-.344.315-.688.47-1.036.007-.018.018-.036.025-.054q.815-1.792,1.611-3.6c3.252-7.34,6.338-14.819,9.173-22.264q1.548-4.052,2.987-8.083,1.162-3.248,2.252-6.467,1.6-4.737,3.023-9.382,1.685-5.486,3.092-10.781,1.277-4.785,2.3-9.361c.93-4.154,1.7-8.162,2.282-11.982.213-1.4.4-2.774.569-4.121q.288-2.357.47-4.6c.091-1.089.16-2.161.207-3.208.467-9.831-.812-17.682-4.327-22.531l0,0a12.655,12.655,0,0,0-4.776-4.059q-.4-.2-.815-.359a.014.014,0,0,0-.011,0,13.449,13.449,0,0,0-4.16-.937,16.006,16.006,0,0,0-3.1.1,28.12,28.12,0,0,0-10.8,4.135,57.778,57.778,0,0,0-6.641,4.733q-3.27,2.662-6.652,6.029-.966.962-1.948,1.984-1.271,1.326-2.553,2.745-3.091,3.412-6.225,7.318-2.3,2.864-4.613,5.975-1.706,2.3-3.419,4.726c-.145.2-.289.4-.431.612-4.606,6.569-9.2,13.807-13.713,21.571-2.827,4.86-5.616,9.93-8.343,15.165q-2.661,5.1-5.235,10.408-1.337,2.743-2.643,5.536-1.522,3.249-3.01,6.566-2.368,5.279-4.628,10.7-2.031,4.872-3.965,9.843-2.885,7.4-5.508,14.958-1.314,3.775-2.553,7.576c-3.009,9.212-5.686,18.508-7.952,27.771" transform="translate(3.289 2.447)" fill="#d6c5f4"/>
              <path id="Path_29304" data-name="Path 29304" d="M728.584,687.349c3.821-13.512,7.6-27.236,12.612-40.384,12.919-36.373,30.052-71.907,49.092-105.483l5.234-9.194,3.294,1.908-5.421,9.072a712.682,712.682,0,0,0-43.312,84.473c-3.164,7.506-6.733,16.936-9.776,24.527-1.762,4.771-3.641,10.145-5.265,14.946-2.13,6.711-4.156,13.459-6.242,20.194Z" transform="translate(3.436 2.51)" fill="#eae5f8"/>
              <path id="Path_29305" data-name="Path 29305" d="M715.788,687.635h77.284c3.034-4.961,6.424-10.3,10.074-15.915q3.742-5.748,7.829-11.857,2.493-3.731,5.095-7.576c3.306-4.892,6.729-9.892,10.215-14.958q3.368-4.889,6.808-9.843c3.654-5.265,7.347-10.56,11.038-15.831q2.042-2.918,4.074-5.816,2.144-3.062,4.273-6.094c3.461-4.936,6.887-9.814,10.233-14.591h0q.265-.38.531-.76c3-4.28,5.936-8.481,8.774-12.558,18.907-27.137,33.685-49.067,35.763-56.056,5.6-18.819,6.047-41.846-11.653-37.056-3.553.964-12.265,7.185-24.11,17.208q-4.145,3.5-8.774,7.616c-4.906,4.356-10.186,9.194-15.723,14.438q-1.456,1.381-2.941,2.8-2.6,2.484-5.261,5.074c-5.059,4.925-10.281,10.132-15.593,15.567q-3.248,3.325-6.533,6.758-1.005,1.047-2.013,2.107-1.5,1.587-3.02,3.191-1.385,1.466-2.777,2.958-6.627,7.106-13.282,14.557-4.368,4.9-8.706,9.919c-.1.116-.206.235-.3.355q-2.026,2.342-4.03,4.708-3.606,4.247-7.156,8.557c-.391.474-.783.951-1.169,1.427q-1.347,1.64-2.677,3.284-1.842,2.28-3.664,4.573-1.581,1.988-3.14,3.983-1.842,2.353-3.647,4.708-3.53,4.6-6.92,9.219-2.509,3.411-4.928,6.822-.837,1.168-1.656,2.343c-5.03,7.174-9.755,14.329-14.075,21.4-.406.667-.808,1.329-1.21,1.992q-1.683,2.8-3.284,5.583-1.656,2.88-3.208,5.733-.968,1.771-1.887,3.531c-3.31,6.3-6.221,12.493-8.655,18.508" transform="translate(3.375 2.255)" fill="#d3b6f3"/>
              <path id="Path_29306" data-name="Path 29306" d="M752.768,687.456c35.952-65.393,77.48-128.37,128.017-183.483l6.538,6.241c-6.445,6.649-12.961,13.246-19.206,20.09-7.68,8.444-15.58,17.395-22.947,26.127-6.741,8.293-15.386,18.653-21.764,27.183-25.624,32.944-48.849,68.773-70.638,103.842" transform="translate(3.55 2.377)" fill="#e8e1f2"/>
              <path id="Path_29307" data-name="Path 29307" d="M749.758,687.112h47.691c6.917-8.824,14.21-18.447,20.959-27.771q1.885-2.6,3.708-5.17v0q.859-1.206,1.7-2.4c3.7-5.261,7.131-10.316,10.115-14.958,2.4-3.745,4.519-7.214,6.25-10.3a70.97,70.97,0,0,0,3.791-7.63c.174-.424.329-.833.467-1.221a89.183,89.183,0,0,0,3.607-12.338c1.148-5.826.982-10.759-1.8-13.651a7.784,7.784,0,0,0-2.275-1.627c-2.535-1.213-6.231-1.517-11.41-.615a37.539,37.539,0,0,0-3.767.861,55.763,55.763,0,0,0-10.661,4.335,84.25,84.25,0,0,0-11.341,7.21c-.159.122-.323.242-.481.366q-2.613,1.977-5.277,4.265a132,132,0,0,0-13.8,13.9c-.054.061-.108.123-.163.188q-1.944,2.265-3.881,4.707-3.554,4.482-7.04,9.564c-.453.656-.9,1.318-1.347,1.992-3.077,4.617-6.1,9.6-9.02,14.958q-.538.989-1.072,1.992-1.456,2.726-2.871,5.583-3.471,7-6.707,14.767c-.032.08-.065.156-.1.236-.047.12-.1.235-.145.351-1.938,4.682-3.639,8.8-5.135,12.417" transform="translate(3.536 2.777)" fill="#d9c6ef"/>
              <path id="Path_29308" data-name="Path 29308" d="M829.174,605.784c-7.826,9.082-15.288,20.305-22.37,29.959-11.264,15.836-24.487,35.132-35.5,51.348l-.193-.115a378.892,378.892,0,0,1,25.961-42.814q7.016-10.381,14.852-20.189c5.349-6.409,10.533-13.052,17.1-18.355Z" transform="translate(3.636 2.856)" fill="#e6e5f8"/>
              <path id="Path_29309" data-name="Path 29309" d="M782.918,477.865H593.046a5.405,5.405,0,0,1-5.389-5.389V424.347a5.405,5.405,0,0,1,5.389-5.389H782.918a5.405,5.405,0,0,1,5.389,5.389v48.128a5.405,5.405,0,0,1-5.389,5.389" transform="translate(2.771 1.976)" fill="#fff"/>
            </g>
          </g>
          <text id="_" data-name="********" transform="translate(608.38 470.354)" font-size="45" font-family="MyriadPro-Regular, Myriad Pro"><tspan x="0" y="0">********</tspan></text>
          <g id="Group_17999" data-name="Group 17999">
            <g id="Group_17998" data-name="Group 17998" clip-path="url(#clip-path)">
              <path id="Path_29310" data-name="Path 29310" d="M493.28,352.873A33.964,33.964,0,1,1,479.037,307a33.961,33.961,0,0,1,14.243,45.87" transform="translate(2.024 1.429)" fill="#15c5fb"/>
              <path id="Path_29311" data-name="Path 29311" d="M452.63,343.1l7.742-3.257-6.013-14.294,10.748-4.522,6.014,14.294,7.742-3.257-6.491,21.269Z" transform="translate(2.134 1.514)" fill="#f7f7f7"/>
              <g id="Group_17997" data-name="Group 17997" transform="translate(344.241 299.36)" opacity="0.5">
                <g id="Group_17996" data-name="Group 17996">
                  <g id="Group_17995" data-name="Group 17995" clip-path="url(#clip-path-2)">
                    <path id="Path_29312" data-name="Path 29312" d="M567.615,297.955,469.466,383.26,342.624,331.883l3.525,8.725,123.01,56.217L572.522,310.1Z" transform="translate(-342.625 -297.955)" fill="#d9ceff"/>
                  </g>
                </g>
              </g>
            </g>
          </g>
        </g>
      </g>
      <path id="Path_29934" data-name="Path 29934" d="M7145.832,6739.949h879.106" transform="translate(-6142 72.006)" fill="none" stroke="#fff" stroke-linecap="round" stroke-width="7"/>
    </g>
    <g id="Group_18099" data-name="Group 18099" transform="translate(1307.608 6729.925)">
      <g id="Group_15918" data-name="Group 15918" transform="translate(0 -2)" clip-path="url(#clip-path-3)">
        <path id="Path_21962" data-name="Path 21962" d="M89.165,59.822h14.9c-.53,2.8.6,5.275,1.413,7.78,2.137,6.621,4.379,13.207,6.582,19.807.082.247.189.487.378.97.19-.513.317-.786.4-1.073,2.115-7.732,4.249-15.459,6.314-23.2a35.807,35.807,0,0,0,.607-4.161,165.542,165.542,0,0,1,16.627-.024c-.453,2.051.232,3.966.773,5.9q2.989,10.717,5.981,21.434c.083.3.213.581.389,1.053a7.89,7.89,0,0,0,.439-.846q3.917-11.15,7.812-22.308a8.924,8.924,0,0,0,.663-5.131c1.048-.346,13.409-.379,14.8-.006-2.211,1.655-2.91,4.155-3.924,6.44q-5.042,11.374-9.938,22.813a29.375,29.375,0,0,0-1.446,4.458,15.355,15.355,0,0,0-.185,2.779c-.768.252-14.873.348-16.559.085a27.082,27.082,0,0,0-.459-3.8c-2.129-8.063-4.327-16.107-6.506-24.156a3.885,3.885,0,0,0-.166-.382,3.782,3.782,0,0,0-.382.7q-3.24,11.651-6.45,23.312a8.014,8.014,0,0,0-.254,4.336H104.034c.524-1.971-.162-3.738-.868-5.468-2.4-5.888-4.859-11.754-7.292-17.629-1.128-2.724-2.246-5.453-3.375-8.178-.812-1.96-1.625-3.922-3.461-5.234l.127-.266" transform="translate(-39.753 -26.662)" fill="#fff"/>
        <path id="Path_21963" data-name="Path 21963" d="M46.146,95.963H33.572v-2.93c-.493.293-.8.464-1.094.652a19.853,19.853,0,0,1-8.3,2.866,28.791,28.791,0,0,1-12.325-.779C5.769,93.882,3.7,89.654,3.994,84.008c.278-5.359,3.451-8.451,8.254-10.1a23.3,23.3,0,0,1,4.709-1.026c5.2-.637,10.308-.381,15.135,1.959a9.473,9.473,0,0,0,1.019.363c1.108-4.331-1.588-8.412-5.9-8.745-6.878-.531-13.416.581-19.274,4.511a4.256,4.256,0,0,1-.674.29c-.308-3.335-.607-6.575-.916-9.913.772-.3,1.432-.614,2.126-.813a55.068,55.068,0,0,1,23.933-1.69,18.311,18.311,0,0,1,4.478,1.346c4.4,1.93,6.656,5.554,7.392,10.149a50.72,50.72,0,0,1,.6,7.012c.091,4.517.044,9.036.02,13.555a7.225,7.225,0,0,0,1.159,4.6c.071.1.055.255.094.459M22.993,88.849a43.081,43.081,0,0,0,4.9-.492,14.785,14.785,0,0,0,4.244-1.507c1.77-1.026,1.743-3,.082-4.192a8.359,8.359,0,0,0-2.207-1.1,20.571,20.571,0,0,0-7.627-.923,11.306,11.306,0,0,0-5.074,1.134A3.494,3.494,0,0,0,15.34,85.41a2.92,2.92,0,0,0,2.572,2.684c1.792.358,3.618.545,5.081.756" transform="translate(-1.771 -25.994)" fill="#fff"/>
        <path id="Path_21964" data-name="Path 21964" d="M446.519,80.87c-.758-.127-1.328-.261-1.905-.31-1.468-.125-2.94-.291-4.412-.3-6.734-.035-13.467-.022-20.2-.022-.362,0-.723.033-1.069.05a6.475,6.475,0,0,0,3.81,7.108,17.4,17.4,0,0,0,5.07,1.23A31.006,31.006,0,0,0,443.052,86c.493-.221.995-.423,1.629-.691.314,2.871.61,5.583.928,8.489a34.281,34.281,0,0,1-3.459,1.34,47.75,47.75,0,0,1-22.589.753c-6.374-1.334-10.313-5.285-11.728-11.629a26.493,26.493,0,0,1,.469-14.474A15.591,15.591,0,0,1,419.9,59.161a31.876,31.876,0,0,1,15.063-.079,13.31,13.31,0,0,1,9.913,8.754,23.4,23.4,0,0,1,1.646,8.5c.006,1.461,0,2.922,0,4.53m-11.493-7.591a6.367,6.367,0,0,0-5.061-6.718,12.368,12.368,0,0,0-6.687.391,5.656,5.656,0,0,0-3.24,2.661,5.567,5.567,0,0,0-.577,2.095c-.076.967.4,1.418,1.383,1.537a10.453,10.453,0,0,0,1.244.034q5.742,0,11.485,0h1.454" transform="translate(-181.738 -25.993)" fill="#fff"/>
        <path id="Path_21965" data-name="Path 21965" d="M282.122,30.216l3.374.39V40.741h-2.405V32.977H246.055v3.858c.584.039,1.072.1,1.559.1,2.629.009,5.258,0,7.887.009,1.409.007,1.579.184,1.594,1.611q.022,2.214,0,4.427c-.013,1.488-.208,1.695-1.666,1.7-2.629.013-5.258,0-7.887.007-.411,0-.822.034-1.352.058-.049.428-.094.814-.148,1.281a5.753,5.753,0,0,0,.992.193c2.536.015,5.073.01,7.61.011,2.452,0,2.452,0,2.452,2.45,0,1.2.019,2.4-.009,3.6a14.958,14.958,0,0,1-.217,1.6h-10.7c-.045.578-.079,1.009-.126,1.606.586.039,1.071.1,1.557.1,2.583.009,5.165,0,7.748.008,1.532.008,1.733.221,1.745,1.782.011,1.476.019,2.952,0,4.428-.019,1.295-.24,1.522-1.557,1.533-2.582.021-5.165.007-7.748.008H246.33a3.105,3.105,0,0,0,2.608,4.1,7.644,7.644,0,0,0,1.1.039q14.528,0,29.056.011a4.038,4.038,0,0,0,2.724-.785,3.529,3.529,0,0,0,1.259-2.932c-.023-4.7-.01-9.409-.01-14.113V48.042h2.39c.041.43.111.825.112,1.22.007,4.981.017,9.962,0,14.943a5.806,5.806,0,0,1-5.692,5.784q-15.289.04-30.579,0a5.77,5.77,0,0,1-5.758-5.571c-.014-.273-.042-.545-.066-.85-1.464-.64-3.147.272-4.6-.663V56.054c1.385-.967,3.062-.116,4.569-.636V53.943c-.809,0-1.536.012-2.263,0s-1.436-.056-2.377-.095V51.5c0-1.245-.011-2.491,0-3.736.014-1.285.224-1.493,1.551-1.522,1-.021,2,0,3.09,0V44.688c-1.066,0-2.065.015-3.064,0-1.4-.025-1.57-.2-1.579-1.622q-.013-2.283,0-4.566c0-.4.059-.805.108-1.423l4.575-.232c.022-1.014.048-1.964.059-2.915.009-.783,0-1.567,0-2.351a1.074,1.074,0,0,1,1.2-1.2c.686-.017,1.372,0,2.214,0,.044-.612.107-1.1.108-1.584.009-3.782-.071-7.566.025-11.345a16.945,16.945,0,0,1,9-15.188,17.445,17.445,0,0,1,25.647,11.978,23.438,23.438,0,0,1,.309,3.986c.041,3.6.012,7.194.016,10.792,0,.364.033.728.055,1.2m-8.2.065v-1.52c0-3.782.066-7.566-.014-11.346a9.326,9.326,0,0,0-18.65.252c-.013,3.69,0,7.38,0,11.069,0,.49.058.981.094,1.545Zm-21.011-.034V28.8c0-3.549-.022-7.1.013-10.648A16.555,16.555,0,0,1,253.218,15a11.507,11.507,0,0,1,12.591-9.031C272.2,6.8,276.253,11.559,276.259,18c0,3.6,0,7.191.006,10.787,0,.484.066.969.1,1.465h3.2a6.4,6.4,0,0,0,.129-.882c-.007-4.1.039-8.205-.073-12.3a15.465,15.465,0,0,0-.748-4.466A15.133,15.133,0,0,0,249.453,17c-.12,4.053-.023,8.112-.014,12.169a10.027,10.027,0,0,0,.117,1.078Zm1.115,9.677H251.8v2.167h2.224ZM241.46,51.74h1.954V49.555H241.46Zm-.082-9.381h2.009V40.218h-2.009Zm10.331,16.269c.046.813.081,1.433.119,2.112H254V58.629Zm.127-7.259h2.183V49.315h-2.183ZM241.4,61.176l2.032-.118V58.975H241.4Z" transform="translate(-106.617 0)" fill="#fff"/>
        <path id="Path_21966" data-name="Path 21966" d="M355.316,62.4c3.931-4.231,8.675-4.707,13.787-3.757a17.67,17.67,0,0,1,6.168,2.343,6.8,6.8,0,0,1,.566.387,1.548,1.548,0,0,1,.21.315c-.714,4.118-2.151,8.172-2.407,12.778-.831-.861-1.435-1.528-2.082-2.149-2.422-2.32-5.035-4.329-8.434-5.009-.09-.018-.179-.042-.27-.058-4.182-.728-6.7,1.13-7.181,5.355a39.074,39.074,0,0,0-.246,4.133c-.03,4.426-.02,8.852-.005,13.278a18.862,18.862,0,0,0,.16,3.029,25.224,25.224,0,0,0,.837,2.921h-13.5c1.425-2.391,1.1-4.945,1.1-7.447.021-7.745.006-15.491.008-23.237a9.031,9.031,0,0,0-1.132-5.247l12.411-1.545Z" transform="translate(-153.098 -25.999)" fill="#fff"/>
        <path id="Path_21967" data-name="Path 21967" d="M296.983,79.424c0,3.228.011,6.456-.01,9.683a6.694,6.694,0,0,1-.223,1.91,3.5,3.5,0,0,1-3.238,2.612,26.607,26.607,0,0,1-5.1-.008c-2.179-.258-3.285-1.607-3.5-3.808-.036-.365-.022-.737-.022-1.105q0-9.337,0-18.675a9.036,9.036,0,0,1,.082-1.515c.353-2.051,1.358-3.163,3.43-3.4a23.4,23.4,0,0,1,4.96-.03c2.391.246,3.579,1.671,3.611,4.1.04,3,.012,5.994.012,8.992q0,.623,0,1.245m-9.57-.085c0,3.317-.009,6.634,0,9.951.006,1.356.463,1.834,1.807,1.876q1.726.054,3.455,0c1.368-.04,1.82-.5,1.822-1.852q.013-9.951,0-19.9c0-1.388-.51-1.871-1.938-1.9-1.013-.02-2.027-.014-3.041,0-1.662.019-2.1.466-2.107,2.153-.007,3.225,0,6.45,0,9.675" transform="translate(-127.192 -29.01)" fill="#fff"/>
        <path id="Path_21968" data-name="Path 21968" d="M63,18.35H59.345c-.707-1.322.352-2.977-.751-4.139-.835.136-.876.663-.878,1.175-.011,2.719-.022,5.438.012,8.156a5.825,5.825,0,0,0,.45,1.413c1.547-1.147.5-2.693,1.141-3.911H62.8a6.847,6.847,0,0,1-.271,3.977,3.473,3.473,0,0,1-1,1.289,5.346,5.346,0,0,1-6.309.045,3.666,3.666,0,0,1-1.063-1.7,10.283,10.283,0,0,1-.3-2.6c-.039-1.889-.032-3.779,0-5.668.059-3.766,2.535-5.607,6.165-4.593a3.4,3.4,0,0,1,2.75,2.933c.143,1.129.151,2.274.232,3.623" transform="translate(-24.034 -5.143)" fill="#ef1d1e"/>
        <path id="Path_21969" data-name="Path 21969" d="M34.372,18.371H30.691c-.661-1.356.257-2.922-.671-4.145-1,.115-.921.823-.936,1.374-.049,1.7-.039,3.41-.041,5.115,0,.921-.024,1.847.054,2.763a7.187,7.187,0,0,0,.516,1.5c1.395-1.217.435-2.684,1.048-3.907h3.613a10,10,0,0,1-.384,4.027,3.468,3.468,0,0,1-2.352,1.99,6.018,6.018,0,0,1-3.807-.056,3.052,3.052,0,0,1-2.31-2.819q-.159-4.688-.05-9.384A3.1,3.1,0,0,1,27.3,12.147a5.5,5.5,0,0,1,5.181.127,2.842,2.842,0,0,1,1.6,2.143c.17,1.26.195,2.541.292,3.954" transform="translate(-11.306 -5.161)" fill="#ef1d1e"/>
        <path id="Path_21970" data-name="Path 21970" d="M98.253,29.5c-1.412-.035-2.729.387-3.99-.413-.157.091-.311.186-.469.271-2.052,1.093-3.89.106-3.957-2.2-.073-2.489-.03-4.981-.036-7.471,0-.773,0-1.545,0-2.413h3.566c.034.547.087,1.033.089,1.518.011,2.444,0,4.889.018,7.333,0,.514-.14,1.138.566,1.373.728-.309.551-.932.555-1.447.019-2.4,0-4.8.012-7.195,0-.493.049-.984.08-1.555h3.567Z" transform="translate(-40.09 -7.71)" fill="#ef1d1e"/>
        <path id="Path_21971" data-name="Path 21971" d="M107.7,17.093c2.176-.347,2.966-.25,3.885.484a4.778,4.778,0,0,1,.53-.39,2.436,2.436,0,0,1,3.87,2.02c.093,1.19.042,2.392.045,3.589q.008,2.623,0,5.247c0,.356-.065.711-.11,1.167H112.48c-.04-.542-.1-1.028-.106-1.515-.011-2.393.01-4.787-.019-7.18a9.439,9.439,0,0,0-.293-1.568c-.917.339-.8.945-.809,1.461-.018,2.393-.009,4.787-.021,7.18,0,.494-.048.989-.081,1.6h-3.328c-.392-.938-.5-10.365-.123-12.1" transform="translate(-47.981 -7.482)" fill="#ef1d1e"/>
        <path id="Path_21972" data-name="Path 21972" d="M72.508,23.257a28.39,28.39,0,0,1,.021-3.176,3.277,3.277,0,0,1,3.37-3.2,7.693,7.693,0,0,1,2.583.283,2.987,2.987,0,0,1,2.3,2.949c.046,2.117.015,4.236-.025,6.353a2.982,2.982,0,0,1-1.192,2.256,5.5,5.5,0,0,1-5.87.118,3.256,3.256,0,0,1-1.2-2.545c-.061-1.01-.013-2.027-.013-3.041h.032m4.51-4.076-.372-.105c-.164.187-.468.373-.47.562q-.043,3.571.01,7.143c0,.189.307.374.646.759a4.973,4.973,0,0,0,.328-1.175,59.352,59.352,0,0,0-.142-7.184" transform="translate(-32.351 -7.533)" fill="#ef1d1e"/>
        <path id="Path_21973" data-name="Path 21973" d="M11.585,12.452h5.986v2.8l-2.288.242v2.541l2.159.3v2.6l-2.04.185c-.5.989-.172,1.985-.233,3.117l2.651.2v2.9c-2.081.089-4.17.07-6.227,0-.456-1.224-.445-13.781-.009-14.894" transform="translate(-5.025 -5.559)" fill="#ef1d1e"/>
        <path id="Path_21974" data-name="Path 21974" d="M130.226,21.477c-.414-2.08-.414-2.08-1.062-2.5a6.764,6.764,0,0,0-.236,1.185q-.034,2.9,0,5.8c0,.526-.09,1.159.771,1.279.952-.723.291-1.908.772-2.882h3.052a21.819,21.819,0,0,1-.177,2.242,3.309,3.309,0,0,1-2.053,2.591,5.114,5.114,0,0,1-3.907.035,2.785,2.785,0,0,1-1.975-2.449c-.116-2.381-.1-4.77-.079-7.155a2.511,2.511,0,0,1,1.467-2.2,4.88,4.88,0,0,1,5.125.058c1.472.881,1.537,2.376,1.56,4Z" transform="translate(-55.949 -7.467)" fill="#ef1d1e"/>
        <path id="Path_21975" data-name="Path 21975" d="M155.023,27.3h-3.4c-.364-1.072-.412-13.37-.047-14.823h3.435c.059,4.94.04,9.827.011,14.823" transform="translate(-67.563 -5.569)" fill="#ef1d1e"/>
        <rect id="Rectangle_9178" data-name="Rectangle 9178" width="3.593" height="12.107" transform="translate(78.702 9.633)" fill="#ef1d1e"/>
        <path id="Path_21976" data-name="Path 21976" d="M43.505,28.458V26a26.414,26.414,0,0,1,4.674,0v2.422a18.952,18.952,0,0,1-4.674.032" transform="translate(-19.424 -11.564)" fill="#ef1d1e"/>
        <rect id="Rectangle_9179" data-name="Rectangle 9179" width="3.594" height="1.688" transform="translate(78.714 6.906)" fill="#ef1d1e"/>
        <rect id="Rectangle_9180" data-name="Rectangle 9180" width="2.299" height="2.486" transform="translate(176.551 43.154)" fill="#fff"/>
        <rect id="Rectangle_9181" data-name="Rectangle 9181" width="2.553" height="5.991" transform="translate(162.506 41.109)" fill="#fff"/>
        <path id="Path_21977" data-name="Path 21977" d="M296.138,102.973H293.58V97.253a2.323,2.323,0,0,1,2.558-.045Z" transform="translate(-131.075 -43.24)" fill="#fff"/>
        <path id="Path_21978" data-name="Path 21978" d="M296.145,91.27h-2.561v-2.56a3.145,3.145,0,0,1,2.561-.112Z" transform="translate(-131.077 -39.461)" fill="#fff"/>
        <path id="Path_21979" data-name="Path 21979" d="M5.212,161.083H3.638L0,147.725H1.74l2.675,10.9H4.49l3.008-10.9H9.183l3.009,10.9h.074l2.676-10.9h1.74l-3.638,13.358H11.469l-3.083-10.6H8.294Z" transform="translate(0 -65.955)" fill="#fff"/>
        <path id="Path_21980" data-name="Path 21980" d="M38.528,146.671h1.611v5.582h.037a3.29,3.29,0,0,1,3.166-1.713,3.376,3.376,0,0,1,3.518,3.7v6.369H45.248V154.53a2.237,2.237,0,0,0-2.388-2.555,2.625,2.625,0,0,0-2.722,2.9v5.74H38.528Z" transform="translate(-17.202 -65.485)" fill="#fff"/>
        <path id="Path_21981" data-name="Path 21981" d="M70.771,160.883c-.278,1.712-2.009,2.943-4.138,2.943-2.8,0-4.573-1.953-4.573-5.045s1.777-5.119,4.5-5.119c2.666,0,4.332,1.879,4.332,4.9v.63H63.726v.092a2.856,2.856,0,0,0,2.944,3.129,2.444,2.444,0,0,0,2.509-1.527ZM63.726,157.9h5.489a2.644,2.644,0,0,0-2.685-2.824,2.794,2.794,0,0,0-2.8,2.824" transform="translate(-27.708 -68.606)" fill="#fff"/>
        <path id="Path_21982" data-name="Path 21982" d="M86.579,153.754H88.1v1.62h.037a3.281,3.281,0,0,1,3.166-1.713c2.194,0,3.462,1.407,3.462,3.675v6.4H93.152v-6.119c0-1.63-.759-2.518-2.333-2.518a2.555,2.555,0,0,0-2.629,2.842v5.794H86.579Z" transform="translate(-38.655 -68.606)" fill="#fff"/>
        <path id="Path_21983" data-name="Path 21983" d="M133.076,161.083H124.8V147.725h8.276v1.5h-6.61v4.286h6.267v1.481h-6.267v4.592h6.61Z" transform="translate(-55.72 -65.955)" fill="#fff"/>
        <path id="Path_21984" data-name="Path 21984" d="M152.609,163.808H150.98l-3.684-9.979h1.684l2.8,8.238h.037l2.8-8.238h1.676Z" transform="translate(-65.763 -68.68)" fill="#fff"/>
        <path id="Path_21985" data-name="Path 21985" d="M178.77,160.883c-.278,1.712-2.009,2.943-4.138,2.943-2.8,0-4.573-1.953-4.573-5.045s1.777-5.119,4.5-5.119c2.666,0,4.332,1.879,4.332,4.9v.63h-7.165v.092a2.856,2.856,0,0,0,2.944,3.129,2.444,2.444,0,0,0,2.509-1.527Zm-7.045-2.981h5.489a2.644,2.644,0,0,0-2.685-2.824,2.794,2.794,0,0,0-2.8,2.824" transform="translate(-75.927 -68.606)" fill="#fff"/>
        <path id="Path_21986" data-name="Path 21986" d="M194.578,153.754H196.1v1.62h.037a2.408,2.408,0,0,1,2.416-1.713,3.592,3.592,0,0,1,.666.056V155.3a3.379,3.379,0,0,0-.88-.092,2.129,2.129,0,0,0-2.148,2.351v6.174h-1.611Z" transform="translate(-86.874 -68.606)" fill="#fff"/>
        <path id="Path_21987" data-name="Path 21987" d="M210.392,167.363V166a3.743,3.743,0,0,0,.657.055c.926,0,1.426-.445,1.833-1.648l.194-.592-3.694-9.988H211.1l2.8,8.341h.036l2.8-8.341h1.694l-3.906,10.59c-.851,2.314-1.648,3.008-3.416,3.008a4.481,4.481,0,0,1-.7-.065" transform="translate(-93.484 -68.68)" fill="#fff"/>
        <path id="Path_21988" data-name="Path 21988" d="M232.214,158.744c0-3.1,1.8-5.083,4.6-5.083s4.6,1.981,4.6,5.083-1.8,5.082-4.6,5.082-4.6-1.99-4.6-5.082m7.563,0c0-2.3-1.1-3.648-2.962-3.648s-2.962,1.361-2.962,3.648,1.111,3.647,2.962,3.647,2.962-1.361,2.962-3.647" transform="translate(-103.677 -68.605)" fill="#fff"/>
        <path id="Path_21989" data-name="Path 21989" d="M257.4,153.754h1.518v1.62h.037a3.281,3.281,0,0,1,3.166-1.713c2.194,0,3.462,1.407,3.462,3.675v6.4h-1.611v-6.119c0-1.63-.759-2.518-2.333-2.518a2.555,2.555,0,0,0-2.629,2.842v5.794H257.4Z" transform="translate(-114.923 -68.606)" fill="#fff"/>
        <path id="Path_21990" data-name="Path 21990" d="M289.377,160.883c-.278,1.712-2.009,2.943-4.138,2.943-2.8,0-4.573-1.953-4.573-5.045s1.777-5.119,4.5-5.119c2.666,0,4.332,1.879,4.332,4.9v.63h-7.165v.092a2.856,2.856,0,0,0,2.944,3.129,2.444,2.444,0,0,0,2.509-1.527Zm-7.045-2.981h5.489a2.644,2.644,0,0,0-2.685-2.824,2.794,2.794,0,0,0-2.8,2.824" transform="translate(-125.31 -68.606)" fill="#fff"/>
        <path id="Path_21991" data-name="Path 21991" d="M324.3,147.725a4.3,4.3,0,0,1-.018,8.591h-3.36v4.767h-1.666V147.725Zm-3.379,7.11h2.944c1.907,0,3-1.046,3-2.824s-1.083-2.8-3-2.8h-2.944Z" transform="translate(-142.539 -65.955)" fill="#fff"/>
        <path id="Path_21992" data-name="Path 21992" d="M344.677,153.754H346.2v1.62h.037a2.408,2.408,0,0,1,2.416-1.713,3.594,3.594,0,0,1,.667.056V155.3a3.381,3.381,0,0,0-.88-.092,2.129,2.129,0,0,0-2.148,2.351v6.174h-1.611Z" transform="translate(-153.889 -68.606)" fill="#fff"/>
        <path id="Path_21993" data-name="Path 21993" d="M359.316,158.744c0-3.1,1.8-5.083,4.6-5.083s4.6,1.981,4.6,5.083-1.8,5.082-4.6,5.082-4.6-1.99-4.6-5.082m7.563,0c0-2.3-1.1-3.648-2.963-3.648s-2.962,1.361-2.962,3.648,1.111,3.647,2.962,3.647,2.963-1.361,2.963-3.647" transform="translate(-160.425 -68.605)" fill="#fff"/>
        <path id="Path_21994" data-name="Path 21994" d="M385.948,149.765v2.249h1.944v1.333h-1.944v5.989c0,.916.389,1.333,1.241,1.333a6.758,6.758,0,0,0,.694-.046v1.361a5.857,5.857,0,0,1-1.037.084c-1.8,0-2.508-.75-2.508-2.666v-6.054h-1.388v-1.333h1.388v-2.249Z" transform="translate(-170.976 -66.866)" fill="#fff"/>
        <path id="Path_21995" data-name="Path 21995" d="M407.937,160.883c-.278,1.712-2.009,2.943-4.138,2.943-2.8,0-4.573-1.953-4.573-5.045s1.777-5.119,4.5-5.119c2.666,0,4.332,1.879,4.332,4.9v.63h-7.165v.092a2.856,2.856,0,0,0,2.944,3.129,2.444,2.444,0,0,0,2.509-1.527Zm-7.045-2.981h5.489a2.644,2.644,0,0,0-2.684-2.824,2.794,2.794,0,0,0-2.8,2.824" transform="translate(-178.243 -68.606)" fill="#fff"/>
        <path id="Path_21996" data-name="Path 21996" d="M430.014,157a2.413,2.413,0,0,0-2.592-1.907c-1.74,0-2.925,1.444-2.925,3.648,0,2.267,1.2,3.647,2.944,3.647a2.382,2.382,0,0,0,2.592-1.851h1.583a3.919,3.919,0,0,1-4.184,3.286c-2.74,0-4.573-1.944-4.573-5.081,0-3.065,1.823-5.083,4.554-5.083A3.934,3.934,0,0,1,431.6,157Z" transform="translate(-188.795 -68.606)" fill="#fff"/>
        <path id="Path_21997" data-name="Path 21997" d="M448.42,149.765v2.249h1.944v1.333H448.42v5.989c0,.916.389,1.333,1.24,1.333a6.754,6.754,0,0,0,.694-.046v1.361a5.854,5.854,0,0,1-1.037.084c-1.805,0-2.509-.75-2.509-2.666v-6.054h-1.388v-1.333h1.388v-2.249Z" transform="translate(-198.868 -66.866)" fill="#fff"/>
        <path id="Path_21998" data-name="Path 21998" d="M466.255,153.678c2.027,0,3.564,1.212,3.629,2.851h-1.546c-.1-.935-.917-1.518-2.139-1.518s-2.055.583-2.055,1.454c0,.676.537,1.129,1.684,1.416l1.518.379c2.018.509,2.74,1.213,2.74,2.666,0,1.7-1.638,2.907-3.943,2.907-2.148,0-3.7-1.166-3.86-2.9h1.62c.167,1.019.991,1.565,2.351,1.565s2.212-.565,2.212-1.462c0-.7-.417-1.074-1.555-1.371l-1.75-.453c-1.749-.453-2.6-1.333-2.6-2.666,0-1.685,1.527-2.87,3.694-2.87" transform="translate(-206.397 -68.613)" fill="#fff"/>
        <rect id="Rectangle_9182" data-name="Rectangle 9182" width="3.321" height="2.768" transform="translate(139.148 39.531)" fill="#ef1d1e"/>
        <rect id="Rectangle_9183" data-name="Rectangle 9183" width="3.321" height="2.768" transform="translate(139.148 48.941)" fill="#ef1d1e"/>
        <rect id="Rectangle_9184" data-name="Rectangle 9184" width="3.321" height="2.768" transform="translate(139.148 58.351)" fill="#ef1d1e"/>
      </g>
    </g>
  </g>
</svg>
