<svg id="Group_15915" data-name="Group 15915" xmlns="http://www.w3.org/2000/svg" xmlns:xlink="http://www.w3.org/1999/xlink" width="248.415" height="58.025" viewBox="0 0 248.415 58.025">
  <defs>
    <clipPath id="clip-path">
      <rect id="Rectangle_9169" data-name="Rectangle 9169" width="248.415" height="58.025" fill="none"/>
    </clipPath>
  </defs>
  <g id="Group_15914" data-name="Group 15914" clip-path="url(#clip-path)">
    <path id="Path_21891" data-name="Path 21891" d="M207.39,33a19.39,19.39,0,1,0,19.39,19.39A19.389,19.389,0,0,0,207.39,33m0,32.949A13.559,13.559,0,1,1,220.949,52.39,13.559,13.559,0,0,1,207.39,65.949" transform="translate(-133.182 -23.378)" fill="#ff000a"/>
    <path id="Path_21892" data-name="Path 21892" d="M243.037,80.019A8.019,8.019,0,1,1,235.019,72a8.019,8.019,0,0,1,8.019,8.019" transform="translate(-160.81 -51.006)" fill="#ff000a"/>
    <path id="Path_21893" data-name="Path 21893" d="M222.622,30.43A28.431,28.431,0,0,1,169.37,44.292a24.627,24.627,0,0,0,2.54-4.785,24.056,24.056,0,1,0,0-18.154,24.628,24.628,0,0,0-2.54-4.785A28.431,28.431,0,0,1,222.622,30.43" transform="translate(-119.984 -1.417)" fill="#ff000a"/>
    <path id="Path_21894" data-name="Path 21894" d="M71.781,52.39A19.39,19.39,0,1,1,52.39,33a19.39,19.39,0,0,1,19.39,19.39" transform="translate(-23.378 -23.378)" fill="#0079c5"/>
    <path id="Path_21895" data-name="Path 21895" d="M29.013,0A29.013,29.013,0,1,0,58.025,29.013,29.013,29.013,0,0,0,29.013,0m0,53.652A24.639,24.639,0,1,1,53.652,29.013,24.639,24.639,0,0,1,29.013,53.652" fill="#0079c5"/>
    <path id="Path_21896" data-name="Path 21896" d="M85.237,62.9v7.648H78.481V88.526H71.436V70.544H64.751V62.9Z" transform="translate(-45.871 -44.557)" fill="#fff"/>
    <path id="Path_21897" data-name="Path 21897" d="M390.656,10.336v3.678h-4.993V29.181h-4.59V14.014h-4.993V10.336Z" transform="translate(-266.42 -7.322)" fill="#fff"/>
    <path id="Path_21898" data-name="Path 21898" d="M452.069,29.181l-3.919-7.114h-1.1v7.114h-4.59V10.336h7.7a8.486,8.486,0,0,1,3.8.779,5.366,5.366,0,0,1,2.349,2.134,5.957,5.957,0,0,1,.779,3.02,5.61,5.61,0,0,1-1.061,3.356,5.706,5.706,0,0,1-3.127,2.094l4.349,7.463Zm-5.02-10.362h2.846a2.6,2.6,0,0,0,1.893-.618,2.332,2.332,0,0,0,.631-1.745,2.259,2.259,0,0,0-.631-1.691,2.607,2.607,0,0,0-1.893-.618h-2.846Z" transform="translate(-313.444 -7.322)" fill="#fff"/>
    <rect id="Rectangle_9166" data-name="Rectangle 9166" width="4.59" height="18.845" transform="translate(149.524 3.014)" fill="#fff"/>
    <path id="Path_21899" data-name="Path 21899" d="M565.718,19.4a5.525,5.525,0,0,1-2.309,2.188,8.125,8.125,0,0,1-3.866.832H556.7v6.765h-4.59V10.336h7.436a8.468,8.468,0,0,1,3.812.779,5.357,5.357,0,0,1,2.335,2.148,6.244,6.244,0,0,1,.779,3.141,6.068,6.068,0,0,1-.752,2.993m-4.564-1.248A2.3,2.3,0,0,0,561.8,16.4a2.3,2.3,0,0,0-.644-1.745,2.74,2.74,0,0,0-1.96-.618h-2.5v4.725h2.5a2.738,2.738,0,0,0,1.96-.617" transform="translate(-391.121 -7.322)" fill="#fff"/>
    <path id="Path_21900" data-name="Path 21900" d="M624.458,25.638h6.013v3.543h-10.6V10.336h4.59Z" transform="translate(-439.124 -7.322)" fill="#fff"/>
    <path id="Path_21901" data-name="Path 21901" d="M678.685,14.014v3.812h6.148V21.37h-6.148V25.5h6.953v3.678H674.094V10.336h11.543v3.678Z" transform="translate(-477.538 -7.322)" fill="#fff"/>
    <path id="Path_21902" data-name="Path 21902" d="M737.869,33.95a4,4,0,0,1-2-3.49,4.018,4.018,0,0,1,.537-2.054,4,4,0,0,1,3.49-2,4.019,4.019,0,0,1,2.054.537,3.958,3.958,0,0,1,1.463,1.463,4.018,4.018,0,0,1,.537,2.054,4,4,0,0,1-2,3.49,4.016,4.016,0,0,1-2.054.537,3.964,3.964,0,0,1-2.027-.537" transform="translate(-521.3 -18.706)" fill="#fff"/>
    <path id="Path_21903" data-name="Path 21903" d="M784.511,25.875a10.12,10.12,0,0,1-3.858-3.784,10.571,10.571,0,0,1-1.428-5.463,10.5,10.5,0,0,1,1.428-5.448,10.161,10.161,0,0,1,3.858-3.77,11.222,11.222,0,0,1,10.69,0,9.952,9.952,0,0,1,3.829,3.77,10.675,10.675,0,0,1,1.4,5.448,10.661,10.661,0,0,1-1.414,5.463,10.052,10.052,0,0,1-3.829,3.784,11.194,11.194,0,0,1-10.676,0m9.306-4.889a6.263,6.263,0,0,0,1.487-4.359,6.251,6.251,0,0,0-1.487-4.373,5.1,5.1,0,0,0-3.961-1.635,5.155,5.155,0,0,0-3.991,1.62,6.238,6.238,0,0,0-1.487,4.388A6.249,6.249,0,0,0,785.866,21a5.131,5.131,0,0,0,3.991,1.634,5.073,5.073,0,0,0,3.961-1.649" transform="translate(-552.014 -4.289)" fill="#fff"/>
    <path id="Path_21904" data-name="Path 21904" d="M397.653,102.376v2.82h-5.887v3.046h4.4v2.738h-4.4v5.846h-3.52V102.376Z" transform="translate(-275.039 -72.525)" fill="#fff"/>
    <rect id="Rectangle_9167" data-name="Rectangle 9167" width="3.52" height="14.451" transform="translate(132.083 29.851)" fill="#fff"/>
    <path id="Path_21905" data-name="Path 21905" d="M512.856,116.826h-3.52l-5.887-8.913v8.913h-3.52V102.376h3.52l5.887,8.955v-8.955h3.52Z" transform="translate(-354.157 -72.524)" fill="#fff"/>
    <path id="Path_21906" data-name="Path 21906" d="M588.656,114.274h-5.393l-.865,2.553h-3.685l5.228-14.45h4.076l5.229,14.45h-3.726Zm-.906-2.717-1.791-5.291-1.77,5.291Z" transform="translate(-409.969 -72.525)" fill="#fff"/>
    <path id="Path_21907" data-name="Path 21907" d="M677.273,116.826h-3.52l-5.887-8.913v8.913h-3.52V102.376h3.52l5.887,8.955v-8.955h3.52Z" transform="translate(-470.632 -72.524)" fill="#fff"/>
    <path id="Path_21908" data-name="Path 21908" d="M821.34,105.2v2.923h4.714v2.718H821.34v3.17h5.331v2.82H817.82V102.376h8.851v2.82Z" transform="translate(-579.356 -72.525)" fill="#fff"/>
    <path id="Path_21909" data-name="Path 21909" d="M391.553,174.635V176H388.7v1.477h2.136v1.328H388.7v2.835h-1.707v-7.008Z" transform="translate(-274.15 -123.714)" fill="#fff"/>
    <rect id="Rectangle_9168" data-name="Rectangle 9168" width="1.707" height="7.008" transform="translate(120.049 50.921)" fill="#fff"/>
    <path id="Path_21910" data-name="Path 21910" d="M434.069,181.643h-1.707l-2.855-4.322v4.322H427.8v-7.008h1.707l2.855,4.342v-4.342h1.707Z" transform="translate(-303.06 -123.714)" fill="#fff"/>
    <path id="Path_21911" data-name="Path 21911" d="M462.783,180.4h-2.615l-.419,1.238h-1.787l2.536-7.008h1.976l2.536,7.008H463.2Zm-.439-1.318-.869-2.565-.858,2.565Z" transform="translate(-324.427 -123.713)" fill="#fff"/>
    <path id="Path_21912" data-name="Path 21912" d="M497.028,181.643h-1.707l-2.855-4.322v4.322h-1.707v-7.008h1.707l2.855,4.342v-4.342h1.707Z" transform="translate(-347.661 -123.714)" fill="#fff"/>
    <path id="Path_21913" data-name="Path 21913" d="M521.951,176.083a3.21,3.21,0,0,1,1.253-1.268,3.637,3.637,0,0,1,1.822-.454,3.488,3.488,0,0,1,2.136.659,3.164,3.164,0,0,1,1.188,1.8h-1.877a1.517,1.517,0,0,0-.594-.669,1.668,1.668,0,0,0-.874-.23,1.629,1.629,0,0,0-1.278.549,2.445,2.445,0,0,0,0,2.935,1.629,1.629,0,0,0,1.278.549,1.67,1.67,0,0,0,.874-.229,1.518,1.518,0,0,0,.594-.669h1.877a3.141,3.141,0,0,1-1.188,1.792,3.505,3.505,0,0,1-2.136.654,3.637,3.637,0,0,1-1.822-.454,3.219,3.219,0,0,1-1.253-1.263,4.03,4.03,0,0,1,0-3.7" transform="translate(-369.44 -123.52)" fill="#fff"/>
    <path id="Path_21914" data-name="Path 21914" d="M556.281,176v1.417h2.286v1.318h-2.286v1.537h2.586v1.368h-4.292v-7.008h4.292V176Z" transform="translate(-392.868 -123.714)" fill="#fff"/>
    <path id="Path_21915" data-name="Path 21915" d="M596.9,174.635V176h-2.855v1.477h2.136v1.328h-2.136v2.835h-1.707v-7.008Z" transform="translate(-419.618 -123.714)" fill="#fff"/>
    <path id="Path_21916" data-name="Path 21916" d="M617.851,181.01a3.432,3.432,0,0,1-1.308-1.283,3.772,3.772,0,0,1,0-3.7,3.444,3.444,0,0,1,1.308-1.278,3.8,3.8,0,0,1,3.624,0,3.374,3.374,0,0,1,1.3,1.278,3.825,3.825,0,0,1-.005,3.7,3.407,3.407,0,0,1-1.3,1.283,3.8,3.8,0,0,1-3.619,0m3.154-1.657a2.424,2.424,0,0,0,0-2.96,1.728,1.728,0,0,0-1.343-.554,1.747,1.747,0,0,0-1.353.549,2.439,2.439,0,0,0,0,2.97,1.74,1.74,0,0,0,1.353.554,1.72,1.72,0,0,0,1.343-.559" transform="translate(-436.425 -123.471)" fill="#fff"/>
    <path id="Path_21917" data-name="Path 21917" d="M653.526,181.643,652.068,179h-.409v2.645h-1.707v-7.008h2.865a3.155,3.155,0,0,1,1.413.29,1.994,1.994,0,0,1,.873.793,2.215,2.215,0,0,1,.29,1.123,2.086,2.086,0,0,1-.394,1.248,2.122,2.122,0,0,1-1.163.779l1.617,2.775Zm-1.867-3.853h1.058a.968.968,0,0,0,.7-.229.866.866,0,0,0,.235-.649.839.839,0,0,0-.235-.629.97.97,0,0,0-.7-.229h-1.058Z" transform="translate(-460.436 -123.714)" fill="#fff"/>
    <path id="Path_21918" data-name="Path 21918" d="M697.583,174.635v7.008h-1.707v-2.885h-2.655v2.885h-1.707v-7.008h1.707v2.745h2.655v-2.745Z" transform="translate(-489.878 -123.714)" fill="#fff"/>
    <path id="Path_21919" data-name="Path 21919" d="M724.237,176v1.417h2.286v1.318h-2.286v1.537h2.586v1.368h-4.292v-7.008h4.292V176Z" transform="translate(-511.851 -123.714)" fill="#fff"/>
    <path id="Path_21920" data-name="Path 21920" d="M750.617,181.643,749.159,179h-.409v2.645h-1.707v-7.008h2.865a3.156,3.156,0,0,1,1.413.29,2,2,0,0,1,.873.793,2.216,2.216,0,0,1,.289,1.123,2.086,2.086,0,0,1-.394,1.248,2.122,2.122,0,0,1-1.163.779l1.617,2.775Zm-1.867-3.853h1.058a.968.968,0,0,0,.7-.229.866.866,0,0,0,.235-.649.839.839,0,0,0-.235-.629.97.97,0,0,0-.7-.229H748.75Z" transform="translate(-529.216 -123.714)" fill="#fff"/>
    <path id="Path_21921" data-name="Path 21921" d="M776.154,181.01a3.432,3.432,0,0,1-1.308-1.283,3.773,3.773,0,0,1,0-3.7,3.444,3.444,0,0,1,1.308-1.278,3.8,3.8,0,0,1,3.624,0,3.374,3.374,0,0,1,1.3,1.278,3.825,3.825,0,0,1-.005,3.7,3.408,3.408,0,0,1-1.3,1.283,3.8,3.8,0,0,1-3.619,0m3.154-1.657a2.424,2.424,0,0,0,0-2.96,1.728,1.728,0,0,0-1.343-.554,1.748,1.748,0,0,0-1.353.549,2.439,2.439,0,0,0,0,2.97,1.74,1.74,0,0,0,1.353.554,1.72,1.72,0,0,0,1.343-.559" transform="translate(-548.569 -123.471)" fill="#fff"/>
    <path id="Path_21922" data-name="Path 21922" d="M809.962,176v1.417h2.286v1.318h-2.286v1.537h2.585v1.368h-4.292v-7.008h4.292V176Z" transform="translate(-572.58 -123.714)" fill="#fff"/>
    <path id="Path_21923" data-name="Path 21923" d="M833.44,181.22a2.243,2.243,0,0,1-.973-.739,2.017,2.017,0,0,1-.384-1.178H833.9a.881.881,0,0,0,.269.594.866.866,0,0,0,.6.2.936.936,0,0,0,.6-.175.584.584,0,0,0,.22-.484.574.574,0,0,0-.175-.429,1.407,1.407,0,0,0-.429-.279,6.92,6.92,0,0,0-.724-.25,7.845,7.845,0,0,1-1.108-.419,2.046,2.046,0,0,1-.739-.619,1.724,1.724,0,0,1-.31-1.068,1.836,1.836,0,0,1,.709-1.532,2.911,2.911,0,0,1,1.847-.554,2.946,2.946,0,0,1,1.867.554,1.984,1.984,0,0,1,.759,1.542h-1.847a.722.722,0,0,0-.25-.534.878.878,0,0,0-.589-.195.732.732,0,0,0-.5.165.634.634,0,0,0,.13,1,5.243,5.243,0,0,0,1,.409,9.2,9.2,0,0,1,1.1.439,2.1,2.1,0,0,1,.734.609,1.63,1.63,0,0,1,.31,1.028,2.019,2.019,0,0,1-.3,1.088,2.132,2.132,0,0,1-.883.779,3.025,3.025,0,0,1-1.368.289,3.608,3.608,0,0,1-1.378-.249" transform="translate(-589.459 -123.471)" fill="#fff"/>
    <path id="Path_21924" data-name="Path 21924" d="M750.291,107.674a4.226,4.226,0,0,0,7.581,2.572v4.712a8.019,8.019,0,1,1,0-14.568V105.1a4.226,4.226,0,0,0-7.581,2.572" transform="translate(-528.831 -70.597)" fill="#fff"/>
  </g>
</svg>
