<svg id="Group_15920" data-name="Group 15920" xmlns="http://www.w3.org/2000/svg" xmlns:xlink="http://www.w3.org/1999/xlink" width="223.646" height="83.406" viewBox="0 0 223.646 83.406">
  <defs>
    <clipPath id="clip-path">
      <rect id="Rectangle_9177" data-name="Rectangle 9177" width="223.646" height="83.406" fill="none"/>
    </clipPath>
  </defs>
  <g id="Group_15916" data-name="Group 15916" clip-path="url(#clip-path)">
    <path id="Path_21925" data-name="Path 21925" d="M89.145,59.806h12.581c-.448,2.368.511,4.455,1.194,6.571,1.8,5.592,3.7,11.155,5.559,16.73.07.209.159.411.319.819.161-.433.267-.664.334-.906,1.786-6.531,3.589-13.058,5.333-19.6a30.236,30.236,0,0,0,.512-3.515,139.818,139.818,0,0,1,14.044-.021c-.383,1.733.2,3.35.653,4.986q2.525,9.052,5.052,18.1c.07.251.18.49.328.89a6.659,6.659,0,0,0,.371-.714q3.309-9.418,6.6-18.842a7.537,7.537,0,0,0,.56-4.334,85.887,85.887,0,0,1,12.5,0c-1.867,1.4-2.458,3.509-3.314,5.44q-4.259,9.607-8.394,19.269a24.811,24.811,0,0,0-1.221,3.765A12.97,12.97,0,0,0,142,90.79c-.648.213-12.562.294-13.987.072a22.881,22.881,0,0,0-.388-3.207c-1.8-6.81-3.655-13.6-5.495-20.4a3.275,3.275,0,0,0-.14-.323,3.2,3.2,0,0,0-.323.587q-2.736,9.841-5.448,19.69a6.769,6.769,0,0,0-.214,3.662H101.7a7.085,7.085,0,0,0-.733-4.618c-2.03-4.973-4.1-9.928-6.159-14.89-.953-2.3-1.9-4.606-2.851-6.907a9.346,9.346,0,0,0-2.923-4.421l.107-.225" transform="translate(-47.41 -31.798)" fill="#fff"/>
    <path id="Path_21926" data-name="Path 21926" d="M39.593,90.1H28.972V87.624c-.416.248-.675.392-.924.551a16.768,16.768,0,0,1-7.007,2.42,24.318,24.318,0,0,1-10.41-.658C5.489,88.341,3.744,84.771,3.989,80c.235-4.526,2.915-7.138,6.971-8.532a19.676,19.676,0,0,1,3.977-.867c4.392-.538,8.706-.322,12.784,1.655a8,8,0,0,0,.861.307A5.721,5.721,0,0,0,23.6,65.178c-5.809-.449-11.332.491-16.279,3.81a3.6,3.6,0,0,1-.569.245c-.26-2.817-.513-5.553-.774-8.373.652-.252,1.21-.518,1.8-.687a46.513,46.513,0,0,1,20.215-1.427,15.466,15.466,0,0,1,3.782,1.137c3.721,1.63,5.622,4.691,6.244,8.572a42.84,42.84,0,0,1,.5,5.922c.077,3.815.037,7.632.017,11.449a6.1,6.1,0,0,0,.979,3.886c.06.08.047.216.079.388M20.037,84.091a36.387,36.387,0,0,0,4.141-.415A12.488,12.488,0,0,0,27.763,82.4a1.985,1.985,0,0,0,.07-3.541,7.061,7.061,0,0,0-1.865-.926,17.375,17.375,0,0,0-6.442-.78,9.55,9.55,0,0,0-4.286.958,2.951,2.951,0,0,0-1.667,3.073,2.467,2.467,0,0,0,2.172,2.267c1.513.3,3.056.461,4.292.638" transform="translate(-2.112 -31)" fill="#fff"/>
    <path id="Path_21927" data-name="Path 21927" d="M440.387,77.351c-.64-.107-1.122-.221-1.609-.262-1.24-.105-2.484-.246-3.726-.252-5.688-.029-11.375-.018-17.062-.018-.305,0-.611.028-.9.042a5.469,5.469,0,0,0,3.219,6,14.7,14.7,0,0,0,4.282,1.039,26.189,26.189,0,0,0,12.873-2.218c.416-.187.84-.357,1.375-.583.265,2.425.515,4.716.784,7.17A28.956,28.956,0,0,1,436.7,89.4a40.332,40.332,0,0,1-19.08.636,12.012,12.012,0,0,1-9.906-9.822,22.377,22.377,0,0,1,.4-12.225,13.169,13.169,0,0,1,9.792-8.977,26.923,26.923,0,0,1,12.723-.067A11.242,11.242,0,0,1,439,66.342a19.765,19.765,0,0,1,1.39,7.183c.005,1.234,0,2.468,0,3.826m-9.707-6.412a5.378,5.378,0,0,0-4.275-5.674,10.446,10.446,0,0,0-5.648.33,4.777,4.777,0,0,0-2.737,2.247,4.7,4.7,0,0,0-.487,1.769c-.065.817.335,1.2,1.168,1.3a8.831,8.831,0,0,0,1.051.029q4.85,0,9.7,0h1.228" transform="translate(-216.743 -31)" fill="#fff"/>
    <path id="Path_21928" data-name="Path 21928" d="M275.391,25.522l2.85.33v8.56h-2.031V27.854H244.927v3.259c.494.033.905.084,1.317.086,2.22.008,4.441,0,6.661.007,1.19.006,1.334.155,1.346,1.361q.019,1.87,0,3.739c-.011,1.257-.175,1.432-1.407,1.438-2.22.011-4.441,0-6.661.006-.347,0-.694.029-1.142.049-.042.362-.079.688-.125,1.082a4.859,4.859,0,0,0,.838.163c2.142.013,4.285.008,6.428.009,2.071,0,2.071,0,2.071,2.07,0,1.013.016,2.026-.008,3.038a12.622,12.622,0,0,1-.183,1.347h-9.038c-.038.488-.067.852-.106,1.357.495.033.9.082,1.315.084,2.182.008,4.363,0,6.545.007,1.294.007,1.464.187,1.474,1.505.009,1.246.016,2.493,0,3.74-.016,1.094-.2,1.286-1.315,1.295-2.181.018-4.363.006-6.545.007h-1.23a2.623,2.623,0,0,0,2.2,3.467A6.458,6.458,0,0,0,248.3,57q12.271,0,24.542.009a3.411,3.411,0,0,0,2.3-.663A2.98,2.98,0,0,0,276.2,53.87c-.02-3.974-.008-7.947-.008-11.92V40.579h2.018c.035.363.094.7.094,1.03.006,4.207.014,8.414,0,12.622a4.9,4.9,0,0,1-4.808,4.885q-12.914.034-25.828,0a4.874,4.874,0,0,1-4.864-4.705c-.012-.23-.035-.46-.056-.718-1.236-.541-2.658.23-3.887-.56V47.346c1.17-.817,2.586-.1,3.859-.537V45.563c-.683,0-1.3.01-1.912,0s-1.213-.047-2.008-.08V43.5c0-1.052-.009-2.1,0-3.155.012-1.085.189-1.261,1.31-1.285.846-.018,1.692,0,2.61,0V37.746c-.9,0-1.744.013-2.588,0-1.184-.022-1.326-.17-1.333-1.37q-.011-1.929,0-3.857c0-.34.05-.68.091-1.2l3.865-.2c.018-.857.041-1.659.05-2.462.008-.662,0-1.324,0-1.986a.907.907,0,0,1,1.012-1.012c.579-.014,1.159,0,1.87,0,.037-.517.09-.927.091-1.338.008-3.194-.06-6.39.021-9.583a14.312,14.312,0,0,1,7.6-12.829A14.735,14.735,0,0,1,275.07,12.024a19.79,19.79,0,0,1,.261,3.367c.035,3.038.01,6.077.014,9.115,0,.308.028.615.047,1.016m-6.925.055V24.293c0-3.195.056-6.39-.012-9.583a7.877,7.877,0,0,0-15.753.213c-.011,3.117,0,6.233,0,9.35,0,.414.049.828.079,1.3Zm-17.747-.029V24.325c0-3-.019-6,.011-8.994a13.985,13.985,0,0,1,.247-2.663,9.856,9.856,0,0,1,19.462,2.539c0,3.037,0,6.074,0,9.111,0,.409.056.818.087,1.237h2.7a5.405,5.405,0,0,0,.109-.745c-.006-3.465.033-6.931-.062-10.393a13.064,13.064,0,0,0-.632-3.773A12.782,12.782,0,0,0,247.8,14.359c-.1,3.423-.019,6.852-.012,10.278a8.453,8.453,0,0,0,.1.91Zm.942,8.173h-1.879v1.83h1.879ZM241.046,43.7H242.7V41.856h-1.651Zm-.069-7.923h1.7V33.97h-1.7ZM249.7,49.52c.039.687.068,1.21.1,1.784h1.832V49.52Zm.108-6.131h1.844V41.653h-1.844ZM241,51.672l1.716-.1V49.813H241Z" transform="translate(-127.152 0)" fill="#fff"/>
    <path id="Path_21929" data-name="Path 21929" d="M353.388,61.753c3.32-3.573,7.327-3.975,11.645-3.173a14.924,14.924,0,0,1,5.21,1.979,5.724,5.724,0,0,1,.478.327,1.3,1.3,0,0,1,.178.266c-.6,3.478-1.817,6.9-2.033,10.793-.7-.727-1.212-1.291-1.759-1.815a14.5,14.5,0,0,0-7.123-4.231c-.076-.015-.151-.036-.228-.049-3.533-.615-5.66.954-6.065,4.523a33,33,0,0,0-.208,3.491c-.026,3.738-.017,7.477,0,11.215a15.921,15.921,0,0,0,.136,2.559,21.314,21.314,0,0,0,.707,2.467h-11.4c1.2-2.019.927-4.177.933-6.29.018-6.542,0-13.084.007-19.627a7.628,7.628,0,0,0-.957-4.432l10.483-1.3Z" transform="translate(-182.586 -31.007)" fill="#fff"/>
    <path id="Path_21930" data-name="Path 21930" d="M295.1,77.179c0,2.726.009,5.453-.008,8.179a5.653,5.653,0,0,1-.189,1.613,2.957,2.957,0,0,1-2.735,2.206,22.47,22.47,0,0,1-4.307-.007,3.171,3.171,0,0,1-2.96-3.216c-.031-.309-.018-.622-.018-.934q0-7.887,0-15.774a7.622,7.622,0,0,1,.07-1.28,3.017,3.017,0,0,1,2.9-2.868,19.76,19.76,0,0,1,4.189-.025,3.123,3.123,0,0,1,3.05,3.459c.034,2.531.01,5.063.01,7.595q0,.526,0,1.051m-8.084-.072c0,2.8-.008,5.6,0,8.405,0,1.145.391,1.549,1.526,1.584q1.458.046,2.918,0c1.156-.034,1.538-.423,1.539-1.564q.011-8.405,0-16.81c0-1.173-.431-1.581-1.637-1.6-.856-.017-1.712-.012-2.568,0-1.4.016-1.776.393-1.779,1.819-.006,2.724,0,5.448,0,8.172" transform="translate(-151.691 -34.597)" fill="#fff"/>
    <path id="Path_21931" data-name="Path 21931" d="M61.579,17.288H58.489c-.6-1.117.3-2.514-.634-3.5-.706.115-.74.56-.742.993-.009,2.3-.018,4.593.01,6.889a4.92,4.92,0,0,0,.38,1.193c1.307-.969.423-2.275.964-3.3H61.4a5.783,5.783,0,0,1-.229,3.359,2.934,2.934,0,0,1-.843,1.088A4.516,4.516,0,0,1,55,24.049a3.1,3.1,0,0,1-.9-1.44,8.685,8.685,0,0,1-.251-2.192c-.033-1.6-.027-3.192,0-4.787.05-3.181,2.141-4.736,5.207-3.879a2.869,2.869,0,0,1,2.323,2.477c.121.953.128,1.921.2,3.06" transform="translate(-28.664 -6.133)" fill="#ef1d1e"/>
    <path id="Path_21932" data-name="Path 21932" d="M32.966,17.313h-3.11c-.558-1.145.217-2.468-.567-3.5-.843.1-.778.695-.791,1.16-.041,1.439-.033,2.88-.035,4.32,0,.778-.02,1.56.045,2.333a6.07,6.07,0,0,0,.436,1.266c1.178-1.028.367-2.267.885-3.3h3.052a8.445,8.445,0,0,1-.324,3.4,2.929,2.929,0,0,1-1.987,1.681,5.083,5.083,0,0,1-3.216-.048A2.578,2.578,0,0,1,25.4,22.247q-.135-3.96-.042-7.926a2.614,2.614,0,0,1,1.633-2.265,4.647,4.647,0,0,1,4.376.108,2.4,2.4,0,0,1,1.349,1.81c.144,1.065.165,2.146.246,3.34" transform="translate(-13.484 -6.155)" fill="#ef1d1e"/>
    <path id="Path_21933" data-name="Path 21933" d="M96.939,27.6c-1.193-.03-2.305.327-3.37-.349-.133.077-.262.157-.4.229-1.734.923-3.286.089-3.342-1.86-.062-2.1-.025-4.207-.03-6.31,0-.653,0-1.3,0-2.038H92.81c.029.462.073.872.075,1.282.009,2.065,0,4.129.015,6.194,0,.434-.118.961.478,1.159.615-.261.466-.787.469-1.222.016-2.025,0-4.052.01-6.077,0-.416.042-.831.067-1.314h3.013Z" transform="translate(-47.812 -9.195)" fill="#ef1d1e"/>
    <path id="Path_21934" data-name="Path 21934" d="M107.664,17.04c1.838-.293,2.505-.211,3.282.409a4.037,4.037,0,0,1,.447-.33,2.057,2.057,0,0,1,3.269,1.706c.079,1.005.036,2.02.038,3.031q.007,2.215,0,4.432c0,.3-.055.6-.093.986h-2.9c-.034-.458-.088-.869-.09-1.28-.009-2.022.008-4.044-.016-6.065a7.971,7.971,0,0,0-.247-1.324c-.775.287-.68.8-.683,1.234-.015,2.022-.008,4.043-.018,6.065,0,.418-.041.835-.068,1.354h-2.811c-.331-.792-.422-8.755-.1-10.219" transform="translate(-57.222 -8.923)" fill="#ef1d1e"/>
    <path id="Path_21935" data-name="Path 21935" d="M72.5,22.265a23.98,23.98,0,0,1,.018-2.683,2.768,2.768,0,0,1,2.847-2.7,6.5,6.5,0,0,1,2.182.239,2.523,2.523,0,0,1,1.942,2.491c.039,1.788.013,3.578-.022,5.366a2.518,2.518,0,0,1-1.007,1.905,4.642,4.642,0,0,1-4.958.1,2.751,2.751,0,0,1-1.016-2.149c-.052-.853-.011-1.712-.011-2.569H72.5m3.809-3.442L76,18.734c-.138.158-.4.315-.4.475q-.036,3.016.008,6.033c0,.16.259.316.546.641a4.2,4.2,0,0,0,.277-.992,50.132,50.132,0,0,0-.12-6.068" transform="translate(-38.582 -8.984)" fill="#ef1d1e"/>
    <path id="Path_21936" data-name="Path 21936" d="M11.534,12.452H16.59v2.366l-1.932.2v2.146l1.823.252v2.2l-1.723.156c-.422.835-.145,1.677-.2,2.633l2.239.171v2.451c-1.758.075-3.522.059-5.259,0-.385-1.034-.376-11.64-.008-12.58" transform="translate(-5.993 -6.63)" fill="#ef1d1e"/>
    <path id="Path_21937" data-name="Path 21937" d="M129.462,20.738c-.35-1.757-.35-1.757-.9-2.115a5.713,5.713,0,0,0-.2,1q-.029,2.45,0,4.9c0,.444-.076.979.651,1.08.8-.611.245-1.612.652-2.434h2.577a18.421,18.421,0,0,1-.15,1.894,2.8,2.8,0,0,1-1.734,2.188,4.319,4.319,0,0,1-3.3.029,2.353,2.353,0,0,1-1.668-2.068c-.1-2.011-.081-4.029-.066-6.044a2.121,2.121,0,0,1,1.239-1.855,4.122,4.122,0,0,1,4.329.049c1.244.744,1.3,2.007,1.318,3.376Z" transform="translate(-66.725 -8.905)" fill="#ef1d1e"/>
    <path id="Path_21938" data-name="Path 21938" d="M154.448,24.994h-2.871a84.747,84.747,0,0,1-.039-12.521h2.9c.05,4.172.034,8.3.009,12.521" transform="translate(-80.576 -6.641)" fill="#ef1d1e"/>
    <rect id="Rectangle_9170" data-name="Rectangle 9170" width="3.035" height="10.226" transform="translate(66.475 8.136)" fill="#ef1d1e"/>
    <path id="Path_21939" data-name="Path 21939" d="M43.505,28.06V25.989a22.31,22.31,0,0,1,3.948,0v2.045a16.008,16.008,0,0,1-3.948.027" transform="translate(-23.165 -13.791)" fill="#ef1d1e"/>
    <rect id="Rectangle_9171" data-name="Rectangle 9171" width="3.035" height="1.426" transform="translate(66.485 5.833)" fill="#ef1d1e"/>
    <rect id="Rectangle_9172" data-name="Rectangle 9172" width="1.942" height="2.1" transform="translate(149.122 36.45)" fill="#fff"/>
    <rect id="Rectangle_9173" data-name="Rectangle 9173" width="2.157" height="5.061" transform="translate(137.26 34.723)" fill="#fff"/>
    <path id="Path_21940" data-name="Path 21940" d="M295.74,102.022h-2.16V97.19a1.962,1.962,0,0,1,2.16-.038Z" transform="translate(-156.322 -51.568)" fill="#fff"/>
    <path id="Path_21941" data-name="Path 21941" d="M295.747,90.822h-2.163V88.66a2.656,2.656,0,0,1,2.163-.095Z" transform="translate(-156.324 -47.061)" fill="#fff"/>
    <path id="Path_21942" data-name="Path 21942" d="M4.4,159.007H3.073L0,147.725H1.47l2.26,9.21h.063l2.541-9.21H7.756l2.542,9.21h.062l2.26-9.21h1.47l-3.073,11.282H9.687l-2.6-8.952H7.005Z" transform="translate(0 -78.659)" fill="#fff"/>
    <path id="Path_21943" data-name="Path 21943" d="M38.528,146.671h1.361v4.715h.031a2.779,2.779,0,0,1,2.674-1.447,2.851,2.851,0,0,1,2.971,3.128v5.379H44.2v-5.137a1.89,1.89,0,0,0-2.017-2.158,2.218,2.218,0,0,0-2.3,2.447v4.848H38.528Z" transform="translate(-20.515 -78.098)" fill="#fff"/>
    <path id="Path_21944" data-name="Path 21944" d="M69.418,159.761a3.319,3.319,0,0,1-3.5,2.486c-2.369,0-3.862-1.649-3.862-4.261s1.5-4.324,3.8-4.324c2.252,0,3.659,1.587,3.659,4.136v.532H63.467v.078a2.412,2.412,0,0,0,2.486,2.643,2.064,2.064,0,0,0,2.119-1.29Zm-5.95-2.518H68.1a2.233,2.233,0,0,0-2.268-2.385,2.36,2.36,0,0,0-2.369,2.385" transform="translate(-33.045 -81.82)" fill="#fff"/>
    <path id="Path_21945" data-name="Path 21945" d="M86.579,153.74h1.282v1.368h.031a3.021,3.021,0,0,1,5.6,1.658v5.4H92.13V157c0-1.376-.641-2.127-1.971-2.127a2.158,2.158,0,0,0-2.22,2.4v4.894H86.579Z" transform="translate(-46.101 -81.82)" fill="#fff"/>
    <path id="Path_21946" data-name="Path 21946" d="M131.79,159.007H124.8V147.725h6.99v1.267h-5.583v3.62H131.5v1.251h-5.293v3.878h5.583Z" transform="translate(-66.452 -78.659)" fill="#fff"/>
    <path id="Path_21947" data-name="Path 21947" d="M151.783,162.258h-1.376l-3.112-8.429h1.423l2.362,6.958h.031l2.369-6.958H154.9Z" transform="translate(-78.43 -81.909)" fill="#fff"/>
    <path id="Path_21948" data-name="Path 21948" d="M177.417,159.761a3.319,3.319,0,0,1-3.5,2.486c-2.369,0-3.862-1.649-3.862-4.261s1.5-4.324,3.8-4.324c2.252,0,3.659,1.587,3.659,4.136v.532h-6.052v.078a2.412,2.412,0,0,0,2.486,2.643,2.064,2.064,0,0,0,2.119-1.29Zm-5.95-2.518H176.1a2.233,2.233,0,0,0-2.268-2.385,2.36,2.36,0,0,0-2.369,2.385" transform="translate(-90.551 -81.82)" fill="#fff"/>
    <path id="Path_21949" data-name="Path 21949" d="M194.578,153.74h1.282v1.368h.031a2.034,2.034,0,0,1,2.041-1.447,3.034,3.034,0,0,1,.563.047v1.337a2.854,2.854,0,0,0-.743-.078,1.8,1.8,0,0,0-1.814,1.986v5.215h-1.361Z" transform="translate(-103.606 -81.82)" fill="#fff"/>
    <path id="Path_21950" data-name="Path 21950" d="M210.235,165.26v-1.149a3.165,3.165,0,0,0,.555.047c.782,0,1.2-.375,1.548-1.392l.164-.5-3.12-8.437h1.447l2.361,7.045h.031l2.362-7.045h1.431l-3.3,8.945c-.719,1.955-1.392,2.541-2.885,2.541a3.78,3.78,0,0,1-.594-.055" transform="translate(-111.49 -81.909)" fill="#fff"/>
    <path id="Path_21951" data-name="Path 21951" d="M232.214,157.954c0-2.62,1.517-4.293,3.886-4.293s3.886,1.673,3.886,4.293-1.517,4.292-3.886,4.292-3.886-1.681-3.886-4.292m6.388,0c0-1.939-.93-3.081-2.5-3.081s-2.5,1.15-2.5,3.081.938,3.081,2.5,3.081,2.5-1.149,2.5-3.081" transform="translate(-123.646 -81.82)" fill="#fff"/>
    <path id="Path_21952" data-name="Path 21952" d="M257.4,153.74h1.282v1.368h.031a3.021,3.021,0,0,1,5.6,1.658v5.4h-1.361V157c0-1.376-.641-2.127-1.971-2.127a2.158,2.158,0,0,0-2.22,2.4v4.894H257.4Z" transform="translate(-137.058 -81.82)" fill="#fff"/>
    <path id="Path_21953" data-name="Path 21953" d="M288.024,159.761a3.319,3.319,0,0,1-3.5,2.486c-2.369,0-3.862-1.649-3.862-4.261s1.5-4.324,3.8-4.324c2.252,0,3.659,1.587,3.659,4.136v.532h-6.052v.078a2.412,2.412,0,0,0,2.486,2.643,2.064,2.064,0,0,0,2.119-1.29Zm-5.95-2.518h4.637a2.233,2.233,0,0,0-2.268-2.385,2.36,2.36,0,0,0-2.369,2.385" transform="translate(-149.446 -81.82)" fill="#fff"/>
    <path id="Path_21954" data-name="Path 21954" d="M323.517,147.725a3.628,3.628,0,0,1-.015,7.256h-2.838v4.026h-1.407V147.725Zm-2.854,6h2.486a2.382,2.382,0,1,0,0-4.754h-2.486Z" transform="translate(-169.993 -78.659)" fill="#fff"/>
    <path id="Path_21955" data-name="Path 21955" d="M344.677,153.74h1.282v1.368h.031a2.034,2.034,0,0,1,2.041-1.447,3.035,3.035,0,0,1,.563.047v1.337a2.854,2.854,0,0,0-.743-.078,1.8,1.8,0,0,0-1.814,1.986v5.215h-1.361Z" transform="translate(-183.529 -81.82)" fill="#fff"/>
    <path id="Path_21956" data-name="Path 21956" d="M359.316,157.954c0-2.62,1.517-4.293,3.886-4.293s3.886,1.673,3.886,4.293-1.517,4.292-3.886,4.292-3.886-1.681-3.886-4.292m6.388,0c0-1.939-.93-3.081-2.5-3.081s-2.5,1.15-2.5,3.081.938,3.081,2.5,3.081,2.5-1.149,2.5-3.081" transform="translate(-191.324 -81.82)" fill="#fff"/>
    <path id="Path_21957" data-name="Path 21957" d="M385.482,149.765v1.9h1.642v1.126h-1.642v5.059c0,.774.328,1.126,1.048,1.126a5.705,5.705,0,0,0,.586-.039v1.149a4.943,4.943,0,0,1-.876.071c-1.525,0-2.119-.634-2.119-2.252v-5.113h-1.173v-1.126h1.173v-1.9Z" transform="translate(-203.908 -79.745)" fill="#fff"/>
    <path id="Path_21958" data-name="Path 21958" d="M406.584,159.761a3.319,3.319,0,0,1-3.5,2.486c-2.369,0-3.862-1.649-3.862-4.261s1.5-4.324,3.8-4.324c2.252,0,3.659,1.587,3.659,4.136v.532h-6.052v.078a2.412,2.412,0,0,0,2.486,2.643,2.064,2.064,0,0,0,2.119-1.29Zm-5.95-2.518h4.637A2.233,2.233,0,0,0,403,154.858a2.36,2.36,0,0,0-2.369,2.385" transform="translate(-212.575 -81.82)" fill="#fff"/>
    <path id="Path_21959" data-name="Path 21959" d="M428.9,156.484a2.039,2.039,0,0,0-2.189-1.611c-1.47,0-2.47,1.22-2.47,3.081,0,1.915,1.016,3.08,2.486,3.08a2.012,2.012,0,0,0,2.189-1.563h1.337a3.31,3.31,0,0,1-3.534,2.775c-2.314,0-3.862-1.642-3.862-4.292,0-2.589,1.54-4.293,3.847-4.293a3.323,3.323,0,0,1,3.534,2.822Z" transform="translate(-225.159 -81.82)" fill="#fff"/>
    <path id="Path_21960" data-name="Path 21960" d="M447.954,149.765v1.9H449.6v1.126h-1.642v5.059c0,.774.328,1.126,1.048,1.126a5.707,5.707,0,0,0,.586-.039v1.149a4.944,4.944,0,0,1-.876.071c-1.525,0-2.119-.634-2.119-2.252v-5.113h-1.173v-1.126h1.173v-1.9Z" transform="translate(-237.172 -79.745)" fill="#fff"/>
    <path id="Path_21961" data-name="Path 21961" d="M465.638,153.678c1.712,0,3.01,1.024,3.065,2.408H467.4c-.086-.79-.774-1.282-1.807-1.282s-1.736.493-1.736,1.228c0,.571.454.954,1.423,1.2l1.282.32c1.7.43,2.314,1.024,2.314,2.252,0,1.439-1.384,2.455-3.331,2.455-1.814,0-3.127-.985-3.261-2.448h1.368c.141.86.837,1.322,1.986,1.322s1.869-.477,1.869-1.235c0-.595-.352-.907-1.314-1.158l-1.478-.383c-1.477-.383-2.2-1.126-2.2-2.252,0-1.423,1.29-2.424,3.12-2.424" transform="translate(-246.151 -81.829)" fill="#fff"/>
    <rect id="Rectangle_9174" data-name="Rectangle 9174" width="2.805" height="2.338" transform="translate(117.53 33.389)" fill="#ef1d1e"/>
    <rect id="Rectangle_9175" data-name="Rectangle 9175" width="2.805" height="2.338" transform="translate(117.53 41.337)" fill="#ef1d1e"/>
    <rect id="Rectangle_9176" data-name="Rectangle 9176" width="2.805" height="2.338" transform="translate(117.53 49.285)" fill="#ef1d1e"/>
  </g>
</svg>
