<svg xmlns="http://www.w3.org/2000/svg" xmlns:xlink="http://www.w3.org/1999/xlink" width="494" height="333" viewBox="0 0 494 333"><defs><clipPath id="a"><rect width="319.308" height="119.082" fill="none"/></clipPath></defs><g transform="translate(-146 -1636)"><rect width="494" height="333" transform="translate(146 1636)"/><g transform="translate(233.168 1743.162)"><g clip-path="url(#a)"><path d="M89.191,59.844h17.963c-.639,3.381.729,6.361,1.7,9.382,2.577,7.984,5.281,15.927,7.937,23.886.1.3.228.587.455,1.169.23-.618.382-.948.477-1.294,2.551-9.325,5.124-18.643,7.614-27.984a43.166,43.166,0,0,0,.732-5.018,199.622,199.622,0,0,1,20.051-.029c-.547,2.474.28,4.783.932,7.118q3.6,12.924,7.213,25.847c.1.358.256.7.469,1.27a9.507,9.507,0,0,0,.53-1.02q4.724-13.446,9.421-26.9c.692-2,1.328-4.03.8-6.188,1.264-.417,16.171-.457,17.853-.007-2.666,2-3.51,5.01-4.732,7.767q-6.081,13.716-11.985,27.511a35.425,35.425,0,0,0-1.744,5.375,18.518,18.518,0,0,0-.224,3.352c-.926.3-17.935.42-19.969.1a32.666,32.666,0,0,0-.554-4.579c-2.567-9.723-5.219-19.423-7.845-29.13a4.679,4.679,0,0,0-.2-.461,4.564,4.564,0,0,0-.461.838Q131.72,84.9,127.848,98.964a9.665,9.665,0,0,0-.306,5.229H107.122c.632-2.376-.195-4.508-1.047-6.594-2.9-7.1-5.859-14.174-8.794-21.26-1.36-3.285-2.709-6.576-4.07-9.862-.979-2.364-1.96-4.729-4.173-6.312l.153-.321" transform="translate(-29.604 -19.855)" fill="#fff"/><path d="M54.832,103.736H39.668V100.2c-.594.354-.963.559-1.319.786a23.941,23.941,0,0,1-10,3.456,34.719,34.719,0,0,1-14.863-.94C6.14,101.225,3.648,96.127,4,89.318c.335-6.462,4.161-10.192,9.953-12.181A28.092,28.092,0,0,1,19.631,75.9c6.271-.768,12.43-.459,18.252,2.362a11.423,11.423,0,0,0,1.229.438C40.447,73.477,37.2,68.555,32,68.154c-8.294-.641-16.179.7-23.243,5.44a5.132,5.132,0,0,1-.812.35c-.372-4.022-.732-7.929-1.1-11.954.931-.36,1.727-.74,2.563-.981a66.408,66.408,0,0,1,28.862-2.038,22.081,22.081,0,0,1,5.4,1.623c5.312,2.328,8.026,6.7,8.915,12.239a61.164,61.164,0,0,1,.719,8.455c.11,5.447.053,10.9.024,16.346a8.712,8.712,0,0,0,1.4,5.548c.085.115.067.308.113.553M26.911,95.157a51.95,51.95,0,0,0,5.912-.593,17.83,17.83,0,0,0,5.118-1.818c2.135-1.238,2.1-3.617.1-5.056a10.082,10.082,0,0,0-2.662-1.322,24.808,24.808,0,0,0-9.2-1.113,13.635,13.635,0,0,0-6.119,1.368,4.213,4.213,0,0,0-2.38,4.387,3.522,3.522,0,0,0,3.1,3.236c2.161.432,4.364.658,6.128.911" transform="translate(-1.319 -19.357)" fill="#fff"/><path d="M454.646,85.534c-.914-.153-1.6-.315-2.3-.374-1.771-.15-3.546-.351-5.32-.36-8.12-.042-16.24-.026-24.36-.026-.436,0-.872.039-1.29.06a7.809,7.809,0,0,0,4.6,8.572,20.984,20.984,0,0,0,6.114,1.483,37.391,37.391,0,0,0,18.379-3.167c.594-.266,1.2-.51,1.964-.833.378,3.462.736,6.733,1.119,10.237a41.342,41.342,0,0,1-4.171,1.615,57.583,57.583,0,0,1-27.241.908c-7.686-1.609-12.436-6.373-14.143-14.024a31.949,31.949,0,0,1,.565-17.454A18.8,18.8,0,0,1,422.54,59.355a38.44,38.44,0,0,1,18.165-.1c5.948,1.338,9.778,5,11.954,10.557a28.219,28.219,0,0,1,1.985,10.256c.007,1.762,0,3.523,0,5.462m-13.86-9.154a7.678,7.678,0,0,0-6.1-8.1,14.914,14.914,0,0,0-8.064.471,6.821,6.821,0,0,0-3.908,3.209,6.713,6.713,0,0,0-.7,2.526c-.092,1.166.478,1.71,1.668,1.853a12.61,12.61,0,0,0,1.5.041q6.925,0,13.85,0h1.753" transform="translate(-135.339 -19.357)" fill="#fff"/><path d="M291.044,36.438l4.068.471V49.13h-2.9V39.768H247.549V44.42c.7.047,1.292.119,1.88.122,3.17.011,6.341-.005,9.511.011,1.7.009,1.9.222,1.922,1.942q.027,2.669,0,5.339c-.015,1.795-.25,2.044-2.009,2.053-3.17.016-6.341,0-9.511.009-.5,0-.991.041-1.63.069-.059.517-.113.982-.178,1.545a6.938,6.938,0,0,0,1.2.233c3.059.018,6.118.012,9.177.013,2.957,0,2.957,0,2.956,2.955,0,1.447.023,2.893-.011,4.338a18.008,18.008,0,0,1-.262,1.924h-12.9c-.055.7-.1,1.217-.152,1.937.706.047,1.292.117,1.878.119,3.115.011,6.229-.006,9.344.01,1.847.01,2.09.267,2.1,2.149.013,1.78.023,3.56,0,5.339-.023,1.561-.289,1.836-1.877,1.848-3.114.025-6.229.009-9.344.009h-1.756a3.745,3.745,0,0,0,3.145,4.95,9.219,9.219,0,0,0,1.332.047q17.52,0,35.04.013a4.87,4.87,0,0,0,3.286-.947,4.255,4.255,0,0,0,1.518-3.536c-.028-5.673-.012-11.346-.012-17.019V57.936h2.882c.049.518.134.995.135,1.471.008,6.006.021,12.013,0,18.02a7,7,0,0,1-6.864,6.975q-18.437.048-36.876,0a6.959,6.959,0,0,1-6.944-6.718c-.017-.329-.05-.657-.079-1.025-1.765-.772-3.8.328-5.55-.8V67.6c1.67-1.166,3.693-.14,5.51-.767V65.052c-.975,0-1.852.014-2.729,0s-1.732-.067-2.867-.114V62.1c0-1.5-.013-3,0-4.505.017-1.549.27-1.8,1.87-1.835,1.208-.025,2.416,0,3.727,0V53.891c-1.286,0-2.491.018-3.695,0-1.691-.031-1.894-.243-1.9-1.956q-.016-2.753,0-5.506c0-.486.071-.971.13-1.716l5.518-.28c.026-1.223.058-2.369.071-3.515.011-.945.005-1.89,0-2.835a1.3,1.3,0,0,1,1.445-1.445c.827-.02,1.655,0,2.669,0,.053-.738.129-1.324.13-1.91.011-4.56-.085-9.124.03-13.681.2-8.1,3.807-14.323,10.855-18.316,12.731-7.213,28.384.7,30.928,14.444a28.254,28.254,0,0,1,.373,4.807c.049,4.338.015,8.676.019,13.014,0,.439.039.878.067,1.451m-9.887.078V34.683c0-4.561.079-9.124-.017-13.683a11.246,11.246,0,0,0-22.491.3c-.016,4.45-.005,8.9.005,13.349,0,.591.069,1.183.113,1.863Zm-25.338-.041V34.729c0-4.28-.027-8.561.015-12.841a19.97,19.97,0,0,1,.353-3.8A13.877,13.877,0,0,1,271.371,7.2c7.7,1.008,12.6,6.744,12.6,14.515,0,4.336,0,8.672.007,13.008,0,.584.079,1.168.123,1.766h3.859a7.711,7.711,0,0,0,.156-1.064c-.009-4.947.047-9.9-.088-14.838a18.653,18.653,0,0,0-.9-5.386,18.249,18.249,0,0,0-35.48,5.3c-.145,4.888-.027,9.782-.017,14.675a12.069,12.069,0,0,0,.141,1.3Zm1.344,11.669h-2.682v2.613h2.682ZM242.008,62.395h2.357V59.759h-2.357Zm-.1-11.312h2.423V48.5h-2.423ZM254.368,70.7c.055.981.1,1.728.144,2.547h2.615V70.7Zm.154-8.754h2.633V59.47h-2.633ZM241.939,73.774l2.45-.142V71.12h-2.45Z" transform="translate(-79.397 0)" fill="#fff"/><path d="M357.871,63.259c4.741-5.1,10.461-5.676,16.626-4.53a21.307,21.307,0,0,1,7.439,2.826,8.176,8.176,0,0,1,.683.467,1.856,1.856,0,0,1,.254.38c-.861,4.966-2.594,9.855-2.9,15.41-1-1.039-1.73-1.843-2.511-2.591-2.921-2.8-6.072-5.22-10.17-6.041-.109-.022-.216-.051-.326-.07-5.044-.878-8.082,1.362-8.66,6.458a47.121,47.121,0,0,0-.3,4.984c-.037,5.337-.024,10.675-.006,16.012a22.734,22.734,0,0,0,.194,3.653,30.436,30.436,0,0,0,1.009,3.522H342.929c1.718-2.883,1.323-5.964,1.332-8.98.025-9.341.007-18.681.01-28.022,0-2.181-.067-4.344-1.366-6.327l14.966-1.863Z" transform="translate(-114.011 -19.361)" fill="#fff"/><path d="M299.475,82.4c0,3.892.013,7.785-.012,11.677a8.07,8.07,0,0,1-.27,2.3,4.221,4.221,0,0,1-3.9,3.149,32.081,32.081,0,0,1-6.15-.01c-2.627-.311-3.962-1.938-4.226-4.592-.044-.441-.026-.888-.026-1.333q0-11.26,0-22.521a10.884,10.884,0,0,1,.1-1.827c.425-2.474,1.638-3.815,4.136-4.095a28.213,28.213,0,0,1,5.981-.036c2.884.3,4.315,2.015,4.354,4.939.048,3.614.014,7.229.015,10.843q0,.751,0,1.5m-11.541-.1c0,4-.011,8,.005,12,.007,1.635.559,2.211,2.179,2.262q2.082.065,4.166,0c1.65-.048,2.2-.6,2.2-2.234q.016-12,0-24c0-1.674-.615-2.257-2.337-2.291-1.221-.025-2.444-.017-3.667,0-2,.023-2.535.561-2.541,2.6-.009,3.889,0,7.778,0,11.667" transform="translate(-94.719 -21.603)" fill="#fff"/><path d="M64.893,19.757H60.48c-.853-1.595.424-3.59-.906-4.992-1.007.164-1.056.8-1.059,1.417-.013,3.279-.026,6.558.014,9.836a7.024,7.024,0,0,0,.543,1.7c1.866-1.384.6-3.247,1.376-4.717h4.194a8.257,8.257,0,0,1-.327,4.8,4.189,4.189,0,0,1-1.2,1.554,6.447,6.447,0,0,1-7.608.055,4.421,4.421,0,0,1-1.282-2.056,12.4,12.4,0,0,1-.358-3.13c-.047-2.278-.038-4.557,0-6.835.071-4.541,3.057-6.761,7.435-5.538a4.1,4.1,0,0,1,3.317,3.537c.173,1.361.182,2.742.28,4.369" transform="translate(-17.898 -3.83)" fill="#ef1d1e"/><path d="M36.236,19.774H31.8c-.8-1.635.31-3.523-.81-5-1.2.139-1.11.992-1.129,1.657-.059,2.055-.047,4.112-.049,6.169,0,1.111-.029,2.227.065,3.332a8.667,8.667,0,0,0,.622,1.807c1.682-1.468.524-3.237,1.264-4.711h4.357a12.057,12.057,0,0,1-.463,4.857,4.182,4.182,0,0,1-2.837,2.4,7.257,7.257,0,0,1-4.591-.068,3.68,3.68,0,0,1-2.786-3.4q-.192-5.653-.06-11.316a3.732,3.732,0,0,1,2.332-3.234,6.635,6.635,0,0,1,6.248.154A3.427,3.427,0,0,1,35.884,15c.206,1.52.235,3.064.352,4.769" transform="translate(-8.42 -3.843)" fill="#ef1d1e"/><path d="M100,32.016c-1.7-.043-3.292.467-4.812-.5-.19.11-.374.224-.566.326-2.475,1.318-4.691.127-4.772-2.656-.088-3-.036-6.006-.043-9.009,0-.932,0-1.863,0-2.91h4.3c.041.66.1,1.246.107,1.831.013,2.948,0,5.9.022,8.843.005.619-.169,1.372.682,1.655.878-.373.665-1.123.67-1.745.023-2.892,0-5.785.015-8.676,0-.594.059-1.187.1-1.876H100Z" transform="translate(-29.855 -5.741)" fill="#ef1d1e"/><path d="M107.748,17.162c2.625-.418,3.577-.3,4.685.584a5.765,5.765,0,0,1,.639-.471c2.269-1.258,4.466-.14,4.667,2.436.112,1.435.051,2.884.055,4.327q.01,3.163,0,6.327c0,.429-.079.858-.133,1.408h-4.145c-.048-.654-.126-1.24-.128-1.827-.013-2.886.012-5.773-.023-8.659a11.381,11.381,0,0,0-.353-1.89c-1.106.409-.971,1.139-.975,1.762-.021,2.886-.011,5.773-.025,8.659,0,.6-.058,1.193-.1,1.934H107.9c-.473-1.131-.6-12.5-.148-14.59" transform="translate(-35.731 -5.572)" fill="#ef1d1e"/><path d="M72.518,24.572a34.237,34.237,0,0,1,.025-3.83,3.952,3.952,0,0,1,4.065-3.855,9.277,9.277,0,0,1,3.115.341,3.6,3.6,0,0,1,2.772,3.556c.055,2.553.018,5.108-.031,7.661a3.6,3.6,0,0,1-1.438,2.72,6.627,6.627,0,0,1-7.079.143A3.927,3.927,0,0,1,72.5,28.24c-.074-1.218-.016-2.444-.016-3.667h.038m5.438-4.915-.449-.127c-.2.226-.565.449-.567.678q-.052,4.306.012,8.614c0,.228.37.451.779.916a6,6,0,0,0,.4-1.416c-.06-2.887.239-5.792-.171-8.664" transform="translate(-24.091 -5.61)" fill="#ef1d1e"/><path d="M11.653,12.452h7.219V15.83l-2.759.292v3.064l2.6.36v3.141l-2.46.223c-.6,1.193-.207,2.394-.281,3.759l3.2.244v3.5c-2.51.107-5.029.084-7.509,0-.55-1.477-.537-16.619-.011-17.961" transform="translate(-3.742 -4.14)" fill="#ef1d1e"/><path d="M131.237,22.455c-.5-2.509-.5-2.509-1.281-3.02a8.156,8.156,0,0,0-.285,1.429q-.041,3.5,0,6.995c.006.634-.109,1.4.93,1.543,1.147-.872.35-2.3.931-3.475h3.68a26.3,26.3,0,0,1-.214,2.7,3.99,3.99,0,0,1-2.476,3.124,6.167,6.167,0,0,1-4.712.042,3.359,3.359,0,0,1-2.382-2.953c-.14-2.872-.115-5.753-.095-8.629a3.028,3.028,0,0,1,1.77-2.649,5.885,5.885,0,0,1,6.18.07c1.776,1.063,1.854,2.865,1.882,4.819Z" transform="translate(-41.665 -5.56)" fill="#ef1d1e"/><path d="M155.784,30.349h-4.1c-.439-1.293-.5-16.123-.056-17.876h4.142c.071,5.957.048,11.851.013,17.876" transform="translate(-50.314 -4.147)" fill="#ef1d1e"/><rect width="4.333" height="14.6" transform="translate(94.909 11.617)" fill="#ef1d1e"/><path d="M43.505,28.984V26.026a31.853,31.853,0,0,1,5.636,0v2.92a22.855,22.855,0,0,1-5.636.039" transform="translate(-14.465 -8.612)" fill="#ef1d1e"/><rect width="4.334" height="2.035" transform="translate(94.923 8.329)" fill="#ef1d1e"/><rect width="2.772" height="2.998" transform="translate(212.908 52.041)" fill="#fff"/><rect width="3.079" height="7.225" transform="translate(195.971 49.575)" fill="#fff"/><path d="M296.665,104.235H293.58v-6.9a2.8,2.8,0,0,1,3.085-.055Z" transform="translate(-97.611 -32.201)" fill="#fff"/><path d="M296.673,91.865h-3.089V88.778a3.792,3.792,0,0,1,3.089-.136Z" transform="translate(-97.613 -29.386)" fill="#fff"/><path d="M6.285,163.833h-1.9L0,147.725H2.1l3.226,13.15h.089l3.628-13.15h2.031l3.629,13.15h.089l3.227-13.15h2.1l-4.388,16.108h-1.9l-3.717-12.782H10Z" transform="translate(0 -49.116)" fill="#fff"/><path d="M38.528,146.671H40.47V153.4h.045a3.968,3.968,0,0,1,3.818-2.065c2.635,0,4.242,1.786,4.242,4.466v7.68H46.632v-7.335c0-1.92-.971-3.081-2.88-3.081a3.166,3.166,0,0,0-3.282,3.494v6.922H38.528Z" transform="translate(-12.81 -48.766)" fill="#fff"/><path d="M72.565,162.37c-.335,2.065-2.422,3.549-4.99,3.549-3.382,0-5.514-2.355-5.514-6.084s2.143-6.173,5.425-6.173c3.215,0,5.225,2.266,5.225,5.9v.76h-8.64v.112a3.444,3.444,0,0,0,3.55,3.773,2.947,2.947,0,0,0,3.025-1.842Zm-8.5-3.6h6.62a3.189,3.189,0,0,0-3.237-3.4,3.37,3.37,0,0,0-3.382,3.4" transform="translate(-20.634 -51.09)" fill="#fff"/><path d="M86.579,153.773H88.41v1.954h.045a3.957,3.957,0,0,1,3.818-2.065c2.646,0,4.175,1.7,4.175,4.432v7.713H94.505v-7.379c0-1.965-.916-3.036-2.814-3.036-1.976,0-3.17,1.362-3.17,3.428v6.988H86.579Z" transform="translate(-28.786 -51.09)" fill="#fff"/><path d="M134.78,163.833H124.8V147.725h9.98v1.808h-7.971V154.7h7.558v1.786h-7.558v5.537h7.971Z" transform="translate(-41.494 -49.116)" fill="#fff"/><path d="M153.7,165.863h-1.965L147.3,153.829h2.031l3.372,9.935h.045l3.382-9.935h2.021Z" transform="translate(-48.974 -51.146)" fill="#fff"/><path d="M180.564,162.37c-.335,2.065-2.422,3.549-4.99,3.549-3.382,0-5.514-2.355-5.514-6.084s2.143-6.173,5.425-6.173c3.215,0,5.225,2.266,5.225,5.9v.76h-8.64v.112a3.444,3.444,0,0,0,3.55,3.773,2.947,2.947,0,0,0,3.025-1.842Zm-8.5-3.6h6.62a3.189,3.189,0,0,0-3.237-3.4,3.37,3.37,0,0,0-3.382,3.4" transform="translate(-56.542 -51.09)" fill="#fff"/><path d="M194.578,153.773h1.831v1.954h.045a2.9,2.9,0,0,1,2.914-2.065,4.332,4.332,0,0,1,.8.067v1.908a4.075,4.075,0,0,0-1.061-.111,2.568,2.568,0,0,0-2.59,2.836v7.445h-1.942Z" transform="translate(-64.694 -51.09)" fill="#fff"/><path d="M210.6,170.15v-1.641a4.518,4.518,0,0,0,.792.067c1.117,0,1.719-.536,2.211-1.987l.234-.714-4.454-12.045h2.065l3.372,10.058h.044l3.372-10.058h2.043L215.568,166.6c-1.027,2.791-1.987,3.628-4.119,3.628a5.4,5.4,0,0,1-.848-.078" transform="translate(-69.617 -51.146)" fill="#fff"/><path d="M232.214,159.79c0-3.74,2.165-6.129,5.548-6.129s5.548,2.389,5.548,6.129-2.165,6.128-5.548,6.128-5.548-2.4-5.548-6.128m9.12,0c0-2.768-1.328-4.4-3.573-4.4s-3.572,1.641-3.572,4.4,1.34,4.4,3.572,4.4,3.573-1.641,3.573-4.4" transform="translate(-77.208 -51.09)" fill="#fff"/><path d="M257.4,153.773h1.831v1.954h.045a3.957,3.957,0,0,1,3.818-2.065c2.645,0,4.175,1.7,4.175,4.432v7.713h-1.942v-7.379c0-1.965-.916-3.036-2.814-3.036-1.976,0-3.17,1.362-3.17,3.428v6.988H257.4Z" transform="translate(-85.583 -51.09)" fill="#fff"/><path d="M291.171,162.37c-.335,2.065-2.422,3.549-4.99,3.549-3.382,0-5.514-2.355-5.514-6.084s2.143-6.173,5.426-6.173c3.215,0,5.224,2.266,5.224,5.9v.76h-8.64v.112a3.444,3.444,0,0,0,3.55,3.773,2.947,2.947,0,0,0,3.025-1.842Zm-8.5-3.6h6.62a3.189,3.189,0,0,0-3.237-3.4,3.37,3.37,0,0,0-3.382,3.4" transform="translate(-93.317 -51.09)" fill="#fff"/><path d="M325.34,147.725a5.18,5.18,0,0,1-.022,10.36h-4.053v5.749h-2.009V147.725Zm-4.075,8.574h3.55c2.3,0,3.617-1.262,3.617-3.4s-1.306-3.382-3.617-3.382h-3.55Z" transform="translate(-106.148 -49.116)" fill="#fff"/><path d="M344.677,153.773h1.831v1.954h.045a2.9,2.9,0,0,1,2.914-2.065,4.332,4.332,0,0,1,.8.067v1.908a4.075,4.075,0,0,0-1.061-.111,2.568,2.568,0,0,0-2.59,2.836v7.445h-1.943Z" transform="translate(-114.6 -51.09)" fill="#fff"/><path d="M359.316,159.79c0-3.74,2.165-6.129,5.548-6.129s5.548,2.389,5.548,6.129-2.165,6.128-5.548,6.128-5.548-2.4-5.548-6.128m9.12,0c0-2.768-1.328-4.4-3.573-4.4s-3.572,1.641-3.572,4.4,1.34,4.4,3.572,4.4,3.573-1.641,3.573-4.4" transform="translate(-119.467 -51.09)" fill="#fff"/><path d="M386.566,149.765v2.712h2.344v1.608h-2.344v7.223c0,1.1.469,1.607,1.5,1.607a8.152,8.152,0,0,0,.837-.055V164.5a7.059,7.059,0,0,1-1.25.1c-2.177,0-3.025-.9-3.025-3.215v-7.3h-1.674v-1.608h1.674v-2.712Z" transform="translate(-127.325 -49.795)" fill="#fff"/><path d="M409.731,162.37c-.335,2.065-2.422,3.549-4.99,3.549-3.382,0-5.514-2.355-5.514-6.084s2.143-6.173,5.426-6.173c3.215,0,5.224,2.266,5.224,5.9v.76h-8.64v.112a3.444,3.444,0,0,0,3.55,3.773,2.947,2.947,0,0,0,3.025-1.842Zm-8.5-3.6h6.62a3.189,3.189,0,0,0-3.237-3.4,3.37,3.37,0,0,0-3.382,3.4" transform="translate(-132.737 -51.09)" fill="#fff"/><path d="M431.488,157.692a2.911,2.911,0,0,0-3.126-2.3c-2.1,0-3.527,1.742-3.527,4.4,0,2.734,1.451,4.4,3.55,4.4a2.872,2.872,0,0,0,3.125-2.232h1.909c-.324,2.344-2.3,3.962-5.046,3.962-3.3,0-5.514-2.344-5.514-6.128,0-3.7,2.2-6.129,5.492-6.129a4.744,4.744,0,0,1,5.046,4.03Z" transform="translate(-140.595 -51.09)" fill="#fff"/><path d="M449.038,149.765v2.712h2.344v1.608h-2.344v7.223c0,1.1.469,1.607,1.5,1.607a8.155,8.155,0,0,0,.837-.055V164.5a7.06,7.06,0,0,1-1.25.1c-2.177,0-3.025-.9-3.025-3.215v-7.3h-1.674v-1.608H447.1v-2.712Z" transform="translate(-148.096 -49.795)" fill="#fff"/><path d="M467.072,153.678c2.444,0,4.3,1.462,4.376,3.438h-1.864c-.123-1.127-1.105-1.831-2.579-1.831s-2.478.7-2.478,1.753c0,.815.648,1.362,2.031,1.708l1.831.457c2.434.614,3.3,1.463,3.3,3.215,0,2.054-1.976,3.505-4.755,3.505-2.59,0-4.465-1.406-4.655-3.494h1.954c.2,1.228,1.195,1.887,2.836,1.887s2.668-.681,2.668-1.764c0-.849-.5-1.3-1.876-1.653l-2.11-.547c-2.109-.547-3.137-1.607-3.137-3.215,0-2.032,1.842-3.461,4.454-3.461" transform="translate(-153.703 -51.096)" fill="#fff"/><rect width="4.005" height="3.338" transform="translate(167.802 47.671)" fill="#ef1d1e"/><rect width="4.005" height="3.338" transform="translate(167.802 59.019)" fill="#ef1d1e"/><rect width="4.005" height="3.338" transform="translate(167.802 70.367)" fill="#ef1d1e"/></g></g></g></svg>