<svg xmlns="http://www.w3.org/2000/svg" xmlns:xlink="http://www.w3.org/1999/xlink" width="569" height="844" viewBox="0 0 569 844"><defs><clipPath id="a"><rect width="338.007" height="78.953" fill="none"/></clipPath></defs><g transform="translate(-676 -537)"><rect width="494" height="333" transform="translate(713 617)"/><g transform="translate(676 537)" fill="none" stroke="#fff" stroke-width="1"><rect width="569" height="844" stroke="none"/><rect x="0.5" y="0.5" width="568" height="843" fill="none"/></g><g transform="translate(791 743.528)"><g clip-path="url(#a)"><path d="M214.384,33a26.384,26.384,0,1,0,26.384,26.384A26.382,26.382,0,0,0,214.384,33m0,44.832a18.449,18.449,0,1,1,18.449-18.449,18.449,18.449,0,0,1-18.449,18.449" transform="translate(-113.412 -19.907)" fill="#ff000a"/><path d="M248.821,82.911A10.911,10.911,0,1,1,237.911,72a10.91,10.91,0,0,1,10.911,10.911" transform="translate(-136.938 -43.434)" fill="#ff000a"/><path d="M241.828,40.683A38.684,38.684,0,0,1,169.37,59.544a33.51,33.51,0,0,0,3.456-6.511,32.732,32.732,0,1,0,0-24.7,33.51,33.51,0,0,0-3.456-6.511,38.684,38.684,0,0,1,72.458,18.861" transform="translate(-102.173 -1.207)" fill="#ff000a"/><path d="M85.767,59.384A26.384,26.384,0,1,1,59.384,33,26.384,26.384,0,0,1,85.767,59.384" transform="translate(-19.907 -19.907)" fill="#0079c5"/><path d="M39.476,0A39.476,39.476,0,1,0,78.953,39.476,39.476,39.476,0,0,0,39.476,0m0,73A33.525,33.525,0,1,1,73,39.476,33.525,33.525,0,0,1,39.476,73" fill="#0079c5"/><path d="M92.626,62.9V73.3H83.432V97.769H73.847V73.3h-9.1V62.9Z" transform="translate(-39.061 -37.943)" fill="#fff"/><path d="M395.913,10.336v5h-6.794V35.978h-6.246V15.34h-6.794v-5Z" transform="translate(-226.871 -6.235)" fill="#fff"/><path d="M455.535,35.978,450.2,26.3h-1.5v9.679h-6.246V10.336h10.483A11.547,11.547,0,0,1,458.11,11.4a7.3,7.3,0,0,1,3.2,2.9,8.106,8.106,0,0,1,1.059,4.109,7.633,7.633,0,0,1-1.443,4.566,7.764,7.764,0,0,1-4.255,2.849l5.917,10.155Zm-6.831-14.1h3.872a3.544,3.544,0,0,0,2.575-.84,3.173,3.173,0,0,0,.858-2.375,3.074,3.074,0,0,0-.858-2.3,3.547,3.547,0,0,0-2.575-.84H448.7Z" transform="translate(-266.914 -6.235)" fill="#fff"/><rect width="6.246" height="25.642" transform="translate(203.45 4.101)" fill="#fff"/><path d="M570.627,22.664a7.518,7.518,0,0,1-3.141,2.977,11.055,11.055,0,0,1-5.26,1.132h-3.872v9.2h-6.246V10.336h10.118a11.522,11.522,0,0,1,5.187,1.059,7.29,7.29,0,0,1,3.178,2.922,8.5,8.5,0,0,1,1.059,4.274,8.257,8.257,0,0,1-1.023,4.072m-6.21-1.7a3.133,3.133,0,0,0,.877-2.374,3.133,3.133,0,0,0-.877-2.375,3.728,3.728,0,0,0-2.667-.84h-3.4v6.429h3.4a3.726,3.726,0,0,0,2.667-.84" transform="translate(-333.061 -6.235)" fill="#fff"/><path d="M626.114,31.156H634.3v4.821H619.868V10.336h6.246Z" transform="translate(-373.937 -6.235)" fill="#fff"/><path d="M680.34,15.34v5.187H688.7v4.822H680.34v5.625h9.46v5H674.094V10.336H689.8v5Z" transform="translate(-406.649 -6.235)" fill="#fff"/><path d="M738.59,36.67a5.446,5.446,0,0,1-2.721-4.749,5.466,5.466,0,0,1,.73-2.794,5.448,5.448,0,0,1,4.749-2.721,5.469,5.469,0,0,1,2.794.731,5.385,5.385,0,0,1,1.99,1.99,5.467,5.467,0,0,1,.731,2.794,5.448,5.448,0,0,1-2.721,4.749,5.465,5.465,0,0,1-2.794.731,5.394,5.394,0,0,1-2.758-.731" transform="translate(-443.915 -15.929)" fill="#fff"/><path d="M786.418,33.023a13.77,13.77,0,0,1-5.249-5.149,14.383,14.383,0,0,1-1.943-7.433,14.28,14.28,0,0,1,1.943-7.413A13.825,13.825,0,0,1,786.418,7.9a15.27,15.27,0,0,1,14.546,0,13.54,13.54,0,0,1,5.209,5.129,14.524,14.524,0,0,1,1.9,7.413,14.506,14.506,0,0,1-1.923,7.433,13.677,13.677,0,0,1-5.209,5.149,15.231,15.231,0,0,1-14.526,0m12.662-6.652a8.521,8.521,0,0,0,2.024-5.931,8.5,8.5,0,0,0-2.024-5.95,6.932,6.932,0,0,0-5.39-2.224,7.014,7.014,0,0,0-5.43,2.2,8.487,8.487,0,0,0-2.023,5.971,8.5,8.5,0,0,0,2.023,5.951,6.982,6.982,0,0,0,5.43,2.224,6.9,6.9,0,0,0,5.39-2.244" transform="translate(-470.07 -3.653)" fill="#fff"/><path d="M401.046,102.376v3.837h-8.01v4.145h5.994v3.725h-5.994v7.954h-4.789V102.376Z" transform="translate(-234.211 -61.759)" fill="#fff"/><rect width="4.79" height="19.662" transform="translate(179.719 40.617)" fill="#fff"/><path d="M517.518,122.038h-4.79l-8.01-12.128v12.128h-4.79V102.376h4.79l8.01,12.184V102.376h4.79Z" transform="translate(-301.583 -61.758)" fill="#fff"/><path d="M592.242,118.565H584.9l-1.176,3.473h-5.013l7.114-19.662h5.546l7.114,19.662h-5.07Zm-1.232-3.7-2.437-7.2-2.409,7.2Z" transform="translate(-349.111 -61.759)" fill="#fff"/><path d="M681.935,122.038h-4.79l-8.01-12.128v12.128h-4.789V102.376h4.789l8.01,12.184V102.376h4.79Z" transform="translate(-400.769 -61.758)" fill="#fff"/><path d="M822.61,106.213v3.977h6.414v3.7H822.61V118.2h7.254v3.837H817.82V102.376h12.044v3.837Z" transform="translate(-493.353 -61.759)" fill="#fff"/><path d="M393.2,174.635V176.5h-3.885v2.01h2.907v1.807h-2.907v3.857h-2.323v-9.535Z" transform="translate(-233.454 -105.349)" fill="#fff"/><rect width="2.323" height="9.535" transform="translate(163.345 69.286)" fill="#fff"/><path d="M436.33,184.17h-2.323l-3.885-5.881v5.881H427.8v-9.535h2.323l3.885,5.908v-5.908h2.323Z" transform="translate(-258.072 -105.349)" fill="#fff"/><path d="M464.522,182.485h-3.559l-.57,1.684h-2.431l3.45-9.535H464.1l3.45,9.535h-2.459Zm-.6-1.793-1.182-3.491-1.168,3.491Z" transform="translate(-276.267 -105.348)" fill="#fff"/><path d="M499.289,184.17h-2.323l-3.885-5.881v5.881h-2.323v-9.535h2.323l3.885,5.908v-5.908h2.323Z" transform="translate(-296.052 -105.349)" fill="#fff"/><path d="M522.113,176.7a4.368,4.368,0,0,1,1.7-1.725,4.949,4.949,0,0,1,2.479-.618,4.746,4.746,0,0,1,2.907.9,4.305,4.305,0,0,1,1.616,2.445h-2.554a2.063,2.063,0,0,0-.808-.91,2.27,2.27,0,0,0-1.189-.313,2.217,2.217,0,0,0-1.738.747,3.327,3.327,0,0,0,0,3.993,2.217,2.217,0,0,0,1.738.747,2.273,2.273,0,0,0,1.189-.312,2.066,2.066,0,0,0,.808-.91h2.554a4.274,4.274,0,0,1-1.616,2.438,4.77,4.77,0,0,1-2.907.889,4.948,4.948,0,0,1-2.479-.618,4.38,4.38,0,0,1-1.7-1.718,5.483,5.483,0,0,1,0-5.032" transform="translate(-314.598 -105.184)" fill="#fff"/><path d="M556.9,176.5v1.929h3.11v1.793H556.9v2.092h3.518v1.861h-5.841v-9.535h5.841V176.5Z" transform="translate(-334.548 -105.349)" fill="#fff"/><path d="M598.541,174.635V176.5h-3.885v2.01h2.907v1.807h-2.907v3.857h-2.323v-9.535Z" transform="translate(-357.327 -105.349)" fill="#fff"/><path d="M618.5,183.433a4.67,4.67,0,0,1-1.779-1.746,5.133,5.133,0,0,1,0-5.032,4.685,4.685,0,0,1,1.779-1.739,5.175,5.175,0,0,1,4.93,0,4.591,4.591,0,0,1,1.766,1.739,5.2,5.2,0,0,1-.007,5.032,4.637,4.637,0,0,1-1.766,1.746,5.164,5.164,0,0,1-4.924,0m4.292-2.255a3.3,3.3,0,0,0,0-4.027,2.351,2.351,0,0,0-1.827-.754,2.378,2.378,0,0,0-1.84.747,3.319,3.319,0,0,0,0,4.041,2.367,2.367,0,0,0,1.84.753,2.341,2.341,0,0,0,1.827-.761" transform="translate(-371.639 -105.142)" fill="#fff"/><path d="M654.814,184.17l-1.983-3.6h-.557v3.6h-2.323v-9.535h3.9a4.293,4.293,0,0,1,1.922.394,2.714,2.714,0,0,1,1.188,1.08,3.014,3.014,0,0,1,.394,1.528,2.839,2.839,0,0,1-.536,1.7,2.887,2.887,0,0,1-1.583,1.059l2.2,3.776Zm-2.54-5.243h1.44a1.318,1.318,0,0,0,.957-.312,1.178,1.178,0,0,0,.319-.883,1.141,1.141,0,0,0-.319-.856,1.32,1.32,0,0,0-.957-.312h-1.44Z" transform="translate(-392.085 -105.349)" fill="#fff"/><path d="M699.772,174.635v9.535h-2.323v-3.925h-3.613v3.925h-2.323v-9.535h2.323v3.735h3.613v-3.735Z" transform="translate(-417.158 -105.349)" fill="#fff"/><path d="M724.853,176.5v1.929h3.111v1.793h-3.111v2.092h3.518v1.861h-5.84v-9.535h5.84V176.5Z" transform="translate(-435.869 -105.349)" fill="#fff"/><path d="M751.905,184.17l-1.983-3.6h-.557v3.6h-2.323v-9.535h3.9a4.293,4.293,0,0,1,1.922.394,2.714,2.714,0,0,1,1.188,1.08,3.014,3.014,0,0,1,.394,1.528,2.838,2.838,0,0,1-.536,1.7,2.888,2.888,0,0,1-1.583,1.059l2.2,3.776Zm-2.54-5.243h1.44a1.318,1.318,0,0,0,.957-.312,1.179,1.179,0,0,0,.319-.883,1.142,1.142,0,0,0-.319-.856,1.32,1.32,0,0,0-.957-.312h-1.44Z" transform="translate(-450.656 -105.349)" fill="#fff"/><path d="M776.8,183.433a4.67,4.67,0,0,1-1.779-1.746,5.133,5.133,0,0,1,0-5.032,4.685,4.685,0,0,1,1.779-1.739,5.175,5.175,0,0,1,4.93,0,4.591,4.591,0,0,1,1.766,1.739,5.2,5.2,0,0,1-.007,5.032,4.637,4.637,0,0,1-1.766,1.746,5.165,5.165,0,0,1-4.924,0m4.292-2.255a3.3,3.3,0,0,0,0-4.027,2.351,2.351,0,0,0-1.827-.754,2.378,2.378,0,0,0-1.84.747,3.32,3.32,0,0,0,0,4.041,2.368,2.368,0,0,0,1.84.753,2.341,2.341,0,0,0,1.827-.761" transform="translate(-467.136 -105.142)" fill="#fff"/><path d="M810.578,176.5v1.929h3.11v1.793h-3.11v2.092H814.1v1.861h-5.841v-9.535H814.1V176.5Z" transform="translate(-487.582 -105.349)" fill="#fff"/><path d="M833.929,183.719a3.052,3.052,0,0,1-1.324-1,2.744,2.744,0,0,1-.523-1.6h2.472a1.2,1.2,0,0,0,.367.808,1.178,1.178,0,0,0,.815.279,1.273,1.273,0,0,0,.815-.238.8.8,0,0,0,.3-.659.781.781,0,0,0-.238-.584,1.916,1.916,0,0,0-.584-.38,9.407,9.407,0,0,0-.984-.34,10.663,10.663,0,0,1-1.508-.57,2.783,2.783,0,0,1-1-.842,2.345,2.345,0,0,1-.421-1.453,2.5,2.5,0,0,1,.965-2.085,3.962,3.962,0,0,1,2.513-.754,4.008,4.008,0,0,1,2.54.754,2.7,2.7,0,0,1,1.032,2.1h-2.513a.983.983,0,0,0-.34-.726,1.194,1.194,0,0,0-.8-.265,1,1,0,0,0-.679.224.862.862,0,0,0,.177,1.365,7.132,7.132,0,0,0,1.358.557,12.509,12.509,0,0,1,1.5.6,2.854,2.854,0,0,1,1,.828,2.217,2.217,0,0,1,.421,1.4,2.749,2.749,0,0,1-.414,1.48,2.9,2.9,0,0,1-1.2,1.06,4.117,4.117,0,0,1-1.861.394,4.91,4.91,0,0,1-1.874-.339" transform="translate(-501.956 -105.142)" fill="#fff"/><path d="M751.658,110.566a5.75,5.75,0,0,0,10.315,3.5v6.411a10.911,10.911,0,1,1,0-19.821v6.411a5.75,5.75,0,0,0-10.315,3.5" transform="translate(-450.328 -60.117)" fill="#fff"/></g></g></g></svg>